<?xml version="1.0" standalone="no"?>
<!DOCTYPE svg PUBLIC "-//W3C//DTD SVG 1.1//EN" "http://www.w3.org/Graphics/SVG/1.1/DTD/svg11.dtd" >
<svg xmlns="http://www.w3.org/2000/svg">
<metadata>
Created by FontPrep 20130207 at Wed Jun 17 10:03:57 2015
 By Wendell P. Barreto
Copyright (c) Mark Simonson, 2005. All rights reserved.
</metadata>
<defs>
<font id="7ade8918d16a5bc419c0196fa1d616c0" horiz-adv-x='1024' >
  <font-face 
    font-family="ProximaNovaCond-LightIt"
    font-weight="300"
    font-style="italic"
    font-stretch="normal"
    units-per-em="2048"
    panose-1="2 0 5 6 3 0 0 2 0 4"
    ascent="1618"
    descent="-430"
    x-height="989"
    cap-height="1366"
    bbox="-389 -528 1884 1815"
    underline-thickness="40"
    underline-position="-231"
    unicode-range="U+0020-FB04"
  />
<missing-glyph horiz-adv-x="1026" 
d="M848 -123v1602h-590v-1602h590zM913 -184h-718v1724h718v-1724z" />
    <glyph glyph-name="f_f_j" unicode="ffj" horiz-adv-x="1370" 
d="M1326 1145q-32 -1 -54 21t-21 55q0 33 29 59q28 26 60 25t54 -21t22 -54t-30 -60q-28 -26 -60 -25zM830 -401q-108 0 -160 79l65 72q31 -59 101 -59q104 0 141 162l254 1136h102l-252 -1136q-31 -135 -87 -195t-164 -59zM1065 1386q72 0 123 -32l-45 -84q-31 25 -76 24
q-121 0 -160 -166l-28 -139h170l-21 -92h-170l-199 -897h-104l199 897h-131l20 92h131l31 139q55 258 260 258zM575 1386q102 0 164 -67l-61 -76q-39 51 -100 51q-125 0 -160 -166l-29 -139h170l-20 -92h-170l-199 -897h-104l198 897h-131l21 92h131l30 141q55 256 260 256z
" />
    <glyph glyph-name="f_j" unicode="fj" horiz-adv-x="882" 
d="M839 1145q-32 -1 -54 21q-21 22 -21 55t29 59t61 25t52 -21q22 -20 22 -54t-28 -60t-61 -25zM342 -401q-108 0 -160 79l66 72q31 -59 100 -59q104 0 141 162l254 1136h103l-252 -1136q-31 -135 -87 -195q-57 -59 -165 -59zM575 1386q72 0 123 -32l-45 -84q-31 25 -75 24
q-121 0 -160 -166l-29 -139h170l-20 -92h-170l-199 -897h-104l198 897h-131l21 92h131l30 139q55 258 260 258z" />
    <glyph glyph-name="f_f" unicode="ff" horiz-adv-x="976" 
d="M1065 1386q102 0 164 -67l-62 -76q-39 51 -100 51q-125 0 -160 -166l-28 -139h170l-21 -92h-170l-199 -897h-104l199 897h-131l20 92h131l31 141q55 256 260 256zM575 1386q102 0 164 -67l-61 -76q-39 51 -100 51q-125 0 -160 -166l-29 -139h170l-20 -92h-170l-199 -897
h-104l198 897h-131l21 92h131l30 141q55 256 260 256z" />
    <glyph glyph-name="fi" unicode="fi" horiz-adv-x="882" 
d="M627 0h-103l219 989h103zM839 1145q-32 -1 -54 21q-21 22 -21 55t29 59t61 25t52 -21q22 -20 22 -54t-28 -60t-61 -25zM575 1386q72 0 123 -32l-45 -84q-31 25 -75 24q-121 0 -160 -166l-29 -139h170l-20 -92h-170l-199 -897h-104l198 897h-131l21 92h131l30 139
q55 258 260 258z" />
    <glyph glyph-name="fl" unicode="fl" horiz-adv-x="882" 
d="M627 0h-103l301 1366h103zM575 1386q72 0 123 -32l-45 -84q-31 25 -75 24q-121 0 -160 -166l-29 -139h170l-20 -92h-170l-199 -897h-104l198 897h-131l21 92h131l30 139q55 258 260 258z" />
    <glyph glyph-name="f_f_i" unicode="ffi" horiz-adv-x="1370" 
d="M1114 0h-102l219 989h102zM1326 1145q-32 -1 -54 21t-21 55q0 33 29 59q28 26 60 25t54 -21t22 -54t-30 -60q-28 -26 -60 -25zM1065 1386q72 0 123 -32l-45 -84q-31 25 -76 24q-121 0 -160 -166l-28 -139h170l-21 -92h-170l-199 -897h-104l199 897h-131l20 92h131l31 139
q55 258 260 258zM575 1386q102 0 164 -67l-61 -76q-39 51 -100 51q-125 0 -160 -166l-29 -139h170l-20 -92h-170l-199 -897h-104l198 897h-131l21 92h131l30 141q55 256 260 256z" />
    <glyph glyph-name="f_f_l" unicode="ffl" horiz-adv-x="1370" 
d="M1114 0h-102l301 1366h102zM1065 1386q72 0 123 -32l-45 -84q-31 25 -76 24q-121 0 -160 -166l-28 -139h170l-21 -92h-170l-199 -897h-104l199 897h-131l20 92h131l31 139q55 258 260 258zM575 1386q102 0 164 -67l-61 -76q-39 51 -100 51q-125 0 -160 -166l-29 -139h170
l-20 -92h-170l-199 -897h-104l198 897h-131l21 92h131l30 141q55 256 260 256z" />
    <glyph glyph-name="f_b" unicode="fb" horiz-adv-x="1449" 
d="M927 68q93 0 176 102t123 236t40 256t-56 191t-144 69q-87 0 -159 -54t-119 -135l-106 -481q24 -78 88 -131t157 -53zM928 -25q-90 -1 -160 47t-106 136l-35 -158h-103l301 1366h103l-113 -518q109 166 272 166q131 0 210 -91t79 -247t-51 -312t-157 -273
q-106 -116 -240 -116zM575 1386q72 0 123 -32l-45 -84q-31 25 -75 24q-121 0 -160 -166l-29 -139h170l-20 -92h-170l-199 -897h-104l198 897h-131l21 92h131l30 139q55 258 260 258z" />
    <glyph glyph-name="f_h" unicode="fh" horiz-adv-x="1411" 
d="M1076 922q-146 0 -285 -181l-164 -741h-103l301 1366h103l-113 -520q141 168 297 168q100 0 160 -51t59 -142q0 -25 -10 -76l-164 -745h-104l159 727q10 41 11 64q-1 131 -147 131zM575 1386q72 0 123 -32l-45 -84q-31 25 -75 24q-121 0 -160 -166l-29 -139h170l-20 -92
h-170l-199 -897h-104l198 897h-131l21 92h131l30 139q55 258 260 258z" />
    <glyph glyph-name="f_k" unicode="fk" horiz-adv-x="1357" 
d="M1208 0h-116l-201 477l-203 -198l-61 -279h-103l301 1366h103l-207 -942l579 565h130l-457 -446zM575 1386q72 0 123 -32l-45 -84q-31 25 -75 24q-121 0 -160 -166l-29 -139h170l-20 -92h-170l-199 -897h-104l198 897h-131l21 92h131l30 139q55 258 260 258z" />
    <glyph glyph-name=".notdef" horiz-adv-x="1026" 
d="M848 -123v1602h-590v-1602h590zM913 -184h-718v1724h718v-1724z" />
    <glyph glyph-name=".null" horiz-adv-x="0" 
 />
    <glyph glyph-name="nonmarkingreturn" horiz-adv-x="681" 
 />
    <glyph glyph-name="space" unicode=" " horiz-adv-x="444" 
 />
    <glyph glyph-name="exclam" unicode="!" horiz-adv-x="446" 
d="M132 156q36 0 60 -23t23 -59q1 -36 -27 -66q-28 -28 -65 -28t-61 24t-24 60t29 64t65 28zM231 354h-81l196 1012h135z" />
    <glyph glyph-name="quotedbl" unicode="&#x22;" horiz-adv-x="645" 
d="M565 879h-57q49 401 52 429t26 54q22 24 54 24t50 -18t19 -47l-11 -41zM299 879h-57q49 401 52 429t25 54q23 24 55 24t50 -18t18 -47l-10 -41z" />
    <glyph glyph-name="numbersign" unicode="#" horiz-adv-x="1011" 
d="M530 465l226 436h-197l-221 -436h192zM393 0h-94l195 381h-197l-193 -381h-94l193 381h-187l39 84h189l223 436h-191l37 82h195l190 383h95l-191 -383h195l190 383h94l-192 -383h186l-35 -82h-192l-223 -436h194l-39 -84h-194z" />
    <glyph glyph-name="dollar" unicode="$" horiz-adv-x="929" 
d="M344 1022q0 -66 41 -117t117 -106l106 485q-112 -2 -188 -81t-76 -181zM702 381q0 70 -38 122q-39 52 -113 107l-117 -530q123 8 196 94q72 86 72 207zM618 1389h15l41 184h92l-45 -195q168 -35 248 -149l-78 -82q-68 100 -193 127l-116 -531q76 -53 120 -93t82 -110
q39 -70 39 -147q1 -172 -113 -294t-300 -124l-39 -180h-92l40 189q-100 14 -183 62t-124 116l82 84q82 -133 248 -162l129 582q-111 77 -161 129q-50 53 -69 103t-20 112q0 158 118 268t279 111z" />
    <glyph glyph-name="percent" unicode="%" horiz-adv-x="1312" 
d="M442 795q82 0 153 95t71 230q0 88 -44 138t-126 50t-153 -94q-71 -96 -71 -231q0 -88 44 -138t126 -50zM758 1126q0 -172 -100 -290t-220 -119q-122 0 -190 74t-68 184q0 174 100 293q100 118 220 118q122 0 190 -74t68 -186zM725 242q0 -88 44 -138t126 -51q82 0 154 95
t71 231q0 88 -44 138t-126 50t-154 -95t-71 -230zM892 -25q-122 0 -190 74t-67 187q0 174 98 292q99 118 221 117q122 0 190 -73t66 -185q0 -174 -98 -293t-220 -119zM233 0h-81l1013 1366h86z" />
    <glyph glyph-name="ampersand" unicode="&#x26;" horiz-adv-x="1044" 
d="M459 975q0 -70 20 -158q145 82 220 160q75 77 75 199t-117 122q-74 0 -136 -97t-62 -226zM350 68q123 0 260 147q-76 143 -118 250t-82 207q-256 -166 -256 -380q0 -116 56 -170t140 -54zM338 -25q-133 0 -217 76t-84 211q0 178 91 290t255 208q-33 113 -33 225
q0 160 94 281t218 120q96 0 155 -53t59 -143t-39 -185q-13 -32 -51 -70l-56 -56q-31 -33 -226 -148q23 -68 84 -207q55 -139 96 -219q104 141 188 318l84 -45q-121 -238 -225 -367q16 -33 125 -211h-129q-41 72 -72 127q-152 -152 -317 -152z" />
    <glyph glyph-name="quotesingle" unicode="'" horiz-adv-x="382" 
d="M299 879h-57q49 401 52 429t25 54q23 24 55 24t50 -18t18 -47l-10 -41z" />
    <glyph glyph-name="parenleft" unicode="(" horiz-adv-x="425" 
d="M45 84q0 694 477 1319l60 -43q-199 -303 -315 -647t-115 -690q0 -189 45 -400l-72 -31q-80 233 -80 492z" />
    <glyph glyph-name="parenright" unicode=")" horiz-adv-x="425" 
d="M379 911q0 -696 -479 -1319l-58 43q199 303 315 647t115 691q0 170 -45 399l72 31q80 -233 80 -492z" />
    <glyph glyph-name="asterisk" unicode="*" horiz-adv-x="645" 
d="M430 819h-78l68 242l-232 -105l-22 68l237 84l-186 129l51 61l170 -149l41 237h78l-65 -243l229 106l22 -67l-235 -84l186 -129l-53 -62l-170 150z" />
    <glyph glyph-name="plus" unicode="+" horiz-adv-x="892" 
d="M866 649h-342l-86 -385h-90l86 385h-342l19 82h342l82 373h90l-82 -373h342z" />
    <glyph glyph-name="comma" unicode="," horiz-adv-x="446" 
d="M219 59q0 -84 -61 -169t-146 -128l-49 54q57 29 102 76q44 48 58 96h-14q-29 0 -50 21q-20 23 -20 57t29 62q28 28 66 28t62 -25t23 -72z" />
    <glyph glyph-name="hyphen" unicode="-" horiz-adv-x="544" 
d="M473 449h-424l21 94h422z" />
    <glyph glyph-name="period" unicode="." horiz-adv-x="446" 
d="M123 -20q-37 0 -61 24t-24 60t29 64q27 28 65 28t62 -24t24 -60t-30 -64q-28 -28 -65 -28z" />
    <glyph glyph-name="slash" unicode="/" horiz-adv-x="481" 
d="M-29 -41h-92l713 1448h94z" />
    <glyph glyph-name="zero" unicode="0" horiz-adv-x="1028" 
d="M451 80q123 0 226 157t153 357t51 371q0 317 -224 317q-94 0 -178 -92t-137 -229q-117 -302 -117 -562q1 -319 226 -319zM442 -25q-160 0 -246 114t-85 325q0 211 64 430q65 219 197 381q132 161 292 161t246 -112t85 -324q0 -320 -145 -638q-68 -146 -176 -242t-232 -95
z" />
    <glyph glyph-name="one" unicode="1" horiz-adv-x="589" 
d="M324 0h-113l266 1212l-262 -231l-55 76l362 309h103z" />
    <glyph glyph-name="two" unicode="2" horiz-adv-x="976" 
d="M612 1284q-170 0 -286 -147l-70 73q150 176 360 176q147 0 247 -76q99 -77 99 -208q0 -132 -92 -274t-198 -253t-276 -271t-214 -202h568l-23 -102h-723l27 119q436 404 556 531q121 128 153 177q77 117 88 165t12 87q0 93 -64 149t-164 56z" />
    <glyph glyph-name="three" unicode="3" horiz-adv-x="935" 
d="M391 -25q-141 0 -248 75q-106 75 -141 204l96 53q33 -109 111 -168t182 -59q135 0 217 106t82 254q0 100 -67 156q-68 55 -155 55t-108 -2l27 109q16 -2 138 -2t207 92t85 227q0 94 -65 151q-66 56 -174 56q-156 0 -281 -149l-66 69q63 84 157 134t200 50q156 0 252 -78
t96 -224q0 -144 -95 -257t-229 -133q88 -27 141 -99q52 -73 52 -169q0 -180 -117 -316t-297 -135z" />
    <glyph glyph-name="four" unicode="4" horiz-adv-x="901" 
d="M575 477l168 752l-589 -752h421zM586 0h-113l82 375h-535l25 110l690 881h152l-197 -889h156l-23 -102h-155z" />
    <glyph glyph-name="five" unicode="5" horiz-adv-x="976" 
d="M424 -25q-279 0 -371 275l99 53q59 -223 278 -223q127 0 224 132t98 302q0 111 -62 173q-62 63 -178 63q-115 0 -238 -111l-77 45l151 682h645l-22 -102h-531l-114 -514q94 98 233 98t225 -87t86 -239q0 -215 -129 -381t-317 -166z" />
    <glyph glyph-name="six" unicode="6" horiz-adv-x="978" 
d="M455 80q126 0 217 144q90 144 90 298q0 98 -60 160t-165 61q-162 0 -312 -217q-12 -78 -12 -159q0 -133 58 -210t184 -77zM436 -25q-166 0 -249 111t-83 316t84 464q45 139 109 254q63 115 165 191q102 75 217 75q116 0 198 -57t116 -160l-88 -65q-49 178 -229 178
q-86 0 -158 -53t-122 -145q-110 -203 -150 -435q53 78 142 135q88 58 204 58t202 -81t85 -221t-53 -265q-52 -126 -156 -213t-234 -87z" />
    <glyph glyph-name="seven" unicode="7" horiz-adv-x="827" 
d="M221 0h-129l713 1264h-580l23 102h713l-19 -78z" />
    <glyph glyph-name="eight" unicode="8" horiz-adv-x="964" 
d="M176 297q0 -105 71 -161t181 -56t198 89q89 89 89 222q1 98 -63 171t-134 95q-143 -25 -243 -122q-99 -98 -99 -238zM852 1081q0 89 -65 145t-171 56t-186 -83t-80 -210q0 -78 58 -144t129 -95q133 26 224 110t91 221zM831 379q-1 -172 -119 -288t-287 -116t-269 77
q-100 76 -100 226t98 267t272 172q-78 41 -135 118t-58 169q0 162 119 272q120 110 270 110t250 -76t100 -226q0 -148 -98 -249t-245 -141q84 -51 143 -133t59 -182z" />
    <glyph glyph-name="nine" unicode="9" horiz-adv-x="978" 
d="M846 997q0 133 -58 210t-185 77q-126 0 -216 -144t-90 -298q0 -98 60 -160t165 -61q162 0 312 217q12 78 12 159zM623 1389q167 0 249 -111t82 -319t-84 -461q-45 -139 -108 -254q-62 -115 -164 -191t-218 -76q-116 -1 -198 57t-116 161l88 65q49 -178 229 -178
q229 0 363 386q47 131 67 247q-55 -78 -143 -135q-88 -58 -204 -58t-201 81t-85 220t52 265t157 214q105 87 234 87z" />
    <glyph glyph-name="colon" unicode=":" horiz-adv-x="444" 
d="M321 1004q39 0 61 -24t22 -60t-30 -65q-28 -28 -64 -28t-60 25q-24 24 -25 60q0 36 29 64t67 28zM123 -20q-37 0 -61 24t-24 60t29 64q27 28 65 28t62 -24t24 -60t-30 -64q-28 -28 -65 -28z" />
    <glyph glyph-name="semicolon" unicode=";" horiz-adv-x="446" 
d="M321 1004q39 0 61 -24t22 -60t-30 -65q-28 -28 -64 -28t-60 25q-24 24 -25 60q0 36 29 64t67 28zM219 59q0 -84 -61 -169t-146 -128l-49 54q57 29 102 76q44 48 58 96h-14q-29 0 -50 21q-20 23 -20 57t29 62q28 28 66 28t62 -25t23 -72z" />
    <glyph glyph-name="less" unicode="&#x3c;" horiz-adv-x="892" 
d="M778 260l-688 387l19 76l860 389l-25 -104l-739 -328l594 -326z" />
    <glyph glyph-name="equal" unicode="=" horiz-adv-x="892" 
d="M819 442h-774l18 82h777zM909 844h-774l19 82h774z" />
    <glyph glyph-name="greater" unicode="&#x3e;" horiz-adv-x="892" 
d="M866 647l-862 -387l25 102l743 326l-598 330l21 94l688 -389z" />
    <glyph glyph-name="question" unicode="?" horiz-adv-x="790" 
d="M298 156q38 0 62 -23t23 -59t-29 -66q-28 -28 -65 -28t-61 24t-24 60t28 64t66 28zM293 500q0 78 46 144t111 112q64 47 130 92q66 46 112 110t45 143q0 79 -59 132t-160 53q-137 0 -244 -100l-47 80q133 120 293 120t249 -76t89 -182q0 -104 -47 -181t-115 -128
t-136 -97q-162 -109 -163 -218q0 -55 29 -96l-94 -48q-39 62 -39 140z" />
    <glyph glyph-name="at" unicode="@" horiz-adv-x="1400" 
d="M643 256q145 0 275 195l69 327q-16 66 -60 114t-114 48q-141 0 -239 -150q-97 -151 -97 -321q0 -97 43 -155t123 -58zM897 346q-114 -172 -289 -172q-96 0 -166 75t-69 214q0 217 128 389t302 172q78 0 130 -46t75 -116l26 125h96l-122 -584q-4 -20 -4 -49q0 -98 81 -98
q62 0 137 111q36 53 59 148q24 95 24 212q0 233 -127 373q-126 140 -316 141q-190 0 -346 -111q-156 -112 -246 -288t-90 -369q0 -245 139 -399t357 -154q170 0 328 117l32 -51q-173 -129 -368 -129q-244 0 -400 172t-155 442q0 332 222 584t515 252q232 0 376 -162
t144 -412q0 -251 -94 -405t-215 -154q-72 0 -116 46t-46 114z" />
    <glyph glyph-name="A" unicode="A" horiz-adv-x="1009" 
d="M727 440l-55 793l-408 -793h463zM874 0h-118l-25 338h-516l-172 -338h-129l713 1366h137z" />
    <glyph glyph-name="B" unicode="B" horiz-adv-x="1019" 
d="M477 102q131 0 210 100t79 218q0 116 -55 172t-156 57h-256l-121 -547h299zM616 752q131 0 198 98t67 202q-1 104 -57 158q-56 53 -144 54h-244l-112 -512h292zM477 0h-434l301 1366h363q131 0 214 -79t83 -215t-80 -249t-203 -133q74 -20 119 -96t45 -162
q0 -174 -109 -303t-299 -129z" />
    <glyph glyph-name="C" unicode="C" horiz-adv-x="1071" 
d="M555 -25q-207 0 -325 127t-117 355q0 157 47 321q102 358 329 524q121 87 259 87t238 -77t147 -212l-109 -35q-78 219 -289 219q-133 0 -252 -133t-185 -323t-65 -371q0 -181 84 -279t236 -98t293 166l86 -58q-170 -213 -377 -213z" />
    <glyph glyph-name="D" unicode="D" horiz-adv-x="1126" 
d="M393 102q133 0 245 80q194 139 284 451q37 129 36 241q0 180 -88 284t-223 106h-211l-258 -1162h215zM375 0h-332l301 1366h324q170 0 290 -131t119 -353q0 -222 -102 -446q-55 -121 -133 -216q-78 -96 -200 -158t-267 -62z" />
    <glyph glyph-name="E" unicode="E" horiz-adv-x="927" 
d="M711 0h-668l301 1366h668l-21 -102h-555l-112 -512h538l-22 -103h-541l-121 -547h555z" />
    <glyph glyph-name="F" unicode="F" horiz-adv-x="903" 
d="M158 0h-115l301 1366h668l-21 -102h-555l-112 -512h538l-22 -103h-541z" />
    <glyph glyph-name="G" unicode="G" horiz-adv-x="1132" 
d="M554 -25q-208 0 -325 128q-117 127 -117 347t77 432t228 359t331 148q145 0 240 -77t140 -202l-102 -39q-76 213 -291 213q-135 0 -254 -132t-183 -322t-65 -374q0 -184 84 -280t237 -96t284 143l77 352h-358l23 103h467l-111 -502q-174 -201 -382 -201z" />
    <glyph glyph-name="H" unicode="H" horiz-adv-x="1146" 
d="M883 0h-115l143 651h-610l-143 -651h-115l301 1366h115l-135 -612h612l133 612h115z" />
    <glyph glyph-name="I" unicode="I" horiz-adv-x="421" 
d="M158 0h-115l301 1366h115z" />
    <glyph glyph-name="J" unicode="J" horiz-adv-x="798" 
d="M233 -25q-203 0 -288 146l69 80q68 -121 213 -121q211 0 267 254l227 1032h115l-228 -1034q-80 -357 -375 -357z" />
    <glyph glyph-name="K" unicode="K" horiz-adv-x="1005" 
d="M856 0h-131l-301 639l-166 -180l-100 -459h-115l301 1366h115l-162 -729l672 729h147l-610 -651z" />
    <glyph glyph-name="L" unicode="L" horiz-adv-x="823" 
d="M653 0h-624l301 1366h114l-280 -1264h512z" />
    <glyph glyph-name="M" unicode="M" horiz-adv-x="1355" 
d="M1092 0h-115l262 1188l-649 -1188h-45l-125 1188l-262 -1188h-115l301 1366h162l117 -1094l600 1094h170z" />
    <glyph glyph-name="N" unicode="N" horiz-adv-x="1142" 
d="M879 0h-111l-358 1137l-252 -1137h-115l301 1366h115l358 -1120l248 1120h115z" />
    <glyph glyph-name="O" unicode="O" horiz-adv-x="1208" 
d="M547 80q139 0 258 131t183 320q65 189 65 371t-88 282q-87 100 -227 100t-259 -132t-182 -322t-63 -370t86 -280q88 -100 227 -100zM543 -25q-195 0 -313 131q-118 132 -118 344t76 422q74 210 224 364q150 153 338 153q188 -1 307 -133t119 -349q0 -149 -46 -311
q-103 -364 -326 -530q-122 -91 -261 -91z" />
    <glyph glyph-name="P" unicode="P" horiz-adv-x="958" 
d="M305 672l486 109q84 110 83 259q0 100 -56 162t-144 62h-238zM698 1366q129 0 214 -91t85 -228q0 -188 -117 -333q-118 -144 -337 -145h-260l-125 -569h-115l301 1366h354z" />
    <glyph glyph-name="Q" unicode="Q" horiz-adv-x="1208" 
d="M551 80q80 0 158 49l-121 279l92 36l108 -249q119 119 192 319t73 385t-88 285q-87 100 -227 100t-259 -132t-182 -322t-63 -370t86 -280q88 -100 231 -100zM543 -25q-195 0 -313 131q-118 132 -118 344t76 422q74 210 224 364q150 153 338 153q188 -1 307 -133t119 -351
t-94 -452t-246 -363l51 -117l-94 -36l-43 94q-101 -56 -207 -56z" />
    <glyph glyph-name="R" unicode="R" horiz-adv-x="1005" 
d="M557 672q150 0 235 110t85 260q1 100 -59 160t-144 62h-238l-131 -592h252zM686 1366q129 0 221 -88t92 -229q0 -185 -106 -317t-272 -152l174 -580h-125l-160 569h-227l-125 -569h-115l301 1366h342z" />
    <glyph glyph-name="S" unicode="S" horiz-adv-x="940" 
d="M92 246q104 -166 333 -166q116 0 196 87t79 214q0 61 -36 117t-88 93q-149 106 -217 159q-140 110 -140 264t118 264t279 111q111 0 205 -43t146 -117l-78 -82q-92 137 -277 137q-114 0 -192 -79t-78 -183q0 -54 36 -106t89 -90t115 -84t114 -91q53 -45 89 -113t36 -145
q0 -172 -116 -295t-302 -123q-127 1 -235 53t-158 134z" />
    <glyph glyph-name="T" unicode="T" horiz-adv-x="890" 
d="M391 0h-115l281 1264h-334l23 102h782l-22 -102h-336z" />
    <glyph glyph-name="U" unicode="U" horiz-adv-x="1130" 
d="M517 -25q-181 -1 -285 95t-103 260q0 59 10 100l205 936h115l-207 -938q-10 -35 -10 -86q0 -120 74 -192t204 -72q131 0 209 86t117 264l207 938h114l-206 -936q-51 -229 -157 -342t-287 -113z" />
    <glyph glyph-name="V" unicode="V" horiz-adv-x="1009" 
d="M463 0h-137l-111 1366h119l86 -1225l627 1225h129z" />
    <glyph glyph-name="W" unicode="W" horiz-adv-x="1421" 
d="M231 0v1366h121l-16 -1182l512 1182h102l-10 -1182l506 1182h125l-602 -1366h-127l12 1149l-498 -1149h-125z" />
    <glyph glyph-name="X" unicode="X" horiz-adv-x="1009" 
d="M872 0h-124l-218 598l-473 -598h-143l565 705l-241 661h127l200 -567l441 567h145l-537 -674z" />
    <glyph glyph-name="Y" unicode="Y" horiz-adv-x="989" 
d="M442 0h-114l129 586l-250 780h123l200 -666l498 666h135l-592 -780z" />
    <glyph glyph-name="Z" unicode="Z" horiz-adv-x="927" 
d="M731 0h-756l23 100l856 1164h-598l20 102h742l-21 -98l-860 -1166h617z" />
    <glyph glyph-name="bracketleft" unicode="[" horiz-adv-x="409" 
d="M176 -389h-301l395 1778h301l-20 -86h-213l-356 -1606h213z" />
    <glyph glyph-name="backslash" unicode="\" horiz-adv-x="481" 
d="M272 -41l-82 1448h91l81 -1448h-90z" />
    <glyph glyph-name="bracketright" unicode="]" horiz-adv-x="409" 
d="M137 -389h-299l21 86h211l354 1606h-211l18 86h301z" />
    <glyph glyph-name="asciicircum" unicode="^" horiz-adv-x="772" 
d="M772 682h-88l-121 596l-387 -596h-98l459 684h81z" />
    <glyph glyph-name="underscore" unicode="_" horiz-adv-x="864" 
d="M721 -168h-875l21 86h874z" />
    <glyph glyph-name="grave" unicode="`" horiz-adv-x="356" 
d="M498 1139h-80l-211 295h119z" />
    <glyph glyph-name="grave" unicode="&#x2cb;" horiz-adv-x="356" 
d="M498 1139h-80l-211 295h119z" />
    <glyph glyph-name="a" unicode="a" horiz-adv-x="962" 
d="M523 922q-93 0 -176 -102t-123 -236q-40 -133 -40 -256t56 -192q56 -68 142 -68q87 0 160 55t117 133l107 481q-22 77 -86 131t-157 54zM522 1014q90 0 160 -47t106 -136l33 158h105l-219 -989h-105l33 141q-113 -166 -275 -166q-130 1 -208 93t-78 248t51 311t157 271
t240 116z" />
    <glyph glyph-name="b" unicode="b" horiz-adv-x="962" 
d="M437 68q93 0 176 102t123 236t40 256t-56 191t-144 69t-158 -54q-72 -54 -119 -135l-106 -481q23 -78 87 -131t157 -53zM438 -25q-90 -1 -160 47t-106 136l-35 -158h-102l301 1366h102l-112 -518q109 166 272 166q131 0 210 -91t79 -247t-51 -312t-158 -273
q-107 -116 -240 -116z" />
    <glyph glyph-name="c" unicode="c" horiz-adv-x="819" 
d="M416 -25q-152 -1 -246 99t-94 268t57 316t172 252t254 104q184 0 270 -142l-71 -65q-62 115 -186 115t-213 -96t-131 -222q-42 -127 -42 -259t67 -205q67 -72 179 -72t201 98l47 -74q-112 -117 -264 -117z" />
    <glyph glyph-name="d" unicode="d" horiz-adv-x="962" 
d="M523 922q-93 0 -176 -102t-123 -236q-40 -133 -40 -256t56 -192q56 -68 142 -68q87 0 160 55t117 133l107 481q-22 77 -86 131t-157 54zM522 1014q90 0 160 -47t106 -136l117 535h105l-303 -1366h-105l33 141q-113 -166 -275 -166q-130 1 -208 93t-78 248t51 311t157 271
t240 116z" />
    <glyph glyph-name="e" unicode="e" horiz-adv-x="950" 
d="M776 653q0 119 -60 196t-178 77t-212 -118t-119 -265h557q12 53 12 110zM439 -25q-169 -1 -266 101t-97 280q0 136 53 284t167 261t260 113t234 -95q87 -95 87 -266q0 -98 -27 -192h-657q-10 -57 -11 -109q0 -127 70 -208t199 -81t239 115l47 -69q-129 -134 -298 -134z
" />
    <glyph glyph-name="f" unicode="f" horiz-adv-x="489" 
d="M575 1386q102 0 164 -67l-61 -76q-39 51 -100 51q-125 0 -160 -166l-29 -139h170l-20 -92h-170l-199 -897h-104l198 897h-131l21 92h131l30 141q55 256 260 256z" />
    <glyph glyph-name="g" unicode="g" horiz-adv-x="962" 
d="M184 334q0 -126 56 -192t140 -66q85 0 158 52t121 130l107 477q-25 78 -92 132q-68 55 -158 55t-172 -100t-121 -232q-39 -131 -39 -256zM309 -401q-229 0 -336 139l70 80q84 -127 268 -127q219 0 285 282l41 177q-111 -166 -281 -166q-126 0 -204 88t-78 246t49 312
q49 152 155 268t242 116q80 0 156 -51t112 -132l35 158h103l-228 -1016q-84 -374 -389 -374z" />
    <glyph glyph-name="h" unicode="h" horiz-adv-x="921" 
d="M733 791q0 131 -146 131t-286 -181l-164 -741h-102l301 1366h102l-112 -520q141 168 297 168q100 0 159 -51t60 -142q0 -25 -11 -76l-163 -745h-105l160 727q10 41 10 64z" />
    <glyph glyph-name="i" unicode="i" horiz-adv-x="393" 
d="M137 0h-102l219 989h102zM348 1145q-33 -1 -53 21q-21 22 -21 55t29 59t61 25t54 -21t20 -54q0 -34 -28 -60q-29 -25 -62 -25z" />
    <glyph glyph-name="j" unicode="j" horiz-adv-x="393" 
d="M348 1145q-33 -1 -53 21q-21 22 -21 55t29 59t61 25t54 -21t20 -54q0 -34 -28 -60q-29 -25 -62 -25zM-148 -401q-108 0 -159 79l65 72q31 -59 101 -59q104 0 141 162l254 1136h102l-252 -1136q-31 -135 -87 -195q-57 -60 -165 -59z" />
    <glyph glyph-name="k" unicode="k" horiz-adv-x="870" 
d="M719 0h-117l-201 477l-202 -198l-62 -279h-102l301 1366h102l-207 -942l580 565h129l-457 -446z" />
    <glyph glyph-name="l" unicode="l" horiz-adv-x="393" 
d="M137 0h-102l301 1366h102z" />
    <glyph glyph-name="m" unicode="m" horiz-adv-x="1372" 
d="M1184 791q0 63 -37 97t-99 34t-134 -52q-71 -52 -123 -127l-164 -743h-105l164 735q8 49 8 64q0 57 -35 90t-98 33q-123 0 -260 -179l-164 -743h-102l219 989h102l-30 -143q51 68 124 118q72 50 158 50t140 -51t53 -115v-17q137 182 291 183q88 0 144 -51t56 -140
q0 -29 -12 -78l-164 -745h-104l164 735q8 41 8 56z" />
    <glyph glyph-name="n" unicode="n" horiz-adv-x="921" 
d="M733 791q0 131 -145 131t-287 -179l-164 -743h-102l219 989h102l-30 -143q141 168 297 168q100 0 159 -50t60 -143q0 -31 -11 -76l-163 -745h-105l160 727q10 47 10 64z" />
    <glyph glyph-name="o" unicode="o" horiz-adv-x="962" 
d="M414 68q150 0 255 191t105 384q0 135 -60 207t-169 72q-150 0 -255 -192t-106 -384q0 -134 60 -206t170 -72zM883 654q-1 -166 -57 -316t-168 -256t-256 -107q-146 -1 -236 97t-90 263t56 315t168 257t258 107t236 -98q89 -98 89 -262z" />
    <glyph glyph-name="p" unicode="p" horiz-adv-x="958" 
d="M437 68q93 0 176 102t123 236t40 256t-56 191t-144 69t-158 -54q-72 -54 -119 -135l-106 -481q23 -78 87 -131t157 -53zM438 -25q-90 -1 -160 47t-106 136l-119 -535h-102l303 1366h102l-30 -141q109 166 272 166q131 0 210 -91t79 -247t-51 -312t-158 -273
q-107 -116 -240 -116z" />
    <glyph glyph-name="q" unicode="q" horiz-adv-x="958" 
d="M523 922q-93 0 -176 -102t-123 -236q-40 -133 -40 -256t56 -192q56 -68 142 -68q87 0 160 55t117 133l107 481q-22 77 -86 131t-157 54zM522 1014q90 0 160 -47t106 -136l33 158h105l-303 -1366h-105l117 518q-113 -166 -275 -166q-130 1 -208 93t-78 248t51 311t157 271
t240 116z" />
    <glyph glyph-name="r" unicode="r" horiz-adv-x="569" 
d="M545 903q-57 0 -129 -52t-119 -130l-160 -721h-102l219 989h102l-32 -151q66 88 138 130t183 42l-24 -113q-18 6 -76 6z" />
    <glyph glyph-name="s" unicode="s" horiz-adv-x="772" 
d="M311 -25q-225 0 -317 154l72 68q34 -57 100 -95t154 -39t152 59q62 60 62 128q1 115 -139 195q-57 34 -114 70t-99 91q-41 55 -41 123q0 119 85 202t229 83q94 0 171 -39t115 -101l-67 -67q-27 53 -89 86t-144 33q-83 0 -139 -50t-56 -114t41 -106q41 -44 98 -78t115 -71
q140 -91 141 -220t-91 -221t-239 -91z" />
    <glyph glyph-name="t" unicode="t" horiz-adv-x="507" 
d="M260 -25q-170 0 -170 148q0 29 8 61l160 713h-135l20 92h136l59 271h102l-59 -271h170l-21 -92h-170l-155 -700q-6 -25 -6 -52q0 -78 82 -77q45 0 86 36l24 -79q-55 -50 -131 -50z" />
    <glyph glyph-name="u" unicode="u" horiz-adv-x="921" 
d="M334 68q148 0 282 174l166 747h105l-219 -989h-105l31 143q-141 -168 -295 -168q-101 -1 -161 49t-60 144q0 29 10 76l164 745h104l-159 -727q-10 -45 -11 -63q0 -131 148 -131z" />
    <glyph glyph-name="v" unicode="v" horiz-adv-x="802" 
d="M348 0h-117l-102 989h111l73 -866l461 866h117z" />
    <glyph glyph-name="w" unicode="w" horiz-adv-x="1263" 
d="M852 0h-102l-43 846l-414 -846h-103l-47 989h107l24 -842l412 842h98l39 -842l400 842h114z" />
    <glyph glyph-name="x" unicode="x" horiz-adv-x="804" 
d="M662 0h-115l-156 426l-344 -426h-123l416 504l-180 485h112l144 -405l323 405h123l-397 -485z" />
    <glyph glyph-name="y" unicode="y" horiz-adv-x="802" 
d="M-10 -303q44 1 74 23q28 22 63 83l102 179l-100 1007h111l73 -862l461 862h117l-670 -1214q-98 -176 -233 -176q-60 0 -101 20l39 92q20 -14 64 -14z" />
    <glyph glyph-name="z" unicode="z" horiz-adv-x="776" 
d="M571 0h-585l16 86l629 811h-447l21 92h577l-18 -84l-631 -813h457z" />
    <glyph glyph-name="braceleft" unicode="{" horiz-adv-x="454" 
d="M143 -389q-72 0 -125 49t-53 127q0 31 8 55l105 473q4 20 4 53t-20 63t-60 30l18 78q109 0 140 145l104 477q53 227 256 228h96l-20 -86h-94q-117 0 -148 -142l-110 -491q-31 -143 -131 -181q59 -29 59 -108q0 -37 -8 -70l-103 -471q-6 -37 -6 -39q0 -47 28 -75t69 -29
h88l-19 -86h-78z" />
    <glyph glyph-name="bar" unicode="|" horiz-adv-x="393" 
d="M281 -41h-86v1448h86v-1448z" />
    <glyph glyph-name="braceright" unicode="}" horiz-adv-x="454" 
d="M309 1389q72 1 125 -49t53 -130q0 -12 -8 -53l-104 -473q-4 -20 -4 -39q0 -106 78 -106l-19 -78q-106 0 -137 -146l-107 -477q-51 -227 -256 -227h-94l21 86h94q55 0 94 37t53 104l109 492q29 141 131 180q-59 29 -59 108q0 37 8 70l104 471q4 25 4 55t-27 60
q-28 29 -67 29h-90l20 86h78z" />
    <glyph glyph-name="asciitilde" unicode="~" horiz-adv-x="907" 
d="M709 879q-68 0 -104 41t-44 100q-8 58 -12 118q-5 60 -23 101t-63 41q-139 0 -238 -406l-84 13q109 475 328 475q69 0 105 -42t44 -101t12 -117t23 -102q18 -42 64 -42q141 0 237 408l86 -8q-113 -479 -331 -479z" />
    <glyph glyph-name="nbspace" unicode="&#xa0;" horiz-adv-x="444" 
 />
    <glyph glyph-name="exclamdown" unicode="&#xa1;" horiz-adv-x="446" 
d="M320 1010q36 0 60 -24t24 -60t-28 -65q-28 -27 -65 -27t-61 24t-23 60q0 36 28 64t65 28zM213 635h80l-197 -1012h-135z" />
    <glyph glyph-name="cent" unicode="&#xa2;" horiz-adv-x="819" 
d="M186 342q0 -194 142 -256l186 832q-147 -29 -238 -205q-90 -177 -90 -371zM76 357q0 145 54 291t163 250t242 114l32 145h90l-32 -149q133 -20 204 -136l-71 -65q-51 94 -154 111l-190 -850h18q113 0 201 98l47 -74q-113 -117 -260 -117l-27 2l-39 -182h-90l43 197
q-106 31 -169 125q-62 94 -62 240z" />
    <glyph glyph-name="sterling" unicode="&#xa3;" horiz-adv-x="886" 
d="M199 920q0 186 125 326t297 140q119 0 209 -62t110 -167l-102 -41q-14 76 -72 124t-143 48q-119 0 -210 -106t-91 -269q0 -88 57 -200q27 -53 37 -80h227l-18 -84h-193q2 -8 2 -23q0 -114 -70 -222t-161 -165q49 19 97 19t134 -40t131 -40q96 0 170 78l29 -90
q-92 -92 -211 -93q-82 0 -174 45t-166 45t-188 -77l-27 92q133 61 229 182t97 242q0 14 -5 47h-260l19 84h217l-38 76q-58 114 -58 211z" />
    <glyph glyph-name="currency" unicode="&#xa4;" horiz-adv-x="1069" 
d="M544 332q150 0 268 116t118 262q0 148 -89 235t-238 87t-267 -116t-119 -263q0 -147 89 -234t238 -87zM117 633q0 195 164 354l-76 100l65 54l80 -99q123 88 281 88t284 -116l160 131l51 -62l-159 -131q63 -104 63 -221q0 -186 -164 -354l78 -98l-70 -56l-75 101
q-125 -90 -283 -90t-285 120l-161 -135l-47 64l157 129q-63 115 -63 221z" />
    <glyph glyph-name="yen" unicode="&#xa5;" horiz-adv-x="989" 
d="M449 0h-115l57 258h-403l20 82h402l53 246h-402l19 82h356l-223 698h123l201 -666l497 666h135l-530 -698h344l-18 -82h-387l-54 -246h385l-18 -82h-385z" />
    <glyph glyph-name="brokenbar" unicode="&#xa6;" horiz-adv-x="393" 
d="M281 760h-86v647h86v-647zM281 -41h-86v647h86v-647z" />
    <glyph glyph-name="section" unicode="&#xa7;" horiz-adv-x="774" 
d="M614 631q0 115 -145 190q-131 -17 -193 -75t-61 -126q0 -68 49 -117q49 -48 146 -97q204 65 204 225zM719 638q1 -87 -59 -164t-177 -112q123 -82 123 -210t-89 -224q-89 -94 -232 -94q-229 0 -336 146l74 65q78 -127 258 -127q92 0 155 64q64 64 64 136t-40 116t-98 76
t-113 67q-56 35 -96 91t-40 144t71 164q72 76 201 92q-162 94 -162 234q0 117 86 201t219 83q211 0 308 -135l-70 -57q-74 111 -234 111q-86 1 -145 -55t-59 -122t40 -112q40 -45 98 -77t116 -67q137 -84 137 -234z" />
    <glyph glyph-name="dieresis" unicode="&#xa8;" horiz-adv-x="532" 
d="M330 1235q0 -31 -26 -55t-56 -25t-49 19t-19 51t25 55t55 25t50 -19t20 -51zM674 1236q0 -30 -25 -56t-55 -25q-30 -1 -50 19t-20 51t25 55t55 25t50 -19t20 -50z" />
    <glyph glyph-name="copyright" unicode="&#xa9;" horiz-adv-x="1593" 
d="M782 246q-164 0 -272 109q-106 110 -107 274q-1 207 147 351t351 144t303 -163l-55 -39q-76 141 -262 141q-158 0 -287 -126t-129 -308q0 -135 91 -229q92 -94 232 -93q140 0 240 96l35 -51q-123 -106 -287 -106zM1487 684q1 266 -191 458t-459 191q-267 0 -457 -190
q-190 -191 -192 -459q0 -268 190 -458t458 -191t460 191t191 458zM1544 684q0 -293 -208 -500t-500 -207t-498 207q-207 207 -207 500t206 500t499 207q292 0 500 -207t208 -500z" />
    <glyph glyph-name="ordfeminine" unicode="&#xaa;" horiz-adv-x="708" 
d="M385 651q-211 -1 -211 263q0 140 87 277q87 136 218 136q59 0 111 -31t76 -82l20 97h86l-143 -643h-86l22 96q-80 -113 -180 -113zM494 1257q-96 -1 -164 -115t-68 -220q0 -198 141 -199q98 0 179 117l67 307q-14 47 -58 79t-97 31z" />
    <glyph glyph-name="guillemotleft" unicode="&#xab;" horiz-adv-x="716" 
d="M565 129h-98l-174 369l338 362h110l-344 -371zM332 129h-99l-174 369l338 362h111l-344 -371z" />
    <glyph glyph-name="logicalnot" unicode="&#xac;" horiz-adv-x="894" 
d="M928 926l-109 -484h-86l88 402h-686l19 82h774z" />
    <glyph glyph-name="registered" unicode="&#xae;" horiz-adv-x="1011" 
d="M758 1059q0 41 -25 63t-61 21h-127l-41 -185h141q47 0 80 30t33 71zM682 1200q59 0 100 -36t41 -102t-51 -113q-51 -48 -113 -48l91 -199h-74l-86 197h-98l-43 -197h-62l109 498h186zM227 953q0 -157 111 -269q110 -112 266 -111q156 -1 268 111t113 269q0 157 -112 268
q-111 111 -269 111t-268 -112q-110 -110 -109 -267zM172 952q0 180 127 308t307 126q180 0 307 -126t127 -307t-128 -308t-308 -127t-306 127t-126 307z" />
    <glyph glyph-name="macron" unicode="&#xaf;" horiz-adv-x="622" 
d="M778 1210h-620l16 76h621z" />
    <glyph glyph-name="macron" unicode="&#x203e;" horiz-adv-x="622" 
d="M778 1210h-620l16 76h621z" />
    <glyph glyph-name="degree" unicode="&#xb0;" horiz-adv-x="575" 
d="M590 1148q0 64 -47 112t-111 49q-64 0 -112 -47t-48 -113t45 -112t111 -46t114 46q48 47 48 111zM668 1149q0 -98 -70 -168t-168 -70t-167 70t-68 168q0 98 68 168q69 69 167 69t168 -70t70 -167z" />
    <glyph glyph-name="plusminus" unicode="&#xb1;" horiz-adv-x="892" 
d="M735 53h-774l16 82h775zM868 655h-344l-84 -385h-90l86 385h-342l19 82h342l82 373h88l-80 -373h342z" />
    <glyph glyph-name="twosuperior" unicode="&#xb2;" 
d="M696 1493q0 61 -42 93t-103 32q-113 0 -193 -98l-49 57q100 117 244 117q96 0 166 -50q69 -50 69 -140t-73 -191q-74 -99 -353 -326q-39 -33 -59 -49h367l-17 -76h-487l16 74q317 264 387 334q127 127 127 223z" />
    <glyph glyph-name="threesuperior" unicode="&#xb3;" 
d="M709 1091q0 -81 -72 -162t-193 -81q-193 0 -258 147l68 47q55 -119 188 -118q82 0 129 60t47 128t-44 101q-44 34 -100 34t-68 -2l18 76q20 -2 93 -2t124 47q51 46 51 114t-43 103t-108 35q-98 0 -189 -94l-45 55q100 115 240 115q104 0 170 -49q65 -49 65 -139t-55 -154
t-145 -76q55 -12 91 -58t36 -127z" />
    <glyph glyph-name="acute" unicode="&#xb4;" horiz-adv-x="356" 
d="M563 1434l-342 -295h-84l303 295h123z" />
    <glyph glyph-name="mu" unicode="&#xb5;" horiz-adv-x="921" 
d="M270 -25q-86 0 -133 31l-84 -383h-102l303 1366h102l-161 -731q-41 -193 127 -192q76 0 158 50t134 122l168 751h105l-219 -989h-105l29 139q-150 -164 -322 -164z" />
    <glyph glyph-name="mu" unicode="&#x3bc;" horiz-adv-x="921" 
d="M270 -25q-86 0 -133 31l-84 -383h-102l303 1366h102l-161 -731q-41 -193 127 -192q76 0 158 50t134 122l168 751h105l-219 -989h-105l29 139q-150 -164 -322 -164z" />
    <glyph glyph-name="paragraph" unicode="&#xb6;" horiz-adv-x="919" 
d="M162 988q0 144 116 260q116 118 281 118h383l-348 -1571h-76l332 1495h-193l-331 -1495h-76l192 867q-116 0 -198 91t-82 235z" />
    <glyph glyph-name="periodcentered" unicode="&#xb7;" horiz-adv-x="446" 
d="M218 414q-38 0 -60 22t-23 60q0 36 28 64q27 28 65 28t61 -24t23 -60t-28 -63t-66 -27z" />
    <glyph glyph-name="periodcentered" unicode="&#x2219;" horiz-adv-x="446" 
d="M218 414q-38 0 -60 22t-23 60q0 36 28 64q27 28 65 28t61 -24t23 -60t-28 -63t-66 -27z" />
    <glyph glyph-name="cedilla" unicode="&#xb8;" horiz-adv-x="364" 
d="M205 -222q1 -64 -57 -114q-58 -51 -160 -51t-170 76l47 59q55 -68 143 -67q57 1 89 31t32 68q0 71 -68 73q-39 0 -67 -35l-49 32l102 173h76l-84 -140q25 23 65 23t71 -32q30 -32 30 -96z" />
    <glyph glyph-name="onesuperior" unicode="&#xb9;" horiz-adv-x="425" 
d="M387 862h-90l152 692l-152 -131l-45 60l235 198h80z" />
    <glyph glyph-name="ordmasculine" unicode="&#xba;" horiz-adv-x="702" 
d="M418 725q102 0 169 116t67 215t-42 147q-41 48 -112 48q-104 1 -169 -113t-65 -216q0 -198 152 -197zM416 651q-113 0 -175 69q-63 69 -63 203t91 269t233 135q113 0 176 -69t63 -203t-92 -269t-233 -135z" />
    <glyph glyph-name="guillemotright" unicode="&#xbb;" horiz-adv-x="716" 
d="M387 860h98l174 -368l-337 -363h-111l344 373zM154 860h98l174 -368l-338 -363h-111l347 373z" />
    <glyph glyph-name="onequarter" unicode="&#xbc;" horiz-adv-x="1318" 
d="M317 547h-90l152 692l-152 -131l-45 59l236 199h80zM1024 295l94 422l-350 -422h256zM1196 219h-98l-49 -219h-88l47 219h-342l16 74l432 526h115l-117 -524h100zM1206 1366l-1016 -1366h-84l1016 1366h84z" />
    <glyph glyph-name="onehalf" unicode="&#xbd;" horiz-adv-x="1390" 
d="M317 547h-90l152 692l-152 -131l-45 59l236 199h80zM1243 631q0 61 -42 93t-103 32q-113 0 -193 -99l-49 58q100 117 244 116q96 0 166 -50t70 -139t-74 -191q-74 -99 -353 -326q-12 -11 -24 -21t-35 -28h367l-17 -76h-487l16 74q317 264 387 334q127 127 127 223z
M1206 1366l-1016 -1366h-84l1016 1366h84z" />
    <glyph glyph-name="threequarters" unicode="&#xbe;" horiz-adv-x="1476" 
d="M639 776q0 -80 -72 -162t-192 -82q-193 0 -258 148l67 47q55 -119 189 -119q82 0 129 60t47 128t-44 102q-45 34 -101 34t-68 -2l18 76q20 -2 93 -2t124 47t51 115t-42 102q-43 35 -109 35q-98 0 -188 -95l-45 56q100 115 239 114q104 0 170 -49t66 -138q1 -89 -55 -154
t-146 -76q55 -12 91 -58t36 -127zM1182 295l94 422l-350 -422h256zM1354 219h-99l-49 -219h-88l47 219h-342l17 74l432 526h114l-116 -524h100zM1364 1366l-1016 -1366h-84l1016 1366h84z" />
    <glyph glyph-name="questiondown" unicode="&#xbf;" horiz-adv-x="671" 
d="M499 1008q39 0 61 -23t22 -59t-28 -65q-28 -27 -66 -27t-60 24t-22 58q0 36 27 64q28 28 66 28zM494 489q0 -77 -45 -143t-111 -113t-132 -92t-110 -109q-45 -64 -45 -144q1 -79 59 -132t158 -53q135 0 246 100l45 -79q-135 -123 -293 -123t-247 77q-89 78 -89 182
t47 182q47 77 115 128t136 97q162 110 161 218q0 58 -29 97l95 47q39 -63 39 -140z" />
    <glyph glyph-name="Agrave" unicode="&#xc0;" horiz-adv-x="1009" 
d="M727 440l-55 793l-408 -793h463zM874 0h-118l-25 338h-516l-172 -338h-129l713 1366h137zM831 1491h-79l-211 295h118z" />
    <glyph glyph-name="Aacute" unicode="&#xc1;" horiz-adv-x="1009" 
d="M727 440l-55 793l-408 -793h463zM874 0h-118l-25 338h-516l-172 -338h-129l713 1366h137zM1040 1786l-342 -295h-84l304 295h122z" />
    <glyph glyph-name="Acircumflex" unicode="&#xc2;" horiz-adv-x="1009" 
d="M727 440l-55 793l-408 -793h463zM874 0h-118l-25 338h-516l-172 -338h-129l713 1366h137zM950 1491h-69l-105 229l-196 -229h-78l233 295h107z" />
    <glyph glyph-name="Atilde" unicode="&#xc3;" horiz-adv-x="1009" 
d="M727 440l-55 793l-408 -793h463zM874 0h-118l-25 338h-516l-172 -338h-129l713 1366h137zM831 1487q-47 0 -73 33q-26 32 -34 72q-19 106 -79 106q-82 0 -125 -199h-69q59 274 208 275q47 0 74 -33t34 -73q19 -107 77 -105q82 0 129 198h69q-59 -274 -211 -274z" />
    <glyph glyph-name="Adieresis" unicode="&#xc4;" horiz-adv-x="1009" 
d="M727 440l-55 793l-408 -793h463zM874 0h-118l-25 338h-516l-172 -338h-129l713 1366h137zM645 1579q1 -31 -25 -55t-57 -25t-49 19t-18 51t24 55t56 25q31 1 50 -19t19 -51zM989 1580q-1 -30 -25 -56t-55 -25q-31 -1 -50 19t-19 51t24 55t56 25q31 1 50 -19t19 -50z" />
    <glyph glyph-name="Aring" unicode="&#xc5;" horiz-adv-x="1009" 
d="M727 440l-55 793l-408 -793h463zM874 0h-118l-25 338h-516l-172 -338h-129l713 1366h137zM737 1481q49 0 88 38t39 88t-28 80q-29 29 -78 29t-88 -39t-39 -88t28 -79q29 -29 78 -29zM928 1612q0 -76 -60 -136t-135 -59q-76 0 -121 46t-45 122q-1 76 59 135q60 60 135 60
t121 -46t46 -122z" />
    <glyph glyph-name="AE" unicode="&#xc6;" horiz-adv-x="1507" 
d="M715 440l174 781l-541 -781h367zM1286 0h-668l74 338h-409l-232 -338h-129l952 1366h713l-20 -102h-555l-113 -512h539l-23 -103h-541l-120 -547h555z" />
    <glyph glyph-name="Ccedilla" unicode="&#xc7;" horiz-adv-x="1071" 
d="M543 -25h-15l-55 -92q25 23 65 23t71 -32q30 -32 30 -96t-57 -114q-57 -51 -159 -51t-171 76l47 59q55 -68 143 -67q57 1 89 31t32 68q0 71 -67 73q-39 0 -68 -35l-49 32l78 134q-158 24 -251 148t-93 302t47 344q102 358 329 524q121 87 259 87t238 -77t147 -212
l-109 -35q-78 219 -289 219q-133 0 -252 -133t-185 -323t-65 -371q0 -181 84 -279t236 -98t293 166l86 -58q-170 -213 -389 -213z" />
    <glyph glyph-name="Egrave" unicode="&#xc8;" horiz-adv-x="927" 
d="M711 0h-668l301 1366h668l-21 -102h-555l-112 -512h538l-22 -103h-541l-121 -547h555zM817 1491h-80l-211 295h119z" />
    <glyph glyph-name="Eacute" unicode="&#xc9;" horiz-adv-x="927" 
d="M711 0h-668l301 1366h668l-21 -102h-555l-112 -512h538l-22 -103h-541l-121 -547h555zM1024 1786l-342 -295h-84l303 295h123z" />
    <glyph glyph-name="Ecircumflex" unicode="&#xca;" horiz-adv-x="927" 
d="M711 0h-668l301 1366h668l-21 -102h-555l-112 -512h538l-22 -103h-541l-121 -547h555zM934 1491h-70l-104 229l-197 -229h-78l234 295h106z" />
    <glyph glyph-name="Edieresis" unicode="&#xcb;" horiz-adv-x="927" 
d="M711 0h-668l301 1366h668l-21 -102h-555l-112 -512h538l-22 -103h-541l-121 -547h555zM627 1579q0 -31 -25 -55q-24 -24 -56 -25t-50 19t-18 51t24 55t56 25t50 -19t19 -51zM971 1580q0 -30 -25 -56q-26 -26 -56 -25q-30 -1 -49 19t-19 51t24 55t56 25t50 -19t19 -50z
" />
    <glyph glyph-name="Igrave" unicode="&#xcc;" horiz-adv-x="421" 
d="M158 0h-115l301 1366h115zM539 1491h-80l-211 295h119z" />
    <glyph glyph-name="Iacute" unicode="&#xcd;" horiz-adv-x="421" 
d="M158 0h-115l301 1366h115zM748 1786l-342 -295h-84l303 295h123z" />
    <glyph glyph-name="Icircumflex" unicode="&#xce;" horiz-adv-x="421" 
d="M158 0h-115l301 1366h115zM657 1491h-69l-105 229l-196 -229h-78l233 295h107z" />
    <glyph glyph-name="Idieresis" unicode="&#xcf;" horiz-adv-x="421" 
d="M158 0h-115l301 1366h115zM354 1579q0 -31 -26 -57t-56 -25q-31 -1 -49 19t-18 51q1 31 25 55t55 25q31 -1 50 -19t19 -49zM698 1579q0 -31 -24 -57t-56 -25q-31 -1 -50 19t-19 51q1 31 25 55t55 25q31 -1 50 -19t19 -49z" />
    <glyph glyph-name="Eth" unicode="&#xd0;" horiz-adv-x="1175" 
d="M442 102q133 0 245 80q194 139 284 451q37 129 37 241q0 180 -88 284t-224 106h-211l-118 -531h276l-22 -98h-275l-119 -533h215zM424 0h-332l139 635h-168l23 98h168l139 633h324q170 0 290 -131q119 -131 119 -353t-102 -446q-55 -121 -133 -216q-78 -96 -200 -158
t-267 -62z" />
    <glyph glyph-name="Ntilde" unicode="&#xd1;" horiz-adv-x="1142" 
d="M879 0h-111l-358 1137l-252 -1137h-115l301 1366h115l358 -1120l248 1120h115zM901 1487q-47 0 -74 33q-27 32 -33 72q-17 106 -79 106q-82 0 -125 -199h-70q59 274 209 275q47 0 74 -33t34 -73q19 -107 76 -105q82 0 129 198h70q-59 -274 -211 -274z" />
    <glyph glyph-name="Ograve" unicode="&#xd2;" horiz-adv-x="1208" 
d="M547 80q139 0 258 131t183 320q65 189 65 371t-88 282q-87 100 -227 100t-259 -132t-182 -322t-63 -370t86 -280q88 -100 227 -100zM543 -25q-195 0 -313 131q-118 132 -118 344t76 422q74 210 224 364q150 153 338 153q188 -1 307 -133t119 -349q0 -149 -46 -311
q-103 -364 -326 -530q-122 -91 -261 -91zM934 1491h-80l-211 295h119z" />
    <glyph glyph-name="Oacute" unicode="&#xd3;" horiz-adv-x="1208" 
d="M547 80q139 0 258 131t183 320q65 189 65 371t-88 282q-87 100 -227 100t-259 -132t-182 -322t-63 -370t86 -280q88 -100 227 -100zM543 -25q-195 0 -313 131q-118 132 -118 344t76 422q74 210 224 364q150 153 338 153q188 -1 307 -133t119 -349q0 -149 -46 -311
q-103 -364 -326 -530q-122 -91 -261 -91zM1141 1786l-342 -295h-84l303 295h123z" />
    <glyph glyph-name="Ocircumflex" unicode="&#xd4;" horiz-adv-x="1208" 
d="M547 80q139 0 258 131t183 320q65 189 65 371t-88 282q-87 100 -227 100t-259 -132t-182 -322t-63 -370t86 -280q88 -100 227 -100zM543 -25q-195 0 -313 131q-118 132 -118 344t76 422q74 210 224 364q150 153 338 153q188 -1 307 -133t119 -349q0 -149 -46 -311
q-103 -364 -326 -530q-122 -91 -261 -91zM1051 1491h-70l-104 229l-197 -229h-78l234 295h106z" />
    <glyph glyph-name="Otilde" unicode="&#xd5;" horiz-adv-x="1208" 
d="M547 80q139 0 258 131t183 320q65 189 65 371t-88 282q-87 100 -227 100t-259 -132t-182 -322t-63 -370t86 -280q88 -100 227 -100zM543 -25q-195 0 -313 131q-118 132 -118 344t76 422q74 210 224 364q150 153 338 153q188 -1 307 -133t119 -349q0 -149 -46 -311
q-103 -364 -326 -530q-122 -91 -261 -91zM940 1487q-47 0 -74 33q-28 32 -34 72q-17 106 -78 106q-82 0 -125 -199h-70q59 274 209 275q47 0 74 -33t34 -73q19 -107 76 -105q82 0 129 198h70q-59 -274 -211 -274z" />
    <glyph glyph-name="Odieresis" unicode="&#xd6;" horiz-adv-x="1208" 
d="M547 80q139 0 258 131t183 320q65 189 65 371t-88 282q-87 100 -227 100t-259 -132t-182 -322t-63 -370t86 -280q88 -100 227 -100zM543 -25q-195 0 -313 131q-118 132 -118 344t76 422q74 210 224 364q150 153 338 153q188 -1 307 -133t119 -349q0 -149 -46 -311
q-103 -364 -326 -530q-122 -91 -261 -91zM743 1579q1 -31 -25 -55t-57 -25t-49 19t-18 51t24 55t56 25q31 1 50 -19t19 -51zM1087 1580q-1 -30 -25 -56t-54 -25q-30 -1 -50 19t-20 51t25 55t55 25t50 -19q19 -20 19 -50z" />
    <glyph glyph-name="multiply" unicode="&#xd7;" horiz-adv-x="892" 
d="M686 360l-207 265l-329 -271l-52 66l332 270l-207 264l66 54l205 -265l329 271l51 -66l-329 -270l207 -264z" />
    <glyph glyph-name="Oslash" unicode="&#xd8;" horiz-adv-x="1208" 
d="M233 486q0 -154 43 -240l687 940q-85 98 -225 98t-259 -132t-183 -322t-63 -344zM547 80q139 0 258 131t183 320q65 189 65 343t-45 244l-686 -940q86 -98 225 -98zM543 -25q-178 0 -291 107l-59 -82h-97l105 143q-88 123 -88 321q1 198 75 408t224 364q150 153 328 153
t292 -109l62 86h96l-107 -145q93 -125 93 -295q1 -332 -170 -631q-80 -139 -202 -229t-261 -91z" />
    <glyph glyph-name="Ugrave" unicode="&#xd9;" horiz-adv-x="1130" 
d="M517 -25q-181 -1 -285 95t-103 260q0 59 10 100l205 936h115l-207 -938q-10 -35 -10 -86q0 -120 74 -192t204 -72q131 0 209 86t117 264l207 938h114l-206 -936q-51 -229 -157 -342t-287 -113zM893 1491h-80l-211 295h119z" />
    <glyph glyph-name="Uacute" unicode="&#xda;" horiz-adv-x="1130" 
d="M517 -25q-181 -1 -285 95t-103 260q0 59 10 100l205 936h115l-207 -938q-10 -35 -10 -86q0 -120 74 -192t204 -72q131 0 209 86t117 264l207 938h114l-206 -936q-51 -229 -157 -342t-287 -113zM1098 1786l-342 -295h-84l303 295h123z" />
    <glyph glyph-name="Ucircumflex" unicode="&#xdb;" horiz-adv-x="1130" 
d="M517 -25q-181 -1 -285 95t-103 260q0 59 10 100l205 936h115l-207 -938q-10 -35 -10 -86q0 -120 74 -192t204 -72q131 0 209 86t117 264l207 938h114l-206 -936q-51 -229 -157 -342t-287 -113zM1012 1491h-70l-104 229l-197 -229h-78l234 295h106z" />
    <glyph glyph-name="Udieresis" unicode="&#xdc;" horiz-adv-x="1130" 
d="M517 -25q-181 -1 -285 95t-103 260q0 59 10 100l205 936h115l-207 -938q-10 -35 -10 -86q0 -120 74 -192t204 -72q131 0 209 86t117 264l207 938h114l-206 -936q-51 -229 -157 -342t-287 -113zM705 1579q0 -31 -25 -55q-24 -24 -56 -25t-50 19t-19 51q0 31 25 55
q24 24 56 25t50 -19t19 -51zM1049 1580q0 -30 -25 -56q-26 -26 -56 -25q-30 -1 -49 19t-19 51t24 55t56 25t50 -19t19 -50z" />
    <glyph glyph-name="Yacute" unicode="&#xdd;" horiz-adv-x="989" 
d="M442 0h-114l129 586l-250 780h123l200 -666l498 666h135l-592 -780zM1038 1786l-342 -295h-84l303 295h123z" />
    <glyph glyph-name="Thorn" unicode="&#xde;" horiz-adv-x="958" 
d="M498 418q154 0 236 110t83 258q0 96 -56 158t-145 64h-237l-129 -590h248zM643 1112q127 0 212 -91t85 -244t-105 -302q-53 -72 -143 -116t-207 -44h-260l-67 -315h-115l301 1366h115l-56 -254h240z" />
    <glyph glyph-name="germandbls" unicode="&#xdf;" horiz-adv-x="1026" 
d="M455 719q0 81 56 145t123 94t123 79q56 48 56 113q0 64 -54 104t-136 40t-148 -59t-90 -170l-235 -1065h-105l236 1065q33 147 126 234t219 87t209 -62t83 -163q0 -131 -127 -208q-53 -33 -105 -61q-126 -69 -127 -162q0 -93 135 -169q56 -31 112 -65q136 -83 136 -210
q0 -126 -88 -218t-236 -93q-209 0 -325 158l72 68q96 -137 251 -138q96 1 158 61t62 150t-135 162q-56 31 -112 64t-95 86t-39 133z" />
    <glyph glyph-name="agrave" unicode="&#xe0;" horiz-adv-x="962" 
d="M696 1139h-80l-210 295h118zM523 922q-93 0 -176 -102t-123 -236q-40 -133 -40 -256t56 -192q56 -68 142 -68q87 0 160 55t117 133l107 481q-22 77 -86 131t-157 54zM522 1014q90 0 160 -47t106 -136l33 158h105l-219 -989h-105l33 141q-113 -166 -275 -166
q-130 1 -208 93t-78 248t51 311t157 271t240 116z" />
    <glyph glyph-name="aacute" unicode="&#xe1;" horiz-adv-x="962" 
d="M905 1434l-342 -295h-84l303 295h123zM523 922q-93 0 -176 -102t-123 -236q-40 -133 -40 -256t56 -192q56 -68 142 -68q87 0 160 55t117 133l107 481q-22 77 -86 131t-157 54zM522 1014q90 0 160 -47t106 -136l33 158h105l-219 -989h-105l33 141q-113 -166 -275 -166
q-130 1 -208 93t-78 248t51 311t157 271t240 116z" />
    <glyph glyph-name="acircumflex" unicode="&#xe2;" horiz-adv-x="962" 
d="M815 1139h-70l-104 229l-197 -229h-77l233 295h107zM523 922q-93 0 -176 -102t-123 -236q-40 -133 -40 -256t56 -192q56 -68 142 -68q87 0 160 55t117 133l107 481q-22 77 -86 131t-157 54zM522 1014q90 0 160 -47t106 -136l33 158h105l-219 -989h-105l33 141
q-113 -166 -275 -166q-130 1 -208 93t-78 248t51 311t157 271t240 116z" />
    <glyph glyph-name="atilde" unicode="&#xe3;" horiz-adv-x="962" 
d="M705 1135q-47 1 -74 33t-34 72q-19 106 -79 106q-82 0 -125 -199h-69q59 274 208 274q47 -1 74 -33t34 -72q19 -106 77 -106q82 0 129 199h69q-58 -274 -210 -274zM523 922q-93 0 -176 -102t-123 -236q-40 -133 -40 -256t56 -192q56 -68 142 -68q87 0 160 55t117 133
l107 481q-22 77 -86 131t-157 54zM522 1014q90 0 160 -47t106 -136l33 158h105l-219 -989h-105l33 141q-113 -166 -275 -166q-130 1 -208 93t-78 248t51 311t157 271t240 116z" />
    <glyph glyph-name="adieresis" unicode="&#xe4;" horiz-adv-x="962" 
d="M514 1235q0 -31 -26 -55t-56 -25t-49 19q-18 20 -18 51q1 31 25 55t55 25t50 -19t19 -51zM858 1236q0 -30 -24 -56t-56 -25q-31 -1 -50 19t-19 51q1 31 25 55t55 25t50 -19t19 -50zM523 922q-93 0 -176 -102t-123 -236q-40 -133 -40 -256t56 -192q56 -68 142 -68
q87 0 160 55t117 133l107 481q-22 77 -86 131t-157 54zM522 1014q90 0 160 -47t106 -136l33 158h105l-219 -989h-105l33 141q-113 -166 -275 -166q-130 1 -208 93t-78 248t51 311t157 271t240 116z" />
    <glyph glyph-name="aring" unicode="&#xe5;" horiz-adv-x="962" 
d="M510 1298q0 -48 28 -78t78 -30q49 0 89 38q39 38 39 88t-29 80t-78 30t-88 -40q-39 -39 -39 -88zM807 1321q1 -75 -59 -135t-136 -60t-120 46t-46 122q0 76 60 136t134 59q75 0 121 -46t46 -122zM523 922q-93 0 -176 -102t-123 -236q-40 -133 -40 -256t56 -192
q56 -68 142 -68q87 0 160 55t117 133l107 481q-22 77 -86 131t-157 54zM522 1014q90 0 160 -47t106 -136l33 158h105l-219 -989h-105l33 141q-113 -166 -275 -166q-130 1 -208 93t-78 248t51 311t157 271t240 116z" />
    <glyph glyph-name="ae" unicode="&#xe6;" horiz-adv-x="1562" 
d="M1158 926q-116 0 -211 -118t-120 -265h549q12 53 13 110q1 121 -57 197t-174 76zM523 922q-93 0 -176 -102t-123 -236q-40 -133 -40 -256t56 -192q56 -68 142 -68q87 0 161 54t119 134l104 481q-22 77 -86 131t-157 54zM1073 -25q-264 0 -313 263l-53 -238h-105l33 141
q-113 -166 -275 -166q-130 1 -208 93t-78 248t51 311t157 271t240 116q90 0 160 -47t106 -136l33 158h105l-43 -190q135 215 309 215q141 0 219 -93t78 -264q0 -98 -27 -196h-649q-10 -57 -10 -109q-1 -127 69 -207q70 -79 197 -79t236 112l47 -72q-125 -131 -279 -131z" />
    <glyph glyph-name="ccedilla" unicode="&#xe7;" horiz-adv-x="819" 
d="M418 -94q40 0 70 -32t30 -96t-58 -114q-58 -51 -158 -51q-102 0 -171 76l47 59q55 -68 144 -67q57 1 89 31q31 30 31 68q-1 71 -67 73q-39 0 -68 -35l-49 32l78 134q-121 24 -191 120q-69 96 -69 251t57 303t172 252t254 104q184 0 270 -142l-71 -65q-62 115 -186 115
t-213 -96t-131 -222q-42 -127 -42 -259t67 -205q67 -72 179 -72t201 98l47 -74q-113 -117 -260 -117h-12l-56 -92q25 23 66 23z" />
    <glyph glyph-name="egrave" unicode="&#xe8;" horiz-adv-x="950" 
d="M733 1139h-80l-211 295h119zM776 653q0 119 -60 196t-178 77t-212 -118t-119 -265h557q12 53 12 110zM439 -25q-169 -1 -266 101t-97 280q0 136 53 284t167 261t260 113t234 -95q87 -95 87 -266q0 -98 -27 -192h-657q-10 -57 -11 -109q0 -127 70 -208t199 -81t239 115
l47 -69q-129 -134 -298 -134z" />
    <glyph glyph-name="eacute" unicode="&#xe9;" horiz-adv-x="950" 
d="M940 1434l-342 -295h-84l303 295h123zM776 653q0 119 -60 196t-178 77t-212 -118t-119 -265h557q12 53 12 110zM439 -25q-169 -1 -266 101t-97 280q0 136 53 284t167 261t260 113t234 -95q87 -95 87 -266q0 -98 -27 -192h-657q-10 -57 -11 -109q0 -127 70 -208t199 -81
t239 115l47 -69q-129 -134 -298 -134z" />
    <glyph glyph-name="ecircumflex" unicode="&#xea;" horiz-adv-x="950" 
d="M850 1139h-70l-104 229l-197 -229h-78l234 295h106zM776 653q0 119 -60 196t-178 77t-212 -118t-119 -265h557q12 53 12 110zM439 -25q-169 -1 -266 101t-97 280q0 136 53 284t167 261t260 113t234 -95q87 -95 87 -266q0 -98 -27 -192h-657q-10 -57 -11 -109
q0 -127 70 -208t199 -81t239 115l47 -69q-129 -134 -298 -134z" />
    <glyph glyph-name="edieresis" unicode="&#xeb;" horiz-adv-x="950" 
d="M545 1235q0 -31 -25 -55q-24 -24 -56 -25t-50 19t-18 51t24 55t56 25t50 -19t19 -51zM889 1236q0 -30 -25 -56q-26 -26 -56 -25q-30 -1 -49 19t-19 51t24 55t56 25t50 -19t19 -50zM776 653q0 119 -60 196t-178 77t-212 -118t-119 -265h557q12 53 12 110zM439 -25
q-169 -1 -266 101t-97 280q0 136 53 284t167 261t260 113t234 -95q87 -95 87 -266q0 -98 -27 -192h-657q-10 -57 -11 -109q0 -127 70 -208t199 -81t239 115l47 -69q-129 -134 -298 -134z" />
    <glyph glyph-name="igrave" unicode="&#xec;" horiz-adv-x="393" 
d="M137 0h-102l219 989h102zM444 1139h-79l-211 295h118z" />
    <glyph glyph-name="iacute" unicode="&#xed;" horiz-adv-x="393" 
d="M137 0h-102l219 989h102zM653 1434l-342 -295h-84l303 295h123z" />
    <glyph glyph-name="icircumflex" unicode="&#xee;" horiz-adv-x="393" 
d="M137 0h-102l219 989h102zM563 1139h-69l-105 229l-196 -229h-78l233 295h107z" />
    <glyph glyph-name="idieresis" unicode="&#xef;" horiz-adv-x="393" 
d="M137 0h-102l219 989h102zM260 1235q0 -31 -26 -55t-56 -25t-49 19q-18 20 -18 51q1 31 25 55t55 25t50 -19t19 -51zM604 1236q0 -30 -24 -56t-56 -25q-31 -1 -50 19t-19 51q1 31 25 55t55 25t50 -19t19 -50z" />
    <glyph glyph-name="eth" unicode="&#xf0;" horiz-adv-x="962" 
d="M186 337q0 -125 62 -197t164 -72q104 0 188 96t127 226t43 242t-58 192q-58 81 -166 81t-190 -94q-84 -94 -127 -221t-43 -253zM891 729q0 -176 -53 -345t-165 -289q-113 -120 -265 -120q-152 -1 -242 99t-90 270q0 240 132 448t320 207q82 0 152 -45t102 -135
q-45 178 -131 336l-280 -84l-17 66l262 77q-41 70 -104 140l92 57q74 -94 119 -164l199 60l14 -66l-178 -53q133 -231 133 -459z" />
    <glyph glyph-name="ntilde" unicode="&#xf1;" horiz-adv-x="921" 
d="M721 1135q-47 1 -74 33t-34 72q-19 106 -78 106q-82 0 -125 -199h-70q59 274 209 274q47 -1 74 -33t33 -72q17 -106 77 -106q82 0 129 199h70q-59 -274 -211 -274zM735 791q0 131 -145 131t-287 -179l-164 -743h-102l219 989h102l-30 -143q141 168 297 168q100 0 159 -50
t60 -143q0 -31 -10 -76l-164 -745h-105l160 727q10 47 10 64z" />
    <glyph glyph-name="ograve" unicode="&#xf2;" horiz-adv-x="962" 
d="M731 1139h-80l-211 295h119zM414 68q150 0 255 191t105 384q0 135 -60 207t-169 72q-150 0 -255 -192t-106 -384q0 -134 60 -206t170 -72zM883 654q-1 -166 -57 -316t-168 -256t-256 -107q-146 -1 -236 97t-90 263t56 315t168 257t258 107t236 -98q89 -98 89 -262z" />
    <glyph glyph-name="oacute" unicode="&#xf3;" horiz-adv-x="962" 
d="M938 1434l-342 -295h-84l303 295h123zM414 68q150 0 255 191t105 384q0 135 -60 207t-169 72q-150 0 -255 -192t-106 -384q0 -134 60 -206t170 -72zM883 654q-1 -166 -57 -316t-168 -256t-256 -107q-146 -1 -236 97t-90 263t56 315t168 257t258 107t236 -98
q89 -98 89 -262z" />
    <glyph glyph-name="ocircumflex" unicode="&#xf4;" horiz-adv-x="962" 
d="M848 1139h-70l-104 229l-197 -229h-78l234 295h106zM414 68q150 0 255 191t105 384q0 135 -60 207t-169 72q-150 0 -255 -192t-106 -384q0 -134 60 -206t170 -72zM883 654q-1 -166 -57 -316t-168 -256t-256 -107q-146 -1 -236 97t-90 263t56 315t168 257t258 107t236 -98
q89 -98 89 -262z" />
    <glyph glyph-name="otilde" unicode="&#xf5;" horiz-adv-x="962" 
d="M739 1135q-47 1 -73 33t-34 72q-19 106 -79 106q-82 0 -125 -199h-70q59 274 209 274q47 -1 74 -33t34 -72q19 -106 77 -106q82 0 129 199h69q-59 -274 -211 -274zM414 68q150 0 255 191t105 384q0 135 -60 207t-169 72q-150 0 -255 -192t-106 -384q0 -134 60 -206
t170 -72zM883 654q-1 -166 -57 -316t-168 -256t-256 -107q-146 -1 -236 97t-90 263t56 315t168 257t258 107t236 -98q89 -98 89 -262z" />
    <glyph glyph-name="odieresis" unicode="&#xf6;" horiz-adv-x="962" 
d="M545 1235q0 -31 -25 -55q-24 -24 -56 -25t-50 19t-18 51t24 55t56 25t50 -19t19 -51zM889 1236q0 -30 -25 -56q-26 -26 -56 -25q-30 -1 -49 19t-19 51t24 55t56 25t50 -19t19 -50zM414 68q150 0 255 191t105 384q0 135 -60 207t-169 72q-150 0 -255 -192t-106 -384
q0 -134 60 -206t170 -72zM883 654q-1 -166 -57 -316t-168 -256t-256 -107q-146 -1 -236 97t-90 263t56 315t168 257t258 107t236 -98q89 -98 89 -262z" />
    <glyph glyph-name="divide" unicode="&#xf7;" horiz-adv-x="907" 
d="M567 952q-33 0 -55 22t-20 54q0 32 26 58t60 26q33 0 53 -22t20 -54q1 -32 -25 -58t-59 -26zM424 418q34 0 53 -20q21 -20 21 -55t-26 -59t-58 -24q-33 0 -55 22q-21 22 -21 54t26 58q26 24 60 24zM879 649h-787l19 82h788z" />
    <glyph glyph-name="oslash" unicode="&#xf8;" horiz-adv-x="962" 
d="M184 346q0 -70 17 -125l520 619q-59 82 -176 82q-149 0 -255 -192t-106 -384zM414 68q150 0 255 191t105 384q0 78 -20 131l-521 -620q58 -86 181 -86zM76 358q0 142 56 292t168 257t258 107t233 -94l57 69h86l-105 -125q53 -88 53 -232t-56 -294t-168 -256t-258 -106
t-236 96l-60 -72h-88l109 129q-49 87 -49 229z" />
    <glyph glyph-name="ugrave" unicode="&#xf9;" horiz-adv-x="921" 
d="M713 1139h-80l-211 295h119zM334 68q148 0 282 174l166 747h105l-219 -989h-105l31 143q-141 -168 -295 -168q-101 -1 -161 49t-60 144q0 29 10 76l164 745h104l-159 -727q-10 -45 -11 -63q0 -131 148 -131z" />
    <glyph glyph-name="uacute" unicode="&#xfa;" horiz-adv-x="921" 
d="M920 1434l-342 -295h-84l303 295h123zM334 68q148 0 282 174l166 747h105l-219 -989h-105l31 143q-141 -168 -295 -168q-101 -1 -161 49t-60 144q0 29 10 76l164 745h104l-159 -727q-10 -45 -11 -63q0 -131 148 -131z" />
    <glyph glyph-name="ucircumflex" unicode="&#xfb;" horiz-adv-x="921" 
d="M827 1139h-69l-105 229l-196 -229h-78l233 295h107zM334 68q148 0 282 174l166 747h105l-219 -989h-105l31 143q-141 -168 -295 -168q-101 -1 -161 49t-60 144q0 29 10 76l164 745h104l-159 -727q-10 -45 -11 -63q0 -131 148 -131z" />
    <glyph glyph-name="udieresis" unicode="&#xfc;" horiz-adv-x="921" 
d="M530 1235q0 -31 -26 -55t-56 -25q-31 -1 -49 19t-18 51t25 55q26 24 56 25t49 -19t19 -51zM874 1236q0 -30 -24 -56t-56 -25q-30 -1 -50 19t-19 51q0 31 25 55q26 24 56 25t49 -19t19 -50zM334 68q148 0 282 174l166 747h105l-219 -989h-105l31 143q-141 -168 -295 -168
q-101 -1 -161 49t-60 144q0 29 10 76l164 745h104l-159 -727q-10 -45 -11 -63q0 -131 148 -131z" />
    <glyph glyph-name="yacute" unicode="&#xfd;" horiz-adv-x="802" 
d="M858 1434l-342 -295h-84l303 295h123zM-10 -303q44 1 74 23q28 22 63 83l102 179l-100 1007h111l73 -862l461 862h117l-670 -1214q-98 -176 -233 -176q-60 0 -101 20l39 92q20 -14 64 -14z" />
    <glyph glyph-name="thorn" unicode="&#xfe;" horiz-adv-x="958" 
d="M437 68q93 0 176 102t123 236t40 256t-56 191t-144 69t-158 -54q-72 -54 -119 -135l-106 -481q23 -78 87 -131t157 -53zM438 -25q-90 -1 -160 47t-106 136l-119 -535h-102l385 1743h102l-112 -518q109 166 272 166q131 0 210 -91t79 -247t-51 -312t-158 -273
q-107 -116 -240 -116z" />
    <glyph glyph-name="ydieresis" unicode="&#xff;" horiz-adv-x="802" 
d="M465 1235q0 -31 -26 -55q-27 -24 -57 -25t-48 19t-18 51t24 55q26 24 56 25t50 -19t19 -51zM809 1236q0 -30 -25 -56q-26 -26 -56 -25q-30 -1 -49 19t-19 51t24 55q26 24 56 25t50 -19t19 -50zM-10 -303q44 1 74 23q28 22 63 83l102 179l-100 1007h111l73 -862l461 862
h117l-670 -1214q-98 -176 -233 -176q-60 0 -101 20l39 92q20 -14 64 -14z" />
    <glyph glyph-name="Amacron" unicode="&#x100;" horiz-adv-x="1009" 
d="M1042 1534h-620l16 76h621zM727 440l-55 793l-408 -793h463zM874 0h-118l-25 338h-516l-172 -338h-129l713 1366h137z" />
    <glyph glyph-name="amacron" unicode="&#x101;" horiz-adv-x="962" 
d="M909 1188h-620l16 76h621zM523 922q-93 0 -176 -102t-123 -236q-40 -133 -40 -256t56 -192q56 -68 142 -68q87 0 160 55t117 133l107 481q-22 77 -86 131t-157 54zM522 1014q90 0 160 -47t106 -136l33 158h105l-219 -989h-105l33 141q-113 -166 -275 -166q-130 1 -208 93
t-78 248t51 311t157 271t240 116z" />
    <glyph glyph-name="Abreve" unicode="&#x102;" horiz-adv-x="1009" 
d="M737 1561q156 0 264 125l54 -50q-141 -152 -332 -151q-90 0 -161 40t-105 111l63 50q61 -125 217 -125zM727 440l-55 793l-408 -793h463zM874 0h-118l-25 338h-516l-172 -338h-129l713 1366h137z" />
    <glyph glyph-name="abreve" unicode="&#x103;" horiz-adv-x="962" 
d="M594 1159q-90 0 -161 40t-105 112l63 49q61 -125 217 -125t264 125l54 -49q-141 -152 -332 -152zM523 922q-93 0 -176 -102t-123 -236q-40 -133 -40 -256t56 -192q56 -68 142 -68q87 0 160 55t117 133l107 481q-22 77 -86 131t-157 54zM522 1014q90 0 160 -47t106 -136
l33 158h105l-219 -989h-105l33 141q-113 -166 -275 -166q-130 1 -208 93t-78 248t51 311t157 271t240 116z" />
    <glyph glyph-name="Aogonek" unicode="&#x104;" horiz-adv-x="1009" 
d="M727 440l-55 793l-408 -793h463zM735 -381q-63 0 -100 34t-37 95q0 139 158 252l-25 338h-516l-172 -338h-129l713 1366h137l110 -1366q-205 -104 -204 -242q0 -72 75 -71q64 0 101 80l53 -39q-59 -109 -164 -109z" />
    <glyph glyph-name="aogonek" unicode="&#x105;" horiz-adv-x="962" 
d="M523 922q-93 0 -176 -102t-123 -236q-40 -133 -40 -256t56 -192q56 -68 142 -68q87 0 160 55t117 133l107 481q-22 77 -86 131t-157 54zM567 -381q-63 0 -100 34t-37 95q0 152 174 262l31 131q-113 -166 -275 -166q-130 1 -208 93t-78 248t51 311t157 271t240 116
q90 0 160 -47t106 -136l33 158h105l-219 -989q-205 -104 -205 -242q0 -72 76 -71q63 0 100 80l53 -39q-59 -109 -164 -109z" />
    <glyph glyph-name="Cacute" unicode="&#x106;" horiz-adv-x="1071" 
d="M1153 1786l-342 -295h-84l303 295h123zM555 -25q-207 0 -325 127t-117 355q0 157 47 321q102 358 329 524q121 87 259 87t238 -77t147 -212l-109 -35q-78 219 -289 219q-133 0 -252 -133t-185 -323t-65 -371q0 -181 84 -279t236 -98t293 166l86 -58q-170 -213 -377 -213z
" />
    <glyph glyph-name="cacute" unicode="&#x107;" horiz-adv-x="819" 
d="M950 1434l-342 -295h-84l303 295h123zM416 -25q-152 -1 -246 99t-94 268t57 316t172 252t254 104q184 0 270 -142l-71 -65q-62 115 -186 115t-213 -96t-131 -222q-42 -127 -42 -259t67 -205q67 -72 179 -72t201 98l47 -74q-112 -117 -264 -117z" />
    <glyph glyph-name="Ccircumflex" unicode="&#x108;" horiz-adv-x="1071" 
d="M1065 1491h-70l-104 229l-197 -229h-78l234 295h106zM555 -25q-207 0 -325 127t-117 355q0 157 47 321q102 358 329 524q121 87 259 87t238 -77t147 -212l-109 -35q-78 219 -289 219q-133 0 -252 -133t-185 -323t-65 -371q0 -181 84 -279t236 -98t293 166l86 -58
q-170 -213 -377 -213z" />
    <glyph glyph-name="ccircumflex" unicode="&#x109;" horiz-adv-x="819" 
d="M858 1139h-70l-104 229l-197 -229h-77l233 295h107zM416 -25q-152 -1 -246 99t-94 268t57 316t172 252t254 104q184 0 270 -142l-71 -65q-62 115 -186 115t-213 -96t-131 -222q-42 -127 -42 -259t67 -205q67 -72 179 -72t201 98l47 -74q-112 -117 -264 -117z" />
    <glyph glyph-name="Cdotaccent" unicode="&#x10a;" horiz-adv-x="1071" 
d="M936 1580q0 -32 -26 -58t-58 -25t-50 21q-20 20 -20 52t26 56t58 25t50 -19q20 -20 20 -52zM555 -25q-207 0 -325 127t-117 355q0 157 47 321q102 358 329 524q121 87 259 87t238 -77t147 -212l-109 -35q-78 219 -289 219q-133 0 -252 -133t-185 -323t-65 -371
q0 -181 84 -279t236 -98t293 166l86 -58q-170 -213 -377 -213z" />
    <glyph glyph-name="cdotaccent" unicode="&#x10b;" horiz-adv-x="819" 
d="M588 1264q0 32 26 58q26 24 57 24q32 0 51 -20t19 -51q1 -31 -25 -57t-58 -26t-51 20t-19 52zM416 -25q-152 -1 -246 99t-94 268t57 316t172 252t254 104q184 0 270 -142l-71 -65q-62 115 -186 115t-213 -96t-131 -222q-42 -127 -42 -259t67 -205q67 -72 179 -72t201 98
l47 -74q-112 -117 -264 -117z" />
    <glyph glyph-name="Ccaron" unicode="&#x10c;" horiz-adv-x="1071" 
d="M897 1491h-106l-109 295h70l102 -230l199 230h77zM555 -25q-207 0 -325 127t-117 355q0 157 47 321q102 358 329 524q121 87 259 87t238 -77t147 -212l-109 -35q-78 219 -289 219q-133 0 -252 -133t-185 -323t-65 -371q0 -181 84 -279t236 -98t293 166l86 -58
q-170 -213 -377 -213z" />
    <glyph glyph-name="ccaron" unicode="&#x10d;" horiz-adv-x="819" 
d="M690 1139h-106l-109 295h70l102 -230l199 230h78zM416 -25q-152 -1 -246 99t-94 268t57 316t172 252t254 104q184 0 270 -142l-71 -65q-62 115 -186 115t-213 -96t-131 -222q-42 -127 -42 -259t67 -205q67 -72 179 -72t201 98l47 -74q-112 -117 -264 -117z" />
    <glyph glyph-name="Dcaron" unicode="&#x10e;" horiz-adv-x="1126" 
d="M834 1491h-107l-109 295h70l103 -230l198 230h78zM393 102q133 0 245 80q194 139 284 451q37 129 36 241q0 180 -88 284t-223 106h-211l-258 -1162h215zM375 0h-332l301 1366h324q170 0 290 -131t119 -353q0 -222 -102 -446q-55 -121 -133 -216q-78 -96 -200 -158
t-267 -62z" />
    <glyph glyph-name="dcaron" unicode="&#x10f;" horiz-adv-x="1087" 
d="M1264 1303q0 -78 -60 -158t-137 -121l-43 47q53 29 95 75t55 91h-13q-27 0 -45 19q-18 18 -18 52t26 60t60 25q36 1 58 -23t22 -67zM523 922q-93 0 -176 -102t-123 -236q-40 -133 -40 -256t56 -192q56 -68 142 -68q87 0 160 55t117 133l107 481q-22 77 -86 131t-157 54z
M522 1014q90 0 160 -47t106 -136l117 535h105l-303 -1366h-105l33 141q-113 -166 -275 -166q-130 1 -208 93t-78 248t51 311t157 271t240 116z" />
    <glyph glyph-name="Dcroat" unicode="&#x110;" horiz-adv-x="1175" 
d="M442 102q133 0 245 80q194 139 284 451q37 129 37 241q0 180 -88 284t-224 106h-211l-118 -531h276l-22 -98h-275l-119 -533h215zM424 0h-332l139 635h-168l23 98h168l139 633h324q170 0 290 -131q119 -131 119 -353t-102 -446q-55 -121 -133 -216q-78 -96 -200 -158
t-267 -62z" />
    <glyph glyph-name="dcroat" unicode="&#x111;" horiz-adv-x="978" 
d="M523 922q-93 0 -176 -102t-123 -236q-40 -133 -40 -256t56 -192q56 -68 142 -68q87 0 160 55t117 133l107 481q-22 77 -86 131t-157 54zM522 1014q90 0 160 -47t106 -136l60 271h-313l14 76h315l41 188h105l-43 -188h104l-14 -76h-107l-243 -1102h-105l33 141
q-113 -166 -275 -166q-130 1 -208 93t-78 248t51 311t157 271t240 116z" />
    <glyph glyph-name="Emacron" unicode="&#x112;" horiz-adv-x="927" 
d="M1026 1534h-620l16 76h620zM711 0h-668l301 1366h668l-21 -102h-555l-112 -512h538l-22 -103h-541l-121 -547h555z" />
    <glyph glyph-name="emacron" unicode="&#x113;" horiz-adv-x="950" 
d="M938 1188h-621l17 76h620zM776 653q0 119 -60 196t-178 77t-212 -118t-119 -265h557q12 53 12 110zM439 -25q-169 -1 -266 101t-97 280q0 136 53 284t167 261t260 113t234 -95q87 -95 87 -266q0 -98 -27 -192h-657q-10 -57 -11 -109q0 -127 70 -208t199 -81t239 115
l47 -69q-129 -134 -298 -134z" />
    <glyph glyph-name="Ebreve" unicode="&#x114;" horiz-adv-x="927" 
d="M721 1561q156 0 264 125l53 -50q-141 -152 -331 -151q-90 0 -161 40t-106 111l64 50q61 -125 217 -125zM711 0h-668l301 1366h668l-21 -102h-555l-112 -512h538l-22 -103h-541l-121 -547h555z" />
    <glyph glyph-name="ebreve" unicode="&#x115;" horiz-adv-x="950" 
d="M631 1159q-90 0 -161 40t-105 112l63 49q61 -125 217 -125t264 125l54 -49q-141 -152 -332 -152zM776 653q0 119 -60 196t-178 77t-212 -118t-119 -265h557q12 53 12 110zM439 -25q-169 -1 -266 101t-97 280q0 136 53 284t167 261t260 113t234 -95q87 -95 87 -266
q0 -98 -27 -192h-657q-10 -57 -11 -109q0 -127 70 -208t199 -81t239 115l47 -69q-129 -134 -298 -134z" />
    <glyph glyph-name="Edotaccent" unicode="&#x116;" horiz-adv-x="927" 
d="M817 1580q1 -32 -25 -58t-58 -25t-51 21t-19 52t26 56t57 25q32 1 51 -19t19 -52zM711 0h-668l301 1366h668l-21 -102h-555l-112 -512h538l-22 -103h-541l-121 -547h555z" />
    <glyph glyph-name="edotaccent" unicode="&#x117;" horiz-adv-x="950" 
d="M659 1346q32 0 51 -20t19 -51t-26 -57q-25 -26 -57 -26t-51 20t-19 52t25 58q26 24 58 24zM776 653q0 119 -60 196t-178 77t-212 -118t-119 -265h557q12 53 12 110zM439 -25q-169 -1 -266 101t-97 280q0 136 53 284t167 261t260 113t234 -95q87 -95 87 -266
q0 -98 -27 -192h-657q-10 -57 -11 -109q0 -127 70 -208t199 -81t239 115l47 -69q-129 -134 -298 -134z" />
    <glyph glyph-name="Eogonek" unicode="&#x118;" horiz-adv-x="927" 
d="M571 -381q-63 0 -100 34t-37 95q0 139 158 252h-549l301 1366h668l-21 -102h-555l-112 -512h538l-22 -103h-541l-121 -547h555l-22 -102q-205 -104 -205 -242q0 -72 76 -71q63 0 100 80l53 -39q-59 -109 -164 -109z" />
    <glyph glyph-name="eogonek" unicode="&#x119;" horiz-adv-x="950" 
d="M776 653q0 119 -60 196t-178 77t-212 -118t-119 -265h557q12 53 12 110zM434 -381q-63 0 -100 34t-37 95q0 127 125 227q-164 7 -255 107t-91 254t53 304q53 148 167 261t260 113t234 -95q87 -95 87 -266q0 -98 -27 -192h-657q-10 -57 -11 -109q0 -127 70 -208t199 -81
t239 115l47 -69q-70 -74 -164 -109q-205 -104 -204 -242q0 -72 75 -71q64 0 101 80l53 -39q-59 -109 -164 -109z" />
    <glyph glyph-name="Ecaron" unicode="&#x11a;" horiz-adv-x="927" 
d="M764 1491h-107l-108 295h69l103 -230l199 230h77zM711 0h-668l301 1366h668l-21 -102h-555l-112 -512h538l-22 -103h-541l-121 -547h555z" />
    <glyph glyph-name="ecaron" unicode="&#x11b;" horiz-adv-x="950" 
d="M680 1139h-107l-108 295h70l102 -230l199 230h77zM776 653q0 119 -60 196t-178 77t-212 -118t-119 -265h557q12 53 12 110zM439 -25q-169 -1 -266 101t-97 280q0 136 53 284t167 261t260 113t234 -95q87 -95 87 -266q0 -98 -27 -192h-657q-10 -57 -11 -109
q0 -127 70 -208t199 -81t239 115l47 -69q-129 -134 -298 -134z" />
    <glyph glyph-name="Gcircumflex" unicode="&#x11c;" horiz-adv-x="1132" 
d="M1030 1491h-69l-105 229l-197 -229h-77l233 295h107zM554 -25q-208 0 -325 128q-117 127 -117 347t77 432t228 359t331 148q145 0 240 -77t140 -202l-102 -39q-76 213 -291 213q-135 0 -254 -132t-183 -322t-65 -374q0 -184 84 -280t237 -96t284 143l77 352h-358l23 103
h467l-111 -502q-174 -201 -382 -201z" />
    <glyph glyph-name="gcircumflex" unicode="&#x11d;" horiz-adv-x="962" 
d="M848 1126h-70l-104 230l-197 -230h-78l234 295h106zM184 334q0 -126 56 -192t140 -66q85 0 158 52t121 130l107 477q-25 78 -92 132q-68 55 -158 55t-172 -100t-121 -232q-39 -131 -39 -256zM309 -401q-229 0 -336 139l70 80q84 -127 268 -127q219 0 285 282l41 177
q-111 -166 -281 -166q-126 0 -204 88t-78 246t49 312q49 152 155 268t242 116q80 0 156 -51t112 -132l35 158h103l-228 -1016q-84 -374 -389 -374z" />
    <glyph glyph-name="Gbreve" unicode="&#x11e;" horiz-adv-x="1132" 
d="M856 1561q156 0 264 125l54 -50q-141 -152 -332 -151q-90 0 -161 40t-106 111l64 50q61 -125 217 -125zM554 -25q-208 0 -325 128q-117 127 -117 347t77 432t228 359t331 148q145 0 240 -77t140 -202l-102 -39q-76 213 -291 213q-135 0 -254 -132t-183 -322t-65 -374
q0 -184 84 -280t237 -96t284 143l77 352h-358l23 103h467l-111 -502q-174 -201 -382 -201z" />
    <glyph glyph-name="gbreve" unicode="&#x11f;" horiz-adv-x="962" 
d="M625 1159q-90 0 -161 40t-106 112l64 49q61 -125 217 -125t264 125l53 -49q-141 -152 -331 -152zM184 334q0 -126 56 -192t140 -66q85 0 158 52t121 130l107 477q-25 78 -92 132q-68 55 -158 55t-172 -100t-121 -232q-39 -131 -39 -256zM309 -401q-229 0 -336 139l70 80
q84 -127 268 -127q219 0 285 282l41 177q-111 -166 -281 -166q-126 0 -204 88t-78 246t49 312q49 152 155 268t242 116q80 0 156 -51t112 -132l35 158h103l-228 -1016q-84 -374 -389 -374z" />
    <glyph glyph-name="Gdotaccent" unicode="&#x120;" horiz-adv-x="1132" 
d="M938 1580q0 -32 -26 -58t-58 -25t-50 21q-20 20 -20 52t26 56t58 25t50 -19q20 -20 20 -52zM554 -25q-208 0 -325 128q-117 127 -117 347t77 432t228 359t331 148q145 0 240 -77t140 -202l-102 -39q-76 213 -291 213q-135 0 -254 -132t-183 -322t-65 -374q0 -184 84 -280
t237 -96t284 143l77 352h-358l23 103h467l-111 -502q-174 -201 -382 -201z" />
    <glyph glyph-name="gdotaccent" unicode="&#x121;" horiz-adv-x="962" 
d="M654 1346q32 0 52 -20t19 -51q0 -31 -26 -57q-25 -26 -57 -26t-51 20t-19 52t25 58q25 24 57 24zM184 334q0 -126 56 -192t140 -66q85 0 158 52t121 130l107 477q-25 78 -92 132q-68 55 -158 55t-172 -100t-121 -232q-39 -131 -39 -256zM309 -401q-229 0 -336 139l70 80
q84 -127 268 -127q219 0 285 282l41 177q-111 -166 -281 -166q-126 0 -204 88t-78 246t49 312q49 152 155 268t242 116q80 0 156 -51t112 -132l35 158h103l-228 -1016q-84 -374 -389 -374z" />
    <glyph glyph-name="Gcommaaccent" unicode="&#x122;" horiz-adv-x="1132" 
d="M539 -250q1 -78 -59 -158t-138 -120l-43 47q53 29 95 75t55 91h-13q-27 0 -45 19t-18 52t25 59q26 25 61 25t57 -24t23 -66zM554 -25q-208 0 -325 128q-117 127 -117 347t77 432t228 359t331 148q145 0 240 -77t140 -202l-102 -39q-76 213 -291 213q-135 0 -254 -132
t-183 -322t-65 -374q0 -184 84 -280t237 -96t284 143l77 352h-358l23 103h467l-111 -502q-174 -201 -382 -201z" />
    <glyph glyph-name="gcommaaccent" unicode="&#x123;" horiz-adv-x="962" 
d="M184 334q0 -126 56 -192t140 -66q85 0 158 52t121 130l107 477q-25 78 -92 132q-68 55 -158 55t-172 -100t-121 -232q-39 -131 -39 -256zM309 -401q-229 0 -336 139l70 80q84 -127 268 -127q219 0 285 282l41 177q-111 -166 -281 -166q-126 0 -204 88t-78 246t49 312
q49 152 155 268t242 116q80 0 156 -51t112 -132l35 158h103l-228 -1016q-84 -374 -389 -374zM547 1241q0 78 58 159t136 122l45 -49q-53 -27 -95 -73t-56 -93h14q25 -1 44 -21t19 -52t-26 -58q-28 -26 -62 -25q-34 -1 -56 23t-21 67z" />
    <glyph glyph-name="Hcircumflex" unicode="&#x124;" horiz-adv-x="1146" 
d="M1014 1491h-70l-104 229l-197 -229h-78l234 295h106zM883 0h-115l143 651h-610l-143 -651h-115l301 1366h115l-135 -612h612l133 612h115z" />
    <glyph glyph-name="hcircumflex" unicode="&#x125;" horiz-adv-x="921" 
d="M643 1491h-70l-104 229l-197 -229h-77l233 295h107zM733 791q0 131 -146 131t-286 -181l-164 -741h-102l301 1366h102l-112 -520q141 168 297 168q100 0 159 -51t60 -142q0 -25 -11 -76l-163 -745h-105l160 727q10 41 10 64z" />
    <glyph glyph-name="Hbar" unicode="&#x126;" horiz-adv-x="1214" 
d="M358 754h613l59 272h-612zM918 0h-115l143 651h-610l-143 -651h-115l225 1026h-151l16 76h151l60 264h115l-60 -264h613l57 264h115l-60 -264h150l-17 -76h-149z" />
    <glyph glyph-name="hbar" unicode="&#x127;" horiz-adv-x="940" 
d="M606 922q-146 0 -287 -181l-163 -741h-103l242 1102h-127l16 76h127l43 188h103l-41 -188h284l-16 -76h-285l-55 -256q141 168 297 168q99 0 159 -51t60 -142q0 -25 -10 -76l-164 -745h-104l159 727q10 41 11 64q0 131 -146 131z" />
    <glyph glyph-name="Itilde" unicode="&#x128;" horiz-adv-x="421" 
d="M547 1487q-47 0 -74 33q-27 32 -34 72q-19 106 -79 106q-82 0 -124 -199h-70q59 274 209 275q47 0 74 -33t33 -73q17 -107 77 -105q82 0 129 198h70q-59 -274 -211 -274zM158 0h-115l301 1366h115z" />
    <glyph glyph-name="itilde" unicode="&#x129;" horiz-adv-x="393" 
d="M455 1112q-47 0 -74 33t-34 73q-18 105 -79 105q-82 0 -125 -199h-69q59 274 209 275q47 0 73 -33t34 -73q18 -105 77 -105q82 0 129 198h70q-59 -274 -211 -274zM137 0h-102l219 989h102z" />
    <glyph glyph-name="Imacron" unicode="&#x12a;" horiz-adv-x="421" 
d="M750 1534h-621l16 76h621zM158 0h-115l301 1366h115z" />
    <glyph glyph-name="imacron" unicode="&#x12b;" horiz-adv-x="393" 
d="M659 1188h-620l16 76h621zM137 0h-102l219 989h102z" />
    <glyph glyph-name="Ibreve" unicode="&#x12c;" horiz-adv-x="421" 
d="M444 1561q156 0 265 125l53 -50q-141 -152 -332 -151q-90 0 -161 40t-105 111l63 50q61 -125 217 -125zM158 0h-115l301 1366h115z" />
    <glyph glyph-name="ibreve" unicode="&#x12d;" horiz-adv-x="393" 
d="M348 1159q-90 0 -161 40t-105 112l63 49q61 -125 217 -125t265 125l53 -49q-141 -152 -332 -152zM137 0h-102l219 989h102z" />
    <glyph glyph-name="Iogonek" unicode="&#x12e;" horiz-adv-x="421" 
d="M18 -381q-63 0 -100 34t-37 95q0 141 162 254l301 1364h115l-301 -1366q-205 -104 -205 -242q0 -72 76 -71q63 0 100 80l53 -39q-59 -109 -164 -109z" />
    <glyph glyph-name="iogonek" unicode="&#x12f;" horiz-adv-x="393" 
d="M348 1145q-33 -1 -53 21q-21 22 -21 55t29 59t61 25t54 -21t20 -54q0 -34 -28 -60q-29 -25 -62 -25zM-2 -381q-63 0 -100 34t-37 95q0 150 176 264l217 977h102l-219 -989q-205 -104 -205 -242q0 -72 76 -71q64 0 101 80l53 -39q-59 -109 -164 -109z" />
    <glyph glyph-name="Idotaccent" unicode="&#x130;" horiz-adv-x="421" 
d="M526 1580q0 -32 -26 -58t-57 -25q-32 1 -51 21t-19 52q-1 32 25 56t58 25t51 -19t19 -52zM158 0h-115l301 1366h115z" />
    <glyph glyph-name="dotlessi" unicode="&#x131;" horiz-adv-x="393" 
d="M137 0h-102l219 989h102z" />
    <glyph glyph-name="IJ" unicode="&#x132;" horiz-adv-x="1220" 
d="M655 -25q-203 0 -288 146l69 80q68 -121 213 -121q211 0 266 254l228 1032h114l-227 -1034q-80 -357 -375 -357zM158 0h-115l301 1366h115z" />
    <glyph glyph-name="ij" unicode="&#x133;" horiz-adv-x="786" 
d="M741 1145q-33 -1 -53 21t-20 55t28 59t61 25q31 -1 53 -21t22 -54t-29 -60q-29 -25 -62 -25zM246 -401q-108 0 -160 79l66 72q31 -59 100 -59q104 0 141 162l254 1136h103l-252 -1136q-31 -135 -87 -195q-57 -59 -165 -59zM137 0h-102l219 989h102zM348 1145
q-33 -1 -53 21q-21 22 -21 55t29 59t61 25t54 -21t20 -54q0 -34 -28 -60q-29 -25 -62 -25z" />
    <glyph glyph-name="Jcircumflex" unicode="&#x134;" horiz-adv-x="798" 
d="M1032 1491h-69l-105 229l-196 -229h-78l233 295h107zM233 -25q-203 0 -288 146l69 80q68 -121 213 -121q211 0 267 254l227 1032h115l-228 -1034q-80 -357 -375 -357z" />
    <glyph glyph-name="jcircumflex" unicode="&#x135;" horiz-adv-x="393" 
d="M565 1139h-69l-105 229l-196 -229h-78l233 295h107zM-148 -401q-108 0 -159 79l65 72q31 -59 101 -59q104 0 141 162l254 1136h102l-252 -1136q-31 -135 -87 -195q-57 -60 -165 -59z" />
    <glyph glyph-name="Kcommaaccent" unicode="&#x136;" horiz-adv-x="1007" 
d="M434 -250q0 -78 -59 -158t-137 -120l-43 47q53 29 95 75t54 91h-12q-27 0 -45 19q-19 19 -19 52t26 59q26 25 60 25t58 -23q22 -24 22 -67zM856 0h-131l-301 639l-166 -180l-100 -459h-115l301 1366h115l-162 -729l672 729h147l-610 -651z" />
    <glyph glyph-name="kcommaaccent" unicode="&#x137;" horiz-adv-x="870" 
d="M365 -250q1 -78 -59 -158t-138 -120l-43 47q53 29 95 75t54 91h-12q-27 0 -45 19t-18 52t25 59q26 25 61 25t57 -24t23 -66zM719 0h-117l-201 477l-202 -198l-62 -279h-102l301 1366h102l-207 -942l580 565h129l-457 -446z" />
    <glyph glyph-name="kgreenlandic" unicode="&#x138;" horiz-adv-x="870" 
d="M719 0h-117l-201 477l-202 -198l-62 -279h-102l219 989h102l-125 -565l580 565h129l-457 -446z" />
    <glyph glyph-name="Lacute" unicode="&#x139;" horiz-adv-x="823" 
d="M926 1786l-342 -295h-84l303 295h123zM653 0h-624l301 1366h114l-280 -1264h512z" />
    <glyph glyph-name="lacute" unicode="&#x13a;" horiz-adv-x="393" 
d="M731 1786l-342 -295h-84l303 295h123zM137 0h-102l301 1366h102z" />
    <glyph glyph-name="Lcommaaccent" unicode="&#x13b;" horiz-adv-x="823" 
d="M340 -250q0 -78 -59 -158t-138 -120l-43 47q53 29 96 74q42 46 54 92h-12q-27 0 -45 19q-19 19 -19 52t26 59q26 25 60 25t58 -24q22 -24 22 -66zM653 0h-624l301 1366h114l-280 -1264h512z" />
    <glyph glyph-name="lcommaaccent" unicode="&#x13c;" horiz-adv-x="393" 
d="M127 -250q0 -78 -59 -158t-138 -120l-43 47q53 29 96 74q42 46 54 92h-12q-27 0 -45 19t-18 52t25 59q27 25 61 25t56 -24t23 -66zM137 0h-102l301 1366h102z" />
    <glyph glyph-name="Lcaron" unicode="&#x13d;" horiz-adv-x="823" 
d="M758 1303q0 -78 -60 -158t-137 -121l-43 47q53 29 95 75t55 91h-13q-27 0 -45 19q-18 18 -18 52t26 60t60 25q36 1 58 -23t22 -67zM653 0h-624l301 1366h114l-280 -1264h512z" />
    <glyph glyph-name="lcaron" unicode="&#x13e;" horiz-adv-x="514" 
d="M727 1300q0 -78 -59 -158t-138 -120l-43 47q53 29 96 75q42 46 54 91h-12q-27 0 -45 19q-18 18 -18 52t25 60q27 26 61 25q34 0 56 -24t23 -67zM137 0h-102l301 1366h102z" />
    <glyph glyph-name="Ldot" unicode="&#x13f;" horiz-adv-x="849" 
d="M663 612q-37 0 -61 24t-22 60q0 36 27 63q28 27 65 27q36 0 60 -22t24 -60q0 -36 -28 -64t-65 -28zM653 0h-624l301 1366h114l-280 -1264h512z" />
    <glyph glyph-name="ldot" unicode="&#x140;" horiz-adv-x="544" 
d="M464 414q-38 0 -61 22t-23 60q0 36 29 64q27 28 65 28t61 -24t23 -60t-28 -62q-28 -28 -66 -28zM137 0h-102l301 1366h102z" />
    <glyph glyph-name="Lslash" unicode="&#x141;" horiz-adv-x="874" 
d="M37 506l22 104l174 90l148 666h115l-134 -600l195 100l-25 -106l-194 -101l-123 -557h512l-22 -102h-625l131 594z" />
    <glyph glyph-name="lslash" unicode="&#x142;" horiz-adv-x="503" 
d="M39 522l22 92l185 95l145 657h103l-134 -598l187 94l-21 -92l-186 -94l-147 -676h-103l135 616z" />
    <glyph glyph-name="Nacute" unicode="&#x143;" horiz-adv-x="1142" 
d="M1106 1786l-342 -295h-84l303 295h123zM879 0h-111l-358 1137l-252 -1137h-115l301 1366h115l358 -1120l248 1120h115z" />
    <glyph glyph-name="nacute" unicode="&#x144;" horiz-adv-x="921" 
d="M918 1434l-343 -295h-83l303 295h123zM735 791q0 131 -145 131t-287 -179l-164 -743h-102l219 989h102l-30 -143q141 168 297 168q100 0 159 -50t60 -143q0 -31 -10 -76l-164 -745h-105l160 727q10 47 10 64z" />
    <glyph glyph-name="Ncommaaccent" unicode="&#x145;" horiz-adv-x="1142" 
d="M502 -250q0 -78 -60 -158t-137 -120l-43 47q53 29 95 75t55 91h-13q-27 0 -45 19t-18 52t25 59q26 25 61 25q36 0 58 -24t22 -66zM879 0h-111l-358 1137l-252 -1137h-115l301 1366h115l358 -1120l248 1120h115z" />
    <glyph glyph-name="ncommaaccent" unicode="&#x146;" horiz-adv-x="921" 
d="M391 -250q0 -78 -59 -158t-137 -120l-43 47q53 29 95 75t54 91h-12q-27 0 -45 19t-18 52t25 59q27 25 61 25t57 -23q22 -24 22 -67zM735 791q0 131 -145 131t-287 -179l-164 -743h-102l219 989h102l-30 -143q141 168 297 168q100 0 159 -50t60 -143q0 -31 -10 -76
l-164 -745h-105l160 727q10 47 10 64z" />
    <glyph glyph-name="Ncaron" unicode="&#x147;" horiz-adv-x="1142" 
d="M846 1491h-107l-108 295h69l103 -230l198 230h78zM879 0h-111l-358 1137l-252 -1137h-115l301 1366h115l358 -1120l248 1120h115z" />
    <glyph glyph-name="ncaron" unicode="&#x148;" horiz-adv-x="921" 
d="M657 1139h-106l-109 295h70l102 -230l199 230h78zM735 791q0 131 -145 131t-287 -179l-164 -743h-102l219 989h102l-30 -143q141 168 297 168q100 0 159 -50t60 -143q0 -31 -10 -76l-164 -745h-105l160 727q10 47 10 64z" />
    <glyph glyph-name="napostrophe" unicode="&#x149;" horiz-adv-x="921" 
d="M487 1413q0 -78 -59 -158t-137 -120l-43 47q53 28 95 74t54 92h-12q-27 0 -45 19t-18 52t25 59q26 26 61 26t57 -24t22 -67zM735 791q0 131 -145 131t-287 -179l-164 -743h-102l219 989h102l-30 -143q141 168 297 168q100 0 159 -50t60 -143q0 -31 -10 -76l-164 -745
h-105l160 727q10 47 10 64z" />
    <glyph glyph-name="Eng" unicode="&#x14a;" horiz-adv-x="1142" 
d="M494 -401q-203 0 -289 145l69 76q66 -121 213 -121q205 0 267 252l12 55l-356 1131l-252 -1137h-115l301 1366h115l358 -1120l248 1120h115l-314 -1415q-81 -352 -372 -352z" />
    <glyph glyph-name="eng" unicode="&#x14b;" horiz-adv-x="921" 
d="M382 -401q-108 0 -159 79l64 72q31 -59 92 -59t95 38t54 124l195 874q10 37 10 66q0 129 -145 129t-287 -179l-164 -743h-102l219 989h102l-32 -145q150 170 299 170q98 0 158 -49t61 -144q0 -14 -11 -76l-198 -892q-31 -133 -87 -194q-56 -60 -164 -60z" />
    <glyph glyph-name="Omacron" unicode="&#x14c;" horiz-adv-x="1208" 
d="M1143 1534h-621l17 76h620zM547 80q139 0 258 131t183 320q65 189 65 371t-88 282q-87 100 -227 100t-259 -132t-182 -322t-63 -370t86 -280q88 -100 227 -100zM543 -25q-195 0 -313 131q-118 132 -118 344t76 422q74 210 224 364q150 153 338 153q188 -1 307 -133
t119 -349q0 -149 -46 -311q-103 -364 -326 -530q-122 -91 -261 -91z" />
    <glyph glyph-name="omacron" unicode="&#x14d;" horiz-adv-x="962" 
d="M942 1188h-620l16 76h620zM414 68q150 0 255 191t105 384q0 135 -60 207t-169 72q-150 0 -255 -192t-106 -384q0 -134 60 -206t170 -72zM883 654q-1 -166 -57 -316t-168 -256t-256 -107q-146 -1 -236 97t-90 263t56 315t168 257t258 107t236 -98q89 -98 89 -262z" />
    <glyph glyph-name="Obreve" unicode="&#x14e;" horiz-adv-x="1208" 
d="M833 1561q156 0 265 125l53 -50q-141 -152 -332 -151q-90 0 -161 40t-105 111l63 50q61 -125 217 -125zM547 80q139 0 258 131t183 320q65 189 65 371t-88 282q-87 100 -227 100t-259 -132t-182 -322t-63 -370t86 -280q88 -100 227 -100zM543 -25q-195 0 -313 131
q-118 132 -118 344t76 422q74 210 224 364q150 153 338 153q188 -1 307 -133t119 -349q0 -149 -46 -311q-103 -364 -326 -530q-122 -91 -261 -91z" />
    <glyph glyph-name="obreve" unicode="&#x14f;" horiz-adv-x="962" 
d="M629 1159q-90 0 -161 40t-106 112l64 49q61 -125 217 -125t264 125l54 -49q-141 -152 -332 -152zM414 68q150 0 255 191t105 384q0 135 -60 207t-169 72q-150 0 -255 -192t-106 -384q0 -134 60 -206t170 -72zM883 654q-1 -166 -57 -316t-168 -256t-256 -107
q-146 -1 -236 97t-90 263t56 315t168 257t258 107t236 -98q89 -98 89 -262z" />
    <glyph glyph-name="Ohungarumlaut" unicode="&#x150;" horiz-adv-x="1208" 
d="M1221 1786l-263 -295h-71l223 295h111zM965 1786l-263 -295h-71l223 295h111zM547 80q139 0 258 131t183 320q65 189 65 371t-88 282q-87 100 -227 100t-259 -132t-182 -322t-63 -370t86 -280q88 -100 227 -100zM543 -25q-195 0 -313 131q-118 132 -118 344t76 422
q74 210 224 364q150 153 338 153q188 -1 307 -133t119 -349q0 -149 -46 -311q-103 -364 -326 -530q-122 -91 -261 -91z" />
    <glyph glyph-name="ohungarumlaut" unicode="&#x151;" horiz-adv-x="962" 
d="M1020 1434l-262 -295h-72l223 295h111zM764 1434l-262 -295h-72l223 295h111zM414 68q150 0 255 191t105 384q0 135 -60 207t-169 72q-150 0 -255 -192t-106 -384q0 -134 60 -206t170 -72zM883 654q-1 -166 -57 -316t-168 -256t-256 -107q-146 -1 -236 97t-90 263t56 315
t168 257t258 107t236 -98q89 -98 89 -262z" />
    <glyph glyph-name="OE" unicode="&#x152;" horiz-adv-x="1734" 
d="M743 1282q-139 0 -261 -136t-185 -326t-63 -362q0 -174 80 -276q82 -102 210 -102t232 79t174 216l125 567q-14 166 -94 253t-218 87zM506 -25q-180 -1 -286 133t-107 349q0 147 47 309t128 301t205 229t263 90q272 0 340 -262l51 242h668l-21 -102h-555l-113 -512h541
l-25 -103h-538l-121 -547h553l-23 -102h-667l41 190q-143 -215 -381 -215z" />
    <glyph glyph-name="oe" unicode="&#x153;" horiz-adv-x="1603" 
d="M766 652q0 130 -62 200t-163 70q-147 0 -251 -190t-106 -386q0 -131 58 -205q58 -73 164 -73q104 0 189 96t128 227t43 261zM1194 926q-119 0 -210 -121t-114 -262h549q14 47 15 110q0 125 -60 199t-180 74zM846 352q0 -131 68 -210t196 -79q127 0 236 115l49 -69
q-129 -133 -283 -133t-243 81q-87 82 -99 195q-66 -123 -150 -200t-226 -77q-142 1 -230 97t-88 264t56 320t167 254q111 104 246 104t213 -82t88 -191q137 272 366 273q148 0 234 -95t86 -266q0 -104 -27 -192h-649q-10 -41 -10 -109z" />
    <glyph glyph-name="Racute" unicode="&#x154;" horiz-adv-x="1005" 
d="M1036 1786l-342 -295h-84l303 295h123zM557 672q150 0 235 110t85 260q1 100 -59 160t-144 62h-238l-131 -592h252zM686 1366q129 0 221 -88t92 -229q0 -185 -106 -317t-272 -152l174 -580h-125l-160 569h-227l-125 -569h-115l301 1366h342z" />
    <glyph glyph-name="racute" unicode="&#x155;" horiz-adv-x="569" 
d="M793 1434l-342 -295h-84l303 295h123zM545 903q-57 0 -129 -52t-119 -130l-160 -721h-102l219 989h102l-32 -151q66 88 138 130t183 42l-24 -113q-18 6 -76 6z" />
    <glyph glyph-name="Rcommaaccent" unicode="&#x156;" horiz-adv-x="1005" 
d="M430 -250q0 -78 -59 -158t-138 -120l-43 47q53 29 96 74q42 46 54 92h-12q-27 0 -45 19q-19 19 -19 52t26 59q26 25 60 25t58 -23q22 -24 22 -67zM557 672q150 0 235 110t85 260q1 100 -59 160t-144 62h-238l-131 -592h252zM686 1366q129 0 221 -88t92 -229
q0 -185 -106 -317t-272 -152l174 -580h-125l-160 569h-227l-125 -569h-115l301 1366h342z" />
    <glyph glyph-name="rcommaaccent" unicode="&#x157;" horiz-adv-x="569" 
d="M215 -250q0 -78 -59 -158t-138 -120l-43 47q53 29 96 74q42 46 54 92h-12q-27 0 -45 19t-18 52t25 59q27 25 61 25t57 -23q22 -24 22 -67zM545 903q-57 0 -129 -52t-119 -130l-160 -721h-102l219 989h102l-32 -151q66 88 138 130t183 42l-24 -113q-18 6 -76 6z" />
    <glyph glyph-name="Rcaron" unicode="&#x158;" horiz-adv-x="1005" 
d="M776 1491h-106l-109 295h70l102 -230l199 230h78zM557 672q150 0 235 110t85 260q1 100 -59 160t-144 62h-238l-131 -592h252zM686 1366q129 0 221 -88t92 -229q0 -185 -106 -317t-272 -152l174 -580h-125l-160 569h-227l-125 -569h-115l301 1366h342z" />
    <glyph glyph-name="rcaron" unicode="&#x159;" horiz-adv-x="569" 
d="M530 1139h-106l-109 295h70l102 -230l199 230h78zM545 903q-57 0 -129 -52t-119 -130l-160 -721h-102l219 989h102l-32 -151q66 88 138 130t183 42l-24 -113q-18 6 -76 6z" />
    <glyph glyph-name="Sacute" unicode="&#x15a;" horiz-adv-x="940" 
d="M999 1786l-342 -295h-84l304 295h122zM92 246q104 -166 333 -166q116 0 196 87t79 214q0 61 -36 117t-88 93q-149 106 -217 159q-140 110 -140 264t118 264t279 111q111 0 205 -43t146 -117l-78 -82q-92 137 -277 137q-114 0 -192 -79t-78 -183q0 -54 36 -106t89 -90
t115 -84t114 -91q53 -45 89 -113t36 -145q0 -172 -116 -295t-302 -123q-127 1 -235 53t-158 134z" />
    <glyph glyph-name="sacute" unicode="&#x15b;" horiz-adv-x="772" 
d="M842 1434l-342 -295h-84l303 295h123zM311 -25q-225 0 -317 154l72 68q34 -57 100 -95t154 -39t152 59q62 60 62 128q1 115 -139 195q-57 34 -114 70t-99 91q-41 55 -41 123q0 119 85 202t229 83q94 0 171 -39t115 -101l-67 -67q-27 53 -89 86t-144 33q-83 0 -139 -50
t-56 -114t41 -106q41 -44 98 -78t115 -71q140 -91 141 -220t-91 -221t-239 -91z" />
    <glyph glyph-name="Scircumflex" unicode="&#x15c;" horiz-adv-x="927" 
d="M92 246q104 -166 333 -166q116 0 196 87t79 214q0 61 -36 117t-88 93q-149 106 -217 159q-140 110 -140 264t118 264t279 111q111 0 205 -43t146 -117l-78 -82q-92 137 -277 137q-114 0 -192 -79t-78 -183q0 -54 36 -106t89 -90t115 -84t114 -91q53 -45 89 -113t36 -145
q0 -172 -116 -295t-302 -123q-127 1 -235 53t-158 134zM879 1491h-70l-104 229l-197 -229h-78l234 295h106z" />
    <glyph glyph-name="scircumflex" unicode="&#x15d;" horiz-adv-x="772" 
d="M752 1139h-70l-104 229l-197 -229h-78l234 295h106zM311 -25q-225 0 -317 154l72 68q34 -57 100 -95t154 -39t152 59q62 60 62 128q1 115 -139 195q-57 34 -114 70t-99 91q-41 55 -41 123q0 119 85 202t229 83q94 0 171 -39t115 -101l-67 -67q-27 53 -89 86t-144 33
q-83 0 -139 -50t-56 -114t41 -106q41 -44 98 -78t115 -71q140 -91 141 -220t-91 -221t-239 -91z" />
    <glyph glyph-name="Scedilla" unicode="&#x15e;" horiz-adv-x="940" 
d="M92 246q104 -166 333 -166q116 0 196 87t79 214q0 61 -36 117t-88 93q-149 106 -217 159q-140 110 -140 264t118 264t279 111q111 0 205 -43t146 -117l-78 -82q-92 137 -277 137q-114 0 -192 -79t-78 -183q0 -54 36 -106t89 -90t115 -84t114 -91q53 -45 89 -113t36 -145
q1 -172 -115 -295t-303 -123q-25 0 -36 2l-56 -94q25 23 66 23t71 -32t29 -96q1 -64 -57 -114q-58 -51 -160 -51t-170 76l47 59q55 -68 144 -67q57 1 89 31t32 68q-1 71 -68 73q-39 0 -68 -35l-49 32l80 136q-199 39 -287 176z" />
    <glyph glyph-name="scedilla" unicode="&#x15f;" horiz-adv-x="772" 
d="M186 -387q-102 0 -172 76l47 59q55 -68 144 -67q57 1 89 31t32 68q0 71 -68 73q-39 0 -68 -35l-49 32l78 134q-154 25 -225 145l72 68q34 -57 100 -95t154 -39t152 59q62 60 62 128q1 115 -139 195q-57 34 -114 70t-99 91q-41 55 -41 123q0 119 85 202t229 83
q94 0 171 -39t115 -101l-67 -67q-27 53 -89 86t-144 33q-83 0 -139 -50t-56 -114t41 -106q41 -44 98 -78t115 -71q140 -91 141 -220q0 -129 -91 -220t-239 -92h-20l-55 -92q26 23 66 23t70 -32t30 -96t-58 -114q-56 -51 -158 -51z" />
    <glyph glyph-name="Scaron" unicode="&#x160;" horiz-adv-x="927" 
d="M92 246q104 -166 333 -166q116 0 196 87t79 214q0 61 -36 117t-88 93q-149 106 -217 159q-140 110 -140 264t118 264t279 111q111 0 205 -43t146 -117l-78 -82q-92 137 -277 137q-114 0 -192 -79t-78 -183q0 -54 36 -106t89 -90t115 -84t114 -91q53 -45 89 -113t36 -145
q0 -172 -116 -295t-302 -123q-127 1 -235 53t-158 134zM750 1491h-107l-108 295h69l103 -230l198 230h78z" />
    <glyph glyph-name="scaron" unicode="&#x161;" horiz-adv-x="772" 
d="M584 1139h-107l-108 295h69l103 -230l198 230h78zM311 -25q-225 0 -317 154l72 68q34 -57 100 -95t154 -39t152 59q62 60 62 128q1 115 -139 195q-57 34 -114 70t-99 91q-41 55 -41 123q0 119 85 202t229 83q94 0 171 -39t115 -101l-67 -67q-27 53 -89 86t-144 33
q-83 0 -139 -50t-56 -114t41 -106q41 -44 98 -78t115 -71q140 -91 141 -220t-91 -221t-239 -91z" />
    <glyph glyph-name="Tcommaaccent" unicode="&#x162;" horiz-adv-x="890" 
d="M375 -250q1 -78 -59 -158t-138 -120l-43 47q53 29 95 75t55 91h-13q-27 0 -45 19t-18 52t25 59q26 25 61 25t57 -24t23 -66zM391 0h-115l281 1264h-334l23 102h782l-22 -102h-336z" />
    <glyph glyph-name="Tcommaaccent" unicode="&#x21a;" horiz-adv-x="890" 
d="M375 -250q1 -78 -59 -158t-138 -120l-43 47q53 29 95 75t55 91h-13q-27 0 -45 19t-18 52t25 59q26 25 61 25t57 -24t23 -66zM391 0h-115l281 1264h-334l23 102h782l-22 -102h-336z" />
    <glyph glyph-name="tcommaaccent" unicode="&#x163;" horiz-adv-x="507" 
d="M184 -250q0 -78 -59 -158t-137 -120l-43 47q53 29 95 75t54 91h-12q-27 0 -45 19q-19 19 -19 52t26 59q26 25 60 25t58 -23q22 -24 22 -67zM260 -25q-170 0 -170 148q0 29 8 61l160 713h-135l20 92h136l59 271h102l-59 -271h170l-21 -92h-170l-155 -700q-6 -25 -6 -52
q0 -78 82 -77q45 0 86 36l24 -79q-55 -50 -131 -50z" />
    <glyph glyph-name="tcommaaccent" unicode="&#x21b;" horiz-adv-x="507" 
d="M184 -250q0 -78 -59 -158t-137 -120l-43 47q53 29 95 75t54 91h-12q-27 0 -45 19q-19 19 -19 52t26 59q26 25 60 25t58 -23q22 -24 22 -67zM260 -25q-170 0 -170 148q0 29 8 61l160 713h-135l20 92h136l59 271h102l-59 -271h170l-21 -92h-170l-155 -700q-6 -25 -6 -52
q0 -78 82 -77q45 0 86 36l24 -79q-55 -50 -131 -50z" />
    <glyph glyph-name="Tcaron" unicode="&#x164;" horiz-adv-x="890" 
d="M721 1491h-107l-108 295h69l103 -230l199 230h77zM391 0h-115l281 1264h-334l23 102h782l-22 -102h-336z" />
    <glyph glyph-name="tcaron" unicode="&#x165;" horiz-adv-x="518" 
d="M764 1413q0 -78 -59 -158t-138 -120l-43 47q53 29 96 74q42 46 54 92h-12q-27 0 -46 19q-18 19 -18 52t26 59t60 26t58 -24q22 -24 22 -67zM260 -25q-170 0 -170 148q0 29 8 61l160 713h-135l20 92h136l59 271h102l-59 -271h170l-21 -92h-170l-155 -700q-6 -25 -6 -52
q0 -78 82 -77q45 0 86 36l24 -79q-55 -50 -131 -50z" />
    <glyph glyph-name="Tbar" unicode="&#x166;" horiz-adv-x="890" 
d="M391 0h-115l140 631h-240l17 76h239l125 557h-334l23 102h782l-22 -102h-336l-123 -557h241l-16 -76h-242z" />
    <glyph glyph-name="tbar" unicode="&#x167;" horiz-adv-x="507" 
d="M260 -25q-170 0 -170 148q0 29 8 61l66 297h-133l16 76h135l76 340h-135l20 92h136l59 271h102l-59 -271h170l-21 -92h-170l-75 -340h110l-16 -76h-111l-63 -284q-6 -25 -6 -52q0 -78 82 -77q45 0 86 36l24 -79q-55 -50 -131 -50z" />
    <glyph glyph-name="Utilde" unicode="&#x168;" horiz-adv-x="1130" 
d="M903 1487q-47 0 -74 33q-27 32 -33 72q-17 106 -79 106q-82 0 -125 -199h-70q59 274 209 275q47 0 74 -33t34 -73q19 -107 76 -105q82 0 129 198h70q-59 -274 -211 -274zM517 -25q-181 -1 -285 95t-103 260q0 59 10 100l205 936h115l-207 -938q-10 -35 -10 -86
q0 -120 74 -192t204 -72q131 0 209 86t117 264l207 938h114l-206 -936q-51 -229 -157 -342t-287 -113z" />
    <glyph glyph-name="utilde" unicode="&#x169;" horiz-adv-x="921" 
d="M717 1135q-47 1 -74 33t-34 72q-19 106 -79 106q-82 0 -124 -199h-70q59 274 209 274q47 -1 73 -33t34 -72q19 -106 77 -106q82 0 129 199h70q-59 -274 -211 -274zM334 68q148 0 282 174l166 747h105l-219 -989h-105l31 143q-141 -168 -295 -168q-101 -1 -161 49t-60 144
q0 29 10 76l164 745h104l-159 -727q-10 -45 -11 -63q0 -131 148 -131z" />
    <glyph glyph-name="Umacron" unicode="&#x16a;" horiz-adv-x="1130" 
d="M1104 1534h-621l17 76h620zM517 -25q-181 -1 -285 95t-103 260q0 59 10 100l205 936h115l-207 -938q-10 -35 -10 -86q0 -120 74 -192t204 -72q131 0 209 86t117 264l207 938h114l-206 -936q-51 -229 -157 -342t-287 -113z" />
    <glyph glyph-name="umacron" unicode="&#x16b;" horiz-adv-x="921" 
d="M924 1188h-621l16 76h621zM334 68q148 0 282 174l166 747h105l-219 -989h-105l31 143q-141 -168 -295 -168q-101 -1 -161 49t-60 144q0 29 10 76l164 745h104l-159 -727q-10 -45 -11 -63q0 -131 148 -131z" />
    <glyph glyph-name="Ubreve" unicode="&#x16c;" horiz-adv-x="1130" 
d="M803 1561q156 0 264 125l53 -50q-141 -152 -332 -151q-90 0 -160 40t-106 111l64 50q61 -125 217 -125zM517 -25q-181 -1 -285 95t-103 260q0 59 10 100l205 936h115l-207 -938q-10 -35 -10 -86q0 -120 74 -192t204 -72q131 0 209 86t117 264l207 938h114l-206 -936
q-51 -229 -157 -342t-287 -113z" />
    <glyph glyph-name="ubreve" unicode="&#x16d;" horiz-adv-x="921" 
d="M610 1159q-90 0 -160 40t-106 112l64 49q61 -125 217 -125t264 125l53 -49q-141 -152 -332 -152zM334 68q148 0 282 174l166 747h105l-219 -989h-105l31 143q-141 -168 -295 -168q-101 -1 -161 49t-60 144q0 29 10 76l164 745h104l-159 -727q-10 -45 -11 -63
q0 -131 148 -131z" />
    <glyph glyph-name="Uring" unicode="&#x16e;" horiz-adv-x="1130" 
d="M690 1589q0 -49 29 -79t78 -29q49 0 88 38t39 88t-29 80q-29 29 -78 29t-88 -39t-39 -88zM987 1612q1 -76 -59 -136t-136 -59q-76 0 -120 46t-45 122q0 76 59 135q59 60 134 60t121 -46t46 -122zM517 -25q-181 -1 -285 95t-103 260q0 59 10 100l205 936h115l-207 -938
q-10 -35 -10 -86q0 -120 74 -192t204 -72q131 0 209 86t117 264l207 938h114l-206 -936q-51 -229 -157 -342t-287 -113z" />
    <glyph glyph-name="uring" unicode="&#x16f;" horiz-adv-x="921" 
d="M631 1204q49 0 88 38t39 88t-29 80t-78 30t-88 -39t-39 -88t29 -79t78 -30zM627 1141q-76 0 -121 46t-45 122t59 135t134 59t121 -46t46 -122t-59 -135t-135 -59zM334 68q148 0 282 174l166 747h105l-219 -989h-105l31 143q-141 -168 -295 -168q-101 -1 -161 49t-60 144
q0 29 10 76l164 745h104l-159 -727q-10 -45 -11 -63q0 -131 148 -131z" />
    <glyph glyph-name="Uhungarumlaut" unicode="&#x170;" horiz-adv-x="1130" 
d="M1182 1786l-262 -295h-72l223 295h111zM926 1786l-262 -295h-72l223 295h111zM517 -25q-181 -1 -285 95t-103 260q0 59 10 100l205 936h115l-207 -938q-10 -35 -10 -86q0 -120 74 -192t204 -72q131 0 209 86t117 264l207 938h114l-206 -936q-51 -229 -157 -342t-287 -113
z" />
    <glyph glyph-name="uhungarumlaut" unicode="&#x171;" horiz-adv-x="921" 
d="M999 1434l-262 -295h-71l223 295h110zM743 1434l-262 -295h-71l223 295h110zM334 68q148 0 282 174l166 747h105l-219 -989h-105l31 143q-141 -168 -295 -168q-101 -1 -161 49t-60 144q0 29 10 76l164 745h104l-159 -727q-10 -45 -11 -63q0 -131 148 -131z" />
    <glyph glyph-name="Uogonek" unicode="&#x172;" horiz-adv-x="1130" 
d="M510 -25q-174 -1 -278 95t-103 260q0 59 10 100l205 936h115l-207 -938q-10 -35 -10 -86q0 -120 74 -192t204 -72q131 0 209 86t117 264l207 938h114l-206 -936q-80 -354 -293 -430q-205 -104 -205 -242q0 -72 76 -71q63 0 100 80l53 -39q-59 -109 -164 -109
q-63 0 -100 34t-37 95q0 127 125 227h-6z" />
    <glyph glyph-name="uogonek" unicode="&#x173;" horiz-adv-x="921" 
d="M528 -381q-63 0 -100 34t-37 95q0 147 174 262l29 133q-141 -168 -295 -168q-101 -1 -161 49t-60 144q0 29 10 76l164 745h104l-159 -727q-10 -45 -11 -63q0 -131 148 -131t282 174l166 747h105l-219 -989q-205 -104 -205 -242q0 -72 76 -71q63 0 100 80l53 -39
q-59 -109 -164 -109z" />
    <glyph glyph-name="Wcircumflex" unicode="&#x174;" horiz-adv-x="1421" 
d="M1155 1491h-70l-104 229l-197 -229h-77l233 295h107zM231 0v1366h121l-16 -1182l512 1182h102l-10 -1182l506 1182h125l-602 -1366h-127l12 1149l-498 -1149h-125z" />
    <glyph glyph-name="wcircumflex" unicode="&#x175;" horiz-adv-x="1263" 
d="M997 1139h-69l-105 229l-196 -229h-78l233 295h107zM852 0h-102l-43 846l-414 -846h-103l-47 989h107l24 -842l412 842h98l39 -842l400 842h114z" />
    <glyph glyph-name="Ycircumflex" unicode="&#x176;" horiz-adv-x="989" 
d="M442 0h-114l129 586l-250 780h123l200 -666l498 666h135l-592 -780zM940 1491h-70l-104 229l-197 -229h-77l233 295h106z" />
    <glyph glyph-name="ycircumflex" unicode="&#x177;" horiz-adv-x="802" 
d="M768 1139h-70l-104 229l-197 -229h-78l234 295h106zM-10 -303q44 1 74 23q28 22 63 83l102 179l-100 1007h111l73 -862l461 862h117l-670 -1214q-98 -176 -233 -176q-60 0 -101 20l39 92q20 -14 64 -14z" />
    <glyph glyph-name="Ydieresis" unicode="&#x178;" horiz-adv-x="989" 
d="M442 0h-114l129 586l-250 780h123l200 -666l498 666h135l-592 -780zM643 1579q0 -31 -25 -55q-24 -24 -56 -25t-50 19t-18 51t24 55t57 25q32 1 50 -19t18 -51zM987 1580q-1 -30 -25 -56t-55 -25q-31 -1 -50 19t-19 51t24 55t57 25q32 1 50 -19t18 -50z" />
    <glyph glyph-name="Zacute" unicode="&#x179;" horiz-adv-x="927" 
d="M997 1786l-342 -295h-84l303 295h123zM731 0h-756l23 100l856 1164h-598l20 102h742l-21 -98l-860 -1166h617z" />
    <glyph glyph-name="zacute" unicode="&#x17a;" horiz-adv-x="776" 
d="M844 1434l-342 -295h-84l303 295h123zM571 0h-585l16 86l629 811h-447l21 92h577l-18 -84l-631 -813h457z" />
    <glyph glyph-name="Zdotaccent" unicode="&#x17b;" horiz-adv-x="927" 
d="M776 1580q0 -32 -26 -58t-57 -25q-32 1 -51 21t-19 52q-1 32 25 56t58 25t51 -19t19 -52zM731 0h-756l23 100l856 1164h-598l20 102h742l-21 -98l-860 -1166h617z" />
    <glyph glyph-name="zdotaccent" unicode="&#x17c;" horiz-adv-x="776" 
d="M564 1346q32 0 52 -20t19 -51q0 -31 -26 -57q-25 -26 -57 -26t-51 20t-19 52t25 58q25 24 57 24zM571 0h-585l16 86l629 811h-447l21 92h577l-18 -84l-631 -813h457z" />
    <glyph glyph-name="Zcaron" unicode="&#x17d;" horiz-adv-x="927" 
d="M731 0h-756l23 100l856 1164h-598l20 102h742l-21 -98l-860 -1166h617zM739 1491h-106l-109 295h70l102 -230l199 230h78z" />
    <glyph glyph-name="zcaron" unicode="&#x17e;" horiz-adv-x="776" 
d="M578 1139h-107l-109 295h70l103 -230l198 230h78zM571 0h-585l16 86l629 811h-447l21 92h577l-18 -84l-631 -813h457z" />
    <glyph glyph-name="longs" unicode="&#x17f;" horiz-adv-x="489" 
d="M575 1386q102 0 164 -67l-61 -76q-39 51 -100 51q-125 0 -160 -166l-248 -1128h-104l198 897h-131l21 92h131l30 141q55 256 260 256z" />
    <glyph glyph-name="florin" unicode="&#x192;" horiz-adv-x="790" 
d="M14 535v96h148l112 506q55 250 258 249q104 0 168 -65l-57 -80q-35 43 -96 43q-123 0 -162 -166l-106 -487h251v-96h-274l-190 -865h-117l192 865h-127z" />
    <glyph glyph-name="AEacute" unicode="&#x1fc;" horiz-adv-x="1507" 
d="M1311 1786l-342 -295h-84l303 295h123zM715 440l174 781l-541 -781h367zM1286 0h-668l74 338h-409l-232 -338h-129l952 1366h713l-20 -102h-555l-113 -512h539l-23 -103h-541l-120 -547h555z" />
    <glyph glyph-name="aeacute" unicode="&#x1fd;" horiz-adv-x="1562" 
d="M1192 1434l-342 -295h-84l303 295h123zM1158 926q-116 0 -211 -118t-120 -265h549q12 53 13 110q1 121 -57 197t-174 76zM523 922q-93 0 -176 -102t-123 -236q-40 -133 -40 -256t56 -192q56 -68 142 -68q87 0 161 54t119 134l104 481q-22 77 -86 131t-157 54zM1073 -25
q-264 0 -313 263l-53 -238h-105l33 141q-113 -166 -275 -166q-130 1 -208 93t-78 248t51 311t157 271t240 116q90 0 160 -47t106 -136l33 158h105l-43 -190q135 215 309 215q141 0 219 -93t78 -264q0 -98 -27 -196h-649q-10 -57 -10 -109q-1 -127 69 -207q70 -79 197 -79
t236 112l47 -72q-125 -131 -279 -131z" />
    <glyph glyph-name="Oslashacute" unicode="&#x1fe;" horiz-adv-x="1208" 
d="M233 486q0 -154 43 -240l687 940q-85 98 -225 98t-259 -132t-183 -322t-63 -344zM547 80q139 0 258 131t183 320q65 189 65 343t-45 244l-686 -940q86 -98 225 -98zM543 -25q-178 0 -291 107l-59 -82h-97l105 143q-88 123 -88 321q1 198 75 408t224 364q150 153 328 153
t292 -109l62 86h96l-107 -145q93 -125 93 -295q1 -332 -170 -631q-80 -139 -202 -229t-261 -91zM1141 1786l-342 -295h-84l303 295h123z" />
    <glyph glyph-name="oslashacute" unicode="&#x1ff;" horiz-adv-x="962" 
d="M184 346q0 -70 17 -125l520 619q-59 82 -176 82q-149 0 -255 -192t-106 -384zM414 68q150 0 255 191t105 384q0 78 -20 131l-521 -620q58 -86 181 -86zM76 358q0 142 56 292t168 257t258 107t233 -94l57 69h86l-105 -125q53 -88 53 -232t-56 -294t-168 -256t-258 -106
t-236 96l-60 -72h-88l109 129q-49 87 -49 229zM938 1434l-342 -295h-84l303 295h123z" />
    <glyph glyph-name="Scommaaccent" unicode="&#x218;" horiz-adv-x="929" 
d="M389 -250q0 -78 -59 -158t-137 -120l-43 47q53 29 95 75t54 91h-12q-27 0 -45 19t-18 52t25 59q27 25 61 25t57 -23q22 -24 22 -67zM94 246q104 -166 333 -166q116 0 196 87t79 214q0 61 -36 117t-88 93q-172 123 -228 168q-57 43 -93 109t-36 142q0 158 118 268t279 111
q111 0 205 -43t146 -117l-78 -82q-92 137 -277 137q-114 0 -192 -79t-78 -183q0 -54 36 -106t89 -90t115 -84t114 -91q53 -45 89 -113t36 -145q1 -172 -115 -295t-302 -123q-127 1 -235 53t-159 134z" />
    <glyph glyph-name="scommaaccent" unicode="&#x219;" horiz-adv-x="774" 
d="M315 -250q0 -78 -59 -158t-137 -120l-43 47q53 29 95 75t54 91h-12q-27 0 -45 19t-18 52t25 59q26 25 61 25t57 -24t22 -66zM311 -25q-225 0 -317 154l72 68q34 -57 100 -95t154 -39t152 59q62 60 62 128q1 115 -139 195q-57 34 -114 70t-99 91q-41 55 -41 123
q0 119 85 202t229 83q94 0 171 -39t115 -101l-67 -67q-27 53 -89 86t-144 33q-83 0 -139 -50t-56 -114t41 -106q41 -44 98 -78t115 -71q140 -91 141 -220t-91 -221t-239 -91z" />
    <glyph glyph-name="hsuperior" unicode="&#x2b0;" horiz-adv-x="686" 
d="M676 1163q0 92 -107 92q-84 0 -180 -114l-102 -473h-86l196 888h86l-75 -339q92 111 200 110q158 0 158 -129q0 -27 -8 -63l-103 -467h-86l101 456q6 25 6 39z" />
    <glyph glyph-name="hsuperior" unicode="&#xf637;" horiz-adv-x="686" 
d="M676 1163q0 92 -107 92q-84 0 -180 -114l-102 -473h-86l196 888h86l-75 -339q92 111 200 110q158 0 158 -129q0 -27 -8 -63l-103 -467h-86l101 456q6 25 6 39z" />
    <glyph glyph-name="circumflex" unicode="&#x2c6;" horiz-adv-x="448" 
d="M590 1139h-70l-104 229l-197 -229h-78l234 295h106z" />
    <glyph glyph-name="caron" unicode="&#x2c7;" horiz-adv-x="448" 
d="M422 1139h-107l-108 295h69l103 -230l199 230h77z" />
    <glyph glyph-name="breve" unicode="&#x2d8;" horiz-adv-x="600" 
d="M446 1159q-90 0 -160 40t-106 112l64 49q61 -125 217 -125t264 125l53 -49q-141 -152 -332 -152z" />
    <glyph glyph-name="dotaccent" unicode="&#x2d9;" horiz-adv-x="169" 
d="M262 1346q32 0 50 -20q20 -20 20 -51t-26 -57t-58 -26t-50 20q-20 20 -20 52t26 58q26 24 58 24z" />
    <glyph glyph-name="ring" unicode="&#x2da;" horiz-adv-x="358" 
d="M244 1313q0 -49 28 -79t78 -30q49 0 88 38t39 88t-28 80q-29 30 -78 30t-88 -39t-39 -88zM541 1335q1 -76 -59 -135t-136 -59t-121 46t-45 122t60 135t134 59q75 0 121 -46t46 -122z" />
    <glyph glyph-name="ogonek" unicode="&#x2db;" horiz-adv-x="309" 
d="M-25 -381q-63 0 -100 34t-37 95q0 170 225 293l52 -41q-205 -104 -205 -242q0 -72 76 -71q63 0 100 80l53 -39q-59 -109 -164 -109z" />
    <glyph glyph-name="tilde" unicode="&#x2dc;" horiz-adv-x="534" 
d="M524 1135q-48 1 -74 33t-33 72q-19 106 -79 106q-82 0 -125 -199h-70q59 274 209 274q47 -1 74 -33t34 -72q19 -106 77 -106q82 0 129 199h69q-59 -274 -211 -274z" />
    <glyph glyph-name="hungarumlaut" unicode="&#x2dd;" horiz-adv-x="520" 
d="M727 1434l-262 -295h-72l223 295h111zM471 1434l-262 -295h-72l223 295h111z" />
    <glyph glyph-name="Delta" unicode="&#x394;" horiz-adv-x="1009" 
d="M752 102l-80 1131l-582 -1131h662zM874 0h-960l713 1366h137z" />
    <glyph glyph-name="Delta" unicode="&#x2206;" horiz-adv-x="1009" 
d="M752 102l-80 1131l-582 -1131h662zM874 0h-960l713 1366h137z" />
    <glyph glyph-name="Omega" unicode="&#x3a9;" horiz-adv-x="1191" 
d="M734 1282q-146 0 -266 -137t-179 -321t-60 -353q0 -248 162 -369l-14 -73l-6 -29h-353l21 102h237q-160 154 -159 408q0 186 71 384q72 198 218 346t336 148t307 -121q117 -122 117 -368t-118 -462q-116 -216 -296 -335h223l-21 -102h-352l21 102q170 72 295 318t124 485
q0 182 -81 280q-81 97 -227 97z" />
    <glyph glyph-name="Omega" unicode="&#x2126;" horiz-adv-x="1191" 
d="M734 1282q-146 0 -266 -137t-179 -321t-60 -353q0 -248 162 -369l-14 -73l-6 -29h-353l21 102h237q-160 154 -159 408q0 186 71 384q72 198 218 346t336 148t307 -121q117 -122 117 -368t-118 -462q-116 -216 -296 -335h223l-21 -102h-352l21 102q170 72 295 318t124 485
q0 182 -81 280q-81 97 -227 97z" />
    <glyph glyph-name="pi" unicode="&#x3c0;" horiz-adv-x="870" 
d="M582 0h-107l205 928h-301l-205 -928h-108l204 928h-120l20 96h760l-21 -96h-121z" />
    <glyph glyph-name="endash" unicode="&#x2013;" horiz-adv-x="1079" 
d="M1006 449h-957l21 94h954z" />
    <glyph glyph-name="emdash" unicode="&#x2014;" horiz-adv-x="1509" 
d="M1436 449h-1387l21 94h1384z" />
    <glyph glyph-name="quoteleft" unicode="&#x2018;" horiz-adv-x="446" 
d="M252 1090q0 84 61 168t146 128l49 -53q-57 -29 -101 -77t-59 -95h14q30 0 50 -20t20 -55t-29 -64t-67 -29t-61 26t-23 71z" />
    <glyph glyph-name="quoteright" unicode="&#x2019;" horiz-adv-x="446" 
d="M494 1290q0 -84 -62 -169t-147 -128l-49 54q57 29 101 75t58 97q-3 -2 -23 -2q-20 -1 -40 21t-20 56t28 64q29 28 67 28q39 0 63 -26t24 -70z" />
    <glyph glyph-name="quotesinglbase" unicode="&#x201a;" horiz-adv-x="446" 
d="M219 59q0 -84 -61 -169t-146 -128l-49 54q57 29 102 76q44 48 58 96h-14q-29 0 -50 21q-20 23 -20 57t29 62q28 28 66 28t62 -25t23 -72z" />
    <glyph glyph-name="quotedblleft" unicode="&#x201c;" horiz-adv-x="735" 
d="M262 1090q0 84 62 168t145 128l49 -53q-57 -29 -101 -77t-57 -95h15q29 0 48 -20t19 -55t-28 -64t-67 -29q-37 0 -61 25t-24 72zM547 1090q0 84 61 168t146 128l49 -53q-57 -29 -101 -77t-59 -95h14q29 0 49 -20t21 -55q0 -35 -29 -64q-28 -29 -66 -29t-62 25
q-23 25 -23 72z" />
    <glyph glyph-name="quotedblright" unicode="&#x201d;" horiz-adv-x="735" 
d="M778 1290q0 -84 -62 -169t-147 -128l-49 54q57 29 102 75q44 47 58 97q-2 -2 -22 -2q-20 -1 -42 21q-20 22 -20 56t29 64q29 28 67 28t62 -25q24 -26 24 -71zM494 1290q0 -84 -62 -169t-147 -128l-49 54q57 29 101 75t58 97q-3 -2 -23 -2q-20 -1 -40 21t-20 56t28 64
q29 28 67 28q39 0 63 -26t24 -70z" />
    <glyph glyph-name="quotedblbase" unicode="&#x201e;" horiz-adv-x="735" 
d="M504 59q0 -84 -62 -169t-145 -128l-49 54q57 28 101 76t59 96h-15q-29 0 -49 22t-20 56t28 62q29 28 67 28q37 0 61 -25t24 -72zM219 59q0 -84 -61 -169t-146 -128l-49 54q57 29 102 76q44 48 58 96h-14q-29 0 -50 21q-20 23 -20 57t29 62q28 28 66 28t62 -25t23 -72z
" />
    <glyph glyph-name="dagger" unicode="&#x2020;" horiz-adv-x="526" 
d="M608 1096l-180 8l-88 -434h-80l105 434l-185 -8l17 71l180 -6l43 225h80l-60 -225l185 6z" />
    <glyph glyph-name="daggerdbl" unicode="&#x2021;" horiz-adv-x="526" 
d="M625 1167l-17 -71l-180 8l-100 -453l184 8l-16 -71l-181 6l-43 -225h-79l59 225l-184 -6l16 71l180 -8l101 453l-185 -8l17 71l180 -6l43 225h80l-60 -225z" />
    <glyph glyph-name="bullet" unicode="&#x2022;" horiz-adv-x="733" 
d="M384 705q86 1 140 -53t54 -141t-71 -155t-158 -68t-140 54q-53 53 -53 140t70 155q71 68 158 68z" />
    <glyph glyph-name="ellipsis" unicode="&#x2026;" horiz-adv-x="1341" 
d="M1028 156q38 0 60 -23t22 -59t-28 -66q-28 -28 -66 -28q-37 0 -61 24q-23 24 -23 60t29 64t67 28zM580 156q36 0 60 -23t24 -59t-29 -66q-29 -28 -66 -28t-61 24t-23 60q0 36 29 64t66 28zM123 -20q-37 0 -61 24t-24 60t29 64q27 28 65 28t62 -24t24 -60t-30 -64
q-28 -28 -65 -28z" />
    <glyph glyph-name="perthousand" unicode="&#x2030;" horiz-adv-x="1941" 
d="M1524 53q82 0 152 95t71 231q0 88 -44 138t-126 50t-153 -94t-70 -231q0 -88 44 -138t126 -51zM1839 387q1 -174 -99 -293t-221 -119t-189 74t-68 187q0 174 99 292t220 117q121 0 189 -74t69 -184zM442 795q82 0 153 95t71 230q0 88 -44 138t-126 50t-153 -94
q-71 -96 -71 -231q0 -88 44 -138t126 -50zM758 1126q0 -172 -100 -290t-220 -119q-122 0 -190 74t-68 184q0 174 100 293q100 118 220 118q122 0 190 -74t68 -186zM725 242q0 -88 44 -138t126 -51q82 0 154 95t71 231q0 88 -44 138t-126 50t-154 -95t-71 -230zM892 -25
q-122 0 -190 74t-67 187q0 174 98 292q99 118 221 117q122 0 190 -73t66 -185q0 -174 -98 -293t-220 -119zM233 0h-81l1013 1366h86z" />
    <glyph glyph-name="guilsinglleft" unicode="&#x2039;" horiz-adv-x="483" 
d="M332 129h-99l-174 369l338 362h111l-344 -371z" />
    <glyph glyph-name="guilsinglright" unicode="&#x203a;" horiz-adv-x="483" 
d="M154 860h98l174 -368l-338 -363h-111l347 373z" />
    <glyph glyph-name="fraction" unicode="&#x2044;" horiz-adv-x="243" 
d="M711 1366l-1016 -1366h-84l1016 1366h84z" />
    <glyph glyph-name="fraction" unicode="&#x2215;" horiz-adv-x="243" 
d="M711 1366l-1016 -1366h-84l1016 1366h84z" />
    <glyph glyph-name="zerosuperior" unicode="&#x2070;" 
d="M678 1421q0 197 -141 197q-63 0 -115 -56q-88 -94 -128 -300q-15 -80 -15 -142q0 -197 139 -196q66 0 118 56q85 92 127 300q15 80 15 141zM414 848q-225 0 -226 282q0 169 81 353q40 90 112 150q71 61 171 61t158 -73t58 -229t-81 -333q-40 -91 -113 -151t-160 -60z" />
    <glyph glyph-name="foursuperior" unicode="&#x2074;" 
d="M530 1157l95 422l-351 -422h256zM702 1081h-98l-49 -219h-88l47 219h-342l16 74l433 526h114l-117 -524h101z" />
    <glyph glyph-name="fivesuperior" unicode="&#x2075;" 
d="M608 1150q0 155 -154 155q-74 0 -149 -80l-63 26l96 430h434l-16 -75h-346l-64 -297q62 65 150 65t146 -52t58 -166t-82 -210q-82 -98 -204 -98q-182 0 -246 145l70 47q49 -117 178 -116q84 0 138 72t54 154z" />
    <glyph glyph-name="sixsuperior" unicode="&#x2076;" 
d="M436 924q76 0 128 76t52 154q0 148 -145 146q-96 0 -182 -131q-8 -27 -8 -87t40 -109q39 -49 115 -49zM434 848q-239 0 -239 264q0 124 41 254q41 131 128 229t197 99q72 0 128 -29t83 -80l-61 -55q-41 88 -152 88q-74 0 -133 -67q-93 -106 -123 -281q-4 -12 -4 -19
q90 125 207 125q88 0 146 -52t57 -162q0 -110 -76 -212t-199 -102z" />
    <glyph glyph-name="sevensuperior" unicode="&#x2077;" horiz-adv-x="600" 
d="M764 1620l-455 -758h-96l451 744h-383l16 75h479z" />
    <glyph glyph-name="eightsuperior" unicode="&#x2078;" 
d="M598 1084q0 66 -37 107q-37 42 -88 58q-86 -8 -147 -64q-62 -55 -62 -123t45 -106t114 -36q69 0 122 49t53 115zM678 1490q0 130 -148 130q-70 0 -118 -48t-47 -110q0 -62 43 -98q43 -37 81 -49q76 14 133 60q56 47 56 115zM688 1087q0 -102 -76 -171q-76 -68 -188 -68
t-182 51t-70 144t68 161t166 86q-127 60 -127 168t75 172q76 64 174 64t169 -47t71 -135t-56 -152q-56 -63 -159 -84q55 -26 95 -76t40 -113z" />
    <glyph glyph-name="ninesuperior" unicode="&#x2079;" 
d="M342 1389q0 -77 39 -111t104 -35q98 0 185 131q8 41 8 72q0 76 -40 125t-117 49t-128 -77t-51 -154zM451 1167q-85 1 -143 53t-58 162t75 211q75 103 197 103t181 -70t59 -194t-41 -254q-41 -132 -127 -230t-197 -98q-72 0 -128 29t-83 79l62 56q37 -88 149 -88
q76 0 135 66q94 106 123 282q0 4 1 10t1 8q-90 -125 -206 -125z" />
    <glyph glyph-name="parenleftsuperior" unicode="&#x207d;" horiz-adv-x="276" 
d="M197 1051q0 399 299 764l43 -21q-264 -399 -265 -776q0 -155 33 -268l-51 -21q-59 139 -59 322z" />
    <glyph glyph-name="parenrightsuperior" unicode="&#x207e;" horiz-adv-x="276" 
d="M430 1493q0 -401 -297 -764l-43 21q264 399 264 776q1 155 -32 268l51 21q57 -135 57 -322z" />
    <glyph glyph-name="nsuperior" unicode="&#x207f;" horiz-adv-x="686" 
d="M627 1163q0 92 -105 92q-86 0 -180 -116l-104 -471h-84l141 643h84l-19 -94q88 111 201 110q158 0 158 -129q0 -27 -8 -63l-103 -467h-86l101 456q4 16 4 39z" />
    <glyph glyph-name="zeroinferior" unicode="&#x2080;" 
d="M440 260q0 197 -141 197q-63 -1 -115 -57t-83 -138q-60 -164 -60 -303q0 -197 139 -197q66 0 118 56t82 139q60 164 60 303zM176 -313q-225 0 -225 282q0 173 81 353q40 90 111 150t171 60t158 -72t58 -228q0 -154 -80 -334q-40 -90 -113 -150t-161 -61z" />
    <glyph glyph-name="oneinferior" unicode="&#x2081;" horiz-adv-x="425" 
d="M131 -299h-90l152 692l-152 -131l-45 60l235 198h80z" />
    <glyph glyph-name="twoinferior" unicode="&#x2082;" 
d="M295 457q-113 0 -193 -99l-49 58q100 117 244 116q96 0 166 -50q69 -50 69 -139t-73 -191q-74 -99 -353 -326q-39 -33 -59 -49h367l-17 -76h-487l16 74q317 264 387 334q125 129 127 223q0 61 -42 93t-103 32z" />
    <glyph glyph-name="threeinferior" unicode="&#x2083;" 
d="M453 -70q0 -81 -72 -162t-193 -81q-193 0 -258 147l68 47q55 -119 188 -119q82 0 129 60t47 128t-44 102t-100 34t-68 -2l18 76q20 -2 93 -2t124 47t51 115t-43 102q-43 35 -108 35q-98 0 -189 -95l-45 56q100 115 240 114q104 0 170 -49q65 -49 65 -138t-55 -154
t-145 -76q55 -12 91 -58t36 -127z" />
    <glyph glyph-name="fourinferior" unicode="&#x2084;" 
d="M293 -4l94 422l-350 -422h256zM465 -80h-98l-50 -219h-88l47 219h-342l17 74l432 526h115l-117 -524h100z" />
    <glyph glyph-name="fiveinferior" unicode="&#x2085;" 
d="M258 213q88 -1 146 -53t59 -166q0 -114 -82 -210q-82 -97 -205 -97q-182 0 -246 145l70 47q49 -117 178 -117q84 0 138 73t54 154t-39 117q-40 36 -115 37q-75 0 -148 -80l-64 27l96 430h435l-17 -76h-346l-63 -297q61 66 149 66z" />
    <glyph glyph-name="sixinferior" unicode="&#x2086;" 
d="M379 -7q0 146 -146 146q-96 0 -182 -131q-8 -27 -8 -87t40 -109q40 -50 116 -50t128 77t52 154zM471 0q0 -110 -76 -211q-76 -102 -199 -102q-239 0 -239 262q0 125 41 256t128 229t198 98q72 0 128 -28t83 -80l-62 -55q-41 88 -151 88q-74 0 -134 -67
q-96 -108 -122 -281q-4 -12 -5 -19q90 125 207 125q88 0 146 -52q57 -53 57 -163z" />
    <glyph glyph-name="seveninferior" unicode="&#x2087;" horiz-adv-x="600" 
d="M526 459l-454 -758h-97l451 743h-383l16 76h480z" />
    <glyph glyph-name="eightinferior" unicode="&#x2088;" 
d="M360 -78q0 66 -36 108q-37 42 -88 58q-86 -8 -148 -64t-61 -124q0 -68 45 -105q46 -37 114 -37t121 49t53 115zM440 328q0 130 -150 131q-68 0 -115 -48q-48 -47 -48 -109t43 -99t82 -49q76 14 132 60t56 114zM451 -74q0 -102 -76 -171t-188 -69q-113 0 -183 52
q-70 51 -70 144t68 161t166 86q-127 59 -127 167t76 172t174 64t169 -47q70 -47 70 -135t-56 -151t-159 -84q55 -25 96 -75q40 -51 40 -114z" />
    <glyph glyph-name="nineinferior" unicode="&#x2089;" 
d="M284 459q-76 0 -128 -77t-52 -154q0 -78 39 -112t105 -34q98 0 184 131q8 41 8 72q0 76 -40 125t-116 49zM213 6q-85 0 -143 52t-58 162t75 212t198 102t181 -69q58 -70 58 -194t-41 -255t-127 -229t-196 -98q-72 1 -128 29t-83 79l61 56q37 -88 150 -89q76 0 135 67
q94 106 123 282q0 4 1 10t1 8q-90 -125 -207 -125z" />
    <glyph glyph-name="parenleftinferior" unicode="&#x208d;" horiz-adv-x="276" 
d="M-59 -111q0 399 299 764l43 -20q-264 -399 -265 -776q0 -156 33 -269l-51 -20q-59 139 -59 321z" />
    <glyph glyph-name="parenrightinferior" unicode="&#x208e;" horiz-adv-x="276" 
d="M174 332q0 -401 -297 -764l-43 20q264 399 264 777q1 155 -32 268l51 20q57 -135 57 -321z" />
    <glyph glyph-name="colonmonetary" unicode="&#x20a1;" horiz-adv-x="1042" 
d="M309 180q41 -51 101 -76l536 1088q-45 47 -102 72zM227 486q0 -152 35 -230l506 1026l-39 2q-133 0 -252 -133t-185 -323t-65 -342zM537 -25q-49 0 -101 11l-94 -191h-86l104 213q-53 20 -104 64l-137 -277h-84l166 336q-95 127 -95 305t48 342q104 359 329 524
q121 87 254 87q41 0 80 -7l94 191h86l-104 -213q53 -20 104 -64l138 277h84l-166 -336q45 -57 73 -137l-108 -35q-7 21 -23 53l-510 -1034q18 -4 60 -4q154 0 295 166l86 -58q-170 -213 -389 -213z" />
    <glyph glyph-name="frenchfranc" unicode="&#x20a3;" horiz-adv-x="933" 
d="M188 0h-114l67 307h-149l16 76h150l217 983h667l-20 -102h-555l-113 -512h539l-23 -103h-540l-60 -266h340l-16 -76h-340z" />
    <glyph glyph-name="lira" unicode="&#x20a4;" horiz-adv-x="886" 
d="M565 78q96 0 170 78l29 -90q-92 -92 -211 -93q-82 0 -174 45t-166 45t-188 -77l-27 92q113 51 201 148t114 204h-280l16 76h275q-2 74 -45 160h-193l16 77h140q-43 90 -43 177q0 186 125 326t297 140q119 0 209 -62t110 -167l-102 -41q-14 76 -72 124t-143 48
q-119 0 -210 -106t-91 -269q0 -76 43 -170h303l-19 -77h-248q33 -76 33 -140l-2 -20h182l-16 -76h-178q-27 -90 -88 -169t-129 -122q49 19 97 19t134 -40t131 -40z" />
    <glyph glyph-name="uni20A6" unicode="&#x20a6;" horiz-adv-x="1202" 
d="M440 1137l-59 -260h141zM764 506l84 -260l57 260h-141zM365 801l-50 -221h299l-69 221h-180zM670 801l71 -221h181l49 221h-301zM909 0h-110l-160 506h-340l-111 -506h-114l110 506h-149l18 74h148l49 221h-148l15 76h149l109 489h114l156 -489h342l109 489h114
l-108 -489h143l-14 -76h-146l-49 -221h144l-17 -74h-143z" />
    <glyph glyph-name="peseta" unicode="&#x20a7;" horiz-adv-x="1071" 
d="M905 1040q0 100 -56 162t-144 62h-238l-57 -256h493q2 10 2 32zM590 672q120 2 196 72t105 184h-500l-55 -256h254zM729 1366q129 0 214 -91t85 -228q0 -27 -2 -39h139l-18 -80h-133q-33 -154 -146 -256t-295 -103h-260l-125 -569h-114l205 928h-150l18 80h148l80 358
h354z" />
    <glyph glyph-name="rupee" unicode="&#x20a8;" horiz-adv-x="1679" 
d="M1219 -25q-225 0 -318 154l72 68q35 -57 101 -95t154 -39q89 -1 151 59q63 60 63 128q1 114 -139 195q-57 34 -115 70t-98 91q-41 55 -41 123q0 119 85 202t228 83q94 0 171 -39t116 -101l-68 -67q-27 53 -89 86t-144 33t-138 -50t-57 -114q0 -64 41 -106q41 -44 99 -78
q57 -34 115 -71q140 -92 140 -221q0 -128 -91 -220t-238 -91zM557 672q150 0 235 110t85 260q1 100 -59 160t-144 62h-238l-131 -592h252zM686 1366q129 0 221 -88t92 -229q0 -185 -106 -317t-272 -152l174 -580h-125l-160 569h-227l-125 -569h-115l301 1366h342z" />
    <glyph glyph-name="uni20A9" unicode="&#x20a9;" horiz-adv-x="1449" 
d="M868 1149l-118 -272h114zM1092 506h-136l-2 -322zM489 506h-135l-4 -322zM717 801l-96 -221h241l2 221h-147zM961 801l-3 -221h164l97 221h-258zM358 801l-4 -221h166l96 221h-258zM246 0v506h-191l17 74h174v221h-125l14 76h111v489h121l-9 -489h291l213 489h103
l-4 -489h290l209 489h125l-217 -489h105l-15 -76h-123l-98 -221h170l-16 -74h-187l-221 -506h-127l4 506h-270l-219 -506h-125z" />
    <glyph glyph-name="afii57636" unicode="&#x20aa;" horiz-adv-x="1312" 
d="M598 1126q150 0 240 -66t90 -202q0 -55 -19 -137l-88 -408h-98l94 426q12 61 12 97q0 100 -61 150t-164 50h-244l-227 -1036h-98l248 1126h315zM768 0h-428l178 811h98l-159 -721h309q114 0 178 67t96 214l168 755h99l-166 -747q-43 -191 -129 -285t-244 -94z" />
    <glyph glyph-name="Euro" unicode="&#x20ac;" horiz-adv-x="1101" 
d="M590 -25q-207 0 -325 127t-118 355v39h-96l19 84h84q12 104 43 208h-80l18 84h88q85 224 231 370t324 147q142 0 242 -77t147 -212l-108 -35q-78 219 -289 219q-127 0 -238 -116t-180 -296h473l-20 -84h-483q-35 -117 -46 -208h484l-21 -84h-471v-41q0 -179 84 -277
t236 -98t293 166l86 -58q-170 -213 -377 -213z" />
    <glyph glyph-name="afii61289" unicode="&#x2113;" horiz-adv-x="825" 
d="M815 1159q0 61 -54 103t-126 43q-197 0 -250 -236l-78 -350l301 201q109 76 158 127t49 112zM915 1176q0 -92 -63 -160t-201 -166l-370 -250l-91 -405q-6 -27 -6 -54q0 -76 82 -75q49 0 86 36l25 -77q-51 -49 -129 -49t-124 35q-46 36 -46 104q0 33 6 69l199 891
q33 147 121 230q90 81 216 81t210 -59t85 -151z" />
    <glyph glyph-name="afii61352" unicode="&#x2116;" horiz-adv-x="1845" 
d="M1561 791q102 -1 169 115q66 116 66 216t-41 147q-41 48 -113 48q-104 0 -168 -114t-65 -215q0 -197 152 -197zM1559 717q-113 0 -176 68q-62 69 -62 203t91 270q91 134 233 135q113 0 176 -69t63 -203t-92 -269t-233 -135zM879 0h-111l-358 1137l-252 -1137h-115
l301 1366h115l358 -1120l248 1120h115z" />
    <glyph glyph-name="published" unicode="&#x2117;" horiz-adv-x="1593" 
d="M926 694q96 0 154 54t59 129q-1 75 -53 115t-136 40h-198l-74 -338h248zM961 1098q105 0 175 -58t70 -160q0 -104 -84 -178t-209 -73h-251l-78 -361h-68l182 830h263zM1487 684q1 266 -191 458t-459 191q-267 0 -457 -190q-190 -191 -192 -459q0 -268 190 -458t458 -191
t460 191t191 458zM1544 684q0 -291 -208 -499t-500 -208t-498 207q-207 207 -207 500t207 500t499 207q291 0 499 -208t208 -499z" />
    <glyph glyph-name="servicemark" unicode="&#x2120;" horiz-adv-x="870" 
d="M438 1038q0 -50 -44 -94t-111 -43q-104 0 -150 66l41 43q37 -53 109 -54q37 0 63 25t27 59q0 34 -42 62l-84 60t-42 82t42 93q41 41 121 41t119 -53l-41 -43q-31 45 -96 45q-36 1 -58 -21t-22 -51q0 -47 84 -91t84 -126zM887 915h-58l82 373l-215 -373h-16l-51 373
l-82 -373h-58l99 451h86l41 -324l180 324h90z" />
    <glyph glyph-name="trademark" unicode="&#x2122;" horiz-adv-x="847" 
d="M485 1313h-106l-88 -398h-58l89 398h-107l10 53h271zM868 915h-57l82 373l-215 -373h-16l-52 373l-82 -373h-57l98 451h88l41 -324l181 324h88z" />
    <glyph glyph-name="estimated" unicode="&#x212e;" horiz-adv-x="1724" 
d="M1407 715v391q0 29 -21 49q-200 203 -484 203t-486 -209q-20 -20 -21 -49v-385q0 -12 11 -13h993q8 1 8 13zM403 664q-8 0 -8 -11v-389q0 -31 19 -47q200 -211 500 -211t503 236h117q-111 -129 -277 -204t-356 -75q-330 0 -564 211t-235 508q0 297 234 508t565 211
q330 0 564 -211t235 -508l-2 -18h-1295z" />
    <glyph glyph-name="onethird" unicode="&#x2153;" horiz-adv-x="1390" 
d="M317 547h-90l152 692l-152 -131l-45 59l236 199h80zM1255 229q1 -81 -71 -162t-193 -81q-193 0 -258 147l68 47q55 -119 188 -119q82 1 129 61t47 128t-44 101q-44 34 -100 34t-69 -2l19 76q20 -2 93 -2t124 47q51 46 51 114t-43 103t-109 35q-98 0 -188 -94l-45 55
q100 115 240 114q104 0 170 -49t66 -138t-56 -154q-55 -65 -146 -76q55 -12 91 -58t36 -127zM1206 1366l-1016 -1366h-84l1016 1366h84z" />
    <glyph glyph-name="twothirds" unicode="&#x2154;" horiz-adv-x="1548" 
d="M627 1178q0 61 -42 93t-104 32q-113 0 -192 -99l-49 58q100 117 243 116q96 0 166 -50t70 -139t-62 -174t-205 -210q-143 -124 -219 -182h367l-16 -76h-488l17 74q317 264 387 333q127 127 127 224zM1413 229q0 -81 -72 -162t-192 -81q-193 0 -258 147l67 47
q55 -119 189 -119q82 1 129 61t47 128t-44 101q-45 34 -101 34t-68 -2l18 76q20 -2 94 -2t124 47q51 46 51 114t-43 103t-109 35q-98 0 -188 -94l-45 55q100 115 239 114q104 0 170 -49t66 -138t-55 -154t-146 -76q55 -12 91 -58t36 -127zM1364 1366l-1016 -1366h-84
l1016 1366h84z" />
    <glyph glyph-name="oneeighth" unicode="&#x215b;" horiz-adv-x="1390" 
d="M317 547h-90l152 692l-152 -131l-45 59l236 199h80zM1163 220q0 66 -37 108t-88 59q-86 -8 -147 -64t-61 -124t44 -105q45 -37 114 -37t122 49q53 48 53 114zM1243 628q1 130 -149 130q-68 0 -116 -48t-48 -110t43 -98q43 -37 82 -49q76 14 132 60q56 47 56 115z
M1253 225q1 -102 -75 -171q-76 -68 -188 -68t-182 51t-71 144q0 93 68 161t166 86q-127 60 -127 168t76 172t174 63q98 0 169 -47t71 -135t-57 -151q-56 -63 -159 -84q55 -26 95 -76t40 -113zM1206 1366l-1016 -1366h-84l1016 1366h84z" />
    <glyph glyph-name="threeeighths" unicode="&#x215c;" horiz-adv-x="1548" 
d="M639 776q0 -80 -72 -162t-192 -82q-193 0 -258 148l67 47q55 -119 189 -119q82 0 129 60t47 128t-44 102q-45 34 -101 34t-68 -2l18 76q20 -2 93 -2t124 47t51 115t-42 102q-43 35 -109 35q-98 0 -188 -95l-45 56q100 115 239 114q104 0 170 -49t66 -138q1 -89 -55 -154
t-146 -76q55 -12 91 -58t36 -127zM1321 220q0 66 -37 108t-88 59q-86 -8 -147 -64t-61 -124t44 -105q45 -37 114 -37t122 49q53 48 53 114zM1401 628q0 130 -148 130q-69 0 -117 -48t-48 -110t42 -98q43 -37 82 -49q76 14 133 60q56 47 56 115zM1411 225q0 -102 -76 -171
q-75 -68 -187 -68t-182 51t-71 144q0 93 68 161t165 86q-127 60 -127 168t76 172t174 63q98 0 169 -47t71 -135t-56 -151t-159 -84q55 -26 95 -76t40 -113zM1364 1366l-1016 -1366h-84l1016 1366h84z" />
    <glyph glyph-name="fiveeighths" unicode="&#x215d;" horiz-adv-x="1544" 
d="M557 835q-1 154 -155 154q-74 0 -148 -80l-64 27l97 430h434l-16 -76h-347l-63 -297q61 66 149 66q88 -1 147 -53q58 -52 58 -166t-82 -210q-82 -97 -205 -98q-182 0 -245 146l69 47q49 -117 179 -117q84 0 138 73t54 154zM1319 220q0 66 -37 108t-88 59q-86 -8 -147 -64
t-61 -124t44 -105q45 -37 114 -37t122 49q53 48 53 114zM1399 628q0 130 -148 130q-69 0 -117 -48t-48 -110t42 -98q43 -37 82 -49q76 14 132 60q56 47 57 115zM1409 225q0 -102 -76 -171q-75 -68 -187 -68t-182 51t-71 144q0 93 68 161t165 86q-127 60 -127 168t76 172
t174 63q98 0 169 -47t71 -135t-56 -151t-159 -84q55 -26 95 -76t40 -113zM1360 1366l-1016 -1366h-84l1016 1366h84z" />
    <glyph glyph-name="seveneighths" unicode="&#x215e;" horiz-adv-x="1402" 
d="M713 1305l-455 -758h-96l450 743h-383l17 76h479zM1002 57q68 0 122 49q54 48 54 114t-37 108t-88 59q-85 -8 -147 -64t-62 -124t45 -105t113 -37zM1257 628q0 130 -147 130q-70 0 -118 -48t-48 -110t43 -98q43 -37 82 -49q76 14 132 60q56 47 56 115zM1268 225
q0 -102 -76 -171q-76 -68 -188 -68t-182 51t-70 144t67 161q68 68 166 86q-127 60 -127 168t76 172t174 63q98 0 169 -47t71 -135t-56 -151t-159 -84q55 -26 95 -76t40 -113zM1219 1366l-1016 -1366h-84l1016 1366h84z" />
    <glyph glyph-name="arrowleft" unicode="&#x2190;" horiz-adv-x="1191" 
d="M1143 432h-551l24 -266l-575 420l575 418l-24 -265h551v-307z" />
    <glyph glyph-name="arrowup" unicode="&#x2191;" horiz-adv-x="1191" 
d="M483 35v551l-266 -25l420 576l418 -576l-264 25v-551h-308z" />
    <glyph glyph-name="arrowright" unicode="&#x2192;" horiz-adv-x="1191" 
d="M137 432v307h549l-24 265l575 -418l-575 -420l24 266h-549z" />
    <glyph glyph-name="arrowdown" unicode="&#x2193;" horiz-adv-x="1191" 
d="M791 1137v-551l266 24l-420 -575l-418 575l264 -24v551h308z" />
    <glyph glyph-name="partialdiff" unicode="&#x2202;" horiz-adv-x="962" 
d="M186 337q0 -125 62 -197t164 -72q104 0 188 96t127 226t43 242t-58 192q-58 81 -166 81t-190 -94q-84 -94 -127 -221t-43 -253zM408 -25q-152 -1 -242 99t-90 270q0 240 132 448t320 207q82 0 152 -45t102 -135q-34 143 -106 289t-164 246l92 57q287 -354 287 -682
q0 -176 -53 -345t-165 -289q-113 -120 -265 -120z" />
    <glyph glyph-name="product" unicode="&#x220f;" horiz-adv-x="1087" 
d="M711 -184h-115l319 1448h-409l-320 -1448h-114l321 1448h-170l23 102h977l-23 -102h-170z" />
    <glyph glyph-name="summation" unicode="&#x2211;" horiz-adv-x="903" 
d="M625 600l-516 -682h569l-21 -102h-702l20 104l525 692l-224 652l21 102h702l-22 -102h-580z" />
    <glyph glyph-name="minus" unicode="&#x2212;" horiz-adv-x="892" 
d="M864 643h-774l19 82h774z" />
    <glyph glyph-name="radical" unicode="&#x221a;" horiz-adv-x="1239" 
d="M633 0h-94l-68 678l-311 -94l-6 80l391 116l63 -667l678 1253h88z" />
    <glyph glyph-name="infinity" unicode="&#x221e;" horiz-adv-x="1140" 
d="M328 444q70 0 128 67t117 181q-27 238 -172 238q-98 0 -160 -98q-63 -98 -63 -198q0 -98 40 -144t110 -46zM819 444q99 0 161 98t62 198q0 98 -38 144q-39 46 -105 46q-119 0 -250 -248q27 -238 170 -238zM309 358q-102 0 -161 69q-58 69 -58 179q0 160 89 284t224 124
q89 0 149 -66t79 -168q121 233 280 234q101 0 159 -69t58 -179q0 -160 -88 -284t-223 -124q-88 0 -148 66t-79 168q-125 -234 -281 -234z" />
    <glyph glyph-name="integral" unicode="&#x222b;" horiz-adv-x="579" 
d="M-29 -205h-92l19 86h94q115 0 147 142l293 1323q53 227 256 227h94l-18 -86h-96q-115 0 -148 -141l-293 -1323q-49 -228 -256 -228z" />
    <glyph glyph-name="approxequal" unicode="&#x2248;" horiz-adv-x="892" 
d="M746 971q104 0 182 -45l-21 -92q-74 55 -170 55t-209 -48t-217 -48t-178 43l21 94q140 -110 376 -8q112 48 216 49zM662 575q104 0 178 -43l-21 -94q-139 110 -378 7q-114 -48 -216 -48t-180 45l21 93q144 -107 378 -8q114 48 218 48z" />
    <glyph glyph-name="notequal" unicode="&#x2260;" horiz-adv-x="892" 
d="M164 190h-88l186 252h-217l18 82h261l237 320h-426l19 82h469l186 250h90l-186 -250h215l-19 -82h-258l-239 -320h428l-21 -82h-469z" />
    <glyph glyph-name="lessequal" unicode="&#x2264;" horiz-adv-x="892" 
d="M735 53h-774l16 82h775zM780 264l-688 389l17 74l860 389l-23 -104l-741 -328l596 -326z" />
    <glyph glyph-name="greaterequal" unicode="&#x2265;" horiz-adv-x="892" 
d="M733 53h-774l18 82h775zM866 653l-860 -389l23 105l743 325l-598 328l21 94l688 -389z" />
    <glyph glyph-name="triangleright" unicode="&#x22b2;" horiz-adv-x="1202" 
d="M1247 586l-1095 -633v1266z" />
    <glyph glyph-name="triangleleft" unicode="&#x22b3;" horiz-adv-x="1202" 
d="M1137 1219v-1266l-1096 633z" />
    <glyph glyph-name="uni2318" unicode="&#x2318;" horiz-adv-x="1366" 
d="M1032 543q94 -1 152 -61t59 -156q0 -96 -80 -168t-174 -72t-151 57t-58 144q0 29 6 59l31 129h-280l-41 -178q-23 -95 -93 -153q-71 -58 -159 -58t-148 57q-59 57 -59 149t78 172q78 79 178 79h186l64 280h-135q-92 1 -148 61t-57 156q0 96 79 168t173 72t151 -57
t58 -144q0 -29 -7 -59l-28 -129h280l39 178q23 94 92 153q70 58 160 58t150 -57t59 -151q0 -94 -78 -171q-78 -78 -178 -78h-186l-64 -280h129zM1335 1066q0 66 -39 106t-96 40q-147 0 -184 -159l-35 -162h176q74 0 126 54q52 55 52 121zM854 274q0 -46 39 -84t107 -36
q68 0 122 51q52 51 52 121t-42 110t-108 39h-135l-31 -141q-4 -14 -4 -60zM551 543h280l64 280h-281zM592 1075q0 63 -39 101t-107 36q-68 0 -121 -51t-53 -121t41 -110t109 -39h135l31 141q4 16 4 43zM289 475q-74 0 -126 -54q-52 -55 -52 -121t39 -106q38 -40 104 -40
t113 42t63 117l35 162h-176z" />
    <glyph glyph-name="uni2318" unicode="&#xf8ff;" horiz-adv-x="1366" 
d="M1032 543q94 -1 152 -61t59 -156q0 -96 -80 -168t-174 -72t-151 57t-58 144q0 29 6 59l31 129h-280l-41 -178q-23 -95 -93 -153q-71 -58 -159 -58t-148 57q-59 57 -59 149t78 172q78 79 178 79h186l64 280h-135q-92 1 -148 61t-57 156q0 96 79 168t173 72t151 -57
t58 -144q0 -29 -7 -59l-28 -129h280l39 178q23 94 92 153q70 58 160 58t150 -57t59 -151q0 -94 -78 -171q-78 -78 -178 -78h-186l-64 -280h129zM1335 1066q0 66 -39 106t-96 40q-147 0 -184 -159l-35 -162h176q74 0 126 54q52 55 52 121zM854 274q0 -46 39 -84t107 -36
q68 0 122 51q52 51 52 121t-42 110t-108 39h-135l-31 -141q-4 -14 -4 -60zM551 543h280l64 280h-281zM592 1075q0 63 -39 101t-107 36q-68 0 -121 -51t-53 -121t41 -110t109 -39h135l31 141q4 16 4 43zM289 475q-74 0 -126 -54q-52 -55 -52 -121t39 -106q38 -40 104 -40
t113 42t63 117l35 162h-176z" />
    <glyph glyph-name="blacksquare" unicode="&#x25a0;" horiz-adv-x="1353" 
d="M1307 0h-1170v1171h1170v-1171z" />
    <glyph glyph-name="triagup" unicode="&#x25b2;" horiz-adv-x="1261" 
d="M1305 59l-1268 2l633 1096z" />
    <glyph glyph-name="triagdn" unicode="&#x25bc;" horiz-adv-x="1261" 
d="M1305 1044l-635 -1095l-633 1095h1268z" />
    <glyph glyph-name="lozenge" unicode="&#x25ca;" horiz-adv-x="768" 
d="M291 92l403 600l-137 582l-401 -598zM295 0h-43l-172 684l473 682h43l174 -682z" />
    <glyph glyph-name="circlesolid" unicode="&#x25cf;" horiz-adv-x="1423" 
d="M1360 584q0 -252 -178 -430t-430 -178t-430 178t-179 430q1 252 179 430t430 178t430 -178t178 -430z" />
    <glyph glyph-name="blackstar" unicode="&#x2605;" horiz-adv-x="1554" 
d="M1595 862l-481 -350l184 -563l-481 348l-479 -348l182 563l-479 350h594l182 565l184 -565h594z" />
    <glyph glyph-name="ballotbox" unicode="&#x2610;" horiz-adv-x="1353" 
d="M1212 82v1008h-991v-1008h991zM1303 0h-1170v1171h1170v-1171z" />
    <glyph glyph-name="boxchecked" unicode="&#x2611;" horiz-adv-x="1353" 
d="M1253 82v973l-471 -869l-413 504l67 62l334 -414l404 752h-912v-1008h991zM1343 1171v-1171h-1169v1171h1043l165 308l74 -49l-141 -259h28z" />
    <glyph glyph-name="diamond" unicode="&#x2666;" horiz-adv-x="1026" 
d="M1067 584l-514 -512l-512 512l512 514z" />
    <glyph glyph-name="checkmark" unicode="&#x2713;" horiz-adv-x="1087" 
d="M1128 1430l-673 -1244l-414 504l68 62l333 -414l613 1141z" />
    <glyph glyph-name="perthousand.onum" unicode="&#xf628;" horiz-adv-x="1585" 
d="M1403 293q1 172 -135 172q-70 0 -126 -81t-56 -168q-1 -171 124 -171q80 0 137 81q56 81 56 167zM1485 296q0 -116 -80 -218q-81 -102 -187 -102t-161 58q-55 60 -55 177t79 220q81 103 187 103t162 -60q56 -62 55 -178zM883 293q1 172 -135 172q-70 0 -126 -81t-56 -168
t32 -129t102 -42t126 81t57 167zM967 296q0 -116 -81 -218q-82 -102 -188 -102t-161 58q-55 60 -55 177t79 220q81 103 187 103t162 -60q56 -62 57 -178zM209 833q-1 -169 135 -169q70 0 126 80t56 167q0 170 -125 170q-80 0 -136 -81t-56 -167zM1032 1126l-891 -1126h-82
l887 1126h86zM342 594q-217 0 -217 235q0 117 81 219t186 103q105 0 162 -60q56 -61 56 -177t-81 -218t-187 -102z" />
    <glyph glyph-name="zero.tzero" unicode="&#xf638;" horiz-adv-x="997" 
d="M427 80q130 0 233 157q104 157 154 357t50 371q0 49 -6 94l-616 -856q55 -123 185 -123zM209 435q0 -87 6 -134l616 858q-55 123 -190 123q-94 0 -178 -92t-137 -229t-85 -288t-32 -238zM426 -25q-170 0 -256 127l-74 -102h-98l131 182q-35 98 -35 270t65 392
q65 219 196 381q132 161 296 161t252 -126l76 106h100l-135 -188q35 -98 35 -241t-39 -311q-90 -387 -283 -555q-108 -96 -231 -96z" />
    <glyph glyph-name="zero.tnum" unicode="&#xf639;" horiz-adv-x="980" 
d="M426 80q123 0 226 157q104 157 154 357t50 371q0 317 -223 317q-94 0 -178 -92q-83 -92 -137 -229q-119 -304 -117 -562q0 -319 225 -319zM418 -25q-160 0 -246 114t-86 325t65 430t196 381q132 161 292 161t246 -112t86 -324q0 -322 -146 -638q-68 -146 -176 -242
t-231 -95z" />
    <glyph glyph-name="two.tnum" unicode="&#xf63a;" horiz-adv-x="980" 
d="M852 1079q0 93 -64 149t-163 56q-170 0 -287 -147l-70 73q150 176 361 176q147 0 247 -76q99 -77 99 -208q0 -132 -92 -274q-93 -142 -199 -253t-276 -271t-213 -202h567l-23 -102h-723l27 119q436 404 556 530q120 127 174 208t67 132q12 51 12 90z" />
    <glyph glyph-name="three.tnum" unicode="&#xf63b;" horiz-adv-x="980" 
d="M428 -25q-141 0 -248 75q-106 75 -141 204l96 53q33 -109 111 -168t182 -59q135 0 217 106t82 254q0 100 -68 156t-155 55q-87 0 -107 -2l27 109q16 -2 138 -2t207 92t85 227q0 95 -66 151t-174 56q-156 0 -280 -149l-66 69q64 84 158 134t199 50q156 0 252 -78t96 -224
q0 -144 -95 -257t-229 -133q88 -27 141 -99q52 -73 52 -169q0 -180 -117 -316t-297 -135z" />
    <glyph glyph-name="four.tnum" unicode="&#xf63c;" horiz-adv-x="980" 
d="M614 477l168 752l-589 -752h421zM625 0h-113l82 375h-535l25 110l690 881h152l-197 -889h156l-23 -102h-155z" />
    <glyph glyph-name="five.tnum" unicode="&#xf63d;" horiz-adv-x="980" 
d="M426 -25q-279 0 -371 275l99 53q59 -223 278 -223q127 0 224 132t98 302q0 111 -62 173q-62 63 -178 63q-115 0 -238 -111l-77 45l151 682h645l-22 -102h-531l-114 -514q94 98 233 98t225 -87t86 -239q0 -215 -129 -381t-317 -166z" />
    <glyph glyph-name="six.tnum" unicode="&#xf63e;" horiz-adv-x="980" 
d="M217 367q1 -133 59 -210t184 -77t216 144t90 298q0 98 -60 160t-165 61q-162 0 -312 -217q-12 -78 -12 -159zM440 -25q-166 0 -249 111t-83 319t85 461q45 139 108 254t165 191q102 75 217 75q116 0 198 -57t116 -160l-88 -65q-49 178 -229 178q-86 0 -158 -53t-122 -145
q-110 -203 -150 -435q53 78 142 135q89 58 205 58t201 -81t85 -221q-1 -140 -53 -265q-52 -126 -156 -213t-234 -87z" />
    <glyph glyph-name="seven.tnum" unicode="&#xf63f;" horiz-adv-x="980" 
d="M299 0h-129l713 1264h-580l23 102h712l-18 -78z" />
    <glyph glyph-name="eight.tnum" unicode="&#xf640;" horiz-adv-x="980" 
d="M436 80q110 0 198 89q89 89 89 222q1 98 -63 171t-134 95q-143 -25 -242 -123t-100 -237q0 -105 71 -161t181 -56zM860 1081q0 88 -64 145q-66 56 -172 56t-186 -83t-80 -210q0 -78 58 -144t129 -95q133 26 224 110t91 221zM433 -25q-169 0 -269 77q-100 76 -100 226
t98 267t272 172q-78 41 -135 118t-57 169q0 162 118 272t270 110q150 0 251 -76q100 -78 100 -226t-98 -249t-246 -141q84 -51 143 -133t60 -182q0 -172 -119 -288t-288 -116z" />
    <glyph glyph-name="nine.tnum" unicode="&#xf641;" horiz-adv-x="980" 
d="M601 1284q-126 0 -216 -144t-90 -298q0 -98 60 -160t165 -61q162 0 311 217q13 78 13 185t-58 184t-185 77zM621 1389q167 0 249 -111t82 -319t-84 -461q-45 -139 -108 -254q-62 -115 -164 -191t-218 -76q-116 -1 -198 57t-117 161l89 65q49 -178 229 -178q86 0 158 53
q71 53 121 145q111 207 151 435q-55 -78 -143 -135q-88 -58 -204 -58t-201 81t-85 220t52 265t157 214q105 87 234 87z" />
    <glyph glyph-name="percent.onum" unicode="&#xf642;" horiz-adv-x="1062" 
d="M883 293q1 172 -135 172q-70 0 -126 -81t-56 -168t32 -129t102 -42t126 81t57 167zM967 296q0 -116 -81 -218q-82 -102 -188 -102t-161 58q-55 60 -55 177t79 220q81 103 187 103t162 -60q56 -62 57 -178zM209 833q-1 -169 135 -169q70 0 126 80t56 167q0 170 -125 170
q-80 0 -136 -81t-56 -167zM1032 1126l-891 -1126h-82l889 1126h84zM342 594q-217 0 -217 235q0 117 81 219t186 103q105 0 162 -60q56 -61 56 -177t-81 -218t-187 -102z" />
    <glyph glyph-name="zero.tonum" unicode="&#xf643;" horiz-adv-x="980" 
d="M817 745q0 301 -244 302q-96 0 -175 -79q-127 -127 -187 -411q-23 -104 -23 -176q0 -301 242 -301q96 0 175 79q128 128 190 410q22 104 22 176zM164 80q-92 106 -92 312t119 462q59 125 161 211t228 86q168 1 261 -105t93 -290t-78 -384q-41 -106 -98 -194
q-58 -88 -146 -145t-188 -58q-168 -1 -260 105z" />
    <glyph glyph-name="one.tonum" unicode="&#xf644;" horiz-adv-x="980" 
d="M543 0h-113l213 973l-262 -232l-55 76l362 309h103z" />
    <glyph glyph-name="two.tonum" unicode="&#xf645;" horiz-adv-x="980" 
d="M580 1151q152 0 244 -79t94 -218q0 -176 -174 -358t-504 -394h495l-22 -102h-684l20 98q387 236 567 409t181 333q-1 96 -63 152t-161 57q-172 0 -305 -166l-69 69q162 199 381 199z" />
    <glyph glyph-name="three.tonum" unicode="&#xf646;" horiz-adv-x="980" 
d="M375 -272q-141 0 -248 74q-106 75 -141 204l96 53q33 -109 111 -168t182 -59q135 0 217 106t82 255q0 100 -68 155t-155 55t-107 -2l27 109q16 -2 138 -2t207 92t85 227q0 95 -66 151t-174 56q-156 0 -280 -149l-66 69q63 84 157 134t199 51q156 0 252 -79
q97 -79 97 -223t-96 -257t-228 -134q88 -28 140 -100t52 -168q0 -180 -116 -315t-297 -135z" />
    <glyph glyph-name="four.tonum" unicode="&#xf647;" horiz-adv-x="980" 
d="M563 240l166 753l-592 -753h426zM811 137h-156l-84 -377h-112l82 377h-533l23 107l694 882h147l-196 -886h155z" />
    <glyph glyph-name="five.tonum" unicode="&#xf648;" horiz-adv-x="980" 
d="M373 -264q-279 0 -371 274l98 53q59 -223 279 -223q127 0 224 132t97 302q0 111 -62 173q-62 63 -177 63t-238 -111l-78 45l152 682h645l-22 -102h-531l-115 -514q94 98 234 98t225 -87q86 -87 86 -238q0 -215 -129 -381t-317 -166z" />
    <glyph glyph-name="six.tonum" unicode="&#xf649;" horiz-adv-x="980" 
d="M217 367q1 -133 59 -210t184 -77t216 144t90 298q0 98 -60 160t-165 61q-162 0 -312 -217q-12 -78 -12 -159zM440 -25q-166 0 -249 111t-83 319t85 461q45 139 108 254t165 191q102 75 217 75q116 0 198 -57t116 -160l-88 -65q-49 178 -229 178q-86 0 -158 -53t-122 -145
q-110 -203 -150 -435q53 78 142 135q89 58 205 58t201 -81t85 -221q-1 -140 -53 -265q-52 -126 -156 -213t-234 -87z" />
    <glyph glyph-name="seven.tonum" unicode="&#xf64a;" horiz-adv-x="980" 
d="M246 -240h-129l712 1264h-579l22 102h713l-18 -77z" />
    <glyph glyph-name="eight.tonum" unicode="&#xf64b;" horiz-adv-x="980" 
d="M436 80q110 0 198 89q89 89 89 222q1 98 -63 171t-134 95q-143 -25 -242 -123t-100 -237q0 -105 71 -161t181 -56zM860 1081q0 88 -64 145q-66 56 -172 56t-186 -83t-80 -210q0 -78 58 -144t129 -95q133 26 224 110t91 221zM433 -25q-169 0 -269 77q-100 76 -100 226
t98 267t272 172q-78 41 -135 118t-57 169q0 162 118 272t270 110q150 0 251 -76q100 -78 100 -226t-98 -249t-246 -141q84 -51 143 -133t60 -182q0 -172 -119 -288t-288 -116z" />
    <glyph glyph-name="nine.tonum" unicode="&#xf64c;" horiz-adv-x="980" 
d="M548 1044q-126 0 -216 -144t-90 -298q0 -98 60 -160t165 -61q162 0 311 217q12 78 12 186t-58 184t-184 76zM567 1149q166 0 249 -111t83 -319t-84 -461q-45 -139 -108 -254q-63 -114 -165 -190t-217 -76q-116 0 -198 57t-117 160l88 65q49 -178 230 -178q86 0 158 54
t121 145q111 204 151 434q-56 -78 -144 -135t-184 -57q-135 0 -220 81t-85 220t52 265q53 126 157 213t233 87z" />
    <glyph glyph-name="colonmonetary.onum" unicode="&#xf64d;" horiz-adv-x="942" 
d="M270 166q31 -37 72 -60l442 895q-39 29 -82 41zM201 397q0 -98 30 -166l408 822h-4q-178 0 -306 -196t-128 -460zM86 407q0 187 70 359t197 278q128 106 284 107q16 0 49 -4l39 80h70l-47 -92q45 -14 83 -39l66 131h72l-86 -174q51 -47 80 -123l-97 -37q-8 23 -32 59
l-431 -870q33 -8 80 -8q152 0 258 147l82 -51q-152 -195 -344 -195q-61 0 -121 17l-49 -101h-71l59 121q-45 18 -78 49l-84 -170h-72l109 220q-86 109 -86 296z" />
    <glyph glyph-name="Euro.onum" unicode="&#xf64e;" horiz-adv-x="976" 
d="M238 397q0 -155 78 -239t216 -84q140 0 246 147l82 -51q-152 -195 -337 -195t-293 110t-107 310v2h-92l14 74h80q10 94 31 182h-70l16 74h76q68 188 200 306t296 118q115 0 202 -60t123 -161l-96 -37q-29 74 -91 117t-140 43q-117 0 -215 -89t-158 -237h395l-16 -74h-406
q-23 -80 -32 -182h397l-16 -74h-383z" />
    <glyph glyph-name="florin.onum" unicode="&#xf64f;" horiz-adv-x="673" 
d="M4 451v86h115l76 344q61 268 243 268q90 0 146 -57l-58 -80q-22 35 -76 35t-88 -43t-53 -134l-73 -333h194v-86h-215l-154 -695h-114l151 695h-94z" />
    <glyph glyph-name="numbersign.onum" unicode="&#xf650;" horiz-adv-x="866" 
d="M610 725h-170l-157 -315h170zM889 799l-35 -74h-156l-155 -315h155l-39 -76h-157l-166 -334h-90l168 334h-172l-166 -334h-90l168 334h-150l39 76h152l157 315h-151l35 74h153l166 327h90l-168 -327h172l166 327h88l-166 -327h152z" />
    <glyph glyph-name="sterling.onum" unicode="&#xf651;" horiz-adv-x="731" 
d="M487 1149q99 0 175 -54t94 -143l-92 -32q-14 70 -62 108t-117 37q-100 0 -168 -87t-67 -212q0 -81 26 -148t29 -81h213l-18 -78h-174q4 -37 4 -56q0 -87 -50 -165t-112 -119q24 10 62 10t108 -29t104 -28q78 0 133 63l37 -78q-78 -78 -184 -77q-63 0 -141 32t-134 33
q-56 0 -153 -61l-25 82q109 49 182 138t72 187q0 23 -8 68h-194l18 78h152q-53 141 -54 217q-1 168 99 282t245 113z" />
    <glyph glyph-name="yen.onum" unicode="&#xf652;" horiz-adv-x="866" 
d="M379 0h-109l52 238h-340l16 77h340l37 164h-340l18 80h293l-196 567h122l181 -536l411 536h127l-444 -567h291l-19 -80h-334l-36 -164h333l-16 -77h-336z" />
    <glyph glyph-name="cent.onum" unicode="&#xf654;" horiz-adv-x="942" 
d="M201 416q0 -283 202 -334l215 969q-114 -5 -210 -97t-152 -240q-56 -150 -55 -298zM479 -25h-12l-37 -172h-88l39 183q-137 29 -216 134q-79 106 -79 290t70 356t197 278q128 106 284 107h4l25 113h90l-29 -125q82 -19 144 -75t92 -134l-97 -37q-47 115 -159 149
l-218 -968q143 2 252 147l82 -51q-151 -195 -344 -195z" />
    <glyph glyph-name="zero.dnom" unicode="&#xf655;" 
d="M506 559q0 197 -141 197q-63 0 -115 -56t-83 -139q-59 -160 -61 -303q0 -197 140 -197q66 1 118 57q87 95 126 300q16 80 16 141zM242 -14q-225 0 -226 282q0 169 81 353q40 90 112 150q71 60 171 60q100 -1 158 -73t58 -225t-81 -336q-40 -91 -113 -151t-160 -60z" />
    <glyph glyph-name="one.dnom" unicode="&#xf656;" horiz-adv-x="425" 
d="M197 0h-91l152 692l-152 -131l-45 60l236 198h80z" />
    <glyph glyph-name="two.dnom" unicode="&#xf657;" 
d="M360 756q-113 0 -192 -99l-49 58q100 117 243 116q96 0 166 -50t70 -138t-79 -197t-406 -370h366l-16 -76h-488l17 74q317 264 387 334q125 129 127 223q0 61 -42 93t-104 32z" />
    <glyph glyph-name="three.dnom" unicode="&#xf658;" 
d="M518 229q0 -81 -72 -162t-192 -81q-193 0 -258 147l67 47q55 -119 189 -119q82 1 129 61t47 128t-44 101q-44 34 -100 34t-69 -2l18 76q19 -2 93 -2t125 47q51 46 51 114t-43 103t-109 35q-98 0 -188 -94l-45 55q100 115 239 114q104 0 170 -49t66 -138t-55 -154
t-146 -76q55 -12 91 -58t36 -127z" />
    <glyph glyph-name="four.dnom" unicode="&#xf659;" 
d="M358 295l95 422l-351 -422h256zM530 219h-98l-49 -219h-88l47 219h-342l16 74l433 526h114l-117 -524h101z" />
    <glyph glyph-name="five.dnom" unicode="&#xf65a;" 
d="M324 512q88 0 146 -52t58 -166t-82 -211t-204 -97q-182 0 -246 145l70 47q49 -117 178 -117q84 0 138 73t54 154t-40 118t-101 36q-88 0 -162 -80l-63 27l96 430h434l-16 -76h-346l-64 -297q62 66 150 66z" />
    <glyph glyph-name="six.dnom" unicode="&#xf65b;" 
d="M444 292q0 146 -145 146q-96 0 -182 -131q-8 -27 -8 -87q-1 -60 39 -109t116 -49t128 76q52 77 52 154zM334 514q88 0 146 -52t57 -162q0 -110 -76 -212t-199 -102q-239 0 -239 262q0 125 40 256q41 131 128 229t198 98q72 -1 128 -29t83 -79l-61 -55q-41 88 -152 88
q-74 0 -133 -67q-93 -106 -123 -281q-4 -12 -4 -19q90 125 207 125z" />
    <glyph glyph-name="seven.dnom" unicode="&#xf65c;" horiz-adv-x="600" 
d="M592 758l-455 -758h-96l451 743h-383l16 76h479z" />
    <glyph glyph-name="eight.dnom" unicode="&#xf65d;" 
d="M426 220q0 66 -37 108t-88 59q-86 -8 -147 -64q-62 -56 -62 -124t45 -105t114 -37t122 49q53 48 53 114zM506 628q0 130 -148 130q-70 0 -118 -48t-47 -110q0 -62 43 -98q43 -37 81 -49q76 14 133 60q56 47 56 115zM516 225q0 -102 -76 -171q-76 -68 -188 -68t-182 51
t-70 144t68 161t165 86q-127 60 -127 168t76 172t174 63q98 0 169 -47t71 -135t-56 -151t-159 -84q55 -26 95 -76t40 -113z" />
    <glyph glyph-name="nine.dnom" unicode="&#xf65e;" 
d="M170 527q0 -77 39 -111t104 -35q98 0 185 131q8 41 8 72q0 76 -40 125t-117 49t-128 -77t-51 -154zM78 520q0 110 75 211q75 103 197 103t181 -70t59 -194t-41 -255t-127 -229t-197 -98q-72 0 -128 28t-83 80l62 56q37 -88 149 -89q76 0 135 67q94 106 123 282q0 4 1 10
t1 8q-90 -125 -206 -125q-86 0 -144 52q-57 53 -57 163z" />
    <glyph glyph-name="zero.numr" unicode="&#xf661;" 
d="M627 1106q0 197 -142 197q-63 -1 -115 -57t-82 -138q-59 -160 -61 -303q0 -197 140 -197q65 0 117 56q88 97 127 301q16 80 16 141zM137 815q0 170 81 352q40 91 112 151t171 60t157 -72t59 -226q0 -153 -81 -337q-40 -90 -113 -150t-161 -61q-225 0 -225 283z" />
    <glyph glyph-name="one.numr" unicode="&#xf662;" horiz-adv-x="425" 
d="M317 547h-90l152 692l-152 -131l-45 59l236 199h80z" />
    <glyph glyph-name="two.numr" unicode="&#xf663;" 
d="M627 1178q0 61 -42 93t-104 32q-113 0 -192 -99l-49 58q100 117 243 116q96 0 166 -50t70 -139t-62 -174t-205 -210q-143 -124 -219 -182h367l-16 -76h-488l17 74q317 264 387 333q127 127 127 224z" />
    <glyph glyph-name="three.numr" unicode="&#xf664;" 
d="M639 776q0 -80 -72 -162t-192 -82q-193 0 -258 148l67 47q55 -119 189 -119q82 0 129 60t47 128t-44 102q-45 34 -101 34t-68 -2l18 76q20 -2 93 -2t124 47t51 115t-42 102q-43 35 -109 35q-98 0 -188 -95l-45 56q100 115 239 114q104 0 170 -49t66 -138q1 -89 -55 -154
t-146 -76q55 -12 91 -58t36 -127z" />
    <glyph glyph-name="four.numr" unicode="&#xf665;" 
d="M479 842l94 422l-350 -422h256zM651 766h-98l-49 -219h-88l47 219h-342l16 74l432 526h115l-117 -524h101z" />
    <glyph glyph-name="five.numr" unicode="&#xf666;" 
d="M557 835q-1 154 -155 154q-74 0 -148 -80l-64 27l97 430h434l-16 -76h-347l-63 -297q61 66 149 66q88 -1 147 -53q58 -52 58 -166t-82 -210q-82 -97 -205 -98q-182 0 -245 146l69 47q49 -117 179 -117q84 0 138 73t54 154z" />
    <glyph glyph-name="six.numr" unicode="&#xf667;" 
d="M565 839q0 146 -145 146q-96 0 -182 -131q-8 -28 -8 -88t39 -109q40 -49 116 -49t128 77t52 154zM455 1061q88 -1 145 -53t57 -162q1 -110 -75 -211q-76 -103 -199 -103q-238 -1 -240 263q0 125 41 256t128 229t198 98q72 0 128 -28t83 -80l-62 -56q-41 88 -151 89
q-74 0 -133 -67q-94 -106 -123 -282q-4 -12 -4 -18q90 125 207 125z" />
    <glyph glyph-name="seven.numr" unicode="&#xf668;" horiz-adv-x="600" 
d="M713 1305l-455 -758h-96l450 743h-383l17 76h479z" />
    <glyph glyph-name="eight.numr" unicode="&#xf669;" 
d="M547 768q0 66 -37 108t-88 58q-86 -8 -148 -64t-61 -124q0 -68 45 -105t114 -37t122 49t53 115zM627 1174q0 130 -148 131q-70 -1 -118 -49t-48 -109t43 -98t82 -50q76 15 132 61t57 114zM637 772q0 -102 -76 -171q-75 -69 -187 -69t-183 52t-71 144q0 93 68 161t166 86
q-127 59 -127 167t76 172t174 64t169 -47t71 -135q-1 -88 -57 -152t-158 -83q55 -25 95 -75t40 -114z" />
    <glyph glyph-name="nine.numr" unicode="&#xf66a;" 
d="M291 1074q0 -78 39 -112t104 -34q98 0 184 131q8 41 9 71q0 76 -40 125t-117 49t-128 -76q-51 -77 -51 -154zM399 852q-86 0 -143 52t-57 162t74 212q75 102 198 102q238 0 240 -262q0 -125 -41 -256t-127 -229t-197 -98q-72 1 -128 29t-83 79l62 55q37 -88 149 -88
q76 0 135 67q93 106 123 281q0 4 1 10t1 9q-90 -125 -207 -125z" />
    <glyph glyph-name="Abreve.smcp" unicode="&#xf66d;" horiz-adv-x="874" 
d="M602 1241q-90 0 -161 40t-105 112l63 49q61 -125 217 -125t265 125l53 -49q-141 -152 -332 -152zM600 373l-51 620l-330 -620h381zM512 1126h125l106 -1126h-114l-25 274h-430l-143 -274h-121z" />
    <glyph glyph-name="Amacron.smcp" unicode="&#xf66e;" horiz-adv-x="874" 
d="M922 1290h-621l16 76h621zM600 373l-51 620l-330 -620h381zM512 1126h125l106 -1126h-114l-25 274h-430l-143 -274h-121z" />
    <glyph glyph-name="Aogonek.smcp" unicode="&#xf66f;" horiz-adv-x="874" 
d="M600 373l-51 620l-330 -620h381zM604 -381q-63 0 -100 34t-37 95q0 143 162 254l-25 272h-430l-143 -274h-121l602 1126h125l106 -1126q-205 -104 -204 -242q0 -72 75 -71q63 0 101 80l53 -39q-59 -109 -164 -109z" />
    <glyph glyph-name="AEacute.smcp" unicode="&#xf670;" horiz-adv-x="1290" 
d="M578 373l139 622l-438 -622h299zM1081 0h-583l59 274h-342l-190 -274h-123l800 1126h627l-20 -96h-475l-91 -403h463l-20 -97h-463l-96 -434h475zM1133 1536l-342 -295h-84l303 295h123z" />
    <glyph glyph-name="Cacute.smcp" unicode="&#xf671;" horiz-adv-x="942" 
d="M1024 1536l-342 -295h-84l303 295h123zM486 -25q-186 0 -292 110q-108 109 -108 309t70 372t197 278q128 106 284 107q115 0 202 -60t124 -161l-97 -37q-29 74 -91 117t-140 43q-178 0 -306 -196t-128 -460q0 -155 78 -239t204 -84q152 0 258 147l82 -51
q-151 -195 -337 -195z" />
    <glyph glyph-name="Ccaron.smcp" unicode="&#xf672;" horiz-adv-x="942" 
d="M768 1241h-106l-109 295h70l102 -229l199 229h77zM486 -25q-186 0 -292 110q-108 109 -108 309t70 372t197 278q128 106 284 107q115 0 202 -60t124 -161l-97 -37q-29 74 -91 117t-140 43q-178 0 -306 -196t-128 -460q0 -155 78 -239t204 -84q152 0 258 147l82 -51
q-151 -195 -337 -195z" />
    <glyph glyph-name="Ccircumflex.smcp" unicode="&#xf673;" horiz-adv-x="942" 
d="M936 1241h-70l-104 229l-197 -229h-78l234 295h106zM486 -25q-186 0 -292 110q-108 109 -108 309t70 372t197 278q128 106 284 107q115 0 202 -60t124 -161l-97 -37q-29 74 -91 117t-140 43q-178 0 -306 -196t-128 -460q0 -155 78 -239t204 -84q152 0 258 147l82 -51
q-151 -195 -337 -195z" />
    <glyph glyph-name="Cdotaccent.smcp" unicode="&#xf674;" horiz-adv-x="942" 
d="M819 1383q1 -31 -25 -57t-58 -26t-51 20t-19 53q0 32 25 57q26 24 58 24t51 -20t19 -51zM486 -25q-186 0 -292 110q-108 109 -108 309t70 372t197 278q128 106 284 107q115 0 202 -60t124 -161l-97 -37q-29 74 -91 117t-140 43q-178 0 -306 -196t-128 -460
q0 -155 78 -239t204 -84q152 0 258 147l82 -51q-151 -195 -337 -195z" />
    <glyph glyph-name="Dcaron.smcp" unicode="&#xf675;" horiz-adv-x="1005" 
d="M702 1241h-106l-109 295h70l102 -229l199 229h78zM352 96q135 0 241 91q105 91 159 229t53 291q0 155 -83 239t-230 84h-142l-207 -934h209zM334 0h-320l248 1126h244q188 0 302 -110t114 -299q0 -188 -65 -347q-65 -158 -202 -264t-321 -106z" />
    <glyph glyph-name="Dcroat.smcp" unicode="&#xf676;" horiz-adv-x="1048" 
d="M397 96q135 0 241 91q104 91 158 229t54 291q0 155 -83 239t-230 84h-142l-92 -414h219l-18 -84h-219l-97 -436h209zM379 0h-320l117 532h-133l18 84h134l112 510h244q188 0 302 -110t114 -299q0 -188 -65 -347q-65 -158 -202 -264t-321 -106z" />
    <glyph glyph-name="Ebreve.smcp" unicode="&#xf677;" horiz-adv-x="827" 
d="M602 1241q-90 0 -161 40t-105 112l63 49q61 -125 217 -125t265 125l53 -49q-141 -152 -332 -152zM618 0h-583l248 1126h583l-20 -96h-475l-90 -403h462l-20 -97h-463l-96 -434h475z" />
    <glyph glyph-name="Ecaron.smcp" unicode="&#xf678;" horiz-adv-x="827" 
d="M657 1241h-106l-109 295h70l102 -229l199 229h78zM618 0h-583l248 1126h583l-20 -96h-475l-90 -403h462l-20 -97h-463l-96 -434h475z" />
    <glyph glyph-name="Edotaccent.smcp" unicode="&#xf679;" horiz-adv-x="827" 
d="M715 1383q0 -31 -26 -57q-25 -26 -57 -26t-51 20t-19 53q0 32 25 57q25 24 57 24t52 -20t19 -51zM618 0h-583l248 1126h583l-20 -96h-475l-90 -403h462l-20 -97h-463l-96 -434h475z" />
    <glyph glyph-name="Emacron.smcp" unicode="&#xf67a;" horiz-adv-x="827" 
d="M922 1290h-621l16 76h621zM618 0h-583l248 1126h583l-20 -96h-475l-90 -403h462l-20 -97h-463l-96 -434h475z" />
    <glyph glyph-name="Eng.smcp" unicode="&#xf67b;" horiz-adv-x="1017" 
d="M416 -401q-184 0 -258 129l73 69q51 -104 179 -104q176 0 219 205l20 96l-301 936l-205 -930h-108l248 1126h114l303 -913l201 913h109l-271 -1235q-65 -292 -323 -292z" />
    <glyph glyph-name="Eogonek.smcp" unicode="&#xf67c;" horiz-adv-x="827" 
d="M479 -381q-63 0 -100 34t-37 95q0 139 158 252h-465l248 1126h583l-20 -96h-475l-90 -403h462l-20 -97h-463l-96 -434h475l-21 -96q-205 -104 -204 -242q0 -72 75 -71q64 0 101 80l53 -39q-59 -109 -164 -109z" />
    <glyph glyph-name="Gbreve.smcp" unicode="&#xf67d;" horiz-adv-x="1009" 
d="M711 1241q-90 0 -161 40t-106 112l64 49q61 -125 217 -125t264 125l53 -49q-141 -152 -331 -152zM482 -25q-180 0 -288 111t-108 303q0 322 162 542t387 220q117 0 204 -60t130 -159l-95 -39q-31 70 -95 115q-65 45 -146 45q-172 0 -302 -193t-130 -469q0 -151 79 -235
q78 -84 208 -84t217 78l71 321h-268l20 94h375l-104 -469q-138 -121 -317 -121z" />
    <glyph glyph-name="Gcircumflex.smcp" unicode="&#xf67e;" horiz-adv-x="1009" 
d="M936 1241h-70l-104 229l-197 -229h-78l234 295h106zM482 -25q-180 0 -288 111t-108 303q0 322 162 542t387 220q117 0 204 -60t130 -159l-95 -39q-31 70 -95 115q-65 45 -146 45q-172 0 -302 -193t-130 -469q0 -151 79 -235q78 -84 208 -84t217 78l71 321h-268l20 94h375
l-104 -469q-138 -121 -317 -121z" />
    <glyph glyph-name="Gcommaaccent.smcp" unicode="&#xf67f;" horiz-adv-x="1009" 
d="M475 -250q0 -78 -59 -158t-137 -120l-43 47q53 29 95 75t54 91h-12q-27 0 -45 19t-18 52t25 59q27 25 61 25t57 -23q22 -24 22 -67zM482 -25q-180 0 -288 111t-108 303q0 322 162 542t387 220q117 0 204 -60t130 -159l-95 -39q-31 70 -95 115q-65 45 -146 45
q-172 0 -302 -193t-130 -469q0 -151 79 -235q78 -84 208 -84t217 78l71 321h-268l20 94h375l-104 -469q-138 -121 -317 -121z" />
    <glyph glyph-name="Gdotaccent.smcp" unicode="&#xf680;" horiz-adv-x="1009" 
d="M819 1383q1 -31 -25 -57t-58 -26t-51 20t-19 53q0 32 25 57q26 24 58 24t51 -20t19 -51zM482 -25q-180 0 -288 111t-108 303q0 322 162 542t387 220q117 0 204 -60t130 -159l-95 -39q-31 70 -95 115q-65 45 -146 45q-172 0 -302 -193t-130 -469q0 -151 79 -235
q78 -84 208 -84t217 78l71 321h-268l20 94h375l-104 -469q-138 -121 -317 -121z" />
    <glyph glyph-name="Hcircumflex.smcp" unicode="&#xf681;" horiz-adv-x="1024" 
d="M897 1241h-70l-104 229l-197 -229h-77l233 295h106zM768 0h-109l117 530h-516l-117 -530h-108l248 1126h108l-110 -497h516l110 497h109z" />
    <glyph glyph-name="Hbar.smcp" unicode="&#xf682;" horiz-adv-x="1093" 
d="M315 629h516l48 213h-517zM803 0h-109l117 530h-516l-117 -530h-108l184 842h-143l16 76h143l47 208h109l-47 -208h516l47 208h109l-47 -208h143l-17 -76h-143z" />
    <glyph glyph-name="Ibreve.smcp" unicode="&#xf683;" horiz-adv-x="397" 
d="M360 1241q-90 0 -160 40t-106 112l64 49q61 -125 217 -125t264 125l53 -49q-141 -152 -332 -152zM143 0h-108l248 1126h108z" />
    <glyph glyph-name="IJ.smcp" unicode="&#xf684;" horiz-adv-x="1103" 
d="M588 -25q-188 0 -260 129l73 72q55 -102 179 -102q176 0 221 205l188 847h109l-189 -854q-63 -297 -321 -297zM143 0h-108l248 1126h108z" />
    <glyph glyph-name="Imacron.smcp" unicode="&#xf685;" horiz-adv-x="397" 
d="M686 1290h-620l16 76h620zM143 0h-108l248 1126h108z" />
    <glyph glyph-name="Iogonek.smcp" unicode="&#xf686;" horiz-adv-x="397" 
d="M4 -381q-63 0 -100 34t-37 95q0 145 170 258l246 1120h108l-248 -1126q-205 -104 -204 -242q0 -72 75 -71q64 0 101 80l53 -39q-59 -109 -164 -109z" />
    <glyph glyph-name="Itilde.smcp" unicode="&#xf687;" horiz-adv-x="397" 
d="M477 1214q-47 0 -74 33t-33 73q-19 107 -79 105q-82 0 -125 -198h-70q59 274 209 274q47 0 74 -33q27 -32 34 -72q19 -106 76 -106q82 0 129 199h70q-59 -275 -211 -275zM143 0h-108l248 1126h108z" />
    <glyph glyph-name="Jcircumflex.smcp" unicode="&#xf688;" horiz-adv-x="706" 
d="M895 1241h-70l-104 229l-197 -229h-78l234 295h106zM188 -25q-188 0 -260 129l74 72q55 -102 178 -102q176 0 221 205l189 847h108l-188 -854q-64 -297 -322 -297z" />
    <glyph glyph-name="Kcommaaccent.smcp" unicode="&#xf689;" horiz-adv-x="890" 
d="M383 -250q0 -78 -59 -158t-138 -120l-43 47q53 29 96 74q42 46 54 92h-12q-27 0 -45 19t-18 52t25 59q27 25 61 25t56 -24t23 -66zM748 0h-130l-262 514l-129 -135l-84 -379h-108l248 1126h108l-129 -587l563 587h136l-523 -536z" />
    <glyph glyph-name="Lacute.smcp" unicode="&#xf68a;" horiz-adv-x="755" 
d="M905 1536l-342 -295h-84l303 295h123zM582 0h-547l248 1126h108l-227 -1030h438z" />
    <glyph glyph-name="Lcaron.smcp" unicode="&#xf68b;" horiz-adv-x="759" 
d="M680 1057q0 -78 -59 -158t-138 -121l-43 47q53 29 96 75q42 46 54 91h-12q-28 -1 -46 19t-18 53t26 59t60 25q34 1 58 -23q22 -24 22 -67zM582 0h-547l248 1126h108l-227 -1030h438z" />
    <glyph glyph-name="Lcommaaccent.smcp" unicode="&#xf68c;" horiz-adv-x="755" 
d="M338 -250q0 -78 -59 -158t-138 -120l-43 47q53 29 96 74q42 46 54 92h-12q-27 0 -46 19q-18 19 -18 52t26 59q26 25 60 25t58 -24q22 -24 22 -66zM582 0h-547l248 1126h108l-227 -1030h438z" />
    <glyph glyph-name="Ldot.smcp" unicode="&#xf68d;" horiz-adv-x="802" 
d="M622 504q-36 0 -60 22t-24 60q0 36 28 64t65 28t61 -24t23 -60q0 -36 -28 -62q-28 -28 -65 -28zM582 0h-547l248 1126h108l-227 -1030h438z" />
    <glyph glyph-name="Nacute.smcp" unicode="&#xf68e;" horiz-adv-x="1017" 
d="M985 1536l-342 -295h-84l303 295h123zM762 0h-111l-303 930l-205 -930h-108l248 1126h114l303 -913l201 913h109z" />
    <glyph glyph-name="Ncaron.smcp" unicode="&#xf68f;" horiz-adv-x="1017" 
d="M729 1241h-106l-109 295h70l102 -229l199 229h78zM762 0h-111l-303 930l-205 -930h-108l248 1126h114l303 -913l201 913h109z" />
    <glyph glyph-name="Ncommaaccent.smcp" unicode="&#xf690;" horiz-adv-x="1017" 
d="M432 -250q0 -78 -59 -158t-137 -120l-43 47q53 29 95 75t54 91h-12q-27 0 -45 19q-19 19 -19 52t26 59q26 25 60 25t58 -23q22 -24 22 -67zM762 0h-111l-303 930l-205 -930h-108l248 1126h114l303 -913l201 913h109z" />
    <glyph glyph-name="Obreve.smcp" unicode="&#xf691;" horiz-adv-x="1069" 
d="M698 1241q-90 0 -160 40t-106 112l64 49q61 -125 217 -125t264 125l53 -49q-141 -152 -332 -152zM471 74q172 0 297 205t125 454q0 147 -71 233q-70 86 -192 87q-122 -1 -221 -99t-155 -250t-55 -304q1 -154 71 -240t201 -86zM469 -25q-178 0 -281 113q-102 113 -102 305
q0 303 161 531t378 227q178 0 279 -113t102 -305q0 -303 -161 -531t-376 -227z" />
    <glyph glyph-name="Ohungarumlaut.smcp" unicode="&#xf692;" horiz-adv-x="1069" 
d="M1100 1536l-262 -295h-72l223 295h111zM844 1536l-262 -295h-72l223 295h111zM471 74q172 0 297 205t125 454q0 147 -71 233q-70 86 -192 87q-122 -1 -221 -99t-155 -250t-55 -304q1 -154 71 -240t201 -86zM469 -25q-178 0 -281 113q-102 113 -102 305q0 303 161 531
t378 227q178 0 279 -113t102 -305q0 -303 -161 -531t-376 -227z" />
    <glyph glyph-name="Omacron.smcp" unicode="&#xf693;" horiz-adv-x="1069" 
d="M1018 1298h-621l17 76h620zM471 74q172 0 297 205t125 454q0 147 -71 233q-70 86 -192 87q-122 -1 -221 -99t-155 -250t-55 -304q1 -154 71 -240t201 -86zM469 -25q-178 0 -281 113q-102 113 -102 305q0 303 161 531t378 227q178 0 279 -113t102 -305q0 -303 -161 -531
t-376 -227z" />
    <glyph glyph-name="Oslashacute.smcp" unicode="&#xf694;" horiz-adv-x="1069" 
d="M1016 1536l-342 -295h-84l303 295h123zM471 74q172 0 297 205t125 454q0 96 -31 168l-592 -743q72 -84 201 -84zM630 1053q-122 -1 -221 -99t-155 -250t-55 -280q0 -129 30 -201l592 744q-69 86 -191 86zM469 -25q-166 0 -266 97l-58 -72h-94l103 129q-68 104 -68 264
q0 303 161 531t378 227q166 0 264 -98l59 73h92l-104 -131q70 -104 70 -262q0 -303 -161 -531t-376 -227z" />
    <glyph glyph-name="Racute.smcp" unicode="&#xf695;" horiz-adv-x="882" 
d="M911 1536l-342 -295h-84l303 295h123zM489 557q115 0 183 90q68 91 68 189t-52 146q-51 48 -131 48h-186l-105 -473h223zM573 1126q127 0 204 -74t77 -208q0 -133 -86 -246t-238 -129l154 -469h-123l-141 461h-174l-103 -461h-108l248 1126h290z" />
    <glyph glyph-name="Rcaron.smcp" unicode="&#xf696;" horiz-adv-x="882" 
d="M653 1241h-106l-109 295h70l102 -229l199 229h78zM489 557q115 0 183 90q68 91 68 189t-52 146q-51 48 -131 48h-186l-105 -473h223zM573 1126q127 0 204 -74t77 -208q0 -133 -86 -246t-238 -129l154 -469h-123l-141 461h-174l-103 -461h-108l248 1126h290z" />
    <glyph glyph-name="Rcommaaccent.smcp" unicode="&#xf697;" horiz-adv-x="882" 
d="M362 -250q0 -78 -59 -158t-137 -120l-43 47q53 29 95 75t54 91h-12q-27 0 -45 19t-18 52t25 59q26 25 61 25t57 -24t22 -66zM489 557q115 0 183 90q68 91 68 189t-52 146q-51 48 -131 48h-186l-105 -473h223zM573 1126q127 0 204 -74t77 -208q0 -133 -86 -246t-238 -129
l154 -469h-123l-141 461h-174l-103 -461h-108l248 1126h290z" />
    <glyph glyph-name="Sacute.smcp" unicode="&#xf698;" horiz-adv-x="808" 
d="M887 1536l-342 -295h-84l303 295h123zM68 211q90 -137 288 -137q100 0 160 68q62 68 62 150t-42 134t-102 89q-60 38 -122 77q-60 39 -102 99t-42 136q0 135 101 229t241 95q205 0 305 -139l-74 -74q-72 115 -231 115q-92 -1 -159 -63t-67 -156t146 -184q62 -38 122 -79
t102 -107t42 -151q0 -135 -95 -237t-259 -101q-242 0 -352 162z" />
    <glyph glyph-name="Scedilla.smcp" unicode="&#xf699;" horiz-adv-x="808" 
d="M68 211q90 -137 288 -137q100 0 160 68q62 68 62 150t-42 134t-102 89q-60 38 -122 77q-60 39 -102 99t-42 136q0 135 101 229t241 95q205 0 305 -139l-74 -74q-72 115 -231 115q-92 -1 -159 -63t-67 -156t146 -184q62 -38 122 -79t102 -107t42 -151q0 -135 -95 -236
t-259 -102h-29l-55 -92q26 23 66 23t70 -32t30 -96t-58 -114q-58 -51 -158 -51q-102 0 -171 76l47 59q55 -68 143 -67q57 1 89 31t32 68q0 71 -67 73q-39 0 -68 -35l-49 32l80 134q-172 29 -254 153z" />
    <glyph glyph-name="Scircumflex.smcp" unicode="&#xf69a;" horiz-adv-x="808" 
d="M797 1241h-70l-104 229l-197 -229h-78l234 295h106zM68 211q90 -137 288 -137q100 0 160 68q62 68 62 150t-42 134t-102 89q-60 38 -122 77q-60 39 -102 99t-42 136q0 135 101 229t241 95q205 0 305 -139l-74 -74q-72 115 -231 115q-92 -1 -159 -63t-67 -156t146 -184
q62 -38 122 -79t102 -107t42 -151q0 -135 -95 -237t-259 -101q-242 0 -352 162z" />
    <glyph glyph-name="Scommaaccent.smcp" unicode="&#xf69b;" horiz-adv-x="808" 
d="M328 -250q0 -78 -60 -158t-137 -120l-43 47q53 29 95 75t55 91h-13q-27 0 -45 19t-18 52t25 59q26 25 61 25q36 0 58 -24t22 -66zM68 211q90 -137 288 -137q100 0 160 68q62 68 62 150t-42 134t-102 89q-60 38 -122 77q-60 39 -102 99t-42 136q0 135 101 229t241 95
q205 0 305 -139l-74 -74q-72 115 -231 115q-92 -1 -159 -63t-67 -156t146 -184q62 -38 122 -79t102 -107t42 -151q0 -135 -95 -237t-259 -101q-242 0 -352 162z" />
    <glyph glyph-name="Tbar.smcp" unicode="&#xf69c;" horiz-adv-x="739" 
d="M313 0h-110l114 526h-178l17 76h178l96 428h-268l20 96h649l-20 -96h-270l-95 -428h181l-17 -76h-180z" />
    <glyph glyph-name="Tcaron.smcp" unicode="&#xf69d;" horiz-adv-x="739" 
d="M592 1241h-107l-108 295h69l103 -229l199 229h77zM313 0h-110l227 1030h-268l20 96h649l-20 -96h-270z" />
    <glyph glyph-name="Tcommaaccent.smcp" unicode="&#xf69e;" horiz-adv-x="739" 
d="M289 -250q1 -78 -59 -158t-138 -120l-43 47q53 29 95 75t55 91h-13q-27 0 -45 19t-18 52t25 59q26 25 61 25t57 -24t23 -66zM313 0h-110l227 1030h-268l20 96h649l-20 -96h-270z" />
    <glyph glyph-name="Ubreve.smcp" unicode="&#xf69f;" horiz-adv-x="1007" 
d="M668 1241q-90 0 -161 40t-106 112l64 49q61 -125 217 -125t264 125l53 -49q-141 -152 -331 -152zM444 -25q-166 0 -254 75t-88 210q0 51 15 119l166 747h108l-168 -764q-10 -37 -10 -79q0 -209 233 -209q113 0 179 72t98 225l168 755h108l-163 -745q-46 -203 -136 -305
t-256 -101z" />
    <glyph glyph-name="Uhungarumlaut.smcp" unicode="&#xf6a0;" horiz-adv-x="1007" 
d="M1065 1536l-262 -295h-72l223 295h111zM809 1536l-262 -295h-72l223 295h111zM444 -25q-166 0 -254 75t-88 210q0 51 15 119l166 747h108l-168 -764q-10 -37 -10 -79q0 -209 233 -209q113 0 179 72t98 225l168 755h108l-163 -745q-46 -203 -136 -305t-256 -101z" />
    <glyph glyph-name="Umacron.smcp" unicode="&#xf6a1;" horiz-adv-x="1007" 
d="M991 1290h-620l16 76h621zM444 -25q-166 0 -254 75t-88 210q0 51 15 119l166 747h108l-168 -764q-10 -37 -10 -79q0 -209 233 -209q113 0 179 72t98 225l168 755h108l-163 -745q-46 -203 -136 -305t-256 -101z" />
    <glyph glyph-name="Uogonek.smcp" unicode="&#xf6a2;" horiz-adv-x="1007" 
d="M449 -381q-63 0 -101 34q-37 34 -37 95q0 127 125 227q-162 2 -248 77t-86 208q0 51 15 119l166 747h108l-168 -764q-10 -37 -10 -79q0 -209 233 -209q113 0 179 72t98 225l168 755h108l-163 -745q-36 -156 -94 -250t-154 -131q-205 -104 -205 -242q0 -72 76 -71
q63 0 100 80l53 -39q-59 -109 -163 -109z" />
    <glyph glyph-name="Uring.smcp" unicode="&#xf6a3;" horiz-adv-x="1007" 
d="M594 1415q0 -49 28 -79t78 -29q49 0 88 38t39 88q-1 49 -29 79t-77 30t-88 -39t-39 -88zM891 1438q1 -76 -59 -136t-136 -59q-76 0 -121 46t-45 122t60 135q60 60 134 60q75 0 121 -46t46 -122zM444 -25q-166 0 -254 75t-88 210q0 51 15 119l166 747h108l-168 -764
q-10 -37 -10 -79q0 -209 233 -209q113 0 179 72t98 225l168 755h108l-163 -745q-46 -203 -136 -305t-256 -101z" />
    <glyph glyph-name="Utilde.smcp" unicode="&#xf6a4;" horiz-adv-x="1007" 
d="M782 1237q-48 0 -74 33q-26 32 -33 72q-19 106 -79 106q-82 0 -125 -199h-70q59 274 209 275q47 0 74 -33t34 -73q18 -105 77 -105q82 0 129 198h69q-59 -274 -211 -274zM444 -25q-166 0 -254 75t-88 210q0 51 15 119l166 747h108l-168 -764q-10 -37 -10 -79
q0 -209 233 -209q113 0 179 72t98 225l168 755h108l-163 -745q-46 -203 -136 -305t-256 -101z" />
    <glyph glyph-name="Wcircumflex.smcp" unicode="&#xf6a6;" horiz-adv-x="1232" 
d="M279 1126v-942l426 942h98l6 -942l420 942h117l-515 -1126h-114l-8 924l-414 -924h-117l-16 1126h117zM1006 1241h-70l-105 229l-196 -229h-78l234 295h106z" />
    <glyph glyph-name="Ycircumflex.smcp" unicode="&#xf6a9;" horiz-adv-x="866" 
d="M825 1241h-69l-105 229l-196 -229h-78l233 295h107zM379 0h-109l105 481l-225 645h122l181 -536l411 536h127l-506 -645z" />
    <glyph glyph-name="Zacute.smcp" unicode="&#xf6ab;" horiz-adv-x="813" 
d="M881 1536l-342 -295h-84l303 295h123zM631 0h-670l16 88l734 940h-525l23 98h657l-20 -88l-731 -940h536z" />
    <glyph glyph-name="Zdotaccent.smcp" unicode="&#xf6ac;" horiz-adv-x="813" 
d="M682 1383q0 -31 -26 -57t-58 -26t-50 20q-20 20 -20 53q0 32 26 57q26 24 58 24t51 -19q19 -20 19 -52zM631 0h-670l16 88l734 940h-525l23 98h657l-20 -88l-731 -940h536z" />
    <glyph glyph-name="Idotaccent.smcp" unicode="&#xf6ad;" horiz-adv-x="356" 
d="M449 1383q0 -31 -26 -57t-58 -26t-51 20t-19 53q0 32 26 57q25 24 57 24t52 -20t19 -51zM123 0h-109l248 1126h109z" />
    <glyph glyph-name="parenleft.case" unicode="&#xf6ae;" horiz-adv-x="425" 
d="M86 268q0 694 477 1319l60 -43q-199 -303 -315 -647t-115 -690q0 -189 45 -400l-72 -30q-80 233 -80 491z" />
    <glyph glyph-name="parenright.case" unicode="&#xf6af;" horiz-adv-x="425" 
d="M420 1096q0 -696 -479 -1319l-58 43q199 303 315 647t115 690q0 170 -45 399l72 31q80 -233 80 -491z" />
    <glyph glyph-name="bracketleft.case" unicode="&#xf6b0;" horiz-adv-x="409" 
d="M217 -205h-301l395 1778h301l-20 -86h-213l-356 -1606h213z" />
    <glyph glyph-name="bracketright.case" unicode="&#xf6b1;" horiz-adv-x="409" 
d="M178 -205h-299l21 86h211l354 1606h-211l18 86h301z" />
    <glyph glyph-name="braceleft.case" unicode="&#xf6b2;" horiz-adv-x="454" 
d="M184 -205q-72 0 -125 49t-53 127q0 31 8 56l105 473q4 20 4 53q-1 33 -21 63t-59 29l18 78q109 0 140 145l104 478q53 227 256 227h96l-20 -86h-94q-117 0 -148 -141l-110 -492q-31 -143 -131 -180q59 -29 59 -109q0 -37 -8 -69l-103 -471q-6 -37 -6 -39q0 -47 28 -76
t69 -29h88l-19 -86h-78z" />
    <glyph glyph-name="braceright.case" unicode="&#xf6b3;" horiz-adv-x="454" 
d="M350 1573q72 0 125 -49t53 -129q0 -12 -8 -54l-104 -473q-4 -20 -4 -39q0 -106 77 -106l-18 -78q-106 0 -137 -145l-107 -477q-51 -227 -256 -228h-94l21 86h94q55 0 94 37t53 105l109 491q29 141 131 180q-59 29 -60 109q0 37 9 69l104 471q4 25 4 55t-27 60
q-28 29 -67 29h-90l20 86h78z" />
    <glyph glyph-name="exclamdown.case" unicode="&#xf6b4;" horiz-adv-x="446" 
d="M402 1386q36 0 60 -24t24 -60t-28 -64t-65 -28t-61 24t-23 60q0 36 28 64t65 28zM295 1012h80l-197 -1012h-135z" />
    <glyph glyph-name="questiondown.case" unicode="&#xf6b5;" horiz-adv-x="790" 
d="M581 1376q39 0 61 -22t22 -60q0 -36 -28 -64t-66 -28t-60 24t-23 60q0 36 28 62q28 28 66 28zM133 256q0 -78 58 -131t159 -53q135 0 246 100l45 -80q-135 -123 -293 -123t-247 78q-89 79 -89 183t47 181t115 128t136 97q162 110 161 218q0 57 -29 96l95 47
q39 -63 39 -140t-46 -143q-44 -66 -110 -112q-66 -47 -132 -92t-110 -110q-45 -66 -45 -144z" />
    <glyph glyph-name="guillemotleft.case" unicode="&#xf6b6;" horiz-adv-x="716" 
d="M610 332h-98l-174 368l338 363h110l-344 -371zM377 332h-98l-175 368l338 363h111l-344 -371z" />
    <glyph glyph-name="guillemotright.case" unicode="&#xf6b7;" horiz-adv-x="716" 
d="M432 1063h98l175 -369l-338 -362h-111l344 373zM199 1063h98l174 -369l-338 -362h-110l346 373z" />
    <glyph glyph-name="guilsinglleft.case" unicode="&#xf6b8;" horiz-adv-x="483" 
d="M377 332h-98l-175 368l338 363h111l-344 -371z" />
    <glyph glyph-name="guilsinglright.case" unicode="&#xf6b9;" horiz-adv-x="483" 
d="M199 1063h98l174 -369l-338 -362h-110l346 373z" />
    <glyph glyph-name="hyphen.case" unicode="&#xf6ba;" horiz-adv-x="544" 
d="M518 651h-424l21 94h422z" />
    <glyph glyph-name="endash.case" unicode="&#xf6bb;" horiz-adv-x="1079" 
d="M1051 651h-957l21 94h954z" />
    <glyph glyph-name="emdash.case" unicode="&#xf6bc;" horiz-adv-x="1509" 
d="M1481 651h-1387l21 94h1384z" />
    <glyph glyph-name="periodcentered.case" unicode="&#xf6bd;" horiz-adv-x="446" 
d="M262 614q-36 0 -60 23t-24 59t28 65q28 27 64 27t61 -24q23 -24 23 -58q0 -36 -28 -64t-64 -28z" />
    <glyph glyph-name="bullet.case" unicode="&#xf6be;" horiz-adv-x="733" 
d="M623 714q0 -87 -71 -155q-71 -67 -158 -67t-140 53t-53 140t70 155q71 68 158 68t141 -54q54 -53 53 -140z" />
    <glyph glyph-name="cent.case" unicode="&#xf6bf;" horiz-adv-x="819" 
d="M227 528q0 -194 142 -256l186 832q-147 -29 -237 -205q-90 -177 -91 -371zM461 162h-27l-39 -180h-90l43 194q-109 31 -170 126q-61 96 -61 242t54 292t163 249q109 104 241 113l33 145h90l-32 -149q133 -20 204 -135l-71 -66q-51 94 -154 111l-190 -850h18q113 0 201 98
l47 -73q-113 -117 -260 -117z" />
    <glyph glyph-name="commaaccent" unicode="&#xf6c3;" horiz-adv-x="446" 
d="M141 -250q0 -78 -59 -158t-137 -120l-43 47q53 29 95 75t54 91h-12q-27 0 -45 19t-18 52t25 59q27 25 61 25t57 -23q22 -24 22 -67z" />
    <glyph glyph-name="one.tnum" unicode="&#xf6dc;" horiz-adv-x="980" 
d="M543 0h-113l266 1212l-262 -231l-55 76l362 309h103z" />
    <glyph glyph-name="rupiah" unicode="&#xf6dd;" horiz-adv-x="1869" 
d="M1344 68q93 0 177 102q83 102 123 236t40 256t-57 191q-56 69 -143 69t-159 -54t-119 -135l-106 -481q23 -78 87 -131t157 -53zM1346 -25q-90 -1 -160 47t-107 136l-118 -535h-103l303 1366h103l-31 -141q109 166 272 166q131 0 210 -91t79 -247t-51 -312t-157 -273
q-106 -116 -240 -116zM557 672q150 0 235 110t85 260q1 100 -59 160t-144 62h-238l-131 -592h252zM686 1366q129 0 221 -88t92 -229q0 -185 -106 -317t-272 -152l174 -580h-125l-160 569h-227l-125 -569h-115l301 1366h342z" />
    <glyph glyph-name="centinferior" unicode="&#xf6df;" horiz-adv-x="528" 
d="M45 30q0 -116 88 -151l105 471q-84 -16 -139 -110q-54 -94 -54 -210zM-39 41q0 141 84 257t207 124l20 86h66l-21 -92q90 -18 136 -92l-58 -48q-31 57 -92 74l-106 -483h2q74 0 129 61l37 -53q-68 -76 -175 -76h-10l-22 -108h-66l25 119q-74 20 -115 80t-41 151z" />
    <glyph glyph-name="centsuperior" unicode="&#xf6e0;" horiz-adv-x="528" 
d="M301 1190q0 -116 88 -152l105 473q-84 -16 -139 -110q-54 -95 -54 -211zM217 1202q0 141 84 257t207 124l20 86h66l-21 -92q90 -18 136 -92l-58 -47q-31 57 -92 73l-106 -483h2q74 0 129 62l37 -54q-68 -76 -175 -75h-10l-22 -109h-66l25 117q-74 21 -115 81t-41 152z
" />
    <glyph glyph-name="commainferior" unicode="&#xf6e1;" horiz-adv-x="272" 
d="M29 -261q0 -42 -42 -101t-93 -91l-35 41q82 47 98 107q-4 -2 -15 -2t-26 15q-14 15 -14 41t21 46q22 20 48 21q58 0 58 -77z" />
    <glyph glyph-name="commasuperior" unicode="&#xf6e2;" horiz-adv-x="272" 
d="M285 900q0 -42 -42 -101t-93 -90l-35 41q82 47 98 106q-4 -2 -15 -2t-26 15q-14 15 -14 42t21 46q22 19 48 20q58 0 58 -77z" />
    <glyph glyph-name="dollarinferior" unicode="&#xf6e3;" horiz-adv-x="610" 
d="M113 306q0 -64 98 -120l59 273q-66 -5 -112 -47t-45 -106zM346 -72q0 70 -96 129l-66 -295q72 4 117 50t45 116zM170 -313h-2l-23 -109h-67l24 113q-141 20 -202 119l63 57q51 -82 156 -100l71 325q-82 43 -127 87t-45 129t75 155t186 69h8l26 113h68l-27 -121
q109 -25 164 -100l-59 -57q-45 66 -121 84l-68 -299q51 -29 83 -53q32 -23 60 -67t27 -95q0 -102 -71 -177q-72 -73 -199 -73z" />
    <glyph glyph-name="dollarsuperior" unicode="&#xf6e4;" horiz-adv-x="610" 
d="M369 1468q0 -64 98 -120l59 272q-66 -4 -112 -46t-45 -106zM602 1090q0 70 -96 129l-66 -297q72 6 117 52t45 116zM426 848h-2l-23 -109h-67l24 113q-143 18 -202 119l63 57q49 -84 156 -102l71 327q-82 43 -127 87t-45 129t75 155t186 70h8l26 112h68l-27 -120
q109 -25 164 -101l-59 -57q-45 66 -121 84l-68 -299q51 -29 83 -53t60 -67q28 -44 27 -95q0 -102 -72 -176t-198 -74z" />
    <glyph glyph-name="hypheninferior" unicode="&#xf6e5;" horiz-adv-x="342" 
d="M209 74h-266l14 71h268z" />
    <glyph glyph-name="hyphensuperior" unicode="&#xf6e6;" horiz-adv-x="342" 
d="M465 1237h-266l14 72h268z" />
    <glyph glyph-name="periodinferior" unicode="&#xf6e7;" horiz-adv-x="276" 
d="M35 -243q0 -26 -22 -46q-23 -20 -49 -20t-42 16t-16 42t22 46q22 21 48 21t42 -16t17 -43z" />
    <glyph glyph-name="periodsuperior" unicode="&#xf6e8;" horiz-adv-x="276" 
d="M291 919q0 -27 -22 -47q-23 -20 -49 -20t-42 16t-16 42t22 46t48 20t42 -15q16 -16 17 -42z" />
    <glyph glyph-name="asuperior" unicode="&#xf6e9;" horiz-adv-x="661" 
d="M385 651q-211 -1 -211 263q0 140 87 277q87 136 218 136q59 0 111 -31t76 -82l20 97h86l-143 -643h-86l22 96q-80 -113 -180 -113zM494 1257q-96 -1 -164 -115t-68 -220q0 -198 141 -199q98 0 179 117l67 307q-14 47 -58 79t-97 31z" />
    <glyph glyph-name="bsuperior" unicode="&#xf6ea;" horiz-adv-x="708" 
d="M540 1327q98 0 154 -61t56 -202t-87 -277t-217 -136t-188 113l-20 -96h-84l196 888h84l-76 -342q84 113 182 113zM432 721q94 0 162 116t68 221q0 197 -142 197q-98 0 -178 -116l-68 -308q16 -49 60 -79t98 -31z" />
    <glyph glyph-name="dsuperior" unicode="&#xf6eb;" horiz-adv-x="708" 
d="M385 651q-211 -1 -211 263q0 140 87 277q87 136 218 136q59 0 111 -31t76 -82l73 342h86l-196 -888h-86l22 96q-80 -113 -180 -113zM494 1257q-96 -1 -164 -115t-68 -220q0 -198 141 -199q98 0 179 117l67 307q-14 47 -58 79t-97 31z" />
    <glyph glyph-name="esuperior" unicode="&#xf6ec;" horiz-adv-x="692" 
d="M655 1077q0 84 -40 134q-39 51 -119 51t-138 -73t-79 -163h370q6 23 6 51zM435 651q-119 0 -189 69t-70 209t96 269t234 129q109 0 168 -72t59 -180q0 -59 -12 -114h-455q-4 -29 -4 -54q0 -82 48 -135t136 -53t166 74l35 -52q-94 -90 -212 -90z" />
    <glyph glyph-name="isuperior" unicode="&#xf6ed;" horiz-adv-x="296" 
d="M227 668h-86l142 643h86zM357 1415q-26 -1 -41 15t-15 40t22 46q22 20 46 20q23 0 39 -15t16 -40t-20 -45t-47 -21z" />
    <glyph glyph-name="lsuperior" unicode="&#xf6ee;" horiz-adv-x="317" 
d="M238 668h-84l196 888h84z" />
    <glyph glyph-name="msuperior" unicode="&#xf6ef;" horiz-adv-x="993" 
d="M938 1171q0 84 -87 84t-171 -116l-105 -471h-81l102 465q4 29 4 38q0 84 -86 84t-172 -116l-104 -471h-84l141 643h84l-19 -94q29 43 81 77t113 33q60 0 96 -34t42 -83q82 117 195 117q63 0 101 -32t38 -79t-6 -67l-105 -481h-84l103 465q4 29 4 38z" />
    <glyph glyph-name="osuperior" unicode="&#xf6f0;" horiz-adv-x="702" 
d="M418 725q102 0 169 116t67 215t-42 147q-41 48 -112 48q-104 1 -169 -113t-65 -216q0 -198 152 -197zM416 651q-113 0 -175 69q-63 69 -63 203t91 269t233 135q113 0 176 -69t63 -203t-92 -269t-233 -135z" />
    <glyph glyph-name="rsuperior" unicode="&#xf6f1;" horiz-adv-x="425" 
d="M511 1241q-36 0 -87 -34t-84 -81l-102 -458h-84l141 643h84l-23 -105q106 119 219 119l-20 -86q-8 2 -44 2z" />
    <glyph glyph-name="ssuperior" unicode="&#xf6f2;" horiz-adv-x="561" 
d="M340 651q-150 0 -225 109l57 51q57 -94 168 -94q63 0 104 36t41 84t-43 84t-95 56t-95 63t-43 111t60 122t157 54q137 0 205 -98l-51 -49q-55 82 -156 82q-59 0 -95 -33t-36 -78t43 -76t95 -51t95 -66t43 -116q1 -72 -63 -132t-166 -59z" />
    <glyph glyph-name="tsuperior" unicode="&#xf6f3;" horiz-adv-x="366" 
d="M299 651q-119 0 -119 99q0 20 4 45l99 450h-90l14 66h90l39 176h86l-39 -176h113l-15 -66h-112l-99 -442q-4 -14 -4 -35q0 -47 51 -47q35 0 58 22l16 -59q-39 -33 -92 -33z" />
    <glyph glyph-name="Lslash.smcp" unicode="&#xf6f9;" horiz-adv-x="806" 
d="M12 399l23 105l182 94l117 528h108l-102 -467l188 99l-24 -107l-189 -96l-100 -459h438l-20 -96h-547l109 492z" />
    <glyph glyph-name="OE.smcp" unicode="&#xf6fa;" horiz-adv-x="1513" 
d="M614 1053q-112 0 -214 -117q-102 -116 -151 -266q-50 -150 -50 -288q1 -138 73 -224q72 -84 199 -84q209 0 324 274l96 430q-18 135 -91 205q-74 70 -186 70zM86 389q0 238 138 490q65 117 170 195q104 78 220 77q245 0 310 -225l43 200h585l-22 -96h-475l-90 -403h465
l-23 -97h-463l-96 -434h477l-20 -96h-586l33 150q-115 -174 -293 -174t-276 112q-97 113 -97 301z" />
    <glyph glyph-name="Scaron.smcp" unicode="&#xf6fd;" horiz-adv-x="808" 
d="M629 1241h-107l-108 295h69l103 -229l198 229h78zM68 211q90 -137 288 -137q100 0 160 68q62 68 62 150t-42 134t-102 89q-60 38 -122 77q-60 39 -102 99t-42 136q0 135 101 229t241 95q205 0 305 -139l-74 -74q-72 115 -231 115q-92 -1 -159 -63t-67 -156t146 -184
q62 -38 122 -79t102 -107t42 -151q0 -135 -95 -237t-259 -101q-242 0 -352 162z" />
    <glyph glyph-name="Zcaron.smcp" unicode="&#xf6ff;" horiz-adv-x="813" 
d="M621 1241h-107l-108 295h69l103 -229l198 229h78zM631 0h-670l16 88l734 940h-525l23 98h657l-20 -88l-731 -940h536z" />
    <glyph glyph-name="exclam.smcp" unicode="&#xf721;" horiz-adv-x="358" 
d="M88 156q38 0 60 -23q24 -23 24 -59t-28 -66q-28 -28 -66 -28q-37 0 -61 24q-23 24 -23 60t28 64t66 28zM381 1126l-207 -823h-78l156 823h129z" />
    <glyph glyph-name="dollar.onum" unicode="&#xf724;" horiz-adv-x="808" 
d="M285 835q0 -87 116 -165l84 381q-84 -9 -142 -69t-58 -147zM578 313q0 98 -125 187l-95 -426q106 6 163 74t57 165zM342 -25h-4l-29 -127h-90l29 136q-172 27 -258 153l78 74q66 -102 202 -131l105 471q-66 41 -104 71t-70 85q-33 55 -33 120q0 135 100 229t240 95
l31 135h90l-33 -143q145 -29 219 -131l-74 -74q-55 84 -166 109l-96 -429q68 -44 107 -76q38 -32 74 -93t36 -136q0 -135 -95 -237t-259 -101z" />
    <glyph glyph-name="ampersand.smcp" unicode="&#xf726;" horiz-adv-x="894" 
d="M362 805q0 -57 21 -125q195 109 233 192q18 42 18 92t-26 78q-27 28 -71 29q-71 -1 -123 -79t-52 -187zM111 252q0 -92 46 -142t137 -51q91 0 208 123q-53 94 -99 193q-47 92 -79 176q-213 -130 -213 -299zM282 -25q-130 0 -204 70q-74 69 -74 199t77 220t214 167
q-31 98 -31 174q0 141 81 243t192 103q82 0 138 -49q56 -48 56 -120q0 -111 -64 -200q-46 -61 -255 -178q21 -59 161 -338q92 123 166 279l80 -43q-96 -188 -201 -318q35 -67 111 -184h-121q-35 53 -61 104q-135 -129 -265 -129z" />
    <glyph glyph-name="zero.onum" unicode="&#xf730;" horiz-adv-x="1028" 
d="M842 745q0 301 -244 302q-96 0 -175 -79q-127 -127 -187 -411q-23 -104 -23 -176q0 -301 242 -301q96 0 175 79q130 130 189 410q23 104 23 176zM188 80q-92 106 -92 311t120 463q58 125 160 211t228 86q168 1 261 -105t93 -291t-86 -406q-86 -220 -235 -316
q-88 -57 -188 -58q-169 -1 -261 105z" />
    <glyph glyph-name="one.onum" unicode="&#xf731;" horiz-adv-x="589" 
d="M324 0h-113l213 973l-262 -232l-56 76l363 309h102z" />
    <glyph glyph-name="two.onum" unicode="&#xf732;" horiz-adv-x="966" 
d="M780 840q0 96 -62 152t-161 57q-172 0 -305 -166l-70 69q162 199 381 199q152 0 245 -79t93 -218q0 -176 -173 -358t-505 -394h496l-23 -102h-684l21 98q387 236 567 409t180 333z" />
    <glyph glyph-name="three.onum" unicode="&#xf733;" horiz-adv-x="933" 
d="M336 -264q-141 0 -248 75q-106 75 -141 203l96 54q69 -226 309 -228q120 0 201 106q82 106 82 255q0 100 -68 155q-68 56 -155 56t-107 -2l27 108q16 -2 138 -2t207 92t85 228q0 94 -66 150t-174 56q-156 0 -280 -149l-66 70q64 84 158 134t198 50q156 0 252 -79t96 -223
t-94 -257q-96 -113 -229 -133q88 -27 140 -100t53 -169q0 -180 -117 -315t-297 -135z" />
    <glyph glyph-name="four.onum" unicode="&#xf734;" horiz-adv-x="901" 
d="M524 240l166 753l-592 -753h426zM772 137h-156l-84 -377h-112l82 377h-533l23 107l694 882h148l-197 -886h156z" />
    <glyph glyph-name="five.onum" unicode="&#xf735;" horiz-adv-x="976" 
d="M371 -264q-279 0 -371 274l98 53q59 -223 279 -223q127 0 224 132t97 302q0 111 -62 173q-62 63 -177 63t-238 -111l-78 45l152 682h645l-22 -102h-531l-115 -514q94 98 234 98t225 -87q86 -87 86 -238q0 -215 -129 -381t-317 -166z" />
    <glyph glyph-name="six.onum" unicode="&#xf736;" horiz-adv-x="978" 
d="M455 80q126 0 217 144q90 144 90 298q0 98 -60 160t-165 61q-162 0 -312 -217q-12 -78 -12 -159q0 -133 58 -210t184 -77zM436 -25q-166 0 -249 111t-83 316t84 464q45 139 109 254q63 115 165 191q102 75 217 75q116 0 198 -57t116 -160l-88 -65q-49 178 -229 178
q-86 0 -158 -53t-122 -145q-110 -203 -150 -435q53 78 142 135q88 58 204 58t202 -81t85 -221t-53 -265q-52 -126 -156 -213t-234 -87z" />
    <glyph glyph-name="seven.onum" unicode="&#xf737;" horiz-adv-x="827" 
d="M168 -240h-129l713 1264h-580l23 102h712l-18 -77z" />
    <glyph glyph-name="eight.onum" unicode="&#xf738;" horiz-adv-x="964" 
d="M176 297q0 -105 71 -161t181 -56t198 89q89 89 89 222q1 98 -63 171t-134 95q-143 -25 -243 -122q-99 -98 -99 -238zM852 1081q0 89 -65 145t-171 56t-186 -83t-80 -210q0 -78 58 -144t129 -95q133 26 224 110t91 221zM831 379q-1 -172 -119 -288t-287 -116t-269 77
q-100 76 -100 226t98 267t272 172q-78 41 -135 118t-58 169q0 162 119 272q120 110 270 110t250 -76t100 -226q0 -148 -98 -249t-245 -141q84 -51 143 -133t59 -182z" />
    <glyph glyph-name="nine.onum" unicode="&#xf739;" horiz-adv-x="978" 
d="M550 1044q-126 0 -216 -144t-90 -298q0 -98 60 -160t165 -61q162 0 311 217q12 78 12 186t-58 184t-184 76zM569 1149q166 0 249 -111t83 -319t-84 -461q-45 -139 -108 -254q-63 -114 -165 -190t-217 -76q-116 0 -198 57t-117 160l88 65q49 -178 230 -178q86 0 158 54
t121 145q111 204 151 434q-56 -78 -144 -135t-184 -57q-135 0 -220 81t-85 220t52 265q53 126 157 213t233 87z" />
    <glyph glyph-name="question.smcp" unicode="&#xf73f;" horiz-adv-x="679" 
d="M242 156q36 0 60 -23t24 -59t-28 -66q-28 -28 -65 -28t-61 24t-22 60q0 36 27 64q28 28 65 28zM440 1151q127 -1 204 -63t77 -154t-41 -156t-99 -103q-59 -40 -117 -75q-140 -84 -140 -170q0 -37 36 -78l-90 -43q-43 53 -43 123q-1 70 59 133t132 101t131 100
q59 63 59 136t-47 114t-133 41q-123 0 -225 -99l-49 72q125 121 286 121z" />
    <glyph glyph-name="A.smcp" unicode="&#xf761;" horiz-adv-x="874" 
d="M600 373l-51 620l-330 -620h381zM512 1126h125l106 -1126h-114l-25 274h-430l-143 -274h-121z" />
    <glyph glyph-name="B.smcp" unicode="&#xf762;" horiz-adv-x="882" 
d="M532 627q94 0 152 78q57 78 57 172q0 154 -186 153h-184l-92 -403h253zM416 96q100 0 166 80t66 172q-1 182 -169 182h-219l-96 -434h252zM412 0h-377l248 1126h295q126 0 204 -60t78 -173t-60 -204t-169 -116q59 -25 94 -83t35 -128q0 -150 -93 -256t-255 -106z" />
    <glyph glyph-name="C.smcp" unicode="&#xf763;" horiz-adv-x="942" 
d="M486 -25q-186 0 -292 110q-108 109 -108 309t70 372t197 278q128 106 284 107q115 0 202 -60t124 -161l-97 -37q-29 74 -91 117t-140 43q-178 0 -306 -196t-128 -460q0 -155 78 -239t204 -84q152 0 258 147l82 -51q-151 -195 -337 -195z" />
    <glyph glyph-name="D.smcp" unicode="&#xf764;" horiz-adv-x="1005" 
d="M373 96q135 0 240 91t159 229t53 291q0 155 -83 239t-230 84h-141l-207 -934h209zM354 0h-319l248 1126h243q188 0 302 -110t114 -299q0 -188 -64 -347t-202 -265q-138 -105 -322 -105z" />
    <glyph glyph-name="E.smcp" unicode="&#xf765;" horiz-adv-x="827" 
d="M618 0h-583l248 1126h583l-20 -96h-475l-90 -403h462l-20 -97h-463l-96 -434h475z" />
    <glyph glyph-name="F.smcp" unicode="&#xf766;" horiz-adv-x="804" 
d="M143 0h-108l248 1126h583l-20 -96h-475l-90 -403h462l-20 -97h-463z" />
    <glyph glyph-name="G.smcp" unicode="&#xf767;" horiz-adv-x="1009" 
d="M482 -25q-180 0 -288 111t-108 303q0 322 162 542t387 220q117 0 204 -60t130 -159l-95 -39q-31 70 -95 115q-65 45 -146 45q-172 0 -302 -193t-130 -469q0 -151 79 -235q78 -84 208 -84t217 78l71 321h-268l20 94h375l-104 -469q-138 -121 -317 -121z" />
    <glyph glyph-name="H.smcp" unicode="&#xf768;" horiz-adv-x="1024" 
d="M768 0h-109l117 530h-516l-117 -530h-108l248 1126h108l-110 -497h516l110 497h109z" />
    <glyph glyph-name="I.smcp" unicode="&#xf769;" horiz-adv-x="399" 
d="M143 0h-108l248 1126h108z" />
    <glyph glyph-name="J.smcp" unicode="&#xf76a;" horiz-adv-x="706" 
d="M188 -25q-188 0 -260 129l74 72q55 -102 178 -102q176 0 221 205l189 847h108l-188 -854q-64 -297 -322 -297z" />
    <glyph glyph-name="K.smcp" unicode="&#xf76b;" horiz-adv-x="890" 
d="M748 0h-130l-262 514l-129 -135l-84 -379h-108l248 1126h108l-129 -587l563 587h136l-523 -536z" />
    <glyph glyph-name="L.smcp" unicode="&#xf76c;" horiz-adv-x="755" 
d="M582 0h-547l248 1126h108l-227 -1030h438z" />
    <glyph glyph-name="M.smcp" unicode="&#xf76d;" horiz-adv-x="1200" 
d="M946 0h-108l209 948l-533 -948h-49l-113 948l-209 -948h-108l248 1126h147l109 -895l501 895h154z" />
    <glyph glyph-name="N.smcp" unicode="&#xf76e;" horiz-adv-x="1017" 
d="M762 0h-111l-303 930l-205 -930h-108l248 1126h114l303 -913l201 913h109z" />
    <glyph glyph-name="O.smcp" unicode="&#xf76f;" horiz-adv-x="1069" 
d="M471 74q172 0 297 205t125 454q0 147 -71 233q-70 86 -192 87q-122 -1 -221 -99t-155 -250t-55 -304q1 -154 71 -240t201 -86zM469 -25q-178 0 -281 113q-102 113 -102 305q0 303 161 531t378 227q178 0 279 -113t102 -305q0 -303 -161 -531t-376 -227z" />
    <glyph glyph-name="P.smcp" unicode="&#xf770;" horiz-adv-x="839" 
d="M494 557q108 0 176 91q68 90 68 190q-1 191 -193 192h-174l-105 -473h228zM563 1126q133 0 211 -72t78 -212t-99 -260t-268 -121h-239l-103 -461h-108l248 1126h280z" />
    <glyph glyph-name="Q.smcp" unicode="&#xf771;" horiz-adv-x="1069" 
d="M471 74q78 0 150 47l-91 211l88 39l78 -187q90 96 144 244t53 300q0 152 -71 238q-70 86 -192 87q-122 -1 -221 -99t-155 -250t-55 -304q1 -154 71 -240t201 -86zM469 -25q-178 0 -281 113q-102 113 -102 305q0 303 161 531t378 227q178 0 279 -113q102 -112 102 -308
t-73 -370t-194 -276l47 -107l-88 -38l-39 90q-96 -54 -190 -54z" />
    <glyph glyph-name="R.smcp" unicode="&#xf772;" horiz-adv-x="882" 
d="M489 557q115 0 183 90q68 91 68 189t-52 146q-51 48 -131 48h-186l-105 -473h223zM573 1126q127 0 204 -74t77 -208q0 -133 -86 -246t-238 -129l154 -469h-123l-141 461h-174l-103 -461h-108l248 1126h290z" />
    <glyph glyph-name="S.smcp" unicode="&#xf773;" horiz-adv-x="808" 
d="M68 211q90 -137 288 -137q100 0 160 68q62 68 62 150t-42 134t-102 89q-60 38 -122 77q-60 39 -102 99t-42 136q0 135 101 229t241 95q205 0 305 -139l-74 -74q-72 115 -231 115q-92 -1 -159 -63t-67 -156t146 -184q62 -38 122 -79t102 -107t42 -151q0 -135 -95 -237
t-259 -101q-242 0 -352 162z" />
    <glyph glyph-name="T.smcp" unicode="&#xf774;" horiz-adv-x="739" 
d="M313 0h-110l227 1030h-268l20 96h649l-20 -96h-270z" />
    <glyph glyph-name="U.smcp" unicode="&#xf775;" horiz-adv-x="1007" 
d="M444 -25q-166 0 -254 75t-88 210q0 51 15 119l166 747h108l-168 -764q-10 -37 -10 -79q0 -209 233 -209q113 0 179 72t98 225l168 755h108l-163 -745q-46 -203 -136 -305t-256 -101z" />
    <glyph glyph-name="V.smcp" unicode="&#xf776;" horiz-adv-x="874" 
d="M389 0h-125l-106 1126h114l82 -983l516 983h121z" />
    <glyph glyph-name="W.smcp" unicode="&#xf777;" horiz-adv-x="1232" 
d="M279 1126v-942l426 942h98l6 -942l420 942h117l-515 -1126h-114l-8 924l-414 -924h-117l-16 1126h117z" />
    <glyph glyph-name="X.smcp" unicode="&#xf778;" horiz-adv-x="880" 
d="M750 0h-125l-187 485l-399 -485h-131l481 575l-213 551h125l172 -460l373 460h131l-455 -548z" />
    <glyph glyph-name="Y.smcp" unicode="&#xf779;" horiz-adv-x="866" 
d="M379 0h-109l105 481l-225 645h122l181 -536l411 536h127l-506 -645z" />
    <glyph glyph-name="Z.smcp" unicode="&#xf77a;" horiz-adv-x="813" 
d="M631 0h-670l16 88l734 940h-525l23 98h657l-20 -88l-731 -940h536z" />
    <glyph glyph-name="exclamdown.smcp" unicode="&#xf7a1;" horiz-adv-x="358" 
d="M186 1053q0 37 29 65t66 29q37 0 61 -24q24 -25 23 -61q0 -36 -28 -64t-66 -28q-37 0 -61 24q-24 22 -24 59zM-23 0l207 823h78l-156 -823h-129z" />
    <glyph glyph-name="questiondown.smcp" unicode="&#xf7b8;" horiz-adv-x="679" 
d="M447 1147q37 0 61 -24q24 -25 22 -61q0 -36 -28 -64t-64 -28t-60 24q-24 22 -24 59t28 65t65 29zM-41 193q0 160 140 259q59 40 117 74q140 83 140 170q0 37 -37 78l91 43q43 -53 43 -123q1 -70 -59 -132q-60 -64 -132 -101t-131 -101t-59 -136q0 -74 47 -114t133 -40
q123 0 225 98l49 -72q-125 -121 -286 -121q-127 0 -204 63t-77 155z" />
    <glyph glyph-name="Agrave.smcp" unicode="&#xf7e0;" horiz-adv-x="874" 
d="M709 1241h-80l-211 295h119zM600 373l-51 620l-330 -620h381zM512 1126h125l106 -1126h-114l-25 274h-430l-143 -274h-121z" />
    <glyph glyph-name="Aacute.smcp" unicode="&#xf7e1;" horiz-adv-x="874" 
d="M918 1536l-343 -295h-83l303 295h123zM600 373l-51 620l-330 -620h381zM512 1126h125l106 -1126h-114l-25 274h-430l-143 -274h-121z" />
    <glyph glyph-name="Acircumflex.smcp" unicode="&#xf7e2;" horiz-adv-x="874" 
d="M827 1241h-69l-105 229l-196 -229h-78l233 295h107zM600 373l-51 620l-330 -620h381zM512 1126h125l106 -1126h-114l-25 274h-430l-143 -274h-121z" />
    <glyph glyph-name="Atilde.smcp" unicode="&#xf7e3;" horiz-adv-x="874" 
d="M717 1237q-47 0 -74 33q-27 32 -34 72q-19 106 -79 106q-82 0 -124 -199h-70q59 274 209 275q47 0 73 -33t34 -73q18 -105 77 -105q82 0 129 198h70q-59 -274 -211 -274zM600 373l-51 620l-330 -620h381zM512 1126h125l106 -1126h-114l-25 274h-430l-143 -274h-121z" />
    <glyph glyph-name="Adieresis.smcp" unicode="&#xf7e4;" horiz-adv-x="874" 
d="M524 1346q0 -31 -24 -57q-24 -25 -57 -25q-32 0 -50 19t-18 50t24 56q25 25 57 25t50 -19q18 -18 18 -49zM868 1346q0 -31 -24 -57q-24 -25 -56 -25q-31 0 -50 19t-19 50t24 56q25 25 57 25t50 -19q18 -18 18 -49zM600 373l-51 620l-330 -620h381zM512 1126h125
l106 -1126h-114l-25 274h-430l-143 -274h-121z" />
    <glyph glyph-name="Aring.smcp" unicode="&#xf7e5;" horiz-adv-x="874" 
d="M524 1415q0 -49 29 -79t78 -29q49 0 88 38t39 88q0 49 -29 79t-78 30t-88 -39t-39 -88zM821 1438q0 -76 -59 -136t-135 -59q-76 0 -121 46t-45 122t59 135q59 60 134 60t121 -46t46 -122zM600 373l-51 620l-330 -620h381zM512 1126h125l106 -1126h-114l-25 274h-430
l-143 -274h-121z" />
    <glyph glyph-name="AE.smcp" unicode="&#xf7e6;" horiz-adv-x="1290" 
d="M578 373l139 622l-438 -622h299zM1081 0h-583l59 274h-342l-190 -274h-123l800 1126h627l-20 -96h-475l-91 -403h463l-20 -97h-463l-96 -434h475z" />
    <glyph glyph-name="Ccedilla.smcp" unicode="&#xf7e7;" horiz-adv-x="942" 
d="M348 -387q-102 0 -170 76l47 59q55 -68 144 -67q57 1 89 31t32 68q-1 71 -68 73q-39 0 -68 -35l-49 32l80 136q-139 27 -219 132q-80 104 -80 290t70 358t197 278q128 106 284 107q115 0 202 -60t124 -161l-97 -37q-29 74 -91 117t-140 43q-178 0 -306 -196t-128 -460
q0 -155 78 -239t204 -84q152 0 258 147l82 -51q-152 -195 -344 -195h-24l-56 -92q25 23 66 23t71 -32t30 -96t-58 -114q-58 -51 -160 -51z" />
    <glyph glyph-name="Egrave.smcp" unicode="&#xf7e8;" horiz-adv-x="827" 
d="M713 1241h-80l-211 295h119zM618 0h-583l248 1126h583l-20 -96h-475l-90 -403h462l-20 -97h-463l-96 -434h475z" />
    <glyph glyph-name="Eacute.smcp" unicode="&#xf7e9;" horiz-adv-x="827" 
d="M922 1536l-342 -295h-84l303 295h123zM618 0h-583l248 1126h583l-20 -96h-475l-90 -403h462l-20 -97h-463l-96 -434h475z" />
    <glyph glyph-name="Ecircumflex.smcp" unicode="&#xf7ea;" horiz-adv-x="827" 
d="M829 1241h-69l-105 229l-196 -229h-78l233 295h107zM618 0h-583l248 1126h583l-20 -96h-475l-90 -403h462l-20 -97h-463l-96 -434h475z" />
    <glyph glyph-name="Edieresis.smcp" unicode="&#xf7eb;" horiz-adv-x="827" 
d="M524 1346q0 -31 -24 -57q-24 -25 -57 -25q-32 0 -50 19t-18 50t24 56q25 25 57 25t50 -19q18 -18 18 -49zM868 1346q0 -31 -24 -57q-24 -25 -56 -25q-31 0 -50 19t-19 50t24 56q25 25 57 25t50 -19q18 -18 18 -49zM618 0h-583l248 1126h583l-20 -96h-475l-90 -403h462
l-20 -97h-463l-96 -434h475z" />
    <glyph glyph-name="Igrave.smcp" unicode="&#xf7ec;" horiz-adv-x="397" 
d="M471 1241h-80l-211 295h119zM143 0h-108l248 1126h108z" />
    <glyph glyph-name="Iacute.smcp" unicode="&#xf7ed;" horiz-adv-x="397" 
d="M680 1536l-342 -295h-84l303 295h123zM143 0h-108l248 1126h108z" />
    <glyph glyph-name="Icircumflex.smcp" unicode="&#xf7ee;" horiz-adv-x="397" 
d="M588 1241h-70l-104 229l-197 -229h-78l234 295h106zM143 0h-108l248 1126h108z" />
    <glyph glyph-name="Idieresis.smcp" unicode="&#xf7ef;" horiz-adv-x="397" 
d="M287 1346q0 -31 -25 -57q-24 -25 -56 -25t-50 19t-18 50t24 56t56 25t50 -19q18 -18 19 -49zM631 1346q0 -31 -25 -57q-26 -25 -56 -25t-49 19t-19 50t24 56t56 25t50 -19q18 -18 19 -49zM143 0h-108l248 1126h108z" />
    <glyph glyph-name="Eth.smcp" unicode="&#xf7f0;" horiz-adv-x="1048" 
d="M397 96q135 0 241 91q104 91 158 229t54 291q0 155 -83 239t-230 84h-142l-92 -414h219l-18 -84h-219l-97 -436h209zM379 0h-320l117 532h-133l18 84h134l112 510h244q188 0 302 -110t114 -299q0 -188 -65 -347q-65 -158 -202 -264t-321 -106z" />
    <glyph glyph-name="Ntilde.smcp" unicode="&#xf7f1;" horiz-adv-x="1017" 
d="M784 1237q-48 0 -74 33q-26 32 -33 72q-19 106 -79 106q-82 0 -125 -199h-70q59 274 209 275q47 0 74 -33t34 -73q18 -105 77 -105q82 0 129 198h69q-59 -274 -211 -274zM762 0h-111l-303 930l-205 -930h-108l248 1126h114l303 -913l201 913h109z" />
    <glyph glyph-name="Ograve.smcp" unicode="&#xf7f2;" horiz-adv-x="1069" 
d="M803 1241h-80l-211 295h119zM471 74q172 0 297 205t125 454q0 147 -71 233q-70 86 -192 87q-122 -1 -221 -99t-155 -250t-55 -304q1 -154 71 -240t201 -86zM469 -25q-178 0 -281 113q-102 113 -102 305q0 303 161 531t378 227q178 0 279 -113t102 -305q0 -303 -161 -531
t-376 -227z" />
    <glyph glyph-name="Oacute.smcp" unicode="&#xf7f3;" horiz-adv-x="1069" 
d="M1016 1536l-342 -295h-84l303 295h123zM471 74q172 0 297 205t125 454q0 147 -71 233q-70 86 -192 87q-122 -1 -221 -99t-155 -250t-55 -304q1 -154 71 -240t201 -86zM469 -25q-178 0 -281 113q-102 113 -102 305q0 303 161 531t378 227q178 0 279 -113t102 -305
q0 -303 -161 -531t-376 -227z" />
    <glyph glyph-name="Ocircumflex.smcp" unicode="&#xf7f4;" horiz-adv-x="1069" 
d="M924 1241h-70l-104 229l-197 -229h-78l234 295h106zM471 74q172 0 297 205t125 454q0 147 -71 233q-70 86 -192 87q-122 -1 -221 -99t-155 -250t-55 -304q1 -154 71 -240t201 -86zM469 -25q-178 0 -281 113q-102 113 -102 305q0 303 161 531t378 227q178 0 279 -113
t102 -305q0 -303 -161 -531t-376 -227z" />
    <glyph glyph-name="Otilde.smcp" unicode="&#xf7f5;" horiz-adv-x="1069" 
d="M815 1237q-47 0 -74 33q-27 32 -33 72q-17 105 -79 106q-82 0 -125 -199h-70q59 274 209 275q47 0 74 -33t34 -73q18 -105 76 -105q82 0 129 198h70q-59 -274 -211 -274zM471 74q172 0 297 205t125 454q0 147 -71 233q-70 86 -192 87q-122 -1 -221 -99t-155 -250
t-55 -304q1 -154 71 -240t201 -86zM469 -25q-178 0 -281 113q-102 113 -102 305q0 303 161 531t378 227q178 0 279 -113t102 -305q0 -303 -161 -531t-376 -227z" />
    <glyph glyph-name="Odieresis.smcp" unicode="&#xf7f6;" horiz-adv-x="1069" 
d="M623 1346q0 -31 -25 -57q-24 -25 -56 -25t-50 19t-18 50t24 56t56 25t50 -19q18 -18 19 -49zM967 1346q0 -31 -25 -57q-26 -25 -56 -25t-49 19t-19 50t24 56t56 25t50 -19q18 -18 19 -49zM471 74q172 0 297 205t125 454q0 147 -71 233q-70 86 -192 87q-122 -1 -221 -99
t-155 -250t-55 -304q1 -154 71 -240t201 -86zM469 -25q-178 0 -281 113q-102 113 -102 305q0 303 161 531t378 227q178 0 279 -113t102 -305q0 -303 -161 -531t-376 -227z" />
    <glyph glyph-name="Oslash.smcp" unicode="&#xf7f8;" horiz-adv-x="1069" 
d="M628 1053q-120 -1 -219 -99t-155 -250t-55 -282q0 -131 28 -197l592 746q-71 82 -191 82zM471 74q172 0 297 205t125 454q0 88 -31 166l-592 -743q72 -82 201 -82zM469 -25q-164 0 -266 97l-56 -72h-98l105 131q-68 104 -68 262q0 303 161 531t378 227q162 0 262 -96
l57 71h98l-104 -131q68 -109 68 -262q0 -303 -161 -531t-376 -227z" />
    <glyph glyph-name="Ugrave.smcp" unicode="&#xf7f9;" horiz-adv-x="1007" 
d="M774 1241h-80l-211 295h119zM444 -25q-166 0 -254 75t-88 210q0 51 15 119l166 747h108l-168 -764q-10 -37 -10 -79q0 -209 233 -209q113 0 179 72t98 225l168 755h108l-163 -745q-46 -203 -136 -305t-256 -101z" />
    <glyph glyph-name="Uacute.smcp" unicode="&#xf7fa;" horiz-adv-x="1007" 
d="M987 1536l-342 -295h-84l303 295h123zM444 -25q-166 0 -254 75t-88 210q0 51 15 119l166 747h108l-168 -764q-10 -37 -10 -79q0 -209 233 -209q113 0 179 72t98 225l168 755h108l-163 -745q-46 -203 -136 -305t-256 -101z" />
    <glyph glyph-name="Ucircumflex.smcp" unicode="&#xf7fb;" horiz-adv-x="1007" 
d="M893 1241h-70l-104 229l-197 -229h-78l234 295h106zM444 -25q-166 0 -254 75t-88 210q0 51 15 119l166 747h108l-168 -764q-10 -37 -10 -79q0 -209 233 -209q113 0 179 72t98 225l168 755h108l-163 -745q-46 -203 -136 -305t-256 -101z" />
    <glyph glyph-name="Udieresis.smcp" unicode="&#xf7fc;" horiz-adv-x="1007" 
d="M590 1346q0 -31 -25 -57q-25 -25 -57 -25t-49 19q-19 19 -19 50t25 56t57 25t50 -19q18 -18 18 -49zM934 1346q0 -31 -25 -57q-25 -25 -55 -25t-50 19t-20 50t25 56t57 25t50 -19q18 -18 18 -49zM444 -25q-166 0 -254 75t-88 210q0 51 15 119l166 747h108l-168 -764
q-10 -37 -10 -79q0 -209 233 -209q113 0 179 72t98 225l168 755h108l-163 -745q-46 -203 -136 -305t-256 -101z" />
    <glyph glyph-name="Yacute.smcp" unicode="&#xf7fd;" horiz-adv-x="866" 
d="M915 1536l-342 -295h-84l304 295h122zM379 0h-109l105 481l-225 645h122l181 -536l411 536h127l-506 -645z" />
    <glyph glyph-name="Thorn.smcp" unicode="&#xf7fe;" horiz-adv-x="839" 
d="M449 358q111 0 177 89t66 191q-1 192 -192 191h-174l-105 -471h228zM518 926q133 0 211 -71t78 -211t-98 -262t-269 -122h-239l-58 -260h-108l248 1126h108l-43 -200h170z" />
    <glyph glyph-name="Ydieresis.smcp" unicode="&#xf7ff;" horiz-adv-x="866" 
d="M522 1346q0 -31 -26 -57q-26 -25 -56 -25q-31 0 -49 19t-18 50t24 56q25 25 56 25t50 -19q19 -18 19 -49zM866 1346q0 -31 -24 -57q-24 -25 -56 -25q-31 0 -50 19t-19 50t24 56q25 25 56 25t50 -19q19 -18 19 -49zM379 0h-109l105 481l-225 645h122l181 -536l411 536h127
l-506 -645z" />
    <glyph glyph-name="f.alt1" horiz-adv-x="489" 
d="M575 1386q72 0 123 -32l-45 -84q-31 25 -75 24q-121 0 -160 -166l-29 -139h170l-20 -92h-170l-199 -897h-104l198 897h-131l21 92h131l30 139q55 258 260 258z" />
    <glyph glyph-name="l.alt1" horiz-adv-x="462" 
d="M234 -25q-78 0 -123 36t-45 106q0 35 8 67l262 1182h102l-258 -1169q-6 -29 -6 -54q0 -76 82 -75q45 0 86 36l25 -79q-55 -50 -133 -50z" />
    <glyph glyph-name="a.alt1" horiz-adv-x="901" 
d="M358 57q137 0 236 131l51 218q-27 70 -90 108t-145 37q-111 0 -180 -92q-68 -93 -68 -199t54 -154t142 -49zM324 -25q-115 0 -194 68q-79 69 -79 215t97 260t241 115q188 0 270 -148l46 195q8 32 8 94q-1 62 -57 106t-152 44q-135 0 -250 -109l-39 78q143 121 291 121
t231 -60q84 -60 84 -174q0 -47 -12 -98l-152 -682h-104l22 104q-104 -129 -251 -129z" />
    <glyph glyph-name="y.alt1" horiz-adv-x="921" 
d="M270 -401q-233 0 -338 139l72 80q80 -127 266 -127q219 0 287 282l39 179q-154 -168 -297 -168q-98 0 -159 49q-60 49 -60 143q0 35 10 76l164 737h102l-159 -717q-6 -37 -7 -67q0 -127 152 -127q72 0 146 50t130 124l164 737h105l-228 -1016q-84 -374 -389 -374z" />
    <glyph glyph-name="G.alt1" horiz-adv-x="1132" 
d="M520 -25q-184 0 -296 128t-111 354q0 153 47 315t129 300t209 227t263 89t230 -77q94 -78 137 -201l-102 -39q-35 100 -108 157q-74 56 -168 56q-138 0 -260 -132t-190 -324t-67 -370q0 -178 81 -278t234 -100q154 0 266 138t169 357h-426l23 103h542
q-145 -703 -602 -703z" />
    <glyph glyph-name="G.smcp.alt1" horiz-adv-x="1028" 
d="M486 -25q-184 0 -292 113t-108 291t69 354t197 297q129 121 283 121q236 0 340 -219l-94 -43q-35 78 -101 121t-147 43q-117 0 -220 -112q-103 -113 -159 -265t-55 -291q0 -139 81 -226q80 -87 206 -87t227 115q100 116 133 284h-338l20 92h445q-35 -244 -169 -416
t-318 -172z" />
    <glyph glyph-name="Gbreve.alt1" horiz-adv-x="1167" 
d="M520 -25q-184 0 -296 128t-111 354q0 153 47 315t129 300t209 227t263 89t230 -77q94 -78 137 -201l-102 -39q-35 100 -108 157q-74 56 -168 56q-138 0 -260 -132t-190 -324t-67 -370q0 -178 81 -278t234 -100q154 0 266 138t169 357h-426l23 103h542
q-145 -703 -602 -703zM856 1561q156 0 264 125l54 -50q-141 -152 -332 -151q-90 0 -161 40t-106 111l64 50q61 -125 217 -125z" />
    <glyph glyph-name="Gbreve.smcp.alt1" horiz-adv-x="1028" 
d="M486 -25q-184 0 -292 113t-108 291t69 354t197 297q129 121 283 121q236 0 340 -219l-94 -43q-35 78 -101 121t-147 43q-117 0 -220 -112q-103 -113 -159 -265t-55 -291q0 -139 81 -226q80 -87 206 -87t227 115q100 116 133 284h-338l20 92h445q-35 -244 -169 -416
t-318 -172zM711 1241q-90 0 -161 40t-106 112l64 49q61 -125 217 -125t264 125l53 -49q-141 -152 -331 -152z" />
    <glyph glyph-name="Gcommaaccent.alt1" horiz-adv-x="1167" 
d="M520 -25q-184 0 -296 128t-111 354q0 153 47 315t129 300t209 227t263 89t230 -77q94 -78 137 -201l-102 -39q-35 100 -108 157q-74 56 -168 56q-138 0 -260 -132t-190 -324t-67 -370q0 -178 81 -278t234 -100q154 0 266 138t169 357h-426l23 103h542
q-145 -703 -602 -703zM543 -250q1 -78 -59 -158t-138 -120l-43 47q53 29 95 75t55 91h-13q-27 0 -45 19t-18 52t25 59q26 25 61 25t57 -24t23 -66z" />
    <glyph glyph-name="Gcommaaccent.smcp.alt1" horiz-adv-x="1028" 
d="M486 -25q-184 0 -292 113t-108 291t69 354t197 297q129 121 283 121q236 0 340 -219l-94 -43q-35 78 -101 121t-147 43q-117 0 -220 -112q-103 -113 -159 -265t-55 -291q0 -139 81 -226q80 -87 206 -87t227 115q100 116 133 284h-338l20 92h445q-35 -244 -169 -416
t-318 -172zM475 -250q0 -78 -59 -158t-137 -120l-43 47q53 29 95 75t54 91h-12q-27 0 -45 19t-18 52t25 59q27 25 61 25t57 -23q22 -24 22 -67z" />
    <glyph glyph-name="lslash.alt1" horiz-adv-x="530" 
d="M121 117q0 35 8 67l96 432l-186 -94l22 92l185 95l145 657h103l-134 -598l187 94l-21 -92l-186 -94l-104 -479q-6 -29 -7 -54q0 -76 82 -75q45 0 86 36l25 -79q-55 -49 -132 -49t-123 35q-46 36 -46 106z" />
    <glyph glyph-name="lacute.alt1" horiz-adv-x="462" 
d="M234 -25q-78 0 -123 36t-45 106q0 35 8 67l262 1182h102l-258 -1169q-6 -29 -6 -54q0 -76 82 -75q45 0 86 36l25 -79q-55 -50 -133 -50zM731 1786l-342 -295h-84l303 295h123z" />
    <glyph glyph-name="lcommaaccent.alt1" horiz-adv-x="462" 
d="M234 -25q-78 0 -123 36t-45 106q0 35 8 67l262 1182h102l-258 -1169q-6 -29 -6 -54q0 -76 82 -75q45 0 86 36l25 -79q-55 -50 -133 -50zM158 -250q0 -78 -60 -158t-137 -120l-43 47q53 29 95 75t55 91h-13q-27 0 -45 19t-18 52t25 59q26 25 61 25q36 0 58 -24t22 -66z
" />
    <glyph glyph-name="lcaron.alt1" horiz-adv-x="520" 
d="M234 -25q-78 0 -123 36t-45 106q0 35 8 67l262 1182h102l-258 -1169q-6 -29 -6 -54q0 -76 82 -75q45 0 86 36l25 -79q-55 -50 -133 -50zM729 1300q0 -78 -59 -158t-138 -120l-43 47q53 29 96 75q42 46 54 91h-12q-27 0 -45 19q-18 18 -18 52t25 60q27 26 61 25
q34 0 56 -24t23 -67z" />
    <glyph glyph-name="aacute.alt1" horiz-adv-x="901" 
d="M358 57q137 0 236 131l51 218q-27 70 -90 108t-145 37q-111 0 -180 -92q-68 -93 -68 -199t54 -154t142 -49zM324 -25q-115 0 -194 68q-79 69 -79 215t97 260t241 115q188 0 270 -148l46 195q8 32 8 94q-1 62 -57 106t-152 44q-135 0 -250 -109l-39 78q143 121 291 121
t231 -60q84 -60 84 -174q0 -47 -12 -98l-152 -682h-104l22 104q-104 -129 -251 -129zM918 1434l-343 -295h-83l303 295h123z" />
    <glyph glyph-name="agrave.alt1" horiz-adv-x="901" 
d="M358 57q137 0 236 131l51 218q-27 70 -90 108t-145 37q-111 0 -180 -92q-68 -93 -68 -199t54 -154t142 -49zM324 -25q-115 0 -194 68q-79 69 -79 215t97 260t241 115q188 0 270 -148l46 195q8 32 8 94q-1 62 -57 106t-152 44q-135 0 -250 -109l-39 78q143 121 291 121
t231 -60q84 -60 84 -174q0 -47 -12 -98l-152 -682h-104l22 104q-104 -129 -251 -129zM709 1139h-80l-211 295h119z" />
    <glyph glyph-name="acircumflex.alt1" horiz-adv-x="901" 
d="M358 57q137 0 236 131l51 218q-27 70 -90 108t-145 37q-111 0 -180 -92q-68 -93 -68 -199t54 -154t142 -49zM324 -25q-115 0 -194 68q-79 69 -79 215t97 260t241 115q188 0 270 -148l46 195q8 32 8 94q-1 62 -57 106t-152 44q-135 0 -250 -109l-39 78q143 121 291 121
t231 -60q84 -60 84 -174q0 -47 -12 -98l-152 -682h-104l22 104q-104 -129 -251 -129zM829 1139h-69l-105 229l-196 -229h-78l233 295h107z" />
    <glyph glyph-name="adieresis.alt1" horiz-adv-x="901" 
d="M358 57q137 0 236 131l51 218q-27 70 -90 108t-145 37q-111 0 -180 -92q-68 -93 -68 -199t54 -154t142 -49zM324 -25q-115 0 -194 68q-79 69 -79 215t97 260t241 115q188 0 270 -148l46 195q8 32 8 94q-1 62 -57 106t-152 44q-135 0 -250 -109l-39 78q143 121 291 121
t231 -60q84 -60 84 -174q0 -47 -12 -98l-152 -682h-104l22 104q-104 -129 -251 -129zM522 1235q0 -31 -26 -55t-56 -25q-31 -1 -49 19t-18 51q1 31 25 55t55 25t50 -19t19 -51zM866 1236q0 -30 -24 -56t-56 -25q-31 -1 -50 19t-19 51q1 31 25 55t55 25t50 -19t19 -50z" />
    <glyph glyph-name="atilde.alt1" horiz-adv-x="901" 
d="M358 57q137 0 236 131l51 218q-27 70 -90 108t-145 37q-111 0 -180 -92q-68 -93 -68 -199t54 -154t142 -49zM324 -25q-115 0 -194 68q-79 69 -79 215t97 260t241 115q188 0 270 -148l46 195q8 32 8 94q-1 62 -57 106t-152 44q-135 0 -250 -109l-39 78q143 121 291 121
t231 -60q84 -60 84 -174q0 -47 -12 -98l-152 -682h-104l22 104q-104 -129 -251 -129zM719 1135q-47 1 -74 33t-34 72q-19 106 -79 106q-82 0 -124 -199h-70q59 274 209 274q47 -1 74 -33t33 -72q17 -106 77 -106q82 0 129 199h70q-59 -274 -211 -274z" />
    </font>
</defs>
</svg>
