<?xml version="1.0" standalone="no"?>
<!DOCTYPE svg PUBLIC "-//W3C//DTD SVG 1.1//EN" "http://www.w3.org/Graphics/SVG/1.1/DTD/svg11.dtd" >
<svg xmlns="http://www.w3.org/2000/svg">
<metadata>
Created by FontPrep 20130207 at Tue Jul 21 16:51:28 2015
 By Wendell P. Barreto
Copyright (c) 2009 by Hannes von Doehren. All rights reserved.
</metadata>
<defs>
<font id="31abb7704a87130091ce57face358af8" horiz-adv-x='1024' >
  <font-face 
    font-family="BrandonGrotesque-Black"
    font-weight="500"
    font-stretch="normal"
    units-per-em="2048"
    panose-1="2 11 10 3 2 2 3 6 2 2"
    ascent="1434"
    descent="-614"
    x-height="819"
    cap-height="1434"
    bbox="-338.762 -796.1 2364.85 2156"
    underline-thickness="102"
    underline-position="-102"
    unicode-range="U+0020-FB02"
  />
<missing-glyph horiz-adv-x="1226" 
d="M502 319q0 -41 30 -69t69 -29q40 0 70 29q29 30 29 70t-29 69q-30 29 -70 29q-39 0 -69 -29t-30 -70zM537 643q0 -25 28 -25h74q31 0 31 27v53q0 57 107 124q40 26 74 75t34 109q0 98 -73 162t-193 65q-120 0 -213 -80q-22 -18 -41 -44t-3 -38l46 -45q24 -18 70 33
q45 51 120 51q74 0 108 -31t34 -75t-32 -80q-32 -37 -70 -62q-38 -24 -70 -66t-31 -94v-59zM102 61v1311q0 61 62 62h899q61 0 61 -62v-1311q0 -61 -61 -61h-899q-62 0 -62 61z" />
    <glyph glyph-name="fi" unicode="fi" horiz-adv-x="1169" 
d="M154 39v520h-43q-16 0 -28 11q-11 11 -11 28v182q0 39 39 39h43v191q0 192 124 318t299 126t332 -84q35 -18 17 -55l-88 -168q-23 -43 -58 -27q-111 51 -174 51t-101 -42t-38 -121v-189h553q39 0 39 -39v-741q0 -15 -11 -27t-28 -12h-223q-16 0 -28 11q-11 11 -11 28v520
h-291v-520q0 -44 -76 -40q-20 1 -22 1h-176q-16 0 -28 12q-11 13 -11 27z" />
    <glyph glyph-name="fl" unicode="fl" horiz-adv-x="1212" 
d="M156 39v520h-47q-16 0 -28 11q-11 11 -11 28v182q0 39 39 39h47v191q0 204 126 324t312 120q82 0 159 -31t111 -59l37 -31l27 62q18 39 53 39h82q15 0 27 -12t12 -27v-1356q0 -15 -12 -27t-27 -12h-227q-16 0 -28 12q-11 12 -11 27v1048q-17 25 -67 55t-112 30t-106 -43
q-45 -42 -45 -121v-189h137q16 0 28 -11t11 -28v-182q0 -16 -12 -28t-27 -11h-137v-520q0 -15 -12 -27t-27 -12h-235q-14 0 -26 11q-11 12 -11 28z" />
    <glyph glyph-name="f_f" unicode="ff" horiz-adv-x="1366" 
d="M467 819h324v189q0 29 4 77q-61 72 -149 72t-133 -51q-46 -51 -46 -129v-158zM154 39v520h-43q-16 0 -28 11q-11 11 -11 28v182q0 39 39 39h43v158q0 215 131 336t315 121t303 -101q117 121 303 121q74 0 148 -24t102 -54q25 -20 8 -47l-86 -170q-4 -10 -19 -15t-28 1
q-61 33 -106 33q-121 0 -121 -170v-189h188q39 0 39 -39v-182q0 -16 -11 -28t-28 -11h-188v-520q0 -15 -11 -27t-28 -12h-236q-14 0 -26 12t-12 27v520h-324v-520q0 -15 -12 -27t-27 -12h-235q-16 0 -28 12q-11 13 -11 27z" />
    <glyph glyph-name="f_f_i" unicode="ffi" horiz-adv-x="1806" 
d="M467 819h324v189q0 29 4 77q-61 72 -149 72t-133 -51q-46 -51 -46 -129v-158zM154 39v520h-43q-16 0 -28 11q-11 11 -11 28v182q0 39 39 39h43v158q0 205 129 331t327 126q86 0 160 -25t102 -49l31 -27q117 121 301 121t342 -84q35 -17 17 -55l-95 -180q-18 -29 -51 -15
q-111 51 -174 51t-101 -42t-38 -121v-189h553q39 0 39 -39v-741q0 -15 -12 -27t-27 -12h-223q-16 0 -28 11q-11 11 -11 28v520h-291v-520q0 -15 -11 -27t-28 -12h-236q-14 0 -26 12t-12 27v520h-324v-520q0 -15 -12 -27t-27 -12h-235q-16 0 -28 12q-11 13 -11 27z" />
    <glyph glyph-name="f_f_l" unicode="ffl" horiz-adv-x="1849" 
d="M467 819h324v189q0 29 4 77q-61 72 -149 72t-133 -51q-46 -51 -46 -129v-158zM154 39v520h-43q-16 0 -28 11q-11 11 -11 28v182q0 39 39 39h43v158q0 215 131 336t315 121t303 -101q117 121 332 121q78 0 154 -31t112 -59l37 -31l27 62q14 39 53 39h82q16 0 27 -12
t12 -27v-1356q1 -15 -11 -27t-28 -12h-227q-14 0 -27 12q-12 12 -12 27v1048q-16 25 -66 55t-112 30t-107 -43q-45 -42 -45 -121v-191h137q15 0 27 -11t12 -28v-182q0 -14 -11 -26t-28 -13h-137v-518q0 -15 -11 -27t-28 -12h-236q-14 0 -26 12t-12 27v520h-324v-520
q0 -15 -12 -27t-27 -12h-235q-16 0 -28 12q-11 13 -11 27z" />
    <glyph glyph-name="f_f_h" unicode="ffh" horiz-adv-x="2410" 
d="M467 819h324v189q0 29 4 77q-61 72 -149 72t-133 -51q-46 -51 -46 -129v-158zM154 39v520h-43q-16 0 -28 11q-11 11 -11 28v182q0 39 39 39h43v158q0 205 130 331t315 126t304 -101q117 121 332 121q78 0 154 -31t112 -59l37 -31l27 62q14 39 53 39h82q16 0 27 -12
t12 -27v-602q100 47 190 47q183 0 287 -122t104 -306v-373q0 -15 -11 -27t-28 -12h-217q-16 0 -27 11t-12 28v373q0 70 -42 116t-105 45t-101 -39t-38 -102v-393q1 -15 -11 -27t-28 -12h-227q-14 0 -27 12q-12 12 -12 27v1048q-16 25 -66 55t-112 30t-107 -43
q-45 -42 -45 -121v-191h137q15 0 27 -11t12 -28v-182q0 -14 -11 -26t-28 -13h-137v-518q0 -15 -11 -27t-28 -12h-236q-14 0 -26 12t-12 27v520h-324v-520q0 -15 -12 -27t-27 -12h-235q-16 0 -28 12q-11 13 -11 27z" />
    <glyph glyph-name="f_k" unicode="fk" horiz-adv-x="1732" 
d="M156 39v518h-47q-16 0 -28 11q-11 11 -11 28v182q0 39 39 39h47v193q0 204 128 324t308 120q82 0 160 -31t112 -59l37 -31l27 62q14 39 53 39h82q15 0 27 -12t12 -27v-887l248 287q25 25 51 24h229q27 0 37 -20t-6 -43l-270 -314l327 -381q16 -21 6 -41t-36 -20h-277
q-18 0 -31 16l-278 357v-334q0 -15 -12 -27t-27 -12h-227q-16 0 -28 12q-11 12 -11 27v1048q-17 25 -67 55t-112 30t-106 -43q-45 -42 -45 -121v-191h137q16 0 28 -11t11 -28v-182q0 -14 -12 -26t-27 -13h-137v-518q0 -15 -12 -27t-27 -12h-235q-14 0 -26 11q-11 12 -11 28z
" />
    <glyph glyph-name="f_j" unicode="fj" horiz-adv-x="1169" 
d="M154 39v520h-43q-16 0 -28 11q-11 11 -11 28v182q0 39 39 39h43v191q0 192 124 318t299 126t332 -84q35 -18 17 -55l-88 -168q-23 -43 -58 -27q-111 51 -174 51t-101 -42t-38 -121v-189h553q39 0 39 -39v-968q0 -209 -116 -328t-300 -119q-73 0 -147 25t-103 53
q-25 20 -8 47l86 170q4 10 19 15t28 -1q61 -33 107 -32q129 0 129 170v747h-287v-520q0 -15 -12 -27t-27 -12h-235q-16 0 -28 12q-11 13 -11 27z" />
    <glyph glyph-name="f_f_j" unicode="ffj" horiz-adv-x="1806" 
d="M467 819h324v189q0 29 4 77q-61 72 -149 72t-133 -51q-46 -51 -46 -129v-158zM154 39v520h-43q-16 0 -28 11q-11 11 -11 28v182q0 39 39 39h43v158q0 205 129 331t327 126q86 0 160 -25t102 -49l31 -27q117 121 301 121t342 -84q35 -17 17 -55l-95 -180q-18 -29 -51 -15
q-111 51 -174 51t-101 -42t-38 -121v-189h553q39 0 39 -39v-968q0 -209 -116 -328t-300 -119q-74 0 -148 25t-102 53q-25 20 -8 47l86 170q4 10 19 15t28 -1q61 -33 107 -32q129 0 129 170v747h-287v-520q0 -15 -11 -27t-28 -12h-236q-14 0 -26 12t-12 27v520h-324v-520
q0 -15 -12 -27t-27 -12h-235q-16 0 -28 12q-11 13 -11 27z" />
    <glyph glyph-name="f_b" unicode="fb" horiz-adv-x="1730" 
d="M1231 571q-70 -1 -116 -47t-46 -115t46 -116t116 -47t117 47t47 116t-47 115t-117 47zM156 39v518h-47q-16 0 -28 11q-11 11 -11 28v182q0 39 39 39h47v193q0 196 127 320t309 124q82 0 160 -31t112 -59l37 -31l27 62q14 39 53 39h82q15 0 27 -12t12 -27v-586
q82 31 170 31q172 0 290 -120t118 -304t-117 -311q-117 -126 -289 -125q-80 0 -149 32t-97 64l-29 33q-6 -10 -16 -44q-10 -33 -21 -49t-30 -16h-96q-16 0 -28 12q-11 12 -11 27v1048q-17 25 -67 55t-112 30t-106 -43q-45 -42 -45 -121v-191h137q16 0 28 -11t11 -28v-182
q0 -14 -12 -26t-27 -13h-137v-518q0 -15 -12 -27t-27 -12h-235q-14 0 -26 11q-11 12 -11 28z" />
    <glyph glyph-name="f_f_k" unicode="ffk" horiz-adv-x="2369" 
d="M467 819h324v189q0 29 4 77q-61 72 -149 72t-133 -51q-46 -51 -46 -129v-158zM154 39v520h-43q-16 0 -28 11q-11 11 -11 28v182q0 39 39 39h43v158q0 215 131 336t315 121t303 -101q117 121 326 121q82 0 159 -31t113 -59l37 -31l33 78q8 23 35 23h94q16 0 27 -12t12 -27
v-887l248 287q25 25 51 24h229q27 0 37 -20t-6 -43l-270 -314l327 -381q16 -21 6 -41t-37 -20h-276q-18 0 -31 16l-278 357v-334q1 -15 -11 -27t-28 -12h-227q-14 0 -27 12q-12 12 -12 27v1048q-16 25 -66 55t-112 30t-107 -43q-45 -42 -45 -121v-191h137q15 0 27 -11
t12 -28v-182q0 -14 -11 -26t-28 -13h-137v-518q0 -15 -11 -27t-28 -12h-236q-14 0 -26 12t-12 27v520h-324v-520q0 -15 -12 -27t-27 -12h-235q-16 0 -28 12q-11 13 -11 27z" />
    <glyph glyph-name="f_h" unicode="fh" horiz-adv-x="1773" 
d="M156 39v518h-47q-16 0 -28 11q-11 11 -11 28v182q0 39 39 39h47v193q0 196 129 320t317 124q78 0 153 -31t109 -59l37 -31l27 62q14 39 53 39h82q15 0 27 -12t12 -27v-602q88 47 190 47q184 0 288 -122t103 -306v-373q0 -15 -12 -27t-26 -12h-218q-16 0 -27 11t-11 28
v373q0 70 -42 116q-43 46 -103 45q-60 1 -101 -33t-41 -108v-393q0 -15 -12 -27t-27 -12h-227q-16 0 -28 12q-11 12 -11 27v1048q-17 25 -67 55t-112 30t-106 -43q-45 -42 -45 -121v-191h137q16 0 28 -11t11 -28v-182q0 -14 -12 -26t-27 -13h-137v-518q0 -15 -12 -27
t-27 -12h-235q-14 0 -26 11q-11 12 -11 28z" />
    <glyph glyph-name="f_f_b" unicode="ffb" horiz-adv-x="2367" 
d="M1868 571q-70 -1 -116 -47t-46 -115t46 -116t116 -47t117 47t47 116t-47 115t-117 47zM467 819h324v189q0 29 4 77q-61 72 -149 72t-133 -51q-46 -51 -46 -129v-158zM154 39v520h-43q-16 0 -28 11q-11 11 -11 28v182q0 39 39 39h43v158q0 205 130 331t315 126t304 -101
q117 121 326 121q82 0 159 -31t113 -59l37 -31l27 62q14 39 53 39h82q16 0 27 -12t12 -27v-586q82 31 172 31q178 0 292 -116q113 -116 113 -304t-116 -315q-117 -126 -289 -125q-80 0 -149 32t-97 64l-29 33q-6 -10 -16 -44q-19 -65 -51 -65h-96q-14 0 -27 12
q-12 12 -12 27v1048q-16 25 -66 55t-112 30t-107 -43q-45 -42 -45 -121v-191h137q15 0 27 -11t12 -28v-182q0 -14 -11 -26t-28 -13h-137v-518q0 -15 -11 -27t-28 -12h-236q-14 0 -26 12t-12 27v520h-324v-520q0 -15 -12 -27t-27 -12h-235q-16 0 -28 12q-11 13 -11 27z" />
    <glyph glyph-name=".notdef" horiz-adv-x="1226" 
d="M502 319q0 -41 30 -69t69 -29q40 0 70 29q29 30 29 70t-29 69q-30 29 -70 29q-39 0 -69 -29t-30 -70zM537 643q0 -25 28 -25h74q31 0 31 27v53q0 57 107 124q40 26 74 75t34 109q0 98 -73 162t-193 65q-120 0 -213 -80q-22 -18 -41 -44t-3 -38l46 -45q24 -18 70 33
q45 51 120 51q74 0 108 -31t34 -75t-32 -80q-32 -37 -70 -62q-38 -24 -70 -66t-31 -94v-59zM102 61v1311q0 61 62 62h899q61 0 61 -62v-1311q0 -61 -61 -61h-899q-62 0 -62 61z" />
    <glyph glyph-name=".null" horiz-adv-x="0" 
 />
    <glyph glyph-name="nonmarkingreturn" horiz-adv-x="681" 
 />
    <glyph glyph-name="space" unicode=" " horiz-adv-x="452" 
 />
    <glyph glyph-name="exclam" unicode="!" horiz-adv-x="643" 
d="M127 173q0 79 57 137t136 58q80 0 138 -58t58 -137t-58 -136t-138 -57t-136 57q-57 57 -57 136zM279 557q-14 0 -26 10q-11 10 -13 23l-101 571v234q1 14 13 26t26 13h287q15 0 27 -12t12 -27v-230l-101 -575q-2 -12 -13 -22t-25 -11h-86z" />
    <glyph glyph-name="quotedbl" unicode="&#x22;" horiz-adv-x="749" 
d="M102 1026q-16 0 -27 11t-12 28v330q-1 14 11 26t28 13h213q19 0 31 -16t6 -36l-98 -325q-8 -31 -37 -31h-115zM473 1026q-14 0 -27 11q-12 11 -12 28v330q0 14 12 26t27 13h213q20 0 32 -16t5 -36l-98 -325q-8 -31 -37 -31h-115z" />
    <glyph glyph-name="numbersign" unicode="#" horiz-adv-x="1095" 
d="M379 492h332l45 329h-328zM106 379q-16 0 -27 11t-11 28v35q0 39 38 39h160l49 329h-149q-14 -1 -26 11t-13 28v35q0 15 12 27t27 12h164l65 467q3 12 13 22t24 11h35q15 0 27 -14t10 -31l-62 -455h330l64 467q2 12 13 22t25 11h33q17 0 29 -14t10 -31l-61 -455h123
q16 0 27 -11t12 -28v-35q1 -16 -11 -27t-28 -12h-140l-47 -329h127q16 0 28 -12t11 -27v-35q0 -16 -12 -28t-27 -11h-143l-47 -346q-4 -33 -39 -33h-33q-18 0 -30 13q-11 13 -9 32l47 334h-332l-45 -346q-4 -33 -38 -33h-33q-20 0 -32 13q-11 14 -7 32l45 334h-146z" />
    <glyph glyph-name="dollar" unicode="$" horiz-adv-x="1077" 
d="M594 236q49 12 79 46t29 80q0 98 -108 173v-299zM358 1092q0 -92 113 -160v266q-49 -6 -81 -37t-32 -69zM61 1047q0 159 110 273t308 132v66q0 16 11 27t28 11h35q15 0 27 -11t12 -27v-68q203 -18 381 -150q16 -10 18 -32t-6 -33l-119 -172q-25 -35 -55 -12q-4 2 -74 47
t-145 73v-288q434 -172 434 -480q0 -163 -120 -283t-318 -138v-213q0 -13 -11 -25t-28 -12h-35q-16 0 -28 11q-11 11 -11 26v213q-256 18 -393 155q-16 19 -20 27t10 31l88 155q33 59 78 27q133 -88 237 -123l2 332q-157 64 -272 165q-66 56 -105 133t-39 163z" />
    <glyph glyph-name="percent" unicode="%" horiz-adv-x="1349" 
d="M999 328q-29 0 -49 -22t-20 -49t20 -49t49 -22t51 20t21 50q1 28 -21 50t-51 22zM723 257q0 114 81 195q82 80 196 80t196 -80t82 -196q0 -115 -82 -196q-82 -80 -197 -80t-195 82t-81 195zM313 1108q29 0 49 22t21 50q0 29 -22 49q-21 20 -49 20t-50 -20t-20 -49
q0 -28 21 -50t50 -22zM1081 1434q23 0 34 -18t1 -38l-706 -1358q-16 -20 -35 -20h-152q-23 0 -34 18t-1 37l703 1358q12 20 35 21h155zM313 903q-115 0 -195 81t-81 196q0 114 81 194q82 80 196 80t195 -80t81 -194t-81 -196q-81 -81 -196 -81z" />
    <glyph glyph-name="ampersand" unicode="&#x26;" horiz-adv-x="1431" 
d="M436 396q0 -60 56 -110t137 -50q140 0 215 92l6 12l-268 285q-17 -6 -47 -25q-30 -20 -49 -43q-18 -23 -34 -61q-16 -40 -16 -100zM793 1094q0 52 -43 92q-44 39 -104 39t-93 -30t-33 -62t5 -45t7 -19t10 -17q8 -10 11 -16q4 -6 14 -17t23 -27t24 -27l45 -45q14 6 37 19
t60 58t37 97zM143 369q0 83 29 155t70 117q89 97 153 125l29 14v6l-41 43q-135 141 -135 281t106 242t286 102t297 -99q118 -99 118 -232t-69 -219q-69 -85 -112 -117q-43 -33 -43 -37l185 -189q41 65 58 125q18 60 24 71t23 21t42 -4l150 -53q37 -12 38 -45t-12 -49
q-42 -116 -106 -221l-23 -35l174 -162q16 -17 22 -25q19 -24 -26 -69l-114 -117q-45 -41 -92 6l-134 133l-17 -17q-11 -11 -72 -52t-166 -65q-105 -23 -191 -23q-195 0 -323 114t-128 275z" />
    <glyph glyph-name="quotesingle" unicode="'" horiz-adv-x="374" 
d="M102 1026q-16 0 -27 11t-12 28v330q-1 14 11 26t28 13h211q19 0 31 -16t6 -36l-98 -325q-8 -31 -37 -31h-113z" />
    <glyph glyph-name="parenleft" unicode="(" horiz-adv-x="704" 
d="M76 649q0 774 520 801q16 2 28 -9t13 -28l8 -174q0 -31 -27 -39q-125 -39 -180 -177t-55 -379t55 -378t180 -178q27 -12 27 -39l-8 -172q-4 -39 -41 -39q-520 37 -520 811z" />
    <glyph glyph-name="parenright" unicode=")" horiz-adv-x="704" 
d="M629 649q0 -774 -520 -811q-16 0 -29 11q-12 11 -12 26l-9 176q1 9 9 21t18 16q125 41 180 178q56 137 56 378t-56 379t-180 177q-27 8 -27 39l9 174q0 15 12 27t29 10q520 -27 520 -801z" />
    <glyph glyph-name="asterisk" unicode="*" horiz-adv-x="745" 
d="M328 711q-16 0 -28 11q-11 11 -11 28l4 184l-152 -105q-12 -8 -28 -5t-25 16l-45 71q-23 35 10 56l176 104l-176 107q-31 20 -12 55q33 49 49 72q25 29 51 8l152 -105l-4 187q0 14 11 26t28 13h84q14 0 26 -12t13 -27l-5 -187l154 105q33 20 53 -10l45 -70
q25 -37 -10 -57l-176 -105l176 -106q33 -20 12 -54l-51 -71q-8 -12 -23 -16t-28 5l-152 103l5 -182q-1 -16 -13 -28t-26 -11h-84z" />
    <glyph glyph-name="plus" unicode="+" horiz-adv-x="1089" 
d="M434 299v299h-299q-16 0 -27 12t-12 27v143q0 14 12 26t27 13h299v301q0 14 11 26t28 11h143q16 0 28 -11t11 -26v-301h301q14 0 26 -11t11 -28v-143q0 -15 -11 -27t-26 -12h-301v-299q0 -13 -11 -25t-28 -12h-143q-16 0 -28 11q-11 12 -11 26z" />
    <glyph glyph-name="comma" unicode="," horiz-adv-x="567" 
d="M57 171q1 79 61 136t152 57t167 -75q75 -76 75 -234q0 -264 -233 -467q-44 -44 -70 -12l-43 49q-29 31 4 58q182 152 184 319q-44 -22 -114 -22t-126 56t-57 135z" />
    <glyph glyph-name="hyphen" unicode="-" horiz-adv-x="735" 
d="M133 365q-16 0 -28 10q-11 10 -11 26v187q0 39 39 39h469q39 0 39 -39v-187q0 -16 -11 -26t-28 -10h-469z" />
    <glyph glyph-name="period" unicode="." horiz-adv-x="499" 
d="M249 -20q-79 0 -137 57t-57 136q-1 79 57 137t137 58t137 -58t58 -137t-58 -136t-137 -57z" />
    <glyph glyph-name="slash" unicode="/" horiz-adv-x="761" 
d="M487 1434h201q23 0 33 -16t4 -36l-399 -1355q-8 -27 -37 -27h-203q-20 0 -32 15q-11 16 -5 36l402 1356q8 27 36 27z" />
    <glyph glyph-name="zero" unicode="0" horiz-adv-x="1277" 
d="M639 276q94 0 144 109q51 109 51 311t-50 311t-145 109q-94 0 -144 -110q-51 -110 -51 -311q0 -203 50 -311t145 -108zM639 -20q-250 0 -387 189t-137 527t137 528t387 189q250 0 387 -189q137 -190 137 -528t-137 -527t-387 -189z" />
    <glyph glyph-name="one" unicode="1" horiz-adv-x="765" 
d="M285 39v922h-197q-14 0 -26 11q-11 11 -11 27v129q0 18 12 31l299 234h189q13 1 25 -11t12 -28v-1315q0 -15 -11 -27t-26 -12h-227q-16 0 -28 11q-11 12 -11 28z" />
    <glyph glyph-name="two" unicode="2" horiz-adv-x="1052" 
d="M47 39v41q354 465 543 751q53 81 53 149t-49 112t-143 43q-94 0 -187 -103q-29 -29 -57 0l-125 127q-29 25 -2 53q17 22 89 83t163 90q90 29 157 28q213 0 339 -119t126 -295q0 -74 -26 -155t-110 -203q-84 -121 -168 -233t-105 -146h360q15 0 27 -12t12 -27v-184
q0 -15 -11 -27t-28 -12h-819q-16 0 -28 11q-11 12 -11 28z" />
    <glyph glyph-name="three" unicode="3" horiz-adv-x="1058" 
d="M454 252q83 0 138 49t55 117t-66 116q-67 48 -178 48h-114q-14 0 -27 12q-12 12 -12 27v170q0 16 11 27t28 11h114q104 0 162 44q57 44 57 112t-48 112t-115 44q-106 0 -178 -82q-25 -29 -56 -2l-125 123q-34 29 31 83q183 150 364 150t310 -103t129 -272
q0 -108 -66 -194t-145 -123v-6q90 -39 169 -132t79 -212q0 -168 -133 -280t-344 -111q-120 0 -218 36t-142 72q-44 35 -68 67t-3 58l130 129q25 25 51 4q127 -94 210 -94z" />
    <glyph glyph-name="four" unicode="4" horiz-adv-x="1228" 
d="M676 543v381l-326 -381h326zM68 289q-16 0 -28 11q-11 11 -11 28v217l714 858q12 12 31 12h148q16 0 27 -11t12 -28l2 -839h161q16 -1 28 -11t11 -26v-170q0 -16 -11 -28t-28 -11h-161l2 -252q1 -15 -11 -27t-28 -12h-219q-14 0 -27 12q-12 12 -12 27v250h-600z" />
    <glyph glyph-name="five" unicode="5" horiz-adv-x="1079" 
d="M517 254q91 0 147 55q55 55 55 141t-57 141q-57 56 -154 56h-315q-29 0 -47 23q-17 23 -17 49v635q0 16 11 27t28 12h659q15 1 27 -11t12 -28v-180q0 -16 -11 -28t-28 -11h-421v-220h145q209 0 338 -131q129 -130 129 -330t-146 -337t-360 -137q-141 0 -248 54t-158 116
q-35 39 -4 69l129 127q23 23 50 6q145 -98 236 -98z" />
    <glyph glyph-name="six" unicode="6" horiz-adv-x="1101" 
d="M369 460q0 -81 57 -139q57 -59 139 -59q81 0 139 58t58 140q0 81 -57 139t-139 58t-140 -58q-57 -58 -57 -139zM76 537q0 170 56 318q56 147 134 243t206 192t292 148q47 16 63 -33l60 -158q14 -43 -39 -59q-367 -117 -412 -336q96 41 195 41q159 0 283 -116
q124 -117 124 -319t-138 -340t-331 -138q-231 0 -362 156t-131 401z" />
    <glyph glyph-name="seven" unicode="7" horiz-adv-x="1011" 
d="M76 39v22l512 1069h-475q-15 0 -27 12t-12 27v185q0 14 12 26t27 13h864q15 -1 27 -13t12 -26v-15l-613 -1280q-29 -59 -84 -59h-202q-16 0 -29 11q-12 12 -12 28z" />
    <glyph glyph-name="eight" unicode="8" horiz-adv-x="1161" 
d="M414 380q0 -62 51 -105q51 -44 115 -44t116 45q52 44 52 106t-44 114t-124 77q-78 -27 -122 -79t-44 -114zM725 1026q0 53 -44 93t-101 40q-56 0 -100 -40t-44 -93q1 -115 144 -170q145 53 145 170zM82 371q0 63 38 137t154 167q33 26 58 40v6q-80 45 -146 127t-65 190
q0 168 131 272q130 104 326 103q196 0 329 -103q133 -104 133 -278t-211 -309v-8q96 -53 173 -141t77 -203q0 -170 -138 -281q-137 -110 -361 -110t-361 110t-137 281z" />
    <glyph glyph-name="nine" unicode="9" horiz-adv-x="1099" 
d="M535 748q82 0 139 58t57 139t-57 139t-139 58q-81 0 -139 -58t-58 -139t58 -139t139 -58zM469 512q-160 0 -284 116t-124 318q1 202 139 341q138 138 330 138q231 0 363 -155q131 -156 131 -402q0 -170 -54 -318t-132 -244t-206 -191q-128 -96 -296 -148q-47 -12 -64 33
l-59 158q-14 43 39 59q367 117 412 336q-96 -41 -195 -41z" />
    <glyph glyph-name="colon" unicode=":" horiz-adv-x="532" 
d="M104 141q0 68 48 116t114 48q68 0 116 -48t48 -116q0 -69 -48 -115t-116 -46t-115 46t-47 115zM266 514q-68 0 -114 47t-48 115q0 68 48 116t114 48q68 0 116 -48t48 -116t-48 -115t-116 -47z" />
    <glyph glyph-name="semicolon" unicode=";" horiz-adv-x="485" 
d="M68 125q0 61 46 104t116 43t128 -58q57 -58 58 -179q0 -209 -191 -367q-25 -18 -45 4l-30 31q-23 25 2 45q143 104 145 246q-35 -14 -89 -14t-97 42t-43 103zM219 514q-68 0 -115 47t-47 115t47 116t115 48t116 -48t48 -116t-48 -115t-116 -47z" />
    <glyph glyph-name="less" unicode="&#x3c;" horiz-adv-x="890" 
d="M35 465v10q0 23 20 35l717 434q20 12 38 2t19 -35v-178q0 -20 -16 -28l-391 -232l391 -223q16 -8 16 -29v-178q0 -25 -18 -35t-39 2l-717 420q-20 12 -20 35z" />
    <glyph glyph-name="equal" unicode="=" horiz-adv-x="989" 
d="M147 246q-16 0 -27 11t-11 28v145q0 16 11 28t27 11h695q16 0 27 -11t12 -28v-145q1 -15 -11 -27t-28 -12h-695zM147 678q-16 0 -27 11t-11 28v143q0 16 11 28t27 11h695q16 0 27 -11t12 -28v-143q1 -15 -11 -27t-28 -12h-695z" />
    <glyph glyph-name="greater" unicode="&#x3e;" horiz-adv-x="890" 
d="M61 43v178q0 20 17 29l391 223l-391 232q-16 8 -17 28v178q1 25 19 35t39 -2l717 -434q20 -12 20 -35v-10q0 -23 -20 -35l-717 -420q-20 -12 -39 -2t-19 35z" />
    <glyph glyph-name="question" unicode="?" horiz-adv-x="927" 
d="M231 173q-1 79 57 137t137 58t137 -58t58 -137t-58 -136t-137 -57t-137 57t-57 136zM315 557q-16 0 -27 11t-12 28v86q0 56 44 112t98 93q141 98 141 174q0 49 -44 85t-106 36q-61 0 -111 -32t-78 -51t-48 -1l-125 123q-29 25 0 53q10 14 60 54q158 126 341 126t308 -103
t125 -247t-109 -239q-45 -37 -90 -73q-109 -86 -109 -196q0 -16 -11 -28t-27 -11h-220z" />
    <glyph glyph-name="at" unicode="@" horiz-adv-x="2027" 
d="M811 413q0 -79 43 -125q44 -46 106 -46t104 51t42 127t-42 125t-108 49t-105 -51q-40 -51 -40 -130zM53 457q0 436 278 717q277 280 707 280t673 -242t243 -622q0 -222 -109 -406q-55 -92 -152 -148t-225 -56q-178 0 -245 159h-17q-38 -71 -108 -115t-164 -44
q-170 0 -274 126q-103 126 -103 302t111 304t260 128t266 -127q4 9 13 33q28 73 57 73h84q16 0 27 -11t11 -28v-344q0 -119 32 -160t83 -40q84 0 128 104t44 233q0 279 -165 451q-164 172 -482 172t-510 -200t-192 -539q0 -227 130 -411t341 -271q35 -16 24 -47l-61 -168
q-14 -37 -47 -25q-285 93 -471 351t-187 571z" />
    <glyph glyph-name="A" unicode="A" horiz-adv-x="1355" 
d="M522 492h312l-156 337h-2zM27 0q-23 0 -34 16t-1 37l641 1379q10 23 35 22h20q25 0 35 -22l641 -1379q10 -21 -1 -37t-34 -16h-227q-47 0 -72 51l-74 162h-557l-73 -164q-20 -49 -74 -49h-225z" />
    <glyph glyph-name="B" unicode="B" horiz-adv-x="1253" 
d="M496 293h186q59 0 103 44t44 104q0 61 -52 103t-115 42h-166v-293zM496 852h159q59 0 102 43q42 43 42 103t-42 100t-102 41h-159v-287zM176 39v1356q0 16 11 27t28 12h477q182 0 312 -111t129 -270q0 -107 -73 -191t-165 -133q274 -115 274 -334q0 -171 -130 -283
t-316 -112h-508q-16 0 -28 11q-11 12 -11 28z" />
    <glyph glyph-name="C" unicode="C" horiz-adv-x="1378" 
d="M72 715q0 307 216 523t513 216t506 -190q31 -29 2 -58l-160 -166q-27 -25 -51 0q-117 104 -283 104q-167 0 -281 -123q-114 -124 -114 -297t116 -295t282 -122t280 99q29 25 53 -3l160 -170q27 -27 -2 -55q-205 -198 -505 -198t-516 214t-216 521z" />
    <glyph glyph-name="D" unicode="D" horiz-adv-x="1505" 
d="M496 303h196q172 0 286 120t114 295t-114 295t-286 120h-196v-830zM176 39v1356q0 16 11 27t26 12h500q297 0 508 -210t211 -506t-211 -507t-508 -211h-500q-14 0 -26 11q-11 12 -11 28z" />
    <glyph glyph-name="E" unicode="E" horiz-adv-x="1200" 
d="M176 39v1356q0 16 11 27t28 12h848q15 0 27 -12t12 -27v-224q0 -16 -11 -27t-28 -11h-567v-254h467q16 1 27 -11t11 -28v-224q0 -16 -11 -27t-27 -11h-467v-277h567q15 0 27 -11t12 -28v-223q0 -15 -11 -27t-28 -12h-848q-16 0 -28 11q-11 12 -11 28z" />
    <glyph glyph-name="F" unicode="F" horiz-adv-x="1153" 
d="M176 39v1356q0 16 11 27t28 12h848q15 0 27 -12t12 -27v-224q0 -16 -11 -27t-28 -11h-567v-295h467q16 0 27 -12t11 -27v-224q0 -14 -11 -26t-27 -12h-467v-498q0 -15 -12 -27t-27 -12h-242q-16 0 -28 11q-11 12 -11 28z" />
    <glyph glyph-name="G" unicode="G" horiz-adv-x="1437" 
d="M883 459q-39 0 -39 37v202q0 39 39 39h411q14 0 26 -11t11 -28l2 -551q0 -20 -16 -32q-25 -14 -68 -37t-176 -60t-264 -36q-307 0 -521 213t-214 520t215 522t520 215q129 0 262 -51t238 -141q33 -27 4 -56l-162 -172q-27 -23 -55 -2q-106 98 -270 98t-284 -122
q-118 -122 -118 -290q0 -169 119 -289t286 -120q100 0 183 33v119h-129z" />
    <glyph glyph-name="H" unicode="H" horiz-adv-x="1581" 
d="M176 39v1356q0 14 12 26t27 13h244q16 0 27 -12t12 -27v-516h585v516q-1 16 11 27t28 12h244q14 0 26 -12t13 -27v-1356q0 -15 -12 -27t-27 -12h-244q-16 0 -27 11t-12 28v539h-585v-539q0 -15 -12 -27t-27 -12h-244q-14 0 -27 12q-12 13 -12 27z" />
    <glyph glyph-name="I" unicode="I" horiz-adv-x="675" 
d="M176 39v1356q0 14 12 26t27 13h246q14 0 26 -12t13 -27v-1356q0 -15 -12 -27t-27 -12h-246q-14 0 -27 12q-12 13 -12 27z" />
    <glyph glyph-name="J" unicode="J" horiz-adv-x="868" 
d="M267 274q54 0 91 42t37 114v965q-1 16 11 27t28 12h250q16 0 28 -12t11 -27v-967q0 -207 -127 -328q-128 -121 -316 -121t-309 150q-16 27 4 51l140 137q29 27 55 0q43 -43 97 -43z" />
    <glyph glyph-name="K" unicode="K" horiz-adv-x="1378" 
d="M176 49v1335q0 20 14 34t35 16h240q21 0 35 -14t14 -36v-538l455 567q16 20 39 21h258q29 0 41 -27t-4 -49l-480 -600l523 -680q16 -24 3 -50t-42 -26h-283q-27 0 -37 14l-473 643v-610q0 -21 -14 -35t-35 -14h-240q-20 0 -35 14q-14 15 -14 35z" />
    <glyph glyph-name="L" unicode="L" horiz-adv-x="1046" 
d="M176 39v1356q0 16 11 27t28 12h244q16 0 27 -12t12 -27v-1094h487q15 0 27 -11t12 -28v-223q0 -15 -11 -27t-28 -12h-770q-16 0 -28 11q-11 12 -11 28z" />
    <glyph glyph-name="M" unicode="M" horiz-adv-x="1798" 
d="M354 1454h33q25 0 35 -20l475 -885h4l475 885q10 20 35 20h33q33 0 37 -33l231 -1376q2 -21 -9 -33t-30 -12h-241q-14 0 -26 10q-11 10 -13 23l-93 633h-4l-344 -664q-10 -23 -34 -22h-37q-25 0 -35 22l-346 664h-4l-90 -633q-4 -33 -39 -33h-242q-18 0 -30 12
q-11 13 -9 33l231 1376q4 33 37 33z" />
    <glyph glyph-name="N" unicode="N" horiz-adv-x="1583" 
d="M213 1454h51l817 -786h2v727q-1 16 11 27t28 12h246q16 0 28 -12t11 -27v-1379q0 -14 -11 -25t-28 -11h-33q-16 0 -26 10l-809 813h-2v-764q0 -15 -12 -27t-27 -12h-244q-14 0 -27 12q-12 13 -12 27l-2 1378q0 13 11 25t28 12z" />
    <glyph glyph-name="O" unicode="O" horiz-adv-x="1615" 
d="M399 716q0 -169 120 -289t288 -120t289 120t121 289t-121 290q-121 120 -289 120t-288 -120t-120 -290zM72 715q0 307 214 523t521 216t522 -216t215 -523t-215 -521t-522 -214t-521 214t-214 521z" />
    <glyph glyph-name="P" unicode="P" horiz-adv-x="1206" 
d="M496 819h194q68 0 115 47q47 46 47 112t-47 110t-115 45h-194v-314zM176 39v1356q0 16 11 27t28 12h494q188 0 323 -134t135 -321t-134 -323t-322 -136h-215v-481q0 -15 -12 -27t-27 -12h-242q-16 0 -28 11q-11 12 -11 28z" />
    <glyph glyph-name="Q" unicode="Q" horiz-adv-x="1622" 
d="M399 716q0 -169 120 -289t288 -120t289 120t121 289t-121 290q-121 120 -289 120t-288 -120t-120 -290zM72 715q0 307 214 523t521 216t522 -216t215 -523q0 -197 -103 -369t-276 -276l265 -414q12 -20 2 -40t-35 -22h-277q-20 0 -33 21l-217 367q-25 -2 -63 -2
q-307 0 -521 214t-214 521z" />
    <glyph glyph-name="R" unicode="R" horiz-adv-x="1372" 
d="M498 821h303q63 0 109 49q46 50 46 114t-46 110t-109 47h-303v-320zM176 39v1356q0 16 11 27t28 12h612q183 0 315 -130t132 -313q0 -137 -83 -247t-220 -164l280 -521q12 -19 1 -39t-35 -20h-273q-23 0 -33 18l-272 543h-141v-522q0 -15 -12 -27t-27 -12h-244
q-16 0 -28 11q-11 12 -11 28z" />
    <glyph glyph-name="S" unicode="S" horiz-adv-x="1122" 
d="M565 264q47 0 87 35t40 88q0 123 -211 207q-397 158 -397 453q0 167 125 287t351 120t435 -154q17 -10 19 -32t-6 -33l-105 -158q-12 -18 -34 -27q-21 -9 -29 -4t-34 23t-107 60q-82 42 -147 44q-66 1 -103 -30t-37 -81t51 -96t172 -96q414 -164 414 -467
q-1 -167 -135 -295t-349 -128q-174 0 -290 51t-171 106q-16 15 -18 25t8 33l96 170q10 18 35 20t35 -8l14 -8q147 -105 291 -105z" />
    <glyph glyph-name="T" unicode="T" 
d="M360 39v1094h-292q-16 0 -28 11q-11 11 -11 27v224q0 16 11 27t28 12h909q15 0 27 -12t12 -27v-224q0 -16 -11 -27t-28 -11h-293v-1094q0 -15 -12 -27t-27 -12h-246q-15 0 -27 12t-12 27z" />
    <glyph glyph-name="U" unicode="U" horiz-adv-x="1476" 
d="M156 549v846q0 14 12 26t27 13h251q16 0 28 -12t11 -27v-830q0 -109 72 -183q71 -74 181 -75q110 0 183 75t72 183v830q-1 16 11 27t28 12h252q14 0 26 -12t13 -27v-846q0 -233 -172 -401t-413 -168q-242 0 -412 168t-170 401z" />
    <glyph glyph-name="V" unicode="V" horiz-adv-x="1355" 
d="M299 1434q27 0 35 -23l338 -747h12l338 747q8 23 35 23h272q23 0 34 -16t1 -38l-643 -1378q-12 -23 -35 -22h-20q-23 -1 -35 22l-639 1378q-10 20 1 36t34 18h272z" />
    <glyph glyph-name="W" unicode="W" horiz-adv-x="1835" 
d="M326 1434q29 0 36 -29l177 -694h8l317 721q12 23 35 22h37q27 0 35 -22l317 -721h8l177 694q8 29 36 29h240q23 0 33 -14t4 -36l-387 -1376q-6 -29 -37 -28h-33q-23 0 -35 22l-374 838h-7l-372 -838q-12 -23 -35 -22h-33q-31 -1 -37 28l-387 1376q-6 20 4 34t33 16h240z
" />
    <glyph glyph-name="X" unicode="X" horiz-adv-x="1341" 
d="M399 1434q18 0 33 -19l236 -381h2l239 381q8 18 33 19h299q27 0 38 -18t-3 -40l-416 -641l430 -678q14 -21 3 -39t-36 -18h-284q-25 0 -35 18l-268 414h-4l-263 -414q-14 -18 -34 -18h-285q-27 0 -38 18t3 39l430 678l-413 641q-12 20 -3 39q10 18 37 19h299z" />
    <glyph glyph-name="Y" unicode="Y" horiz-adv-x="1208" 
d="M440 39v651l-452 684q-12 20 -2 40t34 20h267q18 0 32 -19l285 -420l285 420q14 18 33 19h266q25 0 35 -20t-2 -40l-459 -682v-653q0 -15 -12 -27t-27 -12h-244q-15 0 -27 12t-12 27z" />
    <glyph glyph-name="Z" unicode="Z" horiz-adv-x="1110" 
d="M47 39v37l545 1052v5h-447q-14 0 -26 11t-13 27v224q0 14 12 26t27 13h871q16 0 27 -12t12 -27v-27l-527 -1063v-4h447q16 0 27 -11t12 -28v-223q0 -15 -12 -27t-27 -12h-889q-16 0 -28 12q-11 13 -11 27z" />
    <glyph glyph-name="bracketleft" unicode="[" horiz-adv-x="739" 
d="M406 -375h260q16 0 27 -11t12 -26v-166q-1 -16 -13 -27t-26 -11h-504q-14 0 -27 11q-12 11 -12 27v1973q0 14 12 26t27 13h504q14 0 26 -12t13 -27v-164q1 -15 -11 -27t-28 -12h-260v-1567z" />
    <glyph glyph-name="backslash" unicode="\" horiz-adv-x="761" 
d="M274 1434q29 0 37 -27l402 -1356q6 -19 -5 -35t-32 -16h-203q-29 0 -37 27l-399 1355q-6 20 4 36t33 16h200z" />
    <glyph glyph-name="bracketright" unicode="]" horiz-adv-x="739" 
d="M74 -375h260v1567h-260q-16 0 -28 11q-11 11 -11 28v164q0 14 11 26t28 13h504q16 0 27 -12t11 -27v-1973q0 -16 -11 -27t-27 -11h-504q-16 0 -28 11q-11 11 -11 27v166q0 14 11 26q12 11 28 11z" />
    <glyph glyph-name="asciicircum" unicode="^" horiz-adv-x="1073" 
d="M102 774q-24 0 -34 18t2 39l432 611q12 20 35 20h10q23 0 35 -20l422 -611q12 -20 2 -38t-35 -19h-178q-20 0 -29 17l-225 305l-230 -305q-8 -16 -28 -17h-179z" />
    <glyph glyph-name="underscore" unicode="_" horiz-adv-x="882" 
d="M848 -164q0 -35 -39 -37h-735q-16 1 -28 11t-11 26v105q0 39 39 39h735q39 0 39 -39v-105z" />
    <glyph glyph-name="grave" unicode="`" horiz-adv-x="618" 
d="M475 1049l-373 168q-33 20 -12 61l70 121q6 12 25 13t28 -7l348 -213q23 -18 12 -39l-43 -86q-20 -41 -55 -18z" />
    <glyph glyph-name="a" unicode="a" horiz-adv-x="878" 
d="M322 269q0 -37 26 -63t62 -26q38 0 64 27t25 63t-27 61t-62 25t-63 -25q-25 -26 -25 -62zM356 524q86 0 158 -32q0 66 -20 94t-108 26q-88 0 -187 -30q-41 -14 -49 43l-19 129q-8 43 31 55q20 6 110 18t162 13q188 0 267 -82t79 -266v-453q0 -15 -11 -27t-28 -12h-90
q-25 0 -37 27l-28 55q-113 -102 -242 -102t-209 74t-80 196t82 198t219 76z" />
    <glyph glyph-name="b" unicode="b" 
d="M547 575q-70 -1 -117 -47t-47 -117t47 -119t117 -48t118 48t48 119t-48 117t-118 47zM111 39v1356q0 14 12 26t27 13h227q16 0 27 -12t12 -27v-594q68 39 170 39q174 0 291 -112t117 -304t-117 -319q-117 -126 -289 -125q-80 0 -149 32t-97 64l-29 33l-24 -68
q-14 -41 -43 -41h-96q-14 0 -27 12q-12 13 -12 27z" />
    <glyph glyph-name="c" unicode="c" horiz-adv-x="860" 
d="M487 -20q-178 0 -309 124t-131 304t132 306t314 126t304 -148q23 -29 -11 -57l-122 -117q-8 -8 -22 -6t-24 10q-50 53 -118 53t-116 -49q-48 -50 -48 -118t46 -116t118 -48t135 63q25 25 45 8l123 -106q33 -31 14 -57q-115 -172 -330 -172z" />
    <glyph glyph-name="d" unicode="d" 
d="M498 244q70 0 116 48t48 119q0 71 -48 117t-116 47q-70 -1 -118 -47t-48 -117t48 -119t118 -48zM51 424q0 192 117 304t291 112q102 0 170 -39v594q0 14 11 26t28 13h227q15 0 27 -12t12 -27v-1356q0 -15 -12 -27t-27 -12h-96q-29 0 -43 41l-25 68q-11 -14 -31 -36
t-92 -58t-151 -35q-172 0 -289 126t-117 318z" />
    <glyph glyph-name="e" unicode="e" horiz-adv-x="899" 
d="M465 621q-41 0 -73 -28t-38 -69h219q-2 39 -34 68q-33 29 -74 29zM49 409q0 177 123 304t292 127t284 -110t114 -275q0 -27 -4 -56q-4 -35 -39 -34h-491q6 -51 46 -93t114 -43q74 0 141 50q31 25 51 0l102 -123q25 -33 -2 -60q-117 -116 -300 -116t-307 126t-124 303z
" />
    <glyph glyph-name="f" unicode="f" horiz-adv-x="729" 
d="M154 39v520h-43q-16 0 -28 11q-11 11 -11 28v182q0 39 39 39h43v189q0 210 116 328t299 118q74 0 148 -24t102 -54q25 -20 8 -47l-86 -170q-4 -10 -19 -15t-28 1q-61 33 -106 33q-121 0 -121 -170v-189h188q39 0 39 -39v-182q0 -16 -11 -28t-28 -11h-188v-520
q0 -15 -12 -27t-27 -12h-235q-16 0 -28 12q-11 13 -11 27z" />
    <glyph glyph-name="g" unicode="g" horiz-adv-x="952" 
d="M336 -299q0 -96 147 -96t148 96q0 86 -148 86q-61 -1 -104 -23t-43 -63zM387 467q0 -45 31 -76t78 -31q48 0 78 30t30 77t-31 77t-77 30t-78 -32q-31 -30 -31 -75zM592 20q147 0 250 -82q102 -83 102 -229t-115 -245t-340 -99t-329 83t-104 204t124 188v6q-27 7 -73 44
q-84 68 -84 184q0 72 40 128q41 56 82 77l41 20q-59 61 -59 195t106 240t254 106h387q39 0 39 -39v-84q0 -25 -22 -35l-119 -43q30 -22 54 -81q24 -58 24 -118q0 -119 -99 -214t-255 -95h-148q-68 0 -67 -55q0 -54 65 -56h246z" />
    <glyph glyph-name="h" unicode="h" horiz-adv-x="1085" 
d="M111 39v1356q0 14 12 26t27 13h227q16 0 27 -12t12 -27v-602q94 47 190 47q184 0 288 -125t103 -305v-371q0 -15 -11 -27t-28 -12h-217q-16 0 -27 11t-12 28v375q0 70 -42 116t-103 45q-61 1 -101 -37t-40 -124v-375q0 -39 -45 -39h-221q-14 0 -27 12q-12 13 -12 27z" />
    <glyph glyph-name="i" unicode="i" horiz-adv-x="524" 
d="M111 39v741q0 16 11 28t28 11h225q16 0 27 -11t12 -28v-741q0 -15 -12 -27t-27 -12h-225q-14 0 -27 12q-12 13 -12 27zM260 1067q-68 0 -115 47t-47 115t47 116t115 48t116 -48t48 -116t-48 -115t-116 -47z" />
    <glyph glyph-name="j" unicode="j" horiz-adv-x="526" 
d="M111 -188v968q0 16 11 28t28 11h227q16 0 27 -11t12 -28v-968q0 -209 -116 -328t-300 -119q-74 0 -148 25t-102 53q-25 20 -8 47l86 170q4 10 19 15t28 -1q61 -33 107 -32q129 0 129 170zM262 1067q-68 0 -115 47t-47 115t47 116t115 48t116 -48t48 -116t-48 -115
t-116 -47z" />
    <glyph glyph-name="k" unicode="k" horiz-adv-x="1046" 
d="M111 39v1356q0 14 12 26t27 13h227q16 0 27 -12t12 -27v-887l248 287q25 25 51 24h229q27 0 37 -20t-6 -43l-270 -314l327 -381q16 -21 6 -41t-37 -20h-276q-18 0 -31 16l-278 357v-334q0 -15 -12 -27t-27 -12h-227q-14 0 -27 12q-12 13 -12 27z" />
    <glyph glyph-name="l" unicode="l" horiz-adv-x="524" 
d="M111 39v1356q0 14 12 26t27 13h225q14 0 26 -12t13 -27v-1356q0 -15 -12 -27t-27 -12h-225q-14 0 -27 12q-12 13 -12 27z" />
    <glyph glyph-name="m" unicode="m" horiz-adv-x="1609" 
d="M111 39v741q0 39 39 39h94q23 0 35 -22l34 -84q123 127 278 127t267 -125q125 125 295 125t268 -122t99 -308v-371q0 -15 -12 -27t-27 -12h-217q-16 0 -28 11q-11 11 -11 28v383q0 66 -35 110q-34 44 -96 43q-62 1 -103 -39t-41 -100v-397q0 -15 -11 -27t-28 -12h-196
q-16 0 -28 11q-11 11 -11 28v383q0 68 -32 110t-95 43q-63 0 -105 -39q-41 -40 -41 -104v-393q0 -15 -11 -27t-27 -12h-215q-16 0 -28 11q-11 12 -11 28z" />
    <glyph glyph-name="n" unicode="n" horiz-adv-x="1081" 
d="M111 39v741q0 16 11 28t28 11h96q27 0 37 -24l32 -82q117 127 294 127t281 -122t103 -306v-373q0 -15 -11 -27t-28 -12h-219q-16 0 -27 11t-12 28v383q0 66 -37 110t-101 43q-64 0 -111 -40q-46 -41 -46 -103v-393q0 -39 -36 -39h-215q-14 0 -27 12q-12 13 -12 27z" />
    <glyph glyph-name="o" unicode="o" horiz-adv-x="946" 
d="M473 575q-68 1 -115 -47t-47 -117t47 -118t115 -49t115 49t47 118t-47 117t-115 47zM47 411q0 175 126 302t300 127t300 -127t126 -302t-126 -303t-300 -128t-300 128t-126 303z" />
    <glyph glyph-name="p" unicode="p" 
d="M547 575q-70 1 -117 -47t-47 -119t47 -118t117 -47t118 47t48 118t-48 119t-118 47zM416 -575q0 -15 -12 -27t-27 -12h-227q-14 0 -27 12q-12 12 -12 27v1355q0 14 12 26t27 13h96q29 0 43 -41l24 -67q11 13 31 35t92 58t152 36q172 0 289 -126t117 -318t-118 -305
q-116 -112 -290 -111q-102 -1 -170 38v-593z" />
    <glyph glyph-name="q" unicode="q" 
d="M498 244q70 0 116 47t48 118q0 71 -48 119t-116 47q-70 1 -118 -47t-48 -119t48 -118t118 -47zM51 396q0 192 117 318t289 126q81 0 149 -33t96 -66l29 -30l25 67q14 41 43 41h96q15 0 27 -12t12 -27v-1355q0 -15 -12 -27t-27 -12h-227q-16 0 -28 12q-11 12 -11 27v593
q-68 -39 -170 -38q-174 0 -291 112t-117 304z" />
    <glyph glyph-name="r" unicode="r" horiz-adv-x="706" 
d="M111 39v741q0 16 11 28t28 11h96q25 0 37 -24l36 -90q94 135 218 135t165 -45q18 -20 5 -43l-101 -164q-16 -29 -43 -19q-27 11 -63 11t-66 -33q-31 -33 -31 -84v-424q0 -39 -45 -39h-208q-14 0 -27 12q-12 13 -12 27z" />
    <glyph glyph-name="s" unicode="s" horiz-adv-x="759" 
d="M367 195q39 0 39 36q0 45 -117 86q-229 80 -230 275q0 108 81 178t246 70t265 -64q37 -25 21 -51l-76 -139q-12 -25 -43 -13q-94 47 -174 48q-45 0 -45 -31t116 -72t187 -102q70 -61 70 -175q-1 -114 -91 -188t-270 -74t-264 68q-27 23 -14 43l71 141q3 11 17 17t26 0
q96 -53 185 -53z" />
    <glyph glyph-name="t" unicode="t" horiz-adv-x="704" 
d="M53 780q0 39 37 39h53v228q1 14 13 26t26 12h219q13 0 25 -11t12 -27v-228h152q39 0 39 -39v-182q1 -16 -11 -28t-28 -11h-152v-256q0 -49 56 -49q8 0 79 14q37 6 45 -26l46 -170q8 -37 -27 -47q-145 -45 -255 -45t-174 72t-65 212v295h-53q-14 0 -25 11t-12 28v182z" />
    <glyph glyph-name="u" unicode="u" 
d="M92 410v370q0 16 11 28t28 11h219q16 0 28 -11t11 -28v-379q0 -65 35 -111t94 -46t92 44t33 101v391q0 39 43 39h209q15 0 27 -11t12 -28v-741q0 -15 -12 -27t-27 -12h-96q-27 0 -39 29l-31 75q-43 -43 -63 -59t-80 -41t-133 -24q-174 0 -268 121q-93 123 -93 309z" />
    <glyph glyph-name="v" unicode="v" horiz-adv-x="872" 
d="M43 819h229q27 0 37 -22l121 -279h6l129 279q9 16 19 19t37 3h206q23 0 34 -17t1 -38l-389 -764q-12 -20 -35 -20h-10q-23 0 -35 20l-385 764q-10 20 1 38t34 17z" />
    <glyph glyph-name="w" unicode="w" horiz-adv-x="1267" 
d="M57 819h195q31 0 37 -24l106 -281h2l195 309q10 16 33 17h20q23 0 31 -17l196 -309h2l105 281q10 25 41 24h190q23 0 34 -15t3 -36l-272 -764q-6 -25 -37 -24h-8q-25 0 -33 16l-264 410h-2l-260 -410q-12 -16 -33 -16h-10q-31 -1 -35 24l-273 764q-8 20 4 36t33 15z" />
    <glyph glyph-name="x" unicode="x" horiz-adv-x="960" 
d="M70 0q-27 0 -36 20t5 41l266 357l-258 340q-16 20 -6 40t37 21h252q25 0 32 -16l115 -168h6l117 168q8 16 33 16h252q27 0 37 -20t-7 -41l-258 -338l261 -359q14 -21 4 -41t-35 -20h-248q-16 0 -31 18l-125 177h-6q-49 -72 -131 -179q-12 -16 -33 -16h-243z" />
    <glyph glyph-name="y" unicode="y" horiz-adv-x="952" 
d="M47 819h234q23 0 34 -22l158 -381h4l162 381q8 23 35 22h231q23 0 34 -16t1 -37l-627 -1356q-12 -25 -34 -24h-230q-23 0 -34 17t-1 38l305 643l-307 682q-10 20 1 36t34 17z" />
    <glyph glyph-name="z" unicode="z" horiz-adv-x="755" 
d="M78 780q0 39 37 39h555q24 0 34 -17t1 -38l-259 -498v-4h183q39 0 39 -39v-184q0 -15 -12 -27t-27 -12h-533q-14 0 -26 12t-13 27v20l240 492v4h-182q-14 0 -26 11q-11 11 -11 28v186z" />
    <glyph glyph-name="braceleft" unicode="{" horiz-adv-x="804" 
d="M207 -39v213q0 102 -141 131q-12 2 -22 13q-9 11 -9 24v119q0 29 26 37q16 6 41 15t65 44t40 72v227q0 141 34 249t85 170t123 102q120 67 270 75q37 4 41 -35q7 -119 9 -162q1 -43 -28 -51q-225 -57 -225 -348v-186q0 -117 -112 -216q-26 -24 -44 -36l-18 -10v-9
q85 -34 139 -121q35 -56 35 -124v-193q0 -291 225 -348q29 -8 29 -39q-4 -122 -8 -156t-16 -44q-27 -23 -162 11q-63 15 -135 55t-123 102t-85 170t-34 249z" />
    <glyph glyph-name="bar" unicode="|" horiz-adv-x="356" 
d="M123 -578v2096q0 16 11 27t28 11h35q16 0 26 -11t10 -27v-2096q0 -14 -11 -25t-27 -11h-33q-16 0 -28 11q-11 11 -11 25z" />
    <glyph glyph-name="braceright" unicode="}" horiz-adv-x="804" 
d="M289 670v186q0 291 -226 348q-29 8 -28 39q2 31 5 86t5 88q4 39 41 35q153 -9 270 -75q72 -40 123 -102t85 -170t34 -249v-227q0 -37 37 -70t74 -47l34 -14q27 -8 27 -37v-119q0 -12 -9 -24t-22 -13q-141 -29 -141 -131v-213q0 -141 -34 -249t-85 -170t-145 -114
t-248 -63q-14 -2 -27 8q-12 10 -16 44t-8 157q0 31 28 39q226 57 226 348v193q0 96 56 157t118 88v9q-174 116 -174 262z" />
    <glyph glyph-name="asciitilde" unicode="~" horiz-adv-x="1077" 
d="M715 315q-79 0 -159 44q-19 11 -84 53t-110 43q-68 0 -131 -99q-30 -37 -59 -4l-125 129q-23 27 -4 49q6 8 16 22t45 51q135 138 263 136q74 0 137 -40q39 -24 100 -63q61 -40 118 -40q56 0 126 100q27 35 59 2l119 -125q25 -29 4 -51q-6 -8 -16 -22t-44 -50
q-127 -135 -255 -135z" />
    <glyph glyph-name="uni00A0" unicode="&#xa0;" horiz-adv-x="452" 
 />
    <glyph glyph-name="exclamdown" unicode="&#xa1;" horiz-adv-x="577" 
d="M246 262h86q14 0 25 -10t14 -23l100 -571v-233q0 -15 -12 -27t-27 -12h-287q-14 0 -26 12t-13 27v229l101 575q2 13 13 23t26 10zM290 451q-79 0 -137 58q-59 58 -59 137t58 136q58 58 138 58q79 0 136 -58t57 -136q0 -79 -57 -137t-136 -58z" />
    <glyph glyph-name="cent" unicode="&#xa2;" horiz-adv-x="845" 
d="M324 399q0 -74 63 -123l80 297q-59 -8 -101 -54t-42 -120zM35 410q0 178 132 304t310 126q20 0 62 -4l22 84q10 37 47 26l35 -10q37 -8 27 -47l-23 -86q70 -35 137 -111q25 -33 -10 -57l-123 -117q-8 -8 -22 -6q-15 2 -23 10t-28 25l-82 -301q68 2 127 61q25 25 45 8
l123 -106q33 -31 14 -57q-113 -172 -330 -172q-18 0 -51 4l-53 -201q-3 -15 -17 -23t-30 -4l-33 11q-37 8 -29 45l53 196q-125 47 -203 156t-77 246z" />
    <glyph glyph-name="sterling" unicode="&#xa3;" horiz-adv-x="980" 
d="M123 39v37q125 238 74 516h-88q-14 0 -26 11q-11 11 -11 28v35q0 16 11 27t26 12h63q-59 229 -59 307q-1 210 117 326t314 116t361 -145q31 -23 4 -54l-129 -155q-20 -27 -53 -6q-95 80 -161 80t-104 -38t-38 -92t36 -166q36 -110 48 -173h188q16 1 28 -11t11 -28v-37
q0 -17 -11 -27t-28 -10h-170q14 -170 -18 -318h346q16 0 26 -11t11 -27v-197q0 -15 -11 -27t-26 -12h-692q-14 0 -27 12q-12 13 -12 27z" />
    <glyph glyph-name="currency" unicode="&#xa4;" horiz-adv-x="915" 
d="M545 665q0 37 -25 61q-26 24 -60 24t-59 -25t-25 -61t25 -60t60 -24t59 24t25 61zM84 896q0 18 10 28l103 100q27 27 53 0l104 -104q98 43 207 4l105 104q10 10 27 10t28 -12l100 -100q27 -29 2 -54l-104 -104q41 -104 -2 -211l104 -104q10 -11 9 -27t-11 -27l-100 -100
q-11 -10 -27 -11t-26 9l-109 109q-102 -37 -199 2l-106 -107q-26 -27 -55 0l-101 102q-27 27 0 56l107 106q-37 94 -2 195l-107 108q-10 10 -10 28z" />
    <glyph glyph-name="yen" unicode="&#xa5;" horiz-adv-x="1314" 
d="M1057 524q0 -35 -39 -37h-203v-133h203q16 0 28 -11t11 -28v-36q0 -17 -11 -27t-28 -10h-203v-203q0 -15 -12 -27t-27 -12h-244q-16 0 -27 11t-11 28v203h-207q-14 0 -26 11q-11 11 -11 28v34q0 15 11 27t26 12h207v133h-207q-13 -1 -25 11t-12 28v35q0 15 11 27t26 12
h207v90l-453 684q-12 20 -2 40t35 20h266q18 0 33 -19l284 -420l285 420q14 18 33 19h266q25 0 35 -20t-2 -40l-459 -682v-92h203q16 0 28 -11t11 -28v-37z" />
    <glyph glyph-name="brokenbar" unicode="&#xa6;" horiz-adv-x="602" 
d="M246 100q0 16 11 28t28 11h34q17 0 27 -11t10 -28v-678q0 -14 -11 -25t-28 -11h-32q-16 0 -28 11q-11 11 -11 25v678zM285 803q-16 0 -28 11q-11 11 -11 26v678q0 16 11 27t28 11h34q17 0 27 -11t10 -27v-678q0 -14 -11 -26t-28 -11h-32z" />
    <glyph glyph-name="section" unicode="&#xa7;" horiz-adv-x="1032" 
d="M352 529q0 -79 56 -121t180 -93q57 47 57 146q0 49 -34 87q-33 38 -73 58t-128 60q-58 -58 -58 -137zM631 -116q0 60 -51 103q-51 44 -146 81q-373 150 -373 426q0 174 140 288q-139 125 -139 285q0 159 115 273q116 114 326 114t412 -145q17 -9 19 -29t-6 -31l-109 -159
q-25 -39 -67 -9q-152 106 -263 107q-53 0 -88 -28t-35 -74q1 -97 209 -181q391 -154 392 -438q0 -162 -136 -285q135 -127 135 -288q0 -162 -125 -282q-126 -120 -329 -120q-274 0 -426 143q-31 31 -8 70l74 137q29 51 77 23q2 -1 26 -15q23 -14 49 -26l60 -28
q151 -67 229 -3q38 31 38 91z" />
    <glyph glyph-name="dieresis" unicode="&#xa8;" horiz-adv-x="847" 
d="M213 1096q-59 0 -101 43t-42 102t42 101t101 42t102 -42t43 -101t-43 -102t-102 -43zM633 1096q-59 0 -102 43q-42 43 -42 102t42 101q41 42 101 42t103 -42t43 -101t-43 -102t-102 -43z" />
    <glyph glyph-name="copyright" unicode="&#xa9;" horiz-adv-x="1615" 
d="M816 330q-150 0 -262 112t-112 272t113 272t260 112t246 -78q33 -29 4 -59l-98 -99q-25 -25 -55 -2t-93 23q-61 0 -107 -48t-46 -117t45 -116t106 -47q61 1 92 23t56 -3l102 -102q27 -29 -2 -57q-100 -86 -249 -86zM250 717q0 -231 164 -395t394 -164t393 164t163 395
t-163 394t-394 163t-394 -163t-163 -394zM72 717q0 305 216 521t519 216t520 -217t217 -520t-217 -520t-520 -217t-519 216t-216 521z" />
    <glyph glyph-name="ordfeminine" unicode="&#xaa;" horiz-adv-x="647" 
d="M304 956q28 0 47 20t19 47q0 28 -18 47q-20 20 -48 20t-46 -20t-18 -47t18 -47t46 -20zM279 1214q62 0 104 -14q4 88 -84 88q-63 0 -152 -18q-33 -6 -36 33l-15 86q-4 35 23 43q78 22 211 22t192 -61t60 -199v-340q0 -10 -10 -19t-19 -10h-68q-18 0 -28 21l-21 43
q-82 -78 -182 -78t-160 57q-59 58 -59 148t65 144q66 54 179 54z" />
    <glyph glyph-name="guillemotleft" unicode="&#xab;" horiz-adv-x="1026" 
d="M465 774q27 0 35 -19t-4 -44l-134 -285l127 -301q11 -25 3 -43t-33 -19h-172q-19 1 -31 17l-213 317q-16 23 0 49l223 304q14 25 37 24h162zM911 774q27 0 35 -19t-4 -44l-133 -285l127 -301q12 -25 3 -43t-34 -19h-172q-18 0 -31 17l-213 317q-16 23 0 49l224 304
q14 25 37 24h161z" />
    <glyph glyph-name="logicalnot" unicode="&#xac;" horiz-adv-x="1124" 
d="M104 600q-14 0 -26 11t-12 28v143q0 16 12 28t26 11h820q16 0 27 -12t12 -27v-483q1 -13 -11 -25t-28 -12h-144q-16 0 -27 11t-12 26v301h-637z" />
    <glyph glyph-name="uni00AD" unicode="&#xad;" horiz-adv-x="1024" 
 />
    <glyph glyph-name="registered" unicode="&#xae;" horiz-adv-x="1615" 
d="M719 756h141q27 0 46 20q20 20 20 48t-20 47t-46 20h-141v-135zM524 383v672q0 16 12 27t27 12h332q100 0 176 -74t76 -193q0 -150 -137 -229l82 -199q8 -19 -2 -37t-33 -18h-139q-29 0 -37 29l-76 217h-80v-207q0 -15 -11 -27t-28 -12h-123q-15 0 -27 12t-12 27z
M250 717q0 -231 164 -395t394 -164t393 164t163 395t-163 394t-394 163t-394 -163t-163 -394zM72 717q0 305 216 521t519 216t520 -217t217 -520t-217 -520t-520 -217t-519 216t-216 521z" />
    <glyph glyph-name="macron" unicode="&#xaf;" horiz-adv-x="847" 
d="M162 1153q-39 0 -39 37v84q0 39 39 39h524q39 0 39 -39v-84q0 -16 -11 -26t-28 -11h-524z" />
    <glyph glyph-name="degree" unicode="&#xb0;" horiz-adv-x="614" 
d="M307 1106q29 0 49 22t20 49t-20 49t-49 22t-51 -21q-22 -20 -20 -49q0 -28 21 -50t50 -22zM307 901q-115 0 -195 81t-81 196q0 116 81 196q82 80 196 80t195 -81t81 -195t-81 -196q-81 -81 -196 -81z" />
    <glyph glyph-name="plusminus" unicode="&#xb1;" horiz-adv-x="1140" 
d="M143 119v143q1 16 13 28t26 11h766q14 0 26 -11t11 -28v-143q0 -15 -11 -27t-26 -12h-766q-14 0 -26 12t-13 27zM500 489q-16 -1 -28 11t-11 26v197h-299q-14 0 -27 11q-12 11 -12 28v143q0 15 12 27t27 12h299v301q0 13 11 25t28 12h143q15 0 27 -11t12 -26v-301h301
q13 0 25 -11t12 -28v-143q0 -16 -11 -28t-26 -11h-301v-197q0 -14 -11 -25t-28 -12h-143z" />
    <glyph glyph-name="twosuperior" unicode="&#xb2;" horiz-adv-x="546" 
d="M61 1032q-20 0 -20 19v36l209 252q41 53 41 97q0 59 -64 59q-41 0 -71 -31q-25 -16 -37 9l-45 73q-16 29 -10 38t18 18q74 57 178 57t164 -52q60 -53 61 -139q0 -86 -61 -174l-82 -108h119q20 0 20 -19v-116q0 -18 -20 -19h-400z" />
    <glyph glyph-name="threesuperior" unicode="&#xb3;" horiz-adv-x="524" 
d="M481 1188q-1 -84 -71 -130t-173 -46t-184 59q-25 18 -6 45l47 70q16 23 41 8q29 -23 74 -23q68 0 67 50q0 51 -67 51h-68q-27 4 -26 33v69q0 35 37 35h57q25 0 41 13t16 36q0 45 -59 45q-31 0 -57 -17t-39 3l-54 72q-18 23 2 43q63 55 172 55t170 -46t61 -131t-104 -136
q123 -47 123 -158z" />
    <glyph glyph-name="acute" unicode="&#xb4;" horiz-adv-x="618" 
d="M164 1049q-35 -23 -55 18l-43 86q-10 20 12 39l348 213q8 8 28 7t25 -13l70 -121q20 -41 -12 -61z" />
    <glyph glyph-name="mu" unicode="&#xb5;" horiz-adv-x="1062" 
d="M408 -575q0 -15 -12 -27t-27 -12h-219q-14 0 -27 12q-12 12 -12 27v1355q0 16 11 28t28 11h219q16 0 27 -11t12 -28v-383q4 -59 38 -98t92 -39t91 41t33 96v383q0 39 43 39h208q15 0 27 -11t12 -28v-741q0 -15 -11 -27t-28 -12h-96q-27 0 -39 29l-30 75q-44 -43 -64 -59
t-96 -48t-180 -11v-561z" />
    <glyph glyph-name="paragraph" unicode="&#xb6;" horiz-adv-x="1441" 
d="M461 575q-174 0 -300 125q-126 126 -126 304t116 304t281 126l946 -2q14 0 26 -12t13 -27v-123q0 -16 -11 -28t-28 -11h-125v-1806q0 -15 -11 -27t-28 -12h-145q-16 0 -28 12q-11 12 -11 27v1806h-258v-1806q0 -15 -11 -27t-28 -12h-143q-16 0 -28 12q-11 12 -11 27v1150
h-90z" />
    <glyph glyph-name="periodcentered" unicode="&#xb7;" horiz-adv-x="565" 
d="M281 305q-89 -1 -153 63t-64 154t62 156q64 66 154 66t156 -66t66 -156t-66 -154t-155 -63z" />
    <glyph glyph-name="cedilla" unicode="&#xb8;" horiz-adv-x="505" 
d="M104 0h150v-106q92 -12 140 -68t48 -143t-63 -151t-155 -64t-154 71q-27 29 8 60l47 41q23 23 39 0t47 -23q31 1 49 21t19 45q0 80 -140 86q-35 4 -35 36v195z" />
    <glyph glyph-name="onesuperior" unicode="&#xb9;" horiz-adv-x="417" 
d="M170 1032q-20 0 -20 19v376h-111q-16 0 -16 23v78q0 12 16 22l156 88h129q18 0 18 -18v-569q0 -18 -18 -19h-154z" />
    <glyph glyph-name="ordmasculine" unicode="&#xba;" horiz-adv-x="618" 
d="M309 971q63 -1 63 159t-62 160q-64 0 -64 -160t63 -159zM309 807q-129 0 -199 86q-70 87 -69 239q0 152 70 237q71 85 199 85t198 -85t70 -238t-70 -239t-199 -85z" />
    <glyph glyph-name="guillemotright" unicode="&#xbb;" horiz-adv-x="1026" 
d="M119 63q-25 1 -34 19t3 43l127 301l-133 285q-12 25 -4 44t35 19h161q23 0 37 -24l224 -304q16 -27 0 -49l-213 -317q-12 -16 -31 -17h-172zM559 774h162q23 0 37 -24l223 -304q16 -27 0 -49l-213 -317q-12 -16 -31 -17h-172q-25 1 -33 19t3 43l127 301l-134 285
q-12 25 -4 44t35 19z" />
    <glyph glyph-name="onequarter" unicode="&#xbc;" horiz-adv-x="1286" 
d="M932 250v133l-105 -133h105zM645 131v127l326 342q4 6 14 6h105q18 0 18 -18v-334h80q18 0 18 -16v-105q0 -18 -18 -18h-80v-97q0 -18 -18 -18h-140q-20 0 -20 18v97h-266q-19 0 -19 16zM186 827q-20 0 -20 19v377h-111q-16 0 -16 22v78q0 12 16 23l156 88h129
q18 0 18 -19v-569q0 -18 -18 -19h-154zM1001 1434q23 0 34 -18t1 -38l-706 -1358q-10 -20 -35 -20h-113q-23 0 -34 18t-1 37l705 1358q10 20 35 21h114z" />
    <glyph glyph-name="onehalf" unicode="&#xbd;" horiz-adv-x="1300" 
d="M756 18v37l209 252q41 53 41 96q0 59 -64 60q-41 0 -72 -31q-25 -16 -36 8l-46 74q-16 29 -10 38t19 17q74 57 178 57q105 0 165 -52t60 -138t-61 -174l-82 -108h119q20 0 20 -19v-117q0 -18 -20 -18h-400q-20 0 -20 18zM186 827q-20 0 -20 19v377h-111q-16 0 -16 22v78
q0 12 16 23l156 88h129q18 0 18 -19v-569q0 -18 -18 -19h-154zM1001 1434q23 0 34 -18t1 -38l-706 -1358q-10 -20 -35 -20h-113q-23 0 -34 18t-1 37l705 1358q10 20 35 21h114z" />
    <glyph glyph-name="threequarters" unicode="&#xbe;" horiz-adv-x="1341" 
d="M987 250v133l-104 -133h104zM700 131v127l326 342q2 6 14 6h105q18 0 18 -18v-334h80q18 0 19 -16v-105q0 -18 -19 -18h-80v-97q0 -18 -18 -18h-139q-20 0 -21 18v97h-266q-19 0 -19 16zM1057 1434q23 0 34 -18t1 -38l-707 -1358q-10 -20 -35 -20h-112q-23 0 -34 18
t-1 37l704 1358q10 20 35 21h115zM249 807q-103 0 -183 59q-25 18 -7 45l47 70q16 23 41 8q29 -23 74 -22q68 0 68 50t-68 50h-67q-27 4 -27 33v69q0 35 37 35h57q25 0 41 14t17 35q0 45 -60 45q-31 0 -56 -17t-40 3l-53 72q-18 23 2 43q64 55 172 55t170 -46t61 -131
q0 -85 -104 -136q123 -47 123 -158q0 -84 -71 -130t-174 -46z" />
    <glyph glyph-name="questiondown" unicode="&#xbf;" horiz-adv-x="913" 
d="M342 223q0 15 11 27t28 12h219q16 0 28 -11t11 -28v-86q0 -57 -44 -112t-97 -93q-142 -100 -142 -174q0 -49 44 -85q44 -35 106 -35t112 32q49 32 77 50q28 19 48 1l125 -122q29 -25 0 -54q-11 -15 -61 -55q-154 -123 -366 -124q-156 -2 -281 102t-125 248t108 238
q45 38 90 74q109 87 109 195zM491 451q-79 0 -138 58q-58 58 -58 137t58 136q57 58 137 58t137 -58t57 -136q0 -79 -57 -137t-136 -58z" />
    <glyph glyph-name="Agrave" unicode="&#xc0;" horiz-adv-x="1355" 
d="M823 1561l-372 168q-33 20 -13 61l70 121q6 12 26 13t27 -7l348 -213q23 -18 13 -39l-43 -86q-21 -41 -56 -18zM522 492h312l-156 337h-2zM27 0q-23 0 -34 16t-1 37l641 1379q10 23 35 22h20q25 0 35 -22l641 -1379q10 -21 -1 -37t-34 -16h-227q-47 0 -72 51l-74 162
h-557l-73 -164q-20 -49 -74 -49h-225z" />
    <glyph glyph-name="Aacute" unicode="&#xc1;" horiz-adv-x="1355" 
d="M532 1561q-35 -23 -55 18l-43 86q-10 20 12 39l349 213q8 8 27 7t26 -13l70 -121q20 -41 -13 -61zM522 492h312l-156 337h-2zM27 0q-23 0 -34 16t-1 37l641 1379q10 23 35 22h20q25 0 35 -22l641 -1379q10 -21 -1 -37t-34 -16h-227q-47 0 -72 51l-74 162h-557l-73 -164
q-20 -49 -74 -49h-225z" />
    <glyph glyph-name="Acircumflex" unicode="&#xc2;" horiz-adv-x="1355" 
d="M475 1561q-27 -14 -45 8l-68 96q-12 18 13 39l276 213q23 16 49 0l283 -213q23 -18 12 -39l-69 -94q-18 -25 -43 -10l-203 118zM522 492h312l-156 337h-2zM27 0q-23 0 -34 16t-1 37l641 1379q10 23 35 22h20q25 0 35 -22l641 -1379q10 -21 -1 -37t-34 -16h-227
q-47 0 -72 51l-74 162h-557l-73 -164q-20 -49 -74 -49h-225z" />
    <glyph glyph-name="Atilde" unicode="&#xc3;" horiz-adv-x="1355" 
d="M574 1884q50 0 117 -48t104 -48t77 63q20 33 52 4l69 -53q29 -20 2 -59q-94 -160 -204 -160q-57 0 -126 49t-93 49t-37 -11t-31 -35t-21 -25q-18 -18 -45 -2l-71 57q-25 18 -13 47q45 82 108 127q62 45 112 45zM522 492h312l-156 337h-2zM27 0q-23 0 -34 16t-1 37
l641 1379q10 23 35 22h20q25 0 35 -22l641 -1379q10 -21 -1 -37t-34 -16h-227q-47 0 -72 51l-74 162h-557l-73 -164q-20 -49 -74 -49h-225z" />
    <glyph glyph-name="Adieresis" unicode="&#xc4;" horiz-adv-x="1355" 
d="M406 1573q-59 0 -102 43q-42 43 -42 102q0 60 42 102t102 42t102 -42q43 -42 43 -102t-43 -102q-43 -43 -102 -43zM948 1573q-59 0 -101 43t-42 102q0 60 42 102t101 42q58 0 102 -42t44 -102t-44 -102q-44 -43 -102 -43zM522 492h312l-156 337h-2zM27 0q-23 0 -34 16
t-1 37l641 1379q10 23 35 22h20q25 0 35 -22l641 -1379q10 -21 -1 -37t-34 -16h-227q-47 0 -72 51l-74 162h-557l-73 -164q-20 -49 -74 -49h-225z" />
    <glyph glyph-name="Aring" unicode="&#xc5;" horiz-adv-x="1355" 
d="M678 1686q36 0 62 28t26 62q0 36 -27 62t-61 26t-63 -27q-27 -27 -27 -61t27 -63q28 -27 63 -27zM677 1540q-97 0 -166 69t-69 167t69 167t166 69t167 -70q70 -68 70 -166t-70 -167t-167 -69zM522 492h312l-156 337h-2zM27 0q-23 0 -34 16t-1 37l641 1379q10 23 35 22h20
q25 0 35 -22l641 -1379q10 -21 -1 -37t-34 -16h-227q-47 0 -72 51l-74 162h-557l-73 -164q-20 -49 -74 -49h-225z" />
    <glyph glyph-name="AE" unicode="&#xc6;" horiz-adv-x="1839" 
d="M815 492v362l-225 -362h225zM-6 0q-23 0 -30 16t5 37l822 1317q31 49 48 56t42 8h821q16 0 28 -12t11 -27v-224q0 -16 -11 -27t-28 -11h-567v-254h467q16 1 27 -11t11 -28v-224q0 -16 -11 -27t-27 -11h-467v-277h567q16 0 28 -11t11 -28v-223q0 -15 -11 -27t-28 -12h-848
q-16 0 -28 11q-11 11 -11 28v174h-377l-108 -178q-20 -35 -60 -35h-276z" />
    <glyph glyph-name="Ccedilla" unicode="&#xc7;" horiz-adv-x="1382" 
d="M74 715q0 307 216 523t513 216t506 -190q31 -29 2 -58l-160 -166q-25 -25 -51 0q-117 104 -283 104q-167 0 -281 -123q-114 -124 -114 -297t116 -295t282 -122t280 99q29 25 53 -3l160 -170q27 -27 -2 -55q-195 -193 -484 -198v-86q93 -12 141 -68t48 -143t-64 -151
t-155 -64q-92 0 -154 71q-27 29 8 60l47 41q23 23 39 0q15 -23 47 -23q32 1 50 21t18 45q0 80 -139 86q-35 4 -35 36v187q-260 47 -432 250t-172 473z" />
    <glyph glyph-name="Egrave" unicode="&#xc8;" horiz-adv-x="1200" 
d="M795 1561l-373 168q-33 20 -12 61l69 121q5 12 25 13t28 -7l349 -213q23 -18 12 -39l-43 -86q-20 -41 -55 -18zM176 39v1356q0 16 11 27t28 12h848q15 0 27 -12t12 -27v-224q0 -16 -11 -27t-28 -11h-567v-254h467q16 1 27 -11t11 -28v-224q0 -16 -11 -27t-27 -11h-467
v-277h567q15 0 27 -11t12 -28v-223q0 -15 -11 -27t-28 -12h-848q-16 0 -28 11q-11 12 -11 28z" />
    <glyph glyph-name="Eacute" unicode="&#xc9;" horiz-adv-x="1200" 
d="M504 1561q-35 -23 -55 18l-43 86q-10 20 12 39l348 213q8 8 28 7t25 -13l70 -121q20 -41 -12 -61zM176 39v1356q0 16 11 27t28 12h848q15 0 27 -12t12 -27v-224q0 -16 -11 -27t-28 -11h-567v-254h467q16 1 27 -11t11 -28v-224q0 -16 -11 -27t-27 -11h-467v-277h567
q15 0 27 -11t12 -28v-223q0 -15 -11 -27t-28 -12h-848q-16 0 -28 11q-11 12 -11 28z" />
    <glyph glyph-name="Ecircumflex" unicode="&#xca;" horiz-adv-x="1200" 
d="M446 1561q-27 -14 -45 8l-67 96q-12 18 12 39l277 213q23 16 49 0l282 -213q23 -18 13 -39l-70 -94q-18 -25 -43 -10l-203 118zM176 39v1356q0 16 11 27t28 12h848q15 0 27 -12t12 -27v-224q0 -16 -11 -27t-28 -11h-567v-254h467q16 1 27 -11t11 -28v-224q0 -16 -11 -27
t-27 -11h-467v-277h567q15 0 27 -11t12 -28v-223q0 -15 -11 -27t-28 -12h-848q-16 0 -28 11q-11 12 -11 28z" />
    <glyph glyph-name="Edieresis" unicode="&#xcb;" horiz-adv-x="1200" 
d="M371 1573q-59 0 -102 43q-42 43 -42 102q0 60 42 102q41 42 101 42t103 -42t43 -102t-43 -102q-43 -43 -102 -43zM913 1573q-59 0 -101 43t-42 102q0 60 42 102t101 42t103 -42t43 -102q1 -60 -43 -102q-44 -43 -103 -43zM176 39v1356q0 16 11 27t28 12h848q15 0 27 -12
t12 -27v-224q0 -16 -11 -27t-28 -11h-567v-254h467q16 1 27 -11t11 -28v-224q0 -16 -11 -27t-27 -11h-467v-277h567q15 0 27 -11t12 -28v-223q0 -15 -11 -27t-28 -12h-848q-16 0 -28 11q-11 12 -11 28z" />
    <glyph glyph-name="Igrave" unicode="&#xcc;" horiz-adv-x="675" 
d="M483 1561l-372 168q-33 20 -13 61l70 121q6 12 26 13t27 -7l348 -213q23 -18 13 -39l-43 -86q-21 -41 -56 -18zM176 39v1356q0 14 12 26t27 13h246q14 0 26 -12t13 -27v-1356q0 -15 -12 -27t-27 -12h-246q-14 0 -27 12q-12 13 -12 27z" />
    <glyph glyph-name="Iacute" unicode="&#xcd;" horiz-adv-x="675" 
d="M193 1561q-35 -23 -56 18l-43 86q-10 20 12 39l349 213q8 8 27 7t26 -13l70 -121q20 -41 -13 -61zM176 39v1356q0 14 12 26t27 13h246q14 0 26 -12t13 -27v-1356q0 -15 -12 -27t-27 -12h-246q-14 0 -27 12q-12 13 -12 27z" />
    <glyph glyph-name="Icircumflex" unicode="&#xce;" horiz-adv-x="675" 
d="M135 1561q-27 -14 -45 8l-67 96q-12 18 12 39l276 213q23 16 49 0l283 -213q23 -18 12 -39l-69 -94q-18 -25 -43 -10l-203 118zM176 39v1356q0 14 12 26t27 13h246q14 0 26 -12t13 -27v-1356q0 -15 -12 -27t-27 -12h-246q-14 0 -27 12q-12 13 -12 27z" />
    <glyph glyph-name="Idieresis" unicode="&#xcf;" horiz-adv-x="675" 
d="M66 1573q-59 0 -102 43q-42 43 -42 102q0 60 42 102t102 42t102 -42q43 -42 43 -102t-43 -102q-43 -43 -102 -43zM608 1573q-59 0 -101 43t-42 102q0 60 42 102t101 42q58 0 102 -42t44 -102t-44 -102q-44 -43 -102 -43zM176 39v1356q0 14 12 26t27 13h246q14 0 26 -12
t13 -27v-1356q0 -15 -12 -27t-27 -12h-246q-14 0 -27 12q-12 13 -12 27z" />
    <glyph glyph-name="Eth" unicode="&#xd0;" horiz-adv-x="1515" 
d="M506 303h196q172 0 286 120t114 295t-114 295t-286 120h-196v-367h291q16 0 27 -11t12 -28v-37q0 -16 -12 -26t-27 -11h-291v-350zM186 39v614h-59q-13 -1 -25 11t-12 28v35q0 15 11 27t26 12h59v629q0 16 12 27t25 12h500q297 0 508 -210t211 -506t-211 -507t-508 -211
h-500q-13 0 -25 12t-12 27z" />
    <glyph glyph-name="Ntilde" unicode="&#xd1;" horiz-adv-x="1583" 
d="M691 1884q50 0 117 -48q68 -48 104 -48t77 63q20 33 51 4l70 -53q29 -20 2 -59q-94 -160 -205 -160q-57 0 -126 49t-92 49t-37 -11t-32 -35q-17 -24 -20 -25q-18 -18 -45 -2l-72 57q-25 18 -12 47q45 82 108 127q62 45 112 45zM213 1454h51l817 -786h2v727q-1 16 11 27
t28 12h246q16 0 28 -12t11 -27v-1379q0 -14 -11 -25t-28 -11h-33q-16 0 -26 10l-809 813h-2v-764q0 -15 -12 -27t-27 -12h-244q-14 0 -27 12q-12 13 -12 27l-2 1378q0 13 11 25t28 12z" />
    <glyph glyph-name="Ograve" unicode="&#xd2;" horiz-adv-x="1615" 
d="M952 1561l-372 168q-35 20 -13 61l70 121q5 12 25 13t28 -7l348 -213q23 -18 13 -39l-43 -86q-21 -41 -56 -18zM399 716q0 -169 120 -289t288 -120t289 120t121 289t-121 290q-121 120 -289 120t-288 -120t-120 -290zM72 715q0 307 214 523t521 216t522 -216t215 -523
t-215 -521t-522 -214t-521 214t-214 521z" />
    <glyph glyph-name="Oacute" unicode="&#xd3;" horiz-adv-x="1615" 
d="M662 1561q-35 -23 -56 18l-43 86q-10 20 12 39l349 213q8 8 27 7t26 -13l70 -121q23 -41 -13 -61zM399 716q0 -169 120 -289t288 -120t289 120t121 289t-121 290q-121 120 -289 120t-288 -120t-120 -290zM72 715q0 307 214 523t521 216t522 -216t215 -523t-215 -521
t-522 -214t-521 214t-214 521z" />
    <glyph glyph-name="Ocircumflex" unicode="&#xd4;" horiz-adv-x="1615" 
d="M604 1561q-27 -14 -45 8l-67 96q-12 18 12 39l276 213q23 16 49 0l283 -213q23 -18 12 -39l-69 -94q-18 -25 -43 -10l-203 118zM399 716q0 -169 120 -289t288 -120t289 120t121 289t-121 290q-121 120 -289 120t-288 -120t-120 -290zM72 715q0 307 214 523t521 216
t522 -216t215 -523t-215 -521t-522 -214t-521 214t-214 521z" />
    <glyph glyph-name="Otilde" unicode="&#xd5;" horiz-adv-x="1615" 
d="M703 1884q50 0 117 -48t104 -48t77 63q20 33 52 4l69 -53q29 -20 2 -59q-94 -160 -204 -160q-57 0 -126 49q-68 49 -92 49t-38 -11t-32 -35t-20 -25q-18 -18 -45 -2l-71 57q-25 18 -13 47q45 82 108 127q62 45 112 45zM399 716q0 -169 120 -289t288 -120t289 120t121 289
t-121 290q-121 120 -289 120t-288 -120t-120 -290zM72 715q0 307 214 523t521 216t522 -216t215 -523t-215 -521t-522 -214t-521 214t-214 521z" />
    <glyph glyph-name="Odieresis" unicode="&#xd6;" horiz-adv-x="1615" 
d="M535 1573q-59 0 -102 43q-42 43 -42 102q0 60 42 102q41 42 101 42t103 -42t43 -102t-43 -102q-43 -43 -102 -43zM1077 1573q-59 0 -101 43t-42 102q0 60 42 102t101 42t103 -42t43 -102q1 -60 -43 -102q-44 -43 -103 -43zM399 716q0 -169 120 -289t288 -120t289 120
t121 289t-121 290q-121 120 -289 120t-288 -120t-120 -290zM72 715q0 307 214 523t521 216t522 -216t215 -523t-215 -521t-522 -214t-521 214t-214 521z" />
    <glyph glyph-name="multiply" unicode="&#xd7;" horiz-adv-x="940" 
d="M205 344l-103 102q-27 27 0 54l211 211l-211 213q-27 27 0 53l101 102q27 27 55 0l211 -211l213 213q27 25 53 -2l103 -102q27 -27 2 -53l-213 -213l213 -213q25 -27 -2 -54l-103 -100q-10 -10 -26 -11t-27 9l-213 213l-211 -211q-26 -27 -53 0z" />
    <glyph glyph-name="Oslash" unicode="&#xd8;" horiz-adv-x="1628" 
d="M827 307q154 0 275 120q121 121 121 275t-84 261l-572 -572q106 -84 260 -84zM813 1126q-168 0 -288 -120t-119 -291q-1 -135 81 -244l574 571q-115 84 -248 84zM78 715q0 307 214 523t521 216q272 0 481 -178l144 141q25 29 53 0l25 -24q29 -25 0 -54l-144 -143
q178 -209 178 -481q0 -307 -215 -521t-508 -214t-495 176l-137 -136q-27 -25 -54 3l-24 24q-27 27 -2 53l137 136q-174 207 -174 479z" />
    <glyph glyph-name="Ugrave" unicode="&#xd9;" horiz-adv-x="1478" 
d="M885 1561l-373 168q-33 20 -12 61l69 121q5 12 25 13t29 -7l348 -213q23 -18 12 -39l-43 -86q-20 -41 -55 -18zM156 549v846q0 14 12 26t27 13h251q16 0 28 -12t11 -27v-830q0 -109 72 -183q71 -74 181 -75q110 0 183 75t72 183v830q-1 16 11 27t28 12h252q14 0 26 -12
t13 -27v-846q0 -233 -172 -401t-413 -168q-242 0 -412 168t-170 401z" />
    <glyph glyph-name="Uacute" unicode="&#xda;" horiz-adv-x="1478" 
d="M594 1561q-35 -23 -55 18l-43 86q-10 20 12 39l348 213q8 8 28 7t25 -13l70 -121q20 -41 -12 -61zM156 549v846q0 14 12 26t27 13h251q16 0 28 -12t11 -27v-830q0 -109 72 -183q71 -74 181 -75q110 0 183 75t72 183v830q-1 16 11 27t28 12h252q14 0 26 -12t13 -27v-846
q0 -233 -172 -401t-413 -168q-242 0 -412 168t-170 401z" />
    <glyph glyph-name="Ucircumflex" unicode="&#xdb;" horiz-adv-x="1478" 
d="M535 1561q-27 -14 -46 8l-67 96q-12 18 12 39l277 213q23 16 49 0l282 -213q23 -18 13 -39l-70 -94q-18 -25 -43 -10l-203 118zM156 549v846q0 14 12 26t27 13h251q16 0 28 -12t11 -27v-830q0 -109 72 -183q71 -74 181 -75q110 0 183 75t72 183v830q-1 16 11 27t28 12
h252q14 0 26 -12t13 -27v-846q0 -233 -172 -401t-413 -168q-242 0 -412 168t-170 401z" />
    <glyph glyph-name="Udieresis" unicode="&#xdc;" horiz-adv-x="1478" 
d="M465 1573q-59 0 -101 43t-42 102q0 60 42 102t101 42t102 -42t43 -102t-43 -102q-43 -43 -102 -43zM1008 1573q-59 0 -102 43q-42 43 -42 102q0 60 42 102t102 42t102 -42q43 -42 43 -102t-43 -102q-43 -43 -102 -43zM156 549v846q0 14 12 26t27 13h251q16 0 28 -12
t11 -27v-830q0 -109 72 -183q71 -74 181 -75q110 0 183 75t72 183v830q-1 16 11 27t28 12h252q14 0 26 -12t13 -27v-846q0 -233 -172 -401t-413 -168q-242 0 -412 168t-170 401z" />
    <glyph glyph-name="Yacute" unicode="&#xdd;" horiz-adv-x="1208" 
d="M459 1561q-35 -23 -56 18l-43 86q-10 20 13 39l348 213q7 8 27 7t26 -13l70 -121q20 -41 -13 -61zM440 39v651l-452 684q-12 20 -2 40t34 20h267q18 0 32 -19l285 -420l285 420q14 18 33 19h266q25 0 35 -20t-2 -40l-459 -682v-653q0 -15 -12 -27t-27 -12h-244
q-15 0 -27 12t-12 27z" />
    <glyph glyph-name="Thorn" unicode="&#xde;" horiz-adv-x="1200" 
d="M496 559h194q68 0 115 47q47 46 47 112t-47 110t-115 44h-194v-313zM176 39v1356q0 16 11 27t28 12h242q14 0 26 -12t13 -27v-221h213q188 0 323 -134t135 -321t-134 -323t-322 -136h-215v-221q0 -15 -12 -27t-27 -12h-242q-16 0 -28 11q-11 12 -11 28z" />
    <glyph glyph-name="germandbls" unicode="&#xdf;" horiz-adv-x="1105" 
d="M111 39v807q0 300 139 454t373 154q137 0 240 -85t104 -243q0 -98 -76 -231t-76 -175t82 -116q166 -147 166 -303q0 -313 -397 -321q-35 0 -41 30l-39 172q-4 16 6 30t26 17q115 18 115 107q0 57 -92 119q-135 102 -135 209q0 74 76 224t75 226q0 28 -17 50t-45 22
q-29 0 -55 -14q-122 -67 -122 -332v-801q0 -15 -12 -27t-27 -12h-229q-14 0 -27 12q-12 13 -12 27z" />
    <glyph glyph-name="agrave" unicode="&#xe0;" horiz-adv-x="878" 
d="M614 1049l-372 168q-33 20 -13 61l70 121q5 12 25 13t28 -7l348 -213q23 -18 13 -39l-43 -86q-21 -41 -56 -18zM322 269q0 -37 26 -63t62 -26q38 0 64 27t25 63t-27 61t-62 25t-63 -25q-25 -26 -25 -62zM356 524q86 0 158 -32q0 66 -20 94t-108 26q-88 0 -187 -30
q-41 -14 -49 43l-19 129q-8 43 31 55q20 6 110 18t162 13q188 0 267 -82t79 -266v-453q0 -15 -11 -27t-28 -12h-90q-25 0 -37 27l-28 55q-113 -102 -242 -102t-209 74t-80 196t82 198t219 76z" />
    <glyph glyph-name="aacute" unicode="&#xe1;" horiz-adv-x="878" 
d="M303 1049q-35 -23 -55 18l-43 86q-10 20 12 39l348 213q7 8 27 7t26 -13l70 -121q20 -41 -12 -61zM322 269q0 -37 26 -63t62 -26q38 0 64 27t25 63t-27 61t-62 25t-63 -25q-25 -26 -25 -62zM356 524q86 0 158 -32q0 66 -20 94t-108 26q-88 0 -187 -30q-41 -14 -49 43
l-19 129q-8 43 31 55q20 6 110 18t162 13q188 0 267 -82t79 -266v-453q0 -15 -11 -27t-28 -12h-90q-25 0 -37 27l-28 55q-113 -102 -242 -102t-209 74t-80 196t82 198t219 76z" />
    <glyph glyph-name="acircumflex" unicode="&#xe2;" horiz-adv-x="878" 
d="M246 1049q-27 -14 -45 8l-68 96q-12 18 12 39l277 213q23 16 49 0l283 -213q23 -18 12 -39l-70 -94q-18 -25 -43 -10l-202 118zM322 269q0 -37 26 -63t62 -26q38 0 64 27t25 63t-27 61t-62 25t-63 -25q-25 -26 -25 -62zM356 524q86 0 158 -32q0 66 -20 94t-108 26
q-88 0 -187 -30q-41 -14 -49 43l-19 129q-8 43 31 55q20 6 110 18t162 13q188 0 267 -82t79 -266v-453q0 -15 -11 -27t-28 -12h-90q-25 0 -37 27l-28 55q-113 -102 -242 -102t-209 74t-80 196t82 198t219 76z" />
    <glyph glyph-name="atilde" unicode="&#xe3;" horiz-adv-x="878" 
d="M330 1413q50 0 118 -48q66 -48 103 -48t78 63q20 33 51 4l70 -53q29 -20 2 -59q-94 -160 -205 -160q-57 0 -126 49t-92 49t-37 -11t-32 -35t-20 -25q-18 -18 -45 -2l-72 57q-25 18 -12 47q45 82 107 127t112 45zM322 269q0 -37 26 -63t62 -26q38 0 64 27t25 63t-27 61
t-62 25t-63 -25q-25 -26 -25 -62zM356 524q86 0 158 -32q0 66 -20 94t-108 26q-88 0 -187 -30q-41 -14 -49 43l-19 129q-8 43 31 55q20 6 110 18t162 13q188 0 267 -82t79 -266v-453q0 -15 -11 -27t-28 -12h-90q-25 0 -37 27l-28 55q-113 -102 -242 -102t-209 74t-80 196
t82 198t219 76z" />
    <glyph glyph-name="adieresis" unicode="&#xe4;" horiz-adv-x="878" 
d="M238 1096q-59 0 -102 43q-42 43 -42 102t42 101t102 42t102 -42q43 -42 43 -101t-43 -102t-102 -43zM657 1096q-59 0 -101 43t-42 102t42 101t101 42t103 -42t43 -101q1 -59 -43 -102t-103 -43zM322 269q0 -37 26 -63t62 -26q38 0 64 27t25 63t-27 61t-62 25t-63 -25
q-25 -26 -25 -62zM356 524q86 0 158 -32q0 66 -20 94t-108 26q-88 0 -187 -30q-41 -14 -49 43l-19 129q-8 43 31 55q20 6 110 18t162 13q188 0 267 -82t79 -266v-453q0 -15 -11 -27t-28 -12h-90q-25 0 -37 27l-28 55q-113 -102 -242 -102t-209 74t-80 196t82 198t219 76z
" />
    <glyph glyph-name="aring" unicode="&#xe5;" horiz-adv-x="878" 
d="M449 1128q35 0 61 28t27 63q0 35 -27 61q-28 26 -62 27q-34 0 -62 -27q-28 -28 -28 -62t28 -62t63 -28zM213 1219q0 99 69 167t166 68q96 0 166 -69t70 -167t-70 -166q-70 -69 -166 -69q-97 0 -166 69t-69 167zM322 269q0 -37 26 -63t62 -26q38 0 64 27t25 63t-27 61
t-62 25t-63 -25q-25 -26 -25 -62zM356 524q86 0 158 -32q0 66 -20 94t-108 26q-88 0 -187 -30q-41 -14 -49 43l-19 129q-8 43 31 55q20 6 110 18t162 13q188 0 267 -82t79 -266v-453q0 -15 -11 -27t-28 -12h-90q-25 0 -37 27l-28 55q-113 -102 -242 -102t-209 74t-80 196
t82 198t219 76z" />
    <glyph glyph-name="ae" unicode="&#xe6;" horiz-adv-x="1353" 
d="M322 269q0 -37 26 -63t62 -26q38 0 64 27t25 63t-27 61t-62 25t-63 -25q-25 -26 -25 -62zM920 621q-40 0 -73 -28q-32 -28 -38 -69h219q-2 39 -35 68t-73 29zM53 250q0 118 82 196t223 78q73 0 136 -24l20 -8q2 70 -22 98q-44 51 -293 4q-39 -4 -47 33l-23 141
q-2 14 8 26t25 15q162 31 272 31q180 0 258 -72q106 72 251 72t259 -110t115 -275q0 -90 -43 -90h-492q6 -51 46 -95t113 -43q73 0 138 49q33 23 51 0l107 -120q29 -29 2 -56q-121 -120 -309 -120t-305 133q-44 -61 -129 -98q-85 -36 -158 -35q-129 0 -207 76t-78 194z" />
    <glyph glyph-name="ccedilla" unicode="&#xe7;" horiz-adv-x="862" 
d="M49 410q0 178 132 304q133 126 315 126t303 -148q23 -29 -11 -57l-122 -117q-8 -8 -22 -6t-23 10q-49 53 -118 53t-117 -49q-48 -50 -48 -118t46 -116t118 -48t135 63q25 25 45 8l123 -106q33 -31 14 -57q-115 -170 -321 -172v-89q92 -12 140 -67t48 -143q0 -87 -63 -151
t-155 -64t-155 71q-27 29 9 60l47 41q23 23 39 0t47 -23t49 20t18 46q0 80 -139 86q-35 4 -35 36v199q-131 45 -215 155t-84 253z" />
    <glyph glyph-name="egrave" unicode="&#xe8;" horiz-adv-x="899" 
d="M643 1049l-373 168q-33 20 -12 61l70 121q6 12 25 13t28 -7l348 -213q23 -18 12 -39l-43 -86q-20 -41 -55 -18zM465 621q-41 0 -73 -28t-38 -69h219q-2 39 -34 68q-33 29 -74 29zM49 409q0 177 123 304t292 127t284 -110t114 -275q0 -27 -4 -56q-4 -35 -39 -34h-491
q6 -51 46 -93t114 -43q74 0 141 50q31 25 51 0l102 -123q25 -33 -2 -60q-117 -116 -300 -116t-307 126t-124 303z" />
    <glyph glyph-name="eacute" unicode="&#xe9;" horiz-adv-x="899" 
d="M332 1049q-35 -23 -56 18l-43 86q-10 20 13 39l348 213q8 8 28 7t25 -13l70 -121q20 -41 -12 -61zM465 621q-41 0 -73 -28t-38 -69h219q-2 39 -34 68q-33 29 -74 29zM49 409q0 177 123 304t292 127t284 -110t114 -275q0 -27 -4 -56q-4 -35 -39 -34h-491q6 -51 46 -93
t114 -43q74 0 141 50q31 25 51 0l102 -123q25 -33 -2 -60q-117 -116 -300 -116t-307 126t-124 303z" />
    <glyph glyph-name="ecircumflex" unicode="&#xea;" horiz-adv-x="899" 
d="M274 1049q-27 -14 -45 8l-67 96q-12 18 12 39l277 213q23 16 49 0l282 -213q23 -18 13 -39l-70 -94q-18 -25 -43 -10l-203 118zM465 621q-41 0 -73 -28t-38 -69h219q-2 39 -34 68q-33 29 -74 29zM49 409q0 177 123 304t292 127t284 -110t114 -275q0 -27 -4 -56
q-4 -35 -39 -34h-491q6 -51 46 -93t114 -43q74 0 141 50q31 25 51 0l102 -123q25 -33 -2 -60q-117 -116 -300 -116t-307 126t-124 303z" />
    <glyph glyph-name="edieresis" unicode="&#xeb;" horiz-adv-x="899" 
d="M266 1096q-59 0 -101 43t-42 102t42 101t101 42q58 0 102 -42t44 -101t-44 -102t-102 -43zM686 1096q-59 0 -101 43t-42 102t42 101t101 42t102 -42t43 -101t-43 -102t-102 -43zM465 621q-41 0 -73 -28t-38 -69h219q-2 39 -34 68q-33 29 -74 29zM49 409q0 177 123 304
t292 127t284 -110t114 -275q0 -27 -4 -56q-4 -35 -39 -34h-491q6 -51 46 -93t114 -43q74 0 141 50q31 25 51 0l102 -123q25 -33 -2 -60q-117 -116 -300 -116t-307 126t-124 303z" />
    <glyph glyph-name="igrave" unicode="&#xec;" horiz-adv-x="524" 
d="M408 1049l-373 168q-35 20 -12 61l69 121q6 12 26 13t27 -7l349 -213q23 -18 12 -39l-43 -86q-20 -41 -55 -18zM111 39v739q0 16 11 28t28 11h225q16 0 27 -11t12 -28v-739q0 -15 -12 -27t-27 -12h-225q-14 0 -27 12q-12 13 -12 27z" />
    <glyph glyph-name="iacute" unicode="&#xed;" horiz-adv-x="524" 
d="M117 1049q-35 -23 -56 18l-43 86q-10 20 13 39l348 213q7 8 27 7t26 -13l70 -121q23 -41 -13 -61zM111 39v739q0 16 11 28t28 11h225q16 0 27 -11t12 -28v-739q0 -15 -12 -27t-27 -12h-225q-14 0 -27 12q-12 13 -12 27z" />
    <glyph glyph-name="icircumflex" unicode="&#xee;" horiz-adv-x="524" 
d="M59 1049q-27 -14 -45 8l-67 96q-12 18 12 39l277 213q23 16 49 0l282 -213q23 -18 13 -39l-70 -94q-18 -25 -43 -10l-203 118zM111 39v739q0 16 11 28t28 11h225q16 0 27 -11t12 -28v-739q0 -15 -12 -27t-27 -12h-225q-14 0 -27 12q-12 13 -12 27z" />
    <glyph glyph-name="idieresis" unicode="&#xef;" horiz-adv-x="524" 
d="M51 1096q-59 0 -101 43t-42 102t42 101t101 42t103 -42t43 -101q1 -59 -43 -102t-103 -43zM471 1096q-59 0 -101 43t-42 102t42 101t101 42t102 -42t43 -101t-43 -102t-102 -43zM111 39v739q0 16 11 28t28 11h225q16 0 27 -11t12 -28v-739q0 -15 -12 -27t-27 -12h-225
q-14 0 -27 12q-12 13 -12 27z" />
    <glyph glyph-name="eth" unicode="&#xf0;" horiz-adv-x="1071" 
d="M326 460q0 -81 57 -139q57 -59 139 -59t140 58t57 140q0 81 -57 139q-58 58 -140 58t-139 -58t-57 -139zM49 457q0 201 124 319t284 117q98 0 194 -41q-29 137 -182 233l-158 -90q-33 -20 -51 13l-18 30q-20 35 12 54l96 55q-51 31 -125 49q-39 12 -24 51l59 158
q18 47 78 27q113 -37 262 -142l145 86q33 18 52 -16l18 -29q20 -35 -12 -53l-107 -61q315 -272 316 -680q0 -246 -131 -402t-363 -155q-193 0 -331 138t-138 339z" />
    <glyph glyph-name="ntilde" unicode="&#xf1;" horiz-adv-x="1081" 
d="M447 1413q50 0 117 -48t104 -48t77 63q20 33 52 4l69 -53q29 -20 2 -59q-94 -160 -204 -160q-57 0 -126 49q-68 49 -92 49t-38 -11t-32 -35t-20 -25q-18 -18 -45 -2l-71 57q-25 18 -13 47q45 82 108 127q62 45 112 45zM111 39v741q0 16 11 28t28 11h96q27 0 37 -24
l32 -82q117 127 294 127t281 -122t103 -306v-373q0 -15 -11 -27t-28 -12h-219q-16 0 -27 11t-12 28v383q0 66 -37 110t-101 43q-64 0 -111 -40q-46 -41 -46 -103v-393q0 -39 -36 -39h-215q-14 0 -27 12q-12 13 -12 27z" />
    <glyph glyph-name="ograve" unicode="&#xf2;" horiz-adv-x="946" 
d="M618 1049l-372 168q-33 20 -13 61l70 121q5 12 25 13t28 -7l349 -213q23 -18 12 -39l-43 -86q-21 -41 -56 -18zM473 575q-68 1 -115 -47t-47 -117t47 -118t115 -49t115 49t47 118t-47 117t-115 47zM47 411q0 175 126 302t300 127t300 -127t126 -302t-126 -303t-300 -128
t-300 128t-126 303z" />
    <glyph glyph-name="oacute" unicode="&#xf3;" horiz-adv-x="946" 
d="M324 1049q-35 -23 -56 18l-43 86q-10 20 13 39l348 213q8 8 27 7t26 -13l70 -121q20 -41 -13 -61zM473 575q-68 1 -115 -47t-47 -117t47 -118t115 -49t115 49t47 118t-47 117t-115 47zM47 411q0 175 126 302t300 127t300 -127t126 -302t-126 -303t-300 -128t-300 128
t-126 303z" />
    <glyph glyph-name="ocircumflex" unicode="&#xf4;" horiz-adv-x="946" 
d="M270 1049q-27 -14 -45 8l-67 96q-12 18 12 39l276 213q23 16 50 0l282 -213q23 -18 13 -39l-70 -94q-18 -25 -43 -10l-203 118zM473 575q-68 1 -115 -47t-47 -117t47 -118t115 -49t115 49t47 118t-47 117t-115 47zM47 411q0 175 126 302t300 127t300 -127t126 -302
t-126 -303t-300 -128t-300 128t-126 303z" />
    <glyph glyph-name="otilde" unicode="&#xf5;" horiz-adv-x="946" 
d="M370 1413q50 0 116 -48t104 -48q37 0 78 63q20 33 51 4l69 -53q29 -20 3 -59q-94 -160 -205 -160q-57 0 -126 49q-68 49 -92 49t-38 -11t-32 -35t-19 -25q-19 -18 -46 -2l-71 57q-25 18 -12 47q16 29 40 63q25 34 77 72q53 38 103 37zM473 575q-68 1 -115 -47t-47 -117
t47 -118t115 -49t115 49t47 118t-47 117t-115 47zM47 411q0 175 126 302t300 127t300 -127t126 -302t-126 -303t-300 -128t-300 128t-126 303z" />
    <glyph glyph-name="odieresis" unicode="&#xf6;" horiz-adv-x="946" 
d="M262 1096q-59 0 -101 43t-42 102t42 101t101 42q58 0 102 -42t44 -101t-44 -102t-102 -43zM682 1096q-59 0 -101 43t-42 102t42 101t101 42t102 -42t43 -101t-43 -102t-102 -43zM473 575q-68 1 -115 -47t-47 -117t47 -118t115 -49t115 49t47 118t-47 117t-115 47zM47 411
q0 175 126 302t300 127t300 -127t126 -302t-126 -303t-300 -128t-300 128t-126 303z" />
    <glyph glyph-name="divide" unicode="&#xf7;" horiz-adv-x="1011" 
d="M346 315q0 63 44 107t108 45q64 0 108 -44q45 -43 45 -107t-45 -109t-108 -45t-108 45q-44 45 -44 108zM96 598q-14 0 -26 12t-13 27v143q1 14 13 26t26 13h822q14 0 25 -11t11 -28v-143q0 -15 -11 -27t-25 -12h-822zM500 965q-63 0 -108 45q-44 45 -44 108q0 64 44 108
t108 44t108 -44q45 -44 45 -108t-45 -108q-45 -45 -108 -45z" />
    <glyph glyph-name="oslash" unicode="&#xf8;" horiz-adv-x="954" 
d="M491 244q54 0 101 50t47 120q0 33 -14 67l-217 -223q29 -14 83 -14zM464 575q-54 0 -102 -47q-46 -47 -46 -101t14 -83l217 217q-29 14 -83 14zM51 425q0 163 126 289q125 126 283 126t275 -90l58 57q25 29 53 0l24 -25q29 -25 0 -53l-57 -57q90 -117 90 -258
q0 -176 -126 -305q-127 -129 -285 -129t-273 88l-51 -52q-25 -25 -53 2l-25 25q-10 11 -11 27t9 26l51 51q-88 115 -88 278z" />
    <glyph glyph-name="ugrave" unicode="&#xf9;" 
d="M684 1049l-373 168q-33 20 -12 61l70 121q6 12 25 13t28 -7l348 -213q23 -18 12 -39l-43 -86q-20 -41 -55 -18zM92 410v370q0 16 11 28t28 11h219q16 0 28 -11t11 -28v-379q0 -65 35 -111t94 -46t92 44t33 101v391q0 39 43 39h209q15 0 27 -11t12 -28v-741q0 -15 -12 -27
t-27 -12h-96q-27 0 -39 29l-31 75q-43 -43 -63 -59t-80 -41t-133 -24q-174 0 -268 121q-93 123 -93 309z" />
    <glyph glyph-name="uacute" unicode="&#xfa;" 
d="M373 1049q-35 -23 -56 18l-43 86q-10 20 13 39l348 213q7 8 27 7t26 -13l70 -121q20 -41 -13 -61zM92 410v370q0 16 11 28t28 11h219q16 0 28 -11t11 -28v-379q0 -65 35 -111t94 -46t92 44t33 101v391q0 39 43 39h209q15 0 27 -11t12 -28v-741q0 -15 -12 -27t-27 -12h-96
q-27 0 -39 29l-31 75q-43 -43 -63 -59t-80 -41t-133 -24q-174 0 -268 121q-93 123 -93 309z" />
    <glyph glyph-name="ucircumflex" unicode="&#xfb;" 
d="M315 1049q-27 -14 -45 8l-67 96q-12 18 12 39l277 213q23 16 49 0l282 -213q23 -18 13 -39l-70 -94q-18 -25 -43 -10l-203 118zM92 410v370q0 16 11 28t28 11h219q16 0 28 -11t11 -28v-379q0 -65 35 -111t94 -46t92 44t33 101v391q0 39 43 39h209q15 0 27 -11t12 -28
v-741q0 -15 -12 -27t-27 -12h-96q-27 0 -39 29l-31 75q-43 -43 -63 -59t-80 -41t-133 -24q-174 0 -268 121q-93 123 -93 309z" />
    <glyph glyph-name="udieresis" unicode="&#xfc;" 
d="M307 1096q-59 0 -101 43t-42 102t42 101t101 42t103 -42t43 -101q1 -59 -43 -102t-103 -43zM727 1096q-59 0 -101 43t-42 102t42 101t101 42t102 -42t43 -101t-43 -102t-102 -43zM92 410v370q0 16 11 28t28 11h219q16 0 28 -11t11 -28v-379q0 -65 35 -111t94 -46t92 44
t33 101v391q0 39 43 39h209q15 0 27 -11t12 -28v-741q0 -15 -12 -27t-27 -12h-96q-27 0 -39 29l-31 75q-43 -43 -63 -59t-80 -41t-133 -24q-174 0 -268 121q-93 123 -93 309z" />
    <glyph glyph-name="yacute" unicode="&#xfd;" horiz-adv-x="952" 
d="M328 1049q-35 -23 -56 18l-43 86q-10 20 13 39l348 213q8 8 27 7t26 -13l70 -121q20 -41 -13 -61zM47 819h234q23 0 34 -22l158 -381h4l162 381q8 23 35 22h231q23 0 34 -16t1 -37l-627 -1356q-12 -25 -34 -24h-230q-23 0 -34 17t-1 38l305 643l-307 682q-10 20 1 36
t34 17z" />
    <glyph glyph-name="thorn" unicode="&#xfe;" 
d="M709 409q0 69 -47 115t-116 47q-69 -1 -116 -47t-47 -115t46 -116t116 -47t117 47t47 116zM416 -578q0 -16 -12 -27t-27 -11h-227q-14 0 -27 11q-12 11 -12 27v1973q0 14 12 26t27 13h227q16 0 27 -12t12 -27v-607q72 51 178 52q172 0 286 -119t114 -305t-127 -312
q-126 -126 -302 -124q-77 -1 -149 32v-590z" />
    <glyph glyph-name="ydieresis" unicode="&#xff;" horiz-adv-x="952" 
d="M264 1096q-59 0 -101 43t-42 102t42 101t101 42q58 0 102 -42t44 -101t-44 -102t-102 -43zM684 1096q-59 0 -101 43t-42 102t42 101t101 42t102 -42t43 -101t-43 -102t-102 -43zM47 819h234q23 0 34 -22l158 -381h4l162 381q8 23 35 22h231q23 0 34 -16t1 -37l-627 -1356
q-12 -25 -34 -24h-230q-23 0 -34 17t-1 38l305 643l-307 682q-10 20 1 36t34 17z" />
    <glyph glyph-name="Amacron" unicode="&#x100;" horiz-adv-x="1355" 
d="M979 1677q0 -35 -39 -37h-524q-16 0 -28 10t-11 27v84q0 39 39 39h524q39 0 39 -39v-84zM522 492h312l-156 337h-2zM27 0q-23 0 -34 16t-1 37l641 1379q10 23 35 22h20q25 0 35 -22l641 -1379q10 -21 -1 -37t-34 -16h-227q-47 0 -72 51l-74 162h-557l-73 -164
q-20 -49 -74 -49h-225z" />
    <glyph glyph-name="amacron" unicode="&#x101;" horiz-adv-x="878" 
d="M186 1153q-37 0 -39 37v84q0 39 39 39h525q39 0 39 -39v-84q0 -16 -12 -26t-27 -11h-525zM322 269q0 -37 26 -63t62 -26q38 0 64 27t25 63t-27 61t-62 25t-63 -25q-25 -26 -25 -62zM356 524q86 0 158 -32q0 66 -20 94t-108 26q-88 0 -187 -30q-41 -14 -49 43l-19 129
q-8 43 31 55q20 6 110 18t162 13q188 0 267 -82t79 -266v-453q0 -15 -11 -27t-28 -12h-90q-25 0 -37 27l-28 55q-113 -102 -242 -102t-209 74t-80 196t82 198t219 76z" />
    <glyph glyph-name="Abreve" unicode="&#x102;" horiz-adv-x="1355" 
d="M677 1563q-112 -1 -193 69t-97 176q-4 18 7 32t32 13h92q27 0 35 -24q14 -43 48 -71t75 -28t75 30t48 69q6 25 35 24h96q18 0 29 -13t10 -32q-16 -106 -98 -176t-194 -69zM522 492h312l-156 337h-2zM27 0q-23 0 -34 16t-1 37l641 1379q10 23 35 22h20q25 0 35 -22
l641 -1379q10 -21 -1 -37t-34 -16h-227q-47 0 -72 51l-74 162h-557l-73 -164q-20 -49 -74 -49h-225z" />
    <glyph glyph-name="abreve" unicode="&#x103;" horiz-adv-x="878" 
d="M448 1079q-112 0 -193 70t-97 176q-4 17 7 31t32 14h92q27 0 35 -24q14 -43 48 -71t75 -28t75 30t47 69q6 25 35 24h96q18 0 30 -13t9 -32q-15 -106 -97 -176t-194 -70zM322 269q0 -37 26 -63t62 -26q38 0 64 27t25 63t-27 61t-62 25t-63 -25q-25 -26 -25 -62zM356 524
q86 0 158 -32q0 66 -20 94t-108 26q-88 0 -187 -30q-41 -14 -49 43l-19 129q-8 43 31 55q20 6 110 18t162 13q188 0 267 -82t79 -266v-453q0 -15 -11 -27t-28 -12h-90q-25 0 -37 27l-28 55q-113 -102 -242 -102t-209 74t-80 196t82 198t219 76z" />
    <glyph glyph-name="Aogonek" unicode="&#x104;" horiz-adv-x="1355" 
d="M522 492h312l-158 337h-2zM27 0q-23 0 -34 16t-1 37l643 1379q12 23 35 22h20q23 0 35 -22l639 -1379q10 -21 -1 -37t-34 -16h-174q-92 -92 -92 -195q0 -59 36 -98t107 -39q16 0 84 13q20 3 32 -9t13 -30v-68q0 -31 -30 -39q-72 -16 -129 -16q-123 0 -203 59t-80 174
q0 76 45 160t102 117l-84 184h-557l-73 -164q-20 -49 -74 -49h-225z" />
    <glyph glyph-name="aogonek" unicode="&#x105;" horiz-adv-x="878" 
d="M322 269q0 -37 26 -63t62 -26q38 0 64 27t25 63t-27 61t-62 25t-63 -25q-25 -26 -25 -62zM356 524q86 0 158 -32q0 72 -20 100q-37 52 -295 2q-43 -8 -49 43l-19 117q-8 43 31 55q20 6 110 18t162 13q188 0 267 -82t79 -266v-453q0 -15 -11 -27t-28 -12h-10
q-92 -92 -92 -195q0 -59 36 -98t107 -39q16 0 84 13q20 3 32 -9t13 -30v-68q0 -31 -30 -39q-72 -16 -129 -16q-125 0 -204 59t-79 174q0 72 46 159t99 116l-28 55q-113 -102 -242 -102t-209 74t-80 196t82 198t219 76z" />
    <glyph glyph-name="Cacute" unicode="&#x106;" horiz-adv-x="1378" 
d="M668 1561q-35 -23 -56 18l-43 86q-10 20 13 39l348 213q8 8 27 7t26 -13l70 -121q20 -41 -13 -61zM72 715q0 307 216 523t513 216t506 -190q31 -29 2 -58l-160 -166q-27 -25 -51 0q-117 104 -283 104q-167 0 -281 -123q-114 -124 -114 -297t116 -295t282 -122t280 99
q29 25 53 -3l160 -170q27 -27 -2 -55q-205 -198 -505 -198t-516 214t-216 521z" />
    <glyph glyph-name="cacute" unicode="&#x107;" horiz-adv-x="860" 
d="M342 1049q-35 -23 -55 18l-43 86q-10 20 12 39l348 213q8 8 28 7t25 -13l70 -121q23 -41 -12 -61zM487 -20q-178 0 -309 124t-131 304t132 306t314 126t304 -148q23 -29 -11 -57l-122 -117q-8 -8 -22 -6t-24 10q-50 53 -118 53t-116 -49q-48 -50 -48 -118t46 -116
t118 -48t135 63q25 25 45 8l123 -106q33 -31 14 -57q-115 -172 -330 -172z" />
    <glyph glyph-name="Ccircumflex" unicode="&#x108;" horiz-adv-x="1378" 
d="M610 1561q-27 -14 -45 8l-67 96q-12 18 12 39l276 213q23 16 50 0l282 -213q23 -18 12 -39l-69 -94q-18 -25 -43 -10l-203 118zM72 715q0 307 216 523t513 216t506 -190q31 -29 2 -58l-160 -166q-27 -25 -51 0q-117 104 -283 104q-167 0 -281 -123q-114 -124 -114 -297
t116 -295t282 -122t280 99q29 25 53 -3l160 -170q27 -27 -2 -55q-205 -198 -505 -198t-516 214t-216 521z" />
    <glyph glyph-name="ccircumflex" unicode="&#x109;" horiz-adv-x="860" 
d="M285 1049q-27 -14 -45 8l-68 96q-12 18 12 39l277 213q23 16 49 0l283 -213q23 -18 12 -39l-70 -94q-18 -25 -43 -10l-203 118zM487 -20q-178 0 -309 124t-131 304t132 306t314 126t304 -148q23 -29 -11 -57l-122 -117q-8 -8 -22 -6t-24 10q-50 53 -118 53t-116 -49
q-48 -50 -48 -118t46 -116t118 -48t135 63q25 25 45 8l123 -106q33 -31 14 -57q-115 -172 -330 -172z" />
    <glyph glyph-name="Cdotaccent" unicode="&#x10a;" horiz-adv-x="1378" 
d="M813 1585q-68 0 -115 47t-47 115t47 116t115 48t116 -48t48 -116t-48 -115t-116 -47zM72 715q0 307 216 523t513 216t506 -190q31 -29 2 -58l-160 -166q-27 -25 -51 0q-117 104 -283 104q-167 0 -281 -123q-114 -124 -114 -297t116 -295t282 -122t280 99q29 25 53 -3
l160 -170q27 -27 -2 -55q-205 -198 -505 -198t-516 214t-216 521z" />
    <glyph glyph-name="cdotaccent" unicode="&#x10b;" horiz-adv-x="860" 
d="M487 1067q-69 0 -115 47t-46 115t47 116t115 48t115 -48q48 -48 48 -116t-48 -115t-116 -47zM487 -20q-178 0 -309 124t-131 304t132 306t314 126t304 -148q23 -29 -11 -57l-122 -117q-8 -8 -22 -6t-24 10q-50 53 -118 53t-116 -49q-48 -50 -48 -118t46 -116t118 -48
t135 63q25 25 45 8l123 -106q33 -31 14 -57q-115 -172 -330 -172z" />
    <glyph glyph-name="Ccaron" unicode="&#x10c;" horiz-adv-x="1378" 
d="M791 1561l-283 213q-23 18 -12 38l69 95q18 25 43 10l203 -119l205 119q27 14 45 -8l67 -97q12 -18 -12 -38l-276 -213q-22 -16 -49 0zM72 715q0 307 216 523t513 216t506 -190q31 -29 2 -58l-160 -166q-27 -25 -51 0q-117 104 -283 104q-167 0 -281 -123
q-114 -124 -114 -297t116 -295t282 -122t280 99q29 25 53 -3l160 -170q27 -27 -2 -55q-205 -198 -505 -198t-516 214t-216 521z" />
    <glyph glyph-name="ccaron" unicode="&#x10d;" horiz-adv-x="860" 
d="M465 1049l-283 213q-23 18 -12 38l70 95q18 25 43 10l202 -119l205 119q27 14 45 -8l68 -97q12 -18 -12 -38l-277 -213q-22 -16 -49 0zM487 -20q-178 0 -309 124t-131 304t132 306t314 126t304 -148q23 -29 -11 -57l-122 -117q-8 -8 -22 -6t-24 10q-50 53 -118 53
t-116 -49q-48 -50 -48 -118t46 -116t118 -48t135 63q25 25 45 8l123 -106q33 -31 14 -57q-115 -172 -330 -172z" />
    <glyph glyph-name="Dcaron" unicode="&#x10e;" horiz-adv-x="1505" 
d="M645 1561l-283 213q-23 18 -12 38l70 95q18 25 43 10l203 -119l204 119q27 14 45 -8l68 -97q12 -18 -12 -38l-277 -213q-22 -16 -49 0zM496 303h196q172 0 286 120t114 295t-114 295t-286 120h-196v-830zM176 39v1356q0 16 11 27t26 12h500q297 0 508 -210t211 -506
t-211 -507t-508 -211h-500q-14 0 -26 11q-11 12 -11 28z" />
    <glyph glyph-name="dcaron" unicode="&#x10f;" horiz-adv-x="1126" 
d="M1077 1306q0 62 46 105t117 43t128 -58t57 -179q0 -209 -190 -367q-25 -19 -45 4l-31 31q-23 25 2 45q143 104 146 246q-35 -14 -89 -14t-98 41q-43 41 -43 103zM498 244q70 0 116 48t48 119q0 71 -48 117t-116 47q-70 -1 -118 -47t-48 -117t48 -119t118 -48zM51 424
q0 192 117 304t291 112q102 0 170 -39v594q0 14 11 26t28 13h227q15 0 27 -12t12 -27v-1356q0 -15 -12 -27t-27 -12h-96q-29 0 -43 41l-25 68q-11 -14 -31 -36t-92 -58t-151 -35q-172 0 -289 126t-117 318z" />
    <glyph glyph-name="Dcroat" unicode="&#x110;" horiz-adv-x="1515" 
d="M506 303h196q172 0 286 120t114 295t-114 295t-286 120h-196v-367h291q16 0 27 -11t12 -28v-37q0 -16 -12 -26t-27 -11h-291v-350zM186 39v614h-59q-13 -1 -25 11t-12 28v35q0 15 11 27t26 12h59v629q0 16 12 27t25 12h500q297 0 508 -210t211 -506t-211 -507t-508 -211
h-500q-13 0 -25 12t-12 27z" />
    <glyph glyph-name="dcroat" unicode="&#x111;" 
d="M500 246q70 0 116 47t46 116t-46 115t-116 47q-70 -1 -117 -47t-47 -115t47 -116t117 -47zM51 424q0 192 117 304t291 112q102 0 170 -39v286h-197q-16 1 -28 11t-11 26v37q0 15 11 27t28 12h197v195q0 14 11 26t28 13h227q15 0 27 -12t12 -27v-195h65q13 0 25 -11
t12 -28v-35q0 -16 -11 -27t-26 -12h-65v-1048q0 -15 -12 -27t-27 -12h-96q-29 0 -43 41l-25 68q-11 -14 -31 -36t-92 -58t-151 -35q-172 0 -289 126t-117 318z" />
    <glyph glyph-name="Emacron" unicode="&#x112;" horiz-adv-x="1200" 
d="M950 1677q0 -35 -39 -37h-524q-15 0 -27 10t-12 27v84q0 39 39 39h524q39 0 39 -39v-84zM176 39v1356q0 16 11 27t28 12h848q15 0 27 -12t12 -27v-224q0 -16 -11 -27t-28 -11h-567v-254h467q16 1 27 -11t11 -28v-224q0 -16 -11 -27t-27 -11h-467v-277h567q15 0 27 -11
t12 -28v-223q0 -15 -11 -27t-28 -12h-848q-16 0 -28 11q-11 12 -11 28z" />
    <glyph glyph-name="emacron" unicode="&#x113;" horiz-adv-x="899" 
d="M215 1153q-39 0 -39 37v84q0 39 39 39h524q39 0 39 -39v-84q0 -16 -11 -26t-28 -11h-524zM465 621q-41 0 -73 -28t-38 -69h219q-2 39 -34 68q-33 29 -74 29zM49 409q0 177 123 304t292 127t284 -110t114 -275q0 -27 -4 -56q-4 -35 -39 -34h-491q6 -51 46 -93t114 -43
q74 0 141 50q31 25 51 0l102 -123q25 -33 -2 -60q-117 -116 -300 -116t-307 126t-124 303z" />
    <glyph glyph-name="Ebreve" unicode="&#x114;" horiz-adv-x="1200" 
d="M648 1563q-112 -1 -192 69t-98 176q-4 18 8 32t31 13h92q27 0 35 -24q14 -43 48 -71t75 -28t75 30t48 69q6 25 35 24h96q17 0 29 -13t10 -32q-16 -106 -98 -176t-194 -69zM176 39v1356q0 16 11 27t28 12h848q15 0 27 -12t12 -27v-224q0 -16 -11 -27t-28 -11h-567v-254
h467q16 1 27 -11t11 -28v-224q0 -16 -11 -27t-27 -11h-467v-277h567q15 0 27 -11t12 -28v-223q0 -15 -11 -27t-28 -12h-848q-16 0 -28 11q-11 12 -11 28z" />
    <glyph glyph-name="ebreve" unicode="&#x115;" horiz-adv-x="899" 
d="M476 1079q-112 0 -192 70t-98 176q-4 17 8 31t31 14h92q27 0 35 -24q14 -43 48 -71t75 -28t75 30t48 69q6 25 35 24h96q17 0 29 -13t10 -32q-16 -106 -98 -176t-194 -70zM465 621q-41 0 -73 -28t-38 -69h219q-2 39 -34 68q-33 29 -74 29zM49 409q0 177 123 304t292 127
t284 -110t114 -275q0 -27 -4 -56q-4 -35 -39 -34h-491q6 -51 46 -93t114 -43q74 0 141 50q31 25 51 0l102 -123q25 -33 -2 -60q-117 -116 -300 -116t-307 126t-124 303z" />
    <glyph glyph-name="Edotaccent" unicode="&#x116;" horiz-adv-x="1200" 
d="M649 1585q-69 0 -115 47t-47 115t47 116t116 48t115 -48q48 -48 48 -116t-48 -115t-116 -47zM176 39v1356q0 16 11 27t28 12h848q15 0 27 -12t12 -27v-224q0 -16 -11 -27t-28 -11h-567v-254h467q16 1 27 -11t11 -28v-224q0 -16 -11 -27t-27 -11h-467v-277h567
q15 0 27 -11t12 -28v-223q0 -15 -11 -27t-28 -12h-848q-16 0 -28 11q-11 12 -11 28z" />
    <glyph glyph-name="edotaccent" unicode="&#x117;" horiz-adv-x="899" 
d="M477 1067q-68 0 -115 47t-47 115t47 116t115 48t116 -48t48 -116t-48 -115t-116 -47zM465 621q-41 0 -73 -28t-38 -69h219q-2 39 -34 68q-33 29 -74 29zM49 409q0 177 123 304t292 127t284 -110t114 -275q0 -27 -4 -56q-4 -35 -39 -34h-491q6 -51 46 -93t114 -43
q74 0 141 50q31 25 51 0l102 -123q25 -33 -2 -60q-117 -116 -300 -116t-307 126t-124 303z" />
    <glyph glyph-name="Eogonek" unicode="&#x118;" horiz-adv-x="1200" 
d="M176 39v1356q0 16 11 27t28 12h848q15 0 27 -12t12 -27v-224q0 -16 -11 -27t-28 -11h-567v-254h467q16 1 27 -11t11 -28v-224q0 -16 -11 -27t-27 -11h-467v-277h567q15 0 27 -11t12 -28v-190q0 -36 -10 -46t-31 -26q-92 -92 -92 -195q0 -59 36 -98t107 -39q16 0 84 13
q20 3 32 -9t13 -30v-68q0 -31 -31 -39q-72 -16 -129 -16q-123 0 -203 59t-79 184q0 125 112 238h-696q-16 0 -28 11q-11 12 -11 28z" />
    <glyph glyph-name="eogonek" unicode="&#x119;" horiz-adv-x="903" 
d="M467 621q-41 0 -73 -28t-38 -69h219q-2 39 -34 68q-33 29 -74 29zM274 -240q0 123 105 232q-145 33 -237 149q-91 117 -91 281t123 291t292 127t284 -110t114 -275q0 -27 -4 -56q-4 -35 -39 -34h-491q6 -51 46 -95t112 -43q72 0 139 49q33 24 49 4q71 -86 104 -120
q33 -33 6 -60q-106 -106 -268 -118q-74 -86 -74 -177q0 -59 36 -98t108 -39q16 0 84 13q20 3 32 -9t13 -30v-68q0 -31 -31 -39q-72 -16 -129 -16q-123 0 -203 59t-80 182z" />
    <glyph glyph-name="Ecaron" unicode="&#x11a;" horiz-adv-x="1200" 
d="M627 1561l-283 213q-23 18 -12 38l69 95q18 25 43 10l203 -119l205 119q27 14 45 -8l68 -97q12 -18 -13 -38l-276 -213q-22 -16 -49 0zM176 39v1356q0 16 11 27t28 12h848q15 0 27 -12t12 -27v-224q0 -16 -11 -27t-28 -11h-567v-254h467q16 1 27 -11t11 -28v-224
q0 -16 -11 -27t-27 -11h-467v-277h567q15 0 27 -11t12 -28v-223q0 -15 -11 -27t-28 -12h-848q-16 0 -28 11q-11 12 -11 28z" />
    <glyph glyph-name="ecaron" unicode="&#x11b;" horiz-adv-x="899" 
d="M455 1049l-283 213q-23 18 -12 38l69 95q18 25 43 10l203 -119l205 119q27 14 45 -8l68 -97q12 -18 -13 -38l-276 -213q-22 -16 -49 0zM465 621q-41 0 -73 -28t-38 -69h219q-2 39 -34 68q-33 29 -74 29zM49 409q0 177 123 304t292 127t284 -110t114 -275q0 -27 -4 -56
q-4 -35 -39 -34h-491q6 -51 46 -93t114 -43q74 0 141 50q31 25 51 0l102 -123q25 -33 -2 -60q-117 -116 -300 -116t-307 126t-124 303z" />
    <glyph glyph-name="Gcircumflex" unicode="&#x11c;" horiz-adv-x="1437" 
d="M608 1561q-27 -14 -45 8l-67 96q-12 18 12 39l276 213q23 16 50 0l282 -213q23 -18 12 -39l-69 -94q-18 -25 -43 -10l-203 118zM883 459q-39 0 -39 37v202q0 39 39 39h411q14 0 26 -11t11 -28l2 -551q0 -20 -16 -32q-25 -14 -68 -37t-176 -60t-264 -36q-307 0 -521 213
t-214 520t215 522t520 215q129 0 262 -51t238 -141q33 -27 4 -56l-162 -172q-27 -23 -55 -2q-106 98 -270 98t-284 -122q-118 -122 -118 -290q0 -169 119 -289t286 -120q100 0 183 33v119h-129z" />
    <glyph glyph-name="gcircumflex" unicode="&#x11d;" horiz-adv-x="952" 
d="M311 1049q-27 -14 -45 8l-67 96q-12 18 12 39l276 213q23 16 50 0l282 -213q23 -18 12 -39l-69 -94q-18 -25 -43 -10l-203 118zM336 -299q0 -96 147 -96t148 96q0 86 -148 86q-61 -1 -104 -23t-43 -63zM387 467q0 -45 31 -76t78 -31q48 0 78 30t30 77t-31 77t-77 30
t-78 -32q-31 -30 -31 -75zM592 20q147 0 250 -82q102 -83 102 -229t-115 -245t-340 -99t-329 83t-104 204t124 188v6q-27 7 -73 44q-84 68 -84 184q0 72 40 128q41 56 82 77l41 20q-59 61 -59 195t106 240t254 106h387q39 0 39 -39v-84q0 -25 -22 -35l-119 -43
q30 -22 54 -81q24 -58 24 -118q0 -119 -99 -214t-255 -95h-148q-68 0 -67 -55q0 -54 65 -56h246z" />
    <glyph glyph-name="Gbreve" unicode="&#x11e;" horiz-adv-x="1437" 
d="M810 1563q-112 -1 -193 69t-97 176q-4 18 7 32t32 13h92q27 0 35 -24q14 -43 48 -71t75 -28t75 30t48 69q6 25 35 24h96q17 0 29 -13t10 -32q-16 -106 -98 -176t-194 -69zM883 459q-39 0 -39 37v202q0 39 39 39h411q14 0 26 -11t11 -28l2 -551q0 -20 -16 -32
q-25 -14 -68 -37t-176 -60t-264 -36q-307 0 -521 213t-214 520t215 522t520 215q129 0 262 -51t238 -141q33 -27 4 -56l-162 -172q-27 -23 -55 -2q-106 98 -270 98t-284 -122q-118 -122 -118 -290q0 -169 119 -289t286 -120q100 0 183 33v119h-129z" />
    <glyph glyph-name="gbreve" unicode="&#x11f;" horiz-adv-x="952" 
d="M513 1079q-113 0 -193 70t-97 176q-4 17 7 31t32 14h92q27 0 35 -24q14 -43 48 -71t75 -28t75 30t48 69q6 25 35 24h96q18 0 30 -13t9 -32q-16 -106 -98 -176t-194 -70zM336 -299q0 -96 147 -96t148 96q0 86 -148 86q-61 -1 -104 -23t-43 -63zM387 467q0 -45 31 -76
t78 -31q48 0 78 30t30 77t-31 77t-77 30t-78 -32q-31 -30 -31 -75zM592 20q147 0 250 -82q102 -83 102 -229t-115 -245t-340 -99t-329 83t-104 204t124 188v6q-27 7 -73 44q-84 68 -84 184q0 72 40 128q41 56 82 77l41 20q-59 61 -59 195t106 240t254 106h387q39 0 39 -39
v-84q0 -25 -22 -35l-119 -43q30 -22 54 -81q24 -58 24 -118q0 -119 -99 -214t-255 -95h-148q-68 0 -67 -55q0 -54 65 -56h246z" />
    <glyph glyph-name="Gdotaccent" unicode="&#x120;" horiz-adv-x="1437" 
d="M811 1585q-68 0 -115 47t-47 115t47 116t115 48t116 -48t48 -116t-48 -115t-116 -47zM883 459q-39 0 -39 37v202q0 39 39 39h411q14 0 26 -11t11 -28l2 -551q0 -20 -16 -32q-25 -14 -68 -37t-176 -60t-264 -36q-307 0 -521 213t-214 520t215 522t520 215q129 0 262 -51
t238 -141q33 -27 4 -56l-162 -172q-27 -23 -55 -2q-106 98 -270 98t-284 -122q-118 -122 -118 -290q0 -169 119 -289t286 -120q100 0 183 33v119h-129z" />
    <glyph glyph-name="gdotaccent" unicode="&#x121;" horiz-adv-x="952" 
d="M522 1067q-68 0 -114 47t-48 115q0 68 48 116t114 48q68 0 116 -48t48 -116t-48 -115t-116 -47zM336 -299q0 -96 147 -96t148 96q0 86 -148 86q-61 -1 -104 -23t-43 -63zM387 467q0 -45 31 -76t78 -31q48 0 78 30t30 77t-31 77t-77 30t-78 -32q-31 -30 -31 -75zM592 20
q147 0 250 -82q102 -83 102 -229t-115 -245t-340 -99t-329 83t-104 204t124 188v6q-27 7 -73 44q-84 68 -84 184q0 72 40 128q41 56 82 77l41 20q-59 61 -59 195t106 240t254 106h387q39 0 39 -39v-84q0 -25 -22 -35l-119 -43q30 -22 54 -81q24 -58 24 -118q0 -119 -99 -214
t-255 -95h-148q-68 0 -67 -55q0 -54 65 -56h246z" />
    <glyph glyph-name="Gcommaaccent" unicode="&#x122;" horiz-adv-x="1437" 
d="M668 -332q0 60 46 104t116 44q71 0 128 -58t58 -180q0 -209 -191 -366q-25 -18 -45 4l-30 30q-23 25 2 45q143 104 145 246q-35 -14 -89 -14t-97 42t-43 103zM883 459q-39 0 -39 37v202q0 39 39 39h411q14 0 26 -11t11 -28l2 -551q0 -20 -16 -32q-25 -14 -68 -37
t-176 -60t-264 -36q-307 0 -521 213t-214 520t215 522t520 215q129 0 262 -51t238 -141q33 -27 4 -56l-162 -172q-27 -23 -55 -2q-106 98 -270 98t-284 -122q-118 -122 -118 -290q0 -169 119 -289t286 -120q100 0 183 33v119h-129z" />
    <glyph glyph-name="gcommaaccent" unicode="&#x123;" horiz-adv-x="952" 
d="M336 -299q0 -96 147 -96t148 96q0 86 -148 86q-61 -1 -104 -23t-43 -63zM387 467q0 -45 31 -76t78 -31q48 0 78 30t30 77t-31 77t-77 30t-78 -32q-31 -30 -31 -75zM592 20q147 0 250 -82q102 -83 102 -229t-115 -245t-340 -99t-329 83t-104 204t124 188v6q-27 7 -73 44
q-84 68 -84 184q0 72 40 128q41 56 82 77l41 20q-59 61 -59 195t106 240t254 106h387q39 0 39 -39v-84q0 -25 -22 -35l-119 -43q30 -22 54 -81q24 -58 24 -118q0 -119 -99 -214t-255 -95h-148q-68 0 -67 -55q0 -54 65 -56h246zM688 1221q0 -61 -46 -105t-117 -43t-128 59
t-57 179q0 209 190 366q25 18 45 -4l31 -31q23 -25 -2 -45q-143 -104 -145 -245q35 14 89 14t97 -42t43 -103z" />
    <glyph glyph-name="Hcircumflex" unicode="&#x124;" horiz-adv-x="1581" 
d="M588 1561q-27 -14 -45 8l-68 96q-12 18 12 39l277 213q23 16 49 0l283 -213q23 -18 12 -39l-70 -94q-18 -25 -43 -10l-202 118zM176 39v1356q0 14 12 26t27 13h244q16 0 27 -12t12 -27v-516h585v516q-1 16 11 27t28 12h244q14 0 26 -12t13 -27v-1356q0 -15 -12 -27
t-27 -12h-244q-16 0 -27 11t-12 28v539h-585v-539q0 -15 -12 -27t-27 -12h-244q-14 0 -27 12q-12 13 -12 27z" />
    <glyph glyph-name="hcircumflex" unicode="&#x125;" horiz-adv-x="1085" 
d="M49 1493q-27 -14 -45 8l-67 96q-12 18 12 39l276 213q23 16 49 0l283 -213q23 -18 12 -39l-69 -94q-18 -25 -43 -10l-203 119zM111 39v1356q0 14 12 26t27 13h227q16 0 27 -12t12 -27v-602q94 47 190 47q184 0 288 -125t103 -305v-371q0 -15 -11 -27t-28 -12h-217
q-16 0 -27 11t-12 28v375q0 70 -42 116t-103 45q-61 1 -101 -37t-40 -124v-375q0 -39 -45 -39h-221q-14 0 -27 12q-12 13 -12 27z" />
    <glyph glyph-name="Hbar" unicode="&#x126;" horiz-adv-x="1581" 
d="M498 879h585v208h-585v-208zM1501 1124q0 -35 -39 -37h-57v-1048q0 -15 -12 -27t-27 -12h-244q-16 0 -27 11t-12 28v539h-585v-539q0 -15 -12 -27t-27 -12h-244q-14 0 -27 12q-12 13 -12 27v1048h-57q-13 -1 -25 11t-12 28v35q0 15 11 27t26 12h57v195q0 14 12 26t27 13
h244q16 0 27 -12t12 -27v-195h585v195q-1 16 11 27t28 12h244q14 0 26 -12t13 -27v-195h57q16 0 28 -11t11 -28v-37z" />
    <glyph glyph-name="hbar" unicode="&#x127;" horiz-adv-x="1087" 
d="M653 1124q0 -35 -39 -37h-198v-296q100 47 190 47q184 0 288 -123t103 -305v-371q0 -15 -11 -27t-28 -12h-217q-16 0 -27 11t-12 28v371q0 70 -42 116t-102 45q-60 1 -101 -33t-41 -108v-391q0 -39 -45 -39h-221q-14 0 -27 12q-12 13 -12 27v1048h-64q-14 -1 -25 11
t-12 28v35q0 15 12 27t25 12h64v195q0 14 12 26t27 13h227q16 0 27 -12t12 -27v-195h198q16 0 28 -11t11 -28v-37z" />
    <glyph glyph-name="Itilde" unicode="&#x128;" horiz-adv-x="675" 
d="M234 1884q50 0 117 -48t104 -48t77 63q20 33 52 4l69 -53q29 -20 2 -59q-94 -160 -204 -160q-57 0 -126 49t-93 49t-37 -11t-31 -35t-21 -25q-18 -18 -45 -2l-71 57q-25 18 -13 47q45 82 108 127q62 45 112 45zM176 39v1356q0 14 12 26t27 13h246q14 0 26 -12t13 -27
v-1356q0 -15 -12 -27t-27 -12h-246q-14 0 -27 12q-12 13 -12 27z" />
    <glyph glyph-name="itilde" unicode="&#x129;" horiz-adv-x="524" 
d="M158 1413q50 0 118 -48q66 -48 103 -48t78 63q20 33 51 4l70 -53q29 -20 2 -59q-94 -160 -205 -160q-57 0 -126 49t-92 49t-37 -11t-32 -35t-20 -25q-18 -18 -45 -2l-72 57q-25 18 -12 47q45 82 107 127t112 45zM111 39v739q0 16 11 28t28 11h225q16 0 27 -11t12 -28
v-739q0 -15 -12 -27t-27 -12h-225q-14 0 -27 12q-12 13 -12 27z" />
    <glyph glyph-name="Imacron" unicode="&#x12a;" horiz-adv-x="675" 
d="M639 1677q0 -35 -39 -37h-524q-16 0 -28 10t-11 27v84q0 39 39 39h524q39 0 39 -39v-84zM176 39v1356q0 14 12 26t27 13h246q14 0 26 -12t13 -27v-1356q0 -15 -12 -27t-27 -12h-246q-14 0 -27 12q-12 13 -12 27z" />
    <glyph glyph-name="imacron" unicode="&#x12b;" horiz-adv-x="524" 
d="M0 1153q-39 0 -39 37v84q0 39 39 39h524q39 0 39 -39v-84q0 -16 -11 -26t-28 -11h-524zM111 39v739q0 16 11 28t28 11h225q16 0 27 -11t12 -28v-739q0 -15 -12 -27t-27 -12h-225q-14 0 -27 12q-12 13 -12 27z" />
    <glyph glyph-name="Ibreve" unicode="&#x12c;" horiz-adv-x="675" 
d="M337 1563q-112 -1 -193 69t-97 176q-4 18 7 32t32 13h92q27 0 35 -24q14 -43 48 -71t75 -28t75 30t48 69q6 25 35 24h96q18 0 30 -13t9 -32q-16 -106 -98 -176t-194 -69zM176 39v1356q0 14 12 26t27 13h246q14 0 26 -12t13 -27v-1356q0 -15 -12 -27t-27 -12h-246
q-14 0 -27 12q-12 13 -12 27z" />
    <glyph glyph-name="ibreve" unicode="&#x12d;" horiz-adv-x="524" 
d="M261 1079q-113 0 -193 70t-97 176q-4 17 7 31t32 14h92q27 0 35 -24q14 -43 48 -71t75 -28t75 30t48 69q6 25 35 24h96q18 0 30 -13t9 -32q-16 -106 -98 -176t-194 -70zM111 39v739q0 16 11 28t28 11h225q16 0 27 -11t12 -28v-739q0 -15 -12 -27t-27 -12h-225
q-14 0 -27 12q-12 13 -12 27z" />
    <glyph glyph-name="Iogonek" unicode="&#x12e;" horiz-adv-x="675" 
d="M176 39v1356q0 14 12 26t27 13h246q14 0 26 -12t13 -27v-1356q0 -15 -12 -27t-27 -12h-60q-92 -92 -92 -195q0 -59 36 -98t108 -39q16 0 84 13q20 3 32 -9t13 -30v-68q0 -31 -31 -39q-72 -16 -129 -16q-123 0 -203 59t-80 184t113 238h-37q-14 0 -27 12q-12 13 -12 27z
" />
    <glyph glyph-name="iogonek" unicode="&#x12f;" horiz-adv-x="524" 
d="M111 39v741q0 16 11 28t28 11h225q16 0 27 -11t12 -28v-741q0 -15 -12 -27t-27 -12h-51q-92 -92 -93 -195q0 -59 36 -98t108 -39q16 0 84 13q21 3 33 -9t12 -30v-68q0 -31 -31 -39q-72 -16 -129 -16q-123 0 -203 59t-80 184t113 238h-24q-14 0 -27 12q-12 13 -12 27z
M260 1067q-68 0 -115 47t-47 115t47 116t115 48t116 -48t48 -116t-48 -115t-116 -47z" />
    <glyph glyph-name="Idotaccent" unicode="&#x130;" horiz-adv-x="675" 
d="M338 1585q-68 0 -115 47t-47 115t47 116t115 48t116 -48t48 -116t-48 -115t-116 -47zM176 39v1356q0 14 12 26t27 13h246q14 0 26 -12t13 -27v-1356q0 -15 -12 -27t-27 -12h-246q-14 0 -27 12q-12 13 -12 27z" />
    <glyph glyph-name="dotlessi" unicode="&#x131;" horiz-adv-x="524" 
d="M111 39v739q0 16 11 28t28 11h225q16 0 27 -11t12 -28v-739q0 -15 -12 -27t-27 -12h-225q-14 0 -27 12q-12 13 -12 27z" />
    <glyph glyph-name="IJ" unicode="&#x132;" horiz-adv-x="1589" 
d="M988 274q54 0 91 42t37 114v965q0 16 11 27t28 12h250q15 0 27 -12t12 -27v-967q0 -207 -127 -328t-315 -121t-310 150q-16 27 4 51l140 137q29 27 55 0q43 -43 97 -43zM176 39v1356q0 14 12 26t27 13h246q14 0 26 -12t13 -27v-1356q0 -15 -12 -27t-27 -12h-246
q-14 0 -27 12q-12 13 -12 27z" />
    <glyph glyph-name="ij" unicode="&#x133;" horiz-adv-x="1075" 
d="M659 -188v968q-1 16 11 28t28 11h228q16 0 27 -11t12 -28v-968q0 -209 -116 -328t-300 -119q-74 0 -148 25t-102 53q-25 20 -8 47l86 170q4 10 19 15t28 -1q61 -33 106 -32q129 0 129 170zM811 1067q-68 0 -115 47t-47 115t47 116t115 48t116 -48t48 -116t-48 -115
t-116 -47zM111 39v741q0 16 11 28t28 11h225q16 0 27 -11t12 -28v-741q0 -15 -12 -27t-27 -12h-225q-14 0 -27 12q-12 13 -12 27zM260 1067q-68 0 -115 47t-47 115t47 116t115 48t116 -48t48 -116t-48 -115t-116 -47z" />
    <glyph glyph-name="Jcircumflex" unicode="&#x134;" horiz-adv-x="870" 
d="M344 1561q-27 -14 -45 8l-68 96q-12 18 13 39l276 213q23 16 49 0l283 -213q23 -18 12 -39l-69 -94q-18 -25 -43 -10l-203 118zM267 274q54 0 91 42t37 114v965q-1 16 11 27t28 12h250q16 0 28 -12t11 -27v-967q0 -207 -127 -328q-128 -121 -316 -121t-309 150
q-16 27 4 51l140 137q29 27 55 0q43 -43 97 -43z" />
    <glyph glyph-name="jcircumflex" unicode="&#x135;" horiz-adv-x="526" 
d="M61 1049q-27 -14 -45 8l-67 96q-12 18 12 39l277 213q23 16 49 0l282 -213q23 -18 13 -39l-70 -94q-18 -25 -43 -10l-203 118zM111 -188v966q0 16 11 28t28 11h227q16 0 27 -11t12 -28v-966q0 -209 -116 -328t-300 -119q-74 0 -148 25t-102 53q-25 20 -8 47l86 170
q4 10 19 15t28 -1q61 -33 107 -32q129 0 129 170z" />
    <glyph glyph-name="Kcommaaccent" unicode="&#x136;" horiz-adv-x="1378" 
d="M623 -332q-1 60 45 104t117 44t128 -58t58 -180q0 -209 -191 -366q-25 -18 -45 4l-30 30q-23 25 2 45q143 104 145 246q-35 -14 -89 -14t-97 42t-43 103zM176 49v1335q0 20 14 34t35 16h240q21 0 35 -14t14 -36v-538l455 567q16 20 39 21h258q29 0 41 -27t-4 -49
l-480 -600l523 -680q16 -24 3 -50t-42 -26h-283q-27 0 -37 14l-473 643v-610q0 -21 -14 -35t-35 -14h-240q-20 0 -35 14q-14 15 -14 35z" />
    <glyph glyph-name="kcommaaccent" unicode="&#x137;" horiz-adv-x="1046" 
d="M401 -332q0 60 46 104t117 44t128 -58t58 -180q0 -209 -191 -366q-25 -18 -45 4l-31 30q-23 25 2 45q143 104 146 246q-35 -14 -89 -14t-98 42q-43 42 -43 103zM111 39v1356q0 14 12 26t27 13h227q16 0 27 -12t12 -27v-887l248 287q25 25 51 24h229q27 0 37 -20t-6 -43
l-270 -314l327 -381q16 -21 6 -41t-37 -20h-276q-18 0 -31 16l-278 357v-334q0 -15 -12 -27t-27 -12h-227q-14 0 -27 12q-12 13 -12 27z" />
    <glyph glyph-name="kgreenlandic" unicode="&#x138;" horiz-adv-x="1050" 
d="M111 39v741q0 14 12 26t27 13h227q16 0 27 -12t12 -27v-313l268 328q25 25 51 24h230q27 0 37 -20t-7 -43l-297 -355l334 -340q16 -21 6 -41t-37 -20h-276q-18 0 -31 16l-278 316v-293q0 -15 -12 -27t-27 -12h-227q-14 0 -27 12q-12 13 -12 27z" />
    <glyph glyph-name="Lacute" unicode="&#x139;" horiz-adv-x="1046" 
d="M188 1561q-35 -23 -55 18l-43 86q-10 20 12 39l349 213q8 8 27 7t26 -13l69 -121q20 -41 -12 -61zM176 39v1356q0 16 11 27t28 12h244q16 0 27 -12t12 -27v-1094h487q15 0 27 -11t12 -28v-223q0 -15 -11 -27t-28 -12h-770q-16 0 -28 11q-11 12 -11 28z" />
    <glyph glyph-name="lacute" unicode="&#x13a;" horiz-adv-x="524" 
d="M111 1493q-35 -23 -56 18l-43 86q-10 20 13 39l348 213q8 7 27 7t26 -13l70 -121q20 -41 -13 -61zM111 39v1356q0 14 12 26t27 13h225q14 0 26 -12t13 -27v-1356q0 -15 -12 -27t-27 -12h-225q-14 0 -27 12q-12 13 -12 27z" />
    <glyph glyph-name="Lcommaaccent" unicode="&#x13b;" horiz-adv-x="1046" 
d="M457 -332q-1 60 45 104t117 44t129 -58t57 -180q0 -209 -191 -366q-25 -18 -45 4l-30 30q-23 25 2 45q143 104 145 246q-35 -14 -89 -14t-97 42t-43 103zM176 39v1356q0 16 11 27t28 12h244q16 0 27 -12t12 -27v-1094h487q15 0 27 -11t12 -28v-223q0 -15 -11 -27t-28 -12
h-770q-16 0 -28 11q-11 12 -11 28z" />
    <glyph glyph-name="lcommaaccent" unicode="&#x13c;" horiz-adv-x="524" 
d="M88 -332q0 60 46 104t117 44t128 -58t57 -180q0 -209 -190 -366q-25 -18 -45 4l-31 30q-23 25 2 45q143 104 145 246q-35 -14 -89 -14t-97 42t-43 103zM111 39v1356q0 14 12 26t27 13h225q14 0 26 -12t13 -27v-1356q0 -15 -12 -27t-27 -12h-225q-14 0 -27 12
q-12 13 -12 27z" />
    <glyph glyph-name="Lcaron" unicode="&#x13d;" horiz-adv-x="1046" 
d="M796 1454q71 0 128 -58t57 -179q0 -209 -190 -367q-25 -18 -46 4l-30 31q-23 25 2 45q143 104 145 246q-35 -14 -89 -14t-97 41t-43 103t46 105t117 43zM176 39v1356q0 16 11 27t28 12h244q16 0 27 -12t12 -27v-1094h487q15 0 27 -11t12 -28v-223q0 -15 -11 -27t-28 -12
h-770q-16 0 -28 11q-11 12 -11 28z" />
    <glyph glyph-name="lcaron" unicode="&#x13e;" horiz-adv-x="606" 
d="M559 1306q0 62 46 105t117 43t128 -58t57 -179q0 -209 -190 -367q-25 -19 -45 4l-31 31q-23 25 2 45q143 104 145 246q-34 -14 -88 -14t-98 41q-43 41 -43 103zM111 39v1356q0 14 12 26t27 13h225q14 0 26 -12t13 -27v-1356q0 -15 -12 -27t-27 -12h-225q-14 0 -27 12
q-12 13 -12 27z" />
    <glyph glyph-name="Ldot" unicode="&#x13f;" horiz-adv-x="1175" 
d="M973 575q-68 -1 -115 47t-47 116t47 115q47 48 115 48t116 -48t48 -116t-48 -115t-116 -47zM176 39v1356q0 16 11 27t28 12h244q16 0 27 -12t12 -27v-1094h487q15 0 27 -11t12 -28v-223q0 -15 -11 -27t-28 -12h-770q-16 0 -28 11q-11 12 -11 28z" />
    <glyph glyph-name="ldot" unicode="&#x140;" horiz-adv-x="925" 
d="M702 575q-68 -1 -114 47t-47 116q0 68 47 115q46 48 114 48t116 -48t48 -116t-48 -115t-116 -47zM111 39v1356q0 14 12 26t27 13h225q14 0 26 -12t13 -27v-1356q0 -15 -12 -27t-27 -12h-225q-14 0 -27 12q-12 13 -12 27z" />
    <glyph glyph-name="Lslash" unicode="&#x141;" horiz-adv-x="1079" 
d="M209 39v584l-47 -27q-35 -18 -53 14l-17 31q-20 33 12 51l105 60v643q0 16 11 27t28 12h244q16 0 27 -12t11 -27v-457l154 90q35 18 53 -14l19 -33q18 -29 -15 -51l-211 -123v-506h488q16 0 28 -11t11 -28v-223q0 -15 -11 -27t-28 -12h-770q-16 0 -28 11q-11 12 -11 28z
" />
    <glyph glyph-name="lslash" unicode="&#x142;" horiz-adv-x="550" 
d="M137 39v588l-53 -31q-35 -18 -53 14l-17 31q-20 33 13 51l110 64v639q0 14 11 26t28 13h225q15 0 27 -12t12 -27v-461l103 61q35 18 53 -14l18 -33q18 -29 -14 -51l-160 -94v-764q0 -15 -11 -27t-28 -12h-225q-16 0 -28 12q-11 13 -11 27z" />
    <glyph glyph-name="Nacute" unicode="&#x143;" horiz-adv-x="1583" 
d="M649 1561q-35 -23 -55 18l-43 86q-10 20 12 39l348 213q7 8 27 7t27 -13l69 -121q23 -41 -12 -61zM213 1454h51l817 -786h2v727q-1 16 11 27t28 12h246q16 0 28 -12t11 -27v-1379q0 -14 -11 -25t-28 -11h-33q-16 0 -26 10l-809 813h-2v-764q0 -15 -12 -27t-27 -12h-244
q-14 0 -27 12q-12 13 -12 27l-2 1378q0 13 11 25t28 12z" />
    <glyph glyph-name="nacute" unicode="&#x144;" horiz-adv-x="1081" 
d="M420 1049q-35 -23 -55 18l-43 86q-10 20 12 39l348 213q8 8 28 7t25 -13l70 -121q23 -41 -12 -61zM111 39v741q0 16 11 28t28 11h96q27 0 37 -24l32 -82q117 127 294 127t281 -122t103 -306v-373q0 -15 -11 -27t-28 -12h-219q-16 0 -27 11t-12 28v383q0 66 -37 110
t-101 43q-64 0 -111 -40q-46 -41 -46 -103v-393q0 -39 -36 -39h-215q-14 0 -27 12q-12 13 -12 27z" />
    <glyph glyph-name="Ncommaaccent" unicode="&#x145;" horiz-adv-x="1583" 
d="M666 -332q0 60 46 104t116 44q71 0 128 -58t58 -180q0 -209 -191 -366q-25 -18 -45 4l-30 30q-23 25 2 45q143 104 145 246q-35 -14 -89 -14t-97 42t-43 103zM213 1454h51l817 -786h2v727q-1 16 11 27t28 12h246q16 0 28 -12t11 -27v-1379q0 -14 -11 -25t-28 -11h-33
q-16 0 -26 10l-809 813h-2v-764q0 -15 -12 -27t-27 -12h-244q-14 0 -27 12q-12 13 -12 27l-2 1378q0 13 11 25t28 12z" />
    <glyph glyph-name="ncommaaccent" unicode="&#x146;" horiz-adv-x="1083" 
d="M387 -332q0 60 46 104t117 44t128 -58t57 -180q0 -209 -190 -366q-25 -18 -45 4l-31 30q-23 25 2 45q143 104 145 246q-34 -14 -88 -14t-98 42q-43 42 -43 103zM111 39v741q0 16 11 28t28 11h96q27 0 37 -24l32 -82q117 127 294 127t281 -122t103 -306v-373
q0 -15 -11 -27t-28 -12h-219q-16 0 -27 11t-12 28v383q0 66 -37 110t-101 43q-64 0 -111 -40q-46 -41 -46 -103v-393q0 -39 -36 -39h-215q-14 0 -27 12q-12 13 -12 27z" />
    <glyph glyph-name="Ncaron" unicode="&#x147;" horiz-adv-x="1583" 
d="M772 1561l-283 213q-23 18 -12 38l70 95q18 25 43 10l203 -119l204 119q27 14 45 -8l68 -97q12 -18 -12 -38l-277 -213q-22 -16 -49 0zM213 1454h51l817 -786h2v727q-1 16 11 27t28 12h246q16 0 28 -12t11 -27v-1379q0 -14 -11 -25t-28 -11h-33q-16 0 -26 10l-809 813h-2
v-764q0 -15 -12 -27t-27 -12h-244q-14 0 -27 12q-12 13 -12 27l-2 1378q0 13 11 25t28 12z" />
    <glyph glyph-name="ncaron" unicode="&#x148;" horiz-adv-x="1081" 
d="M539 1049l-283 213q-23 18 -12 38l69 95q18 25 43 10l203 -119l205 119q27 14 45 -8l68 -97q12 -18 -13 -38l-276 -213q-22 -16 -49 0zM111 39v741q0 16 11 28t28 11h96q27 0 37 -24l32 -82q117 127 294 127t281 -122t103 -306v-373q0 -15 -11 -27t-28 -12h-219
q-16 0 -27 11t-12 28v383q0 66 -37 110t-101 43q-64 0 -111 -40q-46 -41 -46 -103v-393q0 -39 -36 -39h-215q-14 0 -27 12q-12 13 -12 27z" />
    <glyph glyph-name="napostrophe" unicode="&#x149;" horiz-adv-x="1081" 
d="M-122 1454q71 0 128 -58t57 -179q0 -209 -190 -367q-25 -18 -45 4l-31 31q-23 25 2 45q143 104 146 246q-35 -14 -89 -14t-98 41q-43 41 -43 103t46 105t117 43zM111 39v741q0 16 11 28t28 11h96q27 0 37 -24l32 -82q117 127 294 127t281 -122t103 -306v-373
q0 -15 -11 -27t-28 -12h-219q-16 0 -27 11t-12 28v383q0 66 -37 110t-101 43q-64 0 -111 -40q-46 -41 -46 -103v-393q0 -39 -36 -39h-215q-14 0 -27 12q-12 13 -12 27z" />
    <glyph glyph-name="Eng" unicode="&#x14a;" horiz-adv-x="1583" 
d="M213 1454h51l817 -799h2v740q-1 16 11 27t28 12h246q16 0 28 -12t11 -27l-2 -1583q0 -209 -116 -328t-300 -119q-73 0 -147 25t-103 53q-25 20 -8 47l86 170q3 10 19 15t28 -1q61 -33 107 -32q125 0 125 170v397l-596 594h-2v-764q0 -15 -12 -27t-27 -12h-244
q-14 0 -27 12q-12 13 -12 27l-2 1378q0 13 11 25t28 12z" />
    <glyph glyph-name="eng" unicode="&#x14b;" horiz-adv-x="1081" 
d="M111 39v741q0 16 11 28t28 11h96q27 0 37 -24l32 -82q117 127 294 127t281 -122t103 -306v-600q1 -209 -115 -328t-300 -119q-74 0 -148 25t-102 53q-25 20 -9 47l87 170q4 10 19 15t28 -1q61 -32 117 -32t92 46q35 46 34 124v600q0 63 -36 104t-101 41t-111 -37t-47 -98
v-383q0 -39 -36 -39h-215q-14 0 -27 12q-12 13 -12 27z" />
    <glyph glyph-name="Omacron" unicode="&#x14c;" horiz-adv-x="1615" 
d="M1108 1677q0 -35 -39 -37h-524q-15 0 -27 10t-12 27v84q0 39 39 39h524q39 0 39 -39v-84zM399 716q0 -169 120 -289t288 -120t289 120t121 289t-121 290q-121 120 -289 120t-288 -120t-120 -290zM72 715q0 307 214 523t521 216t522 -216t215 -523t-215 -521t-522 -214
t-521 214t-214 521z" />
    <glyph glyph-name="omacron" unicode="&#x14d;" horiz-adv-x="946" 
d="M211 1153q-39 0 -39 37v84q0 39 39 39h524q39 0 39 -39v-84q0 -16 -11 -26t-28 -11h-524zM473 575q-68 1 -115 -47t-47 -117t47 -118t115 -49t115 49t47 118t-47 117t-115 47zM47 411q0 175 126 302t300 127t300 -127t126 -302t-126 -303t-300 -128t-300 128t-126 303z
" />
    <glyph glyph-name="Obreve" unicode="&#x14e;" horiz-adv-x="1615" 
d="M806 1563q-112 -1 -193 69t-97 176q-4 18 7 32t32 13h92q27 0 35 -24q14 -43 48 -71t75 -28t75 30t48 69q6 25 35 24h96q17 0 29 -13t10 -32q-16 -106 -98 -176t-194 -69zM399 716q0 -169 120 -289t288 -120t289 120t121 289t-121 290q-121 120 -289 120t-288 -120
t-120 -290zM72 715q0 307 214 523t521 216t522 -216t215 -523t-215 -521t-522 -214t-521 214t-214 521z" />
    <glyph glyph-name="obreve" unicode="&#x14f;" horiz-adv-x="946" 
d="M472 1079q-112 0 -192 70t-98 176q-4 17 7 31t32 14h92q27 0 35 -24q14 -43 48 -71t75 -28t75 30t48 69q6 25 35 24h96q17 0 29 -13t10 -32q-16 -106 -98 -176t-194 -70zM473 575q-68 1 -115 -47t-47 -117t47 -118t115 -49t115 49t47 118t-47 117t-115 47zM47 411
q0 175 126 302t300 127t300 -127t126 -302t-126 -303t-300 -128t-300 128t-126 303z" />
    <glyph glyph-name="Ohungarumlaut" unicode="&#x150;" horiz-adv-x="1615" 
d="M612 1573q-16 0 -29 12t-10 27l62 289q12 39 39 38h192q29 0 39 -15t-2 -36l-160 -284q-14 -31 -36 -31h-95zM952 1573q-16 0 -29 12t-10 27l62 289q12 39 39 38h192q29 0 39 -16t-2 -35l-160 -284q-23 -31 -36 -31h-95zM399 716q0 -169 120 -289t288 -120t289 120
t121 289t-121 290q-121 120 -289 120t-288 -120t-120 -290zM72 715q0 307 214 523t521 216t522 -216t215 -523t-215 -521t-522 -214t-521 214t-214 521z" />
    <glyph glyph-name="ohungarumlaut" unicode="&#x151;" horiz-adv-x="946" 
d="M266 1067q-16 0 -29 12t-10 27l62 289q12 39 39 39h192q29 0 39 -16t-2 -36l-160 -284q-16 -31 -37 -31h-94zM606 1067q-16 0 -29 12t-10 27l62 289q12 39 39 39h192q29 0 39 -16t-2 -36l-160 -284q-23 -31 -37 -31h-94zM473 575q-68 1 -115 -47t-47 -117t47 -118
t115 -49t115 49t47 118t-47 117t-115 47zM47 411q0 175 126 302t300 127t300 -127t126 -302t-126 -303t-300 -128t-300 128t-126 303z" />
    <glyph glyph-name="OE" unicode="&#x152;" horiz-adv-x="2002" 
d="M399 716q0 -169 121 -292t287 -123q100 0 172 33v764q-72 33 -172 32q-168 0 -288 -122t-120 -292zM72 715q0 307 214 523t521 216q105 0 182 -16l29 -4h848q16 0 27 -12t12 -27v-224q1 -16 -11 -27t-28 -11h-568v-254h467q15 1 27 -11t12 -28v-224q0 -16 -11 -27
t-28 -11h-467v-277h568q16 0 27 -11t12 -28v-223q1 -15 -11 -27t-28 -12h-848q-109 -20 -211 -20q-307 0 -521 214t-214 521z" />
    <glyph glyph-name="oe" unicode="&#x153;" horiz-adv-x="1454" 
d="M475 575q-68 -1 -115 -47t-47 -115t47 -119t115 -50t115 50t47 119t-47 115t-115 47zM1020 621q-41 0 -73 -28t-38 -69h219q-2 39 -34 68q-33 29 -74 29zM49 413q0 175 126 301t289 126t286 -107q118 107 278 107t275 -110t114 -275q0 -27 -4 -56q-4 -35 -39 -34h-491
q6 -51 46 -95q41 -44 113 -43q72 0 138 49q33 24 49 4q71 -86 104 -120q33 -33 6 -60q-121 -120 -295 -120t-294 104q-117 -104 -283 -104t-292 129t-126 304z" />
    <glyph glyph-name="Racute" unicode="&#x154;" horiz-adv-x="1372" 
d="M518 1561q-35 -23 -55 18l-43 86q-10 20 12 39l348 213q8 8 28 7t26 -13l69 -121q23 -41 -12 -61zM498 821h303q63 0 109 49q46 50 46 114t-46 110t-109 47h-303v-320zM176 39v1356q0 16 11 27t28 12h612q183 0 315 -130t132 -313q0 -137 -83 -247t-220 -164l280 -521
q12 -19 1 -39t-35 -20h-273q-23 0 -33 18l-272 543h-141v-522q0 -15 -12 -27t-27 -12h-244q-16 0 -28 11q-11 12 -11 28z" />
    <glyph glyph-name="racute" unicode="&#x155;" horiz-adv-x="706" 
d="M217 1049q-35 -23 -55 18l-43 86q-10 20 12 39l348 213q7 8 27 7t26 -13l70 -121q20 -41 -12 -61zM111 39v741q0 16 11 28t28 11h96q25 0 37 -24l36 -90q94 135 218 135t165 -45q18 -20 5 -43l-101 -164q-16 -29 -43 -19q-27 11 -63 11t-66 -33q-31 -33 -31 -84v-424
q0 -39 -45 -39h-208q-14 0 -27 12q-12 13 -12 27z" />
    <glyph glyph-name="Rcommaaccent" unicode="&#x156;" horiz-adv-x="1370" 
d="M541 -332q-1 60 45 104t117 44t128 -58t58 -180q0 -209 -191 -366q-25 -18 -45 4l-30 30q-23 25 2 45q143 104 145 246q-35 -14 -89 -14t-97 42t-43 103zM498 821h303q63 0 109 49q46 50 46 114t-46 110t-109 47h-303v-320zM176 39v1356q0 16 11 27t28 12h612
q183 0 315 -130t132 -313q0 -137 -83 -247t-220 -164l280 -521q12 -19 1 -39t-35 -20h-273q-23 0 -33 18l-272 543h-141v-522q0 -15 -12 -27t-27 -12h-244q-16 0 -28 11q-11 12 -11 28z" />
    <glyph glyph-name="rcommaaccent" unicode="&#x157;" horiz-adv-x="706" 
d="M92 -332q0 60 46 104t117 44t128 -58t57 -180q0 -209 -190 -366q-25 -18 -45 4l-31 30q-23 25 2 45q143 104 146 246q-35 -14 -89 -14t-98 42q-43 42 -43 103zM111 39v741q0 16 11 28t28 11h96q25 0 37 -24l36 -90q94 135 218 135t165 -45q18 -20 5 -43l-101 -164
q-16 -29 -43 -19q-27 11 -63 11t-66 -33q-31 -33 -31 -84v-424q0 -39 -45 -39h-208q-14 0 -27 12q-12 13 -12 27z" />
    <glyph glyph-name="Rcaron" unicode="&#x158;" horiz-adv-x="1372" 
d="M641 1561l-283 213q-23 18 -12 38l70 95q18 25 43 10l203 -119l204 119q27 14 45 -8l68 -97q12 -18 -12 -38l-277 -213q-22 -16 -49 0zM498 821h303q63 0 109 49q46 50 46 114t-46 110t-109 47h-303v-320zM176 39v1356q0 16 11 27t28 12h612q183 0 315 -130t132 -313
q0 -137 -83 -247t-220 -164l280 -521q12 -19 1 -39t-35 -20h-273q-23 0 -33 18l-272 543h-141v-522q0 -15 -12 -27t-27 -12h-244q-16 0 -28 11q-11 12 -11 28z" />
    <glyph glyph-name="rcaron" unicode="&#x159;" horiz-adv-x="706" 
d="M340 1049l-283 213q-23 18 -12 38l70 95q18 25 43 10l202 -119l205 119q27 14 45 -8l68 -97q12 -18 -12 -38l-277 -213q-22 -16 -49 0zM111 39v741q0 16 11 28t28 11h96q25 0 37 -24l36 -90q94 135 218 135t165 -45q18 -20 5 -43l-101 -164q-16 -29 -43 -19
q-27 11 -63 11t-66 -33q-31 -33 -31 -84v-424q0 -39 -45 -39h-208q-14 0 -27 12q-12 13 -12 27z" />
    <glyph glyph-name="Sacute" unicode="&#x15a;" horiz-adv-x="1122" 
d="M414 1561q-35 -23 -56 18l-43 86q-10 20 13 39l348 213q8 8 27 7t26 -13l70 -121q20 -41 -13 -61zM565 264q47 0 87 35t40 88q0 123 -211 207q-397 158 -397 453q0 167 125 287t351 120t435 -154q17 -10 19 -32t-6 -33l-105 -158q-12 -18 -34 -27q-21 -9 -29 -4t-34 23
t-107 60q-82 42 -147 44q-66 1 -103 -30t-37 -81t51 -96t172 -96q414 -164 414 -467q-1 -167 -135 -295t-349 -128q-174 0 -290 51t-171 106q-16 15 -18 25t8 33l96 170q10 18 35 20t35 -8l14 -8q147 -105 291 -105z" />
    <glyph glyph-name="sacute" unicode="&#x15b;" horiz-adv-x="759" 
d="M238 1049q-35 -23 -56 18l-43 86q-10 20 13 39l348 213q8 8 27 7t26 -13l70 -121q20 -41 -13 -61zM367 195q39 0 39 36q0 45 -117 86q-229 80 -230 275q0 108 81 178t246 70t265 -64q37 -25 21 -51l-76 -139q-12 -25 -43 -13q-94 47 -174 48q-45 0 -45 -31t116 -72
t187 -102q70 -61 70 -175q-1 -114 -91 -188t-270 -74t-264 68q-27 23 -14 43l71 141q3 11 17 17t26 0q96 -53 185 -53z" />
    <glyph glyph-name="Scircumflex" unicode="&#x15c;" horiz-adv-x="1122" 
d="M356 1561q-27 -14 -45 8l-67 96q-12 18 12 39l276 213q23 16 50 0l282 -213q23 -18 13 -39l-70 -94q-18 -25 -43 -10l-203 118zM565 264q47 0 87 35t40 88q0 123 -211 207q-397 158 -397 453q0 167 125 287t351 120t435 -154q17 -10 19 -32t-6 -33l-105 -158
q-12 -18 -34 -27q-21 -9 -29 -4t-34 23t-107 60q-82 42 -147 44q-66 1 -103 -30t-37 -81t51 -96t172 -96q414 -164 414 -467q-1 -167 -135 -295t-349 -128q-174 0 -290 51t-171 106q-16 15 -18 25t8 33l96 170q10 18 35 20t35 -8l14 -8q147 -105 291 -105z" />
    <glyph glyph-name="scircumflex" unicode="&#x15d;" horiz-adv-x="759" 
d="M178 1049q-27 -14 -45 8l-67 96q-12 18 12 39l276 213q23 16 49 0l283 -213q23 -18 12 -39l-69 -94q-18 -25 -43 -10l-203 118zM367 195q39 0 39 36q0 45 -117 86q-229 80 -230 275q0 108 81 178t246 70t265 -64q37 -25 21 -51l-76 -139q-12 -25 -43 -13q-94 47 -174 48
q-45 0 -45 -31t116 -72t187 -102q70 -61 70 -175q-1 -114 -91 -188t-270 -74t-264 68q-27 23 -14 43l71 141q3 11 17 17t26 0q96 -53 185 -53z" />
    <glyph glyph-name="Scedilla" unicode="&#x15e;" horiz-adv-x="1126" 
d="M567 264q47 0 87 35t40 88q0 123 -211 207q-397 158 -397 453q0 167 125 287t351 120t435 -154q17 -10 19 -32t-6 -33l-105 -158q-12 -18 -34 -27q-21 -9 -29 -4t-34 23t-107 60q-82 42 -147 44q-66 1 -103 -30t-37 -81t51 -96t172 -96q414 -164 414 -467
q0 -167 -131 -293t-342 -130v-86q92 -12 140 -68t48 -143t-64 -151t-155 -64q-92 0 -154 71q-27 29 8 60l48 41q23 23 39 0t47 -23q31 1 49 21t18 45q0 80 -139 86q-35 4 -35 36v187q-213 30 -322 145q-16 15 -18 25t8 33l97 170q11 18 35 20t34 -8l14 -8q147 -105 291 -105
z" />
    <glyph glyph-name="scedilla" unicode="&#x15f;" horiz-adv-x="761" 
d="M369 195q39 0 39 36q0 45 -117 86q-229 80 -230 275q0 108 81 178t246 70t265 -64q37 -25 21 -51l-76 -139q-12 -25 -43 -13q-94 47 -174 48q-45 0 -45 -31t116 -72t187 -102q70 -62 70 -172t-80 -182t-230 -80v-88q93 -12 141 -68t48 -143t-64 -151t-155 -64
q-92 0 -154 71q-27 29 8 60l47 41q23 23 39 0t47 -23q32 1 50 21t18 45q0 80 -139 86q-35 4 -35 36v183q-113 16 -166 59q-27 23 -14 43l71 141q3 11 17 17t26 0q96 -53 185 -53z" />
    <glyph glyph-name="Scaron" unicode="&#x160;" horiz-adv-x="1122" 
d="M537 1561l-283 213q-23 18 -12 38l69 95q18 25 43 10l203 -119l205 119q27 14 45 -8l67 -97q12 -18 -12 -38l-276 -213q-22 -16 -49 0zM565 264q47 0 87 35t40 88q0 123 -211 207q-397 158 -397 453q0 167 125 287t351 120t435 -154q17 -10 19 -32t-6 -33l-105 -158
q-12 -18 -34 -27q-21 -9 -29 -4t-34 23t-107 60q-82 42 -147 44q-66 1 -103 -30t-37 -81t51 -96t172 -96q414 -164 414 -467q-1 -167 -135 -295t-349 -128q-174 0 -290 51t-171 106q-16 15 -18 25t8 33l96 170q10 18 35 20t35 -8l14 -8q147 -105 291 -105z" />
    <glyph glyph-name="scaron" unicode="&#x161;" horiz-adv-x="759" 
d="M358 1049l-282 213q-23 18 -13 38l70 95q18 25 43 10l203 -119l205 119q27 14 45 -8l67 -97q12 -18 -12 -38l-276 -213q-23 -16 -50 0zM367 195q39 0 39 36q0 45 -117 86q-229 80 -230 275q0 108 81 178t246 70t265 -64q37 -25 21 -51l-76 -139q-12 -25 -43 -13
q-94 47 -174 48q-45 0 -45 -31t116 -72t187 -102q70 -61 70 -175q-1 -114 -91 -188t-270 -74t-264 68q-27 23 -14 43l71 141q3 11 17 17t26 0q96 -53 185 -53z" />
    <glyph glyph-name="Tcommaaccent" unicode="&#x162;" horiz-adv-x="1040" 
d="M336 -332q0 60 46 104t117 44t128 -58t57 -180q0 -209 -190 -366q-25 -18 -45 4l-31 30q-23 25 2 45q143 104 145 246q-35 -14 -89 -14t-97 42t-43 103zM358 39v1094h-292q-16 0 -28 11q-11 11 -11 27v224q0 16 11 27t28 12h909q16 0 27 -12t12 -27v-224q0 -16 -12 -27
t-27 -11h-293v-1094q0 -15 -11 -27t-28 -12h-246q-15 0 -27 12t-12 27z" />
    <glyph glyph-name="tcommaaccent" unicode="&#x163;" horiz-adv-x="704" 
d="M215 -332q0 60 46 104t117 44t128 -58t57 -180q0 -209 -190 -366q-25 -18 -45 4l-31 30q-23 25 2 45q143 104 145 246q-35 -14 -89 -14t-97 42t-43 103zM53 780q0 39 37 39h53v228q1 14 13 26t26 12h219q13 0 25 -11t12 -27v-228h152q39 0 39 -39v-182q1 -16 -11 -28
t-28 -11h-152v-256q0 -49 56 -49q8 0 79 14q37 6 45 -26l46 -170q8 -37 -27 -47q-145 -45 -255 -45t-174 72t-65 212v295h-53q-14 0 -25 11t-12 28v182z" />
    <glyph glyph-name="Tcaron" unicode="&#x164;" 
d="M500 1561l-283 213q-23 18 -12 38l69 95q18 25 43 10l203 -119l205 119q27 14 45 -8l68 -97q12 -18 -13 -38l-276 -213q-22 -16 -49 0zM360 39v1094h-292q-16 0 -28 11q-11 11 -11 27v224q0 16 11 27t28 12h909q15 0 27 -12t12 -27v-224q0 -16 -11 -27t-28 -11h-293
v-1094q0 -15 -12 -27t-27 -12h-246q-15 0 -27 12t-12 27z" />
    <glyph glyph-name="tcaron" unicode="&#x165;" horiz-adv-x="704" 
d="M692 1306q0 62 46 105t117 43t128 -58t57 -179q0 -209 -190 -367q-25 -19 -45 4l-31 31q-23 25 2 45q143 104 146 246q-35 -14 -89 -14t-98 41q-43 41 -43 103zM53 780q0 39 37 39h53v228q1 14 13 26t26 12h219q13 0 25 -11t12 -27v-228h152q39 0 39 -39v-182
q1 -16 -11 -28t-28 -11h-152v-256q0 -49 56 -49q8 0 79 14q37 6 45 -26l46 -170q8 -37 -27 -47q-145 -45 -255 -45t-174 72t-65 212v295h-53q-14 0 -25 11t-12 28v182z" />
    <glyph glyph-name="Tbar" unicode="&#x166;" 
d="M360 39v553h-167q-14 0 -26 11q-11 11 -11 28v35q0 16 11 27t26 12h167v428h-292q-16 0 -28 11q-11 11 -11 27v224q0 16 11 27t28 12h909q15 0 27 -12t12 -27v-224q0 -16 -11 -27t-28 -11h-293v-428h178q16 1 28 -11t11 -28v-37q0 -17 -11 -27t-28 -10h-178v-553
q0 -15 -12 -27t-27 -12h-246q-15 0 -27 12t-12 27z" />
    <glyph glyph-name="tbar" unicode="&#x167;" horiz-adv-x="704" 
d="M53 780q0 39 37 39h53v228q1 14 13 26t26 12h219q13 0 25 -11t12 -27v-228h152q39 0 39 -39v-182q1 -16 -11 -28t-28 -11h-152v-102h152q16 1 27 -11t12 -28v-37q1 -17 -11 -27t-28 -10h-152v-35q0 -49 60 -49q36 0 74 7t46 -25l46 -170q4 -37 -27 -47q-145 -45 -255 -45
t-174 72t-65 212v80h-53q-14 0 -25 11t-12 28v35q-1 16 11 27t26 12h53v102h-53q-14 0 -25 11t-12 28v182z" />
    <glyph glyph-name="Utilde" unicode="&#x168;" horiz-adv-x="1478" 
d="M636 1884q50 0 117 -48t103 -48t78 63q20 33 51 4l70 -53q29 -20 2 -59q-94 -160 -205 -160q-57 0 -126 49t-92 49q-24 0 -38 -11t-32 -35t-19 -25q-18 -18 -45 -2l-72 57q-25 18 -12 47q45 82 108 127q62 45 112 45zM156 549v846q0 14 12 26t27 13h251q16 0 28 -12
t11 -27v-830q0 -109 72 -183q71 -74 181 -75q110 0 183 75t72 183v830q-1 16 11 27t28 12h252q14 0 26 -12t13 -27v-846q0 -233 -172 -401t-413 -168q-242 0 -412 168t-170 401z" />
    <glyph glyph-name="utilde" unicode="&#x169;" 
d="M414 1413q50 0 118 -48q66 -48 103 -48t78 63q20 33 51 4l70 -53q29 -20 2 -59q-94 -160 -205 -160q-57 0 -126 49t-92 49t-37 -11t-32 -35t-20 -25q-18 -18 -45 -2l-72 57q-25 18 -12 47q45 82 107 127t112 45zM92 410v370q0 16 11 28t28 11h219q16 0 28 -11t11 -28
v-379q0 -65 35 -111t94 -46t92 44t33 101v391q0 39 43 39h209q15 0 27 -11t12 -28v-741q0 -15 -12 -27t-27 -12h-96q-27 0 -39 29l-31 75q-43 -43 -63 -59t-80 -41t-133 -24q-174 0 -268 121q-93 123 -93 309z" />
    <glyph glyph-name="Umacron" unicode="&#x16a;" horiz-adv-x="1478" 
d="M1040 1677q0 -35 -39 -37h-524q-16 0 -27 10t-12 27v84q0 39 39 39h524q39 0 39 -39v-84zM156 549v846q0 14 12 26t27 13h251q16 0 28 -12t11 -27v-830q0 -109 72 -183q71 -74 181 -75q110 0 183 75t72 183v830q-1 16 11 27t28 12h252q14 0 26 -12t13 -27v-846
q0 -233 -172 -401t-413 -168q-242 0 -412 168t-170 401z" />
    <glyph glyph-name="umacron" unicode="&#x16b;" 
d="M256 1153q-39 0 -39 37v84q0 39 39 39h524q39 0 39 -39v-84q0 -16 -11 -26t-28 -11h-524zM92 410v370q0 16 11 28t28 11h219q16 0 28 -11t11 -28v-379q0 -65 35 -111t94 -46t92 44t33 101v391q0 39 43 39h209q15 0 27 -11t12 -28v-741q0 -15 -12 -27t-27 -12h-96
q-27 0 -39 29l-31 75q-43 -43 -63 -59t-80 -41t-133 -24q-174 0 -268 121q-93 123 -93 309z" />
    <glyph glyph-name="Ubreve" unicode="&#x16c;" horiz-adv-x="1478" 
d="M738 1563q-112 -1 -192 69t-97 176q-4 18 7 32t31 13h93q27 0 34 -24q14 -43 48 -71t76 -28q40 0 74 30t48 69q6 25 35 24h96q17 0 29 -13t10 -32q-16 -106 -98 -176t-194 -69zM156 549v846q0 14 12 26t27 13h251q16 0 28 -12t11 -27v-830q0 -109 72 -183q71 -74 181 -75
q110 0 183 75t72 183v830q-1 16 11 27t28 12h252q14 0 26 -12t13 -27v-846q0 -233 -172 -401t-413 -168q-242 0 -412 168t-170 401z" />
    <glyph glyph-name="ubreve" unicode="&#x16d;" 
d="M521 1079q-113 0 -193 70t-97 176q-5 17 7 31t32 14h92q27 0 35 -24q14 -43 48 -71t75 -28t75 30t48 69q6 25 35 24h96q18 0 30 -13t9 -32q-16 -106 -98 -176t-194 -70zM92 410v370q0 16 11 28t28 11h219q16 0 28 -11t11 -28v-379q0 -65 35 -111t94 -46t92 44t33 101v391
q0 39 43 39h209q15 0 27 -11t12 -28v-741q0 -15 -12 -27t-27 -12h-96q-27 0 -39 29l-31 75q-43 -43 -63 -59t-80 -41t-133 -24q-174 0 -268 121q-93 123 -93 309z" />
    <glyph glyph-name="Uring" unicode="&#x16e;" horiz-adv-x="1478" 
d="M739 1686q35 0 62 28t26 62q-1 36 -27 62t-61 26t-63 -27t-27 -61q-1 -34 27 -62t63 -28zM738 1540q-97 0 -166 69t-68 167q0 98 68 167q69 69 166 69t167 -70q70 -68 70 -166t-70 -167t-167 -69zM156 549v846q0 14 12 26t27 13h251q16 0 28 -12t11 -27v-830
q0 -109 72 -183q71 -74 181 -75q110 0 183 75t72 183v830q-1 16 11 27t28 12h252q14 0 26 -12t13 -27v-846q0 -233 -172 -401t-413 -168q-242 0 -412 168t-170 401z" />
    <glyph glyph-name="uring" unicode="&#x16f;" 
d="M522 1128q35 0 62 28t26 63q0 35 -26 61t-62 27q-34 0 -62 -27q-28 -28 -28 -62t28 -62t62 -28zM521 983q-97 0 -166 69t-68 167q1 99 69 167t165 68t167 -69t70 -167t-70 -166q-70 -69 -167 -69zM92 410v370q0 16 11 28t28 11h219q16 0 28 -11t11 -28v-379
q0 -65 35 -111t94 -46t92 44t33 101v391q0 39 43 39h209q15 0 27 -11t12 -28v-741q0 -15 -12 -27t-27 -12h-96q-27 0 -39 29l-31 75q-43 -43 -63 -59t-80 -41t-133 -24q-174 0 -268 121q-93 123 -93 309z" />
    <glyph glyph-name="Uhungarumlaut" unicode="&#x170;" horiz-adv-x="1478" 
d="M524 1573q-16 0 -29 12t-10 27l62 289q12 39 39 38h192q29 0 39 -15t-2 -36l-160 -284q-16 -31 -37 -31h-94zM864 1573q-16 0 -29 12t-10 27l62 289q12 39 39 38h192q29 0 39 -16t-2 -35l-160 -284q-23 -31 -37 -31h-94zM156 549v846q0 14 12 26t27 13h251q16 0 28 -12
t11 -27v-830q0 -109 72 -183q71 -74 181 -75q110 0 183 75t72 183v830q-1 16 11 27t28 12h252q14 0 26 -12t13 -27v-846q0 -233 -172 -401t-413 -168q-242 0 -412 168t-170 401z" />
    <glyph glyph-name="uhungarumlaut" unicode="&#x171;" 
d="M319 1067q-16 0 -29 12t-9 27l61 289q12 39 39 39h192q29 0 39 -16t-2 -36l-159 -284q-16 -31 -37 -31h-95zM659 1067q-16 0 -29 12t-9 27l61 289q12 39 39 39h192q29 0 39 -16t-2 -36l-159 -284q-23 -31 -37 -31h-95zM92 410v370q0 16 11 28t28 11h219q16 0 28 -11
t11 -28v-379q0 -65 35 -111t94 -46t92 44t33 101v391q0 39 43 39h209q15 0 27 -11t12 -28v-741q0 -15 -12 -27t-27 -12h-96q-27 0 -39 29l-31 75q-43 -43 -63 -59t-80 -41t-133 -24q-174 0 -268 121q-93 123 -93 309z" />
    <glyph glyph-name="Uogonek" unicode="&#x172;" horiz-adv-x="1488" 
d="M162 549v846q0 14 11 26t28 13h252q16 0 27 -12t12 -27v-830q0 -109 72 -183t180 -75q110 0 183 75t72 183v830q-1 16 11 27t28 12h252q16 0 28 -12t11 -27v-846q1 -219 -153 -382t-377 -183q-76 -90 -76 -164q0 -152 143 -152q16 0 84 13q20 3 32 -9t13 -30v-68
q0 -31 -30 -39q-72 -16 -129 -16q-123 0 -203 59t-80 183t100 225q-211 32 -351 192t-140 371z" />
    <glyph glyph-name="uogonek" unicode="&#x173;" 
d="M92 410v370q0 16 11 28t28 11h219q16 0 28 -11t11 -28v-370q0 -66 35 -108t94 -42t92 41t33 96v383q0 39 43 39h209q15 0 27 -11t12 -28v-741q0 -15 -12 -27t-27 -12h-18q-92 -92 -93 -195q0 -59 36 -98t108 -39q16 0 84 13q20 3 32 -9t13 -30v-68q0 -31 -31 -39
q-72 -16 -129 -16q-123 0 -203 59t-80 174q0 72 46 159t100 116v2l-31 75q-43 -43 -63 -59t-80 -41t-133 -24q-174 0 -268 121q-93 123 -93 309z" />
    <glyph glyph-name="Wcircumflex" unicode="&#x174;" horiz-adv-x="1835" 
d="M711 1561q-27 -14 -45 8l-68 96q-12 18 12 39l277 213q23 16 49 0l283 -213q23 -18 12 -39l-70 -94q-18 -25 -43 -10l-203 118zM326 1434q29 0 36 -29l177 -694h8l317 721q12 23 35 22h37q27 0 35 -22l317 -721h8l177 694q8 29 36 29h240q23 0 33 -14t4 -36l-387 -1376
q-6 -29 -37 -28h-33q-23 0 -35 22l-374 838h-7l-372 -838q-12 -23 -35 -22h-33q-31 -1 -37 28l-387 1376q-6 20 4 34t33 16h240z" />
    <glyph glyph-name="wcircumflex" unicode="&#x175;" horiz-adv-x="1267" 
d="M430 1049q-27 -14 -45 8l-68 96q-12 18 13 39l276 213q23 16 49 0l283 -213q23 -18 12 -39l-69 -94q-18 -25 -43 -10l-203 118zM57 819h195q31 0 37 -24l106 -281h2l195 309q10 16 33 17h20q23 0 31 -17l196 -309h2l105 281q10 25 41 24h190q23 0 34 -15t3 -36l-272 -764
q-6 -25 -37 -24h-8q-25 0 -33 16l-264 410h-2l-260 -410q-12 -16 -33 -16h-10q-31 -1 -35 24l-273 764q-8 20 4 36t33 15z" />
    <glyph glyph-name="Ycircumflex" unicode="&#x176;" horiz-adv-x="1208" 
d="M401 1561q-27 -14 -45 8l-67 96q-12 18 12 39l277 213q23 16 49 0l282 -213q23 -18 13 -39l-70 -94q-18 -25 -43 -10l-203 118zM440 39v651l-452 684q-12 20 -2 40t34 20h267q18 0 32 -19l285 -420l285 420q14 18 33 19h266q25 0 35 -20t-2 -40l-459 -682v-653
q0 -15 -12 -27t-27 -12h-244q-15 0 -27 12t-12 27z" />
    <glyph glyph-name="ycircumflex" unicode="&#x177;" horiz-adv-x="952" 
d="M272 1049q-27 -14 -45 8l-67 96q-12 18 12 39l277 213q23 16 49 0l282 -213q23 -18 13 -39l-70 -94q-18 -25 -43 -10l-203 118zM47 819h234q23 0 34 -22l158 -381h4l162 381q8 23 35 22h231q23 0 34 -16t1 -37l-627 -1356q-12 -25 -34 -24h-230q-23 0 -34 17t-1 38
l305 643l-307 682q-10 20 1 36t34 17z" />
    <glyph glyph-name="Ydieresis" unicode="&#x178;" horiz-adv-x="1208" 
d="M332 1573q-59 0 -102 43q-42 43 -42 102q0 60 42 102t102 42t102 -42q43 -42 43 -102t-43 -102q-43 -43 -102 -43zM874 1573q-59 0 -101 43t-42 102q0 60 42 102t101 42q58 0 102 -42t44 -102t-44 -102q-44 -43 -102 -43zM440 39v651l-452 684q-12 20 -2 40t34 20h267
q18 0 32 -19l285 -420l285 420q14 18 33 19h266q25 0 35 -20t-2 -40l-459 -682v-653q0 -15 -12 -27t-27 -12h-244q-15 0 -27 12t-12 27z" />
    <glyph glyph-name="Zacute" unicode="&#x179;" horiz-adv-x="1110" 
d="M426 1561q-35 -23 -55 18l-43 86q-10 20 12 39l348 213q8 8 28 7t25 -13l70 -121q20 -41 -12 -61zM47 39v37l545 1052v5h-447q-14 0 -26 11t-13 27v224q0 14 12 26t27 13h871q16 0 27 -12t12 -27v-27l-527 -1063v-4h447q16 0 27 -11t12 -28v-223q0 -15 -12 -27t-27 -12
h-889q-16 0 -28 12q-11 13 -11 27z" />
    <glyph glyph-name="zacute" unicode="&#x17a;" horiz-adv-x="755" 
d="M256 1049q-35 -23 -55 18l-43 86q-10 20 12 39l348 213q8 8 28 7t25 -13l70 -121q23 -41 -12 -61zM78 780q0 39 37 39h555q24 0 34 -17t1 -38l-259 -498v-4h183q39 0 39 -39v-184q0 -15 -12 -27t-27 -12h-533q-14 0 -26 12t-13 27v20l240 492v4h-182q-14 0 -26 11
q-11 11 -11 28v186z" />
    <glyph glyph-name="Zdotaccent" unicode="&#x17b;" horiz-adv-x="1110" 
d="M571 1585q-69 0 -115 47t-46 115t47 116t115 48t115 -48q48 -48 48 -116t-48 -115t-116 -47zM47 39v37l545 1052v5h-447q-14 0 -26 11t-13 27v224q0 14 12 26t27 13h871q16 0 27 -12t12 -27v-27l-527 -1063v-4h447q16 0 27 -11t12 -28v-223q0 -15 -12 -27t-27 -12h-889
q-16 0 -28 12q-11 13 -11 27z" />
    <glyph glyph-name="zdotaccent" unicode="&#x17c;" horiz-adv-x="755" 
d="M399 1067q-69 0 -115 47t-46 115t47 116t115 48t115 -48q48 -48 48 -116t-48 -115t-116 -47zM78 780q0 39 37 39h555q24 0 34 -17t1 -38l-259 -498v-4h183q39 0 39 -39v-184q0 -15 -12 -27t-27 -12h-533q-14 0 -26 12t-13 27v20l240 492v4h-182q-14 0 -26 11
q-11 11 -11 28v186z" />
    <glyph glyph-name="Zcaron" unicode="&#x17d;" horiz-adv-x="1110" 
d="M549 1561l-283 213q-23 18 -12 38l70 95q18 25 43 10l202 -119l205 119q27 14 45 -8l68 -97q12 -18 -13 -38l-276 -213q-22 -16 -49 0zM47 39v37l545 1052v5h-447q-14 0 -26 11t-13 27v224q0 14 12 26t27 13h871q16 0 27 -12t12 -27v-27l-527 -1063v-4h447q16 0 27 -11
t12 -28v-223q0 -15 -12 -27t-27 -12h-889q-16 0 -28 12q-11 13 -11 27z" />
    <glyph glyph-name="zcaron" unicode="&#x17e;" horiz-adv-x="755" 
d="M379 1049l-283 213q-23 18 -12 38l70 95q18 25 43 10l202 -119l205 119q27 14 45 -8l68 -97q12 -18 -12 -38l-277 -213q-22 -16 -49 0zM78 780q0 39 37 39h555q24 0 34 -17t1 -38l-259 -498v-4h183q39 0 39 -39v-184q0 -15 -12 -27t-27 -12h-533q-14 0 -26 12t-13 27v20
l240 492v4h-182q-14 0 -26 11q-11 11 -11 28v186z" />
    <glyph glyph-name="florin" unicode="&#x192;" horiz-adv-x="815" 
d="M240 -188v747h-166q-16 0 -28 11q-11 11 -11 28v182q0 39 39 39h166v191q0 208 120 326t318 118q131 0 227 -78q25 -25 8 -51l-98 -162q-18 -29 -58 -10t-86 19t-82 -42q-36 -41 -36 -122v-189h188q39 0 39 -39v-182q0 -16 -11 -28t-28 -11h-188v-749q0 -205 -123 -325
t-315 -120q-131 0 -228 78q-25 25 -8 51l98 162q19 29 59 10q40 -18 86 -18t82 42t36 122z" />
    <glyph glyph-name="Aringacute" unicode="&#x1fa;" horiz-adv-x="1355" 
d="M522 492h312l-156 337h-2zM678 1464q36 0 62 28t26 62t-27 62q-27 26 -61 26t-63 -26q-27 -26 -27 -62q0 -34 28 -62t62 -28zM27 0q-23 0 -34 16t-1 37l596 1282q-66 27 -106 86t-40 145t69 155t166 69t167 -69t70 -155t-42 -145q-41 -59 -106 -86l598 -1282
q10 -21 -1 -37t-34 -16h-227q-47 0 -72 51l-74 162h-557l-73 -164q-20 -49 -74 -49h-225zM532 1792q-35 -23 -55 18l-43 86q-10 20 12 39l349 213q8 8 27 8t26 -14l70 -121q20 -41 -13 -61z" />
    <glyph glyph-name="aringacute" unicode="&#x1fb;" horiz-adv-x="878" 
d="M303 1354q-35 -23 -55 18l-43 86q-10 20 12 39l348 213q7 8 27 7t26 -13l70 -121q20 -41 -12 -61zM449 1024q35 0 61 28t27 62q0 34 -27 62q-28 26 -62 26t-62 -26t-28 -62q0 -34 28 -62t63 -28zM684 1114q0 -98 -70 -166t-166 -69q-97 1 -166 69t-69 166t69 167t166 69
q96 0 166 -69t70 -167zM322 269q0 -37 26 -63t62 -26q38 0 64 27t25 63t-27 61t-62 25t-63 -25q-25 -26 -25 -62zM356 524q86 0 158 -32q0 66 -20 94t-108 26q-88 0 -187 -30q-41 -14 -49 43l-19 129q-8 43 31 55q20 6 110 18t162 13q188 0 267 -82t79 -266v-453
q0 -15 -11 -27t-28 -12h-90q-25 0 -37 27l-28 55q-113 -102 -242 -102t-209 74t-80 196t82 198t219 76z" />
    <glyph glyph-name="AEacute" unicode="&#x1fc;" horiz-adv-x="1839" 
d="M1098 1563q-35 -23 -56 18l-43 86q-10 20 13 39l348 213q8 8 28 7t25 -13l70 -121q20 -41 -13 -61zM815 492v362l-225 -362h225zM-6 0q-23 0 -30 16t5 37l822 1317q31 49 48 56t42 8h821q16 0 28 -12t11 -27v-224q0 -16 -11 -27t-28 -11h-567v-254h467q16 1 27 -11
t11 -28v-224q0 -16 -11 -27t-27 -11h-467v-277h567q16 0 28 -11t11 -28v-223q0 -15 -11 -27t-28 -12h-848q-16 0 -28 11q-11 11 -11 28v174h-377l-108 -178q-20 -35 -60 -35h-276z" />
    <glyph glyph-name="aeacute" unicode="&#x1fd;" horiz-adv-x="1353" 
d="M633 1049q-35 -23 -55 18l-43 86q-10 20 12 39l348 213q7 8 27 7t26 -13l70 -121q23 -41 -12 -61zM322 269q0 -37 26 -63t62 -26q38 0 64 27t25 63t-27 61t-62 25t-63 -25q-25 -26 -25 -62zM920 621q-40 0 -73 -28q-32 -28 -38 -69h219q-2 39 -35 68t-73 29zM53 250
q0 118 82 196t223 78q73 0 136 -24l20 -8q2 70 -22 98q-44 51 -293 4q-39 -4 -47 33l-23 141q-2 14 8 26t25 15q162 31 272 31q180 0 258 -72q106 72 251 72t259 -110t115 -275q0 -90 -43 -90h-492q6 -51 46 -95t113 -43q73 0 138 49q33 23 51 0l107 -120q29 -29 2 -56
q-121 -120 -309 -120t-305 133q-44 -61 -129 -98q-85 -36 -158 -35q-129 0 -207 76t-78 194z" />
    <glyph glyph-name="Oslashacute" unicode="&#x1fe;" horiz-adv-x="1630" 
d="M668 1561q-35 -23 -56 18l-43 86q-10 20 13 39l348 213q8 8 27 7t26 -13l70 -121q20 -41 -13 -61zM827 307q154 0 275 120q121 121 121 275t-84 261l-572 -572q106 -84 260 -84zM813 1126q-168 0 -288 -120t-119 -291q-1 -135 81 -244l574 571q-115 84 -248 84zM78 715
q0 307 214 523t521 216q272 0 481 -178l144 141q25 29 53 0l25 -24q29 -25 0 -54l-144 -143q178 -209 178 -481q0 -307 -215 -521t-508 -214t-495 176l-137 -136q-27 -25 -54 3l-24 24q-27 27 -2 53l137 136q-174 207 -174 479z" />
    <glyph glyph-name="oslashacute" unicode="&#x1ff;" horiz-adv-x="962" 
d="M328 1049q-35 -23 -56 18l-43 86q-10 20 13 39l348 213q8 8 27 7t26 -13l70 -121q20 -41 -13 -61zM491 244q54 0 101 50t47 120q0 33 -14 67l-217 -223q29 -14 83 -14zM464 575q-54 0 -102 -47q-46 -47 -46 -101t14 -83l217 217q-29 14 -83 14zM51 425q0 163 126 289
q125 126 283 126t275 -90l58 57q25 29 53 0l24 -25q29 -25 0 -53l-57 -57q90 -117 90 -258q0 -176 -126 -305q-127 -129 -285 -129t-273 88l-51 -52q-25 -25 -53 2l-25 25q-10 11 -11 27t9 26l51 51q-88 115 -88 278z" />
    <glyph glyph-name="Scommaaccent" unicode="&#x218;" horiz-adv-x="1122" 
d="M422 -332q0 60 46 104t117 44t128 -58t57 -180q0 -209 -190 -366q-25 -18 -45 4l-31 30q-23 25 2 45q143 104 145 246q-35 -14 -89 -14t-97 42t-43 103zM565 264q47 0 87 35t40 88q0 123 -211 207q-397 158 -397 453q0 167 125 287t351 120t435 -154q17 -10 19 -32
t-6 -33l-105 -158q-12 -18 -34 -27q-21 -9 -29 -4t-34 23t-107 60q-82 42 -147 44q-66 1 -103 -30t-37 -81t51 -96t172 -96q414 -164 414 -467q-1 -167 -135 -295t-349 -128q-174 0 -290 51t-171 106q-16 15 -18 25t8 33l96 170q10 18 35 20t35 -8l14 -8q147 -105 291 -105z
" />
    <glyph glyph-name="scommaaccent" unicode="&#x219;" horiz-adv-x="757" 
d="M238 -332q0 60 46 104t116 44q71 0 128 -58t58 -180q0 -209 -191 -366q-25 -18 -45 4l-31 30q-23 25 3 45q143 104 145 246q-35 -14 -89 -14t-97 42t-43 103zM367 195q39 0 39 36q0 45 -117 86q-229 80 -230 275q0 108 81 178t246 70t265 -64q37 -25 21 -51l-76 -139
q-12 -25 -43 -13q-94 47 -174 48q-45 0 -45 -31t116 -72t187 -102q70 -61 70 -175q-1 -114 -91 -188t-270 -74t-264 68q-27 23 -14 43l71 141q3 11 17 17t26 0q96 -53 185 -53z" />
    <glyph glyph-name="uni021A" unicode="&#x21a;" horiz-adv-x="1040" 
d="M336 -332q0 60 46 104t117 44t128 -58t57 -180q0 -209 -190 -366q-25 -18 -45 4l-31 30q-23 25 2 45q143 104 145 246q-35 -14 -89 -14t-97 42t-43 103zM358 39v1094h-292q-16 0 -28 11q-11 11 -11 27v224q0 16 11 27t28 12h909q16 0 27 -12t12 -27v-224q0 -16 -12 -27
t-27 -11h-293v-1094q0 -15 -11 -27t-28 -12h-246q-15 0 -27 12t-12 27z" />
    <glyph glyph-name="uni021B" unicode="&#x21b;" horiz-adv-x="704" 
d="M215 -332q0 60 46 104t117 44t128 -58t57 -180q0 -209 -190 -366q-25 -18 -45 4l-31 30q-23 25 2 45q143 104 145 246q-35 -14 -89 -14t-97 42t-43 103zM53 780q0 39 37 39h53v228q1 14 13 26t26 12h219q13 0 25 -11t12 -27v-228h152q39 0 39 -39v-182q1 -16 -11 -28
t-28 -11h-152v-256q0 -49 56 -49q8 0 79 14q37 6 45 -26l46 -170q8 -37 -27 -47q-145 -45 -255 -45t-174 72t-65 212v295h-53q-14 0 -25 11t-12 28v182z" />
    <glyph glyph-name="dotlessj" unicode="&#x237;" horiz-adv-x="526" 
d="M111 -188v966q0 16 11 28t28 11h227q16 0 27 -11t12 -28v-966q0 -209 -116 -328t-300 -119q-74 0 -148 25t-102 53q-25 20 -8 47l86 170q4 10 19 15t28 -1q61 -33 107 -32q129 0 129 170z" />
    <glyph glyph-name="circumflex" unicode="&#x2c6;" horiz-adv-x="763" 
d="M178 1049q-27 -14 -45 8l-67 96q-12 18 12 39l276 213q23 16 49 0l283 -213q23 -18 12 -39l-69 -94q-18 -25 -43 -10l-203 118z" />
    <glyph glyph-name="caron" unicode="&#x2c7;" horiz-adv-x="763" 
d="M358 1049l-282 213q-23 18 -13 38l70 95q18 25 43 10l203 -119l205 119q27 14 45 -8l67 -97q12 -18 -12 -38l-276 -213q-23 -16 -50 0z" />
    <glyph glyph-name="uni02C9" unicode="&#x2c9;" horiz-adv-x="847" 
d="M162 1153q-39 0 -39 37v84q0 39 39 39h524q39 0 39 -39v-84q0 -16 -11 -26t-28 -11h-524z" />
    <glyph glyph-name="breve" unicode="&#x2d8;" horiz-adv-x="708" 
d="M353 1079q-113 0 -193 70t-97 176q-5 17 7 31t32 14h93q27 0 34 -24q15 -43 49 -71t74 -28t75 30q34 30 48 69q6 25 35 24h96q18 0 30 -13t9 -32q-16 -106 -98 -176t-194 -70z" />
    <glyph glyph-name="dotaccent" unicode="&#x2d9;" horiz-adv-x="448" 
d="M223 1067q-69 0 -115 47t-47 115t47 116t116 48t115 -48q48 -48 48 -116t-48 -115t-116 -47z" />
    <glyph glyph-name="ring" unicode="&#x2da;" horiz-adv-x="593" 
d="M297 1128q35 0 61 28t27 63q0 35 -27 61q-28 26 -62 27q-34 0 -62 -27q-28 -28 -28 -62t28 -62t63 -28zM296 983q-97 0 -166 69t-69 167q0 99 69 167t166 68t167 -69q69 -69 69 -167t-70 -166q-70 -69 -166 -69z" />
    <glyph glyph-name="ogonek" unicode="&#x2db;" horiz-adv-x="565" 
d="M233 -196q0 -58 36 -97t108 -39q16 0 84 13q21 3 33 -9t12 -30v-68q0 -31 -31 -39q-72 -16 -129 -16q-125 0 -204 59t-79 174q0 76 38 146t75 102l37 31h145q-14 -11 -34 -31t-56 -80q-36 -58 -35 -116z" />
    <glyph glyph-name="tilde" unicode="&#x2dc;" horiz-adv-x="778" 
d="M286 1413q50 0 116 -48t104 -48q37 0 78 63q20 33 51 4l70 -53q29 -20 2 -59q-94 -160 -205 -160q-57 0 -126 49q-68 49 -92 49t-38 -11t-32 -35t-19 -25q-18 -18 -45 -2l-72 57q-25 18 -12 47q16 29 40 63q25 34 77 72q53 38 103 37z" />
    <glyph glyph-name="hungarumlaut" unicode="&#x2dd;" horiz-adv-x="802" 
d="M102 1067q-16 0 -29 12t-10 27l62 289q12 39 39 39h192q29 0 39 -16t-2 -36l-160 -284q-16 -31 -36 -31h-95zM442 1067q-16 0 -29 12t-10 27l62 289q12 39 39 39h192q29 0 39 -16t-2 -36l-160 -284q-23 -31 -36 -31h-95z" />
    <glyph glyph-name="uni0394" unicode="&#x394;" horiz-adv-x="1454" 
d="M485 295l488 2l-248 532h-2zM739 1454q23 0 35 -22l623 -1344q16 -36 5 -62t-46 -26h-1237q-94 0 -60 92l625 1340q12 23 35 22h20z" />
    <glyph glyph-name="uni03A9" unicode="&#x3a9;" horiz-adv-x="1599" 
d="M53 39v223q-1 16 11 28t28 11h158q-80 57 -134 185t-55 247q0 305 214 513q213 208 523 208t524 -208t214 -513q0 -119 -54 -247t-134 -185h157q15 0 27 -11t12 -28v-223q0 -15 -11 -27t-28 -12h-571q-16 0 -28 11q-11 11 -11 28v133q0 53 24 74q7 6 33 20
q123 74 190 197t66 252q0 170 -121 291q-121 120 -289 120t-288 -120q-121 -120 -121 -291q0 -129 67 -252t189 -197q27 -14 34 -20q23 -20 23 -74v-133q0 -15 -11 -27t-27 -12h-572q-16 0 -28 12t-11 27z" />
    <glyph glyph-name="uni03BC" unicode="&#x3bc;" horiz-adv-x="1062" 
d="M408 -575q0 -15 -12 -27t-27 -12h-219q-14 0 -27 12q-12 12 -12 27v1355q0 16 11 28t28 11h219q16 0 27 -11t12 -28v-383q4 -59 38 -98t92 -39t91 41t33 96v383q0 39 43 39h208q15 0 27 -11t12 -28v-741q0 -15 -11 -27t-28 -12h-96q-27 0 -39 29l-30 75q-44 -43 -64 -59
t-96 -48t-180 -11v-561z" />
    <glyph glyph-name="pi" unicode="&#x3c0;" horiz-adv-x="1439" 
d="M233 39v520h-133q-16 0 -27 11t-12 28v182q0 39 39 39h1182q39 0 39 -39v-182q0 -16 -11 -28t-28 -11h-147v-520q-1 -15 -13 -27t-26 -12h-236q-16 0 -27 12t-12 27v520h-274v-520q0 -15 -11 -27t-28 -12h-236q-14 0 -26 12t-13 27z" />
    <glyph glyph-name="Wgrave" unicode="&#x1e80;" horiz-adv-x="1835" 
d="M1061 1561l-373 168q-33 20 -12 61l69 121q5 12 25 13t29 -7l348 -213q23 -18 12 -39l-43 -86q-20 -41 -55 -18zM326 1434q29 0 36 -29l177 -694h8l317 721q12 23 35 22h37q27 0 35 -22l317 -721h8l177 694q8 29 36 29h240q23 0 33 -14t4 -36l-387 -1376q-6 -29 -37 -28
h-33q-23 0 -35 22l-374 838h-7l-372 -838q-12 -23 -35 -22h-33q-31 -1 -37 28l-387 1376q-6 20 4 34t33 16h240z" />
    <glyph glyph-name="wgrave" unicode="&#x1e81;" horiz-adv-x="1267" 
d="M799 1049l-373 168q-33 20 -12 61l69 121q5 12 25 13t29 -7l348 -213q23 -18 12 -39l-43 -86q-20 -41 -55 -18zM57 819h195q31 0 37 -24l106 -281h2l195 309q10 16 33 17h20q23 0 31 -17l196 -309h2l105 281q10 25 41 24h190q23 0 34 -15t3 -36l-272 -764q-6 -25 -37 -24
h-8q-25 0 -33 16l-264 410h-2l-260 -410q-12 -16 -33 -16h-10q-31 -1 -35 24l-273 764q-8 20 4 36t33 15z" />
    <glyph glyph-name="Wacute" unicode="&#x1e82;" horiz-adv-x="1835" 
d="M768 1561q-35 -23 -55 18l-43 86q-10 20 12 39l348 213q8 8 28 7t25 -13l70 -121q23 -41 -12 -61zM326 1434q29 0 36 -29l177 -694h8l317 721q12 23 35 22h37q27 0 35 -22l317 -721h8l177 694q8 29 36 29h240q23 0 33 -14t4 -36l-387 -1376q-6 -29 -37 -28h-33
q-23 0 -35 22l-374 838h-7l-372 -838q-12 -23 -35 -22h-33q-31 -1 -37 28l-387 1376q-6 20 4 34t33 16h240z" />
    <glyph glyph-name="wacute" unicode="&#x1e83;" horiz-adv-x="1267" 
d="M487 1049q-35 -23 -55 18l-43 86q-10 20 12 39l349 213q8 8 27 7t26 -13l69 -121q20 -41 -12 -61zM57 819h195q31 0 37 -24l106 -281h2l195 309q10 16 33 17h20q23 0 31 -17l196 -309h2l105 281q10 25 41 24h190q23 0 34 -15t3 -36l-272 -764q-6 -25 -37 -24h-8
q-25 0 -33 16l-264 410h-2l-260 -410q-12 -16 -33 -16h-10q-31 -1 -35 24l-273 764q-8 20 4 36t33 15z" />
    <glyph glyph-name="Wdieresis" unicode="&#x1e84;" horiz-adv-x="1835" 
d="M641 1573q-59 0 -101 43t-42 102q0 60 42 102t101 42t102 -42t43 -102t-43 -102q-43 -43 -102 -43zM1184 1573q-59 0 -102 43q-42 43 -42 102q0 60 42 102t102 42t102 -42q43 -42 43 -102t-43 -102q-43 -43 -102 -43zM326 1434q29 0 36 -29l177 -694h8l317 721
q12 23 35 22h37q27 0 35 -22l317 -721h8l177 694q8 29 36 29h240q23 0 33 -14t4 -36l-387 -1376q-6 -29 -37 -28h-33q-23 0 -35 22l-374 838h-7l-372 -838q-12 -23 -35 -22h-33q-31 -1 -37 28l-387 1376q-6 20 4 34t33 16h240z" />
    <glyph glyph-name="wdieresis" unicode="&#x1e85;" horiz-adv-x="1267" 
d="M422 1096q-59 0 -101 43t-42 102t42 101t101 42t102 -42t43 -101t-43 -102t-102 -43zM842 1096q-59 0 -102 43q-42 43 -42 102t42 101t102 42t102 -42q43 -42 43 -101t-43 -102t-102 -43zM57 819h195q31 0 37 -24l106 -281h2l195 309q10 16 33 17h20q23 0 31 -17
l196 -309h2l105 281q10 25 41 24h190q23 0 34 -15t3 -36l-272 -764q-6 -25 -37 -24h-8q-25 0 -33 16l-264 410h-2l-260 -410q-12 -16 -33 -16h-10q-31 -1 -35 24l-273 764q-8 20 4 36t33 15z" />
    <glyph glyph-name="Ygrave" unicode="&#x1ef2;" horiz-adv-x="1208" 
d="M750 1561l-373 168q-33 20 -12 61l69 121q6 12 26 13t27 -7l349 -213q23 -18 12 -39l-43 -86q-20 -41 -55 -18zM440 39v651l-452 684q-12 20 -2 40t34 20h267q18 0 32 -19l285 -420l285 420q14 18 33 19h266q25 0 35 -20t-2 -40l-459 -682v-653q0 -15 -12 -27t-27 -12
h-244q-15 0 -27 12t-12 27z" />
    <glyph glyph-name="ygrave" unicode="&#x1ef3;" horiz-adv-x="952" 
d="M623 1049l-373 168q-33 20 -12 61l69 121q5 12 25 13t28 -7l349 -213q23 -18 12 -39l-43 -86q-20 -41 -55 -18zM47 819h234q23 0 34 -22l158 -381h4l162 381q8 23 35 22h231q23 0 34 -16t1 -37l-627 -1356q-12 -25 -34 -24h-230q-23 0 -34 17t-1 38l305 643l-307 682
q-10 20 1 36t34 17z" />
    <glyph glyph-name="endash" unicode="&#x2013;" horiz-adv-x="1095" 
d="M129 416q-39 0 -39 37v104q0 39 39 39h838q39 0 39 -39v-104q0 -17 -12 -27t-27 -10h-838z" />
    <glyph glyph-name="emdash" unicode="&#x2014;" horiz-adv-x="1546" 
d="M129 416q-39 0 -39 37v104q0 39 39 39h1288q39 0 39 -39v-104q0 -17 -11 -27t-28 -10h-1288z" />
    <glyph glyph-name="quoteleft" unicode="&#x2018;" horiz-adv-x="417" 
d="M224 836q-71 0 -128 58t-57 179q0 209 190 367q25 18 45 -4l31 -31q23 -25 -2 -45q-143 -104 -145 -246q35 14 89 14t97 -42t43 -103t-46 -104t-117 -43z" />
    <glyph glyph-name="quoteright" unicode="&#x2019;" horiz-adv-x="409" 
d="M27 1306q0 62 46 105q47 43 117 43t127 -58t58 -179q0 -209 -191 -367q-25 -19 -45 4l-30 31q-23 25 2 45q143 104 145 246q-35 -14 -89 -14t-97 41t-43 103z" />
    <glyph glyph-name="quotesinglbase" unicode="&#x201a;" horiz-adv-x="466" 
d="M61 125q1 61 47 104t116 43t128 -58q57 -58 58 -179q0 -209 -191 -367q-25 -18 -45 4l-31 31q-23 25 2 45q143 104 146 246q-35 -14 -89 -14t-98 42q-43 42 -43 103z" />
    <glyph glyph-name="quotedblleft" unicode="&#x201c;" horiz-adv-x="825" 
d="M224 838q-71 0 -128 58t-57 179q0 209 190 367q25 18 45 -4l31 -31q23 -25 -2 -45q-143 -104 -145 -246q35 14 89 14t97 -42t43 -102q0 -62 -46 -105t-117 -43zM632 838q-71 0 -128 58t-58 179q0 209 191 367q25 18 45 -4l31 -31q23 -25 -2 -45q-143 -104 -146 -246
q35 14 89 14t98 -41q43 -41 43 -103t-46 -105t-117 -43z" />
    <glyph glyph-name="quotedblright" unicode="&#x201d;" horiz-adv-x="817" 
d="M27 1306q0 62 46 105q47 43 117 43t127 -58t58 -179q0 -209 -191 -367q-25 -19 -45 4l-30 31q-23 25 2 45q143 104 145 246q-35 -14 -89 -14t-97 41t-43 103zM434 1306q0 62 46 105t117 43t128 -58t57 -179q0 -209 -190 -367q-25 -19 -45 4l-31 31q-23 25 2 45
q143 104 146 246q-35 -14 -89 -14t-98 41q-43 41 -43 103z" />
    <glyph glyph-name="quotedblbase" unicode="&#x201e;" horiz-adv-x="876" 
d="M61 125q1 61 47 104t116 43t128 -58q57 -58 58 -179q0 -209 -191 -367q-25 -18 -45 4l-31 31q-23 25 2 45q143 104 146 246q-35 -14 -89 -14t-98 42q-43 42 -43 103zM469 125q0 61 46 104t117 43t128 -58t57 -179q0 -209 -190 -367q-25 -18 -45 4l-31 31q-23 25 2 45
q143 104 145 246q-35 -14 -89 -14t-97 42t-43 103z" />
    <glyph glyph-name="dagger" unicode="&#x2020;" horiz-adv-x="1265" 
d="M141 537q-14 0 -26 12t-13 26v205q0 14 12 26t27 13h322v576q0 14 12 26t27 13h246q14 0 26 -12t12 -27v-576h340q14 0 26 -11t11 -28v-205q0 -16 -11 -27t-26 -11h-360l-80 -1119q-4 -33 -39 -32h-45q-35 0 -39 32l-80 1119h-342z" />
    <glyph glyph-name="daggerdbl" unicode="&#x2021;" horiz-adv-x="1265" 
d="M164 41v205q0 16 12 27t27 12h297l-37 530v2h-322q-14 0 -26 11t-13 28v205q0 15 12 27t27 12h322v295q0 14 12 26t27 13h246q14 0 26 -12t12 -27v-295h340q14 0 26 -11t11 -28v-205q0 -16 -11 -28t-26 -11h-340l-38 -532h317q13 1 25 -11t12 -28v-205q0 -15 -11 -27
t-26 -12h-338l-41 -584q-4 -33 -39 -32h-45q-35 0 -39 32l-43 584h-317q-14 0 -27 11q-12 12 -12 28z" />
    <glyph glyph-name="bullet" unicode="&#x2022;" horiz-adv-x="831" 
d="M414 170q-119 0 -205 86t-86 205t86 207t205 88t207 -88t88 -207t-88 -205t-207 -86z" />
    <glyph glyph-name="ellipsis" unicode="&#x2026;" horiz-adv-x="1413" 
d="M82 143q0 68 47 115t115 47t116 -47t48 -115q0 -67 -48 -115t-116 -48t-115 48t-47 115zM551 143q0 68 47 115t115 47q67 0 115 -47t48 -115q0 -67 -48 -115t-116 -48t-114 48q-47 48 -47 115zM1006 143q0 68 47 115t115 47t115 -47q48 -47 48 -115q0 -67 -48 -115
t-116 -48q-69 0 -115 48t-46 115z" />
    <glyph glyph-name="perthousand" unicode="&#x2030;" horiz-adv-x="2019" 
d="M1044 328q-29 0 -49 -22t-20 -49t20 -49t49 -22t51 20t21 50q0 28 -22 50t-50 22zM1731 256q0 28 -22 50q-23 22 -51 22t-48 -22t-21 -49q1 -27 21 -49t49 -22t51 20t21 50zM768 257q0 114 81 195q81 80 195 80t197 -80q82 -80 82 -196q0 -115 -82 -196q-82 -80 -197 -80
q-116 0 -196 82t-80 195zM1382 257q0 114 81 195q81 80 196 80t197 -80t81 -196q0 -115 -82 -196q-83 -80 -197 -80t-195 82t-81 195zM358 1108q29 0 50 21q20 22 20 51t-21 49q-22 20 -50 20q-27 0 -49 -20t-22 -49q0 -28 22 -50q21 -22 50 -22zM1126 1434q23 0 34 -18
t1 -38l-706 -1358q-16 -20 -35 -20h-152q-23 0 -34 18t-1 37l703 1358q12 20 35 21h155zM358 903q-116 0 -196 81t-80 196q0 116 81 196t195 80t196 -81q81 -81 81 -195t-81 -196q-81 -81 -196 -81z" />
    <glyph glyph-name="guilsinglleft" unicode="&#x2039;" horiz-adv-x="579" 
d="M465 774q27 0 35 -19t-4 -44l-134 -285l127 -301q11 -25 3 -43t-33 -19h-172q-19 1 -31 17l-213 317q-16 23 0 49l223 304q14 25 37 24h162z" />
    <glyph glyph-name="guilsinglright" unicode="&#x203a;" horiz-adv-x="579" 
d="M119 63q-25 1 -34 19t3 43l127 301l-133 285q-12 25 -4 44t35 19h161q23 0 37 -24l224 -304q16 -27 0 -49l-213 -317q-12 -16 -31 -17h-172z" />
    <glyph glyph-name="fraction" unicode="&#x2044;" horiz-adv-x="212" 
d="M-186 0h-113q-23 0 -34 17t-1 38l705 1358q10 20 35 21h114q23 0 34 -18t1 -38l-707 -1358q-10 -20 -34 -20z" />
    <glyph glyph-name="zerosuperior" unicode="&#x2070;" horiz-adv-x="741" 
d="M371 1176q63 0 63 160t-63 159q-63 1 -63 -159t63 -160zM371 1012q-129 0 -199 86t-70 238t70 238q70 85 199 85t199 -85t69 -238q1 -152 -69 -238t-199 -86z" />
    <glyph glyph-name="foursuperior" unicode="&#x2074;" horiz-adv-x="765" 
d="M389 1282v133l-119 -133h119zM408 1032q-20 0 -21 19v96h-266q-18 0 -19 16v127l326 342q2 6 14 6h105q18 0 18 -18v-334h80q18 0 19 -16v-105q0 -18 -19 -18h-80v-96q0 -18 -18 -19h-139z" />
    <glyph glyph-name="fivesuperior" unicode="&#x2075;" horiz-adv-x="671" 
d="M302 1012q-124 0 -191 78q-14 14 -2 30l61 80q16 27 35 8q39 -37 104 -37q27 -1 49 15t23 43q0 27 -22 43t-56 16h-147q-14 0 -24 9q-9 9 -9 22v301q0 18 20 18h330q20 0 21 -18v-109q0 -18 -21 -18h-197v-59h60q111 0 172 -52t61 -151q0 -98 -71 -159q-72 -60 -196 -60z
" />
    <glyph glyph-name="sixsuperior" unicode="&#x2076;" horiz-adv-x="694" 
d="M354 1176q25 0 42 16t18 43q0 27 -18 44t-42 17q-25 0 -43 -17t-18 -43t18 -43t43 -17zM592 1228q0 -92 -71 -154t-177 -62t-174 68t-68 169q0 103 42 183t106 127q112 83 199 108q31 8 40 -18l31 -82q8 -27 -18 -35q-54 -16 -116 -52t-83 -81q35 25 106 25t127 -53
q56 -52 56 -143z" />
    <glyph glyph-name="sevensuperior" unicode="&#x2077;" horiz-adv-x="663" 
d="M129 1032q-27 0 -27 19v10l222 426h-189q-20 0 -20 16v117q0 18 20 18h406q20 0 20 -18v-33l-260 -536q-10 -18 -33 -19h-139z" />
    <glyph glyph-name="eightsuperior" unicode="&#x2078;" horiz-adv-x="722" 
d="M362 1151q25 0 45 16q19 16 19 44t-17 46q-17 19 -45 19t-47 -20q-20 -20 -20 -45q0 -26 20 -43t45 -17zM360 1409q20 0 36 15q16 16 16 36t-16 36t-36 17q-20 0 -36 -16q-16 -17 -16 -37t16 -36t36 -15zM359 1012q-117 0 -187 50t-70 126q0 45 42 96t83 59v3
q-39 14 -73 51t-33 103q0 66 69 112q70 47 170 47t170 -47q70 -46 70 -112t-34 -104t-72 -50v-3q49 -12 88 -51q39 -40 39 -110t-73 -120t-189 -50z" />
    <glyph glyph-name="ninesuperior" unicode="&#x2079;" horiz-adv-x="694" 
d="M340 1374q25 0 43 18t18 43q0 26 -18 43t-43 17t-42 -16t-17 -43q0 -26 17 -44t42 -18zM284 1247q-72 1 -126 55q-56 54 -56 143t71 151t177 62t174 -67q68 -68 68 -170t-42 -182t-106 -127q-112 -83 -198 -108q-31 -8 -41 18l-31 82q-8 27 19 35q53 16 115 52t83 81
q-35 -25 -107 -25z" />
    <glyph glyph-name="zeroinferior" unicode="&#x2080;" horiz-adv-x="741" 
d="M307 -4q-1 -160 63 -160t64 160t-64 160t-63 -160zM102 -3q0 153 70 237t199 85q129 0 199 -85q70 -86 69 -238q0 -152 -70 -238q-71 -86 -199 -86t-198 86t-70 239z" />
    <glyph glyph-name="oneinferior" unicode="&#x2081;" horiz-adv-x="524" 
d="M119 88q-16 0 -17 23v77q0 12 17 23l155 88h129q18 0 19 -18v-570q0 -18 -19 -18h-153q-20 0 -21 18v377h-110z" />
    <glyph glyph-name="twoinferior" unicode="&#x2082;" horiz-adv-x="649" 
d="M522 -154q20 0 21 -18v-117q0 -18 -21 -18h-399q-20 0 -21 18v37l209 252q41 53 41 96q0 59 -63 60q-41 0 -72 -31q-25 -17 -37 8l-45 74q0 3 -9 17t1 24q71 71 185 71t174 -52t60 -138t-61 -174l-82 -109h119z" />
    <glyph glyph-name="threeinferior" unicode="&#x2083;" horiz-adv-x="647" 
d="M272 70q56 0 58 49q0 45 -60 45q-31 0 -61 -23q-20 -12 -35 9l-53 71q-18 23 2 43q63 55 171 55t170 -46q62 -47 62 -131t-104 -136q123 -47 123 -158q0 -84 -71 -130t-174 -46t-183 60q-25 18 -6 45l47 69q16 23 41 9q29 -23 73 -23q68 0 68 50t-68 50h-67q-27 4 -27 33
v70q0 35 37 35h57z" />
    <glyph glyph-name="fourinferior" unicode="&#x2084;" horiz-adv-x="765" 
d="M389 -57v133l-119 -133h119zM442 299h105q18 0 18 -18v-334h80q18 0 19 -17v-104q0 -18 -19 -19h-80v-96q0 -18 -18 -18h-139q-20 0 -21 18v96h-266q-18 0 -19 17v127l326 342q2 6 14 6z" />
    <glyph glyph-name="fiveinferior" unicode="&#x2085;" horiz-adv-x="671" 
d="M123 -20v301q0 18 20 18h330q20 0 21 -18v-109q0 -18 -21 -18h-197v-60h60q111 0 172 -52t61 -150q1 -98 -71 -159t-196 -61t-191 78q-14 14 -2 31l61 80q16 27 35 8q39 -37 104 -37q27 0 49 15t23 42q0 27 -22 43t-56 17h-147q-14 0 -24 9q-9 10 -9 22z" />
    <glyph glyph-name="sixinferior" unicode="&#x2086;" horiz-adv-x="694" 
d="M293 -103q0 -26 18 -43q18 -18 43 -18t42 16t18 44q0 27 -18 44t-42 17q-25 0 -43 -17t-18 -43zM102 -90q0 102 42 182t106 127q114 85 199 109q31 8 40 -19l31 -82q8 -27 -18 -34q-54 -17 -116 -53t-83 -81q35 25 106 25t127 -52t56 -144t-71 -153q-71 -63 -177 -63
t-174 68t-68 170z" />
    <glyph glyph-name="seveninferior" unicode="&#x2087;" horiz-adv-x="663" 
d="M115 164v117q0 18 20 18h406q20 0 20 -18v-33l-260 -537q-10 -18 -33 -18h-139q-27 0 -27 18v10l222 426h-189q-20 1 -20 17z" />
    <glyph glyph-name="eightinferior" unicode="&#x2088;" horiz-adv-x="722" 
d="M297 -128q0 -26 20 -43t45 -17t45 16q19 16 19 44t-17 46t-45 18t-47 -18q-20 -20 -20 -46zM307 121q1 -19 17 -35t36 -16t36 15t16 35t-16 38q-16 16 -36 16t-36 -16t-17 -37zM102 -152q0 45 42 96t83 60v2q-39 14 -73 51t-33 103q-1 66 69 112t170 47q100 0 170 -47
t70 -112q0 -66 -34 -104t-72 -50v-2q49 -12 88 -51t39 -110t-73 -121t-189 -50q-117 0 -187 50t-70 126z" />
    <glyph glyph-name="nineinferior" unicode="&#x2089;" horiz-adv-x="694" 
d="M281 96q0 -27 17 -44t42 -17t43 17t18 43t-18 43q-18 18 -43 18t-42 -16t-17 -44zM102 105q0 89 71 151t177 63t174 -67t68 -170t-42 -182t-106 -127q-114 -84 -198 -109q-31 -8 -41 19l-31 81q-8 27 19 35q53 17 115 53t83 80q-35 -24 -107 -24t-126 54q-56 54 -56 143z
" />
    <glyph glyph-name="Euro" unicode="&#x20ac;" horiz-adv-x="1458" 
d="M78 508q-14 0 -26 11q-11 11 -11 28v35q0 16 11 27t26 12h78q-4 31 -4 94v39h-74q-14 0 -26 11q-11 11 -11 28v34q0 15 11 27t26 12h88q53 254 256 421q204 167 480 167t484 -190q31 -29 3 -58l-160 -166q-25 -25 -51 0q-118 104 -264 104t-247 -77q-101 -78 -145 -201
h430q16 0 28 -11t11 -28v-39q0 -16 -11 -26t-28 -10h-452v-29q0 -53 12 -102h358q16 1 28 -11t11 -28v-37q0 -17 -11 -27t-28 -10h-315q53 -92 145 -146t203 -55q160 0 275 99q29 25 53 -3l160 -170q27 -27 -2 -55q-205 -199 -498 -198q-252 0 -448 147t-263 381h-102z" />
    <glyph glyph-name="afii61289" unicode="&#x2113;" horiz-adv-x="1034" 
d="M770 1169q0 61 -25 95t-65 34q-178 0 -277 -569l-16 -94q176 80 280 215q103 135 103 319zM182 319q0 51 6 101l-84 -21q-27 -6 -30 25l-11 92q0 8 -1 16q-2 19 34 27q82 16 125 31q25 135 31 166q62 346 166 522t262 176q116 0 180 -77t64 -208q0 -248 -162 -424
t-410 -270q-16 -83 -16 -157t36 -128t105 -55q147 0 293 88q27 14 38 14q11 -1 21 -24l33 -49q14 -25 14 -34t-18 -28q-190 -123 -381 -122q-145 0 -220 98t-75 241z" />
    <glyph glyph-name="trademark" unicode="&#x2122;" horiz-adv-x="1476" 
d="M283 774q-16 0 -28 11q-11 11 -11 28v442h-123q-15 -1 -27 11t-12 28v101q0 14 12 26t27 13h432q15 0 27 -12t12 -27v-101q0 -39 -39 -39h-123v-442q0 -15 -12 -27t-27 -12h-108zM678 774q-20 0 -32 14q-11 14 -7 33l106 592q4 31 39 31h9q23 0 34 -23l187 -352l188 352
q10 23 35 23h8q35 0 39 -31l109 -594q3 -17 -9 -31t-30 -14h-107q-32 0 -39 35l-34 215l-121 -238q-10 -18 -33 -18h-12q-25 0 -35 20l-117 236l-37 -217q-2 -13 -14 -23t-25 -10h-102z" />
    <glyph glyph-name="Omega" unicode="&#x2126;" horiz-adv-x="1599" 
d="M53 39v223q-1 16 11 28t28 11h158q-80 57 -134 185t-55 247q0 305 214 513q213 208 523 208t524 -208t214 -513q0 -119 -54 -247t-134 -185h157q15 0 27 -11t12 -28v-223q0 -15 -11 -27t-28 -12h-571q-16 0 -28 11q-11 11 -11 28v133q0 53 24 74q7 6 33 20
q123 74 190 197t66 252q0 170 -121 291q-121 120 -289 120t-288 -120q-121 -120 -121 -291q0 -129 67 -252t189 -197q27 -14 34 -20q23 -20 23 -74v-133q0 -15 -11 -27t-27 -12h-572q-16 0 -28 12t-11 27z" />
    <glyph glyph-name="estimated" unicode="&#x212e;" horiz-adv-x="1685" 
d="M313 786h944v291q-83 105 -207 165t-266 61q-305 0 -471 -222v-295zM784 129q213 0 402 162q37 33 63 6l49 -53q25 -27 -14 -66q-211 -198 -511 -198t-516 213t-216 523t216 524t526 214q309 0 525 -218t220 -529q0 -39 -11 -53t-42 -13h-1162v-289q74 -104 202 -164
t269 -59z" />
    <glyph glyph-name="onethird" unicode="&#x2153;" horiz-adv-x="1366" 
d="M1006 139q68 0 67 49q0 51 -67 52h-68q-27 4 -27 32v70q0 35 37 35h58q25 0 41 13t16 36q0 45 -59 45q-30 0 -56 -17t-41 3l-53 71q-18 23 2 43q64 55 172 55t170 -45q62 -46 62 -131t-105 -137q123 -47 123 -157q0 -84 -71 -130t-174 -46t-183 59q-24 18 -6 45l47 70
q16 23 41 8q29 -23 74 -23zM250 827q-20 0 -21 19v377h-110q-16 0 -17 22v78q0 12 17 23l155 88h129q18 0 19 -19v-569q0 -18 -19 -19h-153zM1065 1434q23 0 34 -18t1 -38l-707 -1358q-10 -20 -35 -20h-112q-23 0 -34 18t-1 37l704 1358q10 20 35 21h115z" />
    <glyph glyph-name="twothirds" unicode="&#x2154;" horiz-adv-x="1366" 
d="M1006 139q68 0 67 49q0 51 -67 52h-68q-27 4 -27 32v70q0 35 37 35h58q25 0 41 13t16 36q0 45 -59 45q-30 0 -56 -17t-41 3l-53 71q-18 23 2 43q64 55 172 55t170 -45q62 -46 62 -131t-105 -137q123 -47 123 -157q0 -84 -71 -130t-174 -46t-183 59q-24 18 -6 45l47 70
q16 23 41 8q29 -23 74 -23zM1065 1434q23 0 34 -18t1 -38l-707 -1358q-10 -20 -35 -20h-112q-23 0 -34 18t-1 37l704 1358q10 20 35 21h115zM23 827q-20 0 -21 19v37l209 252q41 53 41 96q0 59 -64 59q-41 0 -71 -30q-25 -16 -37 8l-45 73q-16 29 -10 38t18 18q74 57 178 57
q105 0 165 -52t60 -138t-61 -174l-82 -109h119q20 0 20 -18v-117q0 -18 -20 -19h-399z" />
    <glyph glyph-name="oneeighth" unicode="&#x215b;" horiz-adv-x="1366" 
d="M995 181q1 -24 19 -39t41 -15t40 14t17 40t-16 42q-16 17 -40 17t-42 -18t-19 -41zM1004 430q0 -20 15 -34t33 -13q18 0 33 13q15 14 15 34t-14 34t-33 15q-18 0 -34 -14q-15 -15 -15 -35zM795 158q0 45 41 96t84 59v2q-39 13 -73 51t-34 104t70 112q70 47 170 47
t170 -47q69 -46 69 -112t-34 -104t-72 -51v-2q49 -12 88 -51q39 -40 39 -110t-73 -120q-72 -50 -188 -50t-187 50q-70 50 -70 126zM250 827q-20 0 -21 19v377h-110q-16 0 -17 22v78q0 12 17 23l155 88h129q18 0 19 -19v-569q0 -18 -19 -19h-153zM1065 1434q23 0 34 -18
t1 -38l-707 -1358q-10 -20 -35 -20h-112q-23 0 -34 18t-1 37l704 1358q10 20 35 21h115z" />
    <glyph glyph-name="threeeighths" unicode="&#x215c;" horiz-adv-x="1415" 
d="M1036 181q0 -24 18 -39t42 -15q23 0 40 14t17 40t-16 42q-16 17 -40 17q-25 0 -43 -18t-18 -41zM1044 430q0 -20 16 -34t34 -13q18 0 32 13q14 14 14 34t-14 34t-32 15q-18 -1 -34 -15t-16 -34zM836 158q0 45 41 96t84 59v2q-39 13 -73 51t-34 104t70 112q70 47 170 47
t170 -47q70 -46 70 -112t-35 -104q-34 -38 -72 -51v-2q49 -12 88 -51q39 -40 39 -110t-73 -120t-189 -50t-186 50t-70 126zM1108 1434q23 0 34 -18t1 -38l-707 -1358q-10 -20 -35 -20h-112q-23 0 -34 18t-1 37l704 1358q10 20 35 21h115zM300 807q-103 0 -183 59
q-25 18 -6 45l47 70q16 23 41 8q29 -23 73 -22q68 0 68 50t-68 50h-67q-27 4 -27 33v69q0 35 37 35h57q25 0 41 14t17 35q0 45 -60 45q-31 0 -56 -17t-40 3l-53 72q-18 23 2 43q63 55 171 55t170 -46t62 -131t-104 -136q123 -47 123 -158q0 -84 -71 -130t-174 -46z" />
    <glyph glyph-name="fiveeighths" unicode="&#x215d;" horiz-adv-x="1415" 
d="M1036 181q0 -24 18 -39t42 -15q23 0 40 14t17 40t-16 42q-16 17 -40 17q-25 0 -43 -18t-18 -41zM1044 430q0 -20 16 -34t34 -13q18 0 32 13q14 14 14 34t-14 34t-32 15q-18 -1 -34 -15t-16 -34zM836 158q0 45 41 96t84 59v2q-39 13 -73 51t-34 104t70 112q70 47 170 47
t170 -47q70 -46 70 -112t-35 -104q-34 -38 -72 -51v-2q49 -12 88 -51q39 -40 39 -110t-73 -120t-189 -50t-186 50t-70 126zM280 807q-124 0 -192 78q-14 14 -2 30l61 80q16 27 35 9q39 -37 105 -37q27 0 49 15t22 42t-21 43q-22 16 -56 16h-148q-14 -1 -23 9t-10 22v301
q0 18 21 19h330q20 0 20 -19v-108q0 -18 -20 -19h-197v-59h59q111 0 172 -52q61 -53 61 -151t-70 -158q-72 -60 -196 -61zM1108 1434q23 0 34 -18t1 -38l-707 -1358q-10 -20 -35 -20h-112q-23 0 -34 18t-1 37l704 1358q10 20 35 21h115z" />
    <glyph glyph-name="seveneighths" unicode="&#x215e;" horiz-adv-x="1415" 
d="M1036 181q0 -24 18 -39t42 -15q23 0 40 14t17 40t-16 42q-16 17 -40 17q-25 0 -43 -18t-18 -41zM1044 430q0 -20 16 -34t34 -13q18 0 32 13q14 14 14 34t-14 34t-32 15q-18 -1 -34 -15t-16 -34zM836 158q0 45 41 96t84 59v2q-39 13 -73 51t-34 104t70 112q70 47 170 47
t170 -47q70 -46 70 -112t-35 -104q-34 -38 -72 -51v-2q49 -12 88 -51q39 -40 39 -110t-73 -120t-189 -50t-186 50t-70 126zM180 827q-27 0 -26 19v10l221 426h-189q-20 0 -20 16v117q0 18 20 19h406q20 0 20 -19v-33l-260 -536q-10 -18 -33 -19h-139zM1108 1434q23 0 34 -18
t1 -38l-707 -1358q-10 -20 -35 -20h-112q-23 0 -34 18t-1 37l704 1358q10 20 35 21h115z" />
    <glyph glyph-name="partialdiff" unicode="&#x2202;" horiz-adv-x="1167" 
d="M379 460q0 -81 57 -139q57 -59 139 -59q81 0 139 58t58 140q0 81 -57 139t-139 58t-140 -58q-57 -58 -57 -139zM102 459q0 203 124 319t284 115q98 0 195 -41q-45 219 -412 336q-53 16 -39 59l59 158q16 49 73 31q144 -46 277 -144t211 -193t134 -243t57 -319
q0 -246 -131 -402t-363 -155q-193 0 -331 138t-138 341z" />
    <glyph glyph-name="Delta" unicode="&#x2206;" horiz-adv-x="1454" 
d="M485 295l488 2l-248 532h-2zM739 1454q23 0 35 -22l623 -1344q16 -36 5 -62t-46 -26h-1237q-94 0 -60 92l625 1340q12 23 35 22h20z" />
    <glyph glyph-name="product" unicode="&#x220f;" horiz-adv-x="1429" 
d="M100 39v1356q0 14 12 26t27 13h1151q16 0 28 -12t11 -27v-1356q0 -15 -11 -27t-28 -12h-243q-16 0 -28 11q-11 11 -11 28v1094h-586v-1094q0 -15 -11 -27t-28 -12h-244q-15 0 -27 12t-12 27z" />
    <glyph glyph-name="summation" unicode="&#x2211;" horiz-adv-x="1130" 
d="M102 39v100l543 584l-543 588v84q0 16 12 27t27 12h848q15 0 27 -12t12 -27v-224q0 -16 -11 -27t-28 -11h-377l277 -254q39 -39 39 -84v-142q0 -37 -39 -75l-277 -277h377q15 0 27 -11t12 -28v-223q0 -15 -11 -27t-28 -12h-848q-15 0 -27 12t-12 27z" />
    <glyph glyph-name="minus" unicode="&#x2212;" horiz-adv-x="1103" 
d="M141 600q-14 0 -26 11t-13 28v143q0 16 12 28t27 11h822q14 0 25 -11t11 -28v-143q0 -15 -11 -27t-25 -12h-822z" />
    <glyph glyph-name="uni2215" unicode="&#x2215;" horiz-adv-x="212" 
d="M-186 0h-113q-23 0 -34 17t-1 38l705 1358q10 20 35 21h114q23 0 34 -18t1 -38l-707 -1358q-10 -20 -34 -20z" />
    <glyph glyph-name="uni2219" unicode="&#x2219;" horiz-adv-x="831" 
d="M635 522q1 -90 -65 -154t-156 -63q-90 -1 -154 63t-63 154q0 90 63 156q64 66 154 66t156 -66t65 -156z" />
    <glyph glyph-name="radical" unicode="&#x221a;" horiz-adv-x="1425" 
d="M174 819h232q27 0 34 -22l97 -217h12l379 831q8 23 35 23h419q39 0 39 -39v-183q0 -16 -11 -27t-28 -11h-249l-547 -1172q-12 -23 -35 -22h-21q-22 -1 -34 22l-357 764q-10 20 1 36t34 17z" />
    <glyph glyph-name="infinity" unicode="&#x221e;" horiz-adv-x="1200" 
d="M399 528q33 0 57 23t24 55t-23 57q-23 23 -57 23t-56 -24t-22 -56q0 -34 22 -56t55 -22zM721 606q1 -34 23 -56t55 -22t57 23t23 55q0 32 -24 57q-25 23 -57 23t-55 -23q-22 -24 -22 -57zM388 319q-118 0 -202 84t-84 203t84 203t201 84t211 -102q98 102 215 102t201 -84
t84 -203t-85 -203t-203 -84t-212 103q-92 -103 -210 -103z" />
    <glyph glyph-name="integral" unicode="&#x222b;" horiz-adv-x="804" 
d="M227 -188v1198q0 208 120 326t319 118q131 0 227 -78q25 -25 8 -51l-98 -162q-18 -29 -58 -10t-86 19t-82 -42q-36 -41 -36 -122v-1198q0 -205 -123 -325t-316 -120q-131 0 -227 78q-25 25 -8 51l98 162q18 29 58 10q40 -18 86 -18t82 42t36 122z" />
    <glyph glyph-name="approxequal" unicode="&#x2248;" horiz-adv-x="976" 
d="M342 524q28 0 44 -4t35 -7q18 -3 52 -31q34 -27 39 -29q6 -2 44 -27t82 -26t105 89q23 25 50 3l90 -82q18 -23 2 -41q-46 -68 -89 -100q-92 -68 -154 -68t-95 17t-92 63q-70 43 -101 43q-55 0 -116 -88q-8 -14 -24 -14t-24 9l-96 84q-16 25 -2 39q70 106 178 152
q44 18 72 18zM354 725q-55 0 -116 -88q-8 -14 -24 -14t-24 10l-96 84q-16 25 -2 39q70 105 178 151q65 27 117 15q16 -4 35 -9t53 -31t44 -30t44 -28q34 -23 76 -23q43 0 104 90q23 25 50 2l90 -82q18 -23 5 -40t-45 -53q-100 -113 -214 -116q-74 0 -174 80q-70 43 -101 43z
" />
    <glyph glyph-name="notequal" unicode="&#x2260;" horiz-adv-x="976" 
d="M141 246q-16 0 -27 11t-12 28v145q0 16 12 28t27 11h242l96 209h-338q-16 0 -27 11t-12 28v143q0 16 12 28t27 11h441l71 152q14 35 52 18l30 -16q15 -3 21 -19t-2 -30l-49 -105h131q16 0 27 -11t11 -28v-143q0 -15 -11 -27t-27 -12h-234l-96 -209h330q16 0 27 -11
t11 -28v-145q0 -15 -11 -27t-27 -12h-433l-67 -148q-14 -33 -51 -16l-31 16q-35 16 -21 49l46 99h-138z" />
    <glyph glyph-name="lessequal" unicode="&#x2264;" horiz-adv-x="937" 
d="M80 80q-14 0 -27 11q-12 11 -12 28v143q0 16 12 28t27 11h766q14 0 25 -11t12 -28v-143q1 -15 -11 -27t-26 -12h-766zM33 819v31q0 23 20 35l772 372q23 10 40 1t18 -33v-178q0 -20 -17 -29l-426 -180l426 -172q16 -8 17 -29v-178q-1 -25 -19 -35t-39 2l-772 358
q-20 12 -20 35z" />
    <glyph glyph-name="greaterequal" unicode="&#x2265;" horiz-adv-x="937" 
d="M70 80q-14 0 -26 11q-11 11 -11 28v143q0 16 11 28t26 11h766q16 0 27 -11t11 -28v-143q0 -15 -11 -27t-27 -12h-766zM33 459v178q0 20 16 29l426 172l-426 180q-16 8 -16 29v178q0 25 18 33t39 -1l772 -372q20 -12 21 -35v-31q0 -23 -21 -35l-772 -358q-20 -12 -39 -2
q-18 10 -18 35z" />
    <glyph glyph-name="lozenge" unicode="&#x25ca;" horiz-adv-x="1454" 
d="M725 406h2l254 321l-254 322h-2l-254 -322zM737 1454q25 0 35 -22l496 -613q76 -92 -2 -186l-494 -610q-10 -23 -35 -23h-20q-25 0 -35 23l-506 620q-29 33 -26 83q2 50 38 93l494 613q10 23 35 22h20z" />
    <glyph glyph-name="uniF8FF" unicode="&#xf8ff;" horiz-adv-x="1226" 
d="M502 319q0 -41 30 -69t69 -29q40 0 70 29q29 30 29 70t-29 69q-30 29 -70 29q-39 0 -69 -29t-30 -70zM537 643q0 -25 28 -25h74q31 0 31 27v53q0 57 107 124q40 26 74 75t34 109q0 98 -73 162t-193 65q-120 0 -213 -80q-22 -18 -41 -44t-3 -38l46 -45q24 -18 70 33
q45 51 120 51q74 0 108 -31t34 -75t-32 -80q-32 -37 -70 -62q-38 -24 -70 -66t-31 -94v-59zM102 61v1311q0 61 62 62h899q61 0 61 -62v-1311q0 -61 -61 -61h-899q-62 0 -62 61z" />
    <glyph glyph-name="CR" horiz-adv-x="0" 
 />
    <glyph glyph-name="grave.cap" horiz-adv-x="618" 
d="M455 1561l-373 168q-33 20 -12 61l69 121q5 12 25 13t29 -7l348 -213q23 -18 12 -39l-43 -86q-20 -41 -55 -18z" />
    <glyph glyph-name="acute.cap" horiz-adv-x="618" 
d="M164 1561q-35 -23 -55 18l-43 86q-10 20 12 39l348 213q8 8 28 7t25 -13l70 -121q20 -41 -12 -61z" />
    <glyph glyph-name="circumflex.cap" horiz-adv-x="763" 
d="M178 1561q-27 -14 -45 8l-67 96q-12 18 12 39l276 213q23 16 49 0l283 -213q23 -18 12 -39l-69 -94q-18 -25 -43 -10l-203 118z" />
    <glyph glyph-name="caron.cap" horiz-adv-x="763" 
d="M358 1561l-282 213q-23 18 -13 38l70 95q18 25 43 10l203 -119l205 119q27 14 45 -8l67 -97q12 -18 -12 -38l-276 -213q-23 -16 -50 0z" />
    <glyph glyph-name="caron.alt" horiz-adv-x="763" 
d="M197 1306q-1 62 45 105t117 43t128 -58t58 -179q0 -209 -191 -367q-25 -18 -45 4l-30 31q-23 25 2 45q143 104 145 246q-35 -14 -89 -14t-97 41t-43 103z" />
    <glyph glyph-name="tilde.cap" horiz-adv-x="778" 
d="M286 1884q50 0 116 -48t104 -48q37 0 78 63q20 33 51 4l70 -53q29 -20 2 -59q-94 -160 -205 -160q-57 0 -126 49q-68 49 -92 49t-38 -11t-32 -35t-19 -25q-18 -18 -45 -2l-72 57q-25 18 -12 47q16 29 40 63q25 33 77 71q53 38 103 38z" />
    <glyph glyph-name="dieresis.cap" horiz-adv-x="970" 
d="M213 1573q-59 0 -101 43t-42 102q0 60 42 102t101 42t102 -42t43 -102t-43 -102q-43 -43 -102 -43zM756 1573q-59 0 -102 43q-42 43 -42 102q0 60 42 102t102 42t102 -42q43 -42 43 -102t-43 -102q-43 -43 -102 -43z" />
    <glyph glyph-name="macron.cap" horiz-adv-x="847" 
d="M725 1677q0 -35 -39 -37h-524q-16 0 -28 10t-11 27v84q0 39 39 39h524q39 0 39 -39v-84z" />
    <glyph glyph-name="breve.cap" horiz-adv-x="708" 
d="M353 1563q-113 -1 -193 69t-97 176q-5 18 7 32t32 13h93q27 0 34 -24q15 -43 49 -71t74 -28t75 30q34 30 48 69q6 25 35 24h96q18 0 30 -13t9 -32q-16 -106 -98 -176t-194 -69z" />
    <glyph glyph-name="ring.cap" horiz-adv-x="593" 
d="M297 1686q35 0 61 28t27 62q0 36 -27 62q-28 26 -62 26t-62 -27t-28 -61t28 -63q28 -27 63 -27zM296 1540q-97 0 -166 69t-69 167t69 167t166 69t167 -70q69 -68 69 -166t-70 -167t-166 -69z" />
    <glyph glyph-name="hungarumlaut.cap" horiz-adv-x="802" 
d="M102 1573q-16 0 -29 12t-10 27l62 289q12 39 39 38h192q29 0 39 -15t-2 -36l-160 -284q-16 -31 -36 -31h-95zM442 1573q-16 0 -29 12t-10 27l62 289q12 39 39 38h192q29 0 39 -16t-2 -35l-160 -284q-23 -31 -36 -31h-95z" />
    <glyph glyph-name="dotaccent.cap" horiz-adv-x="448" 
d="M223 1585q-69 0 -115 47t-47 115t47 116t116 48t115 -48q48 -48 48 -116t-48 -115t-116 -47z" />
    <glyph glyph-name="cedilla.cap" horiz-adv-x="505" 
d="M104 0h150v-106q92 -12 140 -68t48 -143t-63 -151t-155 -64t-154 71q-27 29 8 60l47 41q23 23 39 0t47 -23q31 1 49 21t19 45q0 80 -140 86q-35 4 -35 36v195z" />
    <glyph glyph-name="ogonek.cap" horiz-adv-x="565" 
d="M233 -196q0 -58 36 -97t108 -39q16 0 84 13q21 3 33 -9t12 -30v-68q0 -31 -31 -39q-72 -16 -129 -16q-125 0 -204 59t-79 174q0 76 38 146t75 102l37 31h145q-14 -11 -34 -31t-56 -80q-36 -58 -35 -116z" />
    <glyph glyph-name="commaaccent" horiz-adv-x="598" 
d="M145 -332q0 60 46 104t117 44t128 -58t58 -180q0 -209 -191 -366q-25 -18 -45 4l-31 30q-23 25 2 45q143 104 146 246q-35 -14 -89 -14t-98 42q-43 42 -43 103z" />
    <glyph glyph-name="commaaccent.alt" horiz-adv-x="598" 
d="M145 -332q0 60 46 104t117 44t128 -58t58 -180q0 -209 -191 -366q-25 -18 -45 4l-31 30q-23 25 2 45q143 104 146 246q-35 -14 -89 -14t-98 42q-43 42 -43 103z" />
    <glyph glyph-name="commaaccent.cap" horiz-adv-x="598" 
d="M145 -332q0 60 46 104t117 44t128 -58t58 -180q0 -209 -191 -366q-25 -18 -45 4l-31 30q-23 25 2 45q143 104 146 246q-35 -14 -89 -14t-98 42q-43 42 -43 103z" />
    <glyph glyph-name="brokenbar.case" horiz-adv-x="602" 
d="M246 346q0 16 11 28t28 11h34q17 0 27 -11t10 -28v-678q0 -14 -11 -25t-28 -12h-32q-15 -1 -27 11t-12 26v678zM285 1049q-16 0 -28 11q-11 11 -11 25v678q0 15 11 27t28 12h34q17 0 27 -11t10 -28v-678q0 -14 -11 -25t-28 -11h-32z" />
    <glyph glyph-name="zero.tf" horiz-adv-x="1146" 
d="M573 276q94 0 145 109q50 109 50 311t-50 311t-144 109t-145 -110q-50 -110 -50 -311q0 -203 50 -311t144 -108zM573 -20q-250 0 -387 189t-137 527t137 528t387 189q249 0 387 -189q138 -190 138 -528t-138 -527t-387 -189z" />
    <glyph glyph-name="one.tf" horiz-adv-x="1146" 
d="M227 0q-37 0 -39 37v186q0 39 39 39h248v699h-196q-14 0 -26 11q-11 11 -11 27v129q0 18 12 31l299 234h188q13 1 25 -11t12 -28v-1092h185q39 0 38 -39v-186q0 -17 -11 -27t-27 -10h-736z" />
    <glyph glyph-name="two.tf" horiz-adv-x="1146" 
d="M94 39v41q354 465 543 751q53 81 53 149t-49 112t-143 43q-94 0 -187 -103q-29 -29 -57 0l-125 127q-29 25 -2 53q17 22 66 64q166 140 344 137q213 0 339 -119t125 -295q0 -74 -17 -127t-64 -141t-176 -262q-130 -174 -152 -207h360q14 0 26 -12t13 -27v-184
q0 -15 -12 -27t-27 -12h-819q-16 0 -28 11q-11 12 -11 28z" />
    <glyph glyph-name="three.tf" horiz-adv-x="1146" 
d="M497 252q83 0 138 49t55 117t-66 116q-67 48 -178 48h-114q-16 0 -28 12q-11 12 -11 27v170q0 16 11 27t28 11h114q104 0 162 44t58 112t-48 112t-116 44q-106 0 -178 -82q-25 -29 -56 -2l-125 123q-34 29 31 83q183 150 364 150t310 -103t129 -272q0 -108 -66 -194
t-145 -123v-6q90 -39 169 -132t79 -212q0 -168 -133 -280t-344 -111q-119 0 -217 36t-143 72q-45 35 -69 67t-2 58l130 129q25 25 51 4q127 -94 210 -94z" />
    <glyph glyph-name="four.tf" horiz-adv-x="1146" 
d="M635 543v381l-326 -381h326zM27 289q-16 0 -28 11q-11 11 -11 28v217l714 858q12 12 31 12h148q16 0 27 -11t12 -28l2 -839h161q15 -1 27 -11t12 -26v-170q0 -16 -11 -28t-28 -11h-161l2 -252q0 -15 -12 -27t-27 -12h-219q-14 0 -27 12q-12 12 -12 27v250h-600z" />
    <glyph glyph-name="five.tf" horiz-adv-x="1146" 
d="M552 254q92 0 146 55q56 55 56 141t-58 141q-58 56 -153 56h-316q-29 0 -46 23t-17 49v635q0 16 11 27t28 12h659q16 1 28 -11t11 -28v-180q0 -16 -11 -28t-28 -11h-422v-220h146q209 0 338 -131q129 -130 129 -330q-1 -200 -147 -337t-359 -137q-141 0 -248 54t-158 116
q-35 39 -4 69l129 127q23 23 49 6q145 -98 237 -98z" />
    <glyph glyph-name="six.tf" horiz-adv-x="1146" 
d="M588 657q-82 0 -140 -58t-57 -139q-1 -81 57 -139q58 -59 140 -59t139 58t57 140q0 81 -57 139t-139 58zM98 537q0 170 57 318q56 147 134 243t207 192t290 148q47 16 64 -33l59 -158q14 -43 -39 -59q-367 -117 -411 -336q96 41 194 41q160 0 284 -116q124 -117 124 -319
t-138 -340t-331 -138q-231 0 -363 155q-131 156 -131 402z" />
    <glyph glyph-name="seven.tf" horiz-adv-x="1146" 
d="M154 39v22l512 1069h-476q-14 0 -26 12t-12 27v185q0 14 12 26t26 13h865q14 -1 26 -13t13 -26v-15l-613 -1280q-29 -59 -84 -59h-202q-16 0 -29 11q-12 12 -12 28z" />
    <glyph glyph-name="eight.tf" horiz-adv-x="1146" 
d="M406 380q0 -62 51 -105q51 -44 115 -44t116 45q51 44 51 106t-44 114t-124 77q-77 -27 -121 -79t-44 -114zM572 1159q-58 0 -101 -40t-43 -93q0 -115 143 -170q145 53 146 170q0 53 -44 93q-43 40 -101 40zM74 371q0 63 32 125t98 125q67 64 120 94v6q-80 45 -146 127
t-65 190q0 168 131 272q130 104 326 103q196 0 329 -103q133 -104 133 -278t-211 -309v-8q96 -53 173 -141t77 -203q0 -170 -138 -281q-137 -110 -361 -110t-361 110t-137 281z" />
    <glyph glyph-name="nine.tf" horiz-adv-x="1146" 
d="M557 748q82 0 139 58q58 58 58 139t-58 139t-139 58q-82 0 -139 -58q-58 -58 -58 -139t58 -139t139 -58zM492 512q-160 0 -284 116t-124 318t138 341q138 138 331 138q231 1 362 -155t132 -402q-1 -170 -55 -318t-132 -244t-205 -191q-127 -96 -297 -148q-47 -12 -63 33
l-59 158q-14 43 38 59q367 117 412 336q-96 -41 -194 -41z" />
    <glyph glyph-name="zero.denom" horiz-adv-x="741" 
d="M371 143q63 0 63 160t-63 160t-63 -160t63 -160zM371 627q129 0 199 -85t69 -238q0 -152 -70 -238q-71 -86 -199 -86t-198 86t-70 238q0 153 70 238t199 85z" />
    <glyph glyph-name="one.denom" horiz-adv-x="524" 
d="M229 18v377h-110q-16 0 -17 23v78q0 12 17 22l155 88h129q18 0 19 -18v-570q0 -18 -19 -18h-153q-21 0 -21 18z" />
    <glyph glyph-name="two.denom" horiz-adv-x="649" 
d="M102 18v37l209 252q41 53 41 96q0 59 -63 60q-41 0 -72 -31q-25 -16 -37 8l-45 74q0 2 -9 16t1 25q71 71 207 72q92 -1 152 -53t60 -138t-61 -174l-82 -108h119q20 0 21 -19v-117q0 -18 -21 -18h-399q-21 0 -21 18z" />
    <glyph glyph-name="three.denom" horiz-adv-x="647" 
d="M272 377q56 0 58 49q0 45 -60 45q-31 0 -56 -17t-40 3l-53 71q-18 23 2 43q63 55 171 55t170 -45q62 -46 62 -131t-104 -137q123 -47 123 -157q0 -84 -71 -130t-174 -46t-183 59q-25 18 -6 45l47 70q16 23 41 8q29 -23 73 -23q68 0 68 50t-68 51h-67q-27 4 -27 32v70
q0 35 37 35h57z" />
    <glyph glyph-name="four.denom" horiz-adv-x="765" 
d="M389 250v133l-119 -133h119zM102 131v127l326 342q2 6 14 6h105q18 0 18 -18v-334h80q18 0 19 -16v-105q0 -18 -19 -18h-80v-97q0 -18 -18 -18h-139q-20 0 -21 18v97h-266q-19 0 -19 16z" />
    <glyph glyph-name="five.denom" horiz-adv-x="671" 
d="M309 139q27 -1 49 15t23 43q0 27 -22 43t-56 16h-147q-14 0 -24 9q-9 9 -9 22v301q0 18 20 18h330q20 0 21 -18v-109q0 -18 -21 -18h-197v-60h60q111 0 172 -52t61 -150t-71 -159q-72 -60 -196 -60t-191 77q-14 14 -2 31l61 80q16 27 35 8q39 -37 104 -37z" />
    <glyph glyph-name="six.denom" horiz-adv-x="694" 
d="M293 204q0 -26 18 -43t43 -17t42 16t18 43q0 27 -18 44t-42 17q-25 0 -43 -17t-18 -43zM592 196q0 -92 -71 -154t-177 -62t-174 67t-68 169t42 183q42 80 106 127q114 85 199 109q31 8 40 -19l31 -81q8 -27 -18 -35q-54 -16 -116 -52t-83 -81q35 25 106 25t127 -53
q56 -52 56 -143z" />
    <glyph glyph-name="seven.denom" horiz-adv-x="663" 
d="M102 18v11l222 426h-189q-20 0 -20 16v117q0 18 20 18h406q20 0 20 -18v-33l-260 -537q-10 -18 -33 -18h-139q-27 0 -27 18z" />
    <glyph glyph-name="eight.denom" horiz-adv-x="722" 
d="M297 179q0 -26 20 -43t45 -17t45 16q19 16 19 44t-17 46q-17 19 -45 19t-47 -20q-20 -20 -20 -45zM360 377q20 0 36 15q16 16 16 36t-16 36t-36 17q-20 0 -36 -16q-16 -17 -16 -37t16 -36t36 -15zM102 156q0 45 42 96t83 59v2q-39 13 -73 51t-33 104q0 66 69 112
q70 47 170 47t170 -47q70 -46 70 -112t-34 -104t-72 -51v-2q49 -12 88 -51q39 -40 39 -110t-73 -120t-189 -50q-117 0 -187 50t-70 126z" />
    <glyph glyph-name="nine.denom" horiz-adv-x="694" 
d="M340 342q25 0 43 17t18 43t-18 43t-43 17t-42 -16t-17 -43t17 -44t42 -17zM284 215q-72 0 -126 54q-56 53 -56 143t71 152t177 62t174 -67q68 -68 68 -170t-42 -182t-106 -127q-114 -84 -198 -109q-31 -8 -41 19l-31 82q-8 27 19 34q53 16 115 52t83 82q-35 -25 -107 -25
z" />
    <glyph glyph-name="zero.num" horiz-adv-x="741" 
d="M371 971q63 -1 63 159t-63 160t-63 -160t63 -159zM371 807q-129 0 -199 86q-70 87 -70 239t70 237t199 85t199 -85t69 -238q1 -153 -69 -239t-199 -85z" />
    <glyph glyph-name="one.num" horiz-adv-x="524" 
d="M250 827q-20 0 -21 19v377h-110q-16 0 -17 22v78q0 12 17 23l155 88h129q18 0 19 -19v-569q0 -18 -19 -19h-153z" />
    <glyph glyph-name="two.num" horiz-adv-x="649" 
d="M123 827q-20 0 -21 19v37l209 252q41 53 41 96q0 59 -63 59q-41 0 -72 -30q-25 -16 -37 8l-45 73q0 2 -9 17q-9 14 1 24q75 72 187 72t172 -52t60 -138t-61 -174l-82 -109h119q20 0 21 -18v-117q0 -18 -21 -19h-399z" />
    <glyph glyph-name="three.num" horiz-adv-x="647" 
d="M300 807q-103 0 -183 59q-25 18 -6 45l47 70q16 23 41 8q29 -23 73 -22q68 0 68 50t-68 50h-67q-27 4 -27 33v69q0 35 37 35h57q25 0 41 14t17 35q0 45 -60 45q-31 0 -56 -17t-40 3l-53 72q-18 23 2 43q63 55 171 55t170 -46t62 -131t-104 -136q123 -47 123 -158
q0 -84 -71 -130t-174 -46z" />
    <glyph glyph-name="four.num" horiz-adv-x="765" 
d="M389 1077v133l-119 -133h119zM408 827q-20 0 -21 19v96h-266q-18 0 -19 16v127l326 342q2 6 14 7h105q18 0 18 -19v-334h80q18 0 19 -16v-104q0 -18 -19 -19h-80v-96q0 -18 -18 -19h-139z" />
    <glyph glyph-name="five.num" horiz-adv-x="671" 
d="M302 807q-124 0 -191 78q-14 14 -2 30l61 80q16 27 35 9q39 -37 104 -37q27 0 49 15t23 42q0 27 -22 43t-56 16h-147q-14 -1 -24 9t-9 22v301q0 18 20 19h330q20 0 21 -19v-108q0 -18 -21 -19h-197v-59h60q111 0 172 -52q61 -53 61 -151t-71 -159q-72 -60 -196 -60z" />
    <glyph glyph-name="six.num" horiz-adv-x="694" 
d="M354 971q25 0 42 16t18 43q0 27 -18 44q-18 18 -42 18q-25 0 -43 -18t-18 -43q0 -26 18 -43t43 -17zM409 1219q71 -1 127 -53t56 -143t-71 -153t-177 -63t-174 67t-68 170q0 249 258 381q114 61 129 19l31 -82q8 -27 -18 -35q-54 -16 -116 -52t-83 -81q35 25 106 25z" />
    <glyph glyph-name="seven.num" horiz-adv-x="663" 
d="M129 827q-27 0 -27 19v10l222 426h-189q-20 0 -20 16v117q0 18 20 19h406q20 0 20 -19v-33l-260 -536q-10 -18 -33 -19h-139z" />
    <glyph glyph-name="eight.num" horiz-adv-x="722" 
d="M362 946q24 0 44 16t20 45q0 28 -17 46t-45 18t-47 -19q-20 -19 -20 -45q0 -25 20 -43t45 -18zM360 1204q20 0 36 16t16 35q0 21 -16 37t-36 16t-36 -16t-16 -36t16 -36t36 -16zM359 807q-117 0 -187 50t-70 126q0 45 40 94t85 62v2q-39 14 -73 51q-34 36 -33 102
q0 66 69 113q70 47 170 47t170 -47t70 -113t-34 -103q-34 -38 -72 -50v-2q49 -11 88 -51t39 -110t-73 -121q-73 -50 -189 -50z" />
    <glyph glyph-name="nine.num" horiz-adv-x="694" 
d="M340 1169q25 -1 43 17t18 44t-18 43t-43 17t-42 -16t-17 -43t17 -45t42 -17zM284 1042q-72 0 -126 54q-56 54 -56 144t71 152t177 62t174 -68t68 -170q0 -248 -258 -380q-47 -25 -83 -35t-46 16l-31 82q-8 27 19 35q53 16 115 52t83 81q-35 -25 -107 -25z" />
    <glyph glyph-name="a.alt" 
d="M498 244q70 0 116 47t48 118q0 71 -48 119t-116 47q-70 1 -118 -47t-48 -119t48 -118t118 -47zM934 780v-741q0 -15 -12 -27t-27 -12h-96q-29 0 -43 41l-25 68q-11 -14 -31 -36t-91 -58t-150 -35q-174 0 -291 124t-117 304t117 306t289 126q81 0 149 -33t96 -66l29 -30
l25 67q14 41 43 41h96q14 0 27 -12q12 -13 12 -27z" />
    <glyph glyph-name="agrave.alt" 
d="M676 1049l-373 168q-33 20 -12 61l69 121q6 12 26 13t28 -7l348 -213q23 -18 12 -39l-43 -86q-20 -41 -55 -18zM498 244q70 0 116 47t48 118q0 71 -48 119t-116 47q-70 1 -118 -47t-48 -119t48 -118t118 -47zM934 780v-741q0 -15 -12 -27t-27 -12h-96q-29 0 -43 41
l-25 68q-11 -14 -31 -36t-91 -58t-150 -35q-174 0 -291 124t-117 304t117 306t289 126q81 0 149 -33t96 -66l29 -30l25 67q14 41 43 41h96q14 0 27 -12q12 -13 12 -27z" />
    <glyph glyph-name="aacute.alt" 
d="M365 1049q-35 -23 -56 18l-43 86q-10 20 13 39l348 213q8 8 27 7t26 -13l70 -121q20 -41 -13 -61zM498 244q70 0 116 47t48 118q0 71 -48 119t-116 47q-70 1 -118 -47t-48 -119t48 -118t118 -47zM934 780v-741q0 -15 -12 -27t-27 -12h-96q-29 0 -43 41l-25 68
q-11 -14 -31 -36t-91 -58t-150 -35q-174 0 -291 124t-117 304t117 306t289 126q81 0 149 -33t96 -66l29 -30l25 67q14 41 43 41h96q14 0 27 -12q12 -13 12 -27z" />
    <glyph glyph-name="acircumflex.alt" 
d="M297 1049q-27 -14 -45 8l-68 96q-12 18 13 39l276 213q23 16 49 0l283 -213q23 -18 12 -39l-69 -94q-18 -25 -43 -10l-203 118zM498 244q70 0 116 47t48 118q0 71 -48 119t-116 47q-70 1 -118 -47t-48 -119t48 -118t118 -47zM934 780v-741q0 -15 -12 -27t-27 -12h-96
q-29 0 -43 41l-25 68q-11 -14 -31 -36t-91 -58t-150 -35q-174 0 -291 124t-117 304t117 306t289 126q81 0 149 -33t96 -66l29 -30l25 67q14 41 43 41h96q14 0 27 -12q12 -13 12 -27z" />
    <glyph glyph-name="atilde.alt" 
d="M392 1413q50 0 117 -48t103 -48t78 63q20 33 51 4l70 -53q29 -20 2 -59q-94 -160 -205 -160q-57 0 -126 49t-92 49q-24 0 -38 -11t-31 -35t-20 -25q-18 -18 -45 -2l-72 57q-25 18 -12 47q45 82 108 127q62 45 112 45zM498 244q70 0 116 47t48 118q0 71 -48 119t-116 47
q-70 1 -118 -47t-48 -119t48 -118t118 -47zM934 780v-741q0 -15 -12 -27t-27 -12h-96q-29 0 -43 41l-25 68q-11 -14 -31 -36t-91 -58t-150 -35q-174 0 -291 124t-117 304t117 306t289 126q81 0 149 -33t96 -66l29 -30l25 67q14 41 43 41h96q14 0 27 -12q12 -13 12 -27z" />
    <glyph glyph-name="adieresis.alt" 
d="M303 1096q-59 0 -101 43t-42 102t42 101t101 42t103 -42t43 -101q1 -59 -43 -102t-103 -43zM723 1096q-59 0 -101 43t-42 102t42 101t101 42t102 -42t43 -101t-43 -102t-102 -43zM498 244q70 0 116 47t48 118q0 71 -48 119t-116 47q-70 1 -118 -47t-48 -119t48 -118
t118 -47zM934 780v-741q0 -15 -12 -27t-27 -12h-96q-29 0 -43 41l-25 68q-11 -14 -31 -36t-91 -58t-150 -35q-174 0 -291 124t-117 304t117 306t289 126q81 0 149 -33t96 -66l29 -30l25 67q14 41 43 41h96q14 0 27 -12q12 -13 12 -27z" />
    <glyph glyph-name="amacron.alt" 
d="M244 1153q-39 0 -39 37v84q0 39 39 39h524q39 0 39 -39v-84q0 -16 -11 -26t-28 -11h-524zM498 244q70 0 116 47t48 118q0 71 -48 119t-116 47q-70 1 -118 -47t-48 -119t48 -118t118 -47zM934 780v-741q0 -15 -12 -27t-27 -12h-96q-29 0 -43 41l-25 68q-11 -14 -31 -36
t-91 -58t-150 -35q-174 0 -291 124t-117 304t117 306t289 126q81 0 149 -33t96 -66l29 -30l25 67q14 41 43 41h96q14 0 27 -12q12 -13 12 -27z" />
    <glyph glyph-name="abreve.alt" 
d="M501 1079q-112 0 -193 70t-97 176q-4 17 7 31t32 14h92q27 0 35 -24q14 -43 48 -71t75 -28q40 0 74 30t49 69q6 25 34 24h97q18 0 29 -13t10 -32q-16 -106 -98 -176t-194 -70zM498 244q70 0 116 47t48 118q0 71 -48 119t-116 47q-70 1 -118 -47t-48 -119t48 -118t118 -47
zM934 780v-741q0 -15 -12 -27t-27 -12h-96q-29 0 -43 41l-25 68q-11 -14 -31 -36t-91 -58t-150 -35q-174 0 -291 124t-117 304t117 306t289 126q81 0 149 -33t96 -66l29 -30l25 67q14 41 43 41h96q14 0 27 -12q12 -13 12 -27z" />
    <glyph glyph-name="aring.alt" 
d="M506 1128q36 0 62 28t26 63t-27 61t-61 27q-34 0 -63 -27q-27 -28 -27 -62t28 -62t62 -28zM505 983q-97 0 -166 69t-69 167q0 99 69 167t166 68t167 -69t70 -167t-70 -166q-70 -69 -167 -69zM498 244q70 0 116 47t48 118q0 71 -48 119t-116 47q-70 1 -118 -47t-48 -119
t48 -118t118 -47zM934 780v-741q0 -15 -12 -27t-27 -12h-96q-29 0 -43 41l-25 68q-11 -14 -31 -36t-91 -58t-150 -35q-174 0 -291 124t-117 304t117 306t289 126q81 0 149 -33t96 -66l29 -30l25 67q14 41 43 41h96q14 0 27 -12q12 -13 12 -27z" />
    <glyph glyph-name="aringacute.alt" 
d="M346 1354q-35 -23 -55 18l-43 86q-10 20 12 39l348 213q8 8 28 7t26 -13l69 -121q23 -41 -12 -61zM492 1024q36 0 62 28t26 62t-27 62q-27 26 -61 26t-63 -26q-28 -26 -28 -62q0 -34 28 -62t63 -28zM727 1114q1 -98 -69 -166t-167 -69q-97 1 -166 69t-69 166t69 167
t166 69t167 -69t69 -167zM498 244q70 0 116 47t48 118q0 71 -48 119t-116 47q-70 1 -118 -47t-48 -119t48 -118t118 -47zM934 780v-741q0 -15 -12 -27t-27 -12h-96q-29 0 -43 41l-25 68q-11 -14 -31 -36t-91 -58t-150 -35q-174 0 -291 124t-117 304t117 306t289 126
q81 0 149 -33t96 -66l29 -30l25 67q14 41 43 41h96q14 0 27 -12q12 -13 12 -27z" />
    <glyph glyph-name="aogonek.alt" 
d="M498 244q70 0 116 47t48 118q0 71 -48 119t-116 47q-70 1 -118 -47t-48 -119t48 -118t118 -47zM934 780v-741q0 -15 -12 -27t-27 -12h-21q-92 -92 -92 -195q0 -59 36 -98t108 -39q16 0 84 13q20 3 32 -9t13 -30v-68q0 -31 -31 -39q-72 -16 -129 -16q-125 0 -204 59
t-79 174q0 76 45 159t103 118l-29 80q-11 -14 -31 -36t-91 -58t-150 -35q-174 0 -291 124t-117 304t117 306t289 126q81 0 149 -33t96 -66l29 -30l25 67q14 41 43 41h96q14 0 27 -12q12 -13 12 -27z" />
    <glyph glyph-name="parenleft.case" horiz-adv-x="704" 
d="M76 711q0 774 520 800q16 2 28 -9t13 -27l8 -175q0 -31 -27 -38q-125 -40 -180 -178t-55 -378t55 -378q55 -137 180 -178q27 -12 27 -39l-8 -172q-4 -39 -41 -39q-520 37 -520 811z" />
    <glyph glyph-name="parenright.case" horiz-adv-x="704" 
d="M629 710q0 -774 -520 -810q-16 0 -29 11q-12 11 -12 26l-9 176q0 24 27 37q125 41 180 178q56 137 56 378q0 240 -56 378t-180 178q-27 8 -27 38l9 175q0 16 12 27t29 9q520 -27 520 -801z" />
    <glyph glyph-name="hyphen.case" horiz-adv-x="735" 
d="M133 549q-39 0 -39 37v186q0 39 39 39h469q39 0 39 -39v-186q0 -16 -11 -26t-28 -11h-469z" />
    <glyph glyph-name="bracketleft.case" horiz-adv-x="739" 
d="M406 -129h260q16 0 27 -11t12 -26v-166q-1 -16 -13 -27t-26 -12h-504q-14 -1 -26 11t-13 28v1972q0 14 12 26t27 13h504q14 0 26 -12t13 -27v-163q1 -15 -11 -27t-28 -12h-260v-1567z" />
    <glyph glyph-name="bracketright.case" horiz-adv-x="739" 
d="M74 -129h260v1567h-260q-16 0 -28 11q-11 11 -11 28v163q0 14 11 26t28 13h504q16 0 27 -12t11 -27v-1972q0 -16 -11 -27t-27 -12h-504q-16 -1 -28 11t-11 28v166q0 14 11 26q12 11 28 11z" />
    <glyph glyph-name="braceleft.case" horiz-adv-x="804" 
d="M207 207v213q0 102 -141 131q-12 2 -22 13q-9 11 -9 24v119q0 29 26 36q16 5 41 15t65 45t40 71v228q0 141 34 249t85 170t145 114t248 63q37 4 41 -35q7 -119 9 -162q1 -43 -28 -51q-225 -57 -225 -348v-187q0 -91 -57 -158t-99 -93l-18 -11v-8q86 -34 139 -122
q35 -56 35 -124v-192q0 -291 225 -348q29 -8 29 -39q-4 -122 -8 -156t-16 -44t-56 -8q-127 9 -220 61q-93 53 -144 115t-85 170t-34 249z" />
    <glyph glyph-name="bar.case" horiz-adv-x="356" 
d="M123 -332v2095q0 15 11 27t28 12h35q16 0 26 -11t10 -28v-2095q0 -14 -11 -25t-27 -12h-33q-16 -1 -28 11t-11 26z" />
    <glyph glyph-name="braceright.case" horiz-adv-x="804" 
d="M289 915v187q0 291 -226 348q-29 8 -28 39q2 31 5 86t5 88q4 39 41 35q150 -8 270 -75q72 -40 123 -102t85 -170t34 -249v-228q0 -38 37 -70t74 -46l34 -15q27 -8 27 -36v-119q0 -12 -9 -24t-22 -13q-141 -29 -141 -131v-213q0 -141 -34 -249t-85 -170t-123 -102
q-120 -67 -270 -75q-14 -2 -27 8q-12 10 -16 44t-8 157q0 31 28 39q226 57 226 348v192q0 95 56 157t118 89v8q-174 116 -174 262z" />
    <glyph glyph-name="guilsinglleft.case" horiz-adv-x="579" 
d="M303 1020h162q27 0 35 -20t-4 -44l-134 -284l127 -301q11 -25 3 -43t-33 -19h-172q-19 1 -31 17l-213 317q-16 23 0 49l223 303q14 25 37 25z" />
    <glyph glyph-name="guilsinglright.case" horiz-adv-x="579" 
d="M119 309q-25 1 -34 19t3 43l127 301l-133 284q-12 25 -4 44t35 20h161q23 0 37 -25l224 -303q16 -27 0 -49l-213 -317q-12 -16 -31 -17h-172z" />
    <glyph glyph-name="guillemotleft.case" horiz-adv-x="1026" 
d="M303 1020h162q27 0 35 -20t-4 -44l-134 -284l127 -301q11 -25 3 -43t-33 -19h-172q-19 1 -31 17l-213 317q-16 23 0 49l223 303q14 25 37 25zM750 1020h161q27 0 35 -20t-4 -44l-133 -284l127 -301q12 -25 3 -43t-34 -19h-172q-18 0 -31 17l-213 317q-16 23 0 49l224 303
q14 25 37 25z" />
    <glyph glyph-name="guillemotright.case" horiz-adv-x="1026" 
d="M119 309q-25 1 -34 19t3 43l127 301l-133 284q-12 25 -4 44t35 20h161q23 0 37 -25l224 -303q16 -27 0 -49l-213 -317q-12 -16 -31 -17h-172zM721 1020q23 0 37 -25l223 -303q16 -27 0 -49l-213 -317q-12 -16 -31 -17h-172q-25 1 -33 19t3 43l127 301l-134 284
q-12 25 -4 44t35 20h162z" />
    <glyph glyph-name="endash.case" horiz-adv-x="1095" 
d="M129 600q-39 0 -39 37v104q0 39 39 39h838q39 0 39 -39v-104q0 -17 -12 -27t-27 -10h-838z" />
    <glyph glyph-name="emdash.case" horiz-adv-x="1546" 
d="M129 600q-39 0 -39 37v104q0 39 39 39h1288q39 0 39 -39v-104q0 -17 -11 -27t-28 -10h-1288z" />
    <glyph glyph-name="bullet.case" horiz-adv-x="831" 
d="M414 354q-119 0 -205 86t-86 205t86 207t205 88t207 -88t88 -207t-88 -205t-207 -86z" />
    <glyph glyph-name="periodcentered.case" horiz-adv-x="565" 
d="M281 489q-89 -1 -153 63t-64 154t62 156q64 66 154 66t156 -66t66 -156t-66 -153q-66 -64 -155 -64z" />
    </font>
</defs>
</svg>
