<?xml version="1.0" standalone="no"?>
<!DOCTYPE svg PUBLIC "-//W3C//DTD SVG 1.1//EN" "http://www.w3.org/Graphics/SVG/1.1/DTD/svg11.dtd" >
<svg xmlns="http://www.w3.org/2000/svg">
<metadata>
Created by FontPrep 20130207 at Mon Oct 27 08:27:06 2014
 By Wendell P. Barreto
Copyright (c) 2008 by Jos Buivenga. All rights reserved.
</metadata>
<defs>
<font id="def45dfa0767cb06d134930a9f004794" horiz-adv-x='1024' >
  <font-face 
    font-family="MuseoSans-500"
    font-weight="400"
    font-stretch="normal"
    units-per-em="2048"
    panose-1="2 0 0 0 0 0 0 0 0 0"
    ascent="1536"
    descent="-512"
    x-height="1036"
    cap-height="1446"
    bbox="-248 -430 2228 1827"
    underline-thickness="102"
    underline-position="-102"
    unicode-range="U+0020-FB04"
  />
<missing-glyph horiz-adv-x="1044" 
d="M174 102h696l-348 523zM113 195l348 522l-348 522v-1044zM584 717l348 -522v1044zM522 809l348 522h-696zM10 0v1434h1024v-1434h-1024z" />
    <glyph glyph-name="f_f" unicode="ff" horiz-adv-x="1376" 
d="M899 0v877h-491v-877h-197v877h-129v159h129v35q0 98 29 171t69 113q104 101 291 101l76 -6v-170q-20 4 -53 4q-145 0 -193 -102q-23 -47 -22 -115v-31h491v35q0 98 29 171t69 113q104 101 291 101l76 -6v-170q-20 4 -73 4t-101 -28q-95 -54 -94 -189v-31h245v-159h-245
v-877h-197z" />
    <glyph glyph-name="fi" unicode="fi" horiz-adv-x="1198" 
d="M842 1243v203h200v-203h-200zM844 0v877h-436v-877h-197v877h-129v159h129v35q0 98 29 171t69 113q104 101 291 101l76 -6v-170q-20 4 -53 4q-145 0 -193 -102q-23 -47 -22 -115v-31h634v-1036h-198z" />
    <glyph glyph-name="fl" unicode="fl" horiz-adv-x="1230" 
d="M831 283v1163h199v-1129q0 -87 29 -117t82 -30l35 2v-176q-31 -4 -66 -4q-279 0 -279 291zM211 0v862h-129v160h129v49q0 98 29 171t69 113q104 101 291 101l76 -6v-170q-20 4 -53 4q-145 0 -193 -102q-23 -47 -22 -115v-45h245v-160h-245v-862h-197z" />
    <glyph glyph-name="f_f_i" unicode="ffi" horiz-adv-x="1886" 
d="M1530 1243v203h201v-203h-201zM899 0v877h-491v-877h-197v877h-129v159h129v35q0 98 29 171t69 113q104 101 291 101l76 -6v-170q-20 4 -53 4q-145 0 -193 -102q-23 -47 -22 -115v-31h491v35q0 98 29 171t69 113q104 101 291 101l76 -6v-170q-20 4 -73 4t-101 -28
q-95 -54 -94 -189v-31h635v-1036h-199v877h-436v-877h-197z" />
    <glyph glyph-name="f_f_l" unicode="ffl" horiz-adv-x="1918" 
d="M1520 283v1163h198v-1129q0 -87 29 -117t82 -30l35 2v-176q-31 -4 -66 -4q-278 0 -278 291zM899 0v877h-491v-877h-197v877h-129v159h129v35q0 98 29 171t69 113q104 101 291 101l76 -6v-170q-20 4 -53 4q-145 0 -193 -102q-23 -47 -22 -115v-31h491v35q0 98 29 171
t69 113q104 101 291 101l76 -6v-170q-20 4 -73 4t-101 -28q-95 -54 -94 -189v-31h245v-159h-245v-877h-197z" />
    <glyph glyph-name="f_j" unicode="fj" horiz-adv-x="1196" 
d="M842 1243v203h200v-203h-200zM211 0v877h-129v159h129v35q0 98 29 171t69 113q104 101 291 101l76 -6v-170q-20 4 -53 4q-145 0 -193 -102q-23 -47 -22 -115v-31h632v-1071q0 -121 -42 -205t-110 -120q-119 -62 -243 -62l-70 4v170q18 -2 68 -2t102 28q99 54 99 199v900
h-436v-877h-197z" />
    <glyph glyph-name=".notdef" horiz-adv-x="1044" 
d="M174 102h696l-348 523zM113 195l348 522l-348 522v-1044zM584 717l348 -522v1044zM522 809l348 522h-696zM10 0v1434h1024v-1434h-1024z" />
    <glyph glyph-name=".null" horiz-adv-x="0" 
 />
    <glyph glyph-name="nonmarkingreturn" horiz-adv-x="681" 
 />
    <glyph glyph-name="space" unicode=" " horiz-adv-x="526" 
 />
    <glyph glyph-name="exclam" unicode="!" horiz-adv-x="651" 
d="M225 0v199h203v-199h-203zM238 397l-15 1049h205l-12 -1049h-178z" />
    <glyph glyph-name="quotedbl" unicode="&#x22;" horiz-adv-x="700" 
d="M129 1085v385h156v-385h-156zM416 1085v385h155v-385h-155z" />
    <glyph glyph-name="numbersign" unicode="#" horiz-adv-x="1470" 
d="M549 543h317l62 344h-318zM289 0l67 391h-266l25 152h268l59 344h-264l25 149h266l72 410h166l-72 -410h317l72 410h166l-72 -410h268l-26 -149h-266l-62 -344h266l-26 -152h-264l-70 -391h-166l68 391h-318l-67 -391h-166z" />
    <glyph glyph-name="dollar" unicode="$" horiz-adv-x="1159" 
d="M594 164q106 0 178 57t72 147t-73 151t-177 105t-208 95t-178 139q-73 88 -73 224q-1 136 105 246q106 112 276 136v193h146v-191q102 -8 189 -43t124 -67l37 -31l-92 -168q-44 44 -140 85q-96 40 -194 40t-172 -61t-74 -159t140 -173q62 -33 138 -64t152 -69t138 -84
q62 -47 102 -121t39 -168q-1 -159 -105 -271t-282 -132v-189h-146v189q-194 21 -338 128q-35 26 -51 42l-16 16l114 153q18 -18 63 -50q146 -105 306 -105z" />
    <glyph glyph-name="percent" unicode="%" horiz-adv-x="1558" 
d="M1151 432q-63 0 -107 -45t-45 -109q0 -64 43 -108q44 -43 108 -43t108 44q44 43 44 107t-44 109t-107 45zM840 278q0 126 91 215t219 89t220 -89t92 -214t-92 -214t-221 -89t-219 88t-90 214zM408 1016q63 0 107 43t44 107t-44 110t-107 45q-64 0 -108 -45t-44 -110
q0 -66 44 -108t108 -42zM129 0l1106 1446h192l-1105 -1446h-193zM408 864q-129 0 -220 88q-90 88 -90 214t90 215t220 89t220 -89q91 -89 91 -214t-91 -214t-220 -89z" />
    <glyph glyph-name="ampersand" unicode="&#x26;" horiz-adv-x="1400" 
d="M637 674q-154 0 -237 -68t-83 -182t82 -188t219 -74t217 81q79 81 78 246v185h-276zM111 406q0 123 68 227q69 104 186 143v4q-22 5 -60 35q-128 97 -130 278q-1 181 123 279t320 98q42 0 150 -16l27 -6l-52 -162q-59 12 -108 12q-111 0 -183 -59t-73 -151q0 -92 49 -158
q60 -82 217 -80h268v197h199v-197h193v-176h-193v-193q0 -241 -133 -373t-361 -132t-368 122q-139 124 -139 308z" />
    <glyph glyph-name="quotesingle" unicode="'" horiz-adv-x="415" 
d="M129 1085v385h158v-385h-158z" />
    <glyph glyph-name="parenleft" unicode="(" horiz-adv-x="618" 
d="M330 672q0 -446 231 -867h-174q-238 395 -237 891q0 430 237 809h174q-231 -387 -231 -833z" />
    <glyph glyph-name="parenright" unicode=")" horiz-adv-x="618" 
d="M469 696q0 -496 -238 -891h-174q231 420 232 889q0 424 -232 811h174q238 -379 238 -809z" />
    <glyph glyph-name="asterisk" unicode="*" horiz-adv-x="956" 
d="M317 674l-147 106l182 226v4l-278 75l53 172l272 -102l-14 291h186l-16 -291l274 102l56 -172l-281 -75v-4l180 -226l-145 -106l-158 241h-4z" />
    <glyph glyph-name="plus" unicode="+" horiz-adv-x="1398" 
d="M158 504v160h458v503h168v-503h457v-160h-457v-504h-168v504h-458z" />
    <glyph glyph-name="comma" unicode="," horiz-adv-x="522" 
d="M55 -207l127 422h203l-172 -422h-158z" />
    <glyph glyph-name="hyphen" unicode="-" horiz-adv-x="966" 
d="M184 496v176h598v-176h-598z" />
    <glyph glyph-name="period" unicode="." horiz-adv-x="520" 
d="M156 0v211h209v-211h-209z" />
    <glyph glyph-name="slash" unicode="/" horiz-adv-x="827" 
d="M74 -86l520 1610h176l-520 -1610h-176z" />
    <glyph glyph-name="zero" unicode="0" horiz-adv-x="1280" 
d="M640 162q304 0 304 561t-304 561t-304 -561t304 -561zM640 -25q-511 -1 -511 747t511 748t511 -748t-511 -747z" />
    <glyph glyph-name="one" unicode="1" horiz-adv-x="1001" 
d="M115 0v176h319v934l2 90h-4q-16 -33 -70 -84l-135 -133l-123 127l347 336h180v-1270h315v-176h-831z" />
    <glyph glyph-name="two" unicode="2" horiz-adv-x="1171" 
d="M113 111q0 121 52 224t131 171t171 136t171 121q79 54 131 127q52 72 52 164t-72 159q-73 67 -185 67t-187 -63q-76 -63 -98 -103l-11 -18l-149 100q6 10 16 30t50 66q40 47 88 83t129 66t173 29q201 0 329 -114t128 -301q0 -97 -38 -181t-99 -144t-135 -116t-148 -104
q-74 -49 -135 -98q-139 -112 -139 -236h717v-176h-932q-10 66 -10 111z" />
    <glyph glyph-name="three" unicode="3" horiz-adv-x="1161" 
d="M558 168q108 0 194 75t86 195t-96 191q-96 70 -240 69h-101l-47 109l316 371l90 94v4q-43 -6 -123 -6h-490v176h865v-129l-394 -453q168 -18 296 -124t128 -300q0 -192 -137 -328t-354 -137q-131 -1 -248 49t-168 99l-53 49l111 154q16 -18 45 -44q28 -26 120 -70
t200 -44z" />
    <glyph glyph-name="four" unicode="4" horiz-adv-x="1241" 
d="M287 559h477v526l8 144h-4q-33 -68 -72 -119l-409 -547v-4zM63 387v127l668 932h232v-887h196v-172h-196v-387h-199v387h-701z" />
    <glyph glyph-name="five" unicode="5" horiz-adv-x="1153" 
d="M846 461q0 129 -94 213t-236 84q-64 0 -124 -18t-89 -35l-31 -19l-116 43l71 717h729v-176h-553l-34 -305l-11 -76h4q80 45 187 45q223 0 363 -136t140 -340t-146 -343t-365 -140q-169 0 -281 68t-145 113l-17 20l113 148q12 -18 48 -50q117 -106 258 -106q142 0 236 82
q93 82 93 211z" />
    <glyph glyph-name="six" unicode="6" horiz-adv-x="1226" 
d="M653 162q127 0 200 84t73 216t-81 217t-209 85t-215 -62t-87 -141q0 -147 96 -273t223 -126zM662 -25q-236 1 -389 189t-153 490t158 548q76 121 204 195t290 73q76 0 146 -14t102 -31l33 -14l-66 -174q-92 47 -207 47q-186 0 -297 -142t-137 -343h4q45 61 134 99t186 38
q204 0 330 -136t126 -345t-130 -345t-334 -135z" />
    <glyph glyph-name="seven" unicode="7" horiz-adv-x="1083" 
d="M717 1270h-645v176h966v-139l-653 -1307h-209l563 1139q35 71 84 133v4q-33 -6 -106 -6z" />
    <glyph glyph-name="eight" unicode="8" horiz-adv-x="1243" 
d="M893 1071q0 97 -72 157q-71 60 -187 60t-182 -58t-65 -144q0 -87 72 -144t180 -102t127 -54q127 127 127 285zM324 430q0 -121 88 -197q88 -75 207 -75t203 70t85 175q0 130 -216 226q-36 16 -97 44t-96 44q-174 -121 -174 -287zM117 418q0 155 103 267q74 81 128 118
q-162 117 -162 281t117 276t327 110q210 0 336 -105t126 -287t-172 -371q196 -121 196 -301t-138 -306q-138 -125 -357 -125t-362 124q-142 124 -142 319z" />
    <glyph glyph-name="nine" unicode="9" horiz-adv-x="1226" 
d="M590 682q129 0 216 62t87 141q0 147 -96 273q-97 126 -225 126t-200 -84t-71 -216q0 -132 80 -217t209 -85zM455 -25q-76 1 -147 15t-103 30l-31 15l66 176q92 -49 206 -49q186 0 297 142t138 343h-4q-43 -61 -133 -98t-187 -37q-203 0 -330 135t-127 344t131 344
t334 135q233 0 387 -188t154 -490t-157 -548q-77 -121 -205 -195t-289 -74z" />
    <glyph glyph-name="colon" unicode=":" horiz-adv-x="598" 
d="M195 0v211h208v-211h-208zM195 825v211h208v-211h-208z" />
    <glyph glyph-name="semicolon" unicode=";" horiz-adv-x="600" 
d="M207 825v211h209v-211h-209zM96 -207l109 422h205l-154 -422h-160z" />
    <glyph glyph-name="less" unicode="&#x3c;" horiz-adv-x="1142" 
d="M68 516v135l954 426v-182l-733 -309v-4l733 -310v-182z" />
    <glyph glyph-name="equal" unicode="=" horiz-adv-x="1370" 
d="M197 309v160h977v-160h-977zM197 696v160h977v-160h-977z" />
    <glyph glyph-name="greater" unicode="&#x3e;" horiz-adv-x="1142" 
d="M121 90v182l731 310v4l-731 309v182l954 -426v-135z" />
    <glyph glyph-name="question" unicode="?" horiz-adv-x="1001" 
d="M291 0v199h203v-199h-203zM295 397v97q0 158 123 276q51 49 102 94q123 109 123 221q0 86 -66 145q-67 58 -167 58q-58 0 -116 -22t-89 -41l-29 -23l-110 141q14 14 43 36t123 59t192 37q178 -1 303 -105t125 -274t-127 -290q-53 -50 -107 -96q-128 -108 -129 -229v-84
h-194z" />
    <glyph glyph-name="at" unicode="@" horiz-adv-x="1681" 
d="M1008 739q-106 -1 -174 -71t-68 -171t68 -171t170 -70h206v483h-202zM121 494q0 317 217 537t530 220q276 0 405 -117q128 -118 128 -298v-580h147v-150h-559q-186 0 -305 114t-119 273t118 271t306 113h221q-4 92 -91 151t-240 59q-236 0 -398 -175q-162 -174 -162 -420
t163 -416t419 -170v-162q-340 0 -560 216t-220 534z" />
    <glyph glyph-name="A" unicode="A" horiz-adv-x="1286" 
d="M645 1247h-4q-33 -131 -57 -205l-162 -458h438l-160 458zM1059 0l-146 416h-544l-144 -416h-209l521 1446h213l520 -1446h-211z" />
    <glyph glyph-name="B" unicode="B" horiz-adv-x="1298" 
d="M399 176h326q115 0 181 67t67 179q0 112 -69 180t-181 68h-324v-494zM399 838h303q96 0 155 61q58 61 58 157t-57 155q-57 58 -160 59h-299v-432zM197 0v1446h505q186 0 304 -98t116 -271q0 -104 -48 -186t-132 -125v-4q111 -33 174 -129t64 -221q0 -196 -132 -304
t-333 -108h-518z" />
    <glyph glyph-name="C" unicode="C" horiz-adv-x="1478" 
d="M838 -25q-322 0 -531 217q-209 218 -209 536t210 530t526 212q199 0 331 -63q131 -63 174 -109l21 -18l-100 -152q-18 18 -54 44t-144 70q-110 44 -220 44q-238 0 -386 -159t-148 -395t150 -404q151 -166 386 -166q120 0 232 47t163 94l51 47l109 -145q-24 -30 -86 -75
q-61 -44 -121 -75t-156 -55t-198 -25z" />
    <glyph glyph-name="D" unicode="D" horiz-adv-x="1515" 
d="M399 176h263q248 0 393 143t145 405t-145 403q-145 142 -393 143h-263v-1094zM197 0v1446h479q336 0 534 -192t199 -530q0 -340 -199 -532t-534 -192h-479z" />
    <glyph glyph-name="E" unicode="E" horiz-adv-x="1173" 
d="M197 0v1446h839v-176h-637v-453h519v-176h-519v-465h672v-176h-874z" />
    <glyph glyph-name="F" unicode="F" horiz-adv-x="1067" 
d="M197 0v1446h796v-176h-594v-475h506v-177h-506v-618h-202z" />
    <glyph glyph-name="G" unicode="G" horiz-adv-x="1556" 
d="M100 720q0 320 211 535t527 215q240 0 440 -111q45 -26 65 -44l21 -19l-102 -151q-18 16 -52 40q-34 25 -141 63q-106 38 -215 38q-248 0 -396 -159t-148 -403t151 -404q152 -158 381 -158q111 0 213 45t149 90l47 45v209h-235v176h420v-727h-179v90l3 62h-5
q-174 -174 -444 -177q-297 0 -504 212q-207 213 -207 533z" />
    <glyph glyph-name="H" unicode="H" horiz-adv-x="1548" 
d="M197 0v1446h202v-635h750v635h203v-1446h-203v635h-750v-635h-202z" />
    <glyph glyph-name="I" unicode="I" horiz-adv-x="595" 
d="M197 0v1446h202v-1446h-202z" />
    <glyph glyph-name="J" unicode="J" horiz-adv-x="1099" 
d="M61 416v71h201v-61q0 -136 67 -200t163 -64t160 61t65 195v852h-365v176h568v-1030q0 -219 -127 -330t-303 -111t-303 112q-126 112 -126 329z" />
    <glyph glyph-name="K" unicode="K" horiz-adv-x="1275" 
d="M197 0v1446h202v-608h215l365 608h223l-420 -686v-4l447 -756h-230l-385 664h-215v-664h-202z" />
    <glyph glyph-name="L" unicode="L" horiz-adv-x="1083" 
d="M197 0v1446h202v-1270h648v-176h-850z" />
    <glyph glyph-name="M" unicode="M" horiz-adv-x="1773" 
d="M152 0l116 1446h213l332 -782l72 -195h4q39 115 72 195l331 782h213l117 -1446h-201l-71 911l-2 213h-5q-43 -133 -77 -213l-289 -651h-180l-287 651l-78 217h-4q2 -129 -4 -217l-70 -911h-202z" />
    <glyph glyph-name="N" unicode="N" horiz-adv-x="1550" 
d="M197 0v1446h200l643 -940q48 -68 103 -174l18 -35h4q-14 129 -14 209v940h203v-1446h-199l-645 938q-41 57 -102 176l-19 35h-4q14 -129 14 -211v-938h-202z" />
    <glyph glyph-name="O" unicode="O" horiz-adv-x="1681" 
d="M842 1286q-223 0 -379 -158t-156 -398t156 -404t379 -164t378 165q154 165 154 403t-154 398q-154 158 -378 158zM98 729q0 315 215 528t529 213t527 -213q214 -213 214 -528t-214 -534t-527 -219q-312 0 -528 218q-216 220 -216 535z" />
    <glyph glyph-name="P" unicode="P" horiz-adv-x="1243" 
d="M399 711h293q131 -1 206 75t75 206t-75 204t-204 74h-295v-559zM197 0v1446h528q201 0 328 -124t127 -329t-128 -331t-327 -127h-326v-535h-202z" />
    <glyph glyph-name="Q" unicode="Q" horiz-adv-x="1705" 
d="M1376 731q0 239 -154 397t-379 158q-226 0 -380 -158t-154 -399q0 -239 154 -403t379 -164q180 0 313 106l-170 166l119 127l166 -168q106 147 106 338zM842 -25q-314 -1 -528 219t-214 535t214 528t528 213t529 -213q214 -213 214 -526q0 -270 -170 -477l172 -164
l-119 -127l-168 168q-195 -156 -458 -156z" />
    <glyph glyph-name="R" unicode="R" horiz-adv-x="1312" 
d="M399 752h291q119 0 188 70t68 192q0 160 -115 223q-61 33 -198 33h-234v-518zM197 0v1446h442q183 0 283 -37t166 -141t65 -244q0 -140 -71 -248q-71 -106 -189 -145v-4q16 -18 43 -66l307 -561h-229l-305 575h-310v-575h-202z" />
    <glyph glyph-name="S" unicode="S" horiz-adv-x="1118" 
d="M569 164q106 0 179 57q72 57 72 165t-140 187q-61 35 -136 67t-150 69t-136 82t-100 115t-39 161q0 170 132 287t335 116q119 0 221 -36t145 -74l43 -35l-92 -168q-44 44 -139 84q-96 41 -194 41t-172 -61t-74 -147t72 -142q72 -57 174 -98q102 -40 206 -90t176 -141
t72 -220q0 -174 -125 -291t-316 -117t-312 63t-165 109l-20 19l115 153q98 -98 248 -139q61 -16 120 -16z" />
    <glyph glyph-name="T" unicode="T" horiz-adv-x="1214" 
d="M506 0v1270h-496v176h1194v-176h-495v-1270h-203z" />
    <glyph glyph-name="U" unicode="U" horiz-adv-x="1490" 
d="M176 512v934h203v-934q0 -164 98 -257t267 -93t269 93q99 93 99 261v930h203v-934q0 -240 -158 -388t-412 -148q-253 0 -411 148t-158 388z" />
    <glyph glyph-name="V" unicode="V" horiz-adv-x="1294" 
d="M547 0l-535 1446h219l359 -1022l55 -199h4q29 121 56 199l362 1022h215l-532 -1446h-203z" />
    <glyph glyph-name="W" unicode="W" horiz-adv-x="1941" 
d="M877 1446h180l282 -1061l31 -154h4q6 76 27 154l266 1061h209l-379 -1446h-235l-250 938l-43 205h-4q-18 -113 -43 -205l-250 -938h-236l-368 1446h208l256 -1061l27 -154h4q10 74 31 154z" />
    <glyph glyph-name="X" unicode="X" horiz-adv-x="1253" 
d="M45 0l457 745l-428 701h233l228 -391l92 -172h4q41 92 88 172l227 391h234l-428 -701l456 -745h-229l-262 444l-92 166h-4q-39 -86 -86 -166l-263 -444h-227z" />
    <glyph glyph-name="Y" unicode="Y" horiz-adv-x="1204" 
d="M502 0v612l-486 834h230l268 -475l88 -183h4q43 100 88 183l264 475h230l-483 -834v-612h-203z" />
    <glyph glyph-name="Z" unicode="Z" horiz-adv-x="1243" 
d="M84 0v135l696 1004q45 66 90 118l15 15v4q-39 -6 -109 -6h-655v176h1016v-133l-697 -1006q-60 -84 -90 -114l-14 -17v-4q39 4 108 4h701v-176h-1061z" />
    <glyph glyph-name="bracketleft" unicode="[" horiz-adv-x="616" 
d="M207 -195v1700h338v-149h-164v-1399h164v-152h-338z" />
    <glyph glyph-name="backslash" unicode="\" horiz-adv-x="827" 
d="M578 -86l-521 1610h176l521 -1610h-176z" />
    <glyph glyph-name="bracketright" unicode="]" horiz-adv-x="618" 
d="M72 -43h166v1399h-166v149h340v-1700h-340v152z" />
    <glyph glyph-name="asciicircum" unicode="^" horiz-adv-x="1255" 
d="M141 506l410 940h129l407 -940h-178l-295 721l-292 -721h-181z" />
    <glyph glyph-name="underscore" unicode="_" horiz-adv-x="1216" 
d="M57 0h1102v-160h-1102v160z" />
    <glyph glyph-name="grave" unicode="`" horiz-adv-x="1021" 
d="M524 1546l-194 260h213l149 -260h-168z" />
    <glyph glyph-name="a" unicode="a" horiz-adv-x="1081" 
d="M272 301q0 -68 52 -117t156 -49q106 -1 185 103t78 227v33h-51q-420 0 -420 -197zM72 291q0 356 624 356h45v19q0 227 -227 227q-72 0 -144 -25t-108 -49l-37 -26l-82 145q52 46 167 84q114 39 220 39q198 -1 304 -105t106 -301v-655h-184v98l4 82h-4q-66 -132 -202 -182
q-60 -23 -130 -23q-143 0 -248 84q-104 85 -104 232z" />
    <glyph glyph-name="b" unicode="b" horiz-adv-x="1228" 
d="M348 532q0 -168 77 -278t210 -109q133 -1 219 99t86 270t-81 271t-210 101t-215 -92q-86 -94 -86 -262zM156 0v1446h198v-473l-4 -88h4l12 18q7 12 35 43q105 112 285 115q207 0 331 -150q124 -149 124 -393t-132 -394t-339 -149q-132 0 -213 63t-101 97l-12 19h-4
q4 -33 4 -78v-76h-188z" />
    <glyph glyph-name="c" unicode="c" horiz-adv-x="1120" 
d="M82 516q0 234 157 389q157 156 398 156q115 0 212 -38t138 -77l39 -37l-94 -139q-12 12 -36 32t-98 54q-74 33 -153 33q-156 -1 -258 -105t-102 -264t103 -266t263 -107q86 0 166 35t117 70l37 35l80 -146q-68 -68 -132 -98q-139 -66 -282 -68q-243 -1 -399 153t-156 388
z" />
    <glyph glyph-name="d" unicode="d" horiz-adv-x="1230" 
d="M883 502q0 168 -77 278t-210 109q-133 1 -219 -99t-86 -270t81 -271t210 -101t215 92q86 94 86 262zM88 519q0 245 131 393t338 149q135 0 213 -56t98 -92l9 -16h4q-4 31 -4 70v479h198v-1446h-188v98l2 70h-4q-12 -24 -43 -63q-103 -128 -305 -129q-201 -2 -325 148
t-124 395z" />
    <glyph glyph-name="e" unicode="e" horiz-adv-x="1136" 
d="M295 639h553q-4 129 -75 197t-181 68t-194 -70q-83 -70 -103 -195zM633 -25q-241 0 -395 155q-154 156 -154 394t146 388t364 149q218 0 338 -137q119 -137 119 -349l-7 -86h-755q8 -165 109 -253t247 -89q80 0 157 31t113 60l37 30l82 -145q-16 -16 -49 -41t-137 -66
t-215 -41z" />
    <glyph glyph-name="f" unicode="f" horiz-adv-x="688" 
d="M211 0v862h-129v160h129v49q0 98 29 171t69 113q104 101 291 101l76 -6v-170q-20 4 -53 4q-145 0 -193 -102q-23 -47 -22 -115v-45h245v-160h-245v-862h-197z" />
    <glyph glyph-name="g" unicode="g" horiz-adv-x="1214" 
d="M571 889q-133 0 -207 -91t-75 -253q0 -161 81 -261t211 -100q131 0 207 84t76 273q0 348 -293 348zM528 -258q151 0 242 71q90 71 90 220v76l2 65h-4q-96 -162 -307 -162t-337 151t-126 380t121 373t332 145q144 0 221 -53t94 -86l10 -15h4q-2 14 -2 33v96h191v-993
q0 -123 -44 -217q-79 -169 -286 -229q-90 -27 -192 -27q-186 0 -355 86l66 156q129 -70 280 -70z" />
    <glyph glyph-name="h" unicode="h" horiz-adv-x="1234" 
d="M156 0v1446h198v-531l-4 -86h4q42 90 142 161t241 71q356 0 357 -397v-664h-199v618q0 125 -41 193t-156 68q-114 0 -204 -72q-137 -110 -140 -322v-485h-198z" />
    <glyph glyph-name="i" unicode="i" horiz-adv-x="509" 
d="M156 0v1036h198v-1036h-198zM154 1243v203h200v-203h-200z" />
    <glyph glyph-name="j" unicode="j" horiz-adv-x="507" 
d="M156 1036h196v-1071q0 -121 -42 -205t-110 -120q-119 -62 -243 -62l-70 4v170q18 -2 68 -2t102 28q99 54 99 199v1059zM154 1243v203h200v-203h-200z" />
    <glyph glyph-name="k" unicode="k" horiz-adv-x="1077" 
d="M156 0v1446h198v-791h146l282 381h226l-344 -456v-5l383 -575h-232l-311 487h-150v-487h-198z" />
    <glyph glyph-name="l" unicode="l" horiz-adv-x="542" 
d="M143 283v1163h199v-1129q0 -87 29 -117t82 -30l34 2v-176q-31 -4 -65 -4q-279 0 -279 291z" />
    <glyph glyph-name="m" unicode="m" horiz-adv-x="1871" 
d="M156 0v1036h192v-137l-4 -76h4q39 96 139 167t218 71q258 0 311 -236h4q45 98 146 167t223 69q342 0 342 -397v-664h-199v621q0 125 -38 193t-144 67q-106 0 -186 -76q-120 -115 -122 -332v-473h-198v621q0 123 -36 191t-144 69q-108 0 -188 -78q-79 -78 -109 -195
q-12 -49 -13 -135v-473h-198z" />
    <glyph glyph-name="n" unicode="n" horiz-adv-x="1234" 
d="M156 0v1036h192v-137l-4 -76h4q41 88 139 163t250 75q356 0 357 -397v-664h-199v618q0 125 -41 193t-157 68q-117 0 -205 -71q-136 -109 -138 -323v-485h-198z" />
    <glyph glyph-name="o" unicode="o" horiz-adv-x="1277" 
d="M283 520q0 -160 104 -266t253 -106t252 104q103 106 103 267t-103 265q-104 104 -252 104t-252 -104t-105 -264zM80 520q0 233 162 387t398 154t396 -154q162 -154 162 -387t-163 -389t-396 -156t-396 156t-163 389z" />
    <glyph glyph-name="p" unicode="p" horiz-adv-x="1228" 
d="M348 532q0 -168 79 -278t210 -109q131 -1 217 99t86 270t-81 271t-210 101t-215 -92q-86 -94 -86 -262zM156 -410v1446h182v-88l-4 -76h4q59 119 212 168q62 20 136 21q207 0 331 -150q124 -149 124 -393t-132 -394t-337 -149q-129 0 -208 59q-80 59 -99 93l-11 18h-4
q4 -37 4 -90v-465h-198z" />
    <glyph glyph-name="q" unicode="q" horiz-adv-x="1230" 
d="M883 502q0 168 -77 278t-210 109q-133 1 -219 -99t-86 -270t81 -271t210 -101t215 92q86 94 86 262zM88 519q0 245 131 393t338 149q132 0 215 -59t102 -97l11 -18h4q-2 31 -2 71v78h188v-1446h-198v473l4 91h-4q-11 -22 -43 -58q-107 -119 -289 -121q-209 -1 -333 149
t-124 395z" />
    <glyph glyph-name="r" unicode="r" horiz-adv-x="768" 
d="M156 0v1036h192v-180l-4 -78h4q37 119 124 195t204 76l51 -5v-196q-27 6 -57 6q-96 0 -176 -66q-140 -116 -140 -364v-424h-198z" />
    <glyph glyph-name="s" unicode="s" horiz-adv-x="917" 
d="M460 147q75 0 126 35t51 90q0 54 -55 94t-133 70t-156 65t-133 103t-56 162q0 137 106 216t269 79q101 0 185 -29t116 -57l33 -29l-80 -149q-34 34 -109 63q-74 29 -146 29t-122 -32q-49 -32 -49 -89t55 -94q56 -37 134 -67q78 -29 156 -65t132 -104q55 -68 56 -162
q0 -131 -104 -216t-271 -85q-113 0 -211 38t-139 77l-43 37l96 141q35 -41 126 -81t166 -40z" />
    <glyph glyph-name="t" unicode="t" horiz-adv-x="733" 
d="M199 379v483h-136v160h142v299h192v-299h250v-160h-250v-461q0 -160 112 -211q50 -22 109 -22l48 4v-176q-29 -4 -74 -4q-183 0 -292 101q-42 40 -72 114q-29 74 -29 172z" />
    <glyph glyph-name="u" unicode="u" horiz-adv-x="1224" 
d="M141 373v663h199v-618q0 -125 40 -192t155 -66q151 0 243 114t92 277v485h199v-1036h-192v137l4 76h-4q-39 -90 -141 -164t-240 -74q-355 1 -355 398z" />
    <glyph glyph-name="v" unicode="v" horiz-adv-x="1028" 
d="M401 0l-387 1036h211l252 -700q9 -25 17 -61t14 -58l4 -22h4l4 22q22 86 33 119l252 700h209l-383 -1036h-230z" />
    <glyph glyph-name="w" unicode="w" horiz-adv-x="1667" 
d="M369 0l-334 1036h211l215 -727l26 -110h5q10 57 26 110l225 725h183l223 -725l29 -110h4q8 57 24 110l217 727h209l-334 -1036h-219l-215 666l-28 112h-5q-12 -59 -28 -112l-213 -666h-221z" />
    <glyph glyph-name="x" unicode="x" horiz-adv-x="1040" 
d="M522 403h-4q-16 -33 -31 -57l-217 -346h-225l352 532l-334 504h228l192 -315l35 -62h4q18 35 35 62l193 315h227l-334 -504l352 -532h-225l-217 346z" />
    <glyph glyph-name="y" unicode="y" horiz-adv-x="1044" 
d="M201 -258q123 0 186 152l51 118l-434 1024h223l260 -678l39 -125h4q16 70 35 123l252 680h215l-485 -1222q-47 -116 -136 -180t-200 -64q-51 0 -101 16t-75 33l-25 14l70 152q57 -43 121 -43z" />
    <glyph glyph-name="z" unicode="z" horiz-adv-x="1058" 
d="M80 0v115l522 655l86 96v4q-33 -4 -100 -4h-486v170h854v-114l-522 -658l-88 -94v-4q35 4 103 4h526v-170h-895z" />
    <glyph glyph-name="braceleft" unicode="{" horiz-adv-x="716" 
d="M274 158v196q0 146 -111 204q-14 7 -63 20v176q22 0 57 16q117 55 117 211v172q0 92 26 161q26 68 62 104q90 90 244 91l47 -2v-151h-28q-53 0 -96 -26q-80 -50 -80 -189v-211q0 -113 -55 -176t-111 -84v-4q102 -34 147 -153q18 -48 19 -107v-236q0 -139 64 -177t112 -38
h28v-152q-18 -4 -51 -4q-147 0 -241 91q-36 36 -61 106q-26 70 -26 162z" />
    <glyph glyph-name="bar" unicode="|" horiz-adv-x="579" 
d="M203 -326v1948h174v-1948h-174z" />
    <glyph glyph-name="braceright" unicode="}" horiz-adv-x="716" 
d="M63 -45h29q52 1 95 27q81 50 81 188v236q0 94 42 158t83 83l41 19v4q-21 7 -53 29q-63 43 -87 108q-25 65 -26 123v211q0 137 -64 176t-112 39h-29v151q17 2 51 2q228 0 303 -195q26 -69 25 -161v-172q0 -150 112 -208q19 -9 62 -19v-176q-19 0 -55 -16q-35 -16 -59 -39
q-59 -55 -60 -169v-196q0 -92 -26 -162t-61 -106q-91 -91 -244 -91l-48 4v152z" />
    <glyph glyph-name="asciitilde" unicode="~" horiz-adv-x="1245" 
d="M137 418q0 174 75 260t212 86q72 0 130 -32t89 -68q85 -100 166 -101q80 -1 112 57t31 136h162q0 -346 -285 -346q-72 0 -130 30t-89 69q-82 101 -174 99q-72 0 -104 -57t-33 -133h-162z" />
    <glyph glyph-name="uni00A0" unicode="&#xa0;" horiz-adv-x="526" 
 />
    <glyph glyph-name="exclamdown" unicode="&#xa1;" horiz-adv-x="591" 
d="M193 -410l14 1049h178l12 -1049h-204zM193 838v198h202v-198h-202z" />
    <glyph glyph-name="cent" unicode="&#xa2;" horiz-adv-x="1179" 
d="M541 -27v177q-199 28 -316 188t-117 386t117 387t316 187v172h145v-172q132 -20 232 -103t153 -214l-180 -70q-90 203 -273 203q-143 0 -225 -110t-82 -283q0 -175 80 -281t227 -106q184 0 273 203l180 -72q-55 -125 -152 -213t-233 -102v-177h-145z" />
    <glyph glyph-name="sterling" unicode="&#xa3;" horiz-adv-x="1210" 
d="M150 653v144h90v278q0 170 126 283t318 112q92 0 177 -32t126 -66l39 -33l-117 -141q-98 88 -216 88q-117 0 -183 -62t-66 -157v-270h377v-144h-377v-477h666v-176h-995v176h125v477h-90z" />
    <glyph glyph-name="yen" unicode="&#xa5;" horiz-adv-x="1243" 
d="M184 711v129h211l-338 606h232l241 -451l88 -209h5q43 113 88 209l243 451h232l-340 -606h209v-129h-277l-55 -99v-75h332v-129h-332v-408h-205v408h-334v129h334v75l-55 99h-279z" />
    <glyph glyph-name="section" unicode="&#xa7;" horiz-adv-x="905" 
d="M376 39q104 0 167 56q61 56 61 159q0 41 -12 92l-135 770h161l144 -799q10 -55 10 -92q0 -156 -104 -254t-281 -98q-79 0 -151 26t-105 52l-33 26l90 138q84 -76 188 -76zM129 1120q0 154 104 252t283 98q78 0 151 -26t105 -51l33 -27l-94 -131q-83 70 -187 70
q-104 1 -166 -53t-61 -154q0 -37 12 -82l140 -789h-164l-144 799q-12 47 -12 94z" />
    <glyph glyph-name="dieresis" unicode="&#xa8;" horiz-adv-x="1021" 
d="M258 1599v207h164v-207h-164zM600 1599v207h164v-207h-164z" />
    <glyph glyph-name="copyright" unicode="&#xa9;" horiz-adv-x="1681" 
d="M449 720q0 169 111 290q112 121 292 120q133 0 213 -65t111 -117l10 -20l-125 -68q-7 14 -23 36t-68 58t-112 35q-118 0 -186 -79q-68 -80 -68 -192t68 -189t186 -76q58 1 110 33t72 63l21 33l125 -68q-12 -24 -46 -66t-69 -68t-94 -48t-125 -21q-180 0 -292 120
q-111 120 -111 289zM260 723q0 -256 167 -432t413 -176t414 176t167 432q0 256 -168 432q-167 176 -413 176t-413 -176t-167 -432zM111 723q0 311 212 529t516 218t518 -218t214 -529t-214 -529t-518 -218t-516 218t-212 529z" />
    <glyph glyph-name="ordfeminine" unicode="&#xaa;" horiz-adv-x="864" 
d="M150 543v116h563v-116h-563zM299 991q-1 -37 27 -63t86 -25q58 0 102 56q43 56 43 126v17h-25q-233 0 -233 -111zM358 782q-74 0 -140 54q-67 54 -66 145q0 225 385 225h20v13q0 129 -131 129q-39 0 -82 -14t-65 -29l-23 -15l-59 101q92 75 233 75q275 -1 275 -258v-411
h-140v94h-4q-6 -13 -19 -31q-14 -18 -62 -48t-122 -30z" />
    <glyph glyph-name="guillemotleft" unicode="&#xab;" horiz-adv-x="1138" 
d="M426 158l-336 420l336 421h199l-336 -421l336 -420h-199zM502 578l336 421h198l-336 -421l336 -420h-198z" />
    <glyph glyph-name="logicalnot" unicode="&#xac;" horiz-adv-x="1257" 
d="M123 696v160h977v-547h-166v387h-811z" />
    <glyph glyph-name="uni00AD" unicode="&#xad;" horiz-adv-x="882" 
d="M143 496v176h598v-176h-598z" />
    <glyph glyph-name="registered" unicode="&#xae;" horiz-adv-x="1681" 
d="M733 745h123q57 0 91 35q34 36 34 96t-34 93t-91 32h-123v-256zM588 340v772h297q111 0 177 -64t66 -159t-43 -149t-98 -68v-4q8 -8 27 -43l147 -285h-160l-143 299h-125v-299h-145zM260 723q0 -256 167 -432t413 -176t414 176t167 432q0 256 -168 432q-167 176 -413 176
t-413 -176t-167 -432zM111 723q0 311 212 529t516 218t518 -218t214 -529t-214 -529t-518 -218t-516 218t-212 529z" />
    <glyph glyph-name="macron" unicode="&#xaf;" horiz-adv-x="1021" 
d="M250 1606v143h522v-143h-522z" />
    <glyph glyph-name="degree" unicode="&#xb0;" 
d="M397 1016q63 0 108 44q44 44 44 107t-44 109q-43 46 -107 45q-64 0 -108 -45q-44 -44 -44 -108t44 -108t107 -44zM397 864q-129 0 -219 88t-90 214t90 215t219 89t220 -89t91 -214t-90 -214q-92 -89 -221 -89z" />
    <glyph glyph-name="plusminus" unicode="&#xb1;" horiz-adv-x="1394" 
d="M188 -195h1018v-159h-1018v159zM156 504v160h458v503h168v-503h457v-160h-457v-504h-168v504h-458z" />
    <glyph glyph-name="twosuperior" unicode="&#xb2;" 
d="M530 1507q0 57 -42 95t-96 38t-97 -24t-64 -49l-20 -25l-100 92q61 92 179 131q48 16 101 17q127 0 211 -75t84 -194q0 -81 -42 -147t-103 -108t-123 -78q-148 -88 -154 -179h436v-135h-598l-6 74q0 96 45 171t109 121t126 86q154 97 154 189z" />
    <glyph glyph-name="threesuperior" unicode="&#xb3;" 
d="M383 846q-92 0 -167 34t-105 66l-29 35l86 109q24 -36 86 -69q63 -34 127 -34t115 45t51 112q0 68 -54 106t-128 38h-70l-33 78l182 211l50 49v4q-39 -6 -74 -6h-289v137h555v-98l-223 -258q102 -14 171 -81q68 -66 68 -184t-91 -206t-228 -88z" />
    <glyph glyph-name="acute" unicode="&#xb4;" horiz-adv-x="1021" 
d="M330 1546l149 260h213l-196 -260h-166z" />
    <glyph glyph-name="mu" unicode="&#xb5;" horiz-adv-x="1267" 
d="M170 -410v1446h199v-618q0 -125 40 -192t152 -66q154 0 246 114t92 277v485h199v-1036h-193v141l4 72h-6q-13 -32 -48 -77q-36 -46 -76 -78q-41 -32 -109 -58t-138 -25t-117 17q-46 16 -63 33l-16 14h-4q14 -100 14 -160v-289h-176z" />
    <glyph glyph-name="mu" unicode="&#x3bc;" horiz-adv-x="1267" 
d="M170 -410v1446h199v-618q0 -125 40 -192t152 -66q154 0 246 114t92 277v485h199v-1036h-193v141l4 72h-6q-13 -32 -48 -77q-36 -46 -76 -78q-41 -32 -109 -58t-138 -25t-117 17q-46 16 -63 33l-16 14h-4q14 -100 14 -160v-289h-176z" />
    <glyph glyph-name="paragraph" unicode="&#xb6;" horiz-adv-x="1208" 
d="M854 -102v1255h152v-1255h-152zM573 -102v596q-199 0 -342 138t-143 339t142 338t341 137h557v-176h-401v-1372h-154z" />
    <glyph glyph-name="periodcentered" unicode="&#xb7;" horiz-adv-x="563" 
d="M180 489v211h203v-211h-203z" />
    <glyph glyph-name="cedilla" unicode="&#xb8;" horiz-adv-x="1021" 
d="M672 -264q0 -76 -60 -118t-135 -42q-74 0 -127 14v119q41 -14 86 -14q98 0 99 63q0 63 -109 64l-37 -2l60 227l100 -20v-17l-25 -112q66 -8 107 -48q41 -38 41 -114z" />
    <glyph glyph-name="onesuperior" unicode="&#xb9;" 
d="M145 866v135h191v510l4 54h-4q-8 -18 -37 -45l-72 -70l-94 100l217 211h139v-760h187v-135h-531z" />
    <glyph glyph-name="ordmasculine" unicode="&#xba;" horiz-adv-x="956" 
d="M160 543v116h639v-116h-639zM476 918q85 0 144 60q58 60 58 151t-58 149t-144 59q-86 0 -143 -58q-59 -57 -59 -149t58 -152t144 -60zM477 786q-147 0 -249 98t-101 244q0 148 101 244q102 96 248 96t248 -96t103 -244t-101 -245t-249 -97z" />
    <glyph glyph-name="guillemotright" unicode="&#xbb;" horiz-adv-x="1140" 
d="M102 158l336 420l-336 421h199l336 -421l-336 -420h-199zM516 158l336 420l-336 421h199l336 -421l-336 -420h-199z" />
    <glyph glyph-name="onequarter" unicode="&#xbc;" horiz-adv-x="1980" 
d="M1335 354h258v252l6 119h-4q-29 -55 -59 -98l-201 -269v-4zM1593 0v219h-426v103l412 573h166v-541h125v-135h-125v-219h-152zM121 551v135h190v510l4 53h-4q-8 -18 -37 -45l-71 -69l-94 100l217 211h139v-760h186v-135h-530zM688 0h-153l688 1446h153z" />
    <glyph glyph-name="onehalf" unicode="&#xbd;" horiz-adv-x="1968" 
d="M1663 641q0 57 -42 95t-96 38q-53 0 -97 -24t-64 -50l-21 -24l-100 92q59 88 179 131q48 16 102 16q127 -1 211 -75t84 -193q0 -81 -42 -147q-41 -66 -103 -108t-124 -79q-147 -88 -153 -178h436v-135h-598l-6 74q0 96 45 171t108 121q62 46 126 86q154 97 155 189z
M121 551v135h190v510l4 53h-4q-8 -18 -37 -45l-71 -69l-94 100l217 211h139v-760h186v-135h-530zM692 0h-153l688 1446h153z" />
    <glyph glyph-name="threequarters" unicode="&#xbe;" horiz-adv-x="2004" 
d="M383 530q-92 0 -167 34t-105 67l-29 35l86 108q24 -36 86 -69q63 -33 127 -33t115 45t51 111t-54 106q-54 39 -128 39h-70l-33 78l182 211l50 49v4q-39 -6 -74 -6h-289v137h555v-98l-223 -258q102 -14 171 -81q68 -67 68 -185t-91 -206t-228 -88zM1360 354h258v252l6 119
h-4q-29 -55 -59 -98l-201 -269v-4zM1618 0v219h-426v103l412 573h165v-541h125v-135h-125v-219h-151zM713 0h-154l688 1446h154z" />
    <glyph glyph-name="questiondown" unicode="&#xbf;" horiz-adv-x="921" 
d="M442 639h193v-88q0 -86 -36 -158t-86 -120t-101 -93q-123 -109 -123 -221q1 -86 67 -145t166 -60q58 0 116 23t87 43l31 22l108 -141q-14 -14 -55 -41q-137 -90 -308 -90t-296 103q-125 104 -125 274t127 290q53 50 107 96q130 111 128 230v76zM438 838v198h203v-198
h-203z" />
    <glyph glyph-name="Agrave" unicode="&#xc0;" horiz-adv-x="1286" 
d="M563 1546l-194 260h213l149 -260h-168zM645 1247h-4q-33 -131 -57 -205l-162 -458h438l-160 458zM1059 0l-146 416h-544l-144 -416h-209l521 1446h213l520 -1446h-211z" />
    <glyph glyph-name="Aacute" unicode="&#xc1;" horiz-adv-x="1286" 
d="M553 1546l149 260h213l-196 -260h-166zM645 1247h-4q-33 -131 -57 -205l-162 -458h438l-160 458zM1059 0l-146 416h-544l-144 -416h-209l521 1446h213l520 -1446h-211z" />
    <glyph glyph-name="Acircumflex" unicode="&#xc2;" horiz-adv-x="1286" 
d="M358 1546l181 260h206l181 -260h-174l-109 164h-4l-107 -164h-174zM645 1247h-4q-33 -131 -57 -205l-162 -458h438l-160 458zM1059 0l-146 416h-544l-144 -416h-209l521 1446h213l520 -1446h-211z" />
    <glyph glyph-name="Atilde" unicode="&#xc3;" horiz-adv-x="1286" 
d="M299 1548q0 260 209 260q59 0 104 -34t82 -70q37 -35 75 -35t57 40t20 93h143q0 -260 -209 -260q-59 0 -104 35t-82 70t-72 34q-80 0 -80 -133h-143zM645 1247h-4q-33 -131 -57 -205l-162 -458h438l-160 458zM1059 0l-146 416h-544l-144 -416h-209l521 1446h213
l520 -1446h-211z" />
    <glyph glyph-name="Adieresis" unicode="&#xc4;" horiz-adv-x="1286" 
d="M391 1599v207h164v-207h-164zM733 1599v207h164v-207h-164zM645 1247h-4q-33 -131 -57 -205l-162 -458h438l-160 458zM1059 0l-146 416h-544l-144 -416h-209l521 1446h213l520 -1446h-211z" />
    <glyph glyph-name="Aring" unicode="&#xc5;" horiz-adv-x="1286" 
d="M642 1606q30 0 49 19t19 50t-18 50q-20 19 -50 19t-48 -18q-18 -20 -18 -51t18 -50t48 -19zM643 1522q-72 0 -123 42t-51 110t51 111q51 42 123 42t123 -42t51 -111q0 -68 -51 -110t-123 -42zM645 1247h-4q-33 -131 -57 -205l-162 -458h438l-160 458zM1059 0l-146 416
h-544l-144 -416h-209l521 1446h213l520 -1446h-211z" />
    <glyph glyph-name="AE" unicode="&#xc6;" horiz-adv-x="1798" 
d="M823 811v459h-94l-184 -459h278zM1663 1446v-176h-639v-453h520v-176h-520v-465h674v-176h-875v643h-346l-258 -643h-211l598 1446h1057z" />
    <glyph glyph-name="Ccedilla" unicode="&#xc7;" horiz-adv-x="1482" 
d="M1004 -264q0 -76 -60 -118t-137 -42q-76 0 -125 14v119q41 -14 86 -14q98 0 98 63t-108 64l-37 -2l41 160q-292 26 -476 238t-184 520t210 520t526 212q198 0 330 -63t175 -109l21 -18l-100 -152q-18 18 -54 44t-144 70q-110 44 -220 44q-238 0 -386 -159t-148 -395
t150 -404q151 -166 386 -166q120 0 232 47t163 94l51 47l109 -145q-9 -7 -23 -23t-65 -53q-198 -144 -443 -154l-16 -77q66 -8 107 -48q41 -38 41 -114z" />
    <glyph glyph-name="Egrave" unicode="&#xc8;" horiz-adv-x="1173" 
d="M559 1546l-194 260h213l149 -260h-168zM197 0v1446h839v-176h-637v-453h519v-176h-519v-465h672v-176h-874z" />
    <glyph glyph-name="Eacute" unicode="&#xc9;" horiz-adv-x="1173" 
d="M551 1546l149 260h213l-196 -260h-166zM197 0v1446h839v-176h-637v-453h519v-176h-519v-465h672v-176h-874z" />
    <glyph glyph-name="Ecircumflex" unicode="&#xca;" horiz-adv-x="1173" 
d="M356 1546l181 260h206l181 -260h-174l-109 164h-4l-107 -164h-174zM197 0v1446h839v-176h-637v-453h519v-176h-519v-465h672v-176h-874z" />
    <glyph glyph-name="Edieresis" unicode="&#xcb;" horiz-adv-x="1173" 
d="M387 1599v207h164v-207h-164zM729 1599v207h164v-207h-164zM197 0v1446h839v-176h-637v-453h519v-176h-519v-465h672v-176h-874z" />
    <glyph glyph-name="Igrave" unicode="&#xcc;" horiz-adv-x="595" 
d="M219 1546l-194 260h213l149 -260h-168zM197 0v1446h202v-1446h-202z" />
    <glyph glyph-name="Iacute" unicode="&#xcd;" horiz-adv-x="595" 
d="M211 1546l149 260h213l-196 -260h-166zM197 0v1446h202v-1446h-202z" />
    <glyph glyph-name="Icircumflex" unicode="&#xce;" horiz-adv-x="595" 
d="M14 1546l181 260h206l181 -260h-174l-109 164h-4l-107 -164h-174zM197 0v1446h202v-1446h-202z" />
    <glyph glyph-name="Idieresis" unicode="&#xcf;" horiz-adv-x="595" 
d="M47 1599v207h164v-207h-164zM389 1599v207h164v-207h-164zM197 0v1446h202v-1446h-202z" />
    <glyph glyph-name="Eth" unicode="&#xd0;" horiz-adv-x="1554" 
d="M438 176h262q248 0 394 143q145 143 145 405t-145 403q-145 142 -394 143h-262v-463h305v-168h-305v-463zM236 0v639h-121v168h121v639h479q337 0 535 -192t198 -530q0 -340 -199 -532t-534 -192h-479z" />
    <glyph glyph-name="Ntilde" unicode="&#xd1;" horiz-adv-x="1550" 
d="M430 1548q0 260 209 260q59 0 104 -34t82 -70q37 -35 75 -35t57 40t20 93h143q0 -260 -209 -260q-59 0 -104 35t-82 70t-72 34q-80 0 -80 -133h-143zM197 0v1446h200l643 -940q48 -68 103 -174l18 -35h4q-14 129 -14 209v940h203v-1446h-199l-645 938q-41 57 -102 176
l-19 35h-4q14 -129 14 -211v-938h-202z" />
    <glyph glyph-name="Ograve" unicode="&#xd2;" horiz-adv-x="1681" 
d="M762 1546l-195 260h213l150 -260h-168zM842 1286q-223 0 -379 -158t-156 -398t156 -404t379 -164t378 165q154 165 154 403t-154 398q-154 158 -378 158zM98 729q0 315 215 528t529 213t527 -213q214 -213 214 -528t-214 -534t-527 -219q-312 0 -528 218
q-216 220 -216 535z" />
    <glyph glyph-name="Oacute" unicode="&#xd3;" horiz-adv-x="1681" 
d="M754 1546l149 260h213l-196 -260h-166zM842 1286q-223 0 -379 -158t-156 -398t156 -404t379 -164t378 165q154 165 154 403t-154 398q-154 158 -378 158zM98 729q0 315 215 528t529 213t527 -213q214 -213 214 -528t-214 -534t-527 -219q-312 0 -528 218
q-216 220 -216 535z" />
    <glyph glyph-name="Ocircumflex" unicode="&#xd4;" horiz-adv-x="1681" 
d="M557 1546l180 260h207l180 -260h-174l-108 164h-4l-107 -164h-174zM842 1286q-223 0 -379 -158t-156 -398t156 -404t379 -164t378 165q154 165 154 403t-154 398q-154 158 -378 158zM98 729q0 315 215 528t529 213t527 -213q214 -213 214 -528t-214 -534t-527 -219
q-312 0 -528 218q-216 220 -216 535z" />
    <glyph glyph-name="Otilde" unicode="&#xd5;" horiz-adv-x="1681" 
d="M498 1548q0 260 209 260q59 0 104 -34t82 -70q37 -35 75 -35t57 40t19 93h144q0 -260 -209 -260q-59 0 -105 35t-82 70t-71 34q-80 0 -80 -133h-143zM842 1286q-223 0 -379 -158t-156 -398t156 -404t379 -164t378 165q154 165 154 403t-154 398q-154 158 -378 158z
M98 729q0 315 215 528t529 213t527 -213q214 -213 214 -528t-214 -534t-527 -219q-312 0 -528 218q-216 220 -216 535z" />
    <glyph glyph-name="Odieresis" unicode="&#xd6;" horiz-adv-x="1681" 
d="M590 1599v207h164v-207h-164zM932 1599v207h164v-207h-164zM842 1286q-223 0 -379 -158t-156 -398t156 -404t379 -164t378 165q154 165 154 403t-154 398q-154 158 -378 158zM98 729q0 315 215 528t529 213t527 -213q214 -213 214 -528t-214 -534t-527 -219
q-312 0 -528 218q-216 220 -216 535z" />
    <glyph glyph-name="multiply" unicode="&#xd7;" horiz-adv-x="1320" 
d="M129 113l422 471l-422 471l113 112l417 -467l420 467l113 -112l-424 -471l424 -471l-113 -113l-420 465l-417 -465z" />
    <glyph glyph-name="Oslash" unicode="&#xd8;" horiz-adv-x="1687" 
d="M846 1286q-223 0 -379 -158t-156 -400q0 -241 160 -406l641 890q-121 74 -266 74zM846 162q224 0 378 164t154 410q0 245 -168 403l-643 -897q125 -80 279 -80zM102 733q0 311 215 524t529 213q205 0 379 -100l94 129l100 -69l-94 -132q123 -102 193 -248t69 -317
q0 -319 -214 -538t-527 -220q-217 0 -393 109l-97 -135l-102 69l100 142q-120 104 -186 252t-66 321z" />
    <glyph glyph-name="Ugrave" unicode="&#xd9;" horiz-adv-x="1490" 
d="M666 1546l-195 260h213l150 -260h-168zM176 512v934h203v-934q0 -164 98 -257t267 -93t269 93q99 93 99 261v930h203v-934q0 -240 -158 -388t-412 -148q-253 0 -411 148t-158 388z" />
    <glyph glyph-name="Uacute" unicode="&#xda;" horiz-adv-x="1490" 
d="M655 1546l150 260h213l-197 -260h-166zM176 512v934h203v-934q0 -164 98 -257t267 -93t269 93q99 93 99 261v930h203v-934q0 -240 -158 -388t-412 -148q-253 0 -411 148t-158 388z" />
    <glyph glyph-name="Ucircumflex" unicode="&#xdb;" horiz-adv-x="1490" 
d="M461 1546l180 260h207l180 -260h-174l-109 164h-4l-106 -164h-174zM176 512v934h203v-934q0 -164 98 -257t267 -93t269 93q99 93 99 261v930h203v-934q0 -240 -158 -388t-412 -148q-253 0 -411 148t-158 388z" />
    <glyph glyph-name="Udieresis" unicode="&#xdc;" horiz-adv-x="1490" 
d="M494 1599v207h163v-207h-163zM836 1599v207h163v-207h-163zM176 512v934h203v-934q0 -164 98 -257t267 -93t269 93q99 93 99 261v930h203v-934q0 -240 -158 -388t-412 -148q-253 0 -411 148t-158 388z" />
    <glyph glyph-name="Yacute" unicode="&#xdd;" horiz-adv-x="1204" 
d="M514 1546l150 260h213l-197 -260h-166zM502 0v612l-486 834h230l268 -475l88 -183h4q43 100 88 183l264 475h230l-483 -834v-612h-203z" />
    <glyph glyph-name="Thorn" unicode="&#xde;" horiz-adv-x="1243" 
d="M397 465h295q131 0 206 76t75 206q0 129 -75 203t-204 74h-297v-559zM197 0v1446h200v-246h328q201 0 327 -124t126 -328t-127 -332q-127 -127 -328 -127h-326v-289h-200z" />
    <glyph glyph-name="germandbls" unicode="&#xdf;" horiz-adv-x="1204" 
d="M156 0v1085q0 181 131 283t305 102t285 -95t110 -234q0 -68 -32 -126q-33 -58 -71 -93q-102 -93 -102 -156t130 -152q54 -37 108 -78q53 -42 91 -104t38 -135q0 -147 -102 -229t-248 -82q-84 0 -157 15t-103 30l-31 14v176q115 -63 266 -63q74 0 123 37t49 101t-57 118
t-126 95q-69 39 -126 105t-57 132q0 110 104 208t102 185q0 67 -51 113t-146 46t-165 -59t-70 -168v-1071h-198z" />
    <glyph glyph-name="agrave" unicode="&#xe0;" horiz-adv-x="1081" 
d="M459 1186l-195 260h213l150 -260h-168zM272 301q0 -68 52 -117t156 -49q106 -1 185 103t78 227v33h-51q-420 0 -420 -197zM72 291q0 356 624 356h45v19q0 227 -227 227q-72 0 -144 -25t-108 -49l-37 -26l-82 145q52 46 167 84q114 39 220 39q198 -1 304 -105t106 -301
v-655h-184v98l4 82h-4q-66 -132 -202 -182q-60 -23 -130 -23q-143 0 -248 84q-104 85 -104 232z" />
    <glyph glyph-name="aacute" unicode="&#xe1;" horiz-adv-x="1081" 
d="M446 1186l150 260h213l-197 -260h-166zM272 301q0 -68 52 -117t156 -49q106 -1 185 103t78 227v33h-51q-420 0 -420 -197zM72 291q0 356 624 356h45v19q0 227 -227 227q-72 0 -144 -25t-108 -49l-37 -26l-82 145q52 46 167 84q114 39 220 39q198 -1 304 -105t106 -301
v-655h-184v98l4 82h-4q-66 -132 -202 -182q-60 -23 -130 -23q-143 0 -248 84q-104 85 -104 232z" />
    <glyph glyph-name="acircumflex" unicode="&#xe2;" horiz-adv-x="1081" 
d="M252 1186l180 260h207l180 -260h-174l-108 164h-5l-106 -164h-174zM272 301q0 -68 52 -117t156 -49q106 -1 185 103t78 227v33h-51q-420 0 -420 -197zM72 291q0 356 624 356h45v19q0 227 -227 227q-72 0 -144 -25t-108 -49l-37 -26l-82 145q52 46 167 84q114 39 220 39
q198 -1 304 -105t106 -301v-655h-184v98l4 82h-4q-66 -132 -202 -182q-60 -23 -130 -23q-143 0 -248 84q-104 85 -104 232z" />
    <glyph glyph-name="atilde" unicode="&#xe3;" horiz-adv-x="1081" 
d="M193 1188q0 260 208 260q59 0 105 -35t82 -70t74 -35t58 41q19 40 19 93h144q0 -260 -209 -260q-58 0 -104 35t-83 69t-71 35q-80 0 -80 -133h-143zM272 301q0 -68 52 -117t156 -49q106 -1 185 103t78 227v33h-51q-420 0 -420 -197zM72 291q0 356 624 356h45v19
q0 227 -227 227q-72 0 -144 -25t-108 -49l-37 -26l-82 145q52 46 167 84q114 39 220 39q198 -1 304 -105t106 -301v-655h-184v98l4 82h-4q-66 -132 -202 -182q-60 -23 -130 -23q-143 0 -248 84q-104 85 -104 232z" />
    <glyph glyph-name="adieresis" unicode="&#xe4;" horiz-adv-x="1081" 
d="M285 1239v207h164v-207h-164zM627 1239v207h164v-207h-164zM272 301q0 -68 52 -117t156 -49q106 -1 185 103t78 227v33h-51q-420 0 -420 -197zM72 291q0 356 624 356h45v19q0 227 -227 227q-72 0 -144 -25t-108 -49l-37 -26l-82 145q52 46 167 84q114 39 220 39
q198 -1 304 -105t106 -301v-655h-184v98l4 82h-4q-66 -132 -202 -182q-60 -23 -130 -23q-143 0 -248 84q-104 85 -104 232z" />
    <glyph glyph-name="aring" unicode="&#xe5;" horiz-adv-x="1081" 
d="M536 1384q-30 0 -48 -19t-19 -50q1 -31 19 -51t48 -19q30 -1 49 19t19 51t-19 50t-49 19zM537 1161q-72 0 -123 42q-52 42 -52 111q0 68 52 110t123 42q73 0 123 -42t50 -110t-50 -111q-51 -42 -123 -42zM272 301q0 -68 52 -117t156 -49q106 -1 185 103t78 227v33h-51
q-420 0 -420 -197zM72 291q0 356 624 356h45v19q0 227 -227 227q-72 0 -144 -25t-108 -49l-37 -26l-82 145q52 46 167 84q114 39 220 39q198 -1 304 -105t106 -301v-655h-184v98l4 82h-4q-66 -132 -202 -182q-60 -23 -130 -23q-143 0 -248 84q-104 85 -104 232z" />
    <glyph glyph-name="ae" unicode="&#xe6;" horiz-adv-x="1769" 
d="M276 301q0 -70 50 -118t158 -48q108 -1 185 103t76 229v31h-96q-373 0 -373 -197zM944 647h539q-4 125 -74 191q-69 66 -179 66t-188 -66q-78 -64 -98 -191zM74 291q0 92 45 161q45 68 109 104q164 90 464 91h51v19q0 227 -233 227q-70 0 -140 -25t-108 -49l-37 -26
l-80 145q5 4 17 13q82 64 232 97q65 13 130 13q260 0 344 -182h4q123 182 379 182q203 0 318 -142t114 -362l-4 -59h-743q8 -170 103 -260t241 -91q80 0 157 30t113 61l37 28l82 -143q-16 -16 -49 -41t-137 -66q-103 -41 -235 -41t-247 69t-178 192h-4q-22 -64 -100 -149
q-45 -48 -121 -80t-170 -32q-150 -1 -252 85t-102 231z" />
    <glyph glyph-name="ccedilla" unicode="&#xe7;" horiz-adv-x="1122" 
d="M795 -264q-1 -76 -61 -118t-136 -42t-125 14v119q41 -14 86 -14q98 0 98 63t-108 64l-37 -2l41 162q-209 29 -339 176t-130 369t157 378t398 156q115 0 212 -38t136 -77l41 -37l-94 -139q-12 12 -36 32t-98 54q-74 33 -153 33q-156 -1 -258 -105t-102 -264t103 -266
t263 -107q86 0 166 35t117 70l37 35l80 -146q-101 -101 -251 -144q-67 -19 -138 -22l-17 -77q66 -8 107 -48q41 -38 41 -114z" />
    <glyph glyph-name="egrave" unicode="&#xe8;" horiz-adv-x="1136" 
d="M524 1186l-194 260h213l149 -260h-168zM295 639h553q-4 129 -75 197t-181 68t-194 -70q-83 -70 -103 -195zM633 -25q-241 0 -395 155q-154 156 -154 394t146 388t364 149q218 0 338 -137q119 -137 119 -349l-7 -86h-755q8 -165 109 -253t247 -89q80 0 157 31t113 60
l37 30l82 -145q-16 -16 -49 -41t-137 -66t-215 -41z" />
    <glyph glyph-name="eacute" unicode="&#xe9;" horiz-adv-x="1136" 
d="M514 1186l150 260h213l-197 -260h-166zM295 639h553q-4 129 -75 197t-181 68t-194 -70q-83 -70 -103 -195zM633 -25q-241 0 -395 155q-154 156 -154 394t146 388t364 149q218 0 338 -137q119 -137 119 -349l-7 -86h-755q8 -165 109 -253t247 -89q80 0 157 31t113 60
l37 30l82 -145q-16 -16 -49 -41t-137 -66t-215 -41z" />
    <glyph glyph-name="ecircumflex" unicode="&#xea;" horiz-adv-x="1136" 
d="M317 1186l181 260h207l180 -260h-174l-109 164h-4l-106 -164h-175zM295 639h553q-4 129 -75 197t-181 68t-194 -70q-83 -70 -103 -195zM633 -25q-241 0 -395 155q-154 156 -154 394t146 388t364 149q218 0 338 -137q119 -137 119 -349l-7 -86h-755q8 -165 109 -253
t247 -89q80 0 157 31t113 60l37 30l82 -145q-16 -16 -49 -41t-137 -66t-215 -41z" />
    <glyph glyph-name="edieresis" unicode="&#xeb;" horiz-adv-x="1136" 
d="M350 1239v207h164v-207h-164zM692 1239v207h164v-207h-164zM295 639h553q-4 129 -75 197t-181 68t-194 -70q-83 -70 -103 -195zM633 -25q-241 0 -395 155q-154 156 -154 394t146 388t364 149q218 0 338 -137q119 -137 119 -349l-7 -86h-755q8 -165 109 -253t247 -89
q80 0 157 31t113 60l37 30l82 -145q-16 -16 -49 -41t-137 -66t-215 -41z" />
    <glyph glyph-name="igrave" unicode="&#xec;" horiz-adv-x="509" 
d="M156 0v1036h198v-1036h-198zM176 1186l-194 260h213l149 -260h-168z" />
    <glyph glyph-name="iacute" unicode="&#xed;" horiz-adv-x="509" 
d="M156 0v1036h198v-1036h-198zM168 1186l149 260h213l-196 -260h-166z" />
    <glyph glyph-name="icircumflex" unicode="&#xee;" horiz-adv-x="509" 
d="M-27 1186l181 260h206l181 -260h-174l-109 164h-4l-107 -164h-174zM156 0v1036h198v-1036h-198z" />
    <glyph glyph-name="idieresis" unicode="&#xef;" horiz-adv-x="509" 
d="M156 0v1036h198v-1036h-198zM4 1239v207h164v-207h-164zM346 1239v207h164v-207h-164z" />
    <glyph glyph-name="eth" unicode="&#xf0;" horiz-adv-x="1206" 
d="M592 795q-140 1 -222 -93t-81 -227q0 -133 77 -230t212 -98q80 0 142 34t98 91q71 112 72 243q1 130 -78 205q-80 75 -220 75zM88 475q0 199 130 339t355 140q75 0 137 -22t89 -43l26 -21h4q-61 164 -223 273l-370 -164l-21 127l254 113q-125 63 -264 94l55 162
q238 -53 424 -164l285 125l18 -125l-188 -86q295 -246 295 -660q0 -221 -119 -396q-59 -87 -163 -139t-239 -53q-223 1 -354 151t-131 349z" />
    <glyph glyph-name="ntilde" unicode="&#xf1;" horiz-adv-x="1234" 
d="M297 1188q0 260 209 260q59 0 104 -35t82 -70t75 -35t57 41q19 40 20 93h143q0 -260 -209 -260q-59 0 -104 35t-82 69t-72 35q-80 0 -80 -133h-143zM156 0v1036h192v-137l-4 -76h4q41 88 139 163t250 75q356 0 357 -397v-664h-199v618q0 125 -41 193t-157 68
q-117 0 -205 -71q-136 -109 -138 -323v-485h-198z" />
    <glyph glyph-name="ograve" unicode="&#xf2;" horiz-adv-x="1277" 
d="M559 1186l-194 260h213l149 -260h-168zM283 520q0 -160 104 -266t253 -106t252 104q103 106 103 267t-103 265q-104 104 -252 104t-252 -104t-105 -264zM80 520q0 233 162 387t398 154t396 -154q162 -154 162 -387t-163 -389t-396 -156t-396 156t-163 389z" />
    <glyph glyph-name="oacute" unicode="&#xf3;" horiz-adv-x="1277" 
d="M551 1186l149 260h213l-196 -260h-166zM283 520q0 -160 104 -266t253 -106t252 104q103 106 103 267t-103 265q-104 104 -252 104t-252 -104t-105 -264zM80 520q0 233 162 387t398 154t396 -154q162 -154 162 -387t-163 -389t-396 -156t-396 156t-163 389z" />
    <glyph glyph-name="ocircumflex" unicode="&#xf4;" horiz-adv-x="1277" 
d="M356 1186l181 260h206l181 -260h-174l-109 164h-4l-107 -164h-174zM283 520q0 -160 104 -266t253 -106t252 104q103 106 103 267t-103 265q-104 104 -252 104t-252 -104t-105 -264zM80 520q0 233 162 387t398 154t396 -154q162 -154 162 -387t-163 -389t-396 -156
t-396 156t-163 389z" />
    <glyph glyph-name="otilde" unicode="&#xf5;" horiz-adv-x="1277" 
d="M295 1188q0 260 209 260q59 0 104 -35t82 -70t75 -35t57 41q19 40 20 93h143q0 -260 -209 -260q-59 0 -104 35t-82 69t-72 35q-80 0 -80 -133h-143zM283 520q0 -160 104 -266t253 -106t252 104q103 106 103 267t-103 265q-104 104 -252 104t-252 -104t-105 -264zM80 520
q0 233 162 387t398 154t396 -154q162 -154 162 -387t-163 -389t-396 -156t-396 156t-163 389z" />
    <glyph glyph-name="odieresis" unicode="&#xf6;" horiz-adv-x="1277" 
d="M387 1239v207h164v-207h-164zM729 1239v207h164v-207h-164zM283 520q0 -160 104 -266t253 -106t252 104q103 106 103 267t-103 265q-104 104 -252 104t-252 -104t-105 -264zM80 520q0 233 162 387t398 154t396 -154q162 -154 162 -387t-163 -389t-396 -156t-396 156
t-163 389z" />
    <glyph glyph-name="divide" unicode="&#xf7;" horiz-adv-x="1300" 
d="M553 90v186h192v-186h-192zM133 504v160h1034v-160h-1034zM553 891v186h192v-186h-192z" />
    <glyph glyph-name="oslash" unicode="&#xf8;" horiz-adv-x="1277" 
d="M639 147q150 -1 253 105t103 260t-92 258l-420 -588q74 -35 156 -35zM283 520q0 -160 102 -266l426 592q-82 43 -172 43q-147 -1 -251 -105t-105 -264zM80 506q0 248 162 401q162 154 397 154q147 0 276 -68l82 113l97 -70l-80 -110q184 -158 184 -398t-163 -397
q-163 -156 -396 -156q-137 0 -262 60l-80 -113l-98 72l75 106q-194 158 -194 406z" />
    <glyph glyph-name="ugrave" unicode="&#xf9;" horiz-adv-x="1224" 
d="M526 1186l-194 260h213l149 -260h-168zM141 373v663h199v-618q0 -125 40 -192t155 -66q151 0 243 114t92 277v485h199v-1036h-192v137l4 76h-4q-39 -90 -141 -164t-240 -74q-355 1 -355 398z" />
    <glyph glyph-name="uacute" unicode="&#xfa;" horiz-adv-x="1224" 
d="M516 1186l150 260h213l-197 -260h-166zM141 373v663h199v-618q0 -125 40 -192t155 -66q151 0 243 114t92 277v485h199v-1036h-192v137l4 76h-4q-39 -90 -141 -164t-240 -74q-355 1 -355 398z" />
    <glyph glyph-name="ucircumflex" unicode="&#xfb;" horiz-adv-x="1224" 
d="M322 1186l180 260h207l180 -260h-174l-109 164h-4l-106 -164h-174zM141 373v663h199v-618q0 -125 40 -192t155 -66q151 0 243 114t92 277v485h199v-1036h-192v137l4 76h-4q-39 -90 -141 -164t-240 -74q-355 1 -355 398z" />
    <glyph glyph-name="udieresis" unicode="&#xfc;" horiz-adv-x="1224" 
d="M354 1239v207h164v-207h-164zM696 1239v207h164v-207h-164zM141 373v663h199v-618q0 -125 40 -192t155 -66q151 0 243 114t92 277v485h199v-1036h-192v137l4 76h-4q-39 -90 -141 -164t-240 -74q-355 1 -355 398z" />
    <glyph glyph-name="yacute" unicode="&#xfd;" horiz-adv-x="1044" 
d="M440 1186l150 260h213l-197 -260h-166zM201 -258q123 0 186 152l51 118l-434 1024h223l260 -678l39 -125h4q16 70 35 123l252 680h215l-485 -1222q-47 -116 -136 -180t-200 -64q-51 0 -101 16t-75 33l-25 14l70 152q57 -43 121 -43z" />
    <glyph glyph-name="thorn" unicode="&#xfe;" horiz-adv-x="1228" 
d="M348 529q0 -175 81 -278t212 -103t215 102t84 267t-80 268t-210 103t-216 -92t-86 -267zM156 -410v1856h198v-471l-2 -86h4q2 2 19 22q120 150 318 150t324 -152q126 -151 126 -391t-130 -392t-337 -151q-135 0 -213 58t-98 94l-11 18h-4q4 -37 4 -90v-465h-198z" />
    <glyph glyph-name="ydieresis" unicode="&#xff;" horiz-adv-x="1044" 
d="M276 1239v207h164v-207h-164zM618 1239v207h164v-207h-164zM201 -258q123 0 186 152l51 118l-434 1024h223l260 -678l39 -125h4q16 70 35 123l252 680h215l-485 -1222q-47 -116 -136 -180t-200 -64q-51 0 -101 16t-75 33l-25 14l70 152q57 -43 121 -43z" />
    <glyph glyph-name="Amacron" unicode="&#x100;" horiz-adv-x="1286" 
d="M383 1606v143h522v-143h-522zM645 1247h-4q-33 -131 -57 -205l-162 -458h438l-160 458zM1059 0l-146 416h-544l-144 -416h-209l521 1446h213l520 -1446h-211z" />
    <glyph glyph-name="amacron" unicode="&#x101;" horiz-adv-x="1081" 
d="M276 1245v144h523v-144h-523zM272 301q0 -68 52 -117t156 -49q106 -1 185 103t78 227v33h-51q-420 0 -420 -197zM72 291q0 356 624 356h45v19q0 227 -227 227q-72 0 -144 -25t-108 -49l-37 -26l-82 145q52 46 167 84q114 39 220 39q198 -1 304 -105t106 -301v-655h-184
v98l4 82h-4q-66 -132 -202 -182q-60 -23 -130 -23q-143 0 -248 84q-104 85 -104 232z" />
    <glyph glyph-name="Abreve" unicode="&#x102;" horiz-adv-x="1286" 
d="M911 1778q-1 -112 -79 -176t-190 -64t-190 64t-79 176v28h147v-26q0 -61 36 -92t86 -31t86 32t36 93v24h147v-28zM645 1247h-4q-33 -131 -57 -205l-162 -458h438l-160 458zM1059 0l-146 416h-544l-144 -416h-209l521 1446h213l520 -1446h-211z" />
    <glyph glyph-name="abreve" unicode="&#x103;" horiz-adv-x="1081" 
d="M805 1417q-1 -113 -79 -176t-190 -63t-191 63t-79 176v29h148v-27q0 -61 36 -92t86 -31t86 32t35 93v25h148v-29zM272 301q0 -68 52 -117t156 -49q106 -1 185 103t78 227v33h-51q-420 0 -420 -197zM72 291q0 356 624 356h45v19q0 227 -227 227q-72 0 -144 -25t-108 -49
l-37 -26l-82 145q52 46 167 84q114 39 220 39q198 -1 304 -105t106 -301v-655h-184v98l4 82h-4q-66 -132 -202 -182q-60 -23 -130 -23q-143 0 -248 84q-104 85 -104 232z" />
    <glyph glyph-name="Aogonek" unicode="&#x104;" horiz-adv-x="1286" 
d="M645 1247h-4q-33 -131 -57 -205l-162 -458h438l-160 458zM1139 -182q1 -35 29 -57t57 -27l26 -4l-47 -154q-19 0 -71 15q-51 15 -83 35t-58 58t-25 87q0 113 141 225v4h-49l-146 416h-544l-144 -416h-209l521 1446h213l520 -1446q-131 -111 -131 -182z" />
    <glyph glyph-name="aogonek" unicode="&#x105;" horiz-adv-x="1081" 
d="M272 301q0 -68 52 -117t156 -49q106 -1 185 103t78 227v33h-51q-420 0 -420 -197zM637 -229q0 106 119 206v121l4 82h-4q-66 -132 -202 -182q-60 -23 -130 -23q-143 0 -248 84q-104 84 -104 232q0 356 624 356h45v19q0 227 -227 227q-72 0 -144 -25t-108 -49l-37 -26
l-82 145q52 46 167 84q114 39 220 39q198 -1 304 -105t106 -301v-655q-131 -111 -131 -182q0 -35 28 -57t56 -27l29 -4l-48 -154q-19 0 -71 15q-51 15 -83 35t-58 58t-25 87z" />
    <glyph glyph-name="Cacute" unicode="&#x106;" horiz-adv-x="1478" 
d="M729 1546l150 260h213l-197 -260h-166zM838 -25q-322 0 -531 217q-209 218 -209 536t210 530t526 212q199 0 331 -63q131 -63 174 -109l21 -18l-100 -152q-18 18 -54 44t-144 70q-110 44 -220 44q-238 0 -386 -159t-148 -395t150 -404q151 -166 386 -166q120 0 232 47
t163 94l51 47l109 -145q-24 -30 -86 -75q-61 -44 -121 -75t-156 -55t-198 -25z" />
    <glyph glyph-name="cacute" unicode="&#x107;" horiz-adv-x="1120" 
d="M510 1186l149 260h213l-196 -260h-166zM82 516q0 234 157 389q157 156 398 156q115 0 212 -38t138 -77l39 -37l-94 -139q-12 12 -36 32t-98 54q-74 33 -153 33q-156 -1 -258 -105t-102 -264t103 -266t263 -107q86 0 166 35t117 70l37 35l80 -146q-68 -68 -132 -98
q-139 -66 -282 -68q-243 -1 -399 153t-156 388z" />
    <glyph glyph-name="Ccircumflex" unicode="&#x108;" horiz-adv-x="1478" 
d="M535 1546l180 260h207l180 -260h-174l-109 164h-4l-106 -164h-174zM838 -25q-322 0 -531 217q-209 218 -209 536t210 530t526 212q199 0 331 -63q131 -63 174 -109l21 -18l-100 -152q-18 18 -54 44t-144 70q-110 44 -220 44q-238 0 -386 -159t-148 -395t150 -404
q151 -166 386 -166q120 0 232 47t163 94l51 47l109 -145q-24 -30 -86 -75q-61 -44 -121 -75t-156 -55t-198 -25z" />
    <glyph glyph-name="ccircumflex" unicode="&#x109;" horiz-adv-x="1120" 
d="M315 1186l181 260h206l181 -260h-174l-109 164h-4l-107 -164h-174zM82 516q0 234 157 389q157 156 398 156q115 0 212 -38t138 -77l39 -37l-94 -139q-12 12 -36 32t-98 54q-74 33 -153 33q-156 -1 -258 -105t-102 -264t103 -266t263 -107q86 0 166 35t117 70l37 35
l80 -146q-68 -68 -132 -98q-139 -66 -282 -68q-243 -1 -399 153t-156 388z" />
    <glyph glyph-name="Cdotaccent" unicode="&#x10a;" horiz-adv-x="1478" 
d="M729 1606v200h178v-200h-178zM838 -25q-322 0 -531 217q-209 218 -209 536t210 530t526 212q199 0 331 -63q131 -63 174 -109l21 -18l-100 -152q-18 18 -54 44t-144 70q-110 44 -220 44q-238 0 -386 -159t-148 -395t150 -404q151 -166 386 -166q120 0 232 47t163 94
l51 47l109 -145q-24 -30 -86 -75q-61 -44 -121 -75t-156 -55t-198 -25z" />
    <glyph glyph-name="cdotaccent" unicode="&#x10b;" horiz-adv-x="1120" 
d="M510 1245v201h178v-201h-178zM82 516q0 234 157 389q157 156 398 156q115 0 212 -38t138 -77l39 -37l-94 -139q-12 12 -36 32t-98 54q-74 33 -153 33q-156 -1 -258 -105t-102 -264t103 -266t263 -107q86 0 166 35t117 70l37 35l80 -146q-68 -68 -132 -98
q-139 -66 -282 -68q-243 -1 -399 153t-156 388z" />
    <glyph glyph-name="Ccaron" unicode="&#x10c;" horiz-adv-x="1478" 
d="M715 1546l-180 260h174l106 -166h4l109 166h174l-180 -260h-207zM838 -25q-322 0 -531 217q-209 218 -209 536t210 530t526 212q199 0 331 -63q131 -63 174 -109l21 -18l-100 -152q-18 18 -54 44t-144 70q-110 44 -220 44q-238 0 -386 -159t-148 -395t150 -404
q151 -166 386 -166q120 0 232 47t163 94l51 47l109 -145q-24 -30 -86 -75q-61 -44 -121 -75t-156 -55t-198 -25z" />
    <glyph glyph-name="ccaron" unicode="&#x10d;" horiz-adv-x="1120" 
d="M496 1186l-181 260h174l107 -166h4l109 166h174l-181 -260h-206zM82 516q0 234 157 389q157 156 398 156q115 0 212 -38t138 -77l39 -37l-94 -139q-12 12 -36 32t-98 54q-74 33 -153 33q-156 -1 -258 -105t-102 -264t103 -266t263 -107q86 0 166 35t117 70l37 35l80 -146
q-68 -68 -132 -98q-139 -66 -282 -68q-243 -1 -399 153t-156 388z" />
    <glyph glyph-name="Dcaron" unicode="&#x10e;" horiz-adv-x="1515" 
d="M602 1546l-180 260h174l106 -166h5l108 166h174l-180 -260h-207zM399 176h263q248 0 393 143t145 405t-145 403q-145 142 -393 143h-263v-1094zM197 0v1446h479q336 0 534 -192t199 -530q0 -340 -199 -532t-534 -192h-479z" />
    <glyph glyph-name="dcaron" unicode="&#x10f;" horiz-adv-x="1292" 
d="M1382 1324q0 -67 -51 -175h-151q39 111 39 173t-25 124h174q14 -55 14 -122zM883 502q0 168 -77 278t-210 109q-133 1 -219 -99t-86 -270t81 -271t210 -101t215 92q86 94 86 262zM88 519q0 245 131 393t338 149q135 0 213 -56t98 -92l9 -16h4q-4 31 -4 70v479h198v-1446
h-188v98l2 70h-4q-12 -24 -43 -63q-103 -128 -305 -129q-201 -2 -325 148t-124 395z" />
    <glyph glyph-name="Dcroat" unicode="&#x110;" horiz-adv-x="1554" 
d="M438 176h262q248 0 394 143q145 143 145 405t-145 403q-145 142 -394 143h-262v-463h305v-168h-305v-463zM236 0v639h-121v168h121v639h479q337 0 535 -192t198 -530q0 -340 -199 -532t-534 -192h-479z" />
    <glyph glyph-name="dcroat" unicode="&#x111;" horiz-adv-x="1230" 
d="M883 502q0 168 -77 278t-210 109q-133 1 -219 -99t-86 -270t81 -271t210 -101t215 92q86 94 86 262zM610 1153v129h267v164h198v-164h156v-129h-156v-1153h-188v98l2 70h-4q-12 -24 -43 -63q-103 -128 -305 -129q-201 -1 -325 149q-124 151 -124 395t131 392t338 149
q135 0 213 -56t98 -92l9 -16h4q-4 31 -4 70v186h-267z" />
    <glyph glyph-name="Emacron" unicode="&#x112;" horiz-adv-x="1173" 
d="M379 1606v143h522v-143h-522zM197 0v1446h839v-176h-637v-453h519v-176h-519v-465h672v-176h-874z" />
    <glyph glyph-name="emacron" unicode="&#x113;" horiz-adv-x="1136" 
d="M342 1245v144h522v-144h-522zM295 639h553q-4 129 -75 197t-181 68t-194 -70q-83 -70 -103 -195zM633 -25q-241 0 -395 155q-154 156 -154 394t146 388t364 149q218 0 338 -137q119 -137 119 -349l-7 -86h-755q8 -165 109 -253t247 -89q80 0 157 31t113 60l37 30l82 -145
q-16 -16 -49 -41t-137 -66t-215 -41z" />
    <glyph glyph-name="Ebreve" unicode="&#x114;" horiz-adv-x="1173" 
d="M907 1778q-1 -112 -79 -176t-190 -64t-191 64t-78 176v28h147v-26q0 -61 36 -92t86 -31t86 32t36 93v24h147v-28zM197 0v1446h839v-176h-637v-453h519v-176h-519v-465h672v-176h-874z" />
    <glyph glyph-name="ebreve" unicode="&#x115;" horiz-adv-x="1136" 
d="M870 1417q0 -113 -78 -176t-191 -63t-191 63t-78 176v29h147v-27q0 -61 36 -92t86 -31t86 32t36 93v25h147v-29zM295 639h553q-4 129 -75 197t-181 68t-194 -70q-83 -70 -103 -195zM633 -25q-241 0 -395 155q-154 156 -154 394t146 388t364 149q218 0 338 -137
q119 -137 119 -349l-7 -86h-755q8 -165 109 -253t247 -89q80 0 157 31t113 60l37 30l82 -145q-16 -16 -49 -41t-137 -66t-215 -41z" />
    <glyph glyph-name="Edotaccent" unicode="&#x116;" horiz-adv-x="1173" 
d="M549 1606v200h178v-200h-178zM197 0v1446h839v-176h-637v-453h519v-176h-519v-465h672v-176h-874z" />
    <glyph glyph-name="edotaccent" unicode="&#x117;" horiz-adv-x="1136" 
d="M512 1245v201h178v-201h-178zM295 639h553q-4 129 -75 197t-181 68t-194 -70q-83 -70 -103 -195zM633 -25q-241 0 -395 155q-154 156 -154 394t146 388t364 149q218 0 338 -137q119 -137 119 -349l-7 -86h-755q8 -165 109 -253t247 -89q80 0 157 31t113 60l37 30l82 -145
q-16 -16 -49 -41t-137 -66t-215 -41z" />
    <glyph glyph-name="Eogonek" unicode="&#x118;" horiz-adv-x="1173" 
d="M197 0v1446h839v-176h-637v-453h519v-176h-519v-465h672v-176q-131 -111 -131 -182q0 -35 28 -57t56 -27l29 -4l-47 -154q-20 0 -72 15q-51 15 -83 35q-31 20 -57 58t-26 87q0 113 141 225v4h-712z" />
    <glyph glyph-name="eogonek" unicode="&#x119;" horiz-adv-x="1138" 
d="M295 639h553q-4 129 -75 197t-181 68t-194 -70q-83 -70 -103 -195zM84 524q0 238 146 388t364 149q218 0 338 -137q119 -137 119 -349l-7 -86h-755q8 -165 109 -253t247 -89q80 0 157 31t113 60l37 30l82 -145q-36 -31 -169 -131q-39 -31 -73 -79t-34 -89t28 -63t58 -27
l28 -4l-47 -154q-19 0 -71 15t-84 35t-57 58q-26 38 -25 87q0 104 114 206v5q-33 -6 -69 -7q-241 0 -395 155q-154 156 -154 394z" />
    <glyph glyph-name="Ecaron" unicode="&#x11a;" horiz-adv-x="1173" 
d="M537 1546l-181 260h174l107 -166h4l109 166h174l-181 -260h-206zM197 0v1446h839v-176h-637v-453h519v-176h-519v-465h672v-176h-874z" />
    <glyph glyph-name="ecaron" unicode="&#x11b;" horiz-adv-x="1136" 
d="M498 1186l-181 260h175l106 -166h4l109 166h174l-180 -260h-207zM295 639h553q-4 129 -75 197t-181 68t-194 -70q-83 -70 -103 -195zM633 -25q-241 0 -395 155q-154 156 -154 394t146 388t364 149q218 0 338 -137q119 -137 119 -349l-7 -86h-755q8 -165 109 -253t247 -89
q80 0 157 31t113 60l37 30l82 -145q-16 -16 -49 -41t-137 -66t-215 -41z" />
    <glyph glyph-name="Gcircumflex" unicode="&#x11c;" horiz-adv-x="1556" 
d="M532 1546l181 260h207l180 -260h-174l-109 164h-4l-106 -164h-175zM100 720q0 320 211 535t527 215q240 0 440 -111q45 -26 65 -44l21 -19l-102 -151q-18 16 -52 40q-34 25 -141 63q-106 38 -215 38q-248 0 -396 -159t-148 -403t151 -404q152 -158 381 -158q111 0 213 45
t149 90l47 45v209h-235v176h420v-727h-179v90l3 62h-5q-174 -174 -444 -177q-297 0 -504 212q-207 213 -207 533z" />
    <glyph glyph-name="gcircumflex" unicode="&#x11d;" horiz-adv-x="1214" 
d="M307 1186l180 260h207l180 -260h-174l-108 164h-4l-107 -164h-174zM571 889q-133 0 -207 -91t-75 -253q0 -161 81 -261t211 -100q131 0 207 84t76 273q0 348 -293 348zM528 -258q151 0 242 71q90 71 90 220v76l2 65h-4q-96 -162 -307 -162t-337 151t-126 380t121 373
t332 145q144 0 221 -53t94 -86l10 -15h4q-2 14 -2 33v96h191v-993q0 -123 -44 -217q-79 -169 -286 -229q-90 -27 -192 -27q-186 0 -355 86l66 156q129 -70 280 -70z" />
    <glyph glyph-name="Gbreve" unicode="&#x11e;" horiz-adv-x="1556" 
d="M1085 1778q-1 -112 -79 -176t-190 -64t-190 64t-79 176v28h147v-26q0 -61 36 -92t86 -31t86 32t36 93v24h147v-28zM100 720q0 320 211 535t527 215q240 0 440 -111q45 -26 65 -44l21 -19l-102 -151q-18 16 -52 40q-34 25 -141 63q-106 38 -215 38q-248 0 -396 -159
t-148 -403t151 -404q152 -158 381 -158q111 0 213 45t149 90l47 45v209h-235v176h420v-727h-179v90l3 62h-5q-174 -174 -444 -177q-297 0 -504 212q-207 213 -207 533z" />
    <glyph glyph-name="gbreve" unicode="&#x11f;" horiz-adv-x="1214" 
d="M860 1417q0 -113 -78 -176t-191 -63q-112 0 -191 63t-78 176v29h147v-27q0 -61 36 -92t86 -31t86 32t36 93v25h147v-29zM571 889q-133 0 -207 -91t-75 -253q0 -161 81 -261t211 -100q131 0 207 84t76 273q0 348 -293 348zM528 -258q151 0 242 71q90 71 90 220v76l2 65h-4
q-96 -162 -307 -162t-337 151t-126 380t121 373t332 145q144 0 221 -53t94 -86l10 -15h4q-2 14 -2 33v96h191v-993q0 -123 -44 -217q-79 -169 -286 -229q-90 -27 -192 -27q-186 0 -355 86l66 156q129 -70 280 -70z" />
    <glyph glyph-name="Gdotaccent" unicode="&#x120;" horiz-adv-x="1556" 
d="M727 1606v200h178v-200h-178zM100 720q0 320 211 535t527 215q240 0 440 -111q45 -26 65 -44l21 -19l-102 -151q-18 16 -52 40q-34 25 -141 63q-106 38 -215 38q-248 0 -396 -159t-148 -403t151 -404q152 -158 381 -158q111 0 213 45t149 90l47 45v209h-235v176h420v-727
h-179v90l3 62h-5q-174 -174 -444 -177q-297 0 -504 212q-207 213 -207 533z" />
    <glyph glyph-name="gdotaccent" unicode="&#x121;" horiz-adv-x="1214" 
d="M502 1245v201h178v-201h-178zM571 889q-133 0 -207 -91t-75 -253q0 -161 81 -261t211 -100q131 0 207 84t76 273q0 348 -293 348zM528 -258q151 0 242 71q90 71 90 220v76l2 65h-4q-96 -162 -307 -162t-337 151t-126 380t121 373t332 145q144 0 221 -53t94 -86l10 -15h4
q-2 14 -2 33v96h191v-993q0 -123 -44 -217q-79 -169 -286 -229q-90 -27 -192 -27q-186 0 -355 86l66 156q129 -70 280 -70z" />
    <glyph glyph-name="Gcommaaccent" unicode="&#x122;" horiz-adv-x="1556" 
d="M909 -242q0 -66 -51 -176h-151q39 110 39 172t-25 125h174q14 -55 14 -121zM100 720q0 320 211 535t527 215q240 0 440 -111q45 -26 65 -44l21 -19l-102 -151q-18 16 -52 40q-34 25 -141 63q-106 38 -215 38q-248 0 -396 -159t-148 -403t151 -404q152 -158 381 -158
q111 0 213 45t149 90l47 45v209h-235v176h420v-727h-179v90l3 62h-5q-174 -174 -444 -177q-297 0 -504 212q-207 213 -207 533z" />
    <glyph glyph-name="gcommaaccent" unicode="&#x123;" horiz-adv-x="1214" 
d="M496 1272q0 64 51 174h149q-39 -110 -39 -170t25 -123h-172q-14 55 -14 119zM571 889q-133 0 -207 -91t-75 -253q0 -161 81 -261t211 -100q131 0 207 84t76 273q0 348 -293 348zM528 -258q151 0 242 71q90 71 90 220v76l2 65h-4q-96 -162 -307 -162t-337 151t-126 380
t121 373t332 145q144 0 221 -53t94 -86l10 -15h4q-2 14 -2 33v96h191v-993q0 -123 -44 -217q-79 -169 -286 -229q-90 -27 -192 -27q-186 0 -355 86l66 156q129 -70 280 -70z" />
    <glyph glyph-name="Hcircumflex" unicode="&#x124;" horiz-adv-x="1548" 
d="M492 1546l180 260h207l180 -260h-174l-109 164h-4l-106 -164h-174zM197 0v1446h202v-635h750v635h203v-1446h-203v635h-750v-635h-202z" />
    <glyph glyph-name="hcircumflex" unicode="&#x125;" horiz-adv-x="1234" 
d="M-29 1546l181 260h206l181 -260h-174l-109 164h-4l-107 -164h-174zM156 0v1446h198v-531l-4 -86h4q42 90 142 161t241 71q356 0 357 -397v-664h-199v618q0 125 -41 193t-156 68q-114 0 -204 -72q-137 -110 -140 -322v-485h-198z" />
    <glyph glyph-name="Hbar" unicode="&#x126;" horiz-adv-x="1638" 
d="M444 811h750v242h-750v-242zM242 0v1053h-127v139h127v254h202v-254h750v254h203v-254h129v-139h-129v-1053h-203v635h-750v-635h-202z" />
    <glyph glyph-name="hbar" unicode="&#x127;" horiz-adv-x="1234" 
d="M8 1153v129h148v164h198v-164h273v-129h-273v-238l-4 -86h4q42 90 142 161t241 71q356 0 357 -397v-664h-199v618q0 125 -41 193t-156 68q-114 0 -204 -72q-137 -110 -140 -322v-485h-198v1153h-148z" />
    <glyph glyph-name="Itilde" unicode="&#x128;" horiz-adv-x="595" 
d="M-45 1548q0 260 209 260q59 0 104 -34t82 -70q37 -35 75 -35t57 40t20 93h143q0 -260 -209 -260q-59 0 -104 35t-82 70t-72 34q-80 0 -80 -133h-143zM197 0v1446h202v-1446h-202z" />
    <glyph glyph-name="itilde" unicode="&#x129;" horiz-adv-x="509" 
d="M156 0v1036h198v-1036h-198zM-88 1188q0 260 209 260q75 0 147 -70t112 -70t59 41q19 40 20 93h143q0 -260 -209 -260q-59 0 -104 35t-82 69t-72 35q-80 0 -80 -133h-143z" />
    <glyph glyph-name="Imacron" unicode="&#x12a;" horiz-adv-x="595" 
d="M39 1606v143h522v-143h-522zM197 0v1446h202v-1446h-202z" />
    <glyph glyph-name="imacron" unicode="&#x12b;" horiz-adv-x="509" 
d="M156 0v1036h198v-1036h-198zM-4 1245v144h522v-144h-522z" />
    <glyph glyph-name="Ibreve" unicode="&#x12c;" horiz-adv-x="595" 
d="M567 1778q-1 -112 -79 -176t-190 -64t-190 64t-79 176v28h147v-26q0 -61 36 -92t86 -31t86 32t36 93v24h147v-28zM197 0v1446h202v-1446h-202z" />
    <glyph glyph-name="ibreve" unicode="&#x12d;" horiz-adv-x="509" 
d="M156 0v1036h198v-1036h-198zM526 1417q0 -113 -78 -176t-191 -63t-191 63t-78 176v29h147v-27q0 -61 36 -92t86 -31t86 32t36 93v25h147v-29z" />
    <glyph glyph-name="Iogonek" unicode="&#x12e;" horiz-adv-x="595" 
d="M197 0v1446h202v-1446q-119 -100 -118 -182q-1 -35 27 -57t57 -27l28 -4l-47 -154q-19 0 -71 15t-84 35q-31 20 -57 58t-25 87q0 123 129 225v4h-41z" />
    <glyph glyph-name="iogonek" unicode="&#x12f;" horiz-adv-x="509" 
d="M154 1243v203h200v-203h-200zM63 -229q0 102 93 194v1071h198v-1036q-121 -109 -121 -182q0 -35 29 -57t57 -27l29 -4l-47 -154q-20 0 -72 15q-51 15 -83 35t-58 58t-25 87z" />
    <glyph glyph-name="Idotaccent" unicode="&#x130;" horiz-adv-x="595" 
d="M209 1606v200h178v-200h-178zM197 0v1446h202v-1446h-202z" />
    <glyph glyph-name="dotlessi" unicode="&#x131;" horiz-adv-x="509" 
d="M156 0v1036h198v-1036h-198z" />
    <glyph glyph-name="IJ" unicode="&#x132;" horiz-adv-x="1253" 
d="M197 0v1446h202v-1446h-202zM586 -10v186q105 0 184 56q100 71 98 260v954h205v-957q0 -499 -487 -499z" />
    <glyph glyph-name="ij" unicode="&#x133;" horiz-adv-x="1021" 
d="M670 1036h196v-1071q0 -121 -42 -205t-110 -120q-119 -62 -243 -62l-70 4v170q18 -2 68 -2t102 28q99 54 99 199v1059zM668 1243v203h200v-203h-200zM156 0v1036h198v-1036h-198zM154 1243v203h200v-203h-200z" />
    <glyph glyph-name="Jcircumflex" unicode="&#x134;" horiz-adv-x="1099" 
d="M348 1546l180 260h207l180 -260h-174l-108 164h-4l-107 -164h-174zM61 416v71h201v-61q0 -136 67 -200t163 -64t160 61t65 195v852h-365v176h568v-1030q0 -219 -127 -330t-303 -111t-303 112q-126 112 -126 329z" />
    <glyph glyph-name="jcircumflex" unicode="&#x135;" horiz-adv-x="507" 
d="M-27 1186l181 260h192l180 -260h-168l-106 166h-4l-107 -166h-168zM156 1036h196v-1071q0 -121 -42 -205t-110 -120q-119 -62 -243 -62l-70 4v170q18 -2 68 -2t102 28q99 54 99 199v1059z" />
    <glyph glyph-name="Kcommaaccent" unicode="&#x136;" horiz-adv-x="1275" 
d="M590 -246q0 62 -25 125h174q15 -55 15 -121t-52 -176h-151q39 110 39 172zM197 0v1446h202v-608h215l365 608h223l-420 -686v-4l447 -756h-230l-385 664h-215v-664h-202z" />
    <glyph glyph-name="kcommaaccent" unicode="&#x137;" horiz-adv-x="1077" 
d="M657 -242q0 -66 -51 -176h-151q39 110 39 172t-25 125h174q14 -55 14 -121zM156 0v1446h198v-791h146l282 381h226l-344 -456v-5l383 -575h-232l-311 487h-150v-487h-198z" />
    <glyph glyph-name="kgreenlandic" unicode="&#x138;" horiz-adv-x="1083" 
d="M156 0v1036h198v-407h144l297 407h229l-360 -483v-4l366 -549h-237l-291 461h-148v-461h-198z" />
    <glyph glyph-name="Lacute" unicode="&#x139;" horiz-adv-x="1083" 
d="M211 1546l149 260h213l-196 -260h-166zM197 0v1446h202v-1270h648v-176h-850z" />
    <glyph glyph-name="lacute" unicode="&#x13a;" horiz-adv-x="542" 
d="M156 1546l149 260h213l-196 -260h-166zM143 283v1163h199v-1129q0 -87 29 -117t82 -30l34 2v-176q-31 -4 -65 -4q-279 0 -279 291z" />
    <glyph glyph-name="Lcommaaccent" unicode="&#x13b;" horiz-adv-x="1083" 
d="M731 -242q0 -66 -51 -176h-152q40 110 40 172t-25 125h174q14 -55 14 -121zM197 0v1446h202v-1270h648v-176h-850z" />
    <glyph glyph-name="lcommaaccent" unicode="&#x13c;" horiz-adv-x="542" 
d="M250 -246q0 62 -25 125h174q15 -55 15 -121t-52 -176h-151q39 110 39 172zM143 283v1163h199v-1129q0 -87 29 -117t82 -30l34 2v-176q-31 -4 -65 -4q-279 0 -279 291z" />
    <glyph glyph-name="Lcaron" unicode="&#x13d;" horiz-adv-x="1083" 
d="M762 1324q0 -67 -51 -175h-152q39 111 39 173t-25 124h175q14 -55 14 -122zM197 0v1446h202v-1270h648v-176h-850z" />
    <glyph glyph-name="lcaron" unicode="&#x13e;" horiz-adv-x="604" 
d="M651 1324q0 -67 -51 -175h-151q39 111 39 173t-25 124h174q14 -55 14 -122zM143 283v1163h199v-1129q0 -87 29 -117t82 -30l34 2v-176q-31 -4 -65 -4q-279 0 -279 291z" />
    <glyph glyph-name="Ldot" unicode="&#x13f;" horiz-adv-x="1083" 
d="M639 672v211h203v-211h-203zM197 0v1446h202v-1270h648v-176h-850z" />
    <glyph glyph-name="ldot" unicode="&#x140;" horiz-adv-x="696" 
d="M492 672v211h202v-211h-202zM143 283v1163h199v-1129q0 -87 29 -117t82 -30l34 2v-176q-31 -4 -65 -4q-279 0 -279 291z" />
    <glyph glyph-name="Lslash" unicode="&#x141;" horiz-adv-x="1130" 
d="M244 1446h202v-516l224 129v-199l-224 -129v-555h648v-176h-850v616l-121 -69v198l121 70v631z" />
    <glyph glyph-name="lslash" unicode="&#x142;" horiz-adv-x="657" 
d="M223 1446h199v-483l168 96v-199l-168 -96v-447q0 -87 29 -117t81 -30l35 2v-176q-31 -4 -65 -4q-279 0 -279 291v366l-149 -86v199l149 86v598z" />
    <glyph glyph-name="Nacute" unicode="&#x143;" horiz-adv-x="1550" 
d="M686 1546l150 260h213l-197 -260h-166zM197 0v1446h200l643 -940q48 -68 103 -174l18 -35h4q-14 129 -14 209v940h203v-1446h-199l-645 938q-41 57 -102 176l-19 35h-4q14 -129 14 -211v-938h-202z" />
    <glyph glyph-name="nacute" unicode="&#x144;" horiz-adv-x="1234" 
d="M553 1186l149 260h213l-196 -260h-166zM156 0v1036h192v-137l-4 -76h4q41 88 139 163t250 75q356 0 357 -397v-664h-199v618q0 125 -41 193t-157 68q-117 0 -205 -71q-136 -109 -138 -323v-485h-198z" />
    <glyph glyph-name="Ncommaaccent" unicode="&#x145;" horiz-adv-x="1550" 
d="M872 -242q0 -66 -51 -176h-151q39 110 39 172t-25 125h174q14 -55 14 -121zM197 0v1446h200l643 -940q48 -68 103 -174l18 -35h4q-14 129 -14 209v940h203v-1446h-199l-645 938q-41 57 -102 176l-19 35h-4q14 -129 14 -211v-938h-202z" />
    <glyph glyph-name="ncommaaccent" unicode="&#x146;" horiz-adv-x="1234" 
d="M719 -242q0 -66 -51 -176h-152q39 110 39 172t-25 125h175q14 -55 14 -121zM156 0v1036h192v-137l-4 -76h4q41 88 139 163t250 75q356 0 357 -397v-664h-199v618q0 125 -41 193t-157 68q-117 0 -205 -71q-136 -109 -138 -323v-485h-198z" />
    <glyph glyph-name="Ncaron" unicode="&#x147;" horiz-adv-x="1550" 
d="M672 1546l-180 260h174l106 -166h4l109 166h174l-180 -260h-207zM197 0v1446h200l643 -940q48 -68 103 -174l18 -35h4q-14 129 -14 209v940h203v-1446h-199l-645 938q-41 57 -102 176l-19 35h-4q14 -129 14 -211v-938h-202z" />
    <glyph glyph-name="ncaron" unicode="&#x148;" horiz-adv-x="1234" 
d="M537 1186l-181 260h174l107 -166h4l109 166h174l-181 -260h-206zM156 0v1036h192v-137l-4 -76h4q41 88 139 163t250 75q356 0 357 -397v-664h-199v618q0 125 -41 193t-157 68q-117 0 -205 -71q-136 -109 -138 -323v-485h-198z" />
    <glyph glyph-name="napostrophe" unicode="&#x149;" horiz-adv-x="1234" 
d="M31 1322q0 62 -25 124h174q14 -55 14 -122t-51 -175h-151q39 111 39 173zM156 0v1036h192v-137l-4 -76h4q41 88 139 163t250 75q356 0 357 -397v-664h-199v618q0 125 -41 193t-157 68q-117 0 -205 -71q-136 -109 -138 -323v-485h-198z" />
    <glyph glyph-name="Eng" unicode="&#x14a;" horiz-adv-x="1548" 
d="M197 0v1446h198l645 -940q39 -65 59 -100q19 -36 33 -60l27 -49h4q-12 129 -12 209v940h201v-1391q0 -366 -306 -452q-79 -23 -169 -23v187q96 0 178 61t90 186l-637 924q-51 72 -102 176l-17 35h-4q12 -129 12 -211v-938h-200z" />
    <glyph glyph-name="eng" unicode="&#x14b;" horiz-adv-x="1234" 
d="M156 0v1036h192v-153l-4 -60h4q41 88 139 163t265 75q342 0 342 -397v-705q0 -98 -30 -172t-72 -114q-106 -101 -296 -101l-69 4v170q18 -2 50 -2q33 0 65 8q154 38 153 221v645q0 125 -40 193t-157 68q-118 0 -206 -70q-136 -108 -138 -324v-485h-198z" />
    <glyph glyph-name="Omacron" unicode="&#x14c;" horiz-adv-x="1681" 
d="M582 1606v143h522v-143h-522zM842 1286q-223 0 -379 -158t-156 -398t156 -404t379 -164t378 165q154 165 154 403t-154 398q-154 158 -378 158zM98 729q0 315 215 528t529 213t527 -213q214 -213 214 -528t-214 -534t-527 -219q-312 0 -528 218q-216 220 -216 535z" />
    <glyph glyph-name="omacron" unicode="&#x14d;" horiz-adv-x="1277" 
d="M379 1245v144h522v-144h-522zM283 520q0 -160 104 -266t253 -106t252 104q103 106 103 267t-103 265q-104 104 -252 104t-252 -104t-105 -264zM80 520q0 233 162 387t398 154t396 -154q162 -154 162 -387t-163 -389t-396 -156t-396 156t-163 389z" />
    <glyph glyph-name="Obreve" unicode="&#x14e;" horiz-adv-x="1681" 
d="M1110 1778q0 -112 -78 -176t-191 -64q-112 0 -191 64t-79 176v28h148v-26q0 -61 36 -92t86 -31t86 32t36 93v24h147v-28zM842 1286q-223 0 -379 -158t-156 -398t156 -404t379 -164t378 165q154 165 154 403t-154 398q-154 158 -378 158zM98 729q0 315 215 528t529 213
t527 -213q214 -213 214 -528t-214 -534t-527 -219q-312 0 -528 218q-216 220 -216 535z" />
    <glyph glyph-name="obreve" unicode="&#x14f;" horiz-adv-x="1277" 
d="M909 1417q-1 -113 -79 -176t-190 -63t-190 63t-79 176v29h147v-27q0 -61 36 -92t86 -31t86 32t36 93v25h147v-29zM283 520q0 -160 104 -266t253 -106t252 104q103 106 103 267t-103 265q-104 104 -252 104t-252 -104t-105 -264zM80 520q0 233 162 387t398 154t396 -154
q162 -154 162 -387t-163 -389t-396 -156t-396 156t-163 389z" />
    <glyph glyph-name="Ohungarumlaut" unicode="&#x150;" horiz-adv-x="1681" 
d="M571 1546l140 260h178l-146 -260h-172zM887 1546l149 260h207l-196 -260h-160zM842 1286q-223 0 -379 -158t-156 -398t156 -404t379 -164t378 165q154 165 154 403t-154 398q-154 158 -378 158zM98 729q0 315 215 528t529 213t527 -213q214 -213 214 -528t-214 -534
t-527 -219q-312 0 -528 218q-216 220 -216 535z" />
    <glyph glyph-name="ohungarumlaut" unicode="&#x151;" horiz-adv-x="1277" 
d="M371 1186l139 260h178l-145 -260h-172zM686 1186l150 260h206l-196 -260h-160zM283 520q0 -160 104 -266t253 -106t252 104q103 106 103 267t-103 265q-104 104 -252 104t-252 -104t-105 -264zM80 520q0 233 162 387t398 154t396 -154q162 -154 162 -387t-163 -389
t-396 -156t-396 156t-163 389z" />
    <glyph glyph-name="OE" unicode="&#x152;" horiz-adv-x="1966" 
d="M846 158q82 0 145 14v1102q-63 16 -145 16q-236 0 -388 -162t-151 -404q0 -242 152 -404t387 -162zM98 724q0 314 214 527t534 213q53 0 136 -9t116 -9h733v-176h-639v-453h520v-176h-520v-465h676v-176h-768q-33 0 -117 -9t-137 -9q-317 0 -533 214q-215 214 -215 528z
" />
    <glyph glyph-name="oe" unicode="&#x153;" horiz-adv-x="2048" 
d="M285 517q0 -165 102 -267t252 -102t253 102q103 104 103 269t-104 267q-103 102 -251 102t-252 -102q-104 -104 -103 -269zM1206 639h553q-4 127 -73 196q-70 69 -182 69t-195 -70t-103 -195zM82 516q0 240 161 392t392 153q301 0 448 -246h4q131 246 426 246
q211 0 330 -137t119 -349l-6 -86h-756q12 -165 112 -253t244 -89q80 0 157 31t114 60l37 30l82 -145q-16 -16 -50 -41t-137 -66q-104 -41 -215 -41q-313 0 -452 252h-5q-145 -252 -452 -252q-231 1 -392 151t-161 390z" />
    <glyph glyph-name="Racute" unicode="&#x154;" horiz-adv-x="1312" 
d="M543 1546l149 260h213l-196 -260h-166zM399 752h291q119 0 188 70t68 192q0 160 -115 223q-61 33 -198 33h-234v-518zM197 0v1446h442q183 0 283 -37t166 -141t65 -244q0 -140 -71 -248q-71 -106 -189 -145v-4q16 -18 43 -66l307 -561h-229l-305 575h-310v-575h-202z" />
    <glyph glyph-name="racute" unicode="&#x155;" horiz-adv-x="768" 
d="M371 1186l149 260h213l-196 -260h-166zM156 0v1036h192v-180l-4 -78h4q37 119 124 195t204 76l51 -5v-196q-27 6 -57 6q-96 0 -176 -66q-140 -116 -140 -364v-424h-198z" />
    <glyph glyph-name="Rcommaaccent" unicode="&#x156;" horiz-adv-x="1312" 
d="M770 -242q0 -66 -51 -176h-152q39 110 39 172t-24 125h174q14 -55 14 -121zM399 752h291q119 0 188 70t68 192q0 160 -115 223q-61 33 -198 33h-234v-518zM197 0v1446h442q183 0 283 -37t166 -141t65 -244q0 -140 -71 -248q-71 -106 -189 -145v-4q16 -18 43 -66l307 -561
h-229l-305 575h-310v-575h-202z" />
    <glyph glyph-name="rcommaaccent" unicode="&#x157;" horiz-adv-x="768" 
d="M354 -242q0 -66 -51 -176h-151q39 110 39 172t-25 125h174q14 -55 14 -121zM156 0v1036h192v-180l-4 -78h4q37 119 124 195t204 76l51 -5v-196q-27 6 -57 6q-96 0 -176 -66q-140 -116 -140 -364v-424h-198z" />
    <glyph glyph-name="Rcaron" unicode="&#x158;" horiz-adv-x="1312" 
d="M528 1546l-180 260h174l107 -166h4l108 166h174l-180 -260h-207zM399 752h291q119 0 188 70t68 192q0 160 -115 223q-61 33 -198 33h-234v-518zM197 0v1446h442q183 0 283 -37t166 -141t65 -244q0 -140 -71 -248q-71 -106 -189 -145v-4q16 -18 43 -66l307 -561h-229
l-305 575h-310v-575h-202z" />
    <glyph glyph-name="rcaron" unicode="&#x159;" horiz-adv-x="768" 
d="M358 1186l-180 260h174l107 -166h4l108 166h174l-180 -260h-207zM156 0v1036h192v-180l-4 -78h4q37 119 124 195t204 76l51 -5v-196q-27 6 -57 6q-96 0 -176 -66q-140 -116 -140 -364v-424h-198z" />
    <glyph glyph-name="Sacute" unicode="&#x15a;" horiz-adv-x="1118" 
d="M475 1546l150 260h213l-197 -260h-166zM569 164q106 0 179 57q72 57 72 165t-140 187q-61 35 -136 67t-150 69t-136 82t-100 115t-39 161q0 170 132 287t335 116q119 0 221 -36t145 -74l43 -35l-92 -168q-44 44 -139 84q-96 41 -194 41t-172 -61t-74 -147t72 -142
q72 -57 174 -98q102 -40 206 -90t176 -141t72 -220q0 -174 -125 -291t-316 -117t-312 63t-165 109l-20 19l115 153q98 -98 248 -139q61 -16 120 -16z" />
    <glyph glyph-name="sacute" unicode="&#x15b;" horiz-adv-x="917" 
d="M379 1186l149 260h213l-196 -260h-166zM460 147q75 0 126 35t51 90q0 54 -55 94t-133 70t-156 65t-133 103t-56 162q0 137 106 216t269 79q101 0 185 -29t116 -57l33 -29l-80 -149q-34 34 -109 63q-74 29 -146 29t-122 -32q-49 -32 -49 -89t55 -94q56 -37 134 -67
q78 -29 156 -65t132 -104q55 -68 56 -162q0 -131 -104 -216t-271 -85q-113 0 -211 38t-139 77l-43 37l96 141q35 -41 126 -81t166 -40z" />
    <glyph glyph-name="Scircumflex" unicode="&#x15c;" horiz-adv-x="1118" 
d="M281 1546l180 260h207l180 -260h-174l-109 164h-4l-106 -164h-174zM569 164q106 0 179 57q72 57 72 165t-140 187q-61 35 -136 67t-150 69t-136 82t-100 115t-39 161q0 170 132 287t335 116q119 0 221 -36t145 -74l43 -35l-92 -168q-44 44 -139 84q-96 41 -194 41
t-172 -61t-74 -147t72 -142q72 -57 174 -98q102 -40 206 -90t176 -141t72 -220q0 -174 -125 -291t-316 -117t-312 63t-165 109l-20 19l115 153q98 -98 248 -139q61 -16 120 -16z" />
    <glyph glyph-name="scircumflex" unicode="&#x15d;" horiz-adv-x="917" 
d="M184 1186l181 260h206l181 -260h-174l-109 164h-4l-107 -164h-174zM460 147q75 0 126 35t51 90q0 54 -55 94t-133 70t-156 65t-133 103t-56 162q0 137 106 216t269 79q101 0 185 -29t116 -57l33 -29l-80 -149q-34 34 -109 63q-74 29 -146 29t-122 -32q-49 -32 -49 -89
t55 -94q56 -37 134 -67q78 -29 156 -65t132 -104q55 -68 56 -162q0 -131 -104 -216t-271 -85q-113 0 -211 38t-139 77l-43 37l96 141q35 -41 126 -81t166 -40z" />
    <glyph glyph-name="Scedilla" unicode="&#x15e;" horiz-adv-x="1118" 
d="M750 -264q0 -76 -60 -118t-137 -42q-76 0 -125 14v119q41 -14 86 -14q98 0 98 63t-108 64l-37 -2l41 157q-121 9 -226 57t-151 89l-45 43l115 153q98 -98 248 -139q61 -16 120 -16q106 0 179 57q72 57 72 165t-140 187q-61 35 -136 67t-150 69t-136 82t-100 115t-39 161
q0 170 132 287t335 116q119 0 221 -36t145 -74l43 -35l-92 -168q-44 44 -139 84q-96 41 -194 41t-172 -61t-74 -147t72 -142q72 -57 174 -98q102 -40 206 -90t176 -141t72 -237t-110 -258q-110 -114 -296 -131l-16 -79q66 -8 107 -48q41 -38 41 -114z" />
    <glyph glyph-name="scedilla" unicode="&#x15f;" horiz-adv-x="917" 
d="M443 -424q-78 0 -124 14v119q41 -14 87 -14q98 0 98 63t-109 64l-37 -2l41 160q-94 8 -176 45t-117 69l-34 33l96 141q35 -41 126 -81t166 -40t126 35t51 90q0 54 -55 94t-133 70t-156 65t-133 103t-56 162q0 137 106 216t269 79q101 0 185 -29t116 -57l33 -29l-80 -149
q-34 34 -109 63q-74 29 -146 29t-122 -32q-49 -32 -49 -89t55 -94q56 -37 134 -67q78 -29 156 -65t132 -104q56 -68 56 -176t-90 -190t-240 -95l-16 -79q66 -8 106 -48t41 -114q0 -76 -60 -118t-138 -42z" />
    <glyph glyph-name="Scaron" unicode="&#x160;" horiz-adv-x="1118" 
d="M461 1546l-180 260h174l106 -166h4l109 166h174l-180 -260h-207zM569 164q106 0 179 57q72 57 72 165t-140 187q-61 35 -136 67t-150 69t-136 82t-100 115t-39 161q0 170 132 287t335 116q119 0 221 -36t145 -74l43 -35l-92 -168q-44 44 -139 84q-96 41 -194 41t-172 -61
t-74 -147t72 -142q72 -57 174 -98q102 -40 206 -90t176 -141t72 -220q0 -174 -125 -291t-316 -117t-312 63t-165 109l-20 19l115 153q98 -98 248 -139q61 -16 120 -16z" />
    <glyph glyph-name="scaron" unicode="&#x161;" horiz-adv-x="917" 
d="M365 1186l-181 260h174l107 -166h4l109 166h174l-181 -260h-206zM460 147q75 0 126 35t51 90q0 54 -55 94t-133 70t-156 65t-133 103t-56 162q0 137 106 216t269 79q101 0 185 -29t116 -57l33 -29l-80 -149q-34 34 -109 63q-74 29 -146 29t-122 -32q-49 -32 -49 -89
t55 -94q56 -37 134 -67q78 -29 156 -65t132 -104q55 -68 56 -162q0 -131 -104 -216t-271 -85q-113 0 -211 38t-139 77l-43 37l96 141q35 -41 126 -81t166 -40z" />
    <glyph glyph-name="Tcommaaccent" unicode="&#x162;" horiz-adv-x="1214" 
d="M588 -424q-80 0 -121 14v119q41 -14 86 -14q98 0 98 63t-108 64l-37 -2l47 180h-47v1270h-496v176h1194v-176h-495v-1270h-45l-23 -102q66 -8 107 -48q40 -40 40 -114q0 -76 -60 -118t-140 -42z" />
    <glyph glyph-name="tcommaaccent" unicode="&#x163;" horiz-adv-x="735" 
d="M410 -424q-76 0 -125 14v119q41 -14 86 -14q98 0 98 63t-109 64l-36 -2l57 217q-180 92 -180 342v483h-135v160h141v299h192v-299h250v-160h-250v-461q0 -160 112 -211q50 -22 110 -22l47 4v-176q-29 -4 -81 -4t-106 10l-22 -104q67 -8 107 -48t40 -114q0 -76 -60 -118
t-136 -42z" />
    <glyph glyph-name="Tcaron" unicode="&#x164;" horiz-adv-x="1214" 
d="M504 1546l-180 260h174l106 -166h4l109 166h174l-180 -260h-207zM506 0v1270h-496v176h1194v-176h-495v-1270h-203z" />
    <glyph glyph-name="tcaron" unicode="&#x165;" horiz-adv-x="733" 
d="M545 1326q0 58 -25 122h174q14 -56 14 -120t-51 -171h-151q39 111 39 169zM199 379v483h-136v160h142v299h192v-299h250v-160h-250v-461q0 -160 112 -211q50 -22 109 -22l48 4v-176q-29 -4 -74 -4q-183 0 -292 101q-42 40 -72 114q-29 74 -29 172z" />
    <glyph glyph-name="Tbar" unicode="&#x166;" horiz-adv-x="1261" 
d="M209 635v156h319v479h-495v176h1194v-176h-496v-479h328v-156h-328v-635h-203v635h-319z" />
    <glyph glyph-name="tbar" unicode="&#x167;" horiz-adv-x="780" 
d="M82 530v140h143v192h-135v160h141v299h193v-299h250v-160h-250v-192h240v-140h-240v-137q0 -141 83 -187q66 -38 138 -38l47 4v-176q-30 -4 -74 -4t-90 6t-102 31q-57 25 -99 65t-72 113q-30 74 -30 172v151h-143z" />
    <glyph glyph-name="Utilde" unicode="&#x168;" horiz-adv-x="1490" 
d="M401 1548q0 260 209 260q58 0 104 -34t83 -70q37 -35 75 -35t57 40t19 93h144q0 -260 -209 -260q-59 0 -105 35t-82 70q-37 35 -71 34q-80 0 -80 -133h-144zM176 512v934h203v-934q0 -164 98 -257t267 -93t269 93q99 93 99 261v930h203v-934q0 -240 -158 -388t-412 -148
q-253 0 -411 148t-158 388z" />
    <glyph glyph-name="utilde" unicode="&#x169;" horiz-adv-x="1224" 
d="M262 1188q0 260 209 260q59 0 104 -35t82 -70t75 -35t58 41q19 40 19 93h143q0 -260 -209 -260q-59 0 -104 35t-82 69t-72 35q-80 0 -79 -133h-144zM141 373v663h199v-618q0 -125 40 -192t155 -66q151 0 243 114t92 277v485h199v-1036h-192v137l4 76h-4
q-39 -90 -141 -164t-240 -74q-355 1 -355 398z" />
    <glyph glyph-name="Umacron" unicode="&#x16a;" horiz-adv-x="1490" 
d="M485 1606v143h523v-143h-523zM176 512v934h203v-934q0 -164 98 -257t267 -93t269 93q99 93 99 261v930h203v-934q0 -240 -158 -388t-412 -148q-253 0 -411 148t-158 388z" />
    <glyph glyph-name="umacron" unicode="&#x16b;" horiz-adv-x="1224" 
d="M346 1245v144h522v-144h-522zM141 373v663h199v-618q0 -125 40 -192t155 -66q151 0 243 114t92 277v485h199v-1036h-192v137l4 76h-4q-39 -90 -141 -164t-240 -74q-355 1 -355 398z" />
    <glyph glyph-name="Ubreve" unicode="&#x16c;" horiz-adv-x="1490" 
d="M1014 1778q0 -112 -79 -176t-191 -64t-190 64t-79 176v28h148v-26q-1 -61 35 -92t86 -31t86 32t36 93v24h148v-28zM176 512v934h203v-934q0 -164 98 -257t267 -93t269 93q99 93 99 261v930h203v-934q0 -240 -158 -388t-412 -148q-253 0 -411 148t-158 388z" />
    <glyph glyph-name="ubreve" unicode="&#x16d;" horiz-adv-x="1224" 
d="M874 1417q0 -113 -78 -176t-191 -63t-191 63t-78 176v29h147v-27q0 -61 36 -92t86 -31t86 32t36 93v25h147v-29zM141 373v663h199v-618q0 -125 40 -192t155 -66q151 0 243 114t92 277v485h199v-1036h-192v137l4 76h-4q-39 -90 -141 -164t-240 -74q-355 1 -355 398z" />
    <glyph glyph-name="Uring" unicode="&#x16e;" horiz-adv-x="1490" 
d="M744 1606q30 0 50 19q19 19 19 50t-19 50q-20 19 -50 19t-48 -18q-18 -20 -18 -51t18 -50t48 -19zM745 1522q-73 0 -123 42t-50 110t50 111q52 42 124 42t122 -42q52 -42 52 -111q0 -68 -52 -110t-123 -42zM176 512v934h203v-934q0 -164 98 -257t267 -93t269 93
q99 93 99 261v930h203v-934q0 -240 -158 -388t-412 -148q-253 0 -411 148t-158 388z" />
    <glyph glyph-name="uring" unicode="&#x16f;" horiz-adv-x="1224" 
d="M539 1315q0 -31 18 -51t48 -19q30 -1 49 19q20 20 20 51t-20 50t-49 19q-30 0 -48 -19t-18 -50zM606 1161q-72 0 -123 42t-51 111q0 68 51 110t123 42t123 -42t51 -110t-51 -111q-51 -42 -123 -42zM141 373v663h199v-618q0 -125 40 -192t155 -66q151 0 243 114t92 277
v485h199v-1036h-192v137l4 76h-4q-39 -90 -141 -164t-240 -74q-355 1 -355 398z" />
    <glyph glyph-name="Uhungarumlaut" unicode="&#x170;" horiz-adv-x="1490" 
d="M475 1546l139 260h179l-146 -260h-172zM791 1546l149 260h207l-197 -260h-159zM176 512v934h203v-934q0 -164 98 -257t267 -93t269 93q99 93 99 261v930h203v-934q0 -240 -158 -388t-412 -148q-253 0 -411 148t-158 388z" />
    <glyph glyph-name="uhungarumlaut" unicode="&#x171;" horiz-adv-x="1224" 
d="M336 1186l139 260h178l-145 -260h-172zM651 1186l150 260h207l-197 -260h-160zM141 373v663h199v-618q0 -125 40 -192t155 -66q151 0 243 114t92 277v485h199v-1036h-192v137l4 76h-4q-39 -90 -141 -164t-240 -74q-355 1 -355 398z" />
    <glyph glyph-name="Uogonek" unicode="&#x172;" horiz-adv-x="1488" 
d="M666 -229q0 106 106 204h-29q-255 -1 -411 147t-156 390v934h201v-934q0 -164 98 -257t267 -93t269 93q99 93 99 261v930h201v-934q0 -193 -90 -308q-69 -86 -155 -145q-85 -59 -110 -76q-24 -17 -72 -62t-48 -91q0 -47 28 -69q29 -22 58 -27l28 -4l-47 -154
q-19 0 -71 15t-84 35t-56 58q-26 38 -26 87z" />
    <glyph glyph-name="uogonek" unicode="&#x173;" horiz-adv-x="1224" 
d="M141 373v663h199v-618q0 -125 40 -192t155 -66q151 0 243 114t92 277v485h199v-1036q-133 -109 -133 -182q0 -35 29 -57t57 -27l29 -4l-47 -154q-21 0 -72 15t-83 35q-31 20 -57 58t-26 87q0 102 111 204v162l4 76h-4q-39 -90 -141 -164t-240 -74q-355 1 -355 398z" />
    <glyph glyph-name="Wcircumflex" unicode="&#x174;" horiz-adv-x="1941" 
d="M692 1546l180 260h207l181 -260h-175l-108 164h-4l-107 -164h-174zM877 1446h180l282 -1061l31 -154h4q6 76 27 154l266 1061h209l-379 -1446h-235l-250 938l-43 205h-4q-18 -113 -43 -205l-250 -938h-236l-368 1446h208l256 -1061l27 -154h4q10 74 31 154z" />
    <glyph glyph-name="wcircumflex" unicode="&#x175;" horiz-adv-x="1667" 
d="M551 1186l180 260h207l180 -260h-174l-108 164h-5l-106 -164h-174zM369 0l-334 1036h211l215 -727l26 -110h5q10 57 26 110l225 725h183l223 -725l29 -110h4q8 57 24 110l217 727h209l-334 -1036h-219l-215 666l-28 112h-5q-12 -59 -28 -112l-213 -666h-221z" />
    <glyph glyph-name="Ycircumflex" unicode="&#x176;" horiz-adv-x="1204" 
d="M319 1546l181 260h207l180 -260h-174l-109 164h-4l-106 -164h-175zM502 0v612l-486 834h230l268 -475l88 -183h4q43 100 88 183l264 475h230l-483 -834v-612h-203z" />
    <glyph glyph-name="ycircumflex" unicode="&#x177;" horiz-adv-x="1044" 
d="M244 1186l180 260h207l180 -260h-174l-109 164h-4l-106 -164h-174zM201 -258q123 0 186 152l51 118l-434 1024h223l260 -678l39 -125h4q16 70 35 123l252 680h215l-485 -1222q-47 -116 -136 -180t-200 -64q-51 0 -101 16t-75 33l-25 14l70 152q57 -43 121 -43z" />
    <glyph glyph-name="Ydieresis" unicode="&#x178;" horiz-adv-x="1204" 
d="M344 1599v207h164v-207h-164zM686 1599v207h164v-207h-164zM502 0v612l-486 834h230l268 -475l88 -183h4q43 100 88 183l264 475h230l-483 -834v-612h-203z" />
    <glyph glyph-name="Zacute" unicode="&#x179;" horiz-adv-x="1243" 
d="M553 1546l149 260h213l-196 -260h-166zM84 0v135l696 1004q45 66 90 118l15 15v4q-39 -6 -109 -6h-655v176h1016v-133l-697 -1006q-60 -84 -90 -114l-14 -17v-4q39 4 108 4h701v-176h-1061z" />
    <glyph glyph-name="zacute" unicode="&#x17a;" horiz-adv-x="1058" 
d="M434 1186l150 260h213l-197 -260h-166zM80 0v115l522 655l86 96v4q-33 -4 -100 -4h-486v170h854v-114l-522 -658l-88 -94v-4q35 4 103 4h526v-170h-895z" />
    <glyph glyph-name="Zdotaccent" unicode="&#x17b;" horiz-adv-x="1243" 
d="M553 1606v200h178v-200h-178zM84 0v135l696 1004q45 66 90 118l15 15v4q-39 -6 -109 -6h-655v176h1016v-133l-697 -1006q-60 -84 -90 -114l-14 -17v-4q39 4 108 4h701v-176h-1061z" />
    <glyph glyph-name="zdotaccent" unicode="&#x17c;" horiz-adv-x="1058" 
d="M432 1245v201h178v-201h-178zM80 0v115l522 655l86 96v4q-33 -4 -100 -4h-486v170h854v-114l-522 -658l-88 -94v-4q35 4 103 4h526v-170h-895z" />
    <glyph glyph-name="Zcaron" unicode="&#x17d;" horiz-adv-x="1243" 
d="M539 1546l-181 260h174l107 -166h4l109 166h174l-181 -260h-206zM84 0v135l696 1004q45 66 90 118l15 15v4q-39 -6 -109 -6h-655v176h1016v-133l-697 -1006q-60 -84 -90 -114l-14 -17v-4q39 4 108 4h701v-176h-1061z" />
    <glyph glyph-name="zcaron" unicode="&#x17e;" horiz-adv-x="1058" 
d="M418 1186l-180 260h174l106 -166h4l109 166h174l-180 -260h-207zM80 0v115l522 655l86 96v4q-33 -4 -100 -4h-486v170h854v-114l-522 -658l-88 -94v-4q35 4 103 4h526v-170h-895z" />
    <glyph glyph-name="longs" unicode="&#x17f;" horiz-adv-x="565" 
d="M211 0v862h-129v160h129v49q0 98 29 171t70 113q106 101 292 101l76 -6v-170q-20 4 -72 4t-103 -28q-95 -53 -93 -191v-1065h-199z" />
    <glyph glyph-name="florin" unicode="&#x192;" horiz-adv-x="1165" 
d="M180 -55q227 0 246 227l47 545h-168v160h182l21 208q8 98 44 171q90 182 287 207q46 7 93 7l172 -14v-172q-102 14 -150 14q-233 0 -249 -227l-19 -194h240v-160h-254l-49 -561q-11 -121 -59 -203t-118 -118q-121 -62 -245 -62l-144 12v172q78 -12 123 -12z" />
    <glyph glyph-name="Scommaaccent" unicode="&#x218;" horiz-adv-x="1118" 
d="M651 -242q0 -66 -51 -176h-151q39 110 39 172t-25 125h174q14 -55 14 -121zM569 164q106 0 179 57q72 57 72 165t-140 187q-61 35 -136 67t-150 69t-136 82t-100 115t-39 161q0 170 132 287t335 116q119 0 221 -36t145 -74l43 -35l-92 -168q-44 44 -139 84
q-96 41 -194 41t-172 -61t-74 -147t72 -142q72 -57 174 -98q102 -40 206 -90t176 -141t72 -220q0 -174 -125 -291t-316 -117t-312 63t-165 109l-20 19l115 153q98 -98 248 -139q61 -16 120 -16z" />
    <glyph glyph-name="scommaaccent" unicode="&#x219;" horiz-adv-x="917" 
d="M559 -242q0 -66 -51 -176h-152q40 110 40 172t-25 125h174q14 -55 14 -121zM460 147q75 0 126 35t51 90q0 54 -55 94t-133 70t-156 65t-133 103t-56 162q0 137 106 216t269 79q101 0 185 -29t116 -57l33 -29l-80 -149q-34 34 -109 63q-74 29 -146 29t-122 -32
q-49 -32 -49 -89t55 -94q56 -37 134 -67q78 -29 156 -65t132 -104q55 -68 56 -162q0 -131 -104 -216t-271 -85q-113 0 -211 38t-139 77l-43 37l96 141q35 -41 126 -81t166 -40z" />
    <glyph glyph-name="uni021A" unicode="&#x21a;" horiz-adv-x="1214" 
d="M700 -242q0 -66 -51 -176h-151q39 110 39 172t-25 125h174q14 -55 14 -121zM506 0v1270h-496v176h1194v-176h-495v-1270h-203z" />
    <glyph glyph-name="uni021B" unicode="&#x21b;" horiz-adv-x="733" 
d="M381 -246q0 62 -25 125h174q14 -55 14 -121t-50 -176h-152q39 110 39 172zM199 379v483h-136v160h142v299h192v-299h250v-160h-250v-461q0 -160 112 -211q50 -22 109 -22l48 4v-176q-29 -4 -74 -4q-183 0 -292 101q-42 40 -72 114q-29 74 -29 172z" />
    <glyph glyph-name="circumflex" unicode="&#x2c6;" horiz-adv-x="1021" 
d="M227 1546l181 260h206l181 -260h-174l-109 164h-4l-107 -164h-174z" />
    <glyph glyph-name="caron" unicode="&#x2c7;" horiz-adv-x="1021" 
d="M408 1546l-181 260h174l107 -166h4l109 166h174l-181 -260h-206z" />
    <glyph glyph-name="breve" unicode="&#x2d8;" horiz-adv-x="1021" 
d="M780 1778q0 -112 -78 -176t-191 -64t-191 64t-78 176v28h147v-26q0 -61 36 -92t86 -31t86 32t36 93v24h147v-28z" />
    <glyph glyph-name="dotaccent" unicode="&#x2d9;" horiz-adv-x="1024" 
d="M422 1606v200h178v-200h-178z" />
    <glyph glyph-name="ring" unicode="&#x2da;" horiz-adv-x="1024" 
d="M511 1606q30 0 49 19q20 19 20 50t-20 50t-49 19q-30 0 -48 -18q-19 -20 -19 -51t18 -50t49 -19zM512 1522q-72 0 -123 42t-51 110t51 111q51 42 123 42t123 -42t51 -111q0 -68 -51 -110t-123 -42z" />
    <glyph glyph-name="ogonek" unicode="&#x2db;" horiz-adv-x="1021" 
d="M348 -231q0 47 24 101t108 127q30 26 50 38l21 12l125 -27q-61 -40 -109 -101q-49 -60 -49 -98t29 -60t57 -27l29 -4l-47 -154q-10 0 -57 9t-89 35q-40 26 -66 64t-26 85z" />
    <glyph glyph-name="tilde" unicode="&#x2dc;" horiz-adv-x="1021" 
d="M166 1548q0 260 209 260q59 0 104 -34t82 -70q37 -35 75 -35t57 40t20 93h143q0 -260 -209 -260q-59 0 -104 35t-82 70t-72 34q-80 0 -80 -133h-143z" />
    <glyph glyph-name="hungarumlaut" unicode="&#x2dd;" horiz-adv-x="1021" 
d="M176 1546l139 260h179l-146 -260h-172zM492 1546l149 260h207l-197 -260h-159z" />
    <glyph glyph-name="uni1E9E" unicode="&#x1e9e;" horiz-adv-x="1413" 
d="M180 0v1036q0 178 118 294t298 116h651v-137l-284 -416l-50 -68v-4h27q166 0 267 -122q101 -121 101 -287t-125 -289q-126 -123 -302 -123h-297v176h282q102 0 168 72t66 173t-65 170t-191 68h-154v142l232 346q86 125 90 125v4q-14 -6 -88 -6h-322q-94 0 -156 -66
t-61 -164v-1040h-205z" />
    <glyph glyph-name="thinspace" unicode="&#x2009;" horiz-adv-x="28" 
 />
    <glyph glyph-name="endash" unicode="&#x2013;" horiz-adv-x="1445" 
d="M184 504v160h1078v-160h-1078z" />
    <glyph glyph-name="emdash" unicode="&#x2014;" horiz-adv-x="1855" 
d="M184 504v160h1487v-160h-1487z" />
    <glyph glyph-name="quoteleft" unicode="&#x2018;" horiz-adv-x="464" 
d="M100 1069l136 399h145l-88 -399h-193z" />
    <glyph glyph-name="quoteright" unicode="&#x2019;" horiz-adv-x="448" 
d="M104 1071l89 399h192l-133 -399h-148z" />
    <glyph glyph-name="quotesinglbase" unicode="&#x201a;" horiz-adv-x="499" 
d="M86 -184l88 399h186l-133 -399h-141z" />
    <glyph glyph-name="quotedblleft" unicode="&#x201c;" horiz-adv-x="755" 
d="M100 1069l136 399h147l-88 -399h-195zM389 1069l135 399h148l-88 -399h-195z" />
    <glyph glyph-name="quotedblright" unicode="&#x201d;" horiz-adv-x="737" 
d="M104 1071l89 399h194l-135 -399h-148zM393 1071l88 399h195l-133 -399h-150z" />
    <glyph glyph-name="quotedblbase" unicode="&#x201e;" horiz-adv-x="784" 
d="M86 -184l88 399h186l-133 -399h-141zM369 -184l88 399h188l-133 -399h-143z" />
    <glyph glyph-name="dagger" unicode="&#x2020;" horiz-adv-x="864" 
d="M334 -102v981h-248v157h248v410h190v-410h254v-157h-254v-981h-190z" />
    <glyph glyph-name="daggerdbl" unicode="&#x2021;" horiz-adv-x="937" 
d="M123 350v160h248v369h-248v157h248v410h190v-410h254v-157h-254v-369h254v-160h-254v-452h-190v452h-248z" />
    <glyph glyph-name="bullet" unicode="&#x2022;" horiz-adv-x="841" 
d="M422 279q-131 0 -224 92t-94 225q0 133 94 225t224 92q131 0 223 -93t92 -224t-92 -224t-223 -93z" />
    <glyph glyph-name="ellipsis" unicode="&#x2026;" horiz-adv-x="1576" 
d="M156 0v211h202v-211h-202zM686 0v211h205v-211h-205zM1219 0v211h202v-211h-202z" />
    <glyph glyph-name="perthousand" unicode="&#x2030;" horiz-adv-x="2283" 
d="M1151 432q-63 0 -107 -45t-45 -109q0 -64 43 -108q44 -43 108 -43t108 44q44 43 44 107t-44 109t-107 45zM1876 432q-64 0 -108 -45t-44 -109t43 -108q43 -43 109 -43t109 43q43 44 43 108t-44 109t-108 45zM840 278q0 126 91 215t219 89t220 -89t92 -214t-92 -214
t-221 -89t-219 88t-90 214zM1567 278q0 126 90 215t219 89t220 -89t91 -214t-91 -214t-220 -89t-219 88t-90 214zM408 1016q63 0 107 43t44 107t-44 110t-107 45q-64 0 -108 -45t-44 -110q0 -66 44 -108t108 -42zM129 0l1106 1446h192l-1105 -1446h-193zM408 864
q-129 0 -220 88q-90 88 -90 214t90 215t220 89t220 -89q91 -89 91 -214t-91 -214t-220 -89z" />
    <glyph glyph-name="guilsinglleft" unicode="&#x2039;" horiz-adv-x="727" 
d="M426 158l-336 420l336 421h199l-336 -421l336 -420h-199z" />
    <glyph glyph-name="guilsinglright" unicode="&#x203a;" horiz-adv-x="727" 
d="M102 158l336 420l-336 421h199l336 -421l-336 -420h-199z" />
    <glyph glyph-name="fraction" unicode="&#x2044;" horiz-adv-x="344" 
d="M-94 0h-154l688 1446h154z" />
    <glyph glyph-name="zerosuperior" unicode="&#x2070;" 
d="M231 1312q0 -326 167 -325q167 0 167 326t-168 325q-166 0 -166 -326zM398 846q-322 0 -322 468t322 468t323 -468q0 -468 -323 -468z" />
    <glyph glyph-name="foursuperior" unicode="&#x2074;" 
d="M213 1221h258v252l6 118h-4q-29 -55 -59 -98l-201 -268v-4zM471 866v219h-426v103l412 573h166v-540h125v-136h-125v-219h-152z" />
    <glyph glyph-name="fivesuperior" unicode="&#x2075;" 
d="M381 846q-86 0 -159 35t-103 69l-31 35l92 105q25 -38 80 -71q55 -32 122 -32t120 48t53 120t-53 121t-135 49t-131 -35l-19 -10l-86 33l47 448h475v-137h-348l-14 -127l-10 -65h4q47 20 114 20q135 0 223 -87t89 -212q-1 -125 -93 -216t-237 -91z" />
    <glyph glyph-name="sixsuperior" unicode="&#x2076;" 
d="M418 987q72 0 112 48t39 122q0 74 -45 122q-44 48 -114 48t-118 -34t-48 -74q0 -86 51 -159t123 -73zM415 846q-140 0 -236 113q-95 114 -95 303q0 282 177 437q95 83 228 83q93 0 166 -33l23 -12l-49 -131q-67 32 -147 32t-144 -72q-63 -73 -82 -184h4q68 63 164 64
q133 0 216 -82t83 -215t-84 -218t-224 -85z" />
    <glyph glyph-name="sevensuperior" unicode="&#x2077;" 
d="M444 1624h-350v137h619v-104l-426 -791h-168l358 662l58 96v4q-39 -4 -91 -4z" />
    <glyph glyph-name="eightsuperior" unicode="&#x2078;" 
d="M266 1541q0 -48 35 -83t67 -50t105 -46q78 78 78 168q0 55 -44 87q-45 32 -103 32t-98 -30t-40 -78zM559 1112q0 57 -59 97t-178 89q-98 -76 -98 -157t51 -121q53 -40 119 -41q66 0 116 38q49 38 49 95zM715 1112q0 -122 -93 -194q-92 -72 -224 -72t-228 74t-96 205
q0 132 143 231q-100 72 -100 186t85 176q85 64 203 64q119 0 205 -65t86 -181t-112 -227q131 -76 131 -197z" />
    <glyph glyph-name="ninesuperior" unicode="&#x2079;" 
d="M227 1473q0 -74 45 -123q44 -50 114 -50t119 34q48 34 48 75q0 86 -52 159q-52 72 -124 72t-111 -46t-39 -121zM74 1479q0 131 84 217t223 86t234 -114t96 -302q0 -286 -175 -437q-95 -83 -212 -83t-185 35l-22 10l51 131q68 -33 148 -33t141 72t82 184h-4
q-63 -63 -180 -63t-199 83t-82 214z" />
    <glyph glyph-name="zeroinferior" unicode="&#x2080;" 
d="M398 -201q167 0 167 326t-167 326t-167 -326t167 -326zM398 -342q-322 0 -322 468t322 468t323 -468q0 -468 -323 -468z" />
    <glyph glyph-name="oneinferior" unicode="&#x2081;" 
d="M145 -322v136h191v510l4 53h-4q-8 -18 -37 -45l-72 -70l-94 100l217 211h139v-759h187v-136h-531z" />
    <glyph glyph-name="twoinferior" unicode="&#x2082;" 
d="M530 319q0 57 -42 95t-96 39q-54 0 -97 -25t-64 -49l-20 -25l-100 92q60 90 179 132q48 16 101 16q127 0 211 -75t84 -193q0 -82 -42 -148t-103 -108t-123 -78q-148 -89 -154 -178h436v-136h-598l-6 74q0 96 45 171t109 121t126 86q154 97 154 189z" />
    <glyph glyph-name="threeinferior" unicode="&#x2083;" 
d="M383 -344q-92 0 -167 34t-105 68l-29 33l86 109q24 -36 86 -69q63 -34 127 -34t115 45t51 112q0 68 -54 106t-128 38h-70l-33 78l182 211l50 49v4q-39 -6 -74 -6h-289v137h555v-98l-223 -258q102 -14 171 -81q68 -66 68 -184t-91 -206t-228 -88z" />
    <glyph glyph-name="fourinferior" unicode="&#x2084;" 
d="M213 33h258v252l6 118h-4q-29 -55 -59 -98l-201 -268v-4zM471 -322v220h-426v102l412 573h166v-540h125v-135h-125v-220h-152z" />
    <glyph glyph-name="fiveinferior" unicode="&#x2085;" 
d="M381 -342q-86 0 -159 35t-103 69l-31 35l92 105q25 -38 80 -71q55 -32 122 -32t120 48t53 120t-53 121t-135 49t-131 -35l-19 -10l-86 33l47 448h475v-137h-348l-14 -127l-10 -65h4q47 20 114 20q135 0 223 -87t89 -212q-1 -125 -93 -216t-237 -91z" />
    <glyph glyph-name="sixinferior" unicode="&#x2086;" 
d="M418 -201q72 0 112 48t39 122q0 74 -45 122q-44 48 -114 48t-118 -34t-48 -74q0 -86 51 -159t123 -73zM415 -342q-140 0 -236 114q-95 114 -95 302q0 282 177 437q95 83 211 83t183 -33l23 -12l-49 -131q-67 33 -147 33t-144 -73t-82 -183h4q68 63 182 63t198 -82
q83 -82 83 -215t-84 -218t-224 -85z" />
    <glyph glyph-name="seveninferior" unicode="&#x2087;" 
d="M444 434h-350v137h619v-104l-426 -791h-168l358 662l58 96v4q-39 -4 -91 -4z" />
    <glyph glyph-name="eightinferior" unicode="&#x2088;" 
d="M266 355q0 -48 35 -83t67 -50t105 -46q78 78 78 168q0 55 -44 87q-45 32 -103 32t-98 -30t-40 -78zM559 -74q0 57 -54 93t-113 62q-58 26 -70 32q-98 -76 -98 -157t51 -122q53 -41 119 -41t116 38q49 38 49 95zM74 -60q0 132 143 230q-100 72 -100 186t85 176
q85 64 203 64q119 0 205 -65t86 -181t-112 -227q131 -76 131 -197q0 -122 -93 -194q-92 -72 -224 -72t-228 74t-96 206z" />
    <glyph glyph-name="nineinferior" unicode="&#x2089;" 
d="M227 285q0 -74 45 -123q44 -49 114 -49t119 33q48 34 48 75q0 86 -52 159t-124 73t-111 -47t-39 -121zM74 291q0 131 84 217t223 86t234 -114t96 -302q0 -284 -175 -437q-95 -83 -212 -83t-185 35l-22 10l51 131q68 -33 148 -33t141 72t82 184h-4q-63 -63 -180 -63
t-199 83t-82 214z" />
    <glyph glyph-name="Euro" unicode="&#x20ac;" horiz-adv-x="1210" 
d="M78 528v129h112q-8 82 0 148h-112v131h137q61 236 251 386t441 148q102 0 180 -18l27 -6l-49 -186q-76 23 -162 22q-170 0 -296 -94t-177 -252h576l-27 -131h-578q-12 -68 -2 -148h553l-26 -129h-492q47 -162 177 -261t300 -99q107 0 162 20l25 7l39 -185
q-98 -35 -230 -35q-258 0 -447 153t-247 400h-135z" />
    <glyph glyph-name="trademark" unicode="&#x2122;" horiz-adv-x="1925" 
d="M358 545v764h-311v137h778v-137h-311v-764h-156zM891 545l72 901h141l213 -471l29 -86h4q12 49 26 86l213 471h144l69 -901h-153l-43 538l2 62h-4l-195 -434h-125l-194 434h-5l2 -62l-43 -538h-153z" />
    <glyph glyph-name="minus" unicode="&#x2212;" horiz-adv-x="1255" 
d="M98 504v160h1059v-160h-1059z" />
    <glyph glyph-name="infinity" unicode="&#x221e;" horiz-adv-x="1040" 
d="M521 342q-155 0 -265 110t-109 264q0 154 110 262q111 108 265 108t262 -108t109 -262q-1 -154 -109 -264t-263 -110z" />
    <glyph glyph-name="approxequal" unicode="&#x2248;" horiz-adv-x="1255" 
d="M426 541q102 0 220 -72t185 -72q121 0 226 113l84 -121q-143 -147 -310 -147q-102 0 -220 72t-185 71q-116 0 -225 -113l-84 119q141 150 309 150zM426 928q102 0 220 -72t185 -72q121 0 226 113l84 -121q-143 -147 -310 -147q-102 -1 -220 71t-185 72q-114 0 -225 -115
l-84 121q141 150 309 150z" />
    <glyph glyph-name="notequal" unicode="&#x2260;" horiz-adv-x="1255" 
d="M139 309v160h332l164 227h-496v160h602l168 236l105 -72l-119 -164h221v-160h-328l-161 -227h489v-160h-598l-162 -229l-106 70l115 159h-226z" />
    <glyph glyph-name="lessequal" unicode="&#x2264;" horiz-adv-x="1255" 
d="M139 -195h953v-159h-953v159zM137 516v135l955 426v-182l-734 -309v-4l734 -310v-182z" />
    <glyph glyph-name="greaterequal" unicode="&#x2265;" horiz-adv-x="1255" 
d="M164 -195h952v-159h-952v159zM164 90v182l733 310v4l-733 309v182l956 -426v-135z" />
    <glyph glyph-name="commaaccent" horiz-adv-x="686" 
d="M446 -242q0 -66 -51 -176h-151q39 110 39 172t-25 125h174q14 -55 14 -121z" />
    <glyph glyph-name="apple" horiz-adv-x="2314" 
d="M897 186h162v418h422v141h-422v338h309q29 0 39 -12t10 -41v-67h150v151q0 57 -25 83t-86 26h-678v-140h119v-897zM496 131v248l-203 123v461l203 118v252l440 234l225 -121l219 121l439 -234v-252l204 -118v-461l-204 -123v-248l-439 -233l-219 118l-225 -118zM426 61
l487 -258l248 136l242 -136l487 258v285l234 131v510l-234 135v279l-487 258l-242 -131l-248 131l-487 -258v-279l-233 -135v-510l233 -131v-285zM344 -10v311l-258 148v569l258 145v310l543 290l274 -145l271 145l542 -290v-310l254 -145v-569l-254 -148v-311l-542 -289
l-271 145l-274 -145z" />
    <glyph glyph-name="zero.tnum" horiz-adv-x="1175" 
d="M591 162q304 0 304 561t-304 561t-304 -561t304 -561zM591 -25q-511 -1 -511 747t511 748t511 -748t-511 -747z" />
    <glyph glyph-name="one.tnum" horiz-adv-x="1175" 
d="M199 0v176h319v934l2 90h-4q-16 -33 -70 -84l-135 -133l-123 127l347 336h180v-1270h315v-176h-831z" />
    <glyph glyph-name="two.tnum" horiz-adv-x="1175" 
d="M131 111q0 121 52 224t131 171t171 136t171 121q79 54 131 127q53 72 53 164t-73 159t-185 67t-187 -63q-76 -63 -96 -103l-12 -18l-150 100q7 10 17 30t50 66q40 47 88 83t129 66t173 29q201 0 329 -114t128 -301q0 -97 -38 -181t-119 -163t-209 -164
q-128 -86 -189 -135q-140 -112 -140 -236h717v-176h-932q-10 66 -10 111z" />
    <glyph glyph-name="three.tnum" horiz-adv-x="1175" 
d="M578 168q108 0 194 75t86 195t-96 191q-96 70 -240 69h-100l-47 109l315 371l90 94v4q-43 -6 -123 -6h-489v176h864v-129l-393 -453q168 -18 296 -124t128 -300q0 -192 -137 -328t-355 -137q-131 -1 -247 49t-168 99l-54 49l111 154q16 -18 45 -44t121 -70
q91 -44 199 -44z" />
    <glyph glyph-name="four.tnum" horiz-adv-x="1175" 
d="M266 559h477v526l9 144h-4q-33 -68 -72 -119l-410 -547v-4zM43 387v127l668 932h231v-887h197v-172h-197v-387h-199v387h-700z" />
    <glyph glyph-name="five.tnum" horiz-adv-x="1175" 
d="M856 461q0 129 -94 213t-221 84t-230 -53l-28 -19l-117 43l72 717h729v-176h-553l-35 -305l-10 -76h4q80 45 186 45q223 0 363 -136t141 -340q-1 -204 -147 -343t-365 -140q-169 0 -281 68t-145 113l-16 20l112 148q12 -18 48 -50q117 -106 259 -106t235 82t93 211z" />
    <glyph glyph-name="six.tnum" horiz-adv-x="1175" 
d="M305 561q1 -147 97 -273t223 -126t199 84t73 216q0 132 -81 217t-209 85t-215 -62t-87 -141zM633 -25q-237 1 -389 189t-152 490t157 548q77 121 205 195t289 73q76 0 146 -14t102 -31l33 -14l-66 -174q-92 47 -206 47q-186 0 -297 -142t-138 -343h5q45 61 134 99t185 38
q203 0 330 -136t127 -345t-131 -345t-334 -135z" />
    <glyph glyph-name="seven.tnum" horiz-adv-x="1175" 
d="M768 1270h-645v176h967v-139l-654 -1307h-209l564 1139q36 75 83 133v4q-33 -6 -106 -6z" />
    <glyph glyph-name="eight.tnum" horiz-adv-x="1175" 
d="M858 1071q0 97 -72 157t-188 60t-180 -58q-66 -58 -66 -144q0 -87 70 -143t130 -81q60 -26 110 -46t69 -30q127 127 127 285zM289 430q0 -121 88 -197q88 -75 207 -75q120 0 204 70t84 175q0 130 -216 226q-36 16 -97 44t-96 44q-174 -121 -174 -287zM82 418
q0 153 103 267q74 81 128 118q-161 117 -161 281t116 276t327 110q210 0 336 -105t126 -287t-172 -371q197 -121 197 -301t-139 -306q-138 -125 -357 -125t-362 124q-142 124 -142 319z" />
    <glyph glyph-name="nine.tnum" horiz-adv-x="1175" 
d="M572 682q130 0 216 62t86 141q0 147 -96 273t-224 126t-200 -84t-72 -216t81 -217q80 -85 209 -85zM436 -25q-76 1 -146 15t-102 30l-32 15l65 176q92 -49 207 -49q186 0 297 142t137 343h-4q-43 -61 -133 -98t-186 -37q-203 0 -330 135t-127 344t131 344t334 135
q233 0 387 -188t154 -490t-157 -548q-77 -121 -205 -195t-290 -74z" />
    <glyph glyph-name="hyphen.case" horiz-adv-x="1044" 
d="M223 625v176h598v-176h-598z" />
    <glyph glyph-name="parenleft.case" horiz-adv-x="696" 
d="M188 758q0 430 238 809h174q-231 -387 -231 -833t231 -867h-174q-238 395 -238 891z" />
    <glyph glyph-name="parenright.case" horiz-adv-x="696" 
d="M508 758q0 -496 -238 -891h-174q231 420 232 889q0 424 -232 811h174q238 -379 238 -809z" />
    <glyph glyph-name="bracketleft.case" horiz-adv-x="718" 
d="M244 -133v1700h338v-150h-164v-1399h164v-151h-338z" />
    <glyph glyph-name="bracketright.case" horiz-adv-x="720" 
d="M477 1567v-1700h-340v151h164v1399h-164v150h340z" />
    <glyph glyph-name="braceleft.case" horiz-adv-x="823" 
d="M315 219v197q0 146 -111 204q-20 10 -63 19v176q23 1 57 17q117 57 117 210v172q0 92 26 161t61 105q91 91 245 91l47 -2v-152h-28q-53 -1 -96 -27q-79 -50 -81 -188v-211q0 -142 -106 -226q-31 -23 -59 -34v-4q102 -34 147 -153q18 -48 18 -107v-236q0 -137 71 -181
q54 -32 106 -34h28v-151q-18 -4 -51 -4t-69 5t-86 28q-50 22 -86 58t-62 106t-25 161z" />
    <glyph glyph-name="braceright.case" horiz-adv-x="823" 
d="M129 16h29q50 0 93 26q81 49 83 189v236q0 94 42 159t83 83l41 18v4q-23 8 -55 30q-111 79 -111 230v211q0 139 -71 181q-57 34 -105 34h-29v152q18 2 51 2t69 -5t86 -28q50 -22 86 -58q35 -36 61 -105t26 -161v-172q0 -155 112 -207q22 -11 62 -20v-176q-21 0 -56 -16
q-34 -16 -58 -38q-60 -55 -60 -169v-197q0 -92 -26 -162q-26 -69 -62 -105q-90 -90 -244 -91l-47 4v151z" />
    <glyph glyph-name="at.case" horiz-adv-x="1710" 
d="M797 723q-1 -100 67 -171t170 -71h207v486h-203q-104 0 -172 -72t-69 -172zM152 721q0 317 217 537t511 220t424 -117q128 -118 128 -300v-580h147v-149h-559q-186 0 -305 114t-119 272t118 272t306 114h221q-4 92 -91 151t-241 60q-235 0 -397 -176t-162 -421t163 -416
t419 -171v-162q-340 -1 -560 217t-220 535z" />
    <glyph glyph-name="guillemotleft.case" horiz-adv-x="1214" 
d="M465 281l-336 419l336 422h199l-336 -422l336 -419h-199zM877 281l-336 419l336 422h198l-336 -422l336 -419h-198z" />
    <glyph glyph-name="guillemotright.case" horiz-adv-x="1216" 
d="M139 281l336 419l-336 422h199l336 -422l-336 -419h-199zM553 281l336 419l-336 422h199l335 -422l-335 -419h-199z" />
    <glyph glyph-name="guilsinglleft.case" horiz-adv-x="802" 
d="M465 281l-336 419l336 422h199l-336 -422l336 -419h-199z" />
    <glyph glyph-name="guilsinglright.case" horiz-adv-x="802" 
d="M139 281l336 419l-336 422h199l336 -422l-336 -419h-199z" />
    <glyph glyph-name="endash.case" horiz-adv-x="1523" 
d="M223 627v159h1077v-159h-1077z" />
    <glyph glyph-name="emdash.case" horiz-adv-x="1933" 
d="M223 627v159h1487v-159h-1487z" />
    <glyph glyph-name="periodcentered.case" horiz-adv-x="632" 
d="M215 602v211h203v-211h-203z" />
    <glyph glyph-name="questiondown.case" horiz-adv-x="1052" 
d="M510 969v80h192v-93q0 -86 -36 -158t-86 -119q-52 -48 -102 -93q-122 -109 -122 -221q0 -85 67 -145t167 -60q58 0 116 22t89 43l28 23l109 -142q-12 -12 -55 -40q-134 -88 -307 -90t-298 102t-125 274t127 290q53 50 108 96q128 109 128 231zM506 1247v199h203v-199
h-203z" />
    <glyph glyph-name="exclamdown.case" horiz-adv-x="714" 
d="M254 0l14 1049h178l13 -1049h-205zM254 1247v199h203v-199h-203z" />
    <glyph glyph-name="bullet.case" horiz-adv-x="919" 
d="M461 406q-131 0 -224 93t-93 225t92 224t224 92t224 -93t92 -224t-92 -224t-223 -93z" />
    <glyph glyph-name="zero.p_osf" horiz-adv-x="1198" 
d="M307 559q0 -170 75 -291t218 -121t217 121t74 290t-75 291t-217 122t-217 -121t-75 -291zM106 557q0 336 217 499q116 87 277 87q238 0 365 -173t127 -414t-126 -411t-366 -170t-367 171t-127 411z" />
    <glyph glyph-name="one.p_osf" horiz-adv-x="972" 
d="M131 0v170h311v627l2 121h-4q-33 -31 -80 -60l-186 -110l-90 139l375 231h176v-948h283v-170h-787z" />
    <glyph glyph-name="two.p_osf" horiz-adv-x="1091" 
d="M113 0v137q311 205 471 352t159 279q0 100 -68 150q-69 49 -157 49t-165 -39t-115 -76l-41 -39l-107 131q16 22 68 62q173 137 365 137q193 1 308 -99t115 -260t-130 -304q-130 -142 -402 -312v-4q41 6 123 6h462v-170h-886z" />
    <glyph glyph-name="three.p_osf" horiz-adv-x="1056" 
d="M459 -90q123 0 209 70t86 188t-100 184t-234 66h-107l-45 104l297 338q41 47 78 78l12 12v2q-43 -6 -123 -6h-421v172h811v-117l-396 -434q157 -12 285 -99q65 -44 105 -121t40 -173q0 -188 -137 -312t-350 -124t-369 118q-37 28 -55 46l-16 18l102 139
q149 -149 328 -149z" />
    <glyph glyph-name="four.p_osf" horiz-adv-x="1206" 
d="M727 240v524l8 145h-4q-33 -76 -72 -129l-383 -540h451zM55 68v127l635 923h236v-878h207v-172h-207v-306h-199v306h-672z" />
    <glyph glyph-name="five.p_osf" horiz-adv-x="1085" 
d="M475 473q-63 0 -125 -15t-92 -32l-29 -16l-112 41l71 667h705v-172h-535l-30 -278l-13 -72h4q82 39 191 39q213 0 349 -117q136 -118 136 -318t-144 -325t-364 -125q-158 0 -265 60q-108 60 -146 104l-17 20l105 136q10 -15 47 -46t70 -50q83 -48 202 -49t214 72t96 202
t-93 201t-225 73z" />
    <glyph glyph-name="six.p_osf" horiz-adv-x="1196" 
d="M330 522q0 -139 93 -257t223 -118t200 79t69 204q0 125 -78 203q-79 78 -206 78q-127 1 -214 -57t-87 -132zM770 1208q-182 0 -294 -137t-138 -330h4q47 61 135 97t187 36q200 0 326 -126t126 -320q0 -195 -130 -324t-347 -129t-368 171q-150 171 -150 455t152 521
q75 115 202 187q127 71 280 71t257 -41l30 -14l-65 -162q-92 45 -207 45z" />
    <glyph glyph-name="seven.p_osf" horiz-adv-x="1052" 
d="M678 948h-619v170h942v-131l-624 -1225h-209l537 1063q37 80 63 109l10 14v4q-29 -4 -100 -4z" />
    <glyph glyph-name="eight.p_osf" horiz-adv-x="1193" 
d="M858 1006q0 94 -70 149t-182 55t-176 -54q-65 -54 -65 -136t71 -135q71 -54 126 -77q54 -22 104 -42t67 -29q125 125 125 269zM305 403q0 -113 86 -185t204 -71q118 0 202 65t84 159t-85 148t-186 96q-100 43 -127 55q-178 -111 -178 -267zM104 391q0 132 85 228t143 133
q-162 109 -162 264q0 156 115 260t317 104t327 -99q124 -99 124 -265q0 -82 -43 -171t-71 -123t-52 -58q195 -113 195 -283t-136 -288q-135 -118 -348 -118q-214 0 -354 117t-140 299z" />
    <glyph glyph-name="nine.p_osf" horiz-adv-x="1196" 
d="M567 408q127 0 213 57t86 133q0 137 -93 255t-223 118t-200 -79t-70 -204t80 -203q80 -77 207 -77zM426 -90q184 0 296 138t136 331h-4q-45 -63 -134 -99t-188 -36q-200 0 -326 126t-126 322t130 323q130 128 347 128t368 -171t151 -455t-153 -521q-75 -114 -202 -186
t-279 -72t-256 41l-32 14l65 162q92 -45 207 -45z" />
    <glyph glyph-name="zero.t_osf" horiz-adv-x="1175" 
d="M299 559q0 -170 75 -291t218 -121t217 121t74 290t-75 291t-217 122t-217 -121t-75 -291zM98 557q0 337 216 499q116 87 278 87q238 0 364 -173t127 -414q0 -241 -126 -411q-125 -170 -365 -170t-367 171t-127 411z" />
    <glyph glyph-name="one.t_osf" horiz-adv-x="1175" 
d="M248 0v170h311v627l2 121h-4q-33 -31 -80 -60l-186 -110l-90 139l374 231h177v-948h282v-170h-786z" />
    <glyph glyph-name="two.t_osf" horiz-adv-x="1175" 
d="M168 0v137q311 205 471 352t160 279q0 100 -69 150t-157 49q-89 0 -165 -39t-117 -76l-39 -39l-107 131q16 22 68 62q173 137 366 137q193 1 308 -99t115 -260t-131 -304q-130 -142 -402 -312v-4q41 6 123 6h463v-170h-887z" />
    <glyph glyph-name="three.t_osf" horiz-adv-x="1175" 
d="M539 -88q123 0 207 70t85 188q0 118 -98 184t-233 66h-107l-45 104l297 336q46 53 76 78l12 12v2q-43 -6 -121 -6h-422v172h809v-117l-393 -432q155 -12 283 -99q65 -44 105 -121t40 -173q0 -188 -137 -312t-354 -124q-127 0 -236 46t-153 91l-45 45l102 139
q149 -149 328 -149z" />
    <glyph glyph-name="four.t_osf" horiz-adv-x="1175" 
d="M729 240v524l8 145h-4q-33 -76 -71 -129l-383 -540h450zM57 68v127l635 923h236v-878h207v-172h-207v-306h-199v306h-672z" />
    <glyph glyph-name="five.t_osf" horiz-adv-x="1175" 
d="M852 199q0 129 -93 201t-224 73q-63 0 -125 -15t-91 -32l-30 -16l-113 41l72 667h704v-172h-534l-31 -278l-12 -72h4q82 39 190 39q213 0 349 -117q136 -118 137 -318q-1 -200 -145 -325t-363 -125q-159 0 -266 60q-108 60 -146 104l-16 20l104 136q8 -12 46 -44
q38 -33 71 -52q83 -48 202 -49t215 72q95 73 95 202z" />
    <glyph glyph-name="six.t_osf" horiz-adv-x="1175" 
d="M301 522q0 -139 93 -257q94 -118 224 -118t200 79t69 204q0 125 -79 203t-206 78q-127 1 -214 -57t-87 -132zM741 1208q-182 0 -294 -137t-138 -330h4q47 61 135 97t187 36q201 0 327 -126t126 -320q0 -195 -131 -324q-130 -129 -330 -129q-233 0 -384 171t-151 456
t153 520q75 115 201 187t287 71q76 0 147 -14t103 -27l31 -14l-66 -162q-92 45 -207 45z" />
    <glyph glyph-name="seven.t_osf" horiz-adv-x="1175" 
d="M737 948h-618v170h942v-131l-625 -1225h-209l537 1063q32 69 74 123v4q-29 -4 -101 -4z" />
    <glyph glyph-name="eight.t_osf" horiz-adv-x="1175" 
d="M848 1006q0 94 -70 149t-182 55t-176 -54q-66 -54 -66 -135t74 -138q74 -56 126 -77q52 -20 101 -40t68 -29q125 125 125 269zM295 403q0 -113 86 -185t204 -71q117 0 201 65t84 160t-85 148t-185 95q-100 43 -127 55q-178 -111 -178 -267zM94 391q0 131 94 241
q73 82 134 120q-162 109 -162 264t114 260q115 104 318 104t327 -99t123 -265q0 -82 -43 -171t-71 -123t-51 -58q195 -113 195 -283t-136 -288q-135 -118 -348 -118t-354 117q-140 117 -140 299z" />
    <glyph glyph-name="nine.t_osf" horiz-adv-x="1175" 
d="M578 408q127 0 213 57t86 133q1 137 -93 255t-224 118t-200 -79t-70 -204q0 -124 81 -202q80 -78 207 -78zM436 -90q184 0 296 138t136 331h-4q-45 -63 -134 -99t-187 -36q-201 0 -327 126t-126 322t130 323q130 128 347 128t368 -171t151 -457t-153 -519
q-75 -114 -202 -186t-285 -72q-76 0 -146 14t-103 27l-33 14l65 162q92 -45 207 -45z" />
    <glyph glyph-name="dollar.osf" horiz-adv-x="1083" 
d="M565 156q76 0 138 43q63 43 63 110t-64 113t-153 81q-90 34 -180 75t-154 116q-63 76 -63 178q0 136 94 224t246 106v180h143v-178q92 -8 169 -39t107 -59l31 -27l-84 -157q-41 41 -123 75q-82 33 -169 33t-147 -40t-61 -122q0 -59 64 -103t153 -78q91 -34 181 -74
q90 -41 153 -115t63 -194t-96 -213q-97 -93 -255 -109v-191h-144v189q-109 12 -202 61t-132 90l-41 43l107 145q6 -6 16 -17q43 -48 125 -97q83 -49 215 -49z" />
    <glyph glyph-name="cent.osf" horiz-adv-x="1142" 
d="M109 612q0 193 117 329q118 136 313 169v172h149v-166q98 -8 184 -48t123 -77l37 -35l-92 -147q-12 14 -35 36q-23 21 -97 57t-155 36q-152 0 -249 -92t-97 -234t97 -234q97 -93 249 -93q80 1 152 33t104 65l31 33l92 -148q-14 -16 -41 -40t-115 -68t-188 -51v-164h-149
v170q-193 31 -311 167t-119 330z" />
    <glyph glyph-name="sterling.osf" horiz-adv-x="1273" 
d="M117 0v170h125v324h-92v139h92v180q0 170 131 283t325 112q96 0 186 -28t130 -58l41 -26l-99 -148q-115 82 -243 82q-127 0 -199 -64t-72 -159v-174h443v-139h-443v-324h666v-170h-991z" />
    <glyph glyph-name="yen.osf" horiz-adv-x="1271" 
d="M197 580v131h190l-285 475h230l213 -377l88 -184h4q43 104 88 184l213 377h229l-284 -475h194v-131h-272l-70 -117v-29h342v-129h-342v-305h-200v305h-338v129h338v29l-72 117h-266z" />
    <glyph glyph-name="florin.osf" horiz-adv-x="1171" 
d="M182 -88q227 0 246 227l41 484h-168v159h182l21 215q8 98 44 171q89 181 286 207q45 7 103 7t136 -12l25 -4v-170q-100 14 -148 14q-233 0 -252 -227l-18 -201h240v-159h-254l-43 -500q-8 -98 -44 -171t-80 -113q-44 -41 -120 -71t-158 -30q-83 0 -143 12l-21 2v172
q79 -12 125 -12z" />
    <glyph glyph-name="Euro.osf" horiz-adv-x="1259" 
d="M117 406v120h131q-8 57 -2 125h-129v123h149q53 190 214 312t415 122q93 0 174 -18l25 -6l-45 -164q-74 20 -156 20q-158 0 -263 -74t-153 -192h518l-26 -123h-523q-6 -66 3 -125h501l-24 -120h-443q49 -117 155 -189t261 -72q90 0 156 23l22 6l37 -166q-94 -33 -219 -33
q-244 0 -405 120t-218 311h-155z" />
    <glyph glyph-name="zero.numerator" 
d="M398 672q167 0 167 326t-167 325q-167 1 -167 -325t167 -326zM398 530q-322 0 -322 468t322 468t323 -468q0 -468 -323 -468z" />
    <glyph glyph-name="one.numerator" 
d="M145 551v135h191v510l4 53h-4q-8 -18 -37 -45l-72 -69l-94 100l217 211h139v-760h187v-135h-531z" />
    <glyph glyph-name="two.numerator" 
d="M530 1192q0 57 -42 95t-96 38t-97 -25t-64 -49l-20 -24l-100 92q59 88 179 131q48 16 101 16q127 0 211 -74t84 -194q0 -82 -42 -148t-103 -107q-61 -42 -123 -79q-148 -89 -154 -178h436v-135h-598l-6 74q0 96 45 171q45 74 109 120t126 86q154 97 154 190z" />
    <glyph glyph-name="three.numerator" 
d="M383 530q-92 0 -167 34t-105 67l-29 35l86 108q24 -36 86 -69q63 -33 127 -33t115 45t51 111t-54 106q-54 39 -128 39h-70l-33 78l182 211l50 49v4q-39 -6 -74 -6h-289v137h555v-98l-223 -258q102 -14 171 -81q68 -67 68 -185t-91 -206t-228 -88z" />
    <glyph glyph-name="four.numerator" 
d="M213 905h258v252l6 119h-4q-29 -55 -59 -98l-201 -269v-4zM471 551v219h-426v102l412 574h166v-541h125v-135h-125v-219h-152z" />
    <glyph glyph-name="five.numerator" 
d="M381 530q-86 0 -159 35t-103 70l-31 35l92 104q25 -38 80 -71q55 -31 122 -31t120 48t53 120t-53 121t-133 49t-133 -35l-19 -10l-86 32l47 449h475v-137h-348l-14 -127l-10 -66h4q47 20 114 21q135 0 223 -87t89 -212q-1 -124 -93 -216t-237 -92z" />
    <glyph glyph-name="six.numerator" 
d="M244 903q0 -87 51 -159t123 -72t112 48t39 122q0 74 -45 122q-44 48 -114 48t-118 -34t-48 -75zM442 1130q114 0 198 -82q83 -82 83 -214t-84 -218t-224 -86t-236 114q-95 114 -95 302q0 284 177 437q95 83 209 83t185 -32l23 -13l-49 -131q-67 33 -147 33t-144 -73
t-82 -183h4q68 63 182 63z" />
    <glyph glyph-name="seven.numerator" 
d="M444 1309h-350v137h619v-105l-426 -790h-168l358 661l58 97v4q-39 -4 -91 -4z" />
    <glyph glyph-name="eight.numerator" 
d="M551 1214q0 56 -44 88q-45 32 -103 32t-98 -30t-40 -78t35 -83t67 -50t105 -46q78 78 78 167zM559 797q0 57 -54 93q-54 37 -113 62q-58 25 -70 31q-98 -76 -98 -157q0 -82 51 -122q53 -40 119 -40t116 37q49 39 49 96zM74 810q0 132 143 230q-100 72 -100 186t85 177
t203 63q119 0 205 -64t86 -180t-112 -229q131 -77 131 -197t-93 -193q-92 -73 -224 -73t-228 74t-96 206z" />
    <glyph glyph-name="nine.numerator" 
d="M227 1157q0 -74 45 -123q44 -49 114 -49t119 34q48 34 48 75q0 86 -52 158t-124 73q-72 0 -111 -47t-39 -121zM74 1163q0 131 84 217t223 86t234 -114t96 -301q0 -285 -175 -438q-95 -83 -229 -83q-95 0 -168 35l-22 10l51 132q68 -33 148 -33t141 71q61 72 82 185h-4
q-63 -63 -162 -64q-135 0 -217 83t-82 214z" />
    <glyph glyph-name="zero.denominator" 
d="M231 446q0 -326 167 -325q167 0 167 326t-168 325q-166 0 -166 -326zM721 448q0 -468 -323 -468q-322 0 -322 468t321 467q324 1 324 -467z" />
    <glyph glyph-name="one.denominator" 
d="M145 0v135h191v510l4 53h-4q-8 -18 -37 -45l-72 -69l-94 100l217 211h139v-760h187v-135h-531z" />
    <glyph glyph-name="two.denominator" 
d="M530 641q0 57 -42 95t-96 38t-97 -24t-64 -50l-20 -24l-100 92q59 88 179 131q48 16 101 16q127 -1 211 -75t84 -193q0 -81 -42 -147t-103 -108t-123 -79q-148 -89 -154 -178h436v-135h-598l-6 74q0 96 45 171t109 121t126 86q154 97 154 189z" />
    <glyph glyph-name="three.denominator" 
d="M383 -20q-92 0 -167 34t-105 68l-29 33l86 108q23 -34 86 -68t127 -34t115 45q51 46 51 112t-54 105t-128 39h-70l-33 78l182 211l50 49v4q-39 -6 -74 -6h-289v137h555v-98l-223 -258q102 -14 171 -81q68 -67 68 -185q0 -117 -91 -205t-228 -88z" />
    <glyph glyph-name="four.denominator" 
d="M213 354h258v252l6 119h-4q-29 -55 -59 -98l-201 -269v-4zM471 0v219h-426v103l412 573h166v-541h125v-135h-125v-219h-152z" />
    <glyph glyph-name="five.denominator" 
d="M381 -20q-86 0 -159 34t-103 70l-31 35l92 104q24 -37 80 -69q55 -33 122 -33t120 48t53 120t-53 121t-130 49t-136 -33l-19 -12l-86 32l47 449h475v-137h-348l-14 -127l-10 -66h4q47 20 114 21q135 0 223 -87t89 -212q-1 -125 -93 -216t-237 -91z" />
    <glyph glyph-name="six.denominator" 
d="M244 352q0 -86 51 -158t123 -73q72 0 112 48t39 122q0 74 -45 122q-44 48 -114 48t-118 -34t-48 -75zM415 -20q-140 0 -236 113q-95 114 -95 302q0 283 177 438q95 83 213 83t181 -35l23 -11l-49 -131q-67 33 -147 33t-144 -73t-82 -183h4q68 63 164 64q133 0 216 -82
t83 -215t-84 -218t-224 -85z" />
    <glyph glyph-name="seven.denominator" 
d="M444 758h-350v137h619v-104l-426 -791h-168l358 662l58 96v4q-39 -4 -91 -4z" />
    <glyph glyph-name="eight.denominator" 
d="M266 675q0 -48 35 -83t67 -50t105 -46q78 78 78 168q0 55 -44 87q-45 31 -103 31t-98 -30t-40 -77zM559 246q0 57 -54 93q-54 37 -113 62q-58 25 -70 31q-98 -76 -98 -157t51 -121q53 -40 119 -41q66 0 116 38q49 38 49 95zM74 259q0 132 143 230q-100 72 -100 186
t85 177t203 63q119 -1 205 -65t86 -180t-112 -228q131 -76 131 -196t-93 -194q-92 -72 -224 -72t-228 74t-96 205z" />
    <glyph glyph-name="nine.denominator" 
d="M227 606q0 -74 45 -123q44 -49 114 -49t119 34q48 34 48 75q0 87 -52 159t-124 72t-111 -47t-39 -121zM74 612q0 131 84 217t223 86q139 1 234 -113t96 -302q0 -285 -175 -438q-95 -83 -229 -82q-88 0 -168 32l-22 13l51 131q68 -33 148 -33t141 72t82 184h-4
q-63 -63 -162 -64q-135 0 -217 83t-82 214z" />
    </font>
</defs>
</svg>
