<?xml version="1.0" standalone="no"?>
<!DOCTYPE svg PUBLIC "-//W3C//DTD SVG 1.1//EN" "http://www.w3.org/Graphics/SVG/1.1/DTD/svg11.dtd" >
<svg xmlns="http://www.w3.org/2000/svg">
<metadata>
Created by FontPrep 20130207 at Mon Oct 27 08:27:03 2014
 By Wendell P. Barreto
Copyright (c) 2008 by Jos Buivenga. All rights reserved.
</metadata>
<defs>
<font id="83308de0ca4237e6cd44fbae61d13495" horiz-adv-x='1024' >
  <font-face 
    font-family="MuseoSans-300"
    font-weight="300"
    font-stretch="normal"
    units-per-em="2048"
    panose-1="2 0 0 0 0 0 0 0 0 0"
    ascent="1536"
    descent="-512"
    x-height="1030"
    cap-height="1440"
    bbox="-242 -430 2228 1808"
    underline-thickness="102"
    underline-position="-102"
    unicode-range="U+0020-FB04"
  />
<missing-glyph horiz-adv-x="1044" 
d="M174 102h696l-348 523zM113 195l348 522l-348 522v-1044zM584 717l348 -522v1044zM522 809l348 522h-696zM10 0v1434h1024v-1434h-1024z" />
    <glyph glyph-name="f_f" unicode="ff" horiz-adv-x="1310" 
d="M870 0v913h-516v-913h-139v913h-129v117h129v37q0 119 38 202t99 119q105 62 219 62l64 -4v-125q-20 4 -53 4t-67 -9q-161 -43 -161 -249v-37h516v37q0 119 38 202t100 119q106 62 219 62l63 -4v-125q-20 4 -72 4t-121 -42q-40 -24 -64 -80t-23 -136v-37h264v-117h-264
v-913h-140z" />
    <glyph glyph-name="fi" unicode="fi" horiz-adv-x="1130" 
d="M819 1266v174h146v-174h-146zM823 0v913h-469v-913h-139v913h-129v117h129v37q0 119 38 202t99 119q105 62 219 62l64 -4v-125q-20 4 -53 4t-67 -9q-161 -43 -161 -249v-37h609v-1030h-140z" />
    <glyph glyph-name="fl" unicode="fl" horiz-adv-x="1161" 
d="M813 244v1196h139v-1166q0 -156 115 -155l35 2v-125q-25 -4 -51 -4q-238 0 -238 252zM215 0v901h-129v117h129v49q0 119 38 202t99 119q105 62 219 62l64 -4v-125q-20 4 -53 4t-67 -9q-161 -43 -161 -249v-49h264v-117h-264v-901h-139z" />
    <glyph glyph-name="f_f_i" unicode="ffi" horiz-adv-x="1785" 
d="M1475 1266v174h145v-174h-145zM870 0v913h-516v-913h-139v913h-129v117h129v37q0 119 38 202t99 119q105 62 219 62l64 -4v-125q-20 4 -53 4t-67 -9q-161 -43 -161 -249v-37h516v37q0 119 38 202t100 119q106 62 219 62l63 -4v-125q-20 4 -72 4t-121 -42q-40 -24 -64 -80
t-23 -136v-37h608v-1030h-139v913h-469v-913h-140z" />
    <glyph glyph-name="f_f_l" unicode="ffl" horiz-adv-x="1816" 
d="M1468 244v1196h140v-1166q0 -156 114 -155l35 2v-125q-25 -4 -51 -4q-238 0 -238 252zM870 0v913h-516v-913h-139v913h-129v117h129v37q0 119 38 202t99 119q105 62 219 62l64 -4v-125q-20 4 -53 4t-67 -9q-161 -43 -161 -249v-37h516v37q0 119 38 202t100 119
q106 62 219 62l63 -4v-125q-20 4 -72 4t-121 -42q-40 -24 -64 -80t-23 -136v-37h264v-117h-264v-913h-140z" />
    <glyph glyph-name="f_j" unicode="fj" horiz-adv-x="1130" 
d="M821 1266v174h144v-174h-144zM215 0v913h-129v117h129v37q0 119 38 202t99 119q105 62 219 62l64 -4v-125q-20 4 -53 4t-67 -9q-161 -43 -161 -249v-37h609v-1069q0 -121 -38 -203q-39 -82 -101 -118q-110 -62 -220 -62l-61 6v121q18 -2 50 -2q33 0 67 9t74 34t65 82
t24 139v946h-469v-913h-139z" />
    <glyph glyph-name=".notdef" horiz-adv-x="1044" 
d="M174 102h696l-348 523zM113 195l348 522l-348 522v-1044zM584 717l348 -522v1044zM522 809l348 522h-696zM10 0v1434h1024v-1434h-1024z" />
    <glyph glyph-name=".null" horiz-adv-x="0" 
 />
    <glyph glyph-name="nonmarkingreturn" horiz-adv-x="681" 
 />
    <glyph glyph-name="space" unicode=" " horiz-adv-x="550" 
 />
    <glyph glyph-name="exclam" unicode="!" horiz-adv-x="628" 
d="M238 0v158h157v-158h-157zM248 377l-6 1063h143l-6 -1063h-131z" />
    <glyph glyph-name="quotedbl" unicode="&#x22;" horiz-adv-x="651" 
d="M141 1114v346h121v-346h-121zM389 1114v346h121v-346h-121z" />
    <glyph glyph-name="numbersign" unicode="#" horiz-adv-x="1482" 
d="M532 514h353l71 401h-354zM317 0l70 399h-291l21 115h289l71 401h-289l19 115h291l71 410h125l-71 -410h354l72 410h125l-72 -410h287l-21 -115h-287l-69 -401h284l-18 -115h-287l-69 -399h-125l69 399h-354l-70 -399h-125z" />
    <glyph glyph-name="dollar" unicode="$" horiz-adv-x="1140" 
d="M588 111q123 1 205 69q81 68 81 172t-74 173q-76 69 -182 115t-212 95t-182 135q-74 86 -74 218t104 241t272 129v195h115v-191q98 -6 184 -40t121 -66l37 -31l-70 -119q-46 46 -139 84q-94 39 -176 39q-135 0 -219 -74t-84 -162t53 -147t134 -94t174 -79t174 -89
q80 -45 134 -128t54 -191q0 -152 -102 -261t-275 -124v-191h-115v191q-115 8 -215 53t-143 86l-43 41l86 108l17 -17q80 -80 233 -123q63 -17 127 -17z" />
    <glyph glyph-name="percent" unicode="%" horiz-adv-x="1495" 
d="M930 259q0 -71 47 -120t117 -49t118 49t50 120q0 71 -50 121t-118 50q-70 0 -117 -50t-47 -121zM807 259q0 118 84 202t203 84q120 0 204 -84t84 -202t-85 -201t-203 -83t-203 83q-84 83 -84 201zM401 1010q70 0 119 49t49 120t-49 121t-119 50q-69 0 -117 -50t-48 -122
q0 -70 48 -119t117 -49zM127 0l1098 1440h145l-1096 -1440h-147zM402 895q-120 0 -204 83t-83 201q0 117 84 201q85 84 203 84t203 -84t85 -202t-84 -200q-84 -83 -204 -83z" />
    <glyph glyph-name="ampersand" unicode="&#x26;" horiz-adv-x="1380" 
d="M641 705q-181 0 -277 -80t-96 -213t92 -218t248 -85q336 0 336 389v207h-303zM123 397q0 129 70 235t192 144v4q-22 5 -63 35q-42 29 -68 62t-48 92t-22 131q0 166 118 265t314 99q51 0 138 -14l26 -6l-41 -119q-68 14 -118 14q-125 -1 -207 -67t-82 -167t52 -178
q65 -96 257 -96h303v203h141v-203h195v-126h-195v-211q0 -252 -128 -385t-346 -133t-353 119q-135 120 -135 302z" />
    <glyph glyph-name="quotesingle" unicode="'" horiz-adv-x="403" 
d="M141 1114v346h121v-346h-121z" />
    <glyph glyph-name="parenleft" unicode="(" horiz-adv-x="593" 
d="M164 690q0 428 231 805h129q-231 -391 -231 -805q0 -469 231 -885h-129q-231 397 -231 885z" />
    <glyph glyph-name="parenright" unicode=")" horiz-adv-x="591" 
d="M301 690q0 414 -231 805h129q231 -377 231 -805q0 -488 -231 -885h-129q231 412 231 885z" />
    <glyph glyph-name="asterisk" unicode="*" horiz-adv-x="964" 
d="M305 690l-108 78l192 246v4l-301 86l41 129l295 -109l-12 316h139l-14 -316l299 107l41 -125l-304 -88v-4l193 -246l-107 -80l-176 260h-4z" />
    <glyph glyph-name="plus" unicode="+" horiz-adv-x="1409" 
d="M170 522v119h473v522h125v-522h471v-119h-471v-522h-125v522h-473z" />
    <glyph glyph-name="comma" unicode="," horiz-adv-x="499" 
d="M74 -199l116 367h154l-151 -367h-119z" />
    <glyph glyph-name="hyphen" unicode="-" horiz-adv-x="1007" 
d="M213 518v127h582v-127h-582z" />
    <glyph glyph-name="period" unicode="." horiz-adv-x="505" 
d="M172 0v164h162v-164h-162z" />
    <glyph glyph-name="slash" unicode="/" horiz-adv-x="802" 
d="M84 -86l520 1606h129l-518 -1606h-131z" />
    <glyph glyph-name="zero" unicode="0" horiz-adv-x="1280" 
d="M640 109q349 0 349 611t-349 611t-349 -611t349 -611zM641 1464q496 0 496 -744t-497 -745q-497 0 -497 746q0 219 44 379t159 262t295 102z" />
    <glyph glyph-name="one" unicode="1" horiz-adv-x="954" 
d="M115 0v127h323v1057l2 80h-4q-14 -31 -71 -86l-154 -154l-90 92l325 324h132v-1313h317v-127h-780z" />
    <glyph glyph-name="two" unicode="2" horiz-adv-x="1157" 
d="M123 118q0 76 41 166t116 164q75 75 222 176t212 155t105 125q41 71 41 149q0 121 -83 199t-225 77q-142 0 -260 -127q-28 -29 -40 -49l-12 -20l-107 71l17 28q10 18 49 62q39 45 85 80t123 63t162 27q201 0 320 -114t119 -297q0 -182 -145 -323q-95 -91 -234 -185
q-141 -95 -205 -149q-147 -125 -145 -269h751v-127h-899q-8 42 -8 118z" />
    <glyph glyph-name="three" unicode="3" horiz-adv-x="1150" 
d="M564 111q116 0 214 88t98 228t-104 221q-106 81 -258 81h-98l-35 84l360 422l76 80v4q-41 -6 -117 -6h-540v127h841v-94l-430 -496q155 -8 292 -98q71 -47 115 -131t44 -195q0 -186 -135 -318t-338 -133q-158 0 -277 66q-118 66 -161 111l-19 20l86 109q16 -17 47 -47
t127 -76t212 -47z" />
    <glyph glyph-name="four" unicode="4" horiz-adv-x="1222" 
d="M242 524h549v602l6 136h-4q-33 -57 -72 -109l-479 -625v-4zM70 399v93l708 948h154v-916h205v-125h-205v-399h-141v399h-721z" />
    <glyph glyph-name="five" unicode="5" horiz-adv-x="1142" 
d="M520 786q-68 0 -134 -19t-95 -38l-33 -20l-90 32l78 699h696v-127h-573l-41 -369l-15 -82h4q90 55 220 56q215 0 355 -136t140 -334t-144 -335t-348 -137t-363 132q-36 30 -50 52l-16 20l90 99l12 -18q8 -11 39 -41q113 -109 269 -109q157 0 260 96q103 95 103 241
t-104 242t-260 96z" />
    <glyph glyph-name="six" unicode="6" horiz-adv-x="1218" 
d="M646 109q148 0 232 97q83 97 83 250q1 154 -89 246t-233 92t-247 -77q-104 -78 -105 -168q0 -156 106 -298q105 -142 253 -142zM653 -25q-233 1 -377 191t-143 485q0 295 149 541q72 121 198 197t286 75q72 0 138 -15t95 -30l31 -14l-53 -125q-90 51 -221 51t-239 -88
q-202 -164 -228 -489h4q51 76 151 122t213 46q197 0 323 -130t126 -342t-129 -344t-324 -131z" />
    <glyph glyph-name="seven" unicode="7" horiz-adv-x="1064" 
d="M752 1313h-674v127h936v-99l-668 -1341h-147l581 1180q23 51 68 116l12 17v4q-37 -4 -108 -4z" />
    <glyph glyph-name="eight" unicode="8" horiz-adv-x="1232" 
d="M332 1098q0 -127 144 -207q62 -35 164 -78t130 -55q66 61 108 154q42 94 42 171q0 115 -83 183t-215 68t-211 -68t-79 -168zM276 415q0 -134 102 -221q102 -88 238 -88q135 0 235 82q99 82 99 196t-100 181t-213 113q-113 47 -154 67q-49 -27 -103 -85
q-104 -111 -104 -245zM131 414q0 80 37 168t146 185q30 26 53 40q-179 117 -179 281t114 270t318 106t324 -102t119 -272q0 -92 -45 -190t-76 -136q-31 -39 -55 -64q209 -119 209 -300t-136 -303t-341 -122q-204 0 -346 120t-142 319z" />
    <glyph glyph-name="nine" unicode="9" horiz-adv-x="1216" 
d="M256 984q0 -153 90 -246t233 -93q144 0 247 78t104 168q0 156 -106 298t-254 142t-231 -97t-83 -250zM451 -25q-70 1 -137 15t-97 30l-31 15l54 125q90 -51 209 -51q211 0 335 171t146 406h-4q-54 -76 -154 -122t-213 -46q-197 0 -321 130t-125 342q0 212 128 343
t322 131q233 0 377 -190t143 -484q0 -294 -148 -541q-73 -122 -199 -198t-285 -76z" />
    <glyph glyph-name="colon" unicode=":" horiz-adv-x="600" 
d="M219 0v164h162v-164h-162zM219 866v164h162v-164h-162z" />
    <glyph glyph-name="semicolon" unicode=";" horiz-adv-x="600" 
d="M227 866v164h162v-164h-162zM127 -199l100 367h154l-135 -367h-119z" />
    <glyph glyph-name="less" unicode="&#x3c;" horiz-adv-x="1161" 
d="M102 530v103l926 414v-138l-752 -325v-4l752 -326v-137z" />
    <glyph glyph-name="equal" unicode="=" horiz-adv-x="1400" 
d="M223 344v119h955v-119h-955zM223 700v119h955v-119h-955z" />
    <glyph glyph-name="greater" unicode="&#x3e;" horiz-adv-x="1161" 
d="M133 117v137l752 326v4l-752 325v138l926 -414v-103z" />
    <glyph glyph-name="question" unicode="?" horiz-adv-x="985" 
d="M307 0v158h158v-158h-158zM315 377v92q0 90 37 164t89 124t106 97q127 113 127 244q0 100 -76 168t-192 67q-62 1 -124 -21t-94 -44l-30 -23l-76 105q50 43 145 80t185 36q176 0 293 -102t116 -260q0 -94 -38 -170t-91 -126t-107 -97q-130 -113 -130 -246v-88h-140z" />
    <glyph glyph-name="at" unicode="@" horiz-adv-x="1648" 
d="M692 496q0 -117 81 -199t198 -82h254v563h-250q-121 0 -202 -82t-81 -200zM133 496q0 313 214 532t515 219q258 -1 380 -111t122 -276v-645h145v-115h-551q-174 0 -292 116t-117 278q0 162 117 278t292 115h267q-4 102 -92 171t-261 68q-250 0 -422 -185t-174 -447
q0 -262 174 -444t433 -181v-123q-317 0 -534 218q-216 219 -216 532z" />
    <glyph glyph-name="A" unicode="A" horiz-adv-x="1261" 
d="M633 1290h-4q-31 -119 -56 -186l-192 -522h496l-189 522zM1085 0l-165 459h-580l-164 -459h-149l528 1440h152l528 -1440h-150z" />
    <glyph glyph-name="B" unicode="B" horiz-adv-x="1282" 
d="M350 127h369q131 0 207 76t75 205q-1 128 -79 206t-205 78h-367v-565zM350 815h350q109 0 177 70q67 71 67 183t-66 178t-180 67h-348v-498zM209 0v1440h491q174 0 282 -98t108 -265q0 -221 -183 -313v-4q111 -31 177 -128t65 -229q0 -187 -123 -295t-309 -108h-508z" />
    <glyph glyph-name="C" unicode="C" horiz-adv-x="1490" 
d="M842 -25q-315 -1 -522 217t-207 534t206 527q207 211 517 211q194 0 322 -61t175 -105l21 -20l-76 -104q-19 19 -70 52q-169 107 -368 107q-252 0 -416 -173t-164 -432t165 -440t419 -182q167 0 287 66t159 107l21 20l82 -100l-24 -24q-15 -15 -69 -54
q-113 -82 -266 -121q-94 -25 -192 -25z" />
    <glyph glyph-name="D" unicode="D" horiz-adv-x="1515" 
d="M350 127h309q270 0 431 155q160 154 160 438t-160 438t-431 155h-309v-1186zM209 0v1440h465q328 0 526 -192t197 -529q0 -339 -197 -529t-526 -190h-465z" />
    <glyph glyph-name="E" unicode="E" horiz-adv-x="1169" 
d="M209 0v1440h811v-127h-670v-525h547v-126h-547v-535h707v-127h-848z" />
    <glyph glyph-name="F" unicode="F" horiz-adv-x="1052" 
d="M209 0v1440h758v-127h-617v-541h529v-127h-529v-645h-141z" />
    <glyph glyph-name="G" unicode="G" horiz-adv-x="1552" 
d="M113 718q0 316 208 531t517 215q147 0 275 -42t181 -83l56 -43l-76 -106q-18 16 -54 40t-148 64t-228 39q-258 0 -421 -175t-163 -438t163 -438t408 -176q125 0 238 54t164 106l51 51v244h-246v127h381v-688h-131v109l2 61h-4q-20 -26 -71 -64q-181 -131 -398 -131
q-297 0 -501 213q-203 214 -203 530z" />
    <glyph glyph-name="H" unicode="H" horiz-adv-x="1536" 
d="M209 0v1440h141v-656h836v656h141v-1440h-141v657h-836v-657h-141z" />
    <glyph glyph-name="I" unicode="I" horiz-adv-x="559" 
d="M209 0v1440h141v-1440h-141z" />
    <glyph glyph-name="J" unicode="J" horiz-adv-x="1073" 
d="M72 403v58h141v-53q0 -154 77 -228q76 -74 186 -74t187 72t76 225v910h-352v127h494v-1037q0 -217 -119 -322t-286 -105q-168 0 -286 106t-118 321z" />
    <glyph glyph-name="K" unicode="K" horiz-adv-x="1230" 
d="M209 0v1440h141v-625h244l387 625h162l-430 -680v-4l458 -756h-165l-412 688h-244v-688h-141z" />
    <glyph glyph-name="L" unicode="L" horiz-adv-x="1060" 
d="M209 0v1440h141v-1313h668v-127h-809z" />
    <glyph glyph-name="M" unicode="M" horiz-adv-x="1748" 
d="M164 0l115 1440h147l377 -846l69 -176h5q39 102 71 176l377 846h145l115 -1440h-141l-80 1008l-4 200h-4q-43 -127 -76 -200l-338 -740h-133l-338 740l-78 204h-4q2 -127 -4 -204l-80 -1008h-141z" />
    <glyph glyph-name="N" unicode="N" horiz-adv-x="1542" 
d="M209 0v1440h137l735 -1037l119 -194h4q-12 119 -12 194v1037h141v-1440h-137l-735 1036l-119 195h-4q12 -119 12 -195v-1036h-141z" />
    <glyph glyph-name="O" unicode="O" horiz-adv-x="1687" 
d="M258 726q0 -259 170 -439q170 -181 415 -181t415 180t172 440q0 259 -172 433t-416 174t-414 -174t-170 -433zM111 726q0 312 213 525t520 213t520 -213t213 -525t-214 -531t-519 -219t-519 218q-214 220 -214 532z" />
    <glyph glyph-name="P" unicode="P" horiz-adv-x="1224" 
d="M350 692h338q145 0 232 84q86 84 86 228t-85 227q-85 82 -231 82h-340v-621zM209 0v1440h498q197 0 321 -119t123 -317q0 -198 -124 -318q-124 -121 -320 -121h-357v-565h-141z" />
    <glyph glyph-name="Q" unicode="Q" horiz-adv-x="1710" 
d="M258 727q0 -260 168 -440q168 -181 398 -181t388 136l-176 180l86 88l174 -178q134 170 134 412t-170 416q-170 173 -418 173t-416 -173t-168 -433zM824 -25q-290 -1 -501 219q-212 220 -212 532t212 525t520 213t521 -213t213 -510t-180 -508l178 -178l-86 -88l-176 178
q-199 -170 -489 -170z" />
    <glyph glyph-name="R" unicode="R" horiz-adv-x="1286" 
d="M350 733h342q131 0 208 79t77 214q0 182 -131 252q-66 35 -205 35h-291v-580zM209 0v1440h426q180 0 276 -42q95 -42 153 -140t58 -235q0 -138 -74 -243q-75 -104 -198 -139v-4q14 -18 37 -57l313 -580h-162l-325 606h-363v-606h-141z" />
    <glyph glyph-name="S" unicode="S" horiz-adv-x="1101" 
d="M563 111q123 1 205 69t82 173t-74 175t-179 114t-211 92t-181 134q-74 86 -74 209q0 160 127 274t322 113q110 0 206 -34t138 -70l41 -35l-70 -119q-46 46 -139 84q-93 39 -176 39q-132 0 -218 -74t-86 -171q0 -98 74 -162t179 -107t211 -91t182 -138q74 -90 73 -221
q-1 -166 -119 -278t-317 -112q-131 1 -245 47t-162 93l-50 45l84 108q96 -96 250 -140q63 -17 127 -17z" />
    <glyph glyph-name="T" unicode="T" horiz-adv-x="1204" 
d="M532 0v1313h-518v127h1176v-127h-516v-1313h-142z" />
    <glyph glyph-name="U" unicode="U" horiz-adv-x="1482" 
d="M190 502v938h144v-936q0 -184 110 -291q111 -107 298 -107t298 108t111 294v932h141v-938q0 -238 -152 -382t-398 -144q-248 0 -400 144t-152 382z" />
    <glyph glyph-name="V" unicode="V" horiz-adv-x="1265" 
d="M559 0l-534 1440h151l399 -1094l56 -186h4q29 113 55 186l400 1094h151l-534 -1440h-148z" />
    <glyph glyph-name="W" unicode="W" horiz-adv-x="1898" 
d="M948 1229h-4q-23 -123 -47 -215l-274 -1014h-170l-373 1440h147l279 -1118l33 -154h4l16 82q8 39 16 72l304 1118h135l303 -1118q8 -33 16 -72l17 -82h4q14 80 32 154l289 1118h148l-383 -1440h-170l-275 1014z" />
    <glyph glyph-name="X" unicode="X" horiz-adv-x="1212" 
d="M53 0l459 752l-418 688h166l252 -426l94 -166h4q41 92 86 166l254 426h168l-422 -688l461 -752h-164l-299 498l-90 159h-4q-43 -86 -88 -161l-295 -496h-164z" />
    <glyph glyph-name="Y" unicode="Y" horiz-adv-x="1175" 
d="M516 0v618l-485 822h162l305 -522l88 -173h4q43 96 88 173l305 522h160l-484 -822v-618h-143z" />
    <glyph glyph-name="Z" unicode="Z" horiz-adv-x="1218" 
d="M88 0v100l743 1082l101 131v4q-35 -4 -105 -4h-700v127h981v-101l-743 -1081q-60 -84 -91 -115l-12 -16v-4q37 4 107 4h745v-127h-1026z" />
    <glyph glyph-name="bracketleft" unicode="[" horiz-adv-x="577" 
d="M219 -195v1690h277v-115h-148v-1460h148v-115h-277z" />
    <glyph glyph-name="backslash" unicode="\" horiz-adv-x="804" 
d="M590 -86l-520 1606h131l518 -1606h-129z" />
    <glyph glyph-name="bracketright" unicode="]" horiz-adv-x="577" 
d="M82 -80h147v1460h-147v115h276v-1690h-276v115z" />
    <glyph glyph-name="asciicircum" unicode="^" horiz-adv-x="1241" 
d="M150 512l405 928h96l406 -928h-133l-320 758l-319 -758h-135z" />
    <glyph glyph-name="underscore" unicode="_" horiz-adv-x="1196" 
d="M70 0h1056v-119h-1056v119z" />
    <glyph glyph-name="grave" unicode="`" horiz-adv-x="1032" 
d="M541 1540l-176 244h161l142 -244h-127z" />
    <glyph glyph-name="a" unicode="a" horiz-adv-x="1064" 
d="M713 522q-339 0 -437 -102q-50 -52 -49 -130q1 -79 61 -137t169 -59q139 0 227 119t88 264v45h-59zM84 281q0 356 631 356h57v27q0 266 -256 266q-76 0 -148 -25t-108 -49l-35 -25l-65 107q50 43 157 80t209 37q186 1 286 -101t99 -295v-659h-133v113l4 86h-4
q-4 -7 -11 -23t-36 -55q-61 -82 -163 -121q-62 -25 -134 -25q-141 0 -246 80q-104 81 -104 226z" />
    <glyph glyph-name="b" unicode="b" horiz-adv-x="1206" 
d="M639 928q-143 0 -239 -104t-97 -292q0 -188 86 -311q87 -123 235 -123t243 113t95 302t-90 302t-233 113zM168 0v1440h139v-500l-4 -84h4l11 22q7 13 36 47q63 74 166 108q63 22 137 22q205 0 327 -150q122 -149 122 -391t-130 -390t-335 -149q-137 0 -221 68
q-83 68 -105 113l-12 20h-4q4 -35 4 -84v-92h-135z" />
    <glyph glyph-name="c" unicode="c" horiz-adv-x="1124" 
d="M96 513q0 237 156 389t385 153q174 0 316 -96q32 -22 46 -37l15 -15l-72 -104q-38 44 -128 85q-91 40 -173 40q-172 0 -287 -116q-114 -116 -114 -297t116 -298t276 -117q192 0 331 129l12 17l63 -109q-159 -159 -395 -160q-237 -1 -392 149t-155 387z" />
    <glyph glyph-name="d" unicode="d" horiz-adv-x="1206" 
d="M244 516q0 -188 90 -302t233 -114t239 104t97 294q0 188 -86 310q-87 122 -235 122t-243 -113t-95 -301zM100 516q0 242 129 390t334 149q173 0 289 -125q27 -29 37 -49l10 -21h4q-4 35 -4 78v502h139v-1440h-135v109l4 73h-4l-11 -22q-7 -14 -36 -50q-61 -76 -167 -112
q-65 -23 -140 -23q-205 -1 -327 149t-122 392z" />
    <glyph glyph-name="e" unicode="e" horiz-adv-x="1132" 
d="M594 938q-129 0 -226 -82t-122 -233h647q-6 155 -88 235t-211 80zM635 -25q-231 -1 -385 151t-154 393t146 388t357 147q210 0 323 -135q113 -136 112 -339l-4 -72h-790q4 -190 118 -299t281 -109q84 0 162 31t114 62l37 32l64 -106q-16 -16 -48 -40t-131 -64t-202 -40z
" />
    <glyph glyph-name="f" unicode="f" horiz-adv-x="655" 
d="M215 0v901h-129v117h129v49q0 119 38 202t99 119q105 62 219 62l64 -4v-125q-20 4 -53 4t-67 -9q-161 -43 -161 -249v-49h264v-117h-264v-901h-139z" />
    <glyph glyph-name="g" unicode="g" horiz-adv-x="1191" 
d="M572 131q144 0 230 95q85 95 85 309q0 393 -326 393q-149 0 -233 -104t-84 -287q0 -184 92 -295t236 -111zM530 -305q156 0 255 80t100 243v95l4 73h-4q-97 -180 -315 -180t-344 148t-126 380q0 234 121 377t326 144q154 0 233 -57t99 -97l8 -18h4q-2 12 -2 35v112h135
v-1005q0 -229 -142 -342t-336 -113t-353 82l53 115q128 -72 284 -72z" />
    <glyph glyph-name="h" unicode="h" horiz-adv-x="1214" 
d="M168 0v1440h139v-557l-4 -84h4q37 92 145 174t278 82q170 -1 251 -101q80 -100 80 -299v-655h-139v618q0 146 -44 226t-178 80t-237 -82q-153 -121 -156 -348v-494h-139z" />
    <glyph glyph-name="i" unicode="i" horiz-adv-x="475" 
d="M168 0v1030h139v-1030h-139zM164 1266v174h145v-174h-145z" />
    <glyph glyph-name="j" unicode="j" horiz-adv-x="475" 
d="M168 1030h139v-1069q0 -121 -38 -203t-100 -118q-109 -62 -220 -62l-62 6v121q18 -2 50 -2t67 9q164 42 164 255v1063zM166 1266v174h143v-174h-143z" />
    <glyph glyph-name="k" unicode="k" horiz-adv-x="1028" 
d="M168 0v1440h139v-803h164l309 393h168l-358 -448v-4l393 -578h-166l-344 516h-166v-516h-139z" />
    <glyph glyph-name="l" unicode="l" horiz-adv-x="505" 
d="M158 244v1196h139v-1166q0 -156 115 -155l34 2v-125q-25 -4 -51 -4q-237 0 -237 252z" />
    <glyph glyph-name="m" unicode="m" horiz-adv-x="1875" 
d="M168 0v1030h137v-153l-4 -82h4q37 106 146 183t227 77q272 0 319 -258h4q43 109 147 183t232 75q182 -1 262 -101t80 -299v-655h-139v621q0 145 -47 226t-169 81t-212 -86t-121 -205q-18 -57 -18 -150v-487h-139v621q0 228 -102 282q-46 25 -116 25q-121 0 -212 -88
q-137 -133 -140 -353v-487h-139z" />
    <glyph glyph-name="n" unicode="n" horiz-adv-x="1214" 
d="M168 0v1030h137v-153l-4 -82h4q37 94 143 177t280 83q173 -1 253 -101t80 -299v-655h-139v618q0 146 -44 226t-178 80t-237 -81q-153 -119 -156 -349v-494h-139z" />
    <glyph glyph-name="o" unicode="o" horiz-adv-x="1273" 
d="M637 928q-169 0 -285 -117t-116 -293t116 -297t285 -121q168 0 285 121q116 121 116 297t-116 293q-117 117 -285 117zM92 518q0 229 159 383t386 154t386 -154t159 -383t-159 -386t-386 -157t-386 157t-159 386z" />
    <glyph glyph-name="p" unicode="p" horiz-adv-x="1206" 
d="M639 928q-143 0 -239 -104t-97 -292q0 -186 88 -310q89 -124 235 -124t241 113t95 302t-90 302t-233 113zM168 -410v1440h133v-100l-4 -80h4l11 22q7 14 36 50q61 74 168 110q66 23 141 23q205 0 327 -150q122 -149 122 -391t-129 -390t-332 -149q-139 0 -222 67
t-104 110l-12 20h-4q4 -37 4 -90v-492h-139z" />
    <glyph glyph-name="q" unicode="q" horiz-adv-x="1206" 
d="M244 516q0 -188 90 -302t233 -114t239 104t97 294q0 188 -86 310q-87 122 -235 122t-243 -113t-95 -301zM100 516q0 242 129 390t334 149q138 0 222 -67t106 -111l10 -21h4q-2 33 -2 78v96h135v-1440h-139v496l4 90h-4q-65 -130 -213 -179q-63 -22 -137 -22
q-205 -1 -327 149t-122 392z" />
    <glyph glyph-name="r" unicode="r" horiz-adv-x="729" 
d="M168 0v1030h137v-182l-4 -82h4q39 123 124 199t202 75l55 -6v-137q-25 4 -51 4q-106 0 -185 -74q-143 -134 -143 -393v-434h-139z" />
    <glyph glyph-name="s" unicode="s" horiz-adv-x="907" 
d="M468 100q87 0 146 43q60 43 60 113t-58 114t-138 74q-81 30 -163 67q-82 35 -139 101t-57 158q0 133 102 209t257 76t261 -73q33 -21 49 -40l-63 -106q-34 34 -108 64q-75 30 -155 30t-140 -40t-60 -110t57 -115q57 -44 139 -74t164 -66q81 -35 138 -101t57 -160
q0 -127 -98 -208t-247 -81t-242 49q-94 49 -146 101l76 100q38 -44 130 -85q91 -40 178 -40z" />
    <glyph glyph-name="t" unicode="t" horiz-adv-x="686" 
d="M207 375v526h-135v117h137v297h137v-297h258v-117h-258v-512q0 -188 117 -246q54 -26 115 -26l47 4v-125q-23 -4 -63 -4t-81 6t-93 30t-90 62t-65 113q-26 74 -26 172z" />
    <glyph glyph-name="u" unicode="u" horiz-adv-x="1204" 
d="M154 375v655h139v-618q0 -146 44 -226t179 -80q170 0 276 127q105 127 105 304v493h139v-1030h-135v154l4 82h-4q-39 -94 -144 -178t-272 -83t-249 99t-82 301z" />
    <glyph glyph-name="v" unicode="v" horiz-adv-x="993" 
d="M422 0l-395 1030h147l287 -756l35 -122h4q16 70 37 122l284 756h146l-394 -1030h-151z" />
    <glyph glyph-name="w" unicode="w" horiz-adv-x="1640" 
d="M383 0l-348 1030h147l250 -768l31 -110h4q14 61 31 110l254 764h137l254 -764l31 -110h4q14 59 30 110l250 768h148l-349 -1030h-151l-252 733l-33 111h-4q-14 -59 -31 -111l-251 -733h-152z" />
    <glyph glyph-name="x" unicode="x" horiz-adv-x="1005" 
d="M506 444h-6q-16 -31 -35 -57l-250 -387h-164l363 537l-332 493h164l221 -346l35 -59h2q18 33 35 59l221 346h164l-332 -493l362 -537h-163z" />
    <glyph glyph-name="y" unicode="y" horiz-adv-x="1021" 
d="M190 -305q121 0 195 168l64 145l-431 1022h154l303 -751l37 -109h4q14 57 35 109l297 751h151l-507 -1245q-41 -99 -119 -157t-178 -58q-47 0 -93 15t-65 30l-23 16l54 111q57 -47 122 -47z" />
    <glyph glyph-name="z" unicode="z" horiz-adv-x="1042" 
d="M86 0v90l576 723l81 94v4q-35 -4 -102 -4h-530v123h821v-92l-576 -721l-84 -94v-4q37 4 105 4h575v-123h-866z" />
    <glyph glyph-name="braceleft" unicode="{" horiz-adv-x="688" 
d="M283 170v195q0 150 -112 213q-20 11 -62 20v127q18 0 54 18q35 18 59 41q59 57 61 177v167q0 96 24 168q25 72 59 109q83 90 222 90h30v-115h-18q-58 0 -103 -31q-85 -58 -85 -225v-200q0 -115 -55 -176t-93 -76l-16 -8v-5q20 -7 53 -28q108 -71 111 -232v-225
q0 -82 22 -138t66 -87q45 -31 100 -31h18v-115q-12 -2 -38 -2t-57 5q-32 5 -78 28q-45 23 -79 60q-34 36 -58 108t-25 168z" />
    <glyph glyph-name="bar" unicode="|" horiz-adv-x="563" 
d="M217 -322v1936h129v-1936h-129z" />
    <glyph glyph-name="braceright" unicode="}" horiz-adv-x="688" 
d="M70 -82h20q52 0 98 31q90 61 88 225v225q0 120 55 180t109 80v5q-21 7 -54 31q-108 80 -110 229v200q0 169 -75 218q-55 38 -111 38h-20v115h32q133 0 221 -91q35 -36 59 -108t24 -168v-167q0 -97 44 -155t87 -69l43 -12v-127q-19 0 -55 -18q-35 -18 -59 -41t-42 -69
t-18 -105v-195q0 -96 -25 -168t-59 -108q-85 -92 -220 -93l-32 2v115z" />
    <glyph glyph-name="asciitilde" unicode="~" horiz-adv-x="1232" 
d="M152 428q0 162 69 240q70 78 188 78t194 -75q32 -32 62 -64q70 -75 153 -75t115 64t32 141h120q1 -161 -69 -239t-191 -78q-76 0 -134 34t-89 72q-86 107 -176 107q-90 1 -122 -63t-32 -142h-120z" />
    <glyph glyph-name="uni00A0" unicode="&#xa0;" horiz-adv-x="550" 
 />
    <glyph glyph-name="exclamdown" unicode="&#xa1;" horiz-adv-x="561" 
d="M209 -410l6 1063h131l6 -1063h-143zM201 872v158h157v-158h-157z" />
    <glyph glyph-name="cent" unicode="&#xa2;" horiz-adv-x="1171" 
d="M553 -27v174q-203 23 -317 183t-113 391q0 231 114 390t316 181v172h115v-172q262 -31 383 -303l-131 -49q-102 221 -304 221q-170 0 -259 -123q-89 -122 -89 -318t88 -318t260 -121q203 0 304 221l131 -51q-57 -127 -155 -209t-228 -95v-174h-115z" />
    <glyph glyph-name="sterling" unicode="&#xa3;" horiz-adv-x="1206" 
d="M160 668v112h90v305q0 162 120 271t304 108q86 0 166 -30t116 -58l37 -28l-86 -103q-100 86 -232 86t-207 -73t-75 -181v-297h393v-112h-393v-541h694v-127h-966v127h129v541h-90z" />
    <glyph glyph-name="yen" unicode="&#xa5;" horiz-adv-x="1230" 
d="M211 717v104h217l-358 619h161l293 -510q49 -90 78 -156l10 -29h4q41 102 89 185l294 510h162l-360 -619h215v-104h-273l-55 -99v-79h328v-107h-328v-432h-143v432h-334v107h334v79l-58 99h-276z" />
    <glyph glyph-name="section" unicode="&#xa7;" horiz-adv-x="843" 
d="M352 -4q96 0 160 60q63 60 63 163q0 35 -8 66l-133 878h123l139 -889q8 -53 9 -71q-1 -143 -99 -237t-256 -93q-62 0 -122 22t-89 44l-26 20l71 98q72 -61 168 -61zM139 1135q-1 143 97 236t256 93q63 0 122 -22t86 -41l29 -23l-72 -96q-69 59 -165 59t-161 -58t-65 -161
q0 -33 8 -63l136 -885h-123l-140 889q-8 33 -8 72z" />
    <glyph glyph-name="dieresis" unicode="&#xa8;" horiz-adv-x="1032" 
d="M299 1608v176h125v-176h-125zM608 1608v176h127v-176h-127z" />
    <glyph glyph-name="copyright" unicode="&#xa9;" horiz-adv-x="1701" 
d="M444 718q0 171 115 296t307 125q126 0 211 -64t111 -108l12 -19l-94 -63q-59 88 -153 126q-40 15 -83 15q-141 0 -223 -90t-82 -217t81 -217t224 -90q89 0 151 51t85 90l94 -64q-9 -18 -47 -58q-124 -132 -303 -132q-178 0 -292 124t-114 295zM244 720q0 -266 174 -450
t431 -184t434 183t177 451t-177 450q-177 184 -434 184t-431 -184t-174 -450zM1579 719q0 -311 -213 -527t-517 -217t-515 217t-211 528t212 527t514 217t516 -217t214 -528z" />
    <glyph glyph-name="ordfeminine" unicode="&#xaa;" horiz-adv-x="874" 
d="M166 541v96h541v-96h-541zM422 881q68 1 116 67t48 148v18h-25q-276 0 -276 -127q0 -45 33 -76q36 -30 104 -30zM453 1460q245 0 245 -252v-413h-106v100h-4q-6 -13 -20 -31t-64 -50t-124 -32t-142 52t-68 143q0 227 391 227h27v8q0 152 -146 152q-41 0 -84 -14t-65 -31
l-23 -14l-53 79q90 76 236 76z" />
    <glyph glyph-name="guillemotleft" unicode="&#xab;" horiz-adv-x="1071" 
d="M438 158l-336 420l336 421h150l-336 -421l336 -420h-150zM469 578l336 421h151l-335 -421l335 -420h-151z" />
    <glyph glyph-name="logicalnot" unicode="&#xac;" horiz-adv-x="1275" 
d="M150 700v119h954v-495h-125v376h-829z" />
    <glyph glyph-name="uni00AD" unicode="&#xad;" horiz-adv-x="884" 
d="M152 518v127h581v-127h-581z" />
    <glyph glyph-name="registered" unicode="&#xae;" horiz-adv-x="1701" 
d="M719 735h149q66 0 104 39t38 108q0 70 -38 106t-104 36h-149v-289zM604 322v798h285q106 0 173 -66q66 -66 66 -160q0 -96 -44 -152t-105 -70v-4q8 -10 27 -45l153 -301h-127l-160 323h-153v-323h-115zM244 720q0 -266 174 -450t431 -184t434 183t177 451t-177 450
q-177 184 -434 184t-431 -184t-174 -450zM1579 719q0 -311 -213 -527t-517 -217t-515 217t-211 528t212 527t514 217t516 -217t214 -528z" />
    <glyph glyph-name="macron" unicode="&#xaf;" horiz-adv-x="1032" 
d="M264 1608v112h504v-112h-504z" />
    <glyph glyph-name="degree" unicode="&#xb0;" horiz-adv-x="780" 
d="M389 1008q70 0 119 49t49 120t-49 121t-119 50t-117 -50t-47 -122q0 -70 47 -119t117 -49zM390 893q-120 0 -204 83t-84 201q0 117 84 201t203 84t204 -84t85 -202t-84 -200q-84 -83 -204 -83z" />
    <glyph glyph-name="plusminus" unicode="&#xb1;" horiz-adv-x="1409" 
d="M207 -213h995v-119h-995v119zM170 522v119h473v522h125v-522h471v-119h-471v-522h-125v522h-473z" />
    <glyph glyph-name="twosuperior" unicode="&#xb2;" 
d="M547 1517q0 65 -47 111q-46 46 -108 45q-62 1 -107 -25t-68 -51l-20 -24l-74 72q9 15 29 37t88 59t143 37q127 0 203 -74t76 -172q0 -171 -152 -272q-62 -43 -126 -82q-153 -94 -161 -209h455v-103h-569q-6 35 -7 64q0 94 46 168t111 121t130 88q158 98 158 210z" />
    <glyph glyph-name="threesuperior" unicode="&#xb3;" 
d="M383 952q68 0 127 52t59 131q0 78 -60 125t-140 47h-68l-29 63l203 236l51 51v4q-39 -6 -75 -6h-316v102h539v-74l-244 -282q102 -12 178 -78q76 -67 76 -187t-88 -205t-222 -85t-239 87q-28 21 -47 48l72 78q26 -38 90 -73q65 -34 133 -34z" />
    <glyph glyph-name="acute" unicode="&#xb4;" horiz-adv-x="1032" 
d="M365 1540l141 244h162l-176 -244h-127z" />
    <glyph glyph-name="mu" unicode="&#xb5;" horiz-adv-x="1247" 
d="M182 -410v1440h140v-618q0 -146 45 -226t180 -80q168 0 273 128t106 303v493h139v-1030h-135v156l4 80h-4q-12 -30 -52 -83t-80 -87t-113 -63q-73 -28 -153 -28t-137 22t-76 44l-18 20h-4q14 -104 14 -155v-316h-129z" />
    <glyph glyph-name="mu" unicode="&#x3bc;" horiz-adv-x="1247" 
d="M182 -410v1440h140v-618q0 -146 45 -226t180 -80q168 0 273 128t106 303v493h139v-1030h-135v156l4 80h-4q-12 -30 -52 -83t-80 -87t-113 -63q-73 -28 -153 -28t-137 22t-76 44l-18 20h-4q14 -104 14 -155v-316h-129z" />
    <glyph glyph-name="paragraph" unicode="&#xb6;" horiz-adv-x="1173" 
d="M834 -102v1292h118v-1292h-118zM590 -102v596q-201 0 -345 138t-145 337q0 199 144 335t344 136h489v-127h-370v-1415h-117z" />
    <glyph glyph-name="periodcentered" unicode="&#xb7;" horiz-adv-x="555" 
d="M199 508v164h157v-164h-157z" />
    <glyph glyph-name="cedilla" unicode="&#xb8;" horiz-adv-x="1032" 
d="M666 -270q0 -72 -56 -111t-141 -39l-102 10v99q39 -12 86 -13q104 0 104 70t-117 70l-30 -2l53 227l82 -14v-17l-23 -123q64 -10 104 -48q40 -37 40 -109z" />
    <glyph glyph-name="onesuperior" unicode="&#xb9;" 
d="M152 866v103h194v592l2 49h-2q-8 -16 -43 -51l-82 -78l-71 75l202 201h107v-788h190v-103h-497z" />
    <glyph glyph-name="ordmasculine" unicode="&#xba;" horiz-adv-x="970" 
d="M176 541v96h621v-96h-621zM483 889q96 -1 163 67t67 169t-67 168t-163 67q-97 0 -163 -67t-66 -168t66 -169t163 -67zM483 784q-143 0 -242 98t-99 242q0 142 100 240t241 98t241 -97t101 -241t-99 -242t-243 -98z" />
    <glyph glyph-name="guillemotright" unicode="&#xbb;" horiz-adv-x="1073" 
d="M115 158l336 420l-336 421h151l336 -421l-336 -420h-151zM483 158l336 420l-336 421h152l336 -421l-336 -420h-152z" />
    <glyph glyph-name="onequarter" unicode="&#xbc;" horiz-adv-x="1933" 
d="M1286 336h295v278l6 127h-4q-33 -55 -65 -100l-232 -301v-4zM1581 0v233h-434v78l434 580h113v-555h133v-103h-133v-233h-113zM129 549v102h195v592l2 49h-2q-8 -16 -43 -51l-82 -78l-72 76l203 201h106v-789h191v-102h-498zM649 0h-121l689 1440h118z" />
    <glyph glyph-name="onehalf" unicode="&#xbd;" horiz-adv-x="1929" 
d="M1206 63q0 94 46 168t112 121t130 88q156 99 157 209q0 66 -47 112q-46 46 -108 46t-107 -25t-66 -49l-23 -26l-73 71q10 14 29 37t87 59t144 37q127 1 203 -73t76 -172t-45 -164q-44 -66 -107 -109q-62 -43 -126 -82q-153 -94 -161 -209h455v-102h-570q-6 33 -6 63z
M129 549v102h195v592l2 49h-2q-8 -16 -43 -51l-82 -78l-72 76l203 201h106v-789h191v-102h-498zM651 0h-121l689 1440h118z" />
    <glyph glyph-name="threequarters" unicode="&#xbe;" horiz-adv-x="1966" 
d="M391 635q68 0 127 52t60 130q0 78 -60 125t-141 47h-68l-28 64l202 235l52 51v4q-39 -6 -76 -6h-316v103h539v-74l-244 -283q102 -11 178 -77t76 -187t-88 -206t-217 -85t-244 87q-29 22 -47 49l72 77q24 -36 89 -71q66 -35 134 -35zM1319 336h295v278l6 127h-4
q-33 -55 -66 -100l-231 -301v-4zM1614 0v233h-434v78l434 580h112v-555h134v-103h-134v-233h-112zM682 0h-121l688 1440h119z" />
    <glyph glyph-name="questiondown" unicode="&#xbf;" horiz-adv-x="901" 
d="M459 571v82h137v-88q0 -163 -126 -284q-52 -51 -104 -99q-128 -119 -126 -243q0 -100 76 -168t192 -68q62 0 124 22t93 42l31 22l75 -102q-15 -11 -41 -31t-112 -53t-176 -33q-176 0 -293 102t-117 266t129 289q53 51 107 99q130 114 131 245zM449 872v158h157v-158h-157
z" />
    <glyph glyph-name="Agrave" unicode="&#xc0;" horiz-adv-x="1261" 
d="M569 1540l-176 244h162l141 -244h-127zM633 1290h-4q-31 -119 -56 -186l-192 -522h496l-189 522zM1085 0l-165 459h-580l-164 -459h-149l528 1440h152l528 -1440h-150z" />
    <glyph glyph-name="Aacute" unicode="&#xc1;" horiz-adv-x="1261" 
d="M565 1540l142 244h161l-176 -244h-127zM633 1290h-4q-31 -119 -56 -186l-192 -522h496l-189 522zM1085 0l-165 459h-580l-164 -459h-149l528 1440h152l528 -1440h-150z" />
    <glyph glyph-name="Acircumflex" unicode="&#xc2;" horiz-adv-x="1261" 
d="M383 1540l170 244h154l172 -244h-136l-110 166h-4l-111 -166h-135zM633 1290h-4q-31 -119 -56 -186l-192 -522h496l-189 522zM1085 0l-165 459h-580l-164 -459h-149l528 1440h152l528 -1440h-150z" />
    <glyph glyph-name="Atilde" unicode="&#xc3;" horiz-adv-x="1261" 
d="M311 1546q0 240 189 240q59 0 103 -37t81 -74t74 -37q82 0 82 142h110q0 -240 -188 -240q-60 0 -104 37t-80 73t-74 36q-80 0 -80 -140h-113zM633 1290h-4q-31 -119 -56 -186l-192 -522h496l-189 522zM1085 0l-165 459h-580l-164 -459h-149l528 1440h152l528 -1440h-150z
" />
    <glyph glyph-name="Adieresis" unicode="&#xc4;" horiz-adv-x="1261" 
d="M414 1608v176h125v-176h-125zM723 1608v176h127v-176h-127zM633 1290h-4q-31 -119 -56 -186l-192 -522h496l-189 522zM1085 0l-165 459h-580l-164 -459h-149l528 1440h152l528 -1440h-150z" />
    <glyph glyph-name="Aring" unicode="&#xc5;" horiz-adv-x="1261" 
d="M632 1595q30 -1 48 19t18 50t-18 49t-48 19t-48 -18q-18 -20 -18 -50t18 -50t48 -19zM631 1518q-63 0 -109 41q-45 41 -45 104t45 104q44 41 108 41t110 -41t46 -104t-46 -104t-109 -41zM633 1290h-4q-31 -119 -56 -186l-192 -522h496l-189 522zM1085 0l-165 459h-580
l-164 -459h-149l528 1440h152l528 -1440h-150z" />
    <glyph glyph-name="AE" unicode="&#xc6;" horiz-adv-x="1746" 
d="M786 786v527h-84l-213 -527h297zM1597 1440v-127h-669v-525h547v-126h-547v-535h706v-127h-848v664h-348l-268 -664h-150l592 1440h985z" />
    <glyph glyph-name="Ccedilla" unicode="&#xc7;" horiz-adv-x="1492" 
d="M115 735q0 307 207 518t516 211q194 0 322 -61t175 -105l21 -20l-76 -104q-21 21 -71 53q-169 106 -367 106q-252 0 -416 -173t-164 -432t165 -440t419 -182q167 0 284 64t164 109l19 20l82 -100l-23 -23q-14 -14 -65 -52q-193 -144 -443 -149l-16 -88q63 -10 103 -48
q40 -37 40 -109t-56 -111t-140 -39l-103 10v99q39 -12 86 -13q104 0 105 70q0 70 -117 70l-31 -2l39 166q-291 24 -475 236t-184 519z" />
    <glyph glyph-name="Egrave" unicode="&#xc8;" horiz-adv-x="1169" 
d="M575 1540l-176 244h162l141 -244h-127zM209 0v1440h811v-127h-670v-525h547v-126h-547v-535h707v-127h-848z" />
    <glyph glyph-name="Eacute" unicode="&#xc9;" horiz-adv-x="1169" 
d="M571 1540l142 244h161l-176 -244h-127zM209 0v1440h811v-127h-670v-525h547v-126h-547v-535h707v-127h-848z" />
    <glyph glyph-name="Ecircumflex" unicode="&#xca;" horiz-adv-x="1169" 
d="M391 1540l170 244h154l172 -244h-135l-111 166h-4l-111 -166h-135zM209 0v1440h811v-127h-670v-525h547v-126h-547v-535h707v-127h-848z" />
    <glyph glyph-name="Edieresis" unicode="&#xcb;" horiz-adv-x="1169" 
d="M422 1608v176h125v-176h-125zM731 1608v176h127v-176h-127zM209 0v1440h811v-127h-670v-525h547v-126h-547v-535h707v-127h-848z" />
    <glyph glyph-name="Igrave" unicode="&#xcc;" horiz-adv-x="559" 
d="M219 1540l-176 244h162l141 -244h-127zM209 0v1440h141v-1440h-141z" />
    <glyph glyph-name="Iacute" unicode="&#xcd;" horiz-adv-x="559" 
d="M213 1540l141 244h162l-176 -244h-127zM209 0v1440h141v-1440h-141z" />
    <glyph glyph-name="Icircumflex" unicode="&#xce;" horiz-adv-x="559" 
d="M33 1540l170 244h153l172 -244h-135l-110 166h-4l-111 -166h-135zM209 0v1440h141v-1440h-141z" />
    <glyph glyph-name="Idieresis" unicode="&#xcf;" horiz-adv-x="559" 
d="M63 1608v176h125v-176h-125zM373 1608v176h127v-176h-127zM209 0v1440h141v-1440h-141z" />
    <glyph glyph-name="Eth" unicode="&#xd0;" horiz-adv-x="1544" 
d="M383 127h307q270 0 430 155q160 154 160 438t-160 438t-430 155h-307v-529h342v-122h-342v-535zM119 662v122h123v656h463q331 0 527 -192t196 -529q0 -338 -197 -529q-197 -190 -526 -190h-463v662h-123z" />
    <glyph glyph-name="Ntilde" unicode="&#xd1;" horiz-adv-x="1542" 
d="M453 1546q0 240 188 240q59 0 103 -37t81 -74t74 -37q82 0 82 142h111q0 -240 -189 -240q-59 0 -103 37t-81 73t-74 36q-80 0 -80 -140h-112zM209 0v1440h137l735 -1037l119 -194h4q-12 119 -12 194v1037h141v-1440h-137l-735 1036l-119 195h-4q12 -119 12 -195v-1036
h-141z" />
    <glyph glyph-name="Ograve" unicode="&#xd2;" horiz-adv-x="1687" 
d="M780 1540l-176 244h162l141 -244h-127zM258 726q0 -259 170 -439q170 -181 415 -181t415 180t172 440q0 259 -172 433t-416 174t-414 -174t-170 -433zM111 726q0 312 213 525t520 213t520 -213t213 -525t-214 -531t-519 -219t-519 218q-214 220 -214 532z" />
    <glyph glyph-name="Oacute" unicode="&#xd3;" horiz-adv-x="1687" 
d="M776 1540l142 244h161l-176 -244h-127zM258 726q0 -259 170 -439q170 -181 415 -181t415 180t172 440q0 259 -172 433t-416 174t-414 -174t-170 -433zM111 726q0 312 213 525t520 213t520 -213t213 -525t-214 -531t-519 -219t-519 218q-214 220 -214 532z" />
    <glyph glyph-name="Ocircumflex" unicode="&#xd4;" horiz-adv-x="1687" 
d="M596 1540l170 244h154l172 -244h-136l-110 166h-4l-111 -166h-135zM258 726q0 -259 170 -439q170 -181 415 -181t415 180t172 440q0 259 -172 433t-416 174t-414 -174t-170 -433zM111 726q0 312 213 525t520 213t520 -213t213 -525t-214 -531t-519 -219t-519 218
q-214 220 -214 532z" />
    <glyph glyph-name="Otilde" unicode="&#xd5;" horiz-adv-x="1687" 
d="M524 1546q0 240 189 240q59 0 103 -37t81 -74t74 -37q82 0 82 142h110q0 -240 -188 -240q-59 0 -103 37t-82 73q-36 36 -73 36q-80 0 -80 -140h-113zM258 726q0 -259 170 -439q170 -181 415 -181t415 180t172 440q0 259 -172 433t-416 174t-414 -174t-170 -433zM111 726
q0 312 213 525t520 213t520 -213t213 -525t-214 -531t-519 -219t-519 218q-214 220 -214 532z" />
    <glyph glyph-name="Odieresis" unicode="&#xd6;" horiz-adv-x="1687" 
d="M627 1608v176h125v-176h-125zM936 1608v176h127v-176h-127zM258 726q0 -259 170 -439q170 -181 415 -181t415 180t172 440q0 259 -172 433t-416 174t-414 -174t-170 -433zM111 726q0 312 213 525t520 213t520 -213t213 -525t-214 -531t-519 -219t-519 218
q-214 220 -214 532z" />
    <glyph glyph-name="multiply" unicode="&#xd7;" horiz-adv-x="1341" 
d="M147 84l443 498l-443 497l84 84l439 -493l438 493l84 -84l-444 -497l444 -498l-84 -84l-438 494l-439 -494z" />
    <glyph glyph-name="Oslash" unicode="&#xd8;" horiz-adv-x="1693" 
d="M262 718q0 -268 191 -452l702 979q-143 88 -307 88q-246 0 -416 -174q-170 -173 -170 -441zM1434 735q0 268 -195 447l-704 -981q143 -94 313 -95q244 0 415 180t171 449zM115 729q0 309 213 522t520 213q207 0 387 -108l96 135l84 -61l-96 -136q123 -102 193 -250
t69 -315q0 -315 -214 -534t-519 -220q-215 0 -393 115l-99 -139l-86 59l101 142q-121 104 -189 254t-67 323z" />
    <glyph glyph-name="Ugrave" unicode="&#xd9;" horiz-adv-x="1482" 
d="M680 1540l-176 244h162l141 -244h-127zM190 502v938h144v-936q0 -184 110 -291q111 -107 298 -107t298 108t111 294v932h141v-938q0 -238 -152 -382t-398 -144q-248 0 -400 144t-152 382z" />
    <glyph glyph-name="Uacute" unicode="&#xda;" horiz-adv-x="1482" 
d="M676 1540l141 244h162l-176 -244h-127zM190 502v938h144v-936q0 -184 110 -291q111 -107 298 -107t298 108t111 294v932h141v-938q0 -238 -152 -382t-398 -144q-248 0 -400 144t-152 382z" />
    <glyph glyph-name="Ucircumflex" unicode="&#xdb;" horiz-adv-x="1482" 
d="M494 1540l170 244h153l172 -244h-135l-111 166h-4l-110 -166h-135zM190 502v938h144v-936q0 -184 110 -291q111 -107 298 -107t298 108t111 294v932h141v-938q0 -238 -152 -382t-398 -144q-248 0 -400 144t-152 382z" />
    <glyph glyph-name="Udieresis" unicode="&#xdc;" horiz-adv-x="1482" 
d="M524 1608v176h125v-176h-125zM834 1608v176h127v-176h-127zM190 502v938h144v-936q0 -184 110 -291q111 -107 298 -107t298 108t111 294v932h141v-938q0 -238 -152 -382t-398 -144q-248 0 -400 144t-152 382z" />
    <glyph glyph-name="Yacute" unicode="&#xdd;" horiz-adv-x="1175" 
d="M520 1540l142 244h161l-176 -244h-127zM516 0v618l-485 822h162l305 -522l88 -173h4q43 96 88 173l305 522h160l-484 -822v-618h-143z" />
    <glyph glyph-name="Thorn" unicode="&#xde;" horiz-adv-x="1226" 
d="M350 436h338q145 0 231 83q85 83 85 229t-84 227q-84 82 -230 82h-340v-621zM209 0v1440h141v-256h357q195 0 319 -119t125 -317q0 -198 -126 -318q-126 -121 -323 -121h-352v-309h-141z" />
    <glyph glyph-name="germandbls" unicode="&#xdf;" horiz-adv-x="1173" 
d="M168 0v1087q0 173 123 275t286 102t262 -90t99 -215q0 -72 -36 -134t-78 -99q-115 -101 -113 -170q0 -77 199 -194q76 -44 138 -120t62 -163q0 -139 -96 -217t-236 -76q-86 0 -162 16t-108 33l-33 16v133q123 -74 293 -73q84 0 142 44q58 43 58 117t-62 134t-138 102
q-76 40 -138 106t-62 132t35 120q36 55 78 92q42 36 78 90t36 118q-1 64 -59 117q-58 54 -164 54q-106 1 -185 -69q-80 -70 -80 -191v-1077h-139z" />
    <glyph glyph-name="agrave" unicode="&#xe0;" horiz-adv-x="1064" 
d="M467 1196l-176 244h162l141 -244h-127zM713 522q-339 0 -437 -102q-50 -52 -49 -130q1 -79 61 -137t169 -59q139 0 227 119t88 264v45h-59zM84 281q0 356 631 356h57v27q0 266 -256 266q-76 0 -148 -25t-108 -49l-35 -25l-65 107q50 43 157 80t209 37q186 1 286 -101
t99 -295v-659h-133v113l4 86h-4q-4 -7 -11 -23t-36 -55q-61 -82 -163 -121q-62 -25 -134 -25q-141 0 -246 80q-104 81 -104 226z" />
    <glyph glyph-name="aacute" unicode="&#xe1;" horiz-adv-x="1064" 
d="M461 1196l141 244h162l-176 -244h-127zM713 522q-339 0 -437 -102q-50 -52 -49 -130q1 -79 61 -137t169 -59q139 0 227 119t88 264v45h-59zM84 281q0 356 631 356h57v27q0 266 -256 266q-76 0 -148 -25t-108 -49l-35 -25l-65 107q50 43 157 80t209 37q186 1 286 -101
t99 -295v-659h-133v113l4 86h-4q-4 -7 -11 -23t-36 -55q-61 -82 -163 -121q-62 -25 -134 -25q-141 0 -246 80q-104 81 -104 226z" />
    <glyph glyph-name="acircumflex" unicode="&#xe2;" horiz-adv-x="1064" 
d="M283 1196l170 244h153l172 -244h-135l-111 166h-4l-110 -166h-135zM713 522q-339 0 -437 -102q-50 -52 -49 -130q1 -79 61 -137t169 -59q139 0 227 119t88 264v45h-59zM84 281q0 356 631 356h57v27q0 266 -256 266q-76 0 -148 -25t-108 -49l-35 -25l-65 107q50 43 157 80
t209 37q186 1 286 -101t99 -295v-659h-133v113l4 86h-4q-4 -7 -11 -23t-36 -55q-61 -82 -163 -121q-62 -25 -134 -25q-141 0 -246 80q-104 81 -104 226z" />
    <glyph glyph-name="atilde" unicode="&#xe3;" horiz-adv-x="1064" 
d="M211 1202q0 240 188 240q59 0 103 -37t82 -74q37 -37 73 -37q82 0 82 142h111q0 -240 -188 -240q-60 0 -104 37t-81 73t-74 35q-80 0 -79 -139h-113zM713 522q-339 0 -437 -102q-50 -52 -49 -130q1 -79 61 -137t169 -59q139 0 227 119t88 264v45h-59zM84 281
q0 356 631 356h57v27q0 266 -256 266q-76 0 -148 -25t-108 -49l-35 -25l-65 107q50 43 157 80t209 37q186 1 286 -101t99 -295v-659h-133v113l4 86h-4q-4 -7 -11 -23t-36 -55q-61 -82 -163 -121q-62 -25 -134 -25q-141 0 -246 80q-104 81 -104 226z" />
    <glyph glyph-name="adieresis" unicode="&#xe4;" horiz-adv-x="1064" 
d="M313 1264v176h125v-176h-125zM623 1264v176h127v-176h-127zM713 522q-339 0 -437 -102q-50 -52 -49 -130q1 -79 61 -137t169 -59q139 0 227 119t88 264v45h-59zM84 281q0 356 631 356h57v27q0 266 -256 266q-76 0 -148 -25t-108 -49l-35 -25l-65 107q50 43 157 80t209 37
q186 1 286 -101t99 -295v-659h-133v113l4 86h-4q-4 -7 -11 -23t-36 -55q-61 -82 -163 -121q-62 -25 -134 -25q-141 0 -246 80q-104 81 -104 226z" />
    <glyph glyph-name="aring" unicode="&#xe5;" horiz-adv-x="1064" 
d="M463 1320q0 -30 18 -50t48 -19q31 -1 49 19t18 50t-18 49t-48 19t-49 -18q-18 -20 -18 -50zM528 1174q-63 0 -108 40t-45 104t45 105t108 41q64 0 110 -41t46 -104t-46 -105q-47 -40 -110 -40zM713 522q-339 0 -437 -102q-50 -52 -49 -130q1 -79 61 -137t169 -59
q139 0 227 119t88 264v45h-59zM84 281q0 356 631 356h57v27q0 266 -256 266q-76 0 -148 -25t-108 -49l-35 -25l-65 107q50 43 157 80t209 37q186 1 286 -101t99 -295v-659h-133v113l4 86h-4q-4 -7 -11 -23t-36 -55q-61 -82 -163 -121q-62 -25 -134 -25q-141 0 -246 80
q-104 81 -104 226z" />
    <glyph glyph-name="ae" unicode="&#xe6;" horiz-adv-x="1781" 
d="M227 286q-1 -77 61 -134t171 -58q139 0 226 120t87 265v35h-121q-161 0 -274 -33q-150 -42 -150 -195zM1244 936q-126 0 -216 -78t-115 -229h629q-6 151 -89 229t-209 78zM84 281q0 198 173 278q133 64 338 69q44 1 107 1h68v35q0 266 -262 266q-74 0 -144 -25t-106 -49
l-35 -25l-63 105q14 12 43 32t121 54q92 33 192 33q281 0 348 -213h4q127 213 389 213q199 0 313 -134t113 -329l-4 -78h-774q5 -198 111 -306t274 -108q82 0 160 31t115 62l37 32l63 -106q-16 -16 -47 -40t-130 -64t-204 -40q-158 0 -276 76t-177 211h-4q-15 -57 -56 -113
q-42 -55 -82 -89q-41 -34 -107 -60t-144 -25q-150 -1 -252 81t-102 225z" />
    <glyph glyph-name="ccedilla" unicode="&#xe7;" horiz-adv-x="1126" 
d="M98 524q0 226 156 378t385 153q174 0 316 -96q32 -22 46 -37l15 -15l-72 -104q-38 44 -128 85q-91 40 -173 40q-172 0 -287 -116q-114 -116 -114 -297t116 -298t276 -117q159 0 287 94q30 22 42 35l14 17l63 -109q-14 -16 -44 -43q-30 -26 -129 -70t-210 -49l-16 -88
q63 -10 103 -48q40 -37 40 -109t-56 -111t-140 -39l-103 10v99q39 -12 86 -13q104 0 105 70q0 70 -117 70l-31 -2l39 166q-207 23 -338 170q-131 148 -131 374z" />
    <glyph glyph-name="egrave" unicode="&#xe8;" horiz-adv-x="1132" 
d="M545 1196l-176 244h161l142 -244h-127zM594 938q-129 0 -226 -82t-122 -233h647q-6 155 -88 235t-211 80zM635 -25q-231 -1 -385 151t-154 393t146 388t357 147q210 0 323 -135q113 -136 112 -339l-4 -72h-790q4 -190 118 -299t281 -109q84 0 162 31t114 62l37 32
l64 -106q-16 -16 -48 -40t-131 -64t-202 -40z" />
    <glyph glyph-name="eacute" unicode="&#xe9;" horiz-adv-x="1132" 
d="M539 1196l141 244h162l-176 -244h-127zM594 938q-129 0 -226 -82t-122 -233h647q-6 155 -88 235t-211 80zM635 -25q-231 -1 -385 151t-154 393t146 388t357 147q210 0 323 -135q113 -136 112 -339l-4 -72h-790q4 -190 118 -299t281 -109q84 0 162 31t114 62l37 32
l64 -106q-16 -16 -48 -40t-131 -64t-202 -40z" />
    <glyph glyph-name="ecircumflex" unicode="&#xea;" horiz-adv-x="1132" 
d="M358 1196l170 244h154l172 -244h-135l-111 166h-4l-110 -166h-136zM594 938q-129 0 -226 -82t-122 -233h647q-6 155 -88 235t-211 80zM635 -25q-231 -1 -385 151t-154 393t146 388t357 147q210 0 323 -135q113 -136 112 -339l-4 -72h-790q4 -190 118 -299t281 -109
q84 0 162 31t114 62l37 32l64 -106q-16 -16 -48 -40t-131 -64t-202 -40z" />
    <glyph glyph-name="edieresis" unicode="&#xeb;" horiz-adv-x="1132" 
d="M389 1264v176h125v-176h-125zM698 1264v176h127v-176h-127zM594 938q-129 0 -226 -82t-122 -233h647q-6 155 -88 235t-211 80zM635 -25q-231 -1 -385 151t-154 393t146 388t357 147q210 0 323 -135q113 -136 112 -339l-4 -72h-790q4 -190 118 -299t281 -109q84 0 162 31
t114 62l37 32l64 -106q-16 -16 -48 -40t-131 -64t-202 -40z" />
    <glyph glyph-name="igrave" unicode="&#xec;" horiz-adv-x="475" 
d="M168 0v1030h139v-1030h-139zM176 1196l-176 244h162l141 -244h-127z" />
    <glyph glyph-name="iacute" unicode="&#xed;" horiz-adv-x="475" 
d="M168 0v1030h139v-1030h-139zM172 1196l141 244h162l-176 -244h-127z" />
    <glyph glyph-name="icircumflex" unicode="&#xee;" horiz-adv-x="475" 
d="M-8 1196l170 244h153l172 -244h-135l-110 166h-4l-111 -166h-135zM168 0v1030h139v-1030h-139z" />
    <glyph glyph-name="idieresis" unicode="&#xef;" horiz-adv-x="475" 
d="M168 0v1030h139v-1030h-139zM23 1264v176h124v-176h-124zM332 1264v176h127v-176h-127z" />
    <glyph glyph-name="eth" unicode="&#xf0;" horiz-adv-x="1204" 
d="M938 514q0 150 -92 238q-92 86 -254 86t-255 -108t-93 -258q0 -152 90 -262t255 -110t257 132t92 282zM100 473q0 199 130 341t360 142q88 0 162 -28t104 -56l29 -26h4q-70 199 -254 325l-361 -163l-26 98l276 129q-131 68 -291 104l41 119q236 -59 402 -158l268 121
l27 -98l-199 -92q309 -242 309 -672q0 -221 -118 -393q-59 -86 -159 -138t-231 -53q-215 -1 -344 149t-129 349z" />
    <glyph glyph-name="ntilde" unicode="&#xf1;" horiz-adv-x="1214" 
d="M317 1202q0 240 189 240q59 0 103 -37t81 -74t74 -37q82 0 82 142h110q0 -240 -188 -240q-59 0 -103 37t-81 73t-74 35q-80 0 -80 -139h-113zM168 0v1030h137v-153l-4 -82h4q37 94 143 177t280 83q173 -1 253 -101t80 -299v-655h-139v618q0 146 -44 226t-178 80t-237 -81
q-153 -119 -156 -349v-494h-139z" />
    <glyph glyph-name="ograve" unicode="&#xf2;" horiz-adv-x="1273" 
d="M575 1196l-176 244h162l141 -244h-127zM637 928q-169 0 -285 -117t-116 -293t116 -297t285 -121q168 0 285 121q116 121 116 297t-116 293q-117 117 -285 117zM92 518q0 229 159 383t386 154t386 -154t159 -383t-159 -386t-386 -157t-386 157t-159 386z" />
    <glyph glyph-name="oacute" unicode="&#xf3;" horiz-adv-x="1273" 
d="M571 1196l142 244h161l-176 -244h-127zM637 928q-169 0 -285 -117t-116 -293t116 -297t285 -121q168 0 285 121q116 121 116 297t-116 293q-117 117 -285 117zM92 518q0 229 159 383t386 154t386 -154t159 -383t-159 -386t-386 -157t-386 157t-159 386z" />
    <glyph glyph-name="ocircumflex" unicode="&#xf4;" horiz-adv-x="1273" 
d="M389 1196l170 244h154l172 -244h-135l-111 166h-4l-111 -166h-135zM637 928q-169 0 -285 -117t-116 -293t116 -297t285 -121q168 0 285 121q116 121 116 297t-116 293q-117 117 -285 117zM92 518q0 229 159 383t386 154t386 -154t159 -383t-159 -386t-386 -157t-386 157
t-159 386z" />
    <glyph glyph-name="otilde" unicode="&#xf5;" horiz-adv-x="1273" 
d="M317 1202q0 240 189 240q59 0 103 -37t81 -74t74 -37q82 0 82 142h110q0 -240 -188 -240q-59 0 -103 37t-81 73t-74 35q-80 0 -80 -139h-113zM637 928q-169 0 -285 -117t-116 -293t116 -297t285 -121q168 0 285 121q116 121 116 297t-116 293q-117 117 -285 117zM92 518
q0 229 159 383t386 154t386 -154t159 -383t-159 -386t-386 -157t-386 157t-159 386z" />
    <glyph glyph-name="odieresis" unicode="&#xf6;" horiz-adv-x="1273" 
d="M420 1264v176h125v-176h-125zM729 1264v176h127v-176h-127zM637 928q-169 0 -285 -117t-116 -293t116 -297t285 -121q168 0 285 121q116 121 116 297t-116 293q-117 117 -285 117zM92 518q0 229 159 383t386 154t386 -154t159 -383t-159 -386t-386 -157t-386 157
t-159 386z" />
    <glyph glyph-name="divide" unicode="&#xf7;" horiz-adv-x="1323" 
d="M584 125v151h153v-151h-153zM160 522v119h1003v-119h-1003zM584 887v151h153v-151h-153z" />
    <glyph glyph-name="oslash" unicode="&#xf8;" horiz-adv-x="1277" 
d="M1040 517q0 175 -116 292l-473 -662q84 -47 188 -47q168 0 285 121q116 121 116 296zM238 513q0 -181 129 -304l475 663q-94 55 -203 56q-169 0 -285 -117t-116 -298zM94 520q0 227 159 381t386 154q150 0 279 -74l79 111l84 -62l-77 -110q180 -158 180 -394t-159 -394
q-159 -157 -386 -157q-139 0 -264 66l-78 -109l-84 62l76 104q-195 162 -195 422z" />
    <glyph glyph-name="ugrave" unicode="&#xf9;" horiz-adv-x="1204" 
d="M535 1196l-177 244h162l142 -244h-127zM154 375v655h139v-618q0 -146 44 -226t179 -80q170 0 276 127q105 127 105 304v493h139v-1030h-135v154l4 82h-4q-39 -94 -144 -178t-272 -83t-249 99t-82 301z" />
    <glyph glyph-name="uacute" unicode="&#xfa;" horiz-adv-x="1204" 
d="M528 1196l142 244h161l-176 -244h-127zM154 375v655h139v-618q0 -146 44 -226t179 -80q170 0 276 127q105 127 105 304v493h139v-1030h-135v154l4 82h-4q-39 -94 -144 -178t-272 -83t-249 99t-82 301z" />
    <glyph glyph-name="ucircumflex" unicode="&#xfb;" horiz-adv-x="1204" 
d="M348 1196l170 244h154l172 -244h-135l-111 166h-4l-111 -166h-135zM154 375v655h139v-618q0 -146 44 -226t179 -80q170 0 276 127q105 127 105 304v493h139v-1030h-135v154l4 82h-4q-39 -94 -144 -178t-272 -83t-249 99t-82 301z" />
    <glyph glyph-name="udieresis" unicode="&#xfc;" horiz-adv-x="1204" 
d="M379 1264v176h125v-176h-125zM688 1264v176h127v-176h-127zM154 375v655h139v-618q0 -146 44 -226t179 -80q170 0 276 127q105 127 105 304v493h139v-1030h-135v154l4 82h-4q-39 -94 -144 -178t-272 -83t-249 99t-82 301z" />
    <glyph glyph-name="yacute" unicode="&#xfd;" horiz-adv-x="1021" 
d="M446 1196l142 244h162l-177 -244h-127zM190 -305q121 0 195 168l64 145l-431 1022h154l303 -751l37 -109h4q14 57 35 109l297 751h151l-507 -1245q-41 -99 -119 -157t-178 -58q-47 0 -93 15t-65 30l-23 16l54 111q57 -47 122 -47z" />
    <glyph glyph-name="thorn" unicode="&#xfe;" horiz-adv-x="1206" 
d="M638 928q-144 0 -240 -102t-95 -294q0 -192 89 -312q90 -120 236 -120t240 114t94 300t-90 300t-234 114zM168 -410v1850h139v-498l-2 -84h4l13 19q116 174 328 176t334 -148q122 -151 122 -391t-129 -390t-332 -149q-141 0 -224 67t-104 110l-10 20h-4q4 -37 4 -90v-492
h-139z" />
    <glyph glyph-name="ydieresis" unicode="&#xff;" horiz-adv-x="1021" 
d="M297 1264v176h125v-176h-125zM606 1264v176h127v-176h-127zM190 -305q121 0 195 168l64 145l-431 1022h154l303 -751l37 -109h4q14 57 35 109l297 751h151l-507 -1245q-41 -99 -119 -157t-178 -58q-47 0 -93 15t-65 30l-23 16l54 111q57 -47 122 -47z" />
    <glyph glyph-name="Amacron" unicode="&#x100;" horiz-adv-x="1261" 
d="M379 1608v112h504v-112h-504zM633 1290h-4q-31 -119 -56 -186l-192 -522h496l-189 522zM1085 0l-165 459h-580l-164 -459h-149l528 1440h152l528 -1440h-150z" />
    <glyph glyph-name="amacron" unicode="&#x101;" horiz-adv-x="1064" 
d="M279 1264v112h503v-112h-503zM713 522q-339 0 -437 -102q-50 -52 -49 -130q1 -79 61 -137t169 -59q139 0 227 119t88 264v45h-59zM84 281q0 356 631 356h57v27q0 266 -256 266q-76 0 -148 -25t-108 -49l-35 -25l-65 107q50 43 157 80t209 37q186 1 286 -101t99 -295v-659
h-133v113l4 86h-4q-4 -7 -11 -23t-36 -55q-61 -82 -163 -121q-62 -25 -134 -25q-141 0 -246 80q-104 81 -104 226z" />
    <glyph glyph-name="Abreve" unicode="&#x102;" horiz-adv-x="1261" 
d="M632 1534q-97 0 -167 57t-70 162v31h113v-27q0 -63 36 -95t88 -32t88 32t36 95v27h112v-31q0 -104 -69 -162q-70 -57 -167 -57zM633 1290h-4q-31 -119 -56 -186l-192 -522h496l-189 522zM1085 0l-165 459h-580l-164 -459h-149l528 1440h152l528 -1440h-150z" />
    <glyph glyph-name="abreve" unicode="&#x103;" horiz-adv-x="1064" 
d="M766 1409q0 -103 -70 -161t-167 -58t-167 57t-69 162v31h113v-27q0 -63 36 -95t87 -32q52 0 88 32t36 95v27h113v-31zM713 522q-339 0 -437 -102q-50 -52 -49 -130q1 -79 61 -137t169 -59q139 0 227 119t88 264v45h-59zM84 281q0 356 631 356h57v27q0 266 -256 266
q-76 0 -148 -25t-108 -49l-35 -25l-65 107q50 43 157 80t209 37q186 1 286 -101t99 -295v-659h-133v113l4 86h-4q-4 -7 -11 -23t-36 -55q-61 -82 -163 -121q-62 -25 -134 -25q-141 0 -246 80q-104 81 -104 226z" />
    <glyph glyph-name="Aogonek" unicode="&#x104;" horiz-adv-x="1261" 
d="M633 1290h-4q-31 -119 -56 -186l-192 -522h496l-189 522zM956 -231q0 119 131 223l-167 467h-580l-164 -459h-149l528 1440h152l528 -1440q-150 -115 -150 -203q0 -41 32 -67t63 -29l32 -6l-30 -115q-27 0 -72 14t-75 33q-31 17 -55 55t-24 87z" />
    <glyph glyph-name="aogonek" unicode="&#x105;" horiz-adv-x="1064" 
d="M713 522q-339 0 -437 -102q-50 -52 -49 -130q1 -79 61 -137t169 -59q139 0 227 119t88 264v45h-59zM84 281q0 356 631 356h57v27q0 266 -256 266q-76 0 -148 -25t-108 -49l-35 -25l-65 107q50 43 157 80t209 37q186 1 286 -101t99 -295v-659q-150 -115 -149 -203
q0 -41 32 -67t62 -29l33 -6l-31 -115q-26 0 -71 14t-75 33q-30 17 -55 55t-24 87q0 125 145 233v111l4 86h-4q-4 -7 -11 -23t-36 -55q-61 -82 -163 -121q-62 -25 -134 -25q-141 0 -246 80q-104 81 -104 226z" />
    <glyph glyph-name="Cacute" unicode="&#x106;" horiz-adv-x="1490" 
d="M756 1540l141 244h162l-176 -244h-127zM842 -25q-315 -1 -522 217t-207 534t206 527q207 211 517 211q194 0 322 -61t175 -105l21 -20l-76 -104q-19 19 -70 52q-169 107 -368 107q-252 0 -416 -173t-164 -432t165 -440t419 -182q167 0 287 66t159 107l21 20l82 -100
l-24 -24q-15 -15 -69 -54q-113 -82 -266 -121q-94 -25 -192 -25z" />
    <glyph glyph-name="cacute" unicode="&#x107;" horiz-adv-x="1124" 
d="M535 1196l141 244h162l-176 -244h-127zM96 513q0 237 156 389t385 153q174 0 316 -96q32 -22 46 -37l15 -15l-72 -104q-38 44 -128 85q-91 40 -173 40q-172 0 -287 -116q-114 -116 -114 -297t116 -298t276 -117q192 0 331 129l12 17l63 -109q-159 -159 -395 -160
q-237 -1 -392 149t-155 387z" />
    <glyph glyph-name="Ccircumflex" unicode="&#x108;" horiz-adv-x="1490" 
d="M575 1540l170 244h154l172 -244h-135l-111 166h-4l-110 -166h-136zM842 -25q-315 -1 -522 217t-207 534t206 527q207 211 517 211q194 0 322 -61t175 -105l21 -20l-76 -104q-19 19 -70 52q-169 107 -368 107q-252 0 -416 -173t-164 -432t165 -440t419 -182q167 0 287 66
t159 107l21 20l82 -100l-24 -24q-15 -15 -69 -54q-113 -82 -266 -121q-94 -25 -192 -25z" />
    <glyph glyph-name="ccircumflex" unicode="&#x109;" horiz-adv-x="1124" 
d="M354 1196l170 244h154l172 -244h-135l-111 166h-4l-111 -166h-135zM96 513q0 237 156 389t385 153q174 0 316 -96q32 -22 46 -37l15 -15l-72 -104q-38 44 -128 85q-91 40 -173 40q-172 0 -287 -116q-114 -116 -114 -297t116 -298t276 -117q192 0 331 129l12 17l63 -109
q-159 -159 -395 -160q-237 -1 -392 149t-155 387z" />
    <glyph glyph-name="Cdotaccent" unicode="&#x10a;" horiz-adv-x="1490" 
d="M756 1610v174h133v-174h-133zM842 -25q-315 -1 -522 217t-207 534t206 527q207 211 517 211q194 0 322 -61t175 -105l21 -20l-76 -104q-19 19 -70 52q-169 107 -368 107q-252 0 -416 -173t-164 -432t165 -440t419 -182q167 0 287 66t159 107l21 20l82 -100l-24 -24
q-15 -15 -69 -54q-113 -82 -266 -121q-94 -25 -192 -25z" />
    <glyph glyph-name="cdotaccent" unicode="&#x10b;" horiz-adv-x="1124" 
d="M535 1266v174h133v-174h-133zM96 513q0 237 156 389t385 153q174 0 316 -96q32 -22 46 -37l15 -15l-72 -104q-38 44 -128 85q-91 40 -173 40q-172 0 -287 -116q-114 -116 -114 -297t116 -298t276 -117q192 0 331 129l12 17l63 -109q-159 -159 -395 -160q-237 -1 -392 149
t-155 387z" />
    <glyph glyph-name="Ccaron" unicode="&#x10c;" horiz-adv-x="1490" 
d="M745 1540l-170 244h136l110 -164h4l111 164h135l-172 -244h-154zM842 -25q-315 -1 -522 217t-207 534t206 527q207 211 517 211q194 0 322 -61t175 -105l21 -20l-76 -104q-19 19 -70 52q-169 107 -368 107q-252 0 -416 -173t-164 -432t165 -440t419 -182q167 0 287 66
t159 107l21 20l82 -100l-24 -24q-15 -15 -69 -54q-113 -82 -266 -121q-94 -25 -192 -25z" />
    <glyph glyph-name="ccaron" unicode="&#x10d;" horiz-adv-x="1124" 
d="M524 1196l-170 244h135l111 -164h4l111 164h135l-172 -244h-154zM96 513q0 237 156 389t385 153q174 0 316 -96q32 -22 46 -37l15 -15l-72 -104q-38 44 -128 85q-91 40 -173 40q-172 0 -287 -116q-114 -116 -114 -297t116 -298t276 -117q192 0 331 129l12 17l63 -109
q-159 -159 -395 -160q-237 -1 -392 149t-155 387z" />
    <glyph glyph-name="Dcaron" unicode="&#x10e;" horiz-adv-x="1515" 
d="M625 1540l-170 244h135l110 -164h5l110 164h135l-172 -244h-153zM350 127h309q270 0 431 155q160 154 160 438t-160 438t-431 155h-309v-1186zM209 0v1440h465q328 0 526 -192t197 -529q0 -339 -197 -529t-526 -190h-465z" />
    <glyph glyph-name="dcaron" unicode="&#x10f;" horiz-adv-x="1267" 
d="M1190 1316q0 63 -23 124h133q12 -53 12 -117t-46 -168h-115q39 98 39 161zM244 516q0 -188 90 -302t233 -114t239 104t97 294q0 188 -86 310q-87 122 -235 122t-243 -113t-95 -301zM100 516q0 242 129 390t334 149q173 0 289 -125q27 -29 37 -49l10 -21h4q-4 35 -4 78
v502h139v-1440h-135v109l4 73h-4l-11 -22q-7 -14 -36 -50q-61 -76 -167 -112q-65 -23 -140 -23q-205 -1 -327 149t-122 392z" />
    <glyph glyph-name="Dcroat" unicode="&#x110;" horiz-adv-x="1544" 
d="M383 127h307q270 0 430 155q160 154 160 438t-160 438t-430 155h-307v-529h342v-122h-342v-535zM119 662v122h123v656h463q331 0 527 -192t196 -529q0 -338 -197 -529q-197 -190 -526 -190h-463v662h-123z" />
    <glyph glyph-name="dcroat" unicode="&#x111;" horiz-adv-x="1206" 
d="M244 516q0 -188 90 -302t233 -114t239 104t97 294q0 188 -86 310q-87 122 -235 122t-243 -113t-95 -301zM629 1159v105h270v176h139v-176h164v-105h-164v-1159h-135v109l4 73h-4l-11 -22q-7 -14 -36 -50q-61 -76 -167 -112q-65 -23 -140 -23q-205 0 -327 150
q-122 149 -122 391t129 390t334 149q173 0 289 -125q27 -29 37 -49l10 -21h4q-4 35 -4 78v221h-270z" />
    <glyph glyph-name="Emacron" unicode="&#x112;" horiz-adv-x="1169" 
d="M387 1608v112h504v-112h-504zM209 0v1440h811v-127h-670v-525h547v-126h-547v-535h707v-127h-848z" />
    <glyph glyph-name="emacron" unicode="&#x113;" horiz-adv-x="1132" 
d="M354 1264v112h504v-112h-504zM594 938q-129 0 -226 -82t-122 -233h647q-6 155 -88 235t-211 80zM635 -25q-231 -1 -385 151t-154 393t146 388t357 147q210 0 323 -135q113 -136 112 -339l-4 -72h-790q4 -190 118 -299t281 -109q84 0 162 31t114 62l37 32l64 -106
q-16 -16 -48 -40t-131 -64t-202 -40z" />
    <glyph glyph-name="Ebreve" unicode="&#x114;" horiz-adv-x="1169" 
d="M638 1534q-97 0 -167 57t-70 162v31h113v-27q0 -63 36 -95t88 -32t88 32t36 95v27h112v-31q0 -104 -69 -162q-70 -57 -167 -57zM209 0v1440h811v-127h-670v-525h547v-126h-547v-535h707v-127h-848z" />
    <glyph glyph-name="ebreve" unicode="&#x115;" horiz-adv-x="1132" 
d="M842 1409q0 -103 -70 -161t-167 -58t-167 57t-69 162v31h112v-27q0 -63 36 -95t88 -32t88 32t36 95v27h113v-31zM594 938q-129 0 -226 -82t-122 -233h647q-6 155 -88 235t-211 80zM635 -25q-231 -1 -385 151t-154 393t146 388t357 147q210 0 323 -135q113 -136 112 -339
l-4 -72h-790q4 -190 118 -299t281 -109q84 0 162 31t114 62l37 32l64 -106q-16 -16 -48 -40t-131 -64t-202 -40z" />
    <glyph glyph-name="Edotaccent" unicode="&#x116;" horiz-adv-x="1169" 
d="M571 1610v174h134v-174h-134zM209 0v1440h811v-127h-670v-525h547v-126h-547v-535h707v-127h-848z" />
    <glyph glyph-name="edotaccent" unicode="&#x117;" horiz-adv-x="1132" 
d="M539 1266v174h133v-174h-133zM594 938q-129 0 -226 -82t-122 -233h647q-6 155 -88 235t-211 80zM635 -25q-231 -1 -385 151t-154 393t146 388t357 147q210 0 323 -135q113 -136 112 -339l-4 -72h-790q4 -190 118 -299t281 -109q84 0 162 31t114 62l37 32l64 -106
q-16 -16 -48 -40t-131 -64t-202 -40z" />
    <glyph glyph-name="Eogonek" unicode="&#x118;" horiz-adv-x="1169" 
d="M209 0v1440h811v-127h-670v-525h547v-126h-547v-535h707v-127q-150 -115 -150 -203q0 -41 32 -67t65 -29l30 -6l-30 -115q-27 0 -72 14t-75 33q-31 17 -55 55t-24 87q0 119 144 227v4h-713z" />
    <glyph glyph-name="eogonek" unicode="&#x119;" horiz-adv-x="1134" 
d="M594 938q-129 0 -226 -82t-122 -233h647q-6 155 -88 235t-211 80zM96 519q0 241 146 388t357 147q210 0 323 -135q113 -136 112 -339l-4 -72h-790q4 -190 118 -299t281 -109q84 0 162 31t114 62l37 32l64 -106q-20 -21 -108 -81t-138 -118q-51 -58 -51 -112q0 -52 32 -78
t64 -29l31 -6l-31 -115q-26 0 -71 14q-46 14 -76 33q-30 17 -54 55q-25 38 -24 87q0 106 110 208v5q-31 -6 -65 -7q-231 -1 -385 151t-154 393z" />
    <glyph glyph-name="Ecaron" unicode="&#x11a;" horiz-adv-x="1169" 
d="M561 1540l-170 244h135l111 -164h4l111 164h135l-172 -244h-154zM209 0v1440h811v-127h-670v-525h547v-126h-547v-535h707v-127h-848z" />
    <glyph glyph-name="ecaron" unicode="&#x11b;" horiz-adv-x="1132" 
d="M528 1196l-170 244h136l110 -164h4l111 164h135l-172 -244h-154zM594 938q-129 0 -226 -82t-122 -233h647q-6 155 -88 235t-211 80zM635 -25q-231 -1 -385 151t-154 393t146 388t357 147q210 0 323 -135q113 -136 112 -339l-4 -72h-790q4 -190 118 -299t281 -109
q84 0 162 31t114 62l37 32l64 -106q-16 -16 -48 -40t-131 -64t-202 -40z" />
    <glyph glyph-name="Gcircumflex" unicode="&#x11c;" horiz-adv-x="1552" 
d="M567 1540l170 244h154l172 -244h-135l-111 166h-4l-111 -166h-135zM113 718q0 316 208 531t517 215q147 0 275 -42t181 -83l56 -43l-76 -106q-18 16 -54 40t-148 64t-228 39q-258 0 -421 -175t-163 -438t163 -438t408 -176q125 0 238 54t164 106l51 51v244h-246v127h381
v-688h-131v109l2 61h-4q-20 -26 -71 -64q-181 -131 -398 -131q-297 0 -501 213q-203 214 -203 530z" />
    <glyph glyph-name="gcircumflex" unicode="&#x11d;" horiz-adv-x="1191" 
d="M336 1196l170 244h153l172 -244h-135l-110 166h-4l-111 -166h-135zM572 131q144 0 230 95q85 95 85 309q0 393 -326 393q-149 0 -233 -104t-84 -287q0 -184 92 -295t236 -111zM530 -305q156 0 255 80t100 243v95l4 73h-4q-97 -180 -315 -180t-344 148t-126 380
q0 234 121 377t326 144q154 0 233 -57t99 -97l8 -18h4q-2 12 -2 35v112h135v-1005q0 -229 -142 -342t-336 -113t-353 82l53 115q128 -72 284 -72z" />
    <glyph glyph-name="Gbreve" unicode="&#x11e;" horiz-adv-x="1552" 
d="M1053 1753q0 -103 -70 -161t-167 -58t-167 57t-69 162v31h112v-27q0 -63 36 -95t88 -32t88 32t36 95v27h113v-31zM113 718q0 316 208 531t517 215q147 0 275 -42t181 -83l56 -43l-76 -106q-18 16 -54 40t-148 64t-228 39q-258 0 -421 -175t-163 -438t163 -438t408 -176
q125 0 238 54t164 106l51 51v244h-246v127h381v-688h-131v109l2 61h-4q-20 -26 -71 -64q-181 -131 -398 -131q-297 0 -501 213q-203 214 -203 530z" />
    <glyph glyph-name="gbreve" unicode="&#x11f;" horiz-adv-x="1191" 
d="M583 1190q-97 0 -167 57t-70 162v31h113v-27q0 -63 36 -95t88 -32t88 32t36 95v27h112v-31q0 -104 -69 -162q-70 -57 -167 -57zM572 131q144 0 230 95q85 95 85 309q0 393 -326 393q-149 0 -233 -104t-84 -287q0 -184 92 -295t236 -111zM530 -305q156 0 255 80t100 243
v95l4 73h-4q-97 -180 -315 -180t-344 148t-126 380q0 234 121 377t326 144q154 0 233 -57t99 -97l8 -18h4q-2 12 -2 35v112h135v-1005q0 -229 -142 -342t-336 -113t-353 82l53 115q128 -72 284 -72z" />
    <glyph glyph-name="Gdotaccent" unicode="&#x120;" horiz-adv-x="1552" 
d="M750 1610v174h133v-174h-133zM113 718q0 316 208 531t517 215q147 0 275 -42t181 -83l56 -43l-76 -106q-18 16 -54 40t-148 64t-228 39q-258 0 -421 -175t-163 -438t163 -438t408 -176q125 0 238 54t164 106l51 51v244h-246v127h381v-688h-131v109l2 61h-4
q-20 -26 -71 -64q-181 -131 -398 -131q-297 0 -501 213q-203 214 -203 530z" />
    <glyph glyph-name="gdotaccent" unicode="&#x121;" horiz-adv-x="1191" 
d="M516 1266v174h133v-174h-133zM572 131q144 0 230 95q85 95 85 309q0 393 -326 393q-149 0 -233 -104t-84 -287q0 -184 92 -295t236 -111zM530 -305q156 0 255 80t100 243v95l4 73h-4q-97 -180 -315 -180t-344 148t-126 380q0 234 121 377t326 144q154 0 233 -57t99 -97
l8 -18h4q-2 12 -2 35v112h135v-1005q0 -229 -142 -342t-336 -113t-353 82l53 115q128 -72 284 -72z" />
    <glyph glyph-name="Gcommaaccent" unicode="&#x122;" horiz-adv-x="1552" 
d="M895 -244q0 -64 -47 -170h-115q39 96 39 160t-22 125h133q12 -51 12 -115zM113 718q0 316 208 531t517 215q147 0 275 -42t181 -83l56 -43l-76 -106q-18 16 -54 40t-148 64t-228 39q-258 0 -421 -175t-163 -438t163 -438t408 -176q125 0 238 54t164 106l51 51v244h-246
v127h381v-688h-131v109l2 61h-4q-20 -26 -71 -64q-181 -131 -398 -131q-297 0 -501 213q-203 214 -203 530z" />
    <glyph glyph-name="gcommaaccent" unicode="&#x123;" horiz-adv-x="1191" 
d="M508 1272q0 64 47 170h115q-40 -98 -40 -161t23 -122h-133q-12 49 -12 113zM572 131q144 0 230 95q85 95 85 309q0 393 -326 393q-149 0 -233 -104t-84 -287q0 -184 92 -295t236 -111zM530 -305q156 0 255 80t100 243v95l4 73h-4q-97 -180 -315 -180t-344 148t-126 380
q0 234 121 377t326 144q154 0 233 -57t99 -97l8 -18h4q-2 12 -2 35v112h135v-1005q0 -229 -142 -342t-336 -113t-353 82l53 115q128 -72 284 -72z" />
    <glyph glyph-name="Hcircumflex" unicode="&#x124;" horiz-adv-x="1536" 
d="M520 1540l170 244h154l172 -244h-135l-111 166h-4l-111 -166h-135zM209 0v1440h141v-656h836v656h141v-1440h-141v657h-836v-657h-141z" />
    <glyph glyph-name="hcircumflex" unicode="&#x125;" horiz-adv-x="1214" 
d="M-8 1540l170 244h153l172 -244h-135l-110 166h-4l-111 -166h-135zM168 0v1440h139v-557l-4 -84h4q37 92 145 174t278 82q170 -1 251 -101q80 -100 80 -299v-655h-139v618q0 146 -44 226t-178 80t-237 -82q-153 -121 -156 -348v-494h-139z" />
    <glyph glyph-name="Hbar" unicode="&#x126;" horiz-adv-x="1626" 
d="M399 784h828v265h-828v-265zM256 0v1049h-135v110h135v281h143v-281h828v281h143v-281h133v-110h-133v-1049h-143v657h-828v-657h-143z" />
    <glyph glyph-name="hbar" unicode="&#x127;" horiz-adv-x="1214" 
d="M12 1159v105h156v176h139v-176h273v-105h-273v-276l-4 -84h4q37 92 145 174t278 82q170 -1 251 -101q80 -100 80 -299v-655h-139v618q0 146 -44 226t-178 80t-237 -82q-153 -121 -156 -348v-494h-139v1159h-156z" />
    <glyph glyph-name="Itilde" unicode="&#x128;" horiz-adv-x="559" 
d="M-39 1546q0 240 189 240q59 0 103 -37t81 -74t74 -37q82 0 81 142h111q0 -240 -188 -240q-60 0 -104 37t-81 73t-73 36q-80 0 -80 -140h-113zM209 0v1440h141v-1440h-141z" />
    <glyph glyph-name="itilde" unicode="&#x129;" horiz-adv-x="475" 
d="M168 0v1030h139v-1030h-139zM-80 1202q0 240 189 240q59 0 103 -37t81 -74t74 -37q82 0 82 142h110q0 -240 -188 -240q-59 0 -103 37t-82 73q-37 36 -73 35q-80 0 -80 -139h-113z" />
    <glyph glyph-name="Imacron" unicode="&#x12a;" horiz-adv-x="559" 
d="M29 1608v112h503v-112h-503zM209 0v1440h141v-1440h-141z" />
    <glyph glyph-name="imacron" unicode="&#x12b;" horiz-adv-x="475" 
d="M168 0v1030h139v-1030h-139zM-12 1264v112h504v-112h-504z" />
    <glyph glyph-name="Ibreve" unicode="&#x12c;" horiz-adv-x="559" 
d="M282 1534q-97 0 -167 57t-70 162v31h113v-27q0 -63 36 -95t88 -32t88 32t36 95v27h112v-31q0 -104 -69 -162q-70 -57 -167 -57zM209 0v1440h141v-1440h-141z" />
    <glyph glyph-name="ibreve" unicode="&#x12d;" horiz-adv-x="475" 
d="M168 0v1030h139v-1030h-139zM239 1190q-97 0 -167 57t-70 162v31h113v-27q0 -63 36 -95t88 -32t88 32t35 95v27h113v-31q0 -104 -69 -162q-70 -57 -167 -57z" />
    <glyph glyph-name="Iogonek" unicode="&#x12e;" horiz-adv-x="559" 
d="M88 -231q0 121 121 229v1442h141v-1440q-131 -111 -131 -203q0 -41 32 -67t64 -29l31 -6l-33 -115q-26 0 -71 14t-75 33q-31 17 -55 55t-24 87z" />
    <glyph glyph-name="iogonek" unicode="&#x12f;" horiz-adv-x="475" 
d="M164 1266v174h145v-174h-145zM45 -231q0 117 123 229v1032h139v-1030q-131 -111 -131 -203q0 -41 32 -67t62 -29l33 -6l-33 -115q-26 0 -71 14t-75 33q-30 17 -54 55t-25 87z" />
    <glyph glyph-name="Idotaccent" unicode="&#x130;" horiz-adv-x="559" 
d="M215 1610v174h133v-174h-133zM209 0v1440h141v-1440h-141z" />
    <glyph glyph-name="dotlessi" unicode="&#x131;" horiz-adv-x="475" 
d="M168 0v1030h139v-1030h-139z" />
    <glyph glyph-name="IJ" unicode="&#x132;" horiz-adv-x="1191" 
d="M209 0v1440h141v-1440h-141zM557 -10v133q299 0 299 344v973h143v-973q0 -477 -442 -477z" />
    <glyph glyph-name="ij" unicode="&#x133;" horiz-adv-x="950" 
d="M643 1030h139v-1069q0 -121 -38 -203t-100 -118q-109 -62 -220 -62l-62 6v121q18 -2 50 -2t68 9q164 43 163 255v1063zM641 1266v174h143v-174h-143zM168 0v1030h139v-1030h-139zM164 1266v174h145v-174h-145z" />
    <glyph glyph-name="Jcircumflex" unicode="&#x134;" horiz-adv-x="1073" 
d="M385 1540l170 244h154l172 -244h-136l-110 166h-4l-111 -166h-135zM72 403v58h141v-53q0 -154 77 -228q76 -74 186 -74t187 72t76 225v910h-352v127h494v-1037q0 -217 -119 -322t-286 -105q-168 0 -286 106t-118 321z" />
    <glyph glyph-name="jcircumflex" unicode="&#x135;" horiz-adv-x="475" 
d="M-14 1196l172 244h147l172 -244h-133l-111 166h-4l-110 -166h-133zM168 1030h139v-1069q0 -121 -38 -203t-100 -118q-109 -62 -220 -62l-62 6v121q18 -2 50 -2t67 9q164 42 164 255v1063z" />
    <glyph glyph-name="Kcommaaccent" unicode="&#x136;" horiz-adv-x="1230" 
d="M590 -254q0 64 -23 125h133q12 -51 12 -115t-46 -170h-115q39 96 39 160zM209 0v1440h141v-625h244l387 625h162l-430 -680v-4l458 -756h-165l-412 688h-244v-688h-141z" />
    <glyph glyph-name="kcommaaccent" unicode="&#x137;" horiz-adv-x="1028" 
d="M612 -244q0 -64 -47 -170h-114q39 96 39 160t-23 125h133q12 -51 12 -115zM168 0v1440h139v-803h164l309 393h168l-358 -448v-4l393 -578h-166l-344 516h-166v-516h-139z" />
    <glyph glyph-name="kgreenlandic" unicode="&#x138;" horiz-adv-x="1032" 
d="M168 0v1030h139v-422h162l326 422h170l-375 -477v-4l375 -549h-172l-322 487h-164v-487h-139z" />
    <glyph glyph-name="Lacute" unicode="&#x139;" horiz-adv-x="1060" 
d="M213 1540l141 244h162l-176 -244h-127zM209 0v1440h141v-1313h668v-127h-809z" />
    <glyph glyph-name="lacute" unicode="&#x13a;" horiz-adv-x="505" 
d="M164 1540l141 244h162l-176 -244h-127zM158 244v1196h139v-1166q0 -156 115 -155l34 2v-125q-25 -4 -51 -4q-237 0 -237 252z" />
    <glyph glyph-name="Lcommaaccent" unicode="&#x13b;" horiz-adv-x="1060" 
d="M702 -244q0 -64 -47 -170h-114q39 96 39 160t-23 125h133q12 -51 12 -115zM209 0v1440h141v-1313h668v-127h-809z" />
    <glyph glyph-name="lcommaaccent" unicode="&#x13c;" horiz-adv-x="505" 
d="M252 -254q0 64 -23 125h133q12 -51 12 -115t-46 -170h-115q39 96 39 160zM158 244v1196h139v-1166q0 -156 115 -155l34 2v-125q-25 -4 -51 -4q-237 0 -237 252z" />
    <glyph glyph-name="Lcaron" unicode="&#x13d;" horiz-adv-x="1060" 
d="M684 1323q0 -64 -47 -168h-115q40 98 40 161t-23 124h133q12 -53 12 -117zM209 0v1440h141v-1313h668v-127h-809z" />
    <glyph glyph-name="lcaron" unicode="&#x13e;" horiz-adv-x="567" 
d="M571 1323q0 -64 -47 -168h-114q39 98 39 161t-23 124h133q12 -53 12 -117zM158 244v1196h139v-1166q0 -156 115 -155l34 2v-125q-25 -4 -51 -4q-237 0 -237 252z" />
    <glyph glyph-name="Ldot" unicode="&#x13f;" horiz-adv-x="1060" 
d="M610 680v164h158v-164h-158zM209 0v1440h141v-1313h668v-127h-809z" />
    <glyph glyph-name="ldot" unicode="&#x140;" horiz-adv-x="612" 
d="M436 680v164h158v-164h-158zM158 244v1196h139v-1166q0 -156 115 -155l34 2v-125q-25 -4 -51 -4q-237 0 -237 252z" />
    <glyph glyph-name="Lslash" unicode="&#x141;" horiz-adv-x="1114" 
d="M262 1440h141v-522l230 133v-148l-230 -131v-645h668v-127h-809v692l-129 -74v144l129 74v604z" />
    <glyph glyph-name="lslash" unicode="&#x142;" horiz-adv-x="630" 
d="M242 1440h139v-492l178 103v-148l-178 -102v-527q0 -156 115 -155l34 2v-125q-25 -4 -51 -4q-238 0 -237 252v477l-168 -94v143l168 96v574z" />
    <glyph glyph-name="Nacute" unicode="&#x143;" horiz-adv-x="1542" 
d="M705 1540l141 244h162l-177 -244h-126zM209 0v1440h137l735 -1037l119 -194h4q-12 119 -12 194v1037h141v-1440h-137l-735 1036l-119 195h-4q12 -119 12 -195v-1036h-141z" />
    <glyph glyph-name="nacute" unicode="&#x144;" horiz-adv-x="1214" 
d="M569 1196l142 244h161l-176 -244h-127zM168 0v1030h137v-153l-4 -82h4q37 94 143 177t280 83q173 -1 253 -101t80 -299v-655h-139v618q0 146 -44 226t-178 80t-237 -81q-153 -119 -156 -349v-494h-139z" />
    <glyph glyph-name="Ncommaaccent" unicode="&#x145;" horiz-adv-x="1542" 
d="M848 -244q0 -64 -47 -170h-115q39 96 39 160t-23 125h134q12 -51 12 -115zM209 0v1440h137l735 -1037l119 -194h4q-12 119 -12 194v1037h141v-1440h-137l-735 1036l-119 195h-4q12 -119 12 -195v-1036h-141z" />
    <glyph glyph-name="ncommaaccent" unicode="&#x146;" horiz-adv-x="1214" 
d="M690 -244q0 -64 -47 -170h-115q40 96 40 160t-23 125h133q12 -51 12 -115zM168 0v1030h137v-153l-4 -82h4q37 94 143 177t280 83q173 -1 253 -101t80 -299v-655h-139v618q0 146 -44 226t-178 80t-237 -81q-153 -119 -156 -349v-494h-139z" />
    <glyph glyph-name="Ncaron" unicode="&#x147;" horiz-adv-x="1542" 
d="M694 1540l-170 244h135l111 -164h4l111 164h135l-172 -244h-154zM209 0v1440h137l735 -1037l119 -194h4q-12 119 -12 194v1037h141v-1440h-137l-735 1036l-119 195h-4q12 -119 12 -195v-1036h-141z" />
    <glyph glyph-name="ncaron" unicode="&#x148;" horiz-adv-x="1214" 
d="M557 1196l-170 244h135l111 -164h4l111 164h135l-172 -244h-154zM168 0v1030h137v-153l-4 -82h4q37 94 143 177t280 83q173 -1 253 -101t80 -299v-655h-139v618q0 146 -44 226t-178 80t-237 -81q-153 -119 -156 -349v-494h-139z" />
    <glyph glyph-name="napostrophe" unicode="&#x149;" horiz-adv-x="1214" 
d="M184 1324q0 -65 -47 -169h-114q39 98 39 161t-23 124h133q12 -51 12 -116zM168 0v1030h137v-153l-4 -82h4q37 94 143 177t280 83q173 -1 253 -101t80 -299v-655h-139v618q0 146 -44 226t-178 80t-237 -81q-153 -119 -156 -349v-494h-139z" />
    <glyph glyph-name="Eng" unicode="&#x14a;" horiz-adv-x="1542" 
d="M209 0v1440h137l735 -1037l119 -194h4q-12 119 -12 194v1037h141v-1415q0 -233 -125 -339t-301 -106v133q111 0 195 72t88 225l-729 1026l-119 195h-4q12 -119 12 -195v-1036h-141z" />
    <glyph glyph-name="eng" unicode="&#x14b;" horiz-adv-x="1214" 
d="M168 0v1030h137v-162l-4 -73h4q37 94 143 177t280 83q173 -1 253 -101t80 -299v-702q0 -308 -251 -370q-52 -13 -108 -13l-59 6v121q18 -2 50 -2t67 9q162 42 162 255v659q0 146 -44 226t-178 80t-237 -81q-153 -119 -156 -349v-494h-139z" />
    <glyph glyph-name="Omacron" unicode="&#x14c;" horiz-adv-x="1687" 
d="M592 1608v112h504v-112h-504zM258 726q0 -259 170 -439q170 -181 415 -181t415 180t172 440q0 259 -172 433t-416 174t-414 -174t-170 -433zM111 726q0 312 213 525t520 213t520 -213t213 -525t-214 -531t-519 -219t-519 218q-214 220 -214 532z" />
    <glyph glyph-name="omacron" unicode="&#x14d;" horiz-adv-x="1273" 
d="M385 1264v112h504v-112h-504zM637 928q-169 0 -285 -117t-116 -293t116 -297t285 -121q168 0 285 121q116 121 116 297t-116 293q-117 117 -285 117zM92 518q0 229 159 383t386 154t386 -154t159 -383t-159 -386t-386 -157t-386 157t-159 386z" />
    <glyph glyph-name="Obreve" unicode="&#x14e;" horiz-adv-x="1687" 
d="M843 1534q-97 0 -167 57t-70 162v31h113v-27q0 -63 36 -95t88 -32t88 32t36 95v27h112v-31q0 -104 -69 -162q-70 -57 -167 -57zM258 726q0 -259 170 -439q170 -181 415 -181t415 180t172 440q0 259 -172 433t-416 174t-414 -174t-170 -433zM111 726q0 312 213 525
t520 213t520 -213t213 -525t-214 -531t-519 -219t-519 218q-214 220 -214 532z" />
    <glyph glyph-name="obreve" unicode="&#x14f;" horiz-adv-x="1273" 
d="M638 1190q-97 0 -167 57t-70 162v31h113v-27q0 -63 36 -95t88 -32t88 32t36 95v27h112v-31q0 -104 -69 -162q-70 -57 -167 -57zM637 928q-169 0 -285 -117t-116 -293t116 -297t285 -121q168 0 285 121q116 121 116 297t-116 293q-117 117 -285 117zM92 518q0 229 159 383
t386 154t386 -154t159 -383t-159 -386t-386 -157t-386 157t-159 386z" />
    <glyph glyph-name="Ohungarumlaut" unicode="&#x150;" horiz-adv-x="1687" 
d="M612 1540l133 244h140l-140 -244h-133zM887 1540l143 244h158l-178 -244h-123zM258 726q0 -259 170 -439q170 -181 415 -181t415 180t172 440q0 259 -172 433t-416 174t-414 -174t-170 -433zM111 726q0 312 213 525t520 213t520 -213t213 -525t-214 -531t-519 -219
t-519 218q-214 220 -214 532z" />
    <glyph glyph-name="ohungarumlaut" unicode="&#x151;" horiz-adv-x="1273" 
d="M406 1196l133 244h139l-139 -244h-133zM680 1196l143 244h158l-178 -244h-123zM637 928q-169 0 -285 -117t-116 -293t116 -297t285 -121q168 0 285 121q116 121 116 297t-116 293q-117 117 -285 117zM92 518q0 229 159 383t386 154t386 -154t159 -383t-159 -386
t-386 -157t-386 157t-159 386z" />
    <glyph glyph-name="OE" unicode="&#x152;" horiz-adv-x="1951" 
d="M846 109q80 0 143 14v1192q-66 16 -143 16q-260 0 -423 -174t-163 -436t163 -437t423 -175zM113 720q0 314 208 527t525 213l244 -20h710v-127h-667v-525h544v-126h-544v-535h704v-127h-745l-246 -20q-317 0 -525 213t-208 527z" />
    <glyph glyph-name="oe" unicode="&#x153;" horiz-adv-x="2074" 
d="M636 928q-166 0 -282 -116t-116 -299t116 -298t283 -115q168 0 284 117q115 117 115 301t-116 297q-117 113 -284 113zM1536 938q-129 0 -226 -82t-122 -233h645q-6 155 -87 235t-210 80zM635 -25q-225 -1 -383 149t-158 389t158 391t383 151q153 0 275 -74t190 -203h4
q59 131 175 204t265 73q205 0 319 -136t113 -339l-4 -72h-790q8 -195 122 -301t277 -107q84 0 162 31t112 62l37 32l66 -106q-16 -16 -48 -40t-131 -64t-204 -40q-160 0 -283 75t-186 206h-4q-66 -131 -189 -206t-278 -75z" />
    <glyph glyph-name="Racute" unicode="&#x154;" horiz-adv-x="1286" 
d="M553 1540l141 244h162l-176 -244h-127zM350 733h342q131 0 208 79t77 214q0 182 -131 252q-66 35 -205 35h-291v-580zM209 0v1440h426q180 0 276 -42q95 -42 153 -140t58 -235q0 -138 -74 -243q-75 -104 -198 -139v-4q14 -18 37 -57l313 -580h-162l-325 606h-363v-606
h-141z" />
    <glyph glyph-name="racute" unicode="&#x155;" horiz-adv-x="729" 
d="M371 1196l141 244h162l-176 -244h-127zM168 0v1030h137v-182l-4 -82h4q39 123 124 199t202 75l55 -6v-137q-25 4 -51 4q-106 0 -185 -74q-143 -134 -143 -393v-434h-139z" />
    <glyph glyph-name="Rcommaaccent" unicode="&#x156;" horiz-adv-x="1286" 
d="M737 -244q0 -64 -47 -170h-115q39 96 39 160t-22 125h133q12 -51 12 -115zM350 733h342q131 0 208 79t77 214q0 182 -131 252q-66 35 -205 35h-291v-580zM209 0v1440h426q180 0 276 -42q95 -42 153 -140t58 -235q0 -138 -74 -243q-75 -104 -198 -139v-4q14 -18 37 -57
l313 -580h-162l-325 606h-363v-606h-141z" />
    <glyph glyph-name="rcommaaccent" unicode="&#x157;" horiz-adv-x="729" 
d="M317 -244q0 -64 -47 -170h-114q39 96 39 160t-23 125h133q12 -51 12 -115zM168 0v1030h137v-182l-4 -82h4q39 123 124 199t202 75l55 -6v-137q-25 4 -51 4q-106 0 -185 -74q-143 -134 -143 -393v-434h-139z" />
    <glyph glyph-name="Rcaron" unicode="&#x158;" horiz-adv-x="1286" 
d="M541 1540l-170 244h135l110 -164h5l110 164h135l-172 -244h-153zM350 733h342q131 0 208 79t77 214q0 182 -131 252q-66 35 -205 35h-291v-580zM209 0v1440h426q180 0 276 -42q95 -42 153 -140t58 -235q0 -138 -74 -243q-75 -104 -198 -139v-4q14 -18 37 -57l313 -580
h-162l-325 606h-363v-606h-141z" />
    <glyph glyph-name="rcaron" unicode="&#x159;" horiz-adv-x="729" 
d="M362 1196l-169 244h135l110 -164h4l111 164h135l-172 -244h-154zM168 0v1030h137v-182l-4 -82h4q39 123 124 199t202 75l55 -6v-137q-25 4 -51 4q-106 0 -185 -74q-143 -134 -143 -393v-434h-139z" />
    <glyph glyph-name="Sacute" unicode="&#x15a;" horiz-adv-x="1101" 
d="M489 1540l142 244h162l-177 -244h-127zM563 111q123 1 205 69t82 173t-74 175t-179 114t-211 92t-181 134q-74 86 -74 209q0 160 127 274t322 113q110 0 206 -34t138 -70l41 -35l-70 -119q-46 46 -139 84q-93 39 -176 39q-132 0 -218 -74t-86 -171q0 -98 74 -162
t179 -107t211 -91t182 -138q74 -90 73 -221q-1 -166 -119 -278t-317 -112q-131 1 -245 47t-162 93l-50 45l84 108q96 -96 250 -140q63 -17 127 -17z" />
    <glyph glyph-name="sacute" unicode="&#x15b;" horiz-adv-x="907" 
d="M397 1196l142 244h161l-176 -244h-127zM468 100q87 0 146 43q60 43 60 113t-58 114t-138 74q-81 30 -163 67q-82 35 -139 101t-57 158q0 133 102 209t257 76t261 -73q33 -21 49 -40l-63 -106q-34 34 -108 64q-75 30 -155 30t-140 -40t-60 -110t57 -115q57 -44 139 -74
t164 -66q81 -35 138 -101t57 -160q0 -127 -98 -208t-247 -81t-242 49q-94 49 -146 101l76 100q38 -44 130 -85q91 -40 178 -40z" />
    <glyph glyph-name="Scircumflex" unicode="&#x15c;" horiz-adv-x="1101" 
d="M309 1540l170 244h154l172 -244h-135l-111 166h-4l-111 -166h-135zM563 111q123 1 205 69t82 173t-74 175t-179 114t-211 92t-181 134q-74 86 -74 209q0 160 127 274t322 113q110 0 206 -34t138 -70l41 -35l-70 -119q-46 46 -139 84q-93 39 -176 39q-132 0 -218 -74
t-86 -171q0 -98 74 -162t179 -107t211 -91t182 -138q74 -90 73 -221q-1 -166 -119 -278t-317 -112q-131 1 -245 47t-162 93l-50 45l84 108q96 -96 250 -140q63 -17 127 -17z" />
    <glyph glyph-name="scircumflex" unicode="&#x15d;" horiz-adv-x="907" 
d="M219 1196l170 244h154l172 -244h-135l-111 166h-4l-111 -166h-135zM468 100q87 0 146 43q60 43 60 113t-58 114t-138 74q-81 30 -163 67q-82 35 -139 101t-57 158q0 133 102 209t257 76t261 -73q33 -21 49 -40l-63 -106q-34 34 -108 64q-75 30 -155 30t-140 -40t-60 -110
t57 -115q57 -44 139 -74t164 -66q81 -35 138 -101t57 -160q0 -127 -98 -208t-247 -81t-242 49q-94 49 -146 101l76 100q38 -44 130 -85q91 -40 178 -40z" />
    <glyph glyph-name="Scedilla" unicode="&#x15e;" horiz-adv-x="1101" 
d="M563 111q123 1 205 69t82 173t-74 175t-179 114t-211 92t-181 134q-74 86 -74 209q0 160 127 274t322 113q110 0 206 -34t138 -70l41 -35l-70 -119q-46 46 -139 84q-93 39 -176 39q-132 0 -218 -74t-86 -171q0 -98 74 -162t179 -107t211 -91t182 -138q74 -90 74 -234
t-108 -254q-108 -109 -288 -121l-16 -90q63 -10 103 -48q40 -37 40 -109t-56 -111t-141 -39l-102 10v99q39 -12 86 -13q104 0 104 70t-116 70l-31 -2l37 163q-117 9 -218 55t-145 87l-43 41l84 108q96 -96 250 -140q63 -17 127 -17z" />
    <glyph glyph-name="scedilla" unicode="&#x15f;" horiz-adv-x="907" 
d="M468 100q87 0 146 43q60 43 60 113t-58 114t-138 74q-81 30 -163 67q-82 35 -139 101t-57 158q0 133 102 209t257 76t261 -73q33 -21 49 -40l-63 -106q-34 34 -108 64q-75 30 -155 30t-140 -40t-60 -110t57 -115q57 -44 139 -74t164 -66q81 -35 138 -101t57 -172
t-88 -186q-88 -78 -227 -89l-17 -90q63 -10 103 -48q40 -37 41 -109q-1 -72 -57 -111t-140 -39l-102 10v99q39 -12 86 -13q104 0 104 70t-117 70l-30 -2l37 163q-96 7 -178 45t-113 70l-35 33l76 100q38 -44 130 -85q91 -40 178 -40z" />
    <glyph glyph-name="Scaron" unicode="&#x160;" horiz-adv-x="1101" 
d="M479 1540l-170 244h135l111 -164h4l111 164h135l-172 -244h-154zM563 111q123 1 205 69t82 173t-74 175t-179 114t-211 92t-181 134q-74 86 -74 209q0 160 127 274t322 113q110 0 206 -34t138 -70l41 -35l-70 -119q-46 46 -139 84q-93 39 -176 39q-132 0 -218 -74
t-86 -171q0 -98 74 -162t179 -107t211 -91t182 -138q74 -90 73 -221q-1 -166 -119 -278t-317 -112q-131 1 -245 47t-162 93l-50 45l84 108q96 -96 250 -140q63 -17 127 -17z" />
    <glyph glyph-name="scaron" unicode="&#x161;" horiz-adv-x="907" 
d="M389 1196l-170 244h135l111 -164h4l111 164h135l-172 -244h-154zM468 100q87 0 146 43q60 43 60 113t-58 114t-138 74q-81 30 -163 67q-82 35 -139 101t-57 158q0 133 102 209t257 76t261 -73q33 -21 49 -40l-63 -106q-34 34 -108 64q-75 30 -155 30t-140 -40t-60 -110
t57 -115q57 -44 139 -74t164 -66q81 -35 138 -101t57 -160q0 -127 -98 -208t-247 -81t-242 49q-94 49 -146 101l76 100q38 -44 130 -85q91 -40 178 -40z" />
    <glyph glyph-name="Tcommaaccent" unicode="&#x162;" horiz-adv-x="1204" 
d="M532 0v1313h-518v127h1176v-127h-516v-1313h-29l-20 -113q63 -10 103 -48q40 -37 40 -109t-56 -111t-141 -39l-102 10v99q39 -12 86 -13q104 0 104 70t-116 70l-31 -2l43 186h-23z" />
    <glyph glyph-name="tcommaaccent" unicode="&#x163;" horiz-adv-x="688" 
d="M209 375v526h-135v117h137v297h137v-297h258v-117h-258v-512q0 -188 117 -246q54 -26 115 -26l47 4v-125q-23 -4 -67 -4t-107 12l-21 -117q64 -10 104 -48q40 -37 40 -109t-57 -111q-56 -39 -140 -39l-103 10v99q39 -12 86 -13q104 0 105 70q0 70 -117 70l-31 -2l52 223
q-162 88 -162 338z" />
    <glyph glyph-name="Tcaron" unicode="&#x164;" horiz-adv-x="1204" 
d="M524 1540l-170 244h135l111 -164h4l111 164h135l-172 -244h-154zM532 0v1313h-518v127h1176v-127h-516v-1313h-142z" />
    <glyph glyph-name="tcaron" unicode="&#x165;" horiz-adv-x="686" 
d="M506 1316q0 63 -23 124h133q12 -53 12 -116t-46 -167h-115q39 96 39 159zM207 375v526h-135v117h137v297h137v-297h258v-117h-258v-512q0 -188 117 -246q54 -26 115 -26l47 4v-125q-23 -4 -63 -4t-81 6t-93 30t-90 62t-65 113q-26 74 -26 172z" />
    <glyph glyph-name="Tbar" unicode="&#x166;" horiz-adv-x="1251" 
d="M223 664v116h332v533h-518v127h1175v-127h-516v-533h340v-116h-340v-664h-141v664h-332z" />
    <glyph glyph-name="tbar" unicode="&#x167;" horiz-adv-x="737" 
d="M92 569v109h139v223h-135v117h137v297h138v-297h258v-117h-258v-223h254v-109h-254v-184q1 -82 25 -140q54 -128 206 -128l47 4v-125q-23 -4 -63 -4t-80 6q-41 6 -93 30t-90 62t-65 113q-27 74 -27 172v194h-139z" />
    <glyph glyph-name="Utilde" unicode="&#x168;" horiz-adv-x="1482" 
d="M422 1546q0 240 188 240q60 0 104 -37t81 -74t73 -37q82 0 82 142h111q0 -240 -189 -240q-59 0 -103 37t-81 73t-74 36q-80 0 -79 -140h-113zM190 502v938h144v-936q0 -184 110 -291q111 -107 298 -107t298 108t111 294v932h141v-938q0 -238 -152 -382t-398 -144
q-248 0 -400 144t-152 382z" />
    <glyph glyph-name="utilde" unicode="&#x169;" horiz-adv-x="1204" 
d="M276 1202q0 240 189 240q59 0 103 -37t81 -74t74 -37q82 0 82 142h110q0 -240 -188 -240q-59 0 -103 37t-81 73t-74 35q-80 0 -80 -139h-113zM154 375v655h139v-618q0 -146 44 -226t179 -80q170 0 276 127q105 127 105 304v493h139v-1030h-135v154l4 82h-4
q-39 -94 -144 -178t-272 -83t-249 99t-82 301z" />
    <glyph glyph-name="Umacron" unicode="&#x16a;" horiz-adv-x="1482" 
d="M489 1608v112h504v-112h-504zM190 502v938h144v-936q0 -184 110 -291q111 -107 298 -107t298 108t111 294v932h141v-938q0 -238 -152 -382t-398 -144q-248 0 -400 144t-152 382z" />
    <glyph glyph-name="umacron" unicode="&#x16b;" horiz-adv-x="1204" 
d="M344 1264v112h504v-112h-504zM154 375v655h139v-618q0 -146 44 -226t179 -80q170 0 276 127q105 127 105 304v493h139v-1030h-135v154l4 82h-4q-39 -94 -144 -178t-272 -83t-249 99t-82 301z" />
    <glyph glyph-name="Ubreve" unicode="&#x16c;" horiz-adv-x="1482" 
d="M979 1753q0 -103 -70 -161t-167 -58t-167 57t-69 162v31h112v-27q0 -63 36 -95t88 -32t88 32t36 95v27h113v-31zM190 502v938h144v-936q0 -184 110 -291q111 -107 298 -107t298 108t111 294v932h141v-938q0 -238 -152 -382t-398 -144q-248 0 -400 144t-152 382z" />
    <glyph glyph-name="ubreve" unicode="&#x16d;" horiz-adv-x="1204" 
d="M595 1190q-97 0 -167 57t-70 162v31h113v-27q0 -63 36 -95t88 -32t88 32t36 95v27h112v-31q0 -104 -69 -162q-70 -57 -167 -57zM154 375v655h139v-618q0 -146 44 -226t179 -80q170 0 276 127q105 127 105 304v493h139v-1030h-135v154l4 82h-4q-39 -94 -144 -178t-272 -83
t-249 99t-82 301z" />
    <glyph glyph-name="Uring" unicode="&#x16e;" horiz-adv-x="1482" 
d="M676 1664q0 -30 18 -50t48 -19q30 -1 48 19t19 50q0 30 -18 49q-19 19 -49 19t-48 -18q-18 -20 -18 -50zM741 1518q-63 0 -108 41t-45 104t45 104t108 41t109 -41t47 -104q-1 -63 -47 -104t-109 -41zM190 502v938h144v-936q0 -184 110 -291q111 -107 298 -107t298 108
t111 294v932h141v-938q0 -238 -152 -382t-398 -144q-248 0 -400 144t-152 382z" />
    <glyph glyph-name="uring" unicode="&#x16f;" horiz-adv-x="1204" 
d="M595 1251q30 -1 48 19q19 20 19 50t-18 49t-49 19q-30 0 -48 -18q-19 -20 -19 -50t18 -50t49 -19zM594 1174q-63 0 -109 40q-45 40 -45 104t45 105t109 41t109 -41q47 -41 47 -104t-46 -104t-110 -41zM154 375v655h139v-618q0 -146 44 -226t179 -80q170 0 276 127
q105 127 105 304v493h139v-1030h-135v154l4 82h-4q-39 -94 -144 -178t-272 -83t-249 99t-82 301z" />
    <glyph glyph-name="Uhungarumlaut" unicode="&#x170;" horiz-adv-x="1482" 
d="M510 1540l133 244h139l-139 -244h-133zM784 1540l144 244h157l-178 -244h-123zM190 502v938h144v-936q0 -184 110 -291q111 -107 298 -107t298 108t111 294v932h141v-938q0 -238 -152 -382t-398 -144q-248 0 -400 144t-152 382z" />
    <glyph glyph-name="uhungarumlaut" unicode="&#x171;" horiz-adv-x="1204" 
d="M365 1196l133 244h139l-139 -244h-133zM639 1196l143 244h158l-178 -244h-123zM154 375v655h139v-618q0 -146 44 -226t179 -80q170 0 276 127q105 127 105 304v493h139v-1030h-135v154l4 82h-4q-39 -94 -144 -178t-272 -83t-249 99t-82 301z" />
    <glyph glyph-name="Uogonek" unicode="&#x172;" horiz-adv-x="1482" 
d="M674 -231q0 106 106 208q-12 -2 -37 -2q-249 1 -401 145t-152 382v938h144v-936q0 -184 110 -291q111 -107 298 -107t298 108t111 294v932h141v-938q0 -190 -80 -293t-171 -161t-130 -87t-73 -74t-35 -88q0 -43 32 -69t62 -29l33 -6l-31 -115q-26 0 -71 14q-46 14 -76 33
q-30 17 -54 55t-24 87z" />
    <glyph glyph-name="uogonek" unicode="&#x173;" horiz-adv-x="1204" 
d="M154 375v655h139v-618q0 -146 44 -226t179 -80q170 0 276 127q105 127 105 304v493h139v-1030q-147 -119 -147 -203q0 -41 32 -67t62 -29l33 -6l-33 -115q-27 0 -72 14t-73 33q-28 17 -54 55q-25 38 -24 87q0 119 141 231v154l4 82h-4q-39 -94 -144 -178t-272 -83
t-249 99t-82 301z" />
    <glyph glyph-name="Wcircumflex" unicode="&#x174;" horiz-adv-x="1898" 
d="M709 1540l170 244h153l172 -244h-135l-111 166h-4l-110 -166h-135zM948 1229h-4q-23 -123 -47 -215l-274 -1014h-170l-373 1440h147l279 -1118l33 -154h4l16 82q8 39 16 72l304 1118h135l303 -1118q8 -33 16 -72l17 -82h4q14 80 32 154l289 1118h148l-383 -1440h-170
l-275 1014z" />
    <glyph glyph-name="wcircumflex" unicode="&#x175;" horiz-adv-x="1640" 
d="M571 1196l170 244h154l172 -244h-135l-111 166h-4l-110 -166h-136zM383 0l-348 1030h147l250 -768l31 -110h4q14 61 31 110l254 764h137l254 -764l31 -110h4q14 59 30 110l250 768h148l-349 -1030h-151l-252 733l-33 111h-4q-14 -59 -31 -111l-251 -733h-152z" />
    <glyph glyph-name="Ycircumflex" unicode="&#x176;" horiz-adv-x="1175" 
d="M340 1540l170 244h154l172 -244h-136l-110 166h-4l-111 -166h-135zM516 0v618l-485 822h162l305 -522l88 -173h4q43 96 88 173l305 522h160l-484 -822v-618h-143z" />
    <glyph glyph-name="ycircumflex" unicode="&#x177;" horiz-adv-x="1021" 
d="M266 1196l170 244h154l172 -244h-135l-111 166h-4l-111 -166h-135zM190 -305q121 0 195 168l64 145l-431 1022h154l303 -751l37 -109h4q14 57 35 109l297 751h151l-507 -1245q-41 -99 -119 -157t-178 -58q-47 0 -93 15t-65 30l-23 16l54 111q57 -47 122 -47z" />
    <glyph glyph-name="Ydieresis" unicode="&#x178;" horiz-adv-x="1175" 
d="M360 1608v176h125v-176h-125zM670 1608v176h127v-176h-127zM516 0v618l-485 822h162l305 -522l88 -173h4q43 96 88 173l305 522h160l-484 -822v-618h-143z" />
    <glyph glyph-name="Zacute" unicode="&#x179;" horiz-adv-x="1218" 
d="M563 1540l142 244h161l-176 -244h-127zM88 0v100l743 1082l101 131v4q-35 -4 -105 -4h-700v127h981v-101l-743 -1081q-60 -84 -91 -115l-12 -16v-4q37 4 107 4h745v-127h-1026z" />
    <glyph glyph-name="zacute" unicode="&#x17a;" horiz-adv-x="1042" 
d="M449 1196l141 244h162l-177 -244h-126zM86 0v90l576 723l81 94v4q-35 -4 -102 -4h-530v123h821v-92l-576 -721l-84 -94v-4q37 4 105 4h575v-123h-866z" />
    <glyph glyph-name="Zdotaccent" unicode="&#x17b;" horiz-adv-x="1218" 
d="M565 1610v174h133v-174h-133zM88 0v100l743 1082l101 131v4q-35 -4 -105 -4h-700v127h981v-101l-743 -1081q-60 -84 -91 -115l-12 -16v-4q37 4 107 4h745v-127h-1026z" />
    <glyph glyph-name="zdotaccent" unicode="&#x17c;" horiz-adv-x="1042" 
d="M451 1266v174h133v-174h-133zM86 0v90l576 723l81 94v4q-35 -4 -102 -4h-530v123h821v-92l-576 -721l-84 -94v-4q37 4 105 4h575v-123h-866z" />
    <glyph glyph-name="Zcaron" unicode="&#x17d;" horiz-adv-x="1218" 
d="M553 1540l-170 244h135l111 -164h4l110 164h136l-172 -244h-154zM88 0v100l743 1082l101 131v4q-35 -4 -105 -4h-700v127h981v-101l-743 -1081q-60 -84 -91 -115l-12 -16v-4q37 4 107 4h745v-127h-1026z" />
    <glyph glyph-name="zcaron" unicode="&#x17e;" horiz-adv-x="1042" 
d="M438 1196l-170 244h135l111 -164h4l111 164h135l-172 -244h-154zM86 0v90l576 723l81 94v4q-35 -4 -102 -4h-530v123h821v-92l-576 -721l-84 -94v-4q37 4 105 4h575v-123h-866z" />
    <glyph glyph-name="longs" unicode="&#x17f;" horiz-adv-x="522" 
d="M215 0v901h-129v117h129v49q0 119 38 202t98 119q103 62 218 62l64 -4v-125q-18 4 -52 4t-67 -9q-160 -44 -160 -249v-1067h-139z" />
    <glyph glyph-name="florin" unicode="&#x192;" horiz-adv-x="1161" 
d="M347 -49q90 53 106 219l49 575h-183v119h195l21 219q26 306 279 368q52 13 108 13l170 -14v-125q-94 14 -148 14q-246 0 -272 -262l-21 -213h258v-119h-268l-51 -581q-8 -96 -41 -169t-74 -112q-105 -100 -272 -100l-133 12v123q66 -10 135 -10q70 0 142 43z" />
    <glyph glyph-name="Scommaaccent" unicode="&#x218;" horiz-adv-x="1101" 
d="M504 -254q0 64 -23 125h133q12 -51 12 -115t-46 -170h-115q39 96 39 160zM563 111q123 1 205 69t82 173t-74 175t-179 114t-211 92t-181 134q-74 86 -74 209q0 160 127 274t322 113q110 0 206 -34t138 -70l41 -35l-70 -119q-46 46 -139 84q-93 39 -176 39
q-132 0 -218 -74t-86 -171q0 -98 74 -162t179 -107t211 -91t182 -138q74 -90 73 -221q-1 -166 -119 -278t-317 -112q-131 1 -245 47t-162 93l-50 45l84 108q96 -96 250 -140q63 -17 127 -17z" />
    <glyph glyph-name="scommaaccent" unicode="&#x219;" horiz-adv-x="907" 
d="M416 -254q0 64 -23 125h133q12 -51 12 -115t-46 -170h-115q39 96 39 160zM468 100q87 0 146 43q60 43 60 113t-58 114t-138 74q-81 30 -163 67q-82 35 -139 101t-57 158q0 133 102 209t257 76t261 -73q33 -21 49 -40l-63 -106q-34 34 -108 64q-75 30 -155 30t-140 -40
t-60 -110t57 -115q57 -44 139 -74t164 -66q81 -35 138 -101t57 -160q0 -127 -98 -208t-247 -81t-242 49q-94 49 -146 101l76 100q38 -44 130 -85q91 -40 178 -40z" />
    <glyph glyph-name="uni021A" unicode="&#x21a;" horiz-adv-x="1204" 
d="M678 -244q0 -64 -47 -170h-115q39 96 39 160t-23 125h134q12 -51 12 -115zM532 0v1313h-518v127h1176v-127h-516v-1313h-142z" />
    <glyph glyph-name="uni021B" unicode="&#x21b;" horiz-adv-x="686" 
d="M514 -244q0 -64 -47 -170h-115q40 96 40 160t-23 125h133q12 -51 12 -115zM207 375v526h-135v117h137v297h137v-297h258v-117h-258v-512q0 -188 117 -246q54 -26 115 -26l47 4v-125q-23 -4 -63 -4t-81 6t-93 30t-90 62t-65 113q-26 74 -26 172z" />
    <glyph glyph-name="circumflex" unicode="&#x2c6;" horiz-adv-x="1032" 
d="M268 1540l170 244h154l172 -244h-135l-111 166h-4l-111 -166h-135z" />
    <glyph glyph-name="caron" unicode="&#x2c7;" horiz-adv-x="1032" 
d="M438 1540l-170 244h135l111 -164h4l111 164h135l-172 -244h-154z" />
    <glyph glyph-name="breve" unicode="&#x2d8;" horiz-adv-x="1034" 
d="M754 1753q0 -103 -70 -161t-167 -58t-167 57t-69 162v31h112v-27q0 -63 36 -95t88 -32t88 32t36 95v27h113v-31z" />
    <glyph glyph-name="dotaccent" unicode="&#x2d9;" horiz-adv-x="1034" 
d="M451 1610v174h133v-174h-133z" />
    <glyph glyph-name="ring" unicode="&#x2da;" horiz-adv-x="1034" 
d="M517 1595q30 -1 48 19q19 20 19 50t-18 49t-49 19q-30 0 -48 -18q-18 -20 -18 -50t18 -50t48 -19zM516 1518q-63 0 -108 41t-46 104q0 63 46 104t108 41q64 0 110 -41t46 -104t-46 -104t-110 -41z" />
    <glyph glyph-name="ogonek" unicode="&#x2db;" horiz-adv-x="1032" 
d="M367 -218q0 62 50 130t99 100l49 33l103 -29l-18 -12q-88 -56 -136 -144q-18 -34 -18 -69t32 -61t62 -29l33 -6l-31 -115q-27 0 -78 17q-147 46 -147 185z" />
    <glyph glyph-name="tilde" unicode="&#x2dc;" horiz-adv-x="1032" 
d="M197 1546q0 240 188 240q59 0 103 -37t81 -74t74 -37q82 0 82 142h111q0 -240 -189 -240q-59 0 -103 37t-81 73t-74 36q-80 0 -80 -140h-112z" />
    <glyph glyph-name="hungarumlaut" unicode="&#x2dd;" horiz-adv-x="1032" 
d="M229 1540l133 244h140l-140 -244h-133zM504 1540l143 244h158l-178 -244h-123z" />
    <glyph glyph-name="uni1E9E" unicode="&#x1e9e;" horiz-adv-x="1388" 
d="M193 0v1057q1 163 111 273t274 110h634v-99l-374 -528v-4h43q171 0 281 -119q110 -118 110 -284t-121 -286t-291 -120h-297v127h289q119 0 196 83q76 83 76 201q0 119 -78 199t-210 80h-166v101l278 401l90 121v4q-14 -4 -88 -4h-362q-112 0 -182 -73t-70 -181v-1059
h-143z" />
    <glyph glyph-name="thinspace" unicode="&#x2009;" horiz-adv-x="24" 
 />
    <glyph glyph-name="endash" unicode="&#x2013;" horiz-adv-x="1449" 
d="M213 522v119h1024v-119h-1024z" />
    <glyph glyph-name="emdash" unicode="&#x2014;" horiz-adv-x="1859" 
d="M213 522v119h1434v-119h-1434z" />
    <glyph glyph-name="quoteleft" unicode="&#x2018;" horiz-adv-x="440" 
d="M115 1106l116 352h111l-80 -352h-147z" />
    <glyph glyph-name="quoteright" unicode="&#x2019;" horiz-adv-x="428" 
d="M117 1108l80 352h147l-115 -352h-112z" />
    <glyph glyph-name="quotesinglbase" unicode="&#x201a;" horiz-adv-x="487" 
d="M104 -184l80 352h146l-115 -352h-111z" />
    <glyph glyph-name="quotedblleft" unicode="&#x201c;" horiz-adv-x="686" 
d="M115 1106l116 352h111l-80 -352h-147zM360 1106l115 352h113l-80 -352h-148z" />
    <glyph glyph-name="quotedblright" unicode="&#x201d;" horiz-adv-x="673" 
d="M117 1108l80 352h147l-115 -352h-112zM362 1108l80 352h148l-115 -352h-113z" />
    <glyph glyph-name="quotedblbase" unicode="&#x201e;" horiz-adv-x="729" 
d="M104 -184l80 352h146l-115 -352h-111zM346 -184l80 352h145l-114 -352h-111z" />
    <glyph glyph-name="dagger" unicode="&#x2020;" horiz-adv-x="808" 
d="M332 -102v1013h-240v119h240v410h137v-410h248v-119h-248v-1013h-137z" />
    <glyph glyph-name="daggerdbl" unicode="&#x2021;" horiz-adv-x="886" 
d="M131 367v118h240v426h-240v119h240v410h137v-410h248v-119h-248v-426h248v-118h-248v-469h-137v469h-240z" />
    <glyph glyph-name="bullet" unicode="&#x2022;" horiz-adv-x="821" 
d="M412 303q-121 0 -207 86t-86 207t86 207t207 86q122 0 206 -86t84 -207t-84 -207t-206 -86z" />
    <glyph glyph-name="ellipsis" unicode="&#x2026;" horiz-adv-x="1464" 
d="M172 0v164h158v-164h-158zM653 0v164h158v-164h-158zM1135 0v164h157v-164h-157z" />
    <glyph glyph-name="perthousand" unicode="&#x2030;" horiz-adv-x="2177" 
d="M930 259q0 -71 47 -120t117 -49t118 49t50 120q0 71 -50 121t-118 50q-70 0 -117 -50t-47 -121zM1618 259q0 -71 47 -120t117 -49t119 49t49 120t-49 121t-119 50t-117 -50t-47 -121zM807 259q0 118 84 202t203 84q120 0 204 -84t84 -202t-85 -201t-203 -83t-203 83
q-84 83 -84 201zM1495 259q0 118 84 202t203 84t204 -84t85 -202t-85 -201t-204 -83t-203 83t-84 201zM401 1010q70 0 119 49t49 120t-49 121t-119 50q-69 0 -117 -50t-48 -122q0 -70 48 -119t117 -49zM127 0l1098 1440h145l-1096 -1440h-147zM402 895q-120 0 -204 83
t-83 201q0 117 84 201q85 84 203 84t203 -84t85 -202t-84 -200q-84 -83 -204 -83z" />
    <glyph glyph-name="guilsinglleft" unicode="&#x2039;" horiz-adv-x="702" 
d="M438 158l-336 420l336 421h150l-336 -421l336 -420h-150z" />
    <glyph glyph-name="guilsinglright" unicode="&#x203a;" horiz-adv-x="704" 
d="M115 158l336 420l-336 421h151l336 -421l-336 -420h-151z" />
    <glyph glyph-name="fraction" unicode="&#x2044;" horiz-adv-x="323" 
d="M-121 0h-121l688 1440h119z" />
    <glyph glyph-name="zerosuperior" unicode="&#x2070;" 
d="M391 952q197 0 197 360t-197 359q-197 1 -197 -359t197 -360zM391 846q-311 0 -311 466t311 466t311 -466t-311 -466z" />
    <glyph glyph-name="foursuperior" unicode="&#x2074;" 
d="M188 1202h295v279l6 127h-4q-33 -55 -65 -101l-232 -301v-4zM483 866v234h-434v78l434 579h113v-555h133v-102h-133v-234h-113z" />
    <glyph glyph-name="fivesuperior" unicode="&#x2075;" 
d="M373 846q-82 0 -152 36t-98 70l-29 35l78 72q8 -11 22 -29t66 -48q51 -30 123 -30t132 56t60 139q0 82 -60 139t-144 57t-146 -36l-18 -13l-68 27l49 436h447v-102h-352l-17 -160l-12 -76h4q51 25 123 25q133 0 222 -87t89 -211t-92 -212t-227 -88z" />
    <glyph glyph-name="sixsuperior" unicode="&#x2076;" 
d="M209 1210q1 -92 59 -175t143 -83t132 58t47 143q0 86 -51 139q-51 54 -131 54t-140 -43q-59 -43 -59 -93zM404 846q-135 0 -225 115q-89 115 -89 298t90 344q45 79 123 127t171 48t165 -31l23 -10l-46 -99q-63 33 -133 33q-109 0 -179 -90t-89 -221h4q31 36 87 58t108 22
q129 0 210 -80t81 -215t-83 -217t-218 -82z" />
    <glyph glyph-name="sevensuperior" unicode="&#x2077;" 
d="M455 1655h-359v102h594v-76l-430 -815h-127l356 672l68 117v4q-39 -4 -102 -4z" />
    <glyph glyph-name="eightsuperior" unicode="&#x2078;" 
d="M565 1538q0 66 -50 102t-118 35q-68 0 -116 -34t-48 -94t42 -95t110 -65q68 -31 90 -39q90 90 90 190zM391 948q77 0 135 45t58 111t-64 107t-207 104q-117 -82 -116 -191q0 -80 59 -128t135 -48zM395 846q-127 0 -220 74t-93 208q0 135 147 232q-109 74 -109 186t83 171
q83 61 195 61t196 -62t84 -179q0 -116 -117 -232q137 -80 137 -196q0 -115 -88 -189t-215 -74z" />
    <glyph glyph-name="ninesuperior" unicode="&#x2079;" 
d="M193 1473q0 -87 52 -141t131 -54t138 43t59 94q0 92 -58 175t-143 83t-132 -57t-47 -143zM78 1480q0 134 83 216t218 82t224 -115t89 -297q0 -282 -168 -435q-92 -85 -223 -85q-89 0 -158 33l-22 10l45 96q63 -33 133 -33q109 0 179 90t89 224h-4q-33 -35 -88 -59
t-106 -23q-129 0 -210 81t-81 215z" />
    <glyph glyph-name="zeroinferior" unicode="&#x2080;" 
d="M391 -236q197 0 197 360t-197 359q-197 1 -197 -359t197 -360zM391 -342q-311 0 -311 466t311 466t311 -466t-311 -466z" />
    <glyph glyph-name="oneinferior" unicode="&#x2081;" 
d="M152 -322v103h194v592l2 49h-2q-8 -16 -43 -51l-82 -78l-71 76l202 200h107v-788h190v-103h-497z" />
    <glyph glyph-name="twoinferior" unicode="&#x2082;" 
d="M547 329q0 65 -47 111q-46 46 -108 45q-103 0 -175 -75l-20 -25l-74 72q9 14 29 37q20 24 88 60t143 36q127 0 203 -74t76 -172q0 -171 -152 -272q-62 -43 -126 -82q-153 -94 -161 -209h455v-103h-569q-6 35 -7 64q0 94 46 168t111 121t130 88q158 98 158 210z" />
    <glyph glyph-name="threeinferior" unicode="&#x2083;" 
d="M383 -236q68 0 127 52t59 131q0 78 -60 125t-140 47h-68l-29 63l203 236l51 51v4q-39 -6 -75 -6h-316v102h539v-73l-244 -283q102 -12 178 -78q76 -67 76 -187t-88 -205t-222 -85t-239 87q-28 21 -47 48l72 78q26 -38 90 -73q65 -34 133 -34z" />
    <glyph glyph-name="fourinferior" unicode="&#x2084;" 
d="M188 14h295v279l6 127h-4q-33 -55 -65 -101l-232 -301v-4zM483 -322v234h-434v78l434 579h113v-555h133v-102h-133v-234h-113z" />
    <glyph glyph-name="fiveinferior" unicode="&#x2085;" 
d="M373 -342q-82 0 -152 36t-98 70l-29 35l78 72q8 -11 22 -29t66 -48q51 -30 123 -30t132 56t60 139q0 82 -60 139q-60 58 -143 58t-147 -37l-18 -13l-68 27l49 436h447v-102h-352l-17 -160l-12 -76h4q51 25 123 25q133 0 222 -87t89 -211t-92 -212t-227 -88z" />
    <glyph glyph-name="sixinferior" unicode="&#x2086;" 
d="M411 -236q85 0 132 58t47 143q0 86 -51 139q-51 54 -131 54t-140 -43q-59 -43 -59 -92q0 -92 58 -176q59 -83 144 -83zM404 -342q-135 0 -225 115q-89 115 -89 298t90 344q45 79 123 127t175 48t161 -31l23 -10l-46 -98q-63 33 -133 32q-109 0 -179 -90t-89 -221h4
q31 36 87 58t108 22q129 0 210 -80t81 -215t-83 -217t-218 -82z" />
    <glyph glyph-name="seveninferior" unicode="&#x2087;" 
d="M455 467h-359v102h594v-75l-430 -816h-127l356 672l68 117v4q-39 -4 -102 -4z" />
    <glyph glyph-name="eightinferior" unicode="&#x2088;" 
d="M233 356q0 -94 154 -158q12 -6 44 -20t44 -18q90 90 90 190q0 66 -50 102t-118 36t-116 -35q-48 -34 -48 -97zM584 -85q0 65 -61 107q-61 41 -210 105q-117 -82 -116 -190q0 -80 59 -128q59 -49 135 -49q77 0 135 45t58 110zM395 -342q-127 0 -220 74t-93 208
q0 135 147 232q-109 74 -109 186t83 171q83 61 195 61t196 -62t84 -179q0 -116 -117 -232q137 -80 137 -196q0 -115 -88 -189t-215 -74z" />
    <glyph glyph-name="nineinferior" unicode="&#x2089;" 
d="M193 285q0 -87 52 -141t131 -54t138 43t59 94q0 92 -58 175t-143 83t-132 -57t-47 -143zM78 292q0 134 83 216t218 82t224 -115t89 -297q0 -280 -168 -435q-92 -85 -223 -85q-89 0 -158 33l-22 10l45 96q63 -33 133 -33q109 0 179 90t89 224h-4q-33 -35 -88 -59t-106 -23
q-129 0 -210 81t-81 215z" />
    <glyph glyph-name="Euro" unicode="&#x20ac;" horiz-adv-x="1208" 
d="M84 545v104h113q-12 72 0 166h-113v105h131q61 242 249 394t439 150q95 0 170 -18l25 -6l-35 -133q-76 23 -162 22q-195 -1 -338 -113t-196 -296h626l-20 -105h-629q-12 -78 -2 -166h600l-20 -104h-557q49 -195 195 -315t345 -119q83 0 160 20l22 8l33 -133
q-94 -31 -217 -31q-258 0 -447 159t-245 411h-127z" />
    <glyph glyph-name="trademark" unicode="&#x2122;" horiz-adv-x="1908" 
d="M375 543v790h-320v107h758v-107h-321v-790h-117zM887 543l71 897h107l235 -514l29 -84h4q10 45 29 84l235 514h107l70 -897h-113l-51 608l2 59h-4l-230 -499h-94l-229 499h-4l2 -59l-52 -608h-114z" />
    <glyph glyph-name="minus" unicode="&#x2212;" horiz-adv-x="1241" 
d="M102 522v119h1037v-119h-1037z" />
    <glyph glyph-name="infinity" unicode="&#x221e;" horiz-adv-x="1021" 
d="M513 360q-147 0 -251 104t-104 252q0 146 103 248t251 103q148 0 250 -102q102 -101 102 -249t-102 -252t-249 -104z" />
    <glyph glyph-name="approxequal" unicode="&#x2248;" horiz-adv-x="1241" 
d="M418 532q102 0 220 -72t185 -71q121 0 232 115l67 -90q-137 -141 -299 -142q-102 0 -220 72t-185 72q-117 0 -232 -115l-67 90q141 141 299 141zM418 889q102 0 220 -72t185 -72q125 0 232 115l67 -90q-137 -141 -299 -141q-102 -1 -220 71t-185 72q-117 0 -232 -115
l-67 91q141 141 299 141z" />
    <glyph glyph-name="notequal" unicode="&#x2260;" horiz-adv-x="1241" 
d="M143 344v119h326l176 237h-502v119h584l176 240l86 -62l-133 -178h242v-119h-324l-176 -237h500v-119h-582l-172 -233l-86 59l127 174h-242z" />
    <glyph glyph-name="lessequal" unicode="&#x2264;" horiz-adv-x="1241" 
d="M143 -213h924v-119h-924v119zM141 530v103l926 414v-138l-752 -325v-4l752 -326v-137z" />
    <glyph glyph-name="greaterequal" unicode="&#x2265;" horiz-adv-x="1241" 
d="M174 -213h924v-119h-924v119zM174 117v137l754 326v4l-754 325v138l926 -414v-103z" />
    <glyph glyph-name="commaaccent" horiz-adv-x="686" 
d="M422 -244q0 -64 -47 -170h-115q39 96 39 160t-23 125h134q12 -51 12 -115z" />
    <glyph glyph-name="apple" horiz-adv-x="2314" 
d="M907 186h123v445h447v108h-447v367h361q33 0 44 -12t11 -43v-78h115v131q0 59 -26 86t-89 27h-666v-111h127v-920zM496 131v248l-203 123v461l203 118v252l440 234l225 -121l219 121l439 -234v-252l204 -118v-461l-204 -123v-248l-439 -233l-219 118l-225 -118zM426 61
l487 -258l248 136l242 -136l487 258v285l234 131v510l-234 135v279l-487 258l-242 -131l-248 131l-487 -258v-279l-233 -135v-510l233 -131v-285zM344 -10v311l-258 148v569l258 145v310l543 290l274 -145l271 145l542 -290v-310l254 -145v-569l-254 -148v-311l-542 -289
l-271 145l-274 -145z" />
    <glyph glyph-name="zero.tnum" horiz-adv-x="1157" 
d="M581 109q349 0 349 611t-349 611t-349 -611t349 -611zM582 1464q496 0 496 -744t-497 -745q-497 0 -497 746q0 219 44 379t159 262t295 102z" />
    <glyph glyph-name="one.tnum" horiz-adv-x="1157" 
d="M211 0v127h324v1057l2 80h-5q-14 -31 -71 -86l-154 -154l-90 92l326 324h131v-1313h317v-127h-780z" />
    <glyph glyph-name="two.tnum" horiz-adv-x="1157" 
d="M879 1053q0 121 -83 199t-223 77q-140 0 -263 -127q-28 -29 -40 -49l-12 -20l-106 71q6 10 16 28t49 62q39 45 85 80t123 63t163 27q202 0 320 -114t118 -297q0 -182 -144 -323q-88 -84 -231 -182t-208 -152q-146 -122 -146 -269h752v-127h-899q-28 152 32 284
q41 89 120 167t223 176q143 98 207 152q146 123 147 274z" />
    <glyph glyph-name="three.tnum" horiz-adv-x="1157" 
d="M578 111q116 0 215 88q98 88 98 228q1 140 -105 221t-258 81h-98l-35 84l361 422l75 80v4q-41 -6 -116 -6h-541v127h842v-94l-430 -496q153 -8 292 -98q70 -47 114 -131t44 -195q0 -186 -135 -318t-338 -133q-157 0 -279 68q-121 68 -157 109l-21 20l87 109
q16 -17 47 -47t127 -76q95 -46 211 -47z" />
    <glyph glyph-name="four.tnum" horiz-adv-x="1157" 
d="M221 524h549v602l6 136h-4q-33 -57 -72 -109l-479 -625v-4zM49 399v93l709 948h153v-916h205v-125h-205v-399h-141v399h-721z" />
    <glyph glyph-name="five.tnum" horiz-adv-x="1157" 
d="M893 448q-1 146 -105 242t-260 96q-68 0 -134 -19t-95 -38l-33 -20l-90 32l78 699h696v-127h-573l-41 -369l-14 -82h4q90 55 219 56q215 0 355 -136t140 -334t-144 -335t-348 -137t-363 132q-36 30 -50 52l-16 20l90 99l12 -18q8 -11 39 -41q113 -109 293 -109
q134 0 237 96q103 95 103 241z" />
    <glyph glyph-name="six.tnum" horiz-adv-x="1157" 
d="M612 109q148 0 231 97t83 250q0 154 -89 246t-233 92t-248 -77q-104 -78 -104 -168q0 -156 106 -298t254 -142zM618 -25q-233 1 -376 191q-144 190 -144 485t149 541q73 121 199 197t285 75q71 0 137 -15t97 -30l30 -14l-53 -125q-90 51 -221 51t-239 -88
q-200 -163 -228 -489h4q52 76 152 122t213 46q197 0 323 -130t125 -342q0 -212 -129 -344t-324 -131z" />
    <glyph glyph-name="seven.tnum" horiz-adv-x="1157" 
d="M803 1313h-674v127h936v-99l-668 -1341h-147l581 1180q31 68 70 116l10 17v4q-37 -4 -108 -4z" />
    <glyph glyph-name="eight.tnum" horiz-adv-x="1157" 
d="M297 1098q0 -127 144 -207q62 -35 164 -78t130 -55q66 61 108 154q42 94 42 171q0 115 -83 183t-215 68t-211 -68t-79 -168zM915 384q0 114 -101 182t-213 113q-112 46 -152 66q-51 -28 -104 -86q-105 -112 -104 -245t103 -220q102 -88 238 -88t234 82q99 82 99 196z
M96 414q0 80 31 154t92 140q61 67 113 99q-178 117 -178 293q0 152 113 258q114 106 318 106q203 0 323 -102t120 -272q0 -92 -45 -190t-76 -136q-31 -39 -55 -64q209 -119 209 -300t-136 -303t-340 -122q-205 0 -347 120t-142 319z" />
    <glyph glyph-name="nine.tnum" horiz-adv-x="1157" 
d="M548 1331q-148 0 -232 -97t-83 -250q-1 -153 89 -246t234 -93t248 78q103 78 103 168q0 156 -106 298q-105 142 -253 142zM428 -25q-70 1 -136 15t-97 30l-31 15l53 125q90 -51 209 -51q211 0 335 171t146 406h-4q-53 -76 -153 -122t-213 -46q-197 0 -322 130t-125 342
t128 343t323 131q233 0 377 -190t143 -483q0 -293 -149 -542q-72 -122 -198 -198t-286 -76z" />
    <glyph glyph-name="hyphen.case" horiz-adv-x="1081" 
d="M250 651v127h581v-127h-581z" />
    <glyph glyph-name="parenleft.case" horiz-adv-x="669" 
d="M201 752q0 426 229 804h131q-231 -387 -231 -804q0 -473 231 -885h-131q-229 399 -229 885z" />
    <glyph glyph-name="parenright.case" horiz-adv-x="669" 
d="M340 752q0 418 -231 804h131q229 -379 229 -804q0 -486 -229 -885h-131q231 412 231 885z" />
    <glyph glyph-name="bracketleft.case" horiz-adv-x="651" 
d="M258 -133v1689h277v-114h-148v-1460h148v-115h-277z" />
    <glyph glyph-name="bracketright.case" horiz-adv-x="651" 
d="M393 1556v-1689h-276v115h147v1460h-147v114h276z" />
    <glyph glyph-name="braceleft.case" horiz-adv-x="768" 
d="M322 231v195q0 94 -44 152t-88 69l-43 12v127q17 0 54 18t61 42q59 57 60 176v168q0 96 24 168t58 108q82 90 223 90h30v-114h-18q-58 0 -103 -31q-85 -58 -85 -225v-201q0 -114 -54 -174t-94 -78l-16 -8v-4q21 -7 53 -29q108 -73 111 -231v-225q-1 -82 21 -138
q45 -117 167 -118h18v-115q-11 -2 -37 -2t-58 5t-78 28q-46 24 -80 60t-58 108t-24 167z" />
    <glyph glyph-name="braceright.case" horiz-adv-x="768" 
d="M111 -20h20q51 0 110 38q34 23 55 79q22 56 21 139v225q0 119 56 180t108 80v4q-22 7 -54 32q-107 82 -110 228v201q0 167 -75 218q-55 38 -111 38h-20v114h32q135 0 221 -91q34 -35 58 -107t24 -168v-168q0 -58 18 -106t59 -84q40 -36 79 -41l19 -5v-127q-19 0 -55 -18
t-60 -41q-59 -57 -60 -174v-195q0 -96 -24 -168q-24 -73 -58 -109q-84 -92 -221 -91l-32 2v115z" />
    <glyph glyph-name="at.case" horiz-adv-x="1681" 
d="M1006 1001q-121 -1 -202 -83t-81 -200t81 -199t197 -81h254v563h-249zM913 -31q-317 -1 -533 217t-216 532t214 533t515 219q258 0 380 -110t122 -277v-645h145v-114h-551q-174 0 -292 116t-117 277q0 161 116 277t293 116h266q-4 102 -92 171t-260 69q-250 0 -423 -186
t-173 -447t173 -443t433 -182v-123z" />
    <glyph glyph-name="guillemotleft.case" horiz-adv-x="1146" 
d="M477 281l-336 419l336 422h150l-336 -422l336 -419h-150zM844 281l-336 419l336 422h151l-336 -422l336 -419h-151z" />
    <glyph glyph-name="guillemotright.case" horiz-adv-x="1148" 
d="M152 281l335 419l-335 422h151l336 -422l-336 -419h-151zM520 281l336 419l-336 422h152l336 -422l-336 -419h-152z" />
    <glyph glyph-name="guilsinglleft.case" horiz-adv-x="778" 
d="M477 281l-336 419l336 422h150l-336 -422l336 -419h-150z" />
    <glyph glyph-name="guilsinglright.case" horiz-adv-x="780" 
d="M152 281l335 419l-335 422h151l336 -422l-336 -419h-151z" />
    <glyph glyph-name="endash.case" horiz-adv-x="1523" 
d="M250 645v119h1024v-119h-1024z" />
    <glyph glyph-name="emdash.case" horiz-adv-x="1933" 
d="M250 645v119h1433v-119h-1433z" />
    <glyph glyph-name="periodcentered.case" horiz-adv-x="632" 
d="M238 627v164h157v-164h-157z" />
    <glyph glyph-name="questiondown.case" horiz-adv-x="1028" 
d="M524 977v86h138v-92q0 -161 -126 -285q-52 -51 -104 -99q-126 -116 -127 -243q0 -100 76 -168t192 -67q61 -1 123 21t95 42l30 23l76 -103q-14 -12 -41 -32t-113 -52q-86 -33 -176 -33q-177 1 -293 103t-116 266t129 289q53 51 107 98q130 113 130 246zM514 1282v158h158
v-158h-158z" />
    <glyph glyph-name="exclamdown.case" horiz-adv-x="700" 
d="M279 0l6 1063h131l6 -1063h-143zM270 1282v158h158v-158h-158z" />
    <glyph glyph-name="bullet.case" horiz-adv-x="899" 
d="M451 428q-121 0 -207 86t-86 207t86 207t207 86t205 -86t85 -207q-1 -121 -85 -207t-205 -86z" />
    <glyph glyph-name="zero.p_osf" horiz-adv-x="1200" 
d="M600 1010q-162 0 -250 -134t-88 -320q0 -185 88 -320q88 -136 250 -136t251 136t89 320q0 186 -89 320t-251 134zM119 554q0 237 126 410t355 173t355 -173t126 -411t-125 -408t-356 -170t-356 171t-125 408z" />
    <glyph glyph-name="one.p_osf" horiz-adv-x="940" 
d="M139 0v123h320v737l2 109h-4q-33 -27 -80 -56l-215 -129l-66 99l371 229h127v-989h285v-123h-740z" />
    <glyph glyph-name="two.p_osf" horiz-adv-x="1079" 
d="M121 0v100q346 231 503 384t156 294q0 115 -78 173q-78 59 -178 59t-180 -40t-119 -81l-41 -39l-80 96q15 20 64 60q49 38 94 64q114 64 281 66t273 -100t108 -241q0 -174 -138 -327t-442 -347v-4q41 6 117 6h516v-123h-856z" />
    <glyph glyph-name="three.p_osf" horiz-adv-x="1044" 
d="M786 160q0 135 -106 208t-254 72h-100l-35 86l346 389l78 74v4q-41 -4 -117 -4h-475v123h786v-86l-432 -469q160 -8 293 -87q72 -42 116 -122t44 -186q0 -186 -134 -305t-337 -119q-156 0 -262 61q-107 61 -144 103l-16 20l84 98q12 -18 51 -50q131 -107 275 -107
q145 0 242 81t97 216z" />
    <glyph glyph-name="four.p_osf" horiz-adv-x="1191" 
d="M752 201v602l8 135h-4q-35 -68 -72 -119l-455 -618h523zM61 76v92l676 944h154v-911h221v-125h-221v-314h-139v314h-691z" />
    <glyph glyph-name="five.p_osf" horiz-adv-x="1075" 
d="M473 -119q143 0 250 84q106 83 106 229t-103 228t-247 82q-65 0 -131 -18t-98 -35l-33 -19l-88 31l78 649h672v-123h-551l-41 -336l-13 -78h5q92 49 223 50q199 0 335 -114q136 -113 136 -313t-140 -321t-344 -121t-355 120q-34 28 -48 46l-16 21l88 90q12 -16 36 -42
t106 -68t173 -42z" />
    <glyph glyph-name="six.p_osf" horiz-adv-x="1193" 
d="M285 508q0 -144 104 -276q103 -132 253 -132t234 91q82 91 82 233t-89 229q-89 86 -232 86t-248 -73q-104 -74 -104 -158zM752 1247q-131 0 -239 -84q-202 -157 -228 -469h4q53 78 152 122t214 44q197 0 322 -121t125 -319t-129 -321q-129 -124 -322 -124
q-231 -1 -373 173t-143 451q0 277 147 513q74 117 198 190t282 72q70 0 136 -13t97 -28l31 -14l-53 -117q-90 45 -221 45z" />
    <glyph glyph-name="seven.p_osf" horiz-adv-x="1032" 
d="M709 989h-643v123h909v-92l-637 -1258h-150l557 1104l70 123v4q-35 -4 -106 -4z" />
    <glyph glyph-name="eight.p_osf" horiz-adv-x="1187" 
d="M891 1018q0 106 -82 168t-210 63q-128 -1 -206 -63t-78 -166t139 -181q52 -30 82 -42t102 -42t99 -40q67 54 111 142q43 89 43 161zM262 393q0 -131 99 -212t231 -81t232 76q98 76 98 184t-98 170q-98 61 -205 104q-107 44 -146 60q-39 -20 -79 -52t-86 -102t-46 -147z
M119 387q0 146 100 250q77 80 137 119q-180 109 -180 276q0 140 112 242t310 102t314 -97q118 -97 118 -255q0 -188 -176 -365q211 -113 211 -283t-134 -286q-134 -115 -334 -115t-339 113t-139 299z" />
    <glyph glyph-name="nine.p_osf" horiz-adv-x="1193" 
d="M907 604q0 146 -104 276q-103 130 -253 130t-234 -90t-83 -232q-1 -142 89 -229q90 -86 233 -86t248 73q104 74 104 158zM430 -137q209 0 334 165t145 390h-4q-53 -78 -153 -122t-213 -44q-197 0 -322 120t-125 318t128 323q128 124 323 124q231 0 373 -173t143 -446
q0 -219 -100 -432q-100 -212 -293 -300q-106 -48 -206 -48q-168 0 -263 41l-31 14l55 117q88 -47 209 -47z" />
    <glyph glyph-name="zero.t_osf" horiz-adv-x="1157" 
d="M580 1010q-162 0 -250 -134t-88 -320q0 -185 88 -320q88 -136 250 -136t250 136t90 320q0 186 -90 320q-88 134 -250 134zM98 554q0 237 126 410t356 173t355 -173q126 -173 126 -411t-125 -408t-356 -170t-357 171q-125 171 -125 408z" />
    <glyph glyph-name="one.t_osf" horiz-adv-x="1157" 
d="M266 0v123h320v737l2 109h-4q-33 -27 -80 -56l-215 -129l-66 99l371 229h127v-989h285v-123h-740z" />
    <glyph glyph-name="two.t_osf" horiz-adv-x="1157" 
d="M174 0v100q346 231 503 384t157 294q0 115 -78 173q-78 59 -178 59t-181 -40q-80 -40 -118 -81l-41 -39l-80 96q17 22 64 61q48 37 93 63q114 64 281 66q168 2 274 -100t107 -241q0 -174 -137 -327t-443 -347v-4q41 6 117 6h516v-123h-856z" />
    <glyph glyph-name="three.t_osf" horiz-adv-x="1157" 
d="M862 160q0 135 -106 208t-254 72h-101l-34 86l346 389l78 74v4q-41 -4 -117 -4h-475v123h786v-86l-432 -469q158 -8 293 -87q72 -42 116 -122t44 -186q0 -186 -134 -305t-337 -119q-156 0 -262 61q-107 61 -144 103l-16 20l84 98q12 -18 51 -50q131 -107 275 -107
q145 0 242 81t97 216z" />
    <glyph glyph-name="four.t_osf" horiz-adv-x="1157" 
d="M754 201v602l8 135h-4q-35 -68 -72 -119l-455 -618h523zM63 76v92l676 944h154v-911h221v-125h-221v-314h-139v314h-691z" />
    <glyph glyph-name="five.t_osf" horiz-adv-x="1157" 
d="M528 -119q143 0 250 84q106 83 106 229t-102 228q-104 82 -247 82q-66 0 -132 -18t-98 -35l-33 -19l-88 31l78 649h672v-123h-551l-41 -336l-12 -78h4q92 49 223 50q199 0 335 -114q136 -113 136 -313t-140 -321t-344 -121t-355 120q-34 28 -50 46l-14 21l88 90
q12 -16 36 -42q23 -26 105 -68t174 -42z" />
    <glyph glyph-name="six.t_osf" horiz-adv-x="1157" 
d="M246 508q0 -144 104 -276t254 -132t233 91t83 233t-90 229q-90 86 -232 86q-143 0 -248 -73q-104 -74 -104 -158zM713 1247q-131 0 -239 -84q-202 -157 -228 -469h4q53 78 152 122t214 44q197 0 322 -121t125 -319t-129 -321q-129 -124 -322 -124q-232 -1 -374 173
t-142 451t147 513q73 117 197 190t283 72q71 0 137 -13t96 -28l31 -14l-53 -117q-90 45 -221 45z" />
    <glyph glyph-name="seven.t_osf" horiz-adv-x="1157" 
d="M770 989h-643v123h909v-92l-637 -1258h-149l557 1104l70 123v4q-35 -4 -107 -4z" />
    <glyph glyph-name="eight.t_osf" horiz-adv-x="1157" 
d="M879 1018q0 106 -82 168t-210 63q-128 -1 -206 -63t-78 -165t138 -182q52 -30 82 -42t103 -42t99 -40q65 51 109 141t45 162zM250 393q0 -131 99 -212t231 -81t231 76q98 76 98 185t-98 169q-98 61 -204 104q-107 44 -146 60q-39 -20 -79 -52t-86 -102t-46 -147zM106 387
q0 145 101 250q77 80 137 119q-180 109 -180 276q0 141 111 243q112 101 310 101q197 0 315 -97t118 -255q0 -188 -176 -365q211 -113 211 -283t-134 -286q-134 -115 -334 -115q-199 0 -339 113t-140 299z" />
    <glyph glyph-name="nine.t_osf" horiz-adv-x="1157" 
d="M557 373q143 0 248 73q104 74 104 158q0 146 -104 276q-103 130 -253 130t-234 -90t-82 -232q0 -142 89 -229q89 -86 232 -86zM432 -137q209 0 334 165t145 390h-4q-53 -78 -153 -122t-213 -44q-197 0 -322 120t-125 318t128 323q128 124 323 124q231 0 373 -173
t143 -446q0 -219 -100 -432q-100 -212 -293 -300q-106 -48 -206 -48q-168 0 -263 41l-31 14l55 117q88 -47 209 -47z" />
    <glyph glyph-name="dollar.osf" horiz-adv-x="1067" 
d="M799 293q0 82 -66 134t-159 87t-185 75q-92 41 -158 113t-65 177q0 139 94 222t242 97v176h114v-174q90 -8 165 -39t104 -59l30 -27l-69 -110q-41 41 -123 75q-82 33 -176 33t-165 -47t-71 -132t66 -137t158 -86t185 -74t159 -114q65 -73 65 -193t-97 -210t-251 -100
v-191h-115v191q-136 16 -228 76t-128 100l-14 18l86 100q6 -6 16 -18t45 -41q132 -109 313 -111q84 0 156 54t72 135z" />
    <glyph glyph-name="cent.osf" horiz-adv-x="1165" 
d="M121 610q0 199 124 334t318 160v176h117v-172q100 -6 186 -46t123 -75l37 -37l-70 -108q-12 16 -35 39q-24 23 -104 61t-170 39q-163 0 -273 -103q-110 -104 -110 -266t110 -266t273 -104q90 0 167 34t110 70l32 35l70 -109q-14 -16 -41 -41t-117 -67t-188 -51v-166h-117
v170q-195 25 -319 159t-123 334z" />
    <glyph glyph-name="sterling.osf" horiz-adv-x="1261" 
d="M125 0v123h131v379h-92v106h92v217q0 160 123 269t311 108q90 0 174 -26t123 -54l39 -26l-76 -107q-113 84 -254 84t-220 -74t-79 -182v-209h471v-106h-471v-379h693v-123h-965z" />
    <glyph glyph-name="yen.osf" horiz-adv-x="1234" 
d="M207 573v105h213l-307 504h161l254 -428l88 -170h5q43 94 88 170l252 428h161l-305 -504h213v-105h-276l-64 -108v-47h340v-105h-340v-313h-143v313h-340v105h340v47l-66 108h-274z" />
    <glyph glyph-name="florin.osf" horiz-adv-x="1165" 
d="M347 -94q90 53 106 221l45 524h-183v117h195l18 225q8 96 41 170t74 113q105 100 275 100q74 0 143 -12l24 -2v-125q-92 14 -147 14t-90 -9t-76 -34t-70 -82t-36 -139l-21 -219h258v-117h-266l-47 -530q-8 -98 -41 -171t-74 -112q-105 -100 -272 -100l-133 12v123
q66 -10 135 -10q70 0 142 43z" />
    <glyph glyph-name="Euro.osf" horiz-adv-x="1271" 
d="M125 416v100h131q-4 53 -4 86t2 53h-129v101h147q49 194 208 320t417 126q93 0 168 -18l25 -6l-33 -121q-78 20 -162 20q-186 0 -307 -90t-168 -231h571l-22 -101h-572q-4 -23 -4 -57t4 -82h549l-20 -100h-504q49 -138 172 -226t305 -88q98 0 158 21l20 6l31 -123
q-90 -31 -211 -31q-246 0 -407 124t-214 317h-151z" />
    <glyph glyph-name="zero.numerator" 
d="M391 635q197 0 197 359t-197 360q-197 0 -197 -360t197 -359zM391 528q-311 0 -311 466t311 466t311 -466t-311 -466z" />
    <glyph glyph-name="one.numerator" 
d="M152 549v102h194v592l2 49h-2q-8 -16 -43 -51l-82 -78l-71 76l202 201h107v-789h190v-102h-497z" />
    <glyph glyph-name="two.numerator" 
d="M547 1199q0 65 -47 111q-46 46 -108 46t-107 -25t-68 -49l-20 -27l-74 72q9 14 29 37q20 24 88 60t143 36q127 0 203 -74t76 -172t-44 -164t-108 -108q-62 -43 -126 -82q-153 -94 -161 -209h455v-102h-569q-6 33 -7 63q0 94 46 168t111 121t130 88q158 98 158 210z" />
    <glyph glyph-name="three.numerator" 
d="M383 635q68 0 127 52t59 130t-60 125t-140 47h-68l-29 64l203 235l51 51v4q-39 -6 -75 -6h-316v103h539v-74l-244 -283q102 -11 178 -77t76 -187t-88 -206t-220 -85t-241 87q-29 22 -47 49l72 77q25 -37 90 -71q65 -35 133 -35z" />
    <glyph glyph-name="four.numerator" 
d="M188 885h295v278l6 127h-4q-33 -55 -65 -100l-232 -301v-4zM483 549v233h-434v78l434 580h113v-555h133v-103h-133v-233h-113z" />
    <glyph glyph-name="five.numerator" 
d="M383 635q72 0 132 56t60 138q0 81 -60 139t-145 58t-145 -37l-18 -12l-68 27l49 436h447v-103h-352l-17 -159l-12 -76h4q51 25 123 24q133 0 222 -87t89 -211t-92 -212t-213 -88t-192 50q-57 37 -101 92l78 71q8 -12 22 -29t66 -47q51 -30 123 -30z" />
    <glyph glyph-name="six.numerator" 
d="M209 893q1 -92 59 -175t143 -83t132 57q47 58 47 144t-51 139t-131 53t-140 -43q-59 -43 -59 -92zM705 828q0 -134 -83 -218q-83 -82 -218 -82t-225 115q-89 115 -89 298t90 344q45 79 123 127q79 48 173 48t163 -30l23 -11l-46 -98q-63 33 -133 33q-109 0 -179 -90
t-89 -222h4q31 35 87 58t108 22q129 0 210 -80t81 -214z" />
    <glyph glyph-name="seven.numerator" 
d="M455 1337h-359v103h594v-76l-430 -815h-127l356 672l68 116v4q-39 -4 -102 -4z" />
    <glyph glyph-name="eight.numerator" 
d="M233 1227q0 -95 154 -159q12 -5 44 -19t44 -19q90 90 90 191q0 65 -50 101t-118 36t-116 -34t-48 -97zM391 631q77 1 135 45t58 110t-73 114t-198 97q-117 -82 -116 -190q0 -80 59 -128t135 -48zM82 811q0 135 147 231q-109 74 -109 186t83 172t195 60t196 -62t84 -178
t-117 -233q137 -80 137 -196q0 -115 -88 -189t-215 -74t-220 74t-93 209z" />
    <glyph glyph-name="nine.numerator" 
d="M193 1155q0 -86 52 -140t131 -54t138 43t59 94q0 92 -58 175t-143 83t-132 -58t-47 -143zM78 1162q0 134 83 216t218 82t224 -114t89 -297q0 -281 -168 -436q-92 -85 -205 -85t-176 33l-22 10l45 97q63 -33 133 -33q109 0 179 90t89 223h-4q-33 -34 -88 -58t-106 -24
q-129 0 -210 81t-81 215z" />
    <glyph glyph-name="zero.denominator" 
d="M391 86q197 0 197 359t-197 360t-197 -359t197 -360zM391 -20q-311 0 -311 466t311 465q311 1 311 -465t-311 -466z" />
    <glyph glyph-name="one.denominator" 
d="M152 0v102h194v592l2 49h-2q-8 -16 -43 -51l-82 -78l-71 76l202 201h107v-789h190v-102h-497z" />
    <glyph glyph-name="two.denominator" 
d="M547 650q0 64 -47 111q-46 46 -108 46t-107 -25t-68 -49l-20 -26l-74 71q9 14 29 37t88 59t143 37q127 1 203 -73t76 -172t-44 -164t-108 -109q-62 -43 -126 -82q-153 -94 -161 -209h455v-102h-569q-6 33 -7 63q0 94 46 168t111 121t130 88q158 98 158 210z" />
    <glyph glyph-name="three.denominator" 
d="M383 86q68 0 127 52t59 130t-60 125t-140 47h-68l-29 64l203 235l51 52v4q-39 -6 -75 -7h-316v103h539v-74l-244 -282q102 -12 178 -78t76 -187q0 -122 -88 -206t-222 -84t-239 87q-30 23 -47 48l72 78q26 -38 90 -73q65 -34 133 -34z" />
    <glyph glyph-name="four.denominator" 
d="M188 336h295v278l6 127h-4q-33 -55 -65 -100l-232 -301v-4zM483 0v233h-434v78l434 580h113v-555h133v-103h-133v-233h-113z" />
    <glyph glyph-name="five.denominator" 
d="M383 86q72 0 132 56t60 138t-60 140q-60 57 -145 57t-145 -37l-18 -12l-68 27l49 436h447v-103h-352l-17 -159l-12 -76h4q51 25 123 25q133 0 222 -88t89 -210q0 -124 -92 -212t-214 -88t-184 43q-63 43 -108 98l78 72q8 -11 22 -29t66 -48q51 -30 123 -30z" />
    <glyph glyph-name="six.denominator" 
d="M209 344q1 -92 59 -175t143 -83t132 57t47 143t-51 140q-51 53 -131 53t-140 -43q-59 -43 -59 -92zM705 279q0 -135 -83 -217t-218 -82t-225 114q-89 115 -89 298t90 344q45 79 123 127q79 48 173 48t163 -30l23 -11l-46 -98q-63 33 -133 33q-109 0 -179 -90t-89 -221h4
q31 36 87 58t108 21q129 1 210 -79t81 -215z" />
    <glyph glyph-name="seven.denominator" 
d="M96 788v103h594v-76l-430 -815h-127l356 672l68 116v5q-39 -4 -102 -5h-359z" />
    <glyph glyph-name="eight.denominator" 
d="M565 672q0 66 -50 102t-118 35q-68 0 -116 -34t-48 -95t48 -100q48 -38 194 -99q90 90 90 191zM391 82q77 0 135 45t58 111t-64 107t-207 104q-117 -82 -116 -191q0 -80 59 -128t135 -48zM82 262q0 135 147 232q-109 74 -109 186t83 171q83 60 195 60t196 -62t84 -178
t-117 -233q137 -80 137 -196t-88 -189t-215 -73t-220 74t-93 208z" />
    <glyph glyph-name="nine.denominator" 
d="M193 606q0 -86 52 -140t131 -54t138 43t59 94q0 92 -58 175t-143 83q-85 1 -132 -57t-47 -144zM78 613q0 134 83 216t218 82q135 -1 224 -115t89 -296q0 -282 -168 -435q-92 -85 -206 -85t-175 32l-22 11l45 96q63 -33 133 -33q109 0 179 90t89 223h-4q-33 -35 -88 -59
t-106 -23q-129 0 -210 81t-81 215z" />
    </font>
</defs>
</svg>
