<?xml version="1.0" standalone="no"?>
<!DOCTYPE svg PUBLIC "-//W3C//DTD SVG 1.1//EN" "http://www.w3.org/Graphics/SVG/1.1/DTD/svg11.dtd" >
<svg xmlns="http://www.w3.org/2000/svg">
<metadata>
Created by FontPrep 20130207 at Thu Jul 23 09:51:12 2015
 By Wendell P. Barreto
Copyright (c) 1989, 1993 Adobe Systems Incorporated.  All Rights Reserved.Akzidenz Grotesk is a registered trademark of Berthold.
</metadata>
<defs>
<font id="e99903d30d7e23a236376fec0ff6a5d4" horiz-adv-x='1024' >
  <font-face 
    font-family="AkzidenzGrotesk-Light"
    font-weight="300"
    font-stretch="normal"
    units-per-em="2048"
    panose-1="2 0 5 6 3 0 0 2 0 3"
    ascent="1638"
    descent="-410"
    x-height="983"
    cap-height="1458"
    bbox="-338 -508 2111 1906"
    underline-thickness="102"
    underline-position="-102"
    unicode-range="U+0005-2122"
  />
<missing-glyph horiz-adv-x="569" 
 />
    <glyph glyph-name=".notdef" horiz-adv-x="569" 
 />
    <glyph glyph-name=".null" horiz-adv-x="0" 
 />
    <glyph glyph-name="nonmarkingreturn" horiz-adv-x="569" 
 />
    <glyph glyph-name="breve" horiz-adv-x="378" 
d="M189 1245q182 0 217 168h79q-6 -87 -81 -172.5t-214 -85.5t-214.5 85.5t-81.5 172.5h79q34 -168 216 -168z" />
    <glyph glyph-name="dotaccent" horiz-adv-x="378" 
d="M129 1372h123v-209h-123v209z" />
    <glyph glyph-name="ring" horiz-adv-x="378" 
d="M188 1524q86 0 145.5 -59.5t59.5 -143.5t-60.5 -144.5t-143.5 -60.5t-143 58.5t-60 144.5t58 145.5t144 59.5zM51 1320q0 -58 40 -98t97.5 -40t98.5 40t41 98t-41 98t-98.5 40t-97.5 -40t-40 -98z" />
    <glyph glyph-name="hungarumlaut" unicode="&#xa;" horiz-adv-x="378" 
d="M428 1427h158l-281 -284h-104zM152 1427h157l-280 -284h-105z" />
    <glyph glyph-name="ogonek" horiz-adv-x="378" 
d="M436 -196q0 -32 17.5 -57.5t58.5 -42.5t109 9v-73q-89 -33 -194 -7t-105 148q0 121 204 229h90q-180 -119 -180 -206z" />
    <glyph glyph-name="caron" horiz-adv-x="378" 
d="M356 1427h133l-233 -284h-137l-230 284h131l168 -208z" />
    <glyph glyph-name="dotlessi" unicode="&#xd;" horiz-adv-x="380" 
d="M129 983h123v-983h-123v983z" />
    <glyph glyph-name="fraction" horiz-adv-x="342" 
d="M-338 -37l903 1532h115l-905 -1532h-113z" />
    <glyph glyph-name="fi" horiz-adv-x="948" 
d="M696 1389h123v-193h-123v193zM696 983h123v-983h-123v983zM487 1380q-65 0 -93.5 -35.5t-28.5 -117.5v-244h215v-102h-215v-881h-123v881h-215v102h215v328q0 98 65.5 141t155.5 43t129 -20v-117q-40 22 -105 22z" />
    <glyph glyph-name="fl" horiz-adv-x="948" 
d="M696 1458h123v-1458h-123v1458zM487 1380q-65 0 -93.5 -35.5t-28.5 -117.5v-244h215v-102h-215v-881h-123v881h-215v102h215v328q0 98 65.5 141t155.5 43t129 -20v-117q-40 22 -105 22z" />
    <glyph glyph-name="Lslash" horiz-adv-x="1138" 
d="M164 1458h139v-649l408 240v-115l-408 -240v-567h805v-127h-944v612l-125 -73v114l125 74v731z" />
    <glyph glyph-name="lslash" horiz-adv-x="380" 
d="M129 1458h123v-534l131 96v-107l-131 -96v-817h-123v729l-131 -96v106l131 97v622z" />
    <glyph glyph-name="Zcaron" horiz-adv-x="1175" 
d="M96 1458h1030v-90l-882 -1241h874v-127h-1069v90l883 1241h-836v127zM756 1831h133l-234 -285h-137l-229 285h131l168 -209z" />
    <glyph glyph-name="zcaron" horiz-adv-x="757" 
d="M66 881v102h663v-68l-547 -813h555v-102h-717v84l537 797h-491zM547 1427h133l-234 -284h-137l-229 284h131l168 -208z" />
    <glyph glyph-name="space" unicode=" " horiz-adv-x="569" 
 />
    <glyph glyph-name="space" unicode="&#xa0;" horiz-adv-x="569" 
 />
    <glyph glyph-name="exclam" unicode="!" horiz-adv-x="569" 
d="M207 238h155v-238h-155v238zM354 1458v-784l-18 -328h-103l-18 328v784h139z" />
    <glyph glyph-name="quotedbl" unicode="&#x22;" horiz-adv-x="645" 
d="M385 1458h102v-561h-102v561zM158 1458h102v-561h-102v561z" />
    <glyph glyph-name="numbersign" unicode="#" horiz-adv-x="1138" 
d="M735 893h-286l-46 -326h287zM55 477v90h246l45 326h-233v90h245l66 475h102l-65 -475h287l65 475h102l-65 -475h233v-90h-245l-45 -326h233v-90h-246l-65 -477h-103l66 477h-287l-65 -477h-103l66 477h-234z" />
    <glyph glyph-name="dollar" unicode="$" horiz-adv-x="1138" 
d="M621 102q121 0 232.5 68.5t111.5 220.5q0 174 -141.5 223.5t-202.5 67.5v-580zM498 1356q-102 0 -189.5 -60t-87.5 -168q0 -162 114 -209t163 -61v498zM82 1118q0 96 42 167t134.5 134.5t239.5 63.5v135h123v-135q164 -18 269 -96t159 -257l-150 -10q-55 154 -139 193
t-139 43v-531q113 -35 202.5 -67.5t185 -104.5t95.5 -258t-148.5 -303t-334.5 -117v-198h-123v198q-169 0 -311.5 115.5t-196.5 267.5l149 15q40 -103 145.5 -183t213.5 -88v615q-208 61 -312 145t-104 256z" />
    <glyph glyph-name="percent" unicode="%" horiz-adv-x="1820" 
d="M1341 1479l-806 -1553l-78 37l807 1555zM1377 78q128 0 128 280q0 119 -28.5 173.5t-66.5 81t-123 26.5t-128 -80.5t-43 -200.5q0 -186 66.5 -233t194.5 -47zM1535 90.5q-73 -115.5 -222 -115.5h-4q-151 0 -223 116t-72 267t75.5 267t220.5 116t221.5 -115.5t76.5 -267.5
t-73 -267.5zM534 819q85 0 128 82t43 199q0 187 -67 233.5t-152 46.5t-128 -82t-43 -198q0 -188 67 -234.5t152 -46.5zM735 832.5q-72 -115.5 -223 -115.5h-4q-151 0 -223 115.5t-72 267.5t76 267.5t220 115.5t221 -115.5t77 -267.5t-72 -267.5z" />
    <glyph glyph-name="ampersand" unicode="&#x26;" horiz-adv-x="1290" 
d="M795 1228q0 60 -46.5 100t-118.5 40t-118.5 -48t-46.5 -120t36 -135.5t68 -116.5q107 67 145 103t59.5 76.5t21.5 100.5zM322 176.5q93 -86.5 209 -86.5q206 0 348 168q-98 123 -182.5 254t-168.5 264q-147 -93 -223 -171t-76 -210t93 -218.5zM950 160
q-172 -185 -386 -185q-211 0 -342.5 117t-131.5 305q0 149 108 275t263 211q-53 78 -86 145.5t-33 183.5t80 193.5t210 77.5t208 -68.5t78 -195.5q0 -170 -115 -256t-164 -121q72 -121 149.5 -233.5t155.5 -227.5q48 112 64 266h122q-19 -237 -104 -371q64 -80 112.5 -125
t123.5 -49v-127q-140 0 -209.5 74t-102.5 111z" />
    <glyph glyph-name="quotesingle" unicode="'" horiz-adv-x="569" 
d="M233 1458h103v-561h-103v561z" />
    <glyph glyph-name="parenleft" unicode="(" horiz-adv-x="606" 
d="M217.5 1163.5q123.5 263.5 374.5 401.5v-107q-190 -149 -274.5 -378t-84.5 -562.5t128 -525t231 -271.5v-106q-245 137 -371.5 402t-126.5 574t123.5 572.5z" />
    <glyph glyph-name="parenright" unicode=")" horiz-adv-x="606" 
d="M288.5 1081q-84.5 230 -274.5 377v107q245 -137 371.5 -400.5t126.5 -663.5t-183.5 -607t-314.5 -279v106q190 149 274.5 378t84.5 490.5t-84.5 491.5z" />
    <glyph glyph-name="asterisk" unicode="*" horiz-adv-x="569" 
d="M236 1274l-7 184h111l-10 -184l176 61l24 -98l-178 -51l111 -139l-88 -56l-92 156l-95 -156l-88 56l113 143l-174 47l24 98z" />
    <glyph glyph-name="plus" unicode="+" horiz-adv-x="1228" 
d="M563 1036h103v-467h467v-102h-467v-467h-103v467h-467v102h467v467z" />
    <glyph glyph-name="comma" unicode="," horiz-adv-x="569" 
d="M207 238h155v-222q0 -177 -106 -340l-70 52q93 108 88 272h-67v238z" />
    <glyph glyph-name="hyphen" unicode="-" horiz-adv-x="757" 
d="M92 475v127h574v-127h-574z" />
    <glyph glyph-name="period" unicode="." horiz-adv-x="569" 
d="M362 0h-155v238h155v-238z" />
    <glyph glyph-name="slash" unicode="/" horiz-adv-x="948" 
d="M813 1495h109l-787 -1532h-108z" />
    <glyph glyph-name="zero" unicode="0" horiz-adv-x="1138" 
d="M203 1295q148 188 367 188t366 -188t147 -566t-147 -566t-366 -188t-367 188t-148 566t148 566zM195 650.5q0 -281.5 115.5 -421t258.5 -139.5q239 0 307 218t68 498.5t-115.5 421t-259.5 140.5q-240 0 -307 -218t-67 -499.5z" />
    <glyph glyph-name="one" unicode="1" horiz-adv-x="1138" 
d="M690 1458v-1458h-123v1184q-106 -64 -270 -64v115q111 -5 165 28t80.5 78t28.5 117h119z" />
    <glyph glyph-name="two" unicode="2" horiz-adv-x="1138" 
d="M86 1034q0 214 131 331.5t362 117.5q230 0 360 -128t130 -343q0 -319 -294.5 -549t-485.5 -344v-4h712v-115h-911v115q53 41 136 94t247 169.5t310.5 284.5t146.5 357q0 152 -100 250t-257 98t-260.5 -87.5t-103.5 -233.5q0 -145 92 -254l-164 16q-51 108 -51 225z" />
    <glyph glyph-name="three" unicode="3" horiz-adv-x="1138" 
d="M518 817q379 1 379 269q0 136 -90.5 209t-238.5 73t-235 -84t-104 -235l-139 36q51 209 176 303.5t339 94.5t322.5 -120.5t108.5 -262.5t-80.5 -234t-224.5 -96v-4q91 0 212.5 -68t121.5 -306q0 -95 -39 -175t-139 -161t-314 -81t-351.5 113t-160.5 332l140 45
q0 -205 115.5 -290t270.5 -85q135 0 237 83t102 208t-38 186.5t-110.5 98t-255.5 36.5h-76q-77 0 -112 -4v121q31 -2 38 -2h146z" />
    <glyph glyph-name="four" unicode="4" horiz-adv-x="1138" 
d="M719 479v768h-4l-506 -768h510zM842 1458v-979h231v-114h-231v-365h-123v365h-649v114l637 979h135z" />
    <glyph glyph-name="five" unicode="5" horiz-adv-x="1138" 
d="M938 1458v-127h-655l-27 -485h4q69 124 169.5 143t141.5 19q257 0 367.5 -158t110.5 -348t-76 -302t-176.5 -168.5t-276.5 -56.5t-299 107.5t-155 310.5l135 39q16 -154 102 -248t239 -94t260 97.5t107 295.5t-91 304t-267 106q-121 0 -199 -77t-108 -189l-119 8l43 823
h770z" />
    <glyph glyph-name="six" unicode="6" horiz-adv-x="1138" 
d="M598 868q-171 0 -280 -103.5t-109 -273.5t109 -285.5t257 -115.5q149 0 252 96.5t103 280.5q0 268 -121 334.5t-211 66.5zM918 1112q-29 256 -293 256q-219 0 -305 -155t-111 -427h4q99 137 208 167t177 30t154 -24.5t201.5 -123.5t115.5 -370q0 -203 -126 -346.5
t-381 -143.5t-373.5 195t-118.5 510q0 600 207.5 701.5t361.5 101.5t263.5 -80t154.5 -246z" />
    <glyph glyph-name="seven" unicode="7" horiz-adv-x="1138" 
d="M111 1458h938v-115q-231 -287 -368 -644.5t-151 -698.5h-139q50 565 222.5 864t291.5 467h-672v-325h-122v452z" />
    <glyph glyph-name="eight" unicode="8" horiz-adv-x="1138" 
d="M625 1483q209 0 311 -122.5t102 -255.5q0 -134 -77 -217.5t-170 -101.5v-4q120 -37 204 -137.5t84 -220.5q0 -223 -140 -336t-355 -113t-370 109t-155 332q0 135 82 231.5t207 134.5v4q-91 15 -169.5 101t-78.5 213q0 233 158 308t367 75zM818 919.5q81 90.5 81 185.5
t-73 179t-252 84q-180 0 -257 -79t-77 -185.5t88.5 -190.5t245.5 -84q163 0 244 90.5zM940 398q0 140 -94.5 229.5t-276.5 89.5t-276 -89t-94 -229t105 -224.5t264.5 -84.5t265.5 84t106 224z" />
    <glyph glyph-name="nine" unicode="9" horiz-adv-x="1138" 
d="M540 590q173 0 281.5 104.5t108.5 267.5t-112 284.5t-257 121.5t-248.5 -96t-103.5 -281q0 -262 121 -331.5t210 -69.5zM553 1483q516 0 516 -680q0 -625 -208 -726.5t-362 -101.5q-153 0 -262.5 80t-154.5 246l139 45q18 -156 100.5 -206t192.5 -50q218 0 304.5 154.5
t111.5 427.5h-4q-99 -138 -208.5 -167.5t-177.5 -29.5t-153.5 25.5t-201 124.5t-115.5 368q0 202 123 346t360 144z" />
    <glyph glyph-name="colon" unicode=":" horiz-adv-x="569" 
d="M362 731h-155v238h155v-238zM362 0h-155v238h155v-238z" />
    <glyph glyph-name="semicolon" unicode=";" horiz-adv-x="569" 
d="M362 731h-155v238h155v-238zM207 238h155v-222q0 -177 -106 -340l-70 52q93 108 88 272h-67v238z" />
    <glyph glyph-name="less" unicode="&#x3c;" horiz-adv-x="1228" 
d="M1133 -16l-1037 479v110l1037 480v-113l-912 -422l912 -422v-112z" />
    <glyph glyph-name="equal" unicode="=" horiz-adv-x="1228" 
d="M1133 268h-1037v103h1037v-103zM1133 666h-1037v102h1037v-102z" />
    <glyph glyph-name="greater" unicode="&#x3e;" horiz-adv-x="1228" 
d="M1133 463l-1037 -479v112l912 422l-912 422v113l1037 -480v-110z" />
    <glyph glyph-name="question" unicode="?" horiz-adv-x="985" 
d="M379 0v238h156v-238h-156zM395 356v123q0 110 67.5 180t115 110t115 115.5t67.5 203.5q0 127 -78.5 203.5t-195.5 76.5t-197 -76t-80 -172t21.5 -148t33.5 -83l-153 45q-25 73 -25 160q0 170 96.5 285.5t292.5 115.5q195 0 309.5 -110.5t114.5 -290.5
q0 -220 -154.5 -351.5t-190.5 -192.5t-36 -124v-70h-123z" />
    <glyph glyph-name="at" unicode="@" horiz-adv-x="1638" 
d="M358 563q0 116 37 225t105.5 197t167 144.5t204.5 56.5t164 -50.5t88 -127.5l56 139h116l-213 -610q-22 -59 -22 -93q0 -35 10 -53t43 -18q86 0 154.5 52t116 127t73 160t25.5 152q0 125 -54.5 223.5t-189.5 202t-381 103.5q-141 0 -268 -51.5t-223.5 -140.5t-153.5 -213
t-57 -272t57 -268t204 -251t431 -131q176 0 330.5 68.5t244.5 205.5h125q-96 -172 -285.5 -274.5t-383.5 -102.5q-372 0 -599 213.5t-227 558.5q0 156 63.5 294t172 241.5t254 164t299.5 60.5t288 -45t234 -129t160.5 -201.5t60.5 -235.5t-37 -220.5t-102.5 -190.5
t-156.5 -145.5t-179 -57.5t-123 39t-29 103h-4q-147 -142 -292 -142t-224.5 88.5t-79.5 204.5zM498 574q0 -78 47 -139.5t131 -61.5t149.5 57t112.5 137t73.5 166.5t26.5 134.5q0 89 -46 146t-127 57t-149.5 -51t-116.5 -126t-74.5 -158.5t-26.5 -161.5z" />
    <glyph glyph-name="A" unicode="A" horiz-adv-x="1251" 
d="M903 553l-270 719l-279 -719h549zM696 1458l566 -1458h-150l-164 438h-641l-174 -438h-143l594 1458h112z" />
    <glyph glyph-name="B" unicode="B" horiz-adv-x="1327" 
d="M272 127h504q168 0 250 82t82 209t-97.5 213t-283.5 86h-455v-590zM133 1458h627q246 0 340 -114.5t94 -242.5t-63.5 -206t-202.5 -104v-5q156 -16 237.5 -122.5t81.5 -257.5q0 -275 -174 -340.5t-299 -65.5h-641v1458zM272 844h447q160 0 248 62.5t88 190.5t-80 181
t-244 53h-459v-487z" />
    <glyph glyph-name="C" unicode="C" horiz-adv-x="1327" 
d="M353.5 1195q-124.5 -173 -124.5 -466q0 -489 200 -564t310 -75q172 0 266.5 83t143.5 226l133 -71q-78 -197 -222.5 -281t-346.5 -84q-279 0 -451 186t-172 576t174.5 580t437.5 190q221 0 358.5 -88t221.5 -289l-139 -69q-49 162 -144 240.5t-308 78.5t-337.5 -173z" />
    <glyph glyph-name="D" unicode="D" horiz-adv-x="1402" 
d="M164 1458h573q308 0 442 -221t134 -508q0 -115 -30 -244t-100.5 -236.5t-188 -178t-296.5 -70.5h-534v1458zM303 127h387q252 0 368 176t116 420q0 245 -110 426.5t-345 181.5h-416v-1204z" />
    <glyph glyph-name="E" unicode="E" horiz-adv-x="1214" 
d="M133 1458h954v-127h-815v-516h736v-127h-736v-561h858v-127h-997v1458z" />
    <glyph glyph-name="F" unicode="F" horiz-adv-x="1138" 
d="M133 1458h950v-127h-811v-487h725v-127h-725v-717h-139v1458z" />
    <glyph glyph-name="G" unicode="G" horiz-adv-x="1402" 
d="M768 1368q-267 0 -403 -192t-136 -449q0 -256 126.5 -446.5t355.5 -190.5t339.5 140.5t110.5 328.5v80h-540v127h663v-766h-123v211h-4q-75 -189 -222 -218.5t-214 -29.5q-307 0 -469 217.5t-162 544.5t170.5 548.5t487.5 221.5q209 0 340 -90t210 -277l-133 -71
q-53 164 -150 237.5t-247 73.5z" />
    <glyph glyph-name="H" unicode="H" horiz-adv-x="1478" 
d="M164 1458h139v-643h873v643h139v-1458h-139v688h-873v-688h-139v1458z" />
    <glyph glyph-name="I" unicode="I" horiz-adv-x="454" 
d="M158 1458h139v-1458h-139v1458z" />
    <glyph glyph-name="J" unicode="J" horiz-adv-x="985" 
d="M827 436q0 -473 -413 -473q-205 0 -317.5 100.5t-112.5 301.5v36l139 25v-53q0 -123 71.5 -203t219.5 -80q219 0 246.5 129t27.5 207v1032h139v-1022z" />
    <glyph glyph-name="K" unicode="K" horiz-adv-x="1290" 
d="M133 1458h139v-811l793 811h195l-570 -573l619 -885h-170l-549 784l-318 -321v-463h-139v1458z" />
    <glyph glyph-name="L" unicode="L" horiz-adv-x="1138" 
d="M164 1458h139v-1331h805v-127h-944v1458z" />
    <glyph glyph-name="M" unicode="M" horiz-adv-x="1593" 
d="M152 1458h170l473 -1220h4l473 1220h170v-1458h-139v1192h-5l-454 -1192h-94l-455 1192h-4v-1192h-139v1458z" />
    <glyph glyph-name="N" unicode="N" horiz-adv-x="1441" 
d="M164 1458h137l834 -1225h4v1225h139v-1458h-137l-834 1225h-4v-1225h-139v1458z" />
    <glyph glyph-name="O" unicode="O" horiz-adv-x="1441" 
d="M355.5 280.5q126.5 -190.5 365.5 -190.5t365 190t126 449t-126 449t-365 190t-365.5 -190.5t-126.5 -448.5t126.5 -448.5zM90 729q0 145 38 282.5t116 245t196.5 173t280.5 65.5t280.5 -65.5t196.5 -173t116 -245t38 -282.5t-38 -282.5t-116 -245t-196.5 -173
t-280.5 -65.5t-280.5 65.5t-196.5 173t-116 245t-38 282.5z" />
    <glyph glyph-name="P" unicode="P" horiz-adv-x="1290" 
d="M303 788h463q356 0 356 273q0 104 -55 187t-244 83h-520v-543zM164 1458h719q195 0 287 -116.5t92 -280.5q0 -204 -119 -301.5t-324 -97.5h-516v-662h-139v1458z" />
    <glyph glyph-name="Q" unicode="Q" horiz-adv-x="1441" 
d="M355.5 280.5q126.5 -190.5 365.5 -190.5t365 190t126 449t-126 449t-365 190t-365.5 -190.5t-126.5 -448.5t126.5 -448.5zM90 729q0 315 163.5 540.5t467.5 225.5t467.5 -225.5t163.5 -522.5t-125 -503l200 -181l-94 -100l-184 180q-167 -180 -428 -180
q-304 0 -467.5 225.5t-163.5 540.5z" />
    <glyph glyph-name="R" unicode="R" horiz-adv-x="1251" 
d="M133 1458h645q213 0 319.5 -118t106.5 -297q0 -178 -114.5 -276.5t-313.5 -113.5l467 -653h-176l-463 647h-332v-647h-139v1458zM272 774h433q198 0 279 81t81 203t-76 197.5t-262 75.5h-455v-557z" />
    <glyph glyph-name="S" unicode="S" horiz-adv-x="1251" 
d="M1030 387q0 205 -177 253t-258 69.5t-258 83t-177 331.5q0 181 142 276t326 95q183 0 318 -71.5t199 -254.5l-129 -69q-45 143 -149.5 205.5t-234.5 62.5t-231.5 -65t-101.5 -179q0 -196 177 -242t322 -83t258 -119t113 -284q0 -203 -141 -318t-397 -115q-476 0 -549 404
l139 71q8 -176 114 -262t294 -86q173 0 287 81.5t114 215.5z" />
    <glyph glyph-name="T" unicode="T" horiz-adv-x="1097" 
d="M23 1458h1052v-127h-457v-1331h-139v1331h-456v127z" />
    <glyph glyph-name="U" unicode="U" horiz-adv-x="1363" 
d="M1219 473q0 -246 -145.5 -378t-392.5 -132t-391.5 132.5t-144.5 377.5v985h140v-981q0 -200 109 -293.5t337 -93.5t288 140.5t60 246.5v981h140v-985z" />
    <glyph glyph-name="V" unicode="V" horiz-adv-x="1214" 
d="M0 1458h150l456 -1237l465 1237h143l-546 -1458h-123z" />
    <glyph glyph-name="W" unicode="W" horiz-adv-x="1781" 
d="M6 1458h146l337 -1212h5l350 1212h102l361 -1204h4l321 1204h144l-416 -1458h-113l-354 1176h-4l-338 -1176h-109z" />
    <glyph glyph-name="X" unicode="X" horiz-adv-x="1290" 
d="M72 1458h180l395 -575l400 575h174l-480 -672l549 -786h-174l-471 702l-483 -702h-162l551 795z" />
    <glyph glyph-name="Y" unicode="Y" horiz-adv-x="1249" 
d="M694 0h-139v608l-549 850h168l455 -721l454 721h160l-549 -850v-608z" />
    <glyph glyph-name="Z" unicode="Z" horiz-adv-x="1175" 
d="M96 1458h1030v-90l-882 -1241h874v-127h-1069v90l883 1241h-836v127z" />
    <glyph glyph-name="bracketleft" unicode="[" horiz-adv-x="606" 
d="M190 -385v1950h347v-103h-224v-1745h224v-102h-347z" />
    <glyph glyph-name="backslash" unicode="\" horiz-adv-x="948" 
d="M27 1495h108l787 -1532h-109z" />
    <glyph glyph-name="bracketright" unicode="]" horiz-adv-x="606" 
d="M293 1462h-223v103h346v-1950h-346v102h223v1745z" />
    <glyph glyph-name="asciicircum" unicode="^" horiz-adv-x="1228" 
d="M90 530l471 928h107l471 -928h-117l-408 805l-405 -805h-119z" />
    <glyph glyph-name="underscore" unicode="_" 
d="M0 -256v102h1024v-102h-1024z" />
    <glyph glyph-name="grave" unicode="`" horiz-adv-x="378" 
d="M-70 1427h158l227 -284h-104z" />
    <glyph glyph-name="a" unicode="a" horiz-adv-x="985" 
d="M68 236q0 198 144 247t208 66l301 78v98q0 96 -64.5 138t-184.5 42q-231 0 -241 -237l-139 24q61 315 387 316q236 0 300.5 -92.5t64.5 -215.5v-481q0 -121 55 -125t86 -4v-102q-134 0 -173.5 18.5t-59 53t-23.5 100.5h-4q-105 -185 -344 -185q-129 0 -221 67t-92 194z
M721 408v112l-354 -98q-74 -20 -125.5 -60t-51.5 -119t61 -116t123 -37q130 0 238.5 79t108.5 239z" />
    <glyph glyph-name="b" unicode="b" 
d="M528 893q-282 0 -282 -336t102.5 -401.5t188.5 -65.5q133 0 215 107.5t82 294t-83 294t-223 107.5zM129 1458h123v-627h4q33 84 111.5 130.5t170.5 46.5q184 0 301 -140.5t117 -387.5t-130 -376t-300 -129q-78 0 -156.5 42t-113.5 135h-4v-152h-123v1458z" />
    <glyph glyph-name="c" unicode="c" horiz-adv-x="948" 
d="M524 893q-136 0 -235 -106t-99 -294t96 -295.5t226 -107.5q98 0 168 46t102 114l125 -31q-53 -123 -156 -183.5t-217 -60.5q-210 0 -336 142.5t-130 374.5q4 237 133.5 376.5t324.5 139.5t278 -85t116 -159l-125 -25q-69 154 -271 154z" />
    <glyph glyph-name="d" unicode="d" 
d="M778 607q0 286 -282 286q-139 0 -222.5 -107.5t-83.5 -294t82 -294t227 -107.5t212 115.5t67 401.5zM772 854v604h123v-1458h-123v133h-4q-43 -88 -122 -123t-157 -35q-167 0 -294 127t-127 376t117.5 389.5t301.5 140.5t281 -154h4z" />
    <glyph glyph-name="e" unicode="e" 
d="M207 496v-27q0 -266 116.5 -322.5t222.5 -56.5q201 0 296 209l114 -31q-55 -137 -167.5 -215t-289.5 -78t-304 135.5t-127 381.5t127 381t326 135q200 0 313 -140t122 -372h-749zM817 598q-56 295 -305 295q-126 0 -207 -83t-98 -212h610z" />
    <glyph glyph-name="f" unicode="f" horiz-adv-x="606" 
d="M484 1380q-68 0 -93.5 -35.5t-25.5 -109.5v-252h215v-102h-215v-881h-123v881h-215v102h215v311q0 111 67.5 156t155.5 45t127 -20v-117q-40 22 -108 22z" />
    <glyph glyph-name="g" unicode="g" horiz-adv-x="1062" 
d="M496 90q311 0 311 383q0 294 -107.5 357t-203.5 63q-139 0 -222.5 -107.5t-83.5 -294t83 -294t223 -107.5zM811 -53v203l-2 4q-105 -179 -324 -179q-157 0 -287 129t-130 376t117.5 387.5t293.5 140.5q117 0 202 -47.5t126 -139.5h4v162h123v-1026q0 -204 -84 -334.5
t-348 -130.5q-188 0 -299 79t-131 273l125 27q30 -264 305 -264q153 0 231 68.5t78 271.5z" />
    <glyph glyph-name="h" unicode="h" 
d="M256 838q85 170 295 170q172 0 258 -92t86 -250v-666h-123v629q0 150 -61.5 207t-178.5 57q-188 0 -234 -119t-46 -201v-573h-123v1458h123v-620h4z" />
    <glyph glyph-name="i" unicode="i" horiz-adv-x="380" 
d="M129 1389h123v-193h-123v193zM129 983h123v-983h-123v983z" />
    <glyph glyph-name="j" unicode="j" horiz-adv-x="380" 
d="M129 1389h123v-193h-123v193zM-115 -344q63 -49 165 -49q54 0 66.5 42t12.5 111v1223h123v-1264q0 -127 -58.5 -177t-153.5 -50t-155 35v129z" />
    <glyph glyph-name="k" unicode="k" horiz-adv-x="985" 
d="M129 1458h123v-993l536 518h156l-399 -387l438 -596h-149l-377 512l-205 -199v-313h-123v1458z" />
    <glyph glyph-name="l" unicode="l" horiz-adv-x="380" 
d="M129 1458h123v-1458h-123v1458z" />
    <glyph glyph-name="m" unicode="m" horiz-adv-x="1556" 
d="M1417 649v-649h-123v635q0 121 -21.5 165t-59 68.5t-105.5 24.5q-127 0 -197.5 -98.5t-70.5 -247.5v-547h-123v618q0 124 -23.5 175t-61.5 75.5t-104 24.5q-115 0 -190.5 -94t-75.5 -258v-541h-123v983h123v-158h4q33 78 100.5 130.5t175.5 52.5t185.5 -52.5t93.5 -162.5
h4q84 215 308 215q186 0 231 -95.5t49 -157t4 -106.5z" />
    <glyph glyph-name="n" unicode="n" 
d="M129 983h123v-143h4q47 92 127 130t168 38q172 0 258 -92t86 -250v-666h-123v629q0 150 -61.5 207t-178.5 57q-188 0 -234 -119t-46 -201v-573h-123v983z" />
    <glyph glyph-name="o" unicode="o" 
d="M190 492q0 -183 89.5 -292.5t232.5 -109.5t232.5 109.5t89.5 292.5t-91 292t-231 109t-231 -109t-91 -292zM512 1008q190 0 317 -135t127 -381t-127 -381.5t-317 -135.5t-317 135.5t-127 381.5t127 381t317 135z" />
    <glyph glyph-name="p" unicode="p" 
d="M539 893q-293 1 -293 -401t291 -402q133 0 215 107.5t82 294t-82 294t-213 107.5zM252 139v-647h-123v1491h123v-147h4q29 72 106.5 122t169.5 50q183 0 303.5 -131t120.5 -391t-117.5 -385.5t-285.5 -125.5q-229 0 -297 164h-4z" />
    <glyph glyph-name="q" unicode="q" 
d="M487 90q291 0 291 402q0 272 -100 336.5t-193 64.5q-131 0 -213 -107.5t-82 -294t82 -294t215 -107.5zM68 492q0 254 120.5 385t290.5 131q104 0 182 -50.5t107 -121.5h4v147h123v-1491h-123v660h-4q-77 -177 -297 -177q-271 0 -337 189.5t-66 327.5z" />
    <glyph glyph-name="r" unicode="r" horiz-adv-x="606" 
d="M541 1008q42 0 88 -4v-107q-39 8 -82 8q-143 0 -210 -94t-67 -246v-565h-123v983h123v-137h4q51 78 110.5 120t156.5 42z" />
    <glyph glyph-name="s" unicode="s" horiz-adv-x="909" 
d="M694 285q0 68 -43 102.5t-107.5 53t-140 30.5t-140 39t-107.5 77.5t-43 126.5q0 138 90.5 216t240.5 78t245 -49.5t130 -174.5l-117 -28q-33 92 -91 120.5t-136 28.5q-139 0 -189 -44.5t-50 -117.5t43 -104t107.5 -49.5t247.5 -52.5t183 -263q0 -130 -102.5 -214.5
t-289.5 -84.5q-186 0 -262.5 89.5t-111.5 171.5l119 36q41 -106 104.5 -150t171.5 -44t154.5 30.5t70 69.5t23.5 107z" />
    <glyph glyph-name="t" unicode="t" horiz-adv-x="569" 
d="M404 -25q-186 0 -187 175v731h-201v102h201v420h123v-420h213v-102h-213v-650q0 -71 12 -106t57 -35q46 0 76.5 14.5t61.5 34.5v-123q-91 -41 -143 -41z" />
    <glyph glyph-name="u" unicode="u" 
d="M772 143h-4q-47 -92 -127 -130t-166 -38q-182 0 -264 95.5t-82 246.5v666h123v-629q0 -150 61.5 -207t178.5 -57q187 0 233.5 118t46.5 202v573h123v-983h-123v143z" />
    <glyph glyph-name="v" unicode="v" horiz-adv-x="833" 
d="M4 983h121l268 -788h4l305 788h127l-391 -983h-96z" />
    <glyph glyph-name="w" unicode="w" horiz-adv-x="1366" 
d="M-2 983h127l258 -772h4l246 772h100l246 -772h4l258 772h127l-336 -983h-102l-246 793h-4l-244 -793h-102z" />
    <glyph glyph-name="x" unicode="x" horiz-adv-x="872" 
d="M371 516l-324 467h137l256 -371l260 371h138l-328 -467l354 -516h-135l-289 420l-295 -420h-137z" />
    <glyph glyph-name="y" unicode="y" horiz-adv-x="872" 
d="M143 -508q-54 0 -135 37v127q29 -16 60.5 -32.5t62.5 -16.5q85 0 127 133l100 258l-338 985h115l285 -827h4l324 827h116l-485 -1247q-43 -116 -75 -157.5t-69.5 -64t-91.5 -22.5z" />
    <glyph glyph-name="z" unicode="z" horiz-adv-x="757" 
d="M66 881v102h663v-68l-547 -813h555v-102h-717v84l537 797h-491z" />
    <glyph glyph-name="braceleft" unicode="{" horiz-adv-x="681" 
d="M317 963v342q0 167 63.5 213.5t117.5 46.5h102v-103h-78q-51 0 -66.5 -51t-15.5 -156v-327q0 -162 -53 -239t-94 -97v-4q71 -35 109 -136.5t38 -199.5v-328q0 -104 15.5 -155.5t66.5 -51.5h78v-102h-102q-93 0 -137 77.5t-44 182.5v342q0 130 -16 190t-46 97t-85 35v102
q147 -6 147 322z" />
    <glyph glyph-name="bar" unicode="|" horiz-adv-x="454" 
d="M176 1610h103v-2048h-103v2048z" />
    <glyph glyph-name="braceright" unicode="}" horiz-adv-x="681" 
d="M365 963q0 -328 147 -322v-102q-95 3 -121 -94.5t-26 -227.5v-342q0 -168 -64.5 -214t-116.5 -46h-102v102h78q51 0 66.5 51.5t15.5 155.5v328q0 161 53 238t94 98v4q-72 35 -109.5 136t-37.5 200v327q0 104 -15.5 155.5t-66.5 51.5h-78v103h102q93 0 137 -77.5
t44 -182.5v-342z" />
    <glyph glyph-name="asciitilde" unicode="~" horiz-adv-x="1228" 
d="M826 397q-54 0 -104 21.5t-101.5 48.5t-106.5 48.5t-125 21.5t-107.5 -43t-66.5 -105l-74 74q57 117 129 146.5t125 29.5t116.5 -21.5t123 -48t110.5 -48t85 -21.5q58 0 100 41.5t84 105.5l73 -74q-63 -88 -99 -117.5t-72 -44t-90 -14.5z" />
    <glyph glyph-name="exclamdown" unicode="&#xa1;" horiz-adv-x="569" 
d="M207 1008h155v-238h-155v238zM354 -451h-139v785l18 328h103l18 -328v-785z" />
    <glyph glyph-name="cent" unicode="&#xa2;" horiz-adv-x="1138" 
d="M635 -246h-103v226q-166 16 -275.5 158t-113.5 354q4 211 105.5 349t283.5 163v225h103v-221q177 -8 253.5 -92.5t106.5 -151.5l-125 -25q-33 72 -95 111t-140 43v-803q80 12 137 56t86 104l125 -31q-98 -221 -348 -244v-221zM343.5 218.5q77.5 -104.5 188.5 -126.5v797
q-111 -21 -188.5 -125.5t-77.5 -272.5t77.5 -272.5z" />
    <glyph glyph-name="sterling" unicode="&#xa3;" horiz-adv-x="1138" 
d="M1110 369q0 -394 -280 -394q-82 0 -163 37t-151 74q-28 -41 -104 -76t-137 -35q-120 0 -183 39t-63 129q0 107 80.5 128.5t115.5 21.5q119 0 240 -53q35 61 34 137q-1 75 -21.5 115t-51.5 88h-283v114h189q-41 41 -141.5 144t-100.5 267q0 206 149.5 292t331.5 86
q181 0 317 -106.5t136 -303.5l-139 -22q0 141 -94.5 223t-233.5 82q-228 0 -278 -95.5t-50 -160.5t32 -120.5t77 -106t94 -94.5t82 -85h313v-114h-243q55 -95 55 -193t-61 -190q20 -10 193.5 -101t186.5 50t13 192v45zM233 190q-31 0 -56 -10t-25 -45q0 -57 88 -57
q118 0 166 65q-82 47 -173 47z" />
    <glyph glyph-name="currency" unicode="&#xa4;" horiz-adv-x="1138" 
d="M164 717q0 -84 31.5 -158t87 -129t129 -87t157.5 -32t158 32t129 87t87 129t32 158t-32 157.5t-87 129t-129 87t-158 31.5t-157.5 -31.5t-129 -87t-87 -129t-31.5 -157.5zM61 718q0 177 113 316l-113 113l78 78l115 -113q141 113 315 113t318 -111l112 111l78 -78
l-108 -119q108 -134 108 -308.5t-108 -318.5l108 -114l-78 -78l-108 119q-138 -119 -324 -119t-319 119l-109 -119l-78 78l111 116q-111 138 -111 315z" />
    <glyph glyph-name="yen" unicode="&#xa5;" horiz-adv-x="1138" 
d="M500 330h-334v102h334v166l-19 33h-315v102h258l-410 725h158l397 -717l404 717h151l-409 -725h258v-102h-316l-18 -33v-166h334v-102h-334v-330h-139v330z" />
    <glyph glyph-name="brokenbar" unicode="&#xa6;" horiz-adv-x="454" 
d="M176 1354h103v-512h-103v512zM176 330h103v-512h-103v512z" />
    <glyph glyph-name="section" unicode="&#xa7;" horiz-adv-x="1138" 
d="M877 655q0 51 -39 89t-86 61l-281 129q-134 -78 -169.5 -140.5t-35.5 -102.5q0 -67 48.5 -107t150.5 -86l227 -103q121 66 153 137.5t32 122.5zM825 96q0 51 -48 95.5t-165 97.5l-262 119q-120 55 -171.5 116.5t-51.5 164.5t68 187t172 117q-74 47 -111 96.5t-37 122.5
q0 131 98 207t218 76q228 0 403 -170l-92 -92q-72 61 -138.5 98t-174.5 37t-141.5 -51t-33.5 -88q0 -106 97 -150l372 -174q86 -41 137.5 -100.5t51.5 -159.5t-59.5 -188t-163.5 -121q172 -82 172 -233q0 -152 -114 -238t-267 -86q-199 0 -309.5 72.5t-168.5 117.5l99 97
q179 -160 354 -160t220.5 69.5t45.5 120.5z" />
    <glyph glyph-name="dieresis" unicode="&#xa8;" horiz-adv-x="378" 
d="M297 1372h123v-209h-123v209zM-41 1372h123v-209h-123v209z" />
    <glyph glyph-name="copyright" unicode="&#xa9;" horiz-adv-x="1638" 
d="M465 412.5q-96 103.5 -96 319.5t127 353.5t357 137.5t304 -124t84 -202h-115q-20 92 -94 157.5t-174 65.5q-181 0 -273.5 -112.5t-92.5 -274.5t97.5 -279.5t256.5 -117.5q115 0 188.5 67.5t91.5 165.5h115q-32 -150 -140.5 -243t-272.5 -93q-92 0 -179.5 38t-183.5 141.5
zM1462 728q0 138 -49 260t-135 211t-204 141.5t-254 52.5t-253.5 -52.5t-205 -141.5t-136.5 -211t-49 -260t49 -259t135 -211t204 -141t255 -51t255 51t204 141t135 211t49 259zM820 -37q-159 0 -298 60.5t-243.5 165t-165 243.5t-60.5 298t60.5 298t165 242.5t244 164
t297.5 60.5t297.5 -60.5t243 -165t164 -243.5t60.5 -297t-60.5 -297t-164 -243.5t-242.5 -165t-298 -60.5z" />
    <glyph glyph-name="ordfeminine" unicode="&#xaa;" horiz-adv-x="641" 
d="M225 864q-80 0 -124 28t-61 57.5t-17 74.5q0 85 60.5 124.5t168.5 65.5l190 48v41q0 49 -28 75.5t-131 26.5q-147 0 -154 -125l-90 14q39 188 248 189q156 0 200.5 -57t44.5 -128v-288q0 -51 23 -59.5t63 -8.5v-78q-88 0 -125 18t-44 93h-5q-70 -111 -219 -111z
M113 1005.5q0 -63.5 120 -63.5q77 0 143 48t66 106v88l-225 -60q-43 -10 -73.5 -32.5t-30.5 -86z" />
    <glyph glyph-name="guillemotleft" unicode="&#xab;" horiz-adv-x="720" 
d="M580 922l98 -66l-211 -317l211 -318l-98 -65l-250 383zM293 922l98 -66l-211 -317l211 -318l-98 -65l-250 383z" />
    <glyph glyph-name="logicalnot" unicode="&#xac;" horiz-adv-x="1228" 
d="M1030 666h-934v102h1037v-547h-103v445z" />
    <glyph glyph-name="minus" unicode="&#xad;" horiz-adv-x="1228" 
d="M96 467v102h1037v-102h-1037z" />
    <glyph glyph-name="registered" unicode="&#xae;" horiz-adv-x="1638" 
d="M1462 728q0 138 -49 260t-135 211t-204 141.5t-254 52.5t-253.5 -52.5t-205 -141.5t-136.5 -211t-49 -260t49 -259t135 -211t204 -141t255 -51t255 51t204 141t135 211t49 259zM820 -37q-159 0 -298 60.5t-243.5 165t-165 243.5t-60.5 298t60.5 298t165 242.5t244 164
t297.5 60.5t297.5 -60.5t243 -165t164 -243.5t60.5 -297t-60.5 -297t-164 -243.5t-242.5 -165t-298 -60.5zM643 770h211q105 0 157 35t52 130t-60.5 134t-148.5 39h-211v-338zM643 264h-102v934h338q198 0 242 -96t44 -162q0 -111 -57 -180.5t-164 -79.5l262 -416h-127
l-248 416h-188v-416z" />
    <glyph glyph-name="macron" unicode="&#xaf;" horiz-adv-x="378" 
d="M-74 1223v90h527v-90h-527z" />
    <glyph glyph-name="degree" unicode="&#xb0;" horiz-adv-x="819" 
d="M195 1190q0 -45 16 -84t46 -68.5t69 -46t84 -16.5t83.5 16.5t67.5 46t46.5 68.5t17.5 84t-17.5 84t-46.5 67.5t-67.5 46t-83.5 17.5t-84 -17.5t-69 -46t-46 -67.5t-16 -84zM117 1189.5q0 61.5 22.5 115t62.5 93.5t93 62.5t114.5 22.5t115 -22.5t93 -62.5t62 -93.5
t22.5 -115t-22.5 -114.5t-62 -93t-93 -62.5t-115 -22.5t-114.5 22.5t-93 62.5t-62.5 93t-22.5 114.5z" />
    <glyph glyph-name="plusminus" unicode="&#xb1;" horiz-adv-x="1228" 
d="M96 102h1037v-102h-1037v102zM563 1036h103v-374h467v-103h-467v-375h-103v375h-467v103h467v374z" />
    <glyph glyph-name="twosuperior" unicode="&#xb2;" horiz-adv-x="739" 
d="M166 1220q0 -87 57 -151l-127 10q-33 72 -33 143q0 128 92.5 194.5t219.5 66.5q201 0 259 -99.5t58 -186.5t-70.5 -196t-257.5 -234l-135 -83h430v-90h-591v90q35 23 86 55.5t243.5 161t192.5 298.5q0 93 -58.5 143.5t-151.5 50.5t-153.5 -43t-60.5 -130z" />
    <glyph glyph-name="threesuperior" unicode="&#xb3;" horiz-adv-x="739" 
d="M59 1245q67 238 301 238q170 0 242 -72t72 -156t-50.5 -139t-148.5 -59v-4q123 0 170 -70t47 -140q0 -131 -89 -197t-229 -66t-229.5 67.5t-103.5 198.5l102 26q0 -202 234 -202q141 0 177 61t36 111q0 102 -68.5 132t-145.5 30h-68q-68 0 -91 -3v95q20 -2 25 -2h94
q111 0 173 38.5t62 104.5q0 156 -196 156q-102 0 -152.5 -39t-60.5 -131z" />
    <glyph glyph-name="acute" unicode="&#xb4;" horiz-adv-x="378" 
d="M291 1427h158l-281 -284h-105z" />
    <glyph glyph-name="mu" unicode="&#xb5;" 
d="M475 -25q-126 0 -223 91v-574h-123v1491h123v-629q0 -150 61.5 -207t178.5 -57q187 0 233.5 118t46.5 202v573h123v-983h-123v156h-4q-47 -102 -127 -141.5t-166 -39.5z" />
    <glyph glyph-name="paragraph" unicode="&#xb6;" horiz-adv-x="1228" 
d="M559 668q-171 0 -297.5 112.5t-126.5 287.5t117 282.5t340 107.5h444v-1642h-102v1552h-272v-1552h-103v852z" />
    <glyph glyph-name="periodcentered" unicode="&#xb7;" horiz-adv-x="569" 
d="M174 641q0 47 32 79t79 32t78.5 -32t31.5 -79t-31.5 -79t-78.5 -32t-79 32t-32 79z" />
    <glyph glyph-name="periodcentered" unicode="&#x2219;" horiz-adv-x="569" 
d="M174 641q0 47 32 79t79 32t78.5 -32t31.5 -79t-31.5 -79t-78.5 -32t-79 32t-32 79z" />
    <glyph glyph-name="cedilla" unicode="&#xb8;" horiz-adv-x="378" 
d="M304.5 -337q39.5 25 39.5 63q0 98 -110 98q-42 0 -87 -21l-30 27l123 170h77l-94 -119l4 -4q24 12 60 12q73 0 122.5 -35t49.5 -112q0 -103 -81 -136.5t-156 -33.5t-177 41l31 61q69 -36 129 -36t99.5 25z" />
    <glyph glyph-name="onesuperior" unicode="&#xb9;" horiz-adv-x="739" 
d="M184 1335q178 0 178 133h101v-874h-103v688q-66 -37 -176 -37v90z" />
    <glyph glyph-name="ordmasculine" unicode="&#xba;" horiz-adv-x="665" 
d="M135 1171q0 -43 10.5 -83.5t34 -73.5t60 -52.5t92 -19.5t93.5 19.5t61.5 52.5t33.5 73.5t10 83.5t-10 85t-33.5 75t-61.5 53.5t-93.5 20.5t-92 -20.5t-60 -53.5t-34 -75t-10.5 -85zM546 1393.5q75 -89.5 75 -217.5q4 -133 -71 -222.5t-216 -89.5t-215 88.5t-74 219.5
q0 132 75 221.5t213 89.5t213 -89.5z" />
    <glyph glyph-name="guillemotright" unicode="&#xbb;" horiz-adv-x="720" 
d="M254 539l-211 317l98 66l250 -383l-250 -383l-98 65zM541 539l-211 317l98 66l250 -383l-250 -383l-98 65z" />
    <glyph glyph-name="onequarter" unicode="&#xbc;" horiz-adv-x="1708" 
d="M184 1335q178 0 178 133h101v-874h-103v688q-66 -37 -176 -37v90zM287 -37l903 1532h113l-906 -1532h-110zM1307 299v436h-4l-306 -436h310zM1409 874v-575h127v-90h-127v-209h-102v209h-422v78l413 587h111z" />
    <glyph glyph-name="onehalf" unicode="&#xbd;" horiz-adv-x="1708" 
d="M1012 624q0 -89 57 -149l-127 10q-33 72 -33 143q0 128 92.5 194.5t219.5 66.5q199 0 258 -99.5t59 -186.5t-71 -197t-258 -233l-134 -83h430v-90h-592v90q33 23 85.5 55.5t245 162t192.5 297.5q0 93 -58.5 143.5t-151.5 50.5t-153.5 -43t-60.5 -132zM184 1335
q178 0 178 133h101v-874h-103v688q-66 -37 -176 -37v90zM225 -37l903 1532h113l-905 -1532h-111z" />
    <glyph glyph-name="threequarters" unicode="&#xbe;" horiz-adv-x="1708" 
d="M565 1237q-1 156 -195 156t-216 -170l-103 22q35 127 115 182.5t219 55.5t211 -72t72 -156t-50.5 -139t-148.5 -59v-4q123 0 170 -70t47 -140q0 -129 -90 -196t-229 -67t-229.5 67.5t-104.5 198.5l102 26q0 -117 71 -159.5t140 -42.5q114 0 176 42.5t62 110.5
q0 115 -90 158q-49 25 -125 25h-68q-68 0 -90 -2v94q20 -2 25 -2h94q111 0 173 39t62 102zM410 -37l903 1532h112l-905 -1532h-110zM1395 299v436h-4l-306 -436h310zM1497 874v-575h127v-90h-127v-209h-102v209h-422v78l413 587h111z" />
    <glyph glyph-name="questiondown" unicode="&#xbf;" horiz-adv-x="985" 
d="M606 1008v-238h-155v238h155zM590 651v-123q0 -112 -67.5 -180.5t-182.5 -165.5t-115 -268q0 -123 79 -198.5t195 -75.5t196.5 75t80.5 172t-21.5 149t-33.5 83l153 -45q25 -73 25 -162q0 -168 -96 -283.5t-292 -115.5t-310.5 109.5t-114.5 291.5q0 220 154 351
t190.5 191t36.5 126v69h123z" />
    <glyph glyph-name="Agrave" unicode="&#xc0;" horiz-adv-x="1251" 
d="M903 553l-270 719l-279 -719h549zM696 1458l566 -1458h-150l-164 438h-641l-174 -438h-143l594 1458h112zM367 1831h157l228 -285h-105z" />
    <glyph glyph-name="Aacute" unicode="&#xc1;" horiz-adv-x="1251" 
d="M903 553l-270 719l-279 -719h549zM696 1458l566 -1458h-150l-164 438h-641l-174 -438h-143l594 1458h112zM727 1831h158l-281 -285h-104z" />
    <glyph glyph-name="Acircumflex" unicode="&#xc2;" horiz-adv-x="1251" 
d="M903 553l-270 719l-279 -719h549zM696 1458l566 -1458h-150l-164 438h-641l-174 -438h-143l594 1458h112zM455 1546h-129l229 285h137l234 -285h-133l-168 209z" />
    <glyph glyph-name="Atilde" unicode="&#xc3;" horiz-adv-x="1251" 
d="M903 553l-270 719l-279 -719h549zM696 1458l566 -1458h-150l-164 438h-641l-174 -438h-143l594 1458h112zM494 1769q45 -1 113 -31q67 -30 102 -43t75 -13t56 26q16 27 28 70h78q-15 -133 -99 -182q-30 -17 -82 -17t-142 47q-100 41 -144 41q-45 0 -67 -32t-31 -66h-76
q8 63 32 103q58 97 157 97z" />
    <glyph glyph-name="Adieresis" unicode="&#xc4;" horiz-adv-x="1251" 
d="M903 553l-270 719l-279 -719h549zM696 1458l566 -1458h-150l-164 438h-641l-174 -438h-143l594 1458h112zM733 1776h123v-209h-123v209zM395 1776h123v-209h-123v209z" />
    <glyph glyph-name="Aring" unicode="&#xc5;" horiz-adv-x="1251" 
d="M903 553l-270 719l-279 -719h549zM696 1458l566 -1458h-150l-164 438h-641l-174 -438h-143l594 1458h112zM436 1704q0 84 58 143t145 59q86 0 145 -58q60 -60 60 -145t-60 -143q-60 -59 -145 -60t-144 59q-59 61 -59 145zM502 1703q0 -58 40 -98t97 -40t98 40t41 98
t-41 98t-98 40t-97 -40t-40 -98z" />
    <glyph glyph-name="AE" unicode="&#xc6;" horiz-adv-x="2048" 
d="M1927 1458v-127h-842v-516h758v-127h-758v-561h879v-127h-1018v422h-553l-262 -422h-162l936 1458h1022zM946 549v745h-4l-463 -745h467z" />
    <glyph glyph-name="Ccedilla" unicode="&#xc7;" horiz-adv-x="1327" 
d="M695 -176q-30 0 -72 -21l-31 27l96 135q-267 4 -432.5 193t-165.5 573t174.5 574t437.5 190q221 0 358.5 -88t221.5 -289l-139 -69q-49 162 -144 240.5t-282 78.5q-239 0 -363.5 -173t-124.5 -466q0 -489 200 -564t310 -75q172 0 266.5 83t143.5 226l133 -71
q-72 -184 -204 -269.5t-314 -93.5l-66 -84l4 -4q24 12 60 12q73 0 122.5 -35t49.5 -112q0 -103 -81 -136.5t-156 -33.5t-177 41l31 61q69 -36 113 -36q75 0 115 24.5t40 63.5t-11 55t-27.5 25.5t-36 13.5t-49.5 4z" />
    <glyph glyph-name="Egrave" unicode="&#xc8;" horiz-adv-x="1214" 
d="M133 1458h954v-127h-815v-516h736v-127h-736v-561h858v-127h-997v1458zM348 1831h158l227 -285h-104z" />
    <glyph glyph-name="Eacute" unicode="&#xc9;" horiz-adv-x="1214" 
d="M133 1458h954v-127h-815v-516h736v-127h-736v-561h858v-127h-997v1458zM709 1831h157l-280 -285h-105z" />
    <glyph glyph-name="Ecircumflex" unicode="&#xca;" horiz-adv-x="1214" 
d="M133 1458h954v-127h-815v-516h736v-127h-736v-561h858v-127h-997v1458zM436 1546h-129l230 285h137l233 -285h-133l-168 209z" />
    <glyph glyph-name="Edieresis" unicode="&#xcb;" horiz-adv-x="1214" 
d="M133 1458h954v-127h-815v-516h736v-127h-736v-561h858v-127h-997v1458zM715 1776h123v-209h-123v209zM377 1776h123v-209h-123v209z" />
    <glyph glyph-name="Igrave" unicode="&#xcc;" horiz-adv-x="454" 
d="M158 1458h139v-1458h-139v1458zM-31 1831h158l227 -285h-104z" />
    <glyph glyph-name="Iacute" unicode="&#xcd;" horiz-adv-x="454" 
d="M158 1458h139v-1458h-139v1458zM330 1831h157l-280 -285h-105z" />
    <glyph glyph-name="Icircumflex" unicode="&#xce;" horiz-adv-x="454" 
d="M158 1458h139v-1458h-139v1458zM57 1546h-129l230 285h137l233 -285h-133l-168 209z" />
    <glyph glyph-name="Idieresis" unicode="&#xcf;" horiz-adv-x="454" 
d="M158 1458h139v-1458h-139v1458zM336 1776h123v-209h-123v209zM-2 1776h123v-209h-123v209z" />
    <glyph glyph-name="Eth" unicode="&#xd0;" horiz-adv-x="1402" 
d="M164 1458h598q189 0 339.5 -133.5t181 -324t30.5 -286.5t-30 -224t-101.5 -236.5t-189.5 -181t-294 -72.5h-534v754h-113v90h113v614zM303 844h414v-90h-414v-627h445q210 0 318 184.5t108 417.5t-107.5 417.5t-318.5 184.5h-445v-487z" />
    <glyph glyph-name="Ntilde" unicode="&#xd1;" horiz-adv-x="1441" 
d="M164 1458h137l834 -1225h4v1225h139v-1458h-137l-834 1225h-4v-1225h-139v1458zM591 1769q44 -1 112 -31q67 -30 102 -43t75 -13t56 26q16 27 29 70h77q-15 -133 -99 -182q-30 -17 -81 -17t-143 47q-100 41 -144 41q-45 0 -67 -32t-31 -66h-76q8 63 32 103q58 97 158 97z
" />
    <glyph glyph-name="Ograve" unicode="&#xd2;" horiz-adv-x="1441" 
d="M345 1162q-116 -176 -116 -433t116 -433q59 -90 153 -148t223 -58q239 0 376 206q117 178 116 435t-116 431q-59 90 -153 148t-223 58q-239 0 -376 -206zM90 729q0 316 154 527q174 241 478 240t476 -240q154 -213 154 -528t-154 -526q-174 -239 -478 -239
q-162 0 -280 66q-231 128 -312 417q-38 138 -38 283zM463 1831h158l227 -285h-105z" />
    <glyph glyph-name="Oacute" unicode="&#xd3;" horiz-adv-x="1441" 
d="M345 1162q-116 -176 -116 -433t116 -433q59 -90 153 -148t223 -58q239 0 376 206q117 178 116 435t-116 431q-59 90 -153 148t-223 58q-239 0 -376 -206zM90 729q0 316 154 527q174 241 478 240t476 -240q154 -213 154 -528t-154 -526q-174 -239 -478 -239
q-162 0 -280 66q-231 128 -312 417q-38 138 -38 283zM823 1831h158l-281 -285h-104z" />
    <glyph glyph-name="Ocircumflex" unicode="&#xd4;" horiz-adv-x="1441" 
d="M345 1162q-116 -176 -116 -433t116 -433q59 -90 153 -148t223 -58q239 0 376 206q117 178 116 435t-116 431q-59 90 -153 148t-223 58q-239 0 -376 -206zM90 729q0 316 154 527q174 241 478 240t476 -240q154 -213 154 -528t-154 -526q-174 -239 -478 -239
q-162 0 -280 66q-231 128 -312 417q-38 138 -38 283zM551 1546h-129l229 285h137l234 -285h-133l-168 209z" />
    <glyph glyph-name="Otilde" unicode="&#xd5;" horiz-adv-x="1441" 
d="M345 1162q-116 -176 -116 -433t116 -433q59 -90 153 -148t223 -58q239 0 376 206q117 178 116 435t-116 431q-59 90 -153 148t-223 58q-239 0 -376 -206zM90 729q0 316 154 527q174 241 478 240t476 -240q154 -213 154 -528t-154 -526q-174 -239 -478 -239
q-162 0 -280 66q-231 128 -312 417q-38 138 -38 283zM591 1769q44 -1 112 -31q67 -30 102 -43t75 -13t56 26q16 27 29 70h77q-15 -133 -99 -182q-30 -17 -81 -17t-143 47q-100 41 -144 41q-45 0 -67 -32t-31 -66h-76q8 63 32 103q58 97 158 97z" />
    <glyph glyph-name="Odieresis" unicode="&#xd6;" horiz-adv-x="1441" 
d="M345 1162q-116 -176 -116 -433t116 -433q59 -90 153 -148t223 -58q239 0 376 206q117 178 116 435t-116 431q-59 90 -153 148t-223 58q-239 0 -376 -206zM90 729q0 316 154 527q174 241 478 240t476 -240q154 -213 154 -528t-154 -526q-174 -239 -478 -239
q-162 0 -280 66q-231 128 -312 417q-38 138 -38 283zM829 1776h123v-209h-123v209zM492 1776h122v-209h-122v209z" />
    <glyph glyph-name="multiply" unicode="&#xd7;" horiz-adv-x="1228" 
d="M614 594l390 387l73 -74l-391 -389l391 -389l-73 -74l-390 391l-389 -391l-73 74l391 389l-391 389l73 74z" />
    <glyph glyph-name="Oslash" unicode="&#xd8;" horiz-adv-x="1441" 
d="M233 221q-143 201 -143 512t163.5 536.5t467.5 225.5q261 0 424 -176l125 151l82 -67l-140 -168q140 -202 140 -512t-163.5 -535t-467.5 -225q-257 0 -420 172l-123 -147l-84 65zM1086 280q126 190 126 433q0 244 -94 409l-729 -882q126 -150 332 -150q239 0 365 190z
M721 1368q-239 0 -365.5 -190.5t-126.5 -432.5t97 -413l731 882q-130 154 -336 154z" />
    <glyph glyph-name="Ugrave" unicode="&#xd9;" horiz-adv-x="1363" 
d="M1219 473q-1 -245 -145 -378q-144 -132 -391 -132t-392 132q-146 132 -146 378v985h140v-981q0 -199 116 -300q98 -85 281 -87q276 0 366 207q32 74 31 180v981h140v-985zM424 1831h158l227 -285h-104z" />
    <glyph glyph-name="Uacute" unicode="&#xda;" horiz-adv-x="1363" 
d="M1219 473q-1 -245 -145 -378q-144 -132 -391 -132t-392 132q-146 132 -146 378v985h140v-981q0 -199 116 -300q98 -85 281 -87q276 0 366 207q32 74 31 180v981h140v-985zM784 1831h158l-280 -285h-105z" />
    <glyph glyph-name="Ucircumflex" unicode="&#xdb;" horiz-adv-x="1363" 
d="M1219 473q-1 -245 -145 -378q-144 -132 -391 -132t-392 132q-146 132 -146 378v985h140v-981q0 -199 116 -300q98 -85 281 -87q276 0 366 207q32 74 31 180v981h140v-985zM512 1546h-129l229 285h138l233 -285h-133l-168 209z" />
    <glyph glyph-name="Udieresis" unicode="&#xdc;" horiz-adv-x="1363" 
d="M1219 473q-1 -245 -145 -378q-144 -132 -391 -132t-392 132q-146 132 -146 378v985h140v-981q0 -199 116 -300q98 -85 281 -87q276 0 366 207q32 74 31 180v981h140v-985zM791 1776h122v-209h-122v209zM453 1776h122v-209h-122v209z" />
    <glyph glyph-name="Yacute" unicode="&#xdd;" horiz-adv-x="1249" 
d="M694 0h-139v608l-549 850h168l455 -721l454 721h160l-549 -850v-608zM727 1831h158l-281 -285h-104z" />
    <glyph glyph-name="Thorn" unicode="&#xde;" horiz-adv-x="1290" 
d="M303 557h561q95 0 176.5 70t81.5 188t-30.5 171.5t-77.5 83.5t-129 30h-582v-543zM164 1458h139v-231h606q166 0 259.5 -115.5t93.5 -294.5t-118 -283t-267 -104h-574v-430h-139v1458z" />
    <glyph glyph-name="germandbls" unicode="&#xdf;" horiz-adv-x="950" 
d="M901 375q0 -176 -85 -294t-251 -118q-51 0 -112.5 18.5t-102.5 43.5v141q53 -35 104.5 -61.5t115.5 -26.5q112 0 160 94t48 217q0 199 -110.5 288t-294.5 89h-51v115h40q223 0 275.5 90t52.5 182t-54 159.5t-164 67.5t-176.5 -69.5t-66.5 -220.5v-1090h-123v1077
q0 195 89.5 306.5t267.5 111.5t264 -94t86 -231q0 -138 -52 -212.5t-175 -115.5v-4q315 -62 315 -463z" />
    <glyph glyph-name="agrave" unicode="&#xe0;" horiz-adv-x="985" 
d="M721 725q0 180 -246 180q-123 0 -181 -59t-63 -178l-139 24q61 315 387 316q235 0 319 -118q34 -48 40 -100t6 -90v-481q0 -88 39 -113q24 -16 102 -16v-102q-134 0 -173 18q-40 18 -59 53t-24 101h-4q-105 -185 -344 -185q-129 0 -222 67t-91 194q0 201 225 275
q63 22 127 38l301 78v98zM190 238q0 -107 131 -140q35 -8 75 -8q110 0 204 70q121 88 121 248v112l-354 -98q-73 -20 -125 -60t-52 -124zM233 1427h158l227 -284h-104z" />
    <glyph glyph-name="aacute" unicode="&#xe1;" horiz-adv-x="985" 
d="M721 725q0 180 -246 180q-123 0 -181 -59t-63 -178l-139 24q61 315 387 316q235 0 319 -118q34 -48 40 -100t6 -90v-481q0 -88 39 -113q24 -16 102 -16v-102q-134 0 -173 18q-40 18 -59 53t-24 101h-4q-105 -185 -344 -185q-129 0 -222 67t-91 194q0 201 225 275
q63 22 127 38l301 78v98zM190 238q0 -107 131 -140q35 -8 75 -8q110 0 204 70q121 88 121 248v112l-354 -98q-73 -20 -125 -60t-52 -124zM594 1427h158l-281 -284h-104z" />
    <glyph glyph-name="acircumflex" unicode="&#xe2;" horiz-adv-x="985" 
d="M721 725q0 180 -246 180q-123 0 -181 -59t-63 -178l-139 24q61 315 387 316q235 0 319 -118q34 -48 40 -100t6 -90v-481q0 -88 39 -113q24 -16 102 -16v-102q-134 0 -173 18q-40 18 -59 53t-24 101h-4q-105 -185 -344 -185q-129 0 -222 67t-91 194q0 201 225 275
q63 22 127 38l301 78v98zM190 238q0 -107 131 -140q35 -8 75 -8q110 0 204 70q121 88 121 248v112l-354 -98q-73 -20 -125 -60t-52 -124zM322 1143h-129l229 284h137l234 -284h-134l-167 209z" />
    <glyph glyph-name="atilde" unicode="&#xe3;" horiz-adv-x="985" 
d="M721 725q0 180 -246 180q-123 0 -181 -59t-63 -178l-139 24q61 315 387 316q235 0 319 -118q34 -48 40 -100t6 -90v-481q0 -88 39 -113q24 -16 102 -16v-102q-134 0 -173 18q-40 18 -59 53t-24 101h-4q-105 -185 -344 -185q-129 0 -222 67t-91 194q0 201 225 275
q63 22 127 38l301 78v98zM190 238q0 -107 131 -140q35 -8 75 -8q110 0 204 70q121 88 121 248v112l-354 -98q-73 -20 -125 -60t-52 -124zM362 1366q45 0 112 -30q68 -30 102 -44t74 -14t57 27q16 27 28 69h78q-15 -132 -99 -181q-30 -17 -82 -17t-143 47q-97 40 -142 40
q-45 1 -67 -31t-32 -67h-76q8 63 32 104q59 97 158 97z" />
    <glyph glyph-name="adieresis" unicode="&#xe4;" horiz-adv-x="985" 
d="M721 725q0 180 -246 180q-123 0 -181 -59t-63 -178l-139 24q61 315 387 316q235 0 319 -118q34 -48 40 -100t6 -90v-481q0 -88 39 -113q24 -16 102 -16v-102q-134 0 -173 18q-40 18 -59 53t-24 101h-4q-105 -185 -344 -185q-129 0 -222 67t-91 194q0 201 225 275
q63 22 127 38l301 78v98zM190 238q0 -107 131 -140q35 -8 75 -8q110 0 204 70q121 88 121 248v112l-354 -98q-73 -20 -125 -60t-52 -124zM600 1372h123v-209h-123v209zM262 1372h123v-209h-123v209z" />
    <glyph glyph-name="aring" unicode="&#xe5;" horiz-adv-x="985" 
d="M721 725q0 180 -246 180q-123 0 -181 -59t-63 -178l-139 24q61 315 387 316q235 0 319 -118q34 -48 40 -100t6 -90v-481q0 -88 39 -113q24 -16 102 -16v-102q-134 0 -173 18q-40 18 -59 53t-24 101h-4q-105 -185 -344 -185q-129 0 -222 67t-91 194q0 201 225 275
q63 22 127 38l301 78v98zM190 238q0 -107 131 -140q35 -8 75 -8q110 0 204 70q121 88 121 248v112l-354 -98q-73 -20 -125 -60t-52 -124zM637 1464q59 -60 59 -144q0 -85 -59 -144q-59 -58 -144 -59t-145 59t-59 144q0 85 58 144q59 60 145 60t145 -60zM492 1458
q-58 0 -98 -40t-40 -98t40 -98t98 -40t98 40q41 40 41 98t-41 98t-98 40z" />
    <glyph glyph-name="ae" unicode="&#xe6;" horiz-adv-x="1669" 
d="M838 850q120 158 341 158q204 0 317 -141t122 -371h-756v-27q0 -267 117 -323t225 -56q204 0 299 209l115 -31q-55 -137 -167 -215t-254 -78t-249.5 56.5t-154.5 167.5q-133 -224 -412 -224q-129 0 -221 67t-92 194q0 196 144 245t208 68l319 78v98q0 102 -68.5 141
t-192.5 39t-183 -59.5t-64 -177.5l-139 24q61 315 387 316q119 0 209 -31t150 -127zM961 809.5q-82 -83.5 -99 -211.5h617q-26 136 -90 215.5t-205 79.5t-223 -83.5zM739 410v110l-372 -98q-74 -20 -125.5 -60t-51.5 -119t58 -116t125 -37q146 0 256 83.5t110 236.5z" />
    <glyph glyph-name="ccedilla" unicode="&#xe7;" horiz-adv-x="948" 
d="M492 -176q-30 0 -72 -21l-31 27l107 147q-178 4 -301 146t-127 369q4 237 133.5 376.5t324.5 139.5t278 -85t116 -159l-125 -25q-69 154 -271 154q-136 0 -235 -106t-99 -294t96 -295.5t226 -107.5q98 0 168 46t102 114l125 -31q-92 -214 -334 -239l-77 -99l4 -4
q24 12 60 12q72 0 121.5 -35t49.5 -106t-55.5 -123.5t-175.5 -52.5q-81 0 -183 41l31 61q70 -36 114 -36q75 0 114.5 24.5t39.5 63.5t-11 55t-27.5 25.5t-36 13.5t-49.5 4z" />
    <glyph glyph-name="egrave" unicode="&#xe8;" 
d="M207 496v-27q0 -178 76 -271q84 -108 226 -108t215 55t118 154l114 -31q-55 -137 -168 -215t-290 -78t-305 138q-127 138 -126 381t127 379q126 135 326 135t315 -142q114 -142 121 -370h-749zM517 893q-129 0 -211 -83t-99 -212h610q-39 206 -175 270q-54 26 -125 25z
M254 1427h158l227 -284h-104z" />
    <glyph glyph-name="eacute" unicode="&#xe9;" 
d="M207 496v-27q0 -178 76 -271q84 -108 226 -108t215 55t118 154l114 -31q-55 -137 -168 -215t-290 -78t-305 138q-127 138 -126 381t127 379q126 135 326 135t315 -142q114 -142 121 -370h-749zM517 893q-129 0 -211 -83t-99 -212h610q-39 206 -175 270q-54 26 -125 25z
M614 1427h158l-280 -284h-105z" />
    <glyph glyph-name="ecircumflex" unicode="&#xea;" 
d="M207 496v-27q0 -178 76 -271q84 -108 226 -108t215 55t118 154l114 -31q-55 -137 -168 -215t-290 -78t-305 138q-127 138 -126 381t127 379q126 135 326 135t315 -142q114 -142 121 -370h-749zM517 893q-129 0 -211 -83t-99 -212h610q-39 206 -175 270q-54 26 -125 25z
M342 1143h-129l229 284h138l233 -284h-133l-168 209z" />
    <glyph glyph-name="edieresis" unicode="&#xeb;" 
d="M207 496v-27q0 -178 76 -271q84 -108 226 -108t215 55t118 154l114 -31q-55 -137 -168 -215t-290 -78t-305 138q-127 138 -126 381t127 379q126 135 326 135t315 -142q114 -142 121 -370h-749zM517 893q-129 0 -211 -83t-99 -212h610q-39 206 -175 270q-54 26 -125 25z
M621 1372h122v-209h-122v209zM283 1372h123v-209h-123v209z" />
    <glyph glyph-name="igrave" unicode="&#xec;" horiz-adv-x="380" 
d="M129 983h123v-983h-123v983zM-68 1427h158l227 -284h-104z" />
    <glyph glyph-name="iacute" unicode="&#xed;" horiz-adv-x="380" 
d="M129 983h123v-983h-123v983zM293 1427h158l-281 -284h-104z" />
    <glyph glyph-name="icircumflex" unicode="&#xee;" horiz-adv-x="380" 
d="M129 983h123v-983h-123v983zM20 1143h-129l230 284h137l234 -284h-134l-168 209z" />
    <glyph glyph-name="idieresis" unicode="&#xef;" horiz-adv-x="380" 
d="M129 983h123v-983h-123v983zM299 1372h123v-209h-123v209zM-39 1372h123v-209h-123v209z" />
    <glyph glyph-name="eth" unicode="&#xf0;" 
d="M834 539q0 154 -87.5 254t-234.5 100q-225 0 -273.5 -147.5t-48.5 -301.5t87.5 -254t234.5 -100q225 0 273.5 147.5t48.5 301.5zM956 519q0 -263 -116.5 -403.5t-317.5 -140.5t-327.5 135.5t-126.5 381.5t127 381t317 135q86 0 137 -29t103 -72h4q-108 184 -334 373
l-174 -119l-60 58l166 110q-18 15 -123 90l76 76q68 -40 146 -98l165 110l60 -53l-162 -111q209 -173 324.5 -367t115.5 -457z" />
    <glyph glyph-name="ntilde" unicode="&#xf1;" 
d="M129 983h123v-143h4q47 92 127 130t168 38q174 0 258 -91t86 -251v-666h-123v629q0 150 -61 207t-179 57q-186 0 -257 -177q-24 -60 -23 -143v-573h-123v983zM671 1278q40 0 56 27t29 69h78q-15 -131 -100 -181q-30 -17 -81 -17t-143 47q-97 40 -142 40q-71 1 -100 -98
h-75q8 63 31 104q58 97 158 97q44 0 112 -30q67 -30 102 -44t75 -14z" />
    <glyph glyph-name="ograve" unicode="&#xf2;" 
d="M512 893q-139 0 -230 -109q-92 -109 -92 -292q0 -184 90 -293t232 -109q141 0 232 109q90 109 90 293t-92 292q-91 109 -230 109zM194 873q126 135 317 135t319 -137t127 -382q-1 -244 -131 -381q-123 -133 -314 -133t-314 133q-130 141 -130 385q0 245 126 380z
M254 1427h158l227 -284h-104z" />
    <glyph glyph-name="oacute" unicode="&#xf3;" 
d="M512 893q-139 0 -230 -109q-92 -109 -92 -292q0 -184 90 -293t232 -109q141 0 232 109q90 109 90 293t-92 292q-91 109 -230 109zM194 873q126 135 317 135t319 -137t127 -382q-1 -244 -131 -381q-123 -133 -314 -133t-314 133q-130 141 -130 385q0 245 126 380z
M614 1427h158l-280 -284h-105z" />
    <glyph glyph-name="ocircumflex" unicode="&#xf4;" 
d="M512 893q-139 0 -230 -109q-92 -109 -92 -292q0 -184 90 -293t232 -109q141 0 232 109q90 109 90 293t-92 292q-91 109 -230 109zM194 873q126 135 317 135t319 -137t127 -382q-1 -244 -131 -381q-123 -133 -314 -133t-314 133q-130 141 -130 385q0 245 126 380z
M342 1143h-129l229 284h138l233 -284h-133l-168 209z" />
    <glyph glyph-name="otilde" unicode="&#xf5;" 
d="M512 893q-139 0 -230 -109q-92 -109 -92 -292q0 -184 90 -293t232 -109q141 0 232 109q90 109 90 293t-92 292q-91 109 -230 109zM194 873q126 135 317 135t319 -137t127 -382q-1 -244 -131 -381q-123 -133 -314 -133t-314 133q-130 141 -130 385q0 245 126 380z
M671 1278q40 0 56 27t29 69h78q-15 -131 -100 -181q-30 -17 -81 -17t-143 47q-97 40 -142 40q-71 1 -100 -98h-75q8 63 31 104q58 97 158 97q44 0 112 -30q67 -30 102 -44t75 -14z" />
    <glyph glyph-name="odieresis" unicode="&#xf6;" 
d="M512 893q-139 0 -230 -109q-92 -109 -92 -292q0 -184 90 -293t232 -109q141 0 232 109q90 109 90 293t-92 292q-91 109 -230 109zM194 873q126 135 317 135t319 -137t127 -382q-1 -244 -131 -381q-123 -133 -314 -133t-314 133q-130 141 -130 385q0 245 126 380z
M621 1372h122v-209h-122v209zM283 1372h123v-209h-123v209z" />
    <glyph glyph-name="divide" unicode="&#xf7;" horiz-adv-x="1228" 
d="M500 94q0 47 33.5 81t81 34t81 -34t33.5 -79t-33.5 -80.5t-79.5 -35.5t-81 33.5t-35 80.5zM500 942q0 47 33.5 81t81 34t81 -34t33.5 -79t-33.5 -81t-79.5 -36t-81 34t-35 81zM96 467v102h1037v-102h-1037z" />
    <glyph glyph-name="oslash" unicode="&#xf8;" 
d="M231 80q-163 131 -163 394t127 398.5t317 135.5q124 0 221 -56l51 90l66 -41l-55 -94q161 -144 161 -403t-127 -394t-317 -135q-123 0 -219 60l-51 -90l-68 37zM499 90q156 0 245.5 109.5t89.5 299.5t-103 298l-379 -660q66 -47 147 -47zM523 893q-151 0 -242 -109
t-91 -294t103 -304l379 660q-70 47 -149 47z" />
    <glyph glyph-name="ugrave" unicode="&#xf9;" 
d="M772 143h-4q-47 -92 -127 -130t-166 -38q-182 -1 -264 95t-82 247v666h123v-629q0 -150 61 -207t179 -57q185 0 257 176q24 59 23 144v573h123v-983h-123v143zM254 1427h158l227 -284h-104z" />
    <glyph glyph-name="uacute" unicode="&#xfa;" 
d="M772 143h-4q-47 -92 -127 -130t-166 -38q-182 -1 -264 95t-82 247v666h123v-629q0 -150 61 -207t179 -57q185 0 257 176q24 59 23 144v573h123v-983h-123v143zM614 1427h158l-280 -284h-105z" />
    <glyph glyph-name="ucircumflex" unicode="&#xfb;" 
d="M772 143h-4q-47 -92 -127 -130t-166 -38q-182 -1 -264 95t-82 247v666h123v-629q0 -150 61 -207t179 -57q185 0 257 176q24 59 23 144v573h123v-983h-123v143zM342 1143h-129l229 284h138l233 -284h-133l-168 209z" />
    <glyph glyph-name="udieresis" unicode="&#xfc;" 
d="M772 143h-4q-47 -92 -127 -130t-166 -38q-182 -1 -264 95t-82 247v666h123v-629q0 -150 61 -207t179 -57q185 0 257 176q24 59 23 144v573h123v-983h-123v143zM621 1372h122v-209h-122v209zM283 1372h123v-209h-123v209z" />
    <glyph glyph-name="yacute" unicode="&#xfd;" horiz-adv-x="872" 
d="M132 -393q82 0 126 133l100 258l-338 985h115l285 -827h4l324 827h116l-485 -1247q-16 -43 -35 -86q-66 -158 -204 -158q-56 0 -132 37v127q29 -16 61 -32q33 -16 63 -17zM539 1427h157l-280 -284h-105z" />
    <glyph glyph-name="thorn" unicode="&#xfe;" 
d="M246 491.5q0 -401.5 282 -401.5q139 0 222.5 107.5t83.5 294t-83 294t-223 107.5q-282 0 -282 -401.5zM129 1458h123v-635h4q29 80 106.5 132.5t171.5 52.5q187 0 304.5 -140.5t117.5 -387.5t-130 -376t-300 -129q-78 0 -156.5 42t-113.5 135h-4v-660h-123v1966z" />
    <glyph glyph-name="ydieresis" unicode="&#xff;" horiz-adv-x="872" 
d="M132 -393q82 0 126 133l100 258l-338 985h115l285 -827h4l324 827h116l-485 -1247q-16 -43 -35 -86q-66 -158 -204 -158q-56 0 -132 37v127q29 -16 61 -32q33 -16 63 -17zM545 1372h123v-209h-123v209zM207 1372h123v-209h-123v209z" />
    <glyph glyph-name="OE" unicode="&#x152;" horiz-adv-x="2162" 
d="M1102 0q-179 -37 -277 -37q-345 0 -540 206.5t-195 558.5t137.5 504t270.5 207.5t281 55.5t337 -37h948v-127h-854v-516h770v-127h-770v-561h901v-127h-1009zM800 1368q-114 0 -228.5 -46t-190.5 -130t-114 -202t-38 -337t155.5 -391t453.5 -172q122 0 233 33v1212
q-157 33 -271 33z" />
    <glyph glyph-name="oe" unicode="&#x153;" horiz-adv-x="1820" 
d="M520.5 893q-67.5 0 -128 -25.5t-104.5 -77t-71 -126t-27 -173t27 -173t71 -126t104.5 -77t128 -25.5t128 25.5t104.5 77t70.5 126t26.5 173t-26.5 173t-70.5 126t-104.5 77t-128 25.5zM897 205q-99 -230 -403 -230q-74 0 -155 34t-176 135.5t-95 347.5t127 381t317 135
q125 0 222 -50.5t163 -179.5q61 109 165.5 169.5t221.5 60.5q218 0 331 -141t122 -371h-764v-27q0 -267 116.5 -323t198.5 -56q139 0 214 55.5t120 153.5l115 -31q-55 -137 -167 -215t-272 -78q-294 0 -401 230zM1071 810q-81 -83 -98 -212h624q-25 133 -91.5 214t-210.5 81
q-143 0 -224 -83z" />
    <glyph glyph-name="Scaron" unicode="&#x160;" horiz-adv-x="1251" 
d="M221 438q15 -344 410 -348q171 0 285 82t114 223q0 195 -275 272q-79 21 -160 43q-211 56 -285 111q-150 111 -150 298q0 186 155 290q130 86 313 86t318 -72t199 -254l-129 -69q-46 144 -150 206t-236 62t-231 -66q-100 -66 -100 -178q0 -198 275 -268q79 -20 160 -40
t160 -48q166 -57 238 -184q38 -70 37 -174q0 -217 -141 -332t-397 -115q-352 0 -481 216q-47 77 -68 188zM793 1831h133l-234 -285h-137l-229 285h131l168 -209z" />
    <glyph glyph-name="scaron" unicode="&#x161;" horiz-adv-x="909" 
d="M113 714q0 203 191 271q62 23 176 23t209 -50t130 -174l-117 -28q-33 92 -91 121t-136 29q-196 -1 -229 -104q-10 -32 -10 -82q0 -88 150 -130q64 -18 140 -32q174 -33 248 -130q43 -55 43 -135q0 -223 -218 -294q-71 -24 -145 -24q-144 0 -242 56t-161 205l119 36
q41 -106 104 -150t172 -44t155 31t70 69q23 39 23 107q0 69 -43 103q-65 52 -243 81t-252 119q-43 50 -43 126zM623 1427h133l-234 -284h-137l-229 284h131l168 -208z" />
    <glyph glyph-name="Ydieresis" unicode="&#x178;" horiz-adv-x="1249" 
d="M694 0h-139v608l-549 850h168l455 -721l454 721h160l-549 -850v-608zM733 1776h123v-209h-123v209zM395 1776h123v-209h-123v209z" />
    <glyph glyph-name="florin" unicode="&#x192;" horiz-adv-x="1138" 
d="M271 -393q51 0 83.5 42t38.5 101l94 830h-231l12 102h230l59 483q21 154 53.5 208t78 82t99.5 28t87.5 -8.5t68.5 -16.5l-12 -108l-29 8q-41 10 -81 10q-73 0 -102.5 -46.5t-39.5 -135.5l-62 -504h234l-8 -102h-240l-88 -770q-4 -35 -11 -89.5t-49 -141.5t-186 -87
q-63 0 -123 16l-10 5l15 114q68 -20 119 -20z" />
    <glyph glyph-name="circumflex" unicode="&#x2c6;" horiz-adv-x="378" 
d="M18 1143h-129l230 284h137l233 -284h-133l-168 209z" />
    <glyph glyph-name="tilde" unicode="&#x2dc;" horiz-adv-x="378" 
d="M344 1278q43 0 59.5 26.5t28.5 69.5h78q-15 -132 -72 -165t-109 -33t-143 47q-100 41 -144 41t-65.5 -32t-31.5 -67h-76q14 114 73 157.5t107 43.5t150 -44t145 -44z" />
    <glyph glyph-name="endash" unicode="&#x2013;" 
d="M0 596h1024v-115h-1024v115z" />
    <glyph glyph-name="emdash" unicode="&#x2014;" horiz-adv-x="2048" 
d="M266 596h1516v-115h-1516v115z" />
    <glyph glyph-name="quoteleft" unicode="&#x2018;" horiz-adv-x="569" 
d="M352 897h-155v221q0 106 31.5 196.5t74.5 143.5l70 -51q-93 -108 -88 -272h67v-238z" />
    <glyph glyph-name="quoteright" unicode="&#x2019;" horiz-adv-x="569" 
d="M217 1458h156v-221q0 -178 -107 -340l-69 51q93 108 88 273h-68v237z" />
    <glyph glyph-name="quotesinglbase" unicode="&#x201a;" horiz-adv-x="569" 
d="M217 238h156v-222q0 -106 -32 -196t-75 -144l-69 52q93 108 88 272h-68v238z" />
    <glyph glyph-name="quotedblleft" unicode="&#x201c;" horiz-adv-x="645" 
d="M516 897h-156v221q0 106 32 196.5t75 143.5l70 -51q-95 -110 -88 -272h67v-238zM264 897h-155v221q0 106 31.5 196.5t74.5 143.5l70 -51q-93 -108 -88 -272h67v-238z" />
    <glyph glyph-name="quotedblright" unicode="&#x201d;" horiz-adv-x="645" 
d="M129 1458h156v-221q0 -178 -107 -340l-69 51q93 108 88 273h-68v237zM381 1458h156v-221q0 -178 -107 -340l-70 51q94 109 89 273h-68v237z" />
    <glyph glyph-name="quotedblbase" unicode="&#x201e;" horiz-adv-x="645" 
d="M129 238h156v-222q0 -106 -32 -196t-75 -144l-69 52q93 108 88 272h-68v238zM381 238h156v-222q0 -106 -32 -196t-75 -144l-70 52q94 109 89 272h-68v238z" />
    <glyph glyph-name="dagger" unicode="&#x2020;" horiz-adv-x="1134" 
d="M506 1458h123v-491h354v-115h-354v-1036h-123v1036h-354v115h354v491z" />
    <glyph glyph-name="daggerdbl" unicode="&#x2021;" horiz-adv-x="1134" 
d="M506 1458h123v-450h354v-115h-354v-498h354v-114h-354v-465h-123v465h-354v114h354v498h-354v115h354v450z" />
    <glyph glyph-name="bullet" unicode="&#x2022;" 
d="M147 729q0 76 29 142.5t78 115.5t115.5 78t142.5 29t142.5 -29t115.5 -78t78 -115.5t29 -142.5t-29 -142.5t-78 -115.5t-115.5 -77.5t-142.5 -28.5t-142.5 28.5t-115.5 77.5t-78 115.5t-29 142.5z" />
    <glyph glyph-name="ellipsis" unicode="&#x2026;" horiz-adv-x="2048" 
d="M1784 0h-156v238h156v-238zM1102 0h-156v238h156v-238zM420 0h-156v238h156v-238z" />
    <glyph glyph-name="perthousand" unicode="&#x2030;" horiz-adv-x="2048" 
d="M334 -76l-80 43l803 1549l84 -37zM1702 78q45 0 73.5 27.5t44 67.5t21.5 86t6 83t-6 83t-21.5 86t-44 67.5t-73.5 27.5t-72.5 -27.5t-44 -67.5t-23 -86t-6.5 -83t6.5 -83t23 -86t44 -67.5t72.5 -27.5zM1703 -25q-134 0 -191.5 112t-57.5 255q0 236 87 301.5t162 65.5
q134 0 190.5 -110t56.5 -257q0 -238 -86 -302.5t-161 -64.5zM1087.5 78q45.5 0 74 27.5t44 67.5t21.5 86t6 83t-6 83t-21.5 86t-44 67.5t-74 27.5t-73 -27.5t-44 -67.5t-22.5 -86t-6 -83t6 -83t22.5 -86t44 -67.5t73 -27.5zM1088 -25q-132 0 -190 110.5t-58 256.5
q0 236 87 301.5t161 65.5q134 0 190.5 -109t56.5 -258q0 -239 -86 -303t-161 -64zM346 852q45 0 74 27.5t44 67.5t21.5 86t6.5 83t-6.5 83t-21.5 86t-44 67.5t-74 27.5t-72.5 -27.5t-44 -67.5t-22.5 -86t-6 -83t6 -83t22.5 -86t44 -67.5t72.5 -27.5zM347 750
q-135 0 -192 111.5t-57 254.5q0 236 87 301.5t162 65.5q134 0 190.5 -109t56.5 -258q0 -239 -86 -302.5t-161 -63.5z" />
    <glyph glyph-name="guilsinglleft" unicode="&#x2039;" horiz-adv-x="569" 
d="M459 856l-211 -317l211 -318l-99 -65l-249 383l249 383z" />
    <glyph glyph-name="guilsinglright" unicode="&#x203a;" horiz-adv-x="569" 
d="M209 922l250 -383l-250 -383l-98 65l211 318l-211 317z" />
    <glyph glyph-name="trademark" unicode="&#x2122;" horiz-adv-x="2027" 
d="M1737 1368h-4l-306 -754h-61l-305 754h-4v-754h-103v844h174l273 -684l264 684h174v-844h-102v754zM424 1368h-277v90h656v-90h-277v-754h-102v754z" />
    </font>
</defs>
</svg>
