<?xml version="1.0" standalone="no"?>
<!DOCTYPE svg PUBLIC "-//W3C//DTD SVG 1.1//EN" "http://www.w3.org/Graphics/SVG/1.1/DTD/svg11.dtd" >
<svg xmlns="http://www.w3.org/2000/svg">
<metadata>
Created by FontPrep 20130207 at Mon Jan  5 11:37:28 2015
 By Wendell P. Barreto
Copyright (c) 1990, 2002 Adobe Systems Incorporated.  All Rights Reserved. Copyright (c) 1990, 2002 The Monotype Corporation plc
</metadata>
<defs>
<font id="9677faedf7e318f12f2794348f9fe846" horiz-adv-x='1024' >
  <font-face 
    font-family="Rockwell Std ExtraBold"
    font-weight="800"
    font-stretch="normal"
    units-per-em="2048"
    panose-1="2 6 10 7 5 4 5 2 1 4"
    ascent="1391"
    descent="-657"
    x-height="971"
    cap-height="1391"
    bbox="-418 -449 2596 1968"
    underline-thickness="102"
    underline-position="-102"
    unicode-range="U+0020-FB02"
  />
<missing-glyph horiz-adv-x="1024" 
d="M102 1239v-1044l349 522zM164 102h696l-348 523zM573 717l349 -522v1044zM512 809l348 522h-696zM0 0v1434h1024v-1434h-1024z" />
    <glyph glyph-name="f_i" unicode="fi" horiz-adv-x="1622" 
d="M51 0v305h127v361h-127v305h127q-12 240 150 344t475 104q537 0 635 -272l-490 -55q-8 44 -45 72t-101 28q-135 0 -120 -221h770v-666h115v-305h-699v305h80v361h-266v-361h80v-305h-711z" />
    <glyph glyph-name="f_l" unicode="fl" horiz-adv-x="1622" 
d="M1452 1391v-1086h115v-305h-699v305h80v780q-8 47 -44 77t-100 30t-96 -49t-26 -172h131v-305h-131v-361h80v-305h-711v305h127v361h-127v305h127q-19 450 608 448q133 0 293 -28h373z" />
    <glyph glyph-name=".notdef" horiz-adv-x="1024" 
d="M102 1239v-1044l349 522zM164 102h696l-348 523zM573 717l349 -522v1044zM512 809l348 522h-696zM0 0v1434h1024v-1434h-1024z" />
    <glyph glyph-name=".null" horiz-adv-x="0" 
 />
    <glyph glyph-name="nonmarkingreturn" horiz-adv-x="681" 
 />
    <glyph glyph-name="space" unicode=" " horiz-adv-x="681" 
 />
    <glyph glyph-name="exclam" unicode="!" horiz-adv-x="811" 
d="M164 1391h481v-392l-72 -440h-337l-72 432v400zM156 0v365h497v-365h-497z" />
    <glyph glyph-name="quotedbl" unicode="&#x22;" horiz-adv-x="1024" 
d="M49 1391h406v-242l-64 -297h-278l-64 297v242zM569 1391h406v-242l-64 -297h-278l-64 297v242z" />
    <glyph glyph-name="numbersign" unicode="#" horiz-adv-x="1368" 
d="M528 586h267l45 217h-267zM66 309v277h186l45 217h-231v276h288l74 351h277l-74 -351h266l74 351h276l-73 -351h129v-276h-187l-45 -217h232v-277h-289l-74 -350h-276l73 350h-266l-74 -350h-276l74 350h-129z" />
    <glyph glyph-name="dollar" unicode="$" horiz-adv-x="1280" 
d="M358 1059q0 -53 47 -87t168 -65v287q-215 -10 -215 -135zM918 324q0 123 -211 178v-332q211 6 211 154zM84 979q0 174 131 288t358 124v96h134v-96q233 -10 366 -120t123 -286h-313q-4 86 -44 131t-132 66v-316q283 -78 399 -192t115 -278q0 -164 -130 -288t-384 -126
v-152h-134v158q-258 18 -389 133t-125 287h330q-4 -82 43 -142t141 -84v357q-489 129 -489 440z" />
    <glyph glyph-name="percent" unicode="%" horiz-adv-x="1984" 
d="M633 0h-219l938 1391h219zM416 844q43 0 58 40t15 154t-13 153q-13 38 -57 38q-43 0 -61 -43t-18 -153q0 -109 16 -149t60 -40zM416 653q-162 1 -264 107t-103 276q1 170 103 276t264 107q162 0 263 -106q101 -107 101 -277t-101 -276t-263 -107zM1571 162q43 0 58 40
t15 154t-12 153q-14 38 -58 38t-62 -43t-17 -153q1 -109 17 -149t59 -40zM1571 -29q-162 1 -264 107t-103 276q0 170 102 276t265 107q162 0 263 -106q101 -107 101 -277t-101 -276t-263 -107z" />
    <glyph glyph-name="ampersand" unicode="&#x26;" horiz-adv-x="1792" 
d="M506 442q0 -88 56 -148t142 -60t179 79l-250 318q-127 -55 -127 -189zM1716 334v-334h-588l-84 106q-188 -135 -446 -135t-393 111t-135 309q0 164 116 292q117 128 316 179q-59 113 -60 219q0 180 136 259t401 79q98 0 160 -6v-289h-25q-131 0 -131 -96q0 -45 76 -141
l143 -180q98 139 164 305h350v-334h-153q-45 -121 -154 -225l94 -119h213z" />
    <glyph glyph-name="quotesingle" unicode="'" horiz-adv-x="569" 
d="M82 1391h405v-242l-63 -297h-279l-63 297v242z" />
    <glyph glyph-name="parenleft" unicode="(" horiz-adv-x="937" 
d="M92 487q0 332 204 590t570 342v-254q-139 -59 -195 -225q-57 -166 -57 -455t52 -449t200 -229v-253q-202 47 -356 147q-273 177 -374 500q-44 139 -44 286z" />
    <glyph glyph-name="parenright" unicode=")" horiz-adv-x="937" 
d="M846 506q0 -313 -176 -575q-88 -130 -243 -230t-355 -147v253q147 68 199 229q53 162 53 450t-57 454q-56 166 -195 225v254q366 -84 570 -342t204 -571z" />
    <glyph glyph-name="asterisk" unicode="*" horiz-adv-x="1280" 
d="M392 831q-78 0 -152 -24l-170 57l92 295l170 -53q53 -66 107 -108t157 -97q-31 180 -117 311v179h324v-179q-98 -145 -117 -311q199 113 258 205l172 53l94 -295l-168 -57q-100 27 -185 27t-140 -19q139 -141 276 -184l103 -142l-252 -184l-105 141q6 145 -96 316
q-86 -164 -92 -316l-109 -141l-252 184l103 142q67 25 147 78t129 106q-99 16 -177 16z" />
    <glyph glyph-name="plus" unicode="+" horiz-adv-x="1368" 
d="M111 856h411v412h324v-412h411v-324h-411v-411h-324v411h-411v324z" />
    <glyph glyph-name="comma" unicode="," horiz-adv-x="811" 
d="M156 -207q110 0 150 44t38 163h-188v365h497v-445q0 -158 -106 -243t-297 -85q-61 1 -94 5v196z" />
    <glyph glyph-name="hyphen" unicode="-" horiz-adv-x="917" 
d="M102 268v432h713v-432h-713z" />
    <glyph glyph-name="period" unicode="." horiz-adv-x="811" 
d="M156 0v365h497v-365h-497z" />
    <glyph glyph-name="slash" unicode="/" horiz-adv-x="575" 
d="M291 1391h284l-290 -1391h-285z" />
    <glyph glyph-name="zero" unicode="0" horiz-adv-x="1409" 
d="M704 276q84 0 114 98t30 328t-33 326t-113 96t-112 -103q-33 -103 -31 -325t32 -320q30 -100 113 -100zM104 694q0 326 168 526t428 200t432 -194q171 -192 171 -526q1 -178 -51 -319t-138 -226q-175 -173 -419 -173q-243 0 -417 193t-174 519z" />
    <glyph glyph-name="one" unicode="1" horiz-adv-x="1409" 
d="M311 0v317h199v639q-96 -25 -199 -12v307q143 -4 258 44t174 124h209v-1102h191v-317h-832z" />
    <glyph glyph-name="two" unicode="2" horiz-adv-x="1409" 
d="M131 0v33q0 322 215 536q54 57 202 168t181 142q78 78 78 146t-39 104q-40 36 -110 36t-106 -46t-44 -142l-356 10q4 239 163 336q159 98 389 97q230 -2 385 -114t154 -294q0 -144 -99 -244t-304 -204t-256 -156q-51 -51 -66 -91h440l5 119h286l-12 -436h-1106z" />
    <glyph glyph-name="three" unicode="3" horiz-adv-x="1409" 
d="M829 434q0 168 -227 178v226q102 20 148 58q45 38 45 104t-41 106q-41 39 -107 39q-143 0 -155 -158l-375 21q14 203 158 307q143 104 405 104t408 -105t147 -288q0 -100 -56 -175t-159 -110v-4q124 -27 194 -113t70 -212q0 -199 -163 -315q-163 -115 -451 -115t-432 131
t-146 354l361 27q12 -217 206 -218q80 0 125 42t45 116z" />
    <glyph glyph-name="four" unicode="4" horiz-adv-x="1409" 
d="M729 705v387l-375 -387h375zM561 0v283h168v174h-586l-77 291l649 671h430v-714h143v-248h-143v-174h143v-283h-727z" />
    <glyph glyph-name="five" unicode="5" horiz-adv-x="1409" 
d="M629 276q92 0 143 50t51 135q0 86 -49 134q-48 48 -148 48t-177 -82l-302 107l41 723h1024v-365h-233l-33 84h-495l-15 -272q141 86 320 86q234 0 378 -126t144 -331t-153 -345t-419 -140t-426 104t-198 289l362 22q47 -121 185 -121z" />
    <glyph glyph-name="six" unicode="6" horiz-adv-x="1409" 
d="M739 262q143 0 144 178q0 94 -42 144t-119 48q-77 0 -167 -57q0 -313 184 -313zM782 1155q-110 0 -164 -83t-55 -234v-13q125 88 303 88t306 -127q126 -128 126 -330t-154 -338t-408 -136q-252 0 -434 184q-181 184 -181 532t170 534q170 187 477 187q213 0 347 -89
t173 -257l-348 -31q-48 113 -158 113z" />
    <glyph glyph-name="seven" unicode="7" horiz-adv-x="1409" 
d="M264 0v317h180q68 207 192 426t263 367h-496v-192h-276v473h1114v-267q-141 -215 -239 -445t-115 -362h182v-317h-805z" />
    <glyph glyph-name="eight" unicode="8" horiz-adv-x="1409" 
d="M709 604q-83 0 -137 -51t-54 -131t52 -128t136 -48t135 49q50 49 50 131t-49 130t-133 48zM541 998q0 -68 45 -108t121 -40q75 0 117 40t42 110t-43 113q-43 42 -115 42t-120 -44q-47 -44 -47 -113zM137 1022q0 182 151 290q152 108 412 108t415 -105q155 -104 155 -283
q0 -209 -213 -299q139 -59 196 -135t57 -176t-26 -168q-27 -68 -90 -132t-190 -103q-127 -38 -306 -37q-305 0 -452 114t-148 301q0 215 252 336q-213 80 -213 289z" />
    <glyph glyph-name="nine" unicode="9" horiz-adv-x="1409" 
d="M687 768q77 0 167 57q0 313 -184 314q-143 0 -144 -178q0 -93 42 -143t119 -50zM846 563v12q-126 -88 -304 -88t-304 127t-127 330q0 203 154 339q155 136 407 136t434 -184q182 -183 182 -531t-170 -535t-477 -187q-213 0 -347 89t-173 257l348 30q47 -113 168 -112
q100 0 155 83q54 83 54 234z" />
    <glyph glyph-name="colon" unicode=":" horiz-adv-x="811" 
d="M156 0v365h497v-365h-497zM156 606v365h497v-365h-497z" />
    <glyph glyph-name="semicolon" unicode=";" horiz-adv-x="811" 
d="M156 606v365h497v-365h-497zM156 -207q110 0 150 44t38 163h-188v365h497v-445q0 -158 -106 -243t-297 -85q-61 1 -94 5v196z" />
    <glyph glyph-name="less" unicode="&#x3c;" horiz-adv-x="1366" 
d="M109 840l1148 475v-350l-702 -273l702 -272v-350l-1148 475v295z" />
    <glyph glyph-name="equal" unicode="=" horiz-adv-x="1366" 
d="M109 610h1148v-323h-1148v323zM109 1102h1148v-324h-1148v324z" />
    <glyph glyph-name="greater" unicode="&#x3e;" horiz-adv-x="1366" 
d="M1257 840v-295l-1148 -475v350l702 272l-702 273v350z" />
    <glyph glyph-name="question" unicode="?" horiz-adv-x="1300" 
d="M365 0v365h497v-365h-497zM600 836q76 0 132 49t56 128t-47 126t-124 47t-119 -43t-41 -121h-404q6 184 160 291q153 107 433 107t442 -108t161 -288q0 -180 -139 -289t-344 -102l-21 -90h-262l-24 301h12q53 -8 129 -8z" />
    <glyph glyph-name="at" unicode="@" horiz-adv-x="1515" 
d="M502 375q0 -101 36 -159t97 -58t115 54t90 206q35 152 34 295q0 186 -131 186q-111 -1 -176 -157t-65 -367zM1068 168q68 0 176 108q52 54 88 156t36 230q0 262 -150 416t-407 153q-295 0 -479 -203t-184 -522q0 -318 178 -510t465 -192t524 186h225q-120 -154 -322 -254
t-417 -101q-352 0 -589 248t-237 619q0 248 116 476q61 122 155 214t240 150t326 58t322 -62t229 -166q177 -213 177 -510q0 -162 -58 -295t-146 -209q-182 -158 -335 -158q-121 0 -155 119q-121 -119 -253 -119t-222 119t-90 292q0 360 204 562q100 98 224 98q74 0 127 -34
t108 -113l19 112h194l-125 -790q-8 -38 -1 -58t37 -20z" />
    <glyph glyph-name="A" unicode="A" horiz-adv-x="1556" 
d="M573 653h248l-116 385h-5zM23 0v334h104l262 723h-113v334h1002v-334h-113l267 -723h102v-334h-727v305h121l-54 174h-356l-59 -174h114v-305h-550z" />
    <glyph glyph-name="B" unicode="B" horiz-adv-x="1748" 
d="M1063 958q0 129 -180 127h-133v-254h127q100 0 143 30t43 97zM750 305h120q115 0 164 31t49 104q0 139 -188 140h-145v-275zM90 0v334h121v723h-121v334h987q287 -1 413 -103t126 -258q0 -106 -68 -182t-186 -103v-4q137 -33 221 -129t84 -235t-134 -258t-486 -119h-957z
" />
    <glyph glyph-name="C" unicode="C" horiz-adv-x="1642" 
d="M883 -23q-181 -1 -321 47t-225 122t-140 171q-95 169 -97 379q0 313 194 518t490 205q242 0 396 -121v93h333v-508h-346q-31 98 -93 150t-144 52q-225 0 -225 -387q0 -203 57 -299t176 -96q203 0 258 311l360 -129q-119 -508 -673 -508z" />
    <glyph glyph-name="D" unicode="D" horiz-adv-x="1792" 
d="M727 334h80q143 0 209 89t66 279t-64 272q-63 83 -211 83h-80v-723zM80 0v334h108v725h-108v332h665q203 1 329 -19t239 -78q170 -86 261 -252t91 -353t-85 -352t-228 -237q-178 -89 -374 -97q-75 -3 -233 -3h-665z" />
    <glyph glyph-name="E" unicode="E" 
d="M92 0v334h109v723h-109v334h1327v-445h-364v111h-316v-213h275v-283h-275v-227h316v110h364v-444h-1327z" />
    <glyph glyph-name="F" unicode="F" horiz-adv-x="1449" 
d="M53 0v334h148v723h-152v334h1370v-459h-364v125h-316v-217h238v-283h-238v-223h160v-334h-846z" />
    <glyph glyph-name="G" unicode="G" horiz-adv-x="1728" 
d="M1001 479v264h623v-104q0 -315 -196 -488t-504 -174q-201 1 -355 53q-153 52 -239 130t-141 180q-87 164 -89 356q0 315 208 519t528 204q256 0 403 -125v97h334v-486h-334q-98 180 -281 180q-145 0 -199 -97t-54 -302t59 -294t192 -89q90 0 140 46q49 46 49 130h-144z
" />
    <glyph glyph-name="H" unicode="H" horiz-adv-x="1792" 
d="M90 0v334h107v723h-107v334h733v-334h-88v-213h322v213h-88v334h733v-334h-107v-723h107v-334h-733v334h88v227h-322v-227h88v-334h-733z" />
    <glyph glyph-name="I" unicode="I" horiz-adv-x="937" 
d="M72 0v334h129v723h-129v334h796v-334h-129v-723h129v-334h-796z" />
    <glyph glyph-name="J" unicode="J" horiz-adv-x="917" 
d="M100 -96q61 0 80 41q18 41 19 168v944h-127v334h784v-334h-119v-934q1 -181 -25 -279t-97 -169t-153 -97q-149 -46 -421 -8v342q33 -8 59 -8z" />
    <glyph glyph-name="K" unicode="K" horiz-adv-x="1748" 
d="M993 0v334h66l-305 395l354 328h-115v334h686v-334h-108l-283 -262l354 -461h70v-334h-719zM92 0v334h107v723h-107v334h756v-334h-111v-723h111v-334h-756z" />
    <glyph glyph-name="L" unicode="L" horiz-adv-x="1429" 
d="M72 0v334h125v723h-125v334h794v-334h-131v-723h328v223h334v-557h-1325z" />
    <glyph glyph-name="M" unicode="M" horiz-adv-x="2260" 
d="M88 0v334h109v723h-109v334h838l204 -537l211 537h832v-334h-109v-723h109v-334h-721v334h109v772h-5l-413 -1106h-209l-410 1106h-4v-772h109v-334h-541z" />
    <glyph glyph-name="N" unicode="N" horiz-adv-x="1748" 
d="M68 0v334h122v723h-122v334h659l506 -727h4v393h-117v334h561v-334h-120v-1080h-459l-584 846h-4v-489h125v-334h-571z" />
    <glyph glyph-name="O" unicode="O" horiz-adv-x="1771" 
d="M705 698q-1 -209 37 -302t142 -93t143 93q38 93 38 302t-38 302q-38 94 -142 94t-142 -94t-38 -302zM1482 216q-91 -108 -247 -174q-157 -66 -351 -65q-194 0 -350 66q-156 65 -246 173q-188 222 -188 483t188 482q91 107 247 173q157 66 351 66t350 -66t246 -174
q187 -221 187 -482q0 -262 -187 -482z" />
    <glyph glyph-name="P" unicode="P" horiz-adv-x="1685" 
d="M764 829h147q164 0 164 127q0 66 -41 98t-139 31h-131v-256zM90 0v334h135v723h-135v334h938q311 0 461 -124t149 -315q0 -148 -105 -275q-56 -69 -172 -111t-276 -42h-321v-190h139v-334h-813z" />
    <glyph glyph-name="Q" unicode="Q" horiz-adv-x="1771" 
d="M705 698q-1 -209 37 -302t142 -93t143 93q38 93 38 302t-38 302q-38 94 -142 94t-142 -94t-38 -302zM909 -23v-4q63 -11 157 -37q189 -54 382 -40l-115 -322q-85 -16 -193 27t-232 95t-232 52t-182 -51l-148 192q121 106 332 109v4q-246 37 -412 242t-166 460t188 475
q91 109 247 175q155 66 349 66t348 -66q281 -119 389 -402q48 -125 48 -253t-49 -253t-139 -231t-240 -172t-332 -66z" />
    <glyph glyph-name="R" unicode="R" horiz-adv-x="1748" 
d="M741 821h152q82 0 126 35t44 96q0 62 -43 98t-123 35h-156v-264zM90 0v334h113v723h-113v334h772q295 0 432 -31q136 -31 234 -128t98 -257q0 -105 -55 -195t-148 -129l193 -317h100v-334h-502l-303 567h-170v-233h105v-334h-756z" />
    <glyph glyph-name="S" unicode="S" horiz-adv-x="1280" 
d="M92 0v446h314q61 -182 212 -182q51 0 81 25t30 65t-36 75q-36 36 -219 116t-265 162q-127 127 -127 301t121 287q121 114 309 114t315 -104v86h314v-396h-314l-6 19q-61 145 -194 145q-47 -1 -75 -23t-28 -61t22 -61t230 -120q207 -98 299 -189q47 -47 84 -128t37 -174
q0 -180 -131 -301q-131 -120 -321 -120t-338 110v-92h-314z" />
    <glyph glyph-name="T" unicode="T" 
d="M1460 1391v-586h-262v252h-160v-723h123v-334h-784v334h123v723h-160v-252h-262v586h1382z" />
    <glyph glyph-name="U" unicode="U" horiz-adv-x="1492" 
d="M57 1057v334h713v-334h-68v-512q0 -175 66 -220q32 -22 94 -22t90 54t29 198v502h-70v334h523v-334h-109v-541q0 -260 -144 -399t-433 -139q-288 0 -436 134q-148 136 -148 441v504h-107z" />
    <glyph glyph-name="V" unicode="V" 
d="M16 1057v334h748v-334h-117l205 -592h4l215 592h-115v334h562v-334h-103l-418 -1069h-434l-442 1069h-105z" />
    <glyph glyph-name="W" unicode="W" horiz-adv-x="2260" 
d="M16 1057v334h721v-334h-102l162 -598h4l207 598h-105v334h606v-334h-102l207 -598h4l164 598h-101v334h562v-334h-95l-397 -1069h-430l-186 536h-5l-186 -536h-440l-391 1069h-97z" />
    <glyph glyph-name="X" unicode="X" horiz-adv-x="2048" 
d="M53 0v334h156l457 354l-457 369h-148v334h926v-293h-137l233 -203l205 203h-119v293h773v-334h-207l-377 -314l497 -409h140v-334h-936v293h145l-256 231l-235 -231h147v-293h-807z" />
    <glyph glyph-name="Y" unicode="Y" horiz-adv-x="1492" 
d="M371 0v334h110v221l-350 502h-94v334h727v-334h-82l145 -283l179 283h-84v334h534v-334h-88l-348 -502v-221h110v-334h-759z" />
    <glyph glyph-name="Z" unicode="Z" horiz-adv-x="1492" 
d="M59 0v319l686 766h-348v-172h-319v478h1349v-283l-718 -803h403v191h320v-496h-1373z" />
    <glyph glyph-name="bracketleft" unicode="[" horiz-adv-x="1024" 
d="M158 -426v1817h782v-385h-289v-1047h285v-385h-778z" />
    <glyph glyph-name="backslash" unicode="\" horiz-adv-x="575" 
d="M285 1391l290 -1391h-284l-291 1391h285z" />
    <glyph glyph-name="bracketright" unicode="]" horiz-adv-x="1024" 
d="M866 1391v-1817h-782v385h289v1047h-285v385h778z" />
    <glyph glyph-name="asciicircum" unicode="^" horiz-adv-x="1351" 
d="M535 1419h278l410 -813h-355l-194 492l-193 -492h-354z" />
    <glyph glyph-name="underscore" unicode="_" horiz-adv-x="1024" 
d="M1036 -256h-1048v102h1048v-102z" />
    <glyph glyph-name="grave" unicode="`" horiz-adv-x="681" 
d="M557 1114h-240l-413 359h463z" />
    <glyph glyph-name="a" unicode="a" 
d="M710 461q-68 0 -107 -37q-40 -38 -40 -100t41 -98t112 -36t134 58v176q-72 37 -140 37zM744 999q314 1 461 -81q148 -82 149 -281v-332h127v-305h-631v86q-37 -33 -66 -51q-28 -17 -102 -35t-178 -18q-209 0 -313 90q-103 90 -103 221t129 217t327 86t306 -51v88
q0 69 -49 113t-155 44t-173 -94l-393 41q58 143 204 203t460 59z" />
    <glyph glyph-name="b" unicode="b" horiz-adv-x="1622" 
d="M1018 487q0 101 -45 157t-124 56t-124 -58t-45 -160q0 -101 45 -157t127 -57q166 0 166 219zM53 0v305h127v780h-127v306h631v-484q127 80 313 80q236 0 383 -132q148 -132 148 -355q0 -222 -146 -370t-361 -148q-214 0 -337 106v-88h-631z" />
    <glyph glyph-name="c" unicode="c" horiz-adv-x="1409" 
d="M745 -29q-299 1 -477 139t-178 361t166 369t412 147q178 0 317 -98v82h307v-414h-307q-61 170 -192 170q-85 0 -139 -71q-54 -72 -54 -182t52 -176t141 -67q141 0 172 168l374 -84q-49 -164 -203 -254t-391 -90z" />
    <glyph glyph-name="d" unicode="d" horiz-adv-x="1642" 
d="M772 268q82 0 127 56t45 158t-45 160t-124 58t-124 -56t-45 -157q0 -219 166 -219zM1571 0h-631v88q-45 -43 -132 -75t-202 -31q-217 0 -363 147q-147 147 -147 371t148 355q148 132 383 132q186 0 313 -80v178h-123v306h627v-1086h127v-305z" />
    <glyph glyph-name="e" unicode="e" horiz-adv-x="1429" 
d="M720 776q-68 0 -105 -61q-38 -61 -33 -154h284q6 103 -36 159t-110 56zM575 434q4 -235 189 -235q94 0 137 106l416 -49q-61 -137 -207 -211t-352 -74q-338 -1 -503 145t-165 370t173 368t435 145q262 0 442 -125q91 -63 144 -176t55 -264h-764z" />
    <glyph glyph-name="f" unicode="f" horiz-adv-x="937" 
d="M872 1153q-110 0 -144 -38t-32 -144h185v-305h-185v-361h164v-305h-790v305h123v361h-123v305h123q-6 250 143 349q150 99 444 99l213 -2v-270q-80 6 -121 6z" />
    <glyph glyph-name="g" unicode="g" horiz-adv-x="1622" 
d="M768 700q-78 0 -125 -60t-47 -159q0 -98 47 -154q47 -57 127 -57t126 56t46 155t-48 159t-126 60zM602 -166q180 0 264 58t74 208q-147 -78 -332 -77q-233 0 -378 129q-144 130 -144 342t152 352t387 141q188 0 315 -104v88h625v-305h-121v-588q0 -281 -167 -403
t-529 -122t-578 82l137 248q115 -49 295 -49z" />
    <glyph glyph-name="h" unicode="h" horiz-adv-x="1622" 
d="M45 0v305h127v780h-127v306h631v-539q199 135 384 135q380 0 382 -416v-266h114v-305h-618v518q0 141 -121 141q-55 0 -141 -41v-313h135v-305h-766z" />
    <glyph glyph-name="i" unicode="i" horiz-adv-x="831" 
d="M407 1419q119 0 195 -48t76 -123t-73 -125t-199 -50t-201 46q-74 46 -74 123t79 127t197 50zM72 0v305h100v361h-100v305h604v-666h84v-305h-688z" />
    <glyph glyph-name="j" unicode="j" horiz-adv-x="831" 
d="M407 1419q119 0 195 -48t76 -126t-76 -125t-200 -47t-198 46q-73 46 -73 124t79 127t197 49zM188 666h-100v305h604v-848q0 -154 -22 -252q-46 -211 -238 -264q-100 -29 -235 -29t-201 8v273q133 2 163 38t29 189v580z" />
    <glyph glyph-name="k" unicode="k" horiz-adv-x="1515" 
d="M49 0v305h125v780h-125v306h629v-969l315 309h-176v240h621v-264h-115l-182 -179l219 -223h78v-305h-361l-399 420v-420h-629z" />
    <glyph glyph-name="l" unicode="l" horiz-adv-x="831" 
d="M68 0v305h102v780h-102v306h606v-1086h90v-305h-696z" />
    <glyph glyph-name="m" unicode="m" horiz-adv-x="2453" 
d="M70 0v305h123v361h-123v305h626v-144q180 160 425 160t329 -188q225 188 455 188q164 0 262 -99t98 -308v-275h129v-305h-633v535q0 125 -112 124q-82 0 -168 -61v-293h139v-305h-643v535q0 65 -27 95q-26 30 -98 30t-156 -62v-293h140v-305h-766z" />
    <glyph glyph-name="n" unicode="n" horiz-adv-x="1642" 
d="M68 0v305h127v361h-127v305h630v-135q198 152 386 152q386 -1 386 -406v-277h115v-305h-618v508q0 152 -123 151q-72 0 -146 -49v-305h142v-305h-772z" />
    <glyph glyph-name="o" unicode="o" 
d="M598 483q0 -109 43 -167t125 -58t127 60t45 169t-44 167t-124 58t-126 -60t-46 -169zM88 484q0 241 200 378t467 137t469 -118q101 -59 162 -161q62 -102 62 -249q0 -145 -97 -265q-189 -232 -583 -235q-284 0 -482 136t-198 377z" />
    <glyph glyph-name="p" unicode="p" horiz-adv-x="1642" 
d="M694 483q0 -102 43 -158q43 -57 122 -57t129 54t50 172q0 205 -172 204q-82 0 -127 -56t-45 -159zM74 971h620v-88q131 104 343 104t362 -144q149 -145 149 -367t-150 -358t-390 -136q-188 0 -314 79v-202h127v-305h-747v305h116v807h-116v305z" />
    <glyph glyph-name="q" unicode="q" horiz-adv-x="1642" 
d="M948 483q0 103 -45 159t-127 56q-172 0 -172 -204q0 -117 50 -171q50 -55 129 -55t122 56t43 159zM1569 971v-305h-117v-807h117v-305h-748v305h127v202q-125 -80 -313 -79q-241 0 -391 136t-150 358t150 366t365 145q215 0 339 -104v88h621z" />
    <glyph glyph-name="r" unicode="r" horiz-adv-x="1110" 
d="M66 0v305h131v361h-131v305h602v-244h4q96 279 436 260v-420q-219 11 -316 -55t-92 -207h148v-305h-782z" />
    <glyph glyph-name="s" unicode="s" horiz-adv-x="1259" 
d="M121 -12v309h291q68 -67 120 -93t118 -26t104 16t37 39q0 46 -104 71q-21 5 -61 13t-55 13q-328 76 -419 176q-61 70 -62 170q0 147 106 230t296 83q104 0 189 -30t112 -60v72h307v-283h-285q-115 102 -258 103q-109 0 -108 -64q0 -32 46 -43q46 -12 88 -19t83 -15
t73 -15q264 -53 363 -152q68 -68 68 -168q-1 -260 -288 -319q-69 -14 -165 -14t-153 21q-58 21 -93 41t-39 19v-75h-311z" />
    <glyph glyph-name="t" unicode="t" horiz-adv-x="937" 
d="M518 -29q-379 0 -379 373v322h-127v305h127v147l504 240v-387h205v-305h-205v-203q1 -78 19 -109t74 -31t112 31v-297q-52 -39 -146 -63t-184 -23z" />
    <glyph glyph-name="u" unicode="u" horiz-adv-x="1622" 
d="M47 666v305h621v-506q0 -82 26 -119t96 -37q72 0 144 45v312h-131v305h635v-666h116v-305h-620v123q-197 -141 -408 -141q-160 0 -261 103t-101 312v269h-117z" />
    <glyph glyph-name="v" unicode="v" horiz-adv-x="1386" 
d="M37 666v305h684v-305h-109l162 -369l170 369h-96v305h502v-305h-95l-354 -678h-403l-365 678h-96z" />
    <glyph glyph-name="w" unicode="w" horiz-adv-x="2091" 
d="M43 666v305h655v-305h-98l115 -324l239 629h373l217 -629l125 324h-94v305h473v-305h-94l-285 -678h-397l-221 497l-209 -497h-398l-297 678h-104z" />
    <glyph glyph-name="x" unicode="x" horiz-adv-x="1386" 
d="M82 0v305h121l143 156l-170 205h-117v305h492l178 -262l182 262h379v-305h-135l-125 -142l184 -219h113v-305h-481l-189 264l-194 -264h-381z" />
    <glyph glyph-name="y" unicode="y" horiz-adv-x="1343" 
d="M256 -446v305h164l49 90l-373 717h-76v305h662v-305h-107l170 -381l154 381h-94v305h502v-305h-97l-530 -1112h-424z" />
    <glyph glyph-name="z" unicode="z" horiz-adv-x="1343" 
d="M82 0v256l545 485h-330v-112h-207v342h1172v-240l-553 -502h333v117h209v-346h-1169z" />
    <glyph glyph-name="braceleft" unicode="{" horiz-adv-x="796" 
d="M25 344v285q102 0 148 52t46 163v172q0 223 90 313t301 90h162v-327h-37q-90 0 -122 -48t-31 -174v-55q0 -143 -42 -222t-139 -104v-4q96 -25 139 -104q42 -80 42 -223v-56q0 -127 32 -174t121 -47h37v-327h-162q-211 0 -301 90t-90 313v172q0 111 -46 163t-148 52z" />
    <glyph glyph-name="bar" unicode="|" horiz-adv-x="1308" 
d="M492 1391h327v-1704h-327v1704z" />
    <glyph glyph-name="braceright" unicode="}" horiz-adv-x="796" 
d="M772 629v-285q-102 0 -148 -52t-46 -163v-172q0 -223 -90 -313t-302 -90h-161v327h36q90 0 122 47t32 174v56q0 143 42 222t138 103v4q-96 25 -138 105t-42 223v55q0 127 -32 174t-122 48h-36v327h161q211 0 301 -90t91 -313v-172q0 -111 46 -163t148 -52z" />
    <glyph glyph-name="asciitilde" unicode="~" horiz-adv-x="1343" 
d="M903 518q-92 0 -254 80t-231 80q-154 0 -320 -160v332q170 150 338 149q104 1 270 -79t230 -80q139 -1 309 157v-325q-111 -88 -181 -121t-161 -33z" />
    <glyph glyph-name="uni00A0" unicode="&#xa0;" horiz-adv-x="681" 
 />
    <glyph glyph-name="exclamdown" unicode="&#xa1;" horiz-adv-x="811" 
d="M647 -420h-481v391l72 441h337l72 -432v-400zM655 971v-365h-497v365h497z" />
    <glyph glyph-name="cent" unicode="&#xa2;" horiz-adv-x="1409" 
d="M90 491q0 223 174 359t391 137v154h150v-166q111 -23 180 -66v62h307v-414h-307q-15 63 -69 117t-132 53q-78 0 -130 -71q-54 -71 -54 -179t54 -177t139 -69q139 0 172 168l374 -82q-47 -157 -191 -251t-343 -95v-159h-150v163q-261 21 -413 157t-152 359z" />
    <glyph glyph-name="sterling" unicode="&#xa3;" horiz-adv-x="1280" 
d="M322 360q-49 0 -83 -32t-34 -85q0 -52 38 -88t95 -36q138 -1 156 149q-80 92 -172 92zM912 -18q-163 0 -275 127q-123 -127 -261 -127t-214 74q-78 74 -78 186q0 110 72 176t186 65q63 0 123 -28q-35 106 -109 184h-256v184h154q-47 94 -47 199q0 186 144 292
q143 106 389 105q246 0 374 -93t127 -265l-328 -43q-8 70 -44 110t-90 39t-87 -33t-33 -86t78 -225h310v-184h-254q14 -53 14 -131t-29 -158q62 -39 126 -39q64 -1 96 29t47 100l235 -61q-14 -189 -110 -293t-260 -104z" />
    <glyph glyph-name="currency" unicode="&#xa4;" horiz-adv-x="1368" 
d="M678 885q-80 -1 -136 -57t-56 -136t56 -136t136 -56t136 56t56 136t-56 136t-136 57zM1163 700q0 -108 -49 -221l146 -145l-213 -213l-142 141q-111 -55 -229 -55t-215 51l-137 -137l-213 213l135 135q-53 113 -53 231t55 220l-137 137l213 213l141 -142q94 50 212 50
t224 -54l146 146l213 -213l-148 -148q51 -101 51 -209z" />
    <glyph glyph-name="yen" unicode="&#xa5;" horiz-adv-x="1492" 
d="M481 465h-418v133h386l-93 135h-293v133h201l-133 191h-94v334h727v-334h-84l147 -283l179 283h-84v334h534v-334h-86l-133 -191h190v-133h-284l-94 -135h378v-133h-407v-131h110v-334h-759v334h110v131z" />
    <glyph glyph-name="brokenbar" unicode="&#xa6;" horiz-adv-x="1308" 
d="M492 1391h327v-742h-327v742zM492 426h327v-739h-327v739z" />
    <glyph glyph-name="section" unicode="&#xa7;" horiz-adv-x="1386" 
d="M422 582q0 -62 45 -108t218 -106t226 -87q59 37 59 109t-48 120q-48 49 -218 99t-221 75q-61 -39 -61 -102zM711 -254q180 0 180 123q0 41 -33 74t-165 79t-280 107t-223 135q-100 100 -100 244q0 184 186 301q-122 111 -122 265t139 250q139 95 381 95t392 -99t161 -267
h-334q-27 94 -78 134t-136 40t-131 -33t-46 -82t30 -80q30 -30 158 -70q127 -40 269 -96q337 -132 335 -407q0 -96 -43 -164t-141 -123q143 -109 143 -248q0 -172 -146 -271t-398 -99q-154 0 -275 32t-202 117q-80 84 -76 211h336q4 -82 62 -125t157 -43z" />
    <glyph glyph-name="dieresis" unicode="&#xa8;" horiz-adv-x="681" 
d="M668 1513q78 0 131 -54t53 -131t-54 -131t-131 -54t-131 55t-55 131q1 76 55 130t132 54zM16 1513q78 0 131 -54t53 -131t-54 -131t-131 -54t-131 55t-54 131t54 130t132 54z" />
    <glyph glyph-name="copyright" unicode="&#xa9;" horiz-adv-x="1642" 
d="M205 734q0 -255 180 -435t436 -180t436 180q181 180 181 435t-180 435q-180 181 -437 181q-256 0 -436 -180t-180 -436zM57 733q-1 315 223 539t541 225q317 0 541 -224q224 -223 223 -539q0 -316 -224 -539q-223 -223 -539 -223t-540 222q-224 224 -225 539zM825 303
q-186 0 -301 120q-114 120 -114 309t117 310q118 121 300 121q143 0 243 -74q99 -75 126 -202l-197 -31q-37 160 -182 160q-86 0 -135 -76t-49 -205q0 -285 186 -284q139 0 180 190l205 -49q-88 -289 -379 -289z" />
    <glyph glyph-name="ordfeminine" unicode="&#xaa;" horiz-adv-x="980" 
d="M371 991q1 -25 23 -44t48 -19t88 24v82q-47 16 -77 17q-82 0 -82 -60zM474 1419q212 0 306 -54t94 -198v-157h80v-217h-424v30q-109 -41 -222 -41t-189 54t-76 143q0 90 85 145t228 56q82 0 174 -23q0 59 -25 85t-97 26t-101 -60l-280 25q39 102 137 144t310 42z" />
    <glyph glyph-name="guillemotleft" unicode="&#xab;" horiz-adv-x="1579" 
d="M782 971l-231 -488l231 -483h-465l-227 483l227 488h465zM1526 971l-232 -488l232 -483h-465l-227 483l227 488h465z" />
    <glyph glyph-name="logicalnot" unicode="&#xac;" horiz-adv-x="1368" 
d="M109 1110h1148v-809h-323v485h-825v324z" />
    <glyph glyph-name="uni00AD" unicode="&#xad;" horiz-adv-x="917" 
d="M102 268v432h713v-432h-713z" />
    <glyph glyph-name="registered" unicode="&#xae;" horiz-adv-x="1642" 
d="M205 734q0 -255 180 -435t436 -180t436 180q181 180 181 435t-180 435q-180 181 -437 181q-256 0 -436 -180t-180 -436zM57 733q-1 315 223 539t541 225q317 0 541 -224q224 -223 223 -539q0 -316 -224 -539q-223 -223 -539 -223t-540 222q-224 224 -225 539zM641 791
h160q160 -1 160 111t-170 112h-150v-223zM641 662v-334h-166v813h410q119 0 185 -65t65 -161t-59 -156t-161 -73v-4q51 -18 79 -49t93 -141l97 -164h-205l-68 131q-57 111 -105 157t-110 46h-55z" />
    <glyph glyph-name="macron" unicode="&#xaf;" horiz-adv-x="681" 
d="M-170 1405h1024v-217h-1024v217z" />
    <glyph glyph-name="degree" unicode="&#xb0;" horiz-adv-x="819" 
d="M408 1214q-78 0 -130 -53t-52 -131t52 -131t130 -53t132 53t54 131t-54 131t-132 53zM410 1419q162 1 276 -113t113 -276q0 -162 -114 -276q-113 -114 -275 -113q-162 0 -276 114q-114 113 -114 275t114 276t276 113z" />
    <glyph glyph-name="plusminus" unicode="&#xb1;" horiz-adv-x="1368" 
d="M111 324h1146v-324h-1146v324zM111 1094h411v372h324v-372h411v-324h-411v-373h-324v373h-411v324z" />
    <glyph glyph-name="two.superior" unicode="&#xb2;" horiz-adv-x="831" 
d="M465 1204q0 49 -74 49q-50 0 -64 -38q-5 -13 -6 -19l-3 -21q-2 -15 -3 -18l-237 6q0 256 328 256q152 0 246 -62t93 -165q0 -76 -59 -135q-58 -59 -192 -113t-152 -82h215l2 60h193l-9 -260h-677v47q0 141 108 249q49 48 142 108t121 88t28 50z" />
    <glyph glyph-name="three.superior" unicode="&#xb3;" horiz-adv-x="831" 
d="M475 901q0 72 -133 74v149q115 6 115 66q0 53 -76 53q-43 0 -59 -18t-21 -60l-246 9q8 127 92 186t248 59t254 -57q90 -58 90 -150t-82 -149q59 -35 85 -75t26 -97q0 -111 -98 -174t-269 -64q-354 0 -360 283l238 16q3 -66 27 -90t81 -24q88 0 88 63z" />
    <glyph glyph-name="acute" unicode="&#xb4;" horiz-adv-x="681" 
d="M125 1114l190 359h463l-413 -359h-240z" />
    <glyph glyph-name="mu" unicode="&#xb5;" horiz-adv-x="1366" 
d="M121 -446v1417h409v-479q0 -193 136 -193q115 0 170 96v576h409v-971h-399v123h-6q-70 -152 -215 -152q-59 0 -95 29v-446h-409z" />
    <glyph glyph-name="paragraph" unicode="&#xb6;" horiz-adv-x="1740" 
d="M1612 1419v-317h-133v-1548h-297v1548h-166v-1548h-297v1013h-135q-229 0 -342 124t-113 304t113 302t346 122h1024z" />
    <glyph glyph-name="periodcentered" unicode="&#xb7;" horiz-adv-x="811" 
d="M156 569v365h497v-365h-497z" />
    <glyph glyph-name="cedilla" unicode="&#xb8;" horiz-adv-x="681" 
d="M174 -274q102 0 102 61q0 45 -47 45q-14 0 -28 -2l20 96q72 60 168 60q97 0 159 -56t62 -146q0 -89 -78 -141t-204 -52t-215 18l14 121q14 -4 47 -4z" />
    <glyph glyph-name="one.superior" unicode="&#xb9;" horiz-adv-x="831" 
d="M160 662v200h116v281q-68 -14 -116 0v192q109 -1 165 19t97 65h139v-557h113v-200h-514z" />
    <glyph glyph-name="ordmasculine" unicode="&#xba;" horiz-adv-x="980" 
d="M393 1098q0 -117 94 -117q101 0 101 117t-94 116q-101 1 -101 -116zM938 1099q0 -143 -123 -233t-325 -90t-324 90q-123 90 -123 231q0 142 123 232q122 90 320 90t325 -89t127 -231z" />
    <glyph glyph-name="guillemotright" unicode="&#xbb;" horiz-adv-x="1579" 
d="M797 0l231 487l-231 484h465l227 -484l-227 -487h-465zM53 0l232 487l-232 484h465l227 -484l-227 -487h-465z" />
    <glyph glyph-name="onequarter" unicode="&#xbc;" horiz-adv-x="1984" 
d="M215 662v200h117v281q-68 -14 -117 0v192q109 -1 165 19t97 65h139v-557h113v-200h-514zM1516 397v144l-164 -144h164zM657 0h-219l938 1391h219zM1417 0v182h99v51h-342l-54 175l396 350h268v-361h86v-164h-86v-51h86v-182h-453z" />
    <glyph glyph-name="onehalf" unicode="&#xbd;" horiz-adv-x="1984" 
d="M215 662v200h117v281q-68 -14 -117 0v192q109 -1 165 19t97 65h139v-557h113v-200h-514zM633 0h-219l938 1391h219zM1563 543q0 49 -75 49t-75 -96l-237 6q0 256 327 256q152 0 246 -62t94 -166q0 -76 -59 -135q-58 -59 -192 -113t-152 -81h215l2 59h192l-8 -260h-678v47
q0 141 109 250q49 49 142 109t121 86q28 28 28 51z" />
    <glyph glyph-name="threequarters" unicode="&#xbe;" horiz-adv-x="1984" 
d="M530 901q0 72 -133 74v149q115 6 115 66q0 53 -76 53q-41 0 -58 -18t-22 -64l-245 13q8 127 92 186t248 59t254 -57q90 -58 90 -150t-82 -149q59 -35 85 -75t25 -97q0 -111 -98 -174t-268 -64q-355 0 -361 283l238 16q4 -66 28 -90t80 -24q88 0 88 63zM1516 397v144
l-164 -144h164zM657 0h-219l938 1391h219zM1417 0v182h99v51h-342l-54 175l396 350h268v-361h86v-164h-86v-51h86v-182h-453z" />
    <glyph glyph-name="questiondown" unicode="&#xbf;" horiz-adv-x="1300" 
d="M936 971v-365h-498v365h498zM700 135q-76 0 -132 -49t-56 -128t47 -126t124 -47t119 43t42 121h403q-5 -180 -161 -289t-434 -109t-440 108t-161 288q0 180 139 289t345 102l20 90h262l25 -301h-13q-53 8 -129 8z" />
    <glyph glyph-name="Agrave" unicode="&#xc0;" horiz-adv-x="1556" 
d="M995 1526h-239l-414 358h463zM573 653h248l-116 385h-5zM23 0v334h104l262 723h-113v334h1002v-334h-113l267 -723h102v-334h-727v305h121l-54 174h-356l-59 -174h114v-305h-550z" />
    <glyph glyph-name="Aacute" unicode="&#xc1;" horiz-adv-x="1556" 
d="M563 1526l191 358h463l-414 -358h-240zM573 653h248l-116 385h-5zM23 0v334h104l262 723h-113v334h1002v-334h-113l267 -723h102v-334h-727v305h121l-54 174h-356l-59 -174h114v-305h-550z" />
    <glyph glyph-name="Acircumflex" unicode="&#xc2;" horiz-adv-x="1556" 
d="M332 1524l209 362h479l207 -362h-285l-162 139l-164 -139h-284zM573 653h248l-116 385h-5zM23 0v334h104l262 723h-113v334h1002v-334h-113l267 -723h102v-334h-727v305h121l-54 174h-356l-59 -174h114v-305h-550z" />
    <glyph glyph-name="Atilde" unicode="&#xc3;" horiz-adv-x="1556" 
d="M612 1878q74 0 171 -44t130 -44q66 0 86 90h222q-6 -164 -82 -260t-197 -96q-76 0 -167 45t-124 45q-74 0 -90 -88h-223q16 166 88 259t186 93zM573 653h248l-116 385h-5zM23 0v334h104l262 723h-113v334h1002v-334h-113l267 -723h102v-334h-727v305h121l-54 174h-356
l-59 -174h114v-305h-550z" />
    <glyph glyph-name="Adieresis" unicode="&#xc4;" horiz-adv-x="1556" 
d="M1106 1925q78 0 131 -53t53 -131t-54 -132q-54 -55 -131 -55t-131 54t-54 132q0 77 54 131t132 54zM455 1925q78 0 131 -53t53 -131t-54 -132q-54 -55 -131 -55t-131 54q-55 54 -55 132q0 77 54 131t133 54zM573 653h248l-116 385h-5zM23 0v334h104l262 723h-113v334
h1002v-334h-113l267 -723h102v-334h-727v305h121l-54 174h-356l-59 -174h114v-305h-550z" />
    <glyph glyph-name="Aring" unicode="&#xc5;" horiz-adv-x="1556" 
d="M778 1968q100 0 171 -71t71 -171t-71 -171t-171 -71t-171 72q-71 70 -70 170q0 100 70 171q71 71 171 71zM778 1829q-42 0 -72 -30t-30 -73q0 -42 30 -72t72 -30t73 30q30 30 30 72t-30 73q-30 30 -73 30zM573 653h248l-116 385h-5zM23 0v334h104l262 723h-113v334h1002
v-334h-113l267 -723h102v-334h-727v305h121l-54 174h-356l-59 -174h114v-305h-550z" />
    <glyph glyph-name="AE" unicode="&#xc6;" horiz-adv-x="2240" 
d="M897 827v277h-109l-141 -277h250zM-27 0v334h82l387 723h-112v334h1800v-443h-365v109h-321v-213h276v-283h-276v-227h321v112h365v-446h-1333v334h108v227h-385l-112 -227h129v-334h-564z" />
    <glyph glyph-name="Ccedilla" unicode="&#xc7;" horiz-adv-x="1642" 
d="M655 -274q102 0 103 61q0 45 -47 45q-14 0 -29 -2l20 96q57 47 123 47v4q-166 7 -296 59q-131 52 -209 125t-130 169q-88 165 -90 366q0 313 194 518t490 205q242 0 396 -121v93h333v-508h-346q-31 98 -93 150t-144 52q-225 0 -225 -387q0 -203 57 -299t176 -96
q203 0 258 311l360 -129q-115 -487 -636 -508v-4q76 -8 124 -60t48 -135t-78 -135t-204 -52t-216 18l14 121q14 -4 47 -4z" />
    <glyph glyph-name="Egrave" unicode="&#xc8;" 
d="M985 1526h-240l-413 358h463zM92 0v334h109v723h-109v334h1327v-445h-364v111h-316v-213h275v-283h-275v-227h316v110h364v-444h-1327z" />
    <glyph glyph-name="Eacute" unicode="&#xc9;" 
d="M553 1526l190 358h463l-413 -358h-240zM92 0v334h109v723h-109v334h1327v-445h-364v111h-316v-213h275v-283h-275v-227h316v110h364v-444h-1327z" />
    <glyph glyph-name="Ecircumflex" unicode="&#xca;" 
d="M322 1524l208 362h480l207 -362h-285l-162 139l-164 -139h-284zM92 0v334h109v723h-109v334h1327v-445h-364v111h-316v-213h275v-283h-275v-227h316v110h364v-444h-1327z" />
    <glyph glyph-name="Edieresis" unicode="&#xcb;" 
d="M1095 1925q77 0 131 -53t54 -131t-54 -132q-54 -55 -130 -55t-131 54t-55 132q0 77 54 131t131 54zM443 1925q77 0 131 -53t54 -131t-54 -132q-54 -55 -130 -55t-131 54t-55 132q0 77 54 131t131 54zM92 0v334h109v723h-109v334h1327v-445h-364v111h-316v-213h275v-283
h-275v-227h316v110h364v-444h-1327z" />
    <glyph glyph-name="Igrave" unicode="&#xcc;" horiz-adv-x="937" 
d="M686 1526h-240l-413 358h463zM72 0v334h129v723h-129v334h796v-334h-129v-723h129v-334h-796z" />
    <glyph glyph-name="Iacute" unicode="&#xcd;" horiz-adv-x="937" 
d="M254 1526l190 358h463l-413 -358h-240zM72 0v334h129v723h-129v334h796v-334h-129v-723h129v-334h-796z" />
    <glyph glyph-name="Icircumflex" unicode="&#xce;" horiz-adv-x="937" 
d="M23 1524l208 362h480l207 -362h-285l-162 139l-164 -139h-284zM72 0v334h129v723h-129v334h796v-334h-129v-723h129v-334h-796z" />
    <glyph glyph-name="Idieresis" unicode="&#xcf;" horiz-adv-x="937" 
d="M796 1925q77 0 131 -53t54 -131t-54 -132q-54 -55 -130 -55t-131 54q-56 54 -56 132q0 77 54 131t132 54zM144 1925q77 0 131 -53q55 -53 55 -131t-54 -132q-54 -55 -131 -55q-76 0 -131 54t-55 132q0 77 54 131t131 54zM72 0v334h129v723h-129v334h796v-334h-129v-723
h129v-334h-796z" />
    <glyph glyph-name="Eth" unicode="&#xd0;" horiz-adv-x="1792" 
d="M737 334h80q143 0 209 86t66 276t-73 275q-73 86 -237 86h-45v-215h211v-283h-211v-225zM90 0v334h109v225h-109v283h109v215h-109v334h797q375 0 581 -199t207 -508q0 -270 -164 -465q-84 -99 -232 -159t-345 -60h-844z" />
    <glyph glyph-name="Ntilde" unicode="&#xd1;" horiz-adv-x="1748" 
d="M709 1878q74 0 171 -44t130 -44q66 0 86 90h221q-6 -164 -82 -260t-197 -96q-76 0 -167 45t-123 45q-75 0 -91 -88h-223q16 166 88 259t187 93zM68 0v334h122v723h-122v334h659l506 -727h4v393h-117v334h561v-334h-120v-1080h-459l-584 846h-4v-489h125v-334h-571z" />
    <glyph glyph-name="Ograve" unicode="&#xd2;" horiz-adv-x="1771" 
d="M1102 1526h-240l-413 358h462zM705 698q-1 -209 37 -302t142 -93t143 93q38 93 38 302t-38 302q-38 94 -142 94t-142 -94t-38 -302zM1482 216q-91 -108 -247 -174q-157 -66 -351 -65q-194 0 -350 66q-156 65 -246 173q-188 222 -188 483t188 482q91 107 247 173
q157 66 351 66t350 -66t246 -174q187 -221 187 -482q0 -262 -187 -482z" />
    <glyph glyph-name="Oacute" unicode="&#xd3;" horiz-adv-x="1771" 
d="M670 1526l190 358h463l-414 -358h-239zM705 698q-1 -209 37 -302t142 -93t143 93q38 93 38 302t-38 302q-38 94 -142 94t-142 -94t-38 -302zM1482 216q-91 -108 -247 -174q-157 -66 -351 -65q-194 0 -350 66q-156 65 -246 173q-188 222 -188 483t188 482q91 107 247 173
q157 66 351 66t350 -66t246 -174q187 -221 187 -482q0 -262 -187 -482z" />
    <glyph glyph-name="Ocircumflex" unicode="&#xd4;" horiz-adv-x="1771" 
d="M438 1524l209 362h479l207 -362h-284l-162 139l-164 -139h-285zM705 698q-1 -209 37 -302t142 -93t143 93q38 93 38 302t-38 302q-38 94 -142 94t-142 -94t-38 -302zM1482 216q-91 -108 -247 -174q-157 -66 -351 -65q-194 0 -350 66q-156 65 -246 173q-188 222 -188 483
t188 482q91 107 247 173q157 66 351 66t350 -66t246 -174q187 -221 187 -482q0 -262 -187 -482z" />
    <glyph glyph-name="Otilde" unicode="&#xd5;" horiz-adv-x="1771" 
d="M719 1878q74 0 171 -44t130 -44q66 0 86 90h221q-6 -164 -82 -260t-196 -96q-76 0 -167 45t-124 45q-74 0 -90 -88h-224q16 166 88 259t187 93zM705 698q-1 -209 37 -302t142 -93t143 93q38 93 38 302t-38 302q-38 94 -142 94t-142 -94t-38 -302zM1482 216
q-91 -108 -247 -174q-157 -66 -351 -65q-194 0 -350 66q-156 65 -246 173q-188 222 -188 483t188 482q91 107 247 173q157 66 351 66t350 -66t246 -174q187 -221 187 -482q0 -262 -187 -482z" />
    <glyph glyph-name="Odieresis" unicode="&#xd6;" horiz-adv-x="1771" 
d="M1212 1925q78 0 131 -53t53 -131t-54 -132q-54 -55 -131 -55t-131 54t-54 132q0 77 54 131t132 54zM561 1925q78 0 131 -53t53 -131t-54 -132q-54 -55 -131 -55t-131 54t-54 132q0 77 54 131t132 54zM705 698q-1 -209 37 -302t142 -93t143 93q38 93 38 302t-38 302
q-38 94 -142 94t-142 -94t-38 -302zM1482 216q-91 -108 -247 -174q-157 -66 -351 -65q-194 0 -350 66q-156 65 -246 173q-188 222 -188 483t188 482q91 107 247 173q157 66 351 66t350 -66t246 -174q187 -221 187 -482q0 -262 -187 -482z" />
    <glyph glyph-name="multiply" unicode="&#xd7;" horiz-adv-x="1366" 
d="M123 1020l229 229l330 -329l330 329l229 -229l-330 -330l330 -330l-229 -229l-330 330l-330 -330l-229 229l330 330z" />
    <glyph glyph-name="Oslash" unicode="&#xd8;" horiz-adv-x="1771" 
d="M880 1094q-96 0 -136 -94t-39 -302q0 -43 2 -61l315 375q-47 82 -142 82zM885 -23q-229 0 -416 97l-80 -103l-143 115l73 94q-219 197 -219 506t214 521t571 212q109 1 223 -25t180 -67l78 92l143 -110l-71 -86q233 -209 233 -525t-219 -519q-219 -202 -567 -202z
M886 303q101 0 141 93t40 302q0 68 -2 82l-322 -383q42 -94 143 -94z" />
    <glyph glyph-name="Ugrave" unicode="&#xd9;" horiz-adv-x="1492" 
d="M963 1526h-240l-414 358h463zM57 1057v334h713v-334h-68v-512q0 -175 66 -220q32 -22 94 -22t90 54t29 198v502h-70v334h523v-334h-109v-541q0 -260 -144 -399t-433 -139q-288 0 -436 134q-148 136 -148 441v504h-107z" />
    <glyph glyph-name="Uacute" unicode="&#xda;" horiz-adv-x="1492" 
d="M530 1526l191 358h463l-414 -358h-240zM57 1057v334h713v-334h-68v-512q0 -175 66 -220q32 -22 94 -22t90 54t29 198v502h-70v334h523v-334h-109v-541q0 -260 -144 -399t-433 -139q-288 0 -436 134q-148 136 -148 441v504h-107z" />
    <glyph glyph-name="Ucircumflex" unicode="&#xdb;" horiz-adv-x="1492" 
d="M299 1524l209 362h479l207 -362h-285l-161 139l-164 -139h-285zM57 1057v334h713v-334h-68v-512q0 -175 66 -220q32 -22 94 -22t90 54t29 198v502h-70v334h523v-334h-109v-541q0 -260 -144 -399t-433 -139q-288 0 -436 134q-148 136 -148 441v504h-107z" />
    <glyph glyph-name="Udieresis" unicode="&#xdc;" horiz-adv-x="1492" 
d="M1073 1925q78 0 131 -53t53 -131t-54 -132q-54 -55 -131 -55t-131 54t-54 132q0 77 54 131t132 54zM422 1925q78 0 131 -53t53 -131t-54 -132q-54 -55 -131 -55t-131 54t-54 132q0 77 54 131t132 54zM57 1057v334h713v-334h-68v-512q0 -175 66 -220q32 -22 94 -22t90 54
t29 198v502h-70v334h523v-334h-109v-541q0 -260 -144 -399t-433 -139q-288 0 -436 134q-148 136 -148 441v504h-107z" />
    <glyph glyph-name="Yacute" unicode="&#xdd;" horiz-adv-x="1492" 
d="M530 1526l191 358h463l-414 -358h-240zM371 0v334h110v221l-350 502h-94v334h727v-334h-82l145 -283l179 283h-84v334h534v-334h-88l-348 -502v-221h110v-334h-759z" />
    <glyph glyph-name="Thorn" unicode="&#xde;" horiz-adv-x="1685" 
d="M764 569h147q164 0 164 127q0 66 -41 96t-139 29h-131v-252zM764 1206v-80h264q311 0 461 -124t149 -314q0 -120 -72 -232t-250 -163q-101 -29 -231 -29h-321v-80h139v-184h-813v184h135v1022h-135v185h809v-185h-135z" />
    <glyph glyph-name="germandbls" unicode="&#xdf;" horiz-adv-x="1622" 
d="M55 0v305h123v615q0 500 682 499q295 0 464 -92t169 -270q0 -98 -60 -173t-163 -102v-4q272 -98 272 -362q0 -162 -98 -290q-49 -64 -139 -104t-211 -40t-234 41v231q20 -6 41 -6q131 0 131 182q0 115 -45 166t-153 57v228q72 0 114 39q42 38 41 104q0 66 -43 106
q-44 40 -120 41q-76 0 -110 -60t-34 -175v-631h72v-305h-699z" />
    <glyph glyph-name="agrave" unicode="&#xe0;" 
d="M985 1114h-240l-413 359h463zM710 461q-68 0 -107 -37q-40 -38 -40 -100t41 -98t112 -36t134 58v176q-72 37 -140 37zM744 999q314 1 461 -81q148 -82 149 -281v-332h127v-305h-631v86q-37 -33 -66 -51q-28 -17 -102 -35t-178 -18q-209 0 -313 90q-103 90 -103 221
t129 217t327 86t306 -51v88q0 69 -49 113t-155 44t-173 -94l-393 41q58 143 204 203t460 59z" />
    <glyph glyph-name="aacute" unicode="&#xe1;" 
d="M553 1114l190 359h463l-413 -359h-240zM710 461q-68 0 -107 -37q-40 -38 -40 -100t41 -98t112 -36t134 58v176q-72 37 -140 37zM744 999q314 1 461 -81q148 -82 149 -281v-332h127v-305h-631v86q-37 -33 -66 -51q-28 -17 -102 -35t-178 -18q-209 0 -313 90
q-103 90 -103 221t129 217t327 86t306 -51v88q0 69 -49 113t-155 44t-173 -94l-393 41q58 143 204 203t460 59z" />
    <glyph glyph-name="acircumflex" unicode="&#xe2;" 
d="M322 1112l208 363h480l207 -363h-285l-162 139l-164 -139h-284zM710 461q-68 0 -107 -37q-40 -38 -40 -100t41 -98t112 -36t134 58v176q-72 37 -140 37zM744 999q314 1 461 -81q148 -82 149 -281v-332h127v-305h-631v86q-37 -33 -66 -51q-28 -17 -102 -35t-178 -18
q-209 0 -313 90q-103 90 -103 221t129 217t327 86t306 -51v88q0 69 -49 113t-155 44t-173 -94l-393 41q58 143 204 203t460 59z" />
    <glyph glyph-name="atilde" unicode="&#xe3;" 
d="M602 1466q74 0 171 -44t130 -44q66 0 86 90h221q-6 -164 -82 -260t-196 -96q-76 0 -167 45t-124 45q-74 0 -90 -88h-223q16 166 88 259t186 93zM710 461q-68 0 -107 -37q-40 -38 -40 -100t41 -98t112 -36t134 58v176q-72 37 -140 37zM744 999q314 1 461 -81
q148 -82 149 -281v-332h127v-305h-631v86q-37 -33 -66 -51q-28 -17 -102 -35t-178 -18q-209 0 -313 90q-103 90 -103 221t129 217t327 86t306 -51v88q0 69 -49 113t-155 44t-173 -94l-393 41q58 143 204 203t460 59z" />
    <glyph glyph-name="adieresis" unicode="&#xe4;" 
d="M1095 1513q77 0 131 -54t54 -131t-54 -131t-130 -54t-131 55t-56 131q1 76 55 130t131 54zM443 1513q77 0 131 -54t54 -131t-54 -131t-130 -54t-131 55t-55 131t54 130t131 54zM710 461q-68 0 -107 -37q-40 -38 -40 -100t41 -98t112 -36t134 58v176q-72 37 -140 37z
M744 999q314 1 461 -81q148 -82 149 -281v-332h127v-305h-631v86q-37 -33 -66 -51q-28 -17 -102 -35t-178 -18q-209 0 -313 90q-103 90 -103 221t129 217t327 86t306 -51v88q0 69 -49 113t-155 44t-173 -94l-393 41q58 143 204 203t460 59z" />
    <glyph glyph-name="aring" unicode="&#xe5;" 
d="M768 1556q100 0 171 -70t71 -171q0 -100 -71 -171t-171 -71t-171 71t-71 171q0 101 71 171t171 70zM768 1417q-43 1 -73 -29q-29 -30 -29 -73t30 -73t72 -30q43 0 73 30t29 73q0 43 -29 73q-30 29 -73 29zM710 461q-68 0 -107 -37q-40 -38 -40 -100t41 -98t112 -36
t134 58v176q-72 37 -140 37zM744 999q314 1 461 -81q148 -82 149 -281v-332h127v-305h-631v86q-37 -33 -66 -51q-28 -17 -102 -35t-178 -18q-209 0 -313 90q-103 90 -103 221t129 217t327 86t306 -51v88q0 69 -49 113t-155 44t-173 -94l-393 41q58 143 204 203t460 59z" />
    <glyph glyph-name="ae" unicode="&#xe6;" horiz-adv-x="2197" 
d="M1354 557h286q4 100 -32 160q-37 59 -113 59q-141 0 -141 -219zM716 424q-74 0 -114 -36t-41 -93q0 -57 40 -95q39 -38 109 -38t140 53v170q-60 39 -134 39zM1528 -29q-369 0 -537 183q-190 -182 -477 -183q-192 0 -310 82t-118 218q0 137 129 225t319 88t316 -49
q2 145 -35 200t-160 55t-180 -92l-391 37q98 264 635 264q299 0 444 -92q150 92 334 92q297 -1 461 -159t158 -406h-762q8 -236 178 -235q92 -1 141 110l420 -51q-57 -137 -205 -212t-360 -75z" />
    <glyph glyph-name="ccedilla" unicode="&#xe7;" horiz-adv-x="1409" 
d="M535 -274q102 0 102 61q0 45 -47 45q-14 0 -29 -2l21 96q45 39 98 47v4q-270 11 -430 147t-160 353t166 363t412 147q178 0 317 -98v82h307v-414h-307q-61 170 -192 170q-85 0 -139 -71q-54 -72 -54 -182t52 -176t141 -67q141 0 172 168l374 -84q-45 -151 -179 -239
t-339 -99v-4q66 -16 108 -66t42 -131t-78 -133t-205 -52t-215 18l14 121q14 -4 48 -4z" />
    <glyph glyph-name="egrave" unicode="&#xe8;" horiz-adv-x="1429" 
d="M932 1114h-240l-413 359h462zM720 776q-68 0 -105 -61q-38 -61 -33 -154h284q6 103 -36 159t-110 56zM575 434q4 -235 189 -235q94 0 137 106l416 -49q-61 -137 -207 -211t-352 -74q-338 -1 -503 145t-165 370t173 368t435 145q262 0 442 -125q91 -63 144 -176t55 -264
h-764z" />
    <glyph glyph-name="eacute" unicode="&#xe9;" horiz-adv-x="1429" 
d="M500 1114l190 359h463l-414 -359h-239zM720 776q-68 0 -105 -61q-38 -61 -33 -154h284q6 103 -36 159t-110 56zM575 434q4 -235 189 -235q94 0 137 106l416 -49q-61 -137 -207 -211t-352 -74q-338 -1 -503 145t-165 370t173 368t435 145q262 0 442 -125q91 -63 144 -176
t55 -264h-764z" />
    <glyph glyph-name="ecircumflex" unicode="&#xea;" horiz-adv-x="1429" 
d="M268 1112l209 363h479l207 -363h-284l-162 139l-164 -139h-285zM720 776q-68 0 -105 -61q-38 -61 -33 -154h284q6 103 -36 159t-110 56zM575 434q4 -235 189 -235q94 0 137 106l416 -49q-61 -137 -207 -211t-352 -74q-338 -1 -503 145t-165 370t173 368t435 145
q262 0 442 -125q91 -63 144 -176t55 -264h-764z" />
    <glyph glyph-name="edieresis" unicode="&#xeb;" horiz-adv-x="1429" 
d="M1041 1513q77 0 131 -54t54 -131t-54 -131t-130 -54t-131 55t-55 131t54 130t131 54zM390 1513q77 0 131 -54t54 -131t-54 -131t-130 -54t-131 55t-55 131t54 130t131 54zM720 776q-68 0 -105 -61q-38 -61 -33 -154h284q6 103 -36 159t-110 56zM575 434q4 -235 189 -235
q94 0 137 106l416 -49q-61 -137 -207 -211t-352 -74q-338 -1 -503 145t-165 370t173 368t435 145q262 0 442 -125q91 -63 144 -176t55 -264h-764z" />
    <glyph glyph-name="igrave" unicode="&#xec;" horiz-adv-x="831" 
d="M633 1114h-240l-413 359h462zM72 0v305h100v361h-100v305h604v-666h84v-305h-688z" />
    <glyph glyph-name="iacute" unicode="&#xed;" horiz-adv-x="831" 
d="M201 1114l190 359h463l-414 -359h-239zM72 0v305h100v361h-100v305h604v-666h84v-305h-688z" />
    <glyph glyph-name="icircumflex" unicode="&#xee;" horiz-adv-x="831" 
d="M-31 1112l209 363h479l207 -363h-284l-162 139l-164 -139h-285zM72 0v305h100v361h-100v305h604v-666h84v-305h-688z" />
    <glyph glyph-name="idieresis" unicode="&#xef;" horiz-adv-x="831" 
d="M742 1513q77 0 131 -54q55 -54 55 -131t-54 -131t-131 -54q-76 0 -131 55t-55 131t54 130t131 54zM91 1513q77 0 131 -54t54 -131t-54 -131t-130 -54t-131 55t-55 131t54 130t131 54zM72 0v305h100v361h-100v305h604v-666h84v-305h-688z" />
    <glyph glyph-name="eth" unicode="&#xf0;" horiz-adv-x="1552" 
d="M606 483q0 -109 43 -167t125 -58t127 60t45 169t-44 167t-124 58t-126 -60t-46 -169zM1456 627q0 -315 -173 -485t-491 -171q-318 1 -507 145t-189 372t162 369q162 142 389 142q154 0 234 -57l4 4q-25 111 -131 195l-273 -90l-139 77l303 99q-82 47 -199 98l281 94
q133 -18 262 -80l240 80l139 -78l-252 -81q140 -94 240 -266t100 -367z" />
    <glyph glyph-name="ntilde" unicode="&#xf1;" horiz-adv-x="1642" 
d="M655 1466q74 0 171 -44t130 -44q66 0 86 90h222q-6 -164 -82 -260t-197 -96q-76 0 -167 45t-124 45q-74 0 -90 -88h-223q16 166 88 259t186 93zM68 0v305h127v361h-127v305h630v-135q198 152 386 152q386 -1 386 -406v-277h115v-305h-618v508q0 152 -123 151
q-72 0 -146 -49v-305h142v-305h-772z" />
    <glyph glyph-name="ograve" unicode="&#xf2;" 
d="M985 1114h-240l-413 359h463zM598 483q0 -109 43 -167t125 -58t127 60t45 169t-44 167t-124 58t-126 -60t-46 -169zM88 484q0 241 200 378t467 137t469 -118q101 -59 162 -161q62 -102 62 -249q0 -145 -97 -265q-189 -232 -583 -235q-284 0 -482 136t-198 377z" />
    <glyph glyph-name="oacute" unicode="&#xf3;" 
d="M553 1114l190 359h463l-413 -359h-240zM598 483q0 -109 43 -167t125 -58t127 60t45 169t-44 167t-124 58t-126 -60t-46 -169zM88 484q0 241 200 378t467 137t469 -118q101 -59 162 -161q62 -102 62 -249q0 -145 -97 -265q-189 -232 -583 -235q-284 0 -482 136t-198 377z
" />
    <glyph glyph-name="ocircumflex" unicode="&#xf4;" 
d="M322 1112l208 363h480l207 -363h-285l-162 139l-164 -139h-284zM598 483q0 -109 43 -167t125 -58t127 60t45 169t-44 167t-124 58t-126 -60t-46 -169zM88 484q0 241 200 378t467 137t469 -118q101 -59 162 -161q62 -102 62 -249q0 -145 -97 -265q-189 -232 -583 -235
q-284 0 -482 136t-198 377z" />
    <glyph glyph-name="otilde" unicode="&#xf5;" 
d="M602 1466q74 0 171 -44t130 -44q66 0 86 90h221q-6 -164 -82 -260t-196 -96q-76 0 -167 45t-124 45q-74 0 -90 -88h-223q16 166 88 259t186 93zM598 483q0 -109 43 -167t125 -58t127 60t45 169t-44 167t-124 58t-126 -60t-46 -169zM88 484q0 241 200 378t467 137
t469 -118q101 -59 162 -161q62 -102 62 -249q0 -145 -97 -265q-189 -232 -583 -235q-284 0 -482 136t-198 377z" />
    <glyph glyph-name="odieresis" unicode="&#xf6;" 
d="M1095 1513q77 0 131 -54t54 -131t-54 -131t-130 -54t-131 55t-56 131q1 76 55 130t131 54zM443 1513q77 0 131 -54t54 -131t-54 -131t-130 -54t-131 55t-55 131t54 130t131 54zM598 483q0 -109 43 -167t125 -58t127 60t45 169t-44 167t-124 58t-126 -60t-46 -169zM88 484
q0 241 200 378t467 137t469 -118q101 -59 162 -161q62 -102 62 -249q0 -145 -97 -265q-189 -232 -583 -235q-284 0 -482 136t-198 377z" />
    <glyph glyph-name="divide" unicode="&#xf7;" horiz-adv-x="1368" 
d="M109 856h1148v-324h-1148v324zM684 1300q78 0 131 -54t53 -131t-54 -131t-131 -54t-131 55t-54 131t54 130t132 54zM684 459q78 0 131 -53q53 -54 53 -132t-54 -132t-131 -54t-131 54t-54 131t54 131t132 55z" />
    <glyph glyph-name="oslash" unicode="&#xf8;" 
d="M778 258q68 0 114 61t46 173q0 16 -4 61l-266 -266q42 -29 110 -29zM772 713q-174 0 -174 -232q0 -14 4 -67l268 268q-41 31 -98 31zM1448 483q0 -225 -188 -368t-486 -144q-193 0 -358 64l-109 -109l-112 80l96 96q-203 150 -203 380t187 374t483 143q198 1 364 -65
l111 110l113 -79l-101 -101q55 -43 74 -63q129 -139 129 -318z" />
    <glyph glyph-name="ugrave" unicode="&#xf9;" horiz-adv-x="1622" 
d="M1028 1114h-240l-413 359h463zM47 666v305h621v-506q0 -82 26 -119t96 -37q72 0 144 45v312h-131v305h635v-666h116v-305h-620v123q-197 -141 -408 -141q-160 0 -261 103t-101 312v269h-117z" />
    <glyph glyph-name="uacute" unicode="&#xfa;" horiz-adv-x="1622" 
d="M596 1114l190 359h463l-413 -359h-240zM47 666v305h621v-506q0 -82 26 -119t96 -37q72 0 144 45v312h-131v305h635v-666h116v-305h-620v123q-197 -141 -408 -141q-160 0 -261 103t-101 312v269h-117z" />
    <glyph glyph-name="ucircumflex" unicode="&#xfb;" horiz-adv-x="1622" 
d="M365 1112l208 363h480l207 -363h-285l-162 139l-164 -139h-284zM47 666v305h621v-506q0 -82 26 -119t96 -37q72 0 144 45v312h-131v305h635v-666h116v-305h-620v123q-197 -141 -408 -141q-160 0 -261 103t-101 312v269h-117z" />
    <glyph glyph-name="udieresis" unicode="&#xfc;" horiz-adv-x="1622" 
d="M1139 1513q78 0 131 -54t53 -131t-54 -131t-131 -54t-131 55t-55 131q0 76 54 130t133 54zM487 1513q78 0 131 -54q54 -54 54 -131t-54 -131t-132 -54q-77 0 -131 55t-54 131t54 130t132 54zM47 666v305h621v-506q0 -82 26 -119t96 -37q72 0 144 45v312h-131v305h635
v-666h116v-305h-620v123q-197 -141 -408 -141q-160 0 -261 103t-101 312v269h-117z" />
    <glyph glyph-name="yacute" unicode="&#xfd;" horiz-adv-x="1343" 
d="M457 1114l190 359h463l-414 -359h-239zM256 -446v305h164l49 90l-373 717h-76v305h662v-305h-107l170 -381l154 381h-94v305h502v-305h-97l-530 -1112h-424z" />
    <glyph glyph-name="thorn" unicode="&#xfe;" horiz-adv-x="1642" 
d="M694 483q0 -102 43 -158q43 -57 122 -57t129 54t50 172q0 205 -172 204q-82 0 -127 -56t-45 -159zM74 1391h620v-488q158 84 328 84q227 0 377 -144q149 -143 149 -365t-148 -359t-392 -137q-182 0 -314 79v-202h127v-305h-747v305h116v1226h-116v306z" />
    <glyph glyph-name="ydieresis" unicode="&#xff;" horiz-adv-x="1343" 
d="M999 1513q78 0 131 -54q54 -54 54 -131t-54 -131t-132 -54q-77 0 -131 55t-54 131t54 130t132 54zM348 1513q78 0 131 -54t53 -131t-54 -131t-131 -54t-131 55t-54 131t54 130t132 54zM256 -446v305h164l49 90l-373 717h-76v305h662v-305h-107l170 -381l154 381h-94v305
h502v-305h-97l-530 -1112h-424z" />
    <glyph glyph-name="dotlessi" unicode="&#x131;" horiz-adv-x="831" 
d="M72 0v305h100v361h-100v305h604v-666h84v-305h-688z" />
    <glyph glyph-name="Lslash" unicode="&#x141;" horiz-adv-x="1429" 
d="M72 0v334h125v182l-125 -41v191l125 41v350h-125v334h794v-334h-131v-172l256 84v-191l-256 -84v-360h328v223h334v-557h-1325z" />
    <glyph glyph-name="lslash" unicode="&#x142;" horiz-adv-x="831" 
d="M170 1085h-102v306h606v-377l137 84v-195l-137 -84v-514h90v-305h-696v305h102v197l-150 -96v194l150 96v389z" />
    <glyph glyph-name="OE" unicode="&#x152;" horiz-adv-x="2367" 
d="M1026 1057h-86q-297 0 -297 -375q0 -160 73 -254t214 -94h96v723zM2251 446v-446h-1381q-174 0 -311 44t-220 114q-231 195 -235 538q0 279 166 474q86 100 244 160t371 61h1366v-445h-365v111h-321v-213h276v-283h-276v-227h321v112h365z" />
    <glyph glyph-name="oe" unicode="&#x153;" horiz-adv-x="2283" 
d="M594 483q0 -105 46 -165t128 -60t126 60t44 166t-46 168q-46 60 -125 60t-126 -61q-47 -62 -47 -168zM1729 557q0 103 -38 161t-106 58q-133 0 -143 -219h287zM1600 -29q-244 0 -412 92q-145 -92 -440 -92q-188 -1 -326 53t-207 138q-131 157 -131 330q0 229 184 368
t482 139t438 -108q130 109 406 109t441 -152q165 -150 167 -414h-760q-8 -106 40 -171t136 -65t149 107l412 -53q-57 -123 -197 -202q-138 -79 -382 -79z" />
    <glyph glyph-name="Scaron" unicode="&#x160;" horiz-adv-x="1280" 
d="M1087 1886l-208 -362h-480l-206 362h284l162 -139l164 139h284zM92 0v446h314q61 -182 212 -182q51 0 81 25t30 65t-36 75q-36 36 -219 116t-265 162q-127 127 -127 301t121 287q121 114 309 114t315 -104v86h314v-396h-314l-6 19q-61 145 -194 145q-47 -1 -75 -23
t-28 -61t22 -61t230 -120q207 -98 299 -189q47 -47 84 -128t37 -174q0 -180 -131 -301q-131 -120 -321 -120t-338 110v-92h-314z" />
    <glyph glyph-name="scaron" unicode="&#x161;" horiz-adv-x="1259" 
d="M1077 1475l-209 -363h-479l-207 363h285l162 -140l164 140h284zM121 -12v309h291q68 -67 120 -93t118 -26t104 16t37 39q0 46 -104 71q-21 5 -61 13t-55 13q-328 76 -419 176q-61 70 -62 170q0 147 106 230t296 83q104 0 189 -30t112 -60v72h307v-283h-285
q-115 102 -258 103q-109 0 -108 -64q0 -32 46 -43q46 -12 88 -19t83 -15t73 -15q264 -53 363 -152q68 -68 68 -168q-1 -260 -288 -319q-69 -14 -165 -14t-153 21q-58 21 -93 41t-39 19v-75h-311z" />
    <glyph glyph-name="Ydieresis" unicode="&#x178;" horiz-adv-x="1492" 
d="M1073 1925q78 0 131 -53t53 -131t-54 -132q-54 -55 -131 -55t-131 54t-54 132q0 77 54 131t132 54zM422 1925q78 0 131 -53t53 -131t-54 -132q-54 -55 -131 -55t-131 54t-54 132q0 77 54 131t132 54zM371 0v334h110v221l-350 502h-94v334h727v-334h-82l145 -283l179 283
h-84v334h534v-334h-88l-348 -502v-221h110v-334h-759z" />
    <glyph glyph-name="Zcaron" unicode="&#x17d;" horiz-adv-x="1492" 
d="M1194 1886l-209 -362h-479l-207 362h285l161 -139l164 139h285zM59 0v319l686 766h-348v-172h-319v478h1349v-283l-718 -803h403v191h320v-496h-1373z" />
    <glyph glyph-name="zcaron" unicode="&#x17e;" horiz-adv-x="1343" 
d="M1120 1475l-209 -363h-479l-207 363h285l162 -140l164 140h284zM82 0v256l545 485h-330v-112h-207v342h1172v-240l-553 -502h333v117h209v-346h-1169z" />
    <glyph glyph-name="florin" unicode="&#x192;" horiz-adv-x="1130" 
d="M258 -446h-244l58 276q68 4 98 36t51 126l154 649h-127l69 317h129l29 142q29 145 122 232t224 87h299l-57 -270q-98 6 -139 -21t-58 -102l-14 -68h129l-68 -317h-133l-164 -704q-43 -187 -129 -285t-229 -98z" />
    <glyph glyph-name="circumflex" unicode="&#x2c6;" horiz-adv-x="681" 
d="M-106 1112l208 363h480l206 -363h-284l-162 139l-164 -139h-284z" />
    <glyph glyph-name="caron" unicode="&#x2c7;" horiz-adv-x="681" 
d="M788 1475l-208 -363h-480l-206 363h284l162 -140l164 140h284z" />
    <glyph glyph-name="uni02C9" unicode="&#x2c9;" horiz-adv-x="681" 
d="M-170 1405h1024v-217h-1024v217z" />
    <glyph glyph-name="breve" unicode="&#x2d8;" horiz-adv-x="681" 
d="M337 1116q-193 0 -310 92t-133 256h231q9 -49 71 -80t152 -30q164 0 209 110h231q-18 -164 -138 -256t-313 -92z" />
    <glyph glyph-name="dotaccent" unicode="&#x2d9;" horiz-adv-x="681" 
d="M156 1330q0 78 54 132t131 54t131 -54t54 -131q0 -78 -54 -132t-130 -54t-131 54t-55 131z" />
    <glyph glyph-name="ring" unicode="&#x2da;" horiz-adv-x="681" 
d="M340 1556q100 0 171 -70t71 -171q0 -100 -71 -171t-171 -71t-171 71t-71 171q0 101 71 171t171 70zM340 1417q-43 1 -73 -29q-29 -30 -29 -73t30 -73t72 -30q43 0 73 30t29 73q0 43 -29 73q-30 29 -73 29z" />
    <glyph glyph-name="ogonek" unicode="&#x2db;" horiz-adv-x="681" 
d="M317 -132q0 -126 160 -126q68 0 160 27v-170q-157 -45 -283 -45t-213 62q-85 62 -85 160t61 251h225q-25 -98 -25 -159z" />
    <glyph glyph-name="tilde" unicode="&#x2dc;" horiz-adv-x="681" 
d="M174 1466q74 0 171 -44t130 -44q66 0 86 90h221q-6 -164 -82 -260t-196 -96q-76 0 -167 45t-124 45q-74 0 -90 -88h-223q16 166 88 259t186 93z" />
    <glyph glyph-name="hungarumlaut" unicode="&#x2dd;" horiz-adv-x="681" 
d="M-98 1114l190 359h463l-414 -359h-239zM487 1114l191 359h463l-414 -359h-240z" />
    <glyph glyph-name="uni03A9" unicode="&#x3a9;" horiz-adv-x="1808" 
d="M420 270v6q-125 76 -214 206t-89 304q0 264 218 442t572 179q355 0 569 -180t214 -443q0 -311 -312 -508v-6h338v-270h-727v209q158 94 228 199q92 129 92 308t-111 302t-287 123t-293 -118q-116 -118 -116 -299t87 -314t232 -201v-209h-731v270h330z" />
    <glyph glyph-name="uni03BC" unicode="&#x3bc;" horiz-adv-x="1366" 
d="M121 -446v1417h409v-479q0 -193 136 -193q115 0 170 96v576h409v-971h-399v123h-6q-70 -152 -215 -152q-59 0 -95 29v-446h-409z" />
    <glyph glyph-name="pi" unicode="&#x3c0;" horiz-adv-x="1507" 
d="M1294 768v-420q0 -223 27 -348h-371q-41 49 -41 317v451h-270q-4 -194 -42 -430t-87 -338h-375q51 152 91 381t38 387q-158 0 -227 -18l-37 215q82 78 424 77h1057l-33 -274h-154z" />
    <glyph glyph-name="endash" unicode="&#x2013;" horiz-adv-x="1024" 
d="M-12 827h1048v-389h-1048v389z" />
    <glyph glyph-name="emdash" unicode="&#x2014;" horiz-adv-x="2048" 
d="M-12 827h2072v-389h-2072v389z" />
    <glyph glyph-name="quoteleft" unicode="&#x2018;" horiz-adv-x="811" 
d="M655 1192q-111 0 -151 -44t-37 -163h188v-364h-497v444q0 158 106 243t297 85q61 0 94 -4v-197z" />
    <glyph glyph-name="quoteright" unicode="&#x2019;" horiz-adv-x="811" 
d="M156 819q110 0 150 44t38 163h-188v365h497v-445q0 -158 -106 -243t-297 -85q-61 1 -94 5v196z" />
    <glyph glyph-name="quotesinglbase" unicode="&#x201a;" horiz-adv-x="811" 
d="M156 -207q110 0 150 44t38 163h-188v365h497v-445q0 -158 -106 -243t-297 -85q-61 1 -94 5v196z" />
    <glyph glyph-name="quotedblleft" unicode="&#x201c;" horiz-adv-x="1472" 
d="M647 1192q-111 0 -151 -44t-37 -163h188v-364h-497v444q0 158 106 243t297 85q61 0 94 -4v-197zM1323 1192q-111 0 -151 -44t-37 -163h188v-364h-498v444q1 158 107 243t297 85q61 0 94 -4v-197z" />
    <glyph glyph-name="quotedblright" unicode="&#x201d;" horiz-adv-x="1472" 
d="M150 819q110 0 150 44t38 163h-188v365h497v-445q0 -158 -106 -243t-297 -85q-61 1 -94 5v196zM825 819q111 0 151 44t38 163h-189v365h498v-445q0 -158 -106 -243t-297 -85q-62 1 -95 5v196z" />
    <glyph glyph-name="quotedblbase" unicode="&#x201e;" horiz-adv-x="1472" 
d="M150 -207q110 0 150 44t38 163h-188v365h497v-445q0 -158 -106 -243t-297 -85q-61 1 -94 5v196zM825 -207q111 0 151 44t38 163h-189v365h498v-445q0 -158 -106 -243t-297 -85q-62 1 -95 5v196z" />
    <glyph glyph-name="dagger" unicode="&#x2020;" horiz-adv-x="1386" 
d="M61 655v342h222q117 -82 292 -102q-6 166 -110 238v258h459v-258q-106 -72 -111 -238q174 20 291 102h223v-342h-223q-125 90 -291 109q6 -180 111 -264v-230l-111 -696h-238l-110 696v230q100 88 110 264q-168 -18 -292 -109h-222z" />
    <glyph glyph-name="daggerdbl" unicode="&#x2021;" horiz-adv-x="1323" 
d="M76 653v344h221q84 -90 240 -104q-14 160 -109 233v265h465v-265q-94 -78 -107 -233q156 14 240 104h219v-344h-219q-90 88 -240 107q2 -104 33 -152l84 -125l-84 -127q-31 -51 -33 -151q150 18 240 106h219v-344h-219q-84 90 -240 105q12 -156 107 -234v-264h-465v264
q94 74 109 234q-156 -14 -240 -105h-221v344h221q90 -88 240 -106q-2 104 -33 151l-84 127l84 125q31 51 33 152q-150 -18 -240 -107h-221z" />
    <glyph glyph-name="bullet" unicode="&#x2022;" horiz-adv-x="1024" 
d="M512 1053q137 1 234 -97q98 -98 98 -235t-98 -235t-234 -97q-137 0 -234 97q-98 96 -98 234t98 236t234 97z" />
    <glyph glyph-name="ellipsis" unicode="&#x2026;" horiz-adv-x="2048" 
d="M774 0v365h498v-365h-498zM1458 0v365h498v-365h-498zM90 0v365h498v-365h-498z" />
    <glyph glyph-name="perthousand" unicode="&#x2030;" horiz-adv-x="2646" 
d="M555 0h-219l938 1391h219zM416 844q43 0 58 40t15 154t-13 153q-13 38 -57 38q-43 0 -61 -43t-18 -153q0 -109 16 -149t60 -40zM416 653q-162 1 -264 107t-103 276q1 170 103 276t264 107q162 0 263 -106q101 -107 101 -277t-101 -276t-263 -107zM1403 162q43 0 58 40
t15 154t-12 153q-14 38 -58 38t-61 -43t-17 -153q0 -109 16 -149t59 -40zM1403 -29q-162 1 -264 107t-103 276q0 170 102 276t265 107q162 0 263 -106q101 -107 101 -277t-101 -276t-263 -107zM2232 162q43 0 59 40q15 40 15 154t-13 153q-13 38 -57 38t-62 -43
q-17 -43 -17 -153q0 -109 16 -149t59 -40zM2232 -29q-162 1 -264 107t-102 276t102 276t264 107q162 0 263 -106q101 -107 101 -277t-100 -276q-102 -106 -264 -107z" />
    <glyph glyph-name="guilsinglleft" unicode="&#x2039;" horiz-adv-x="831" 
d="M762 971l-232 -488l232 -483h-465l-227 483l227 488h465z" />
    <glyph glyph-name="guilsinglright" unicode="&#x203a;" horiz-adv-x="831" 
d="M70 0l231 487l-231 484h465l227 -484l-227 -487h-465z" />
    <glyph glyph-name="fraction" unicode="&#x2044;" horiz-adv-x="319" 
d="M-199 0h-219l938 1391h219z" />
    <glyph glyph-name="Euro" unicode="&#x20ac;" horiz-adv-x="1409" 
d="M758 -18q-292 0 -441 155q-127 134 -174 340h-118v160h98q-2 20 -2 62t2 65h-98v160h120q49 225 191 360t342 135q201 0 328 -100v72h280v-441h-291q-68 172 -198 172q-61 0 -113 -51t-80 -147h254v-160h-278q-2 -20 -2 -64t2 -63h278v-160h-254q57 -201 199 -201
q160 0 215 226l303 -94q-104 -426 -563 -426z" />
    <glyph glyph-name="afii61289" unicode="&#x2113;" horiz-adv-x="1341" 
d="M621 1044v-286q227 211 227 393q0 143 -103 143q-53 0 -89 -59q-35 -60 -35 -191zM262 942q0 582 463 582q193 0 293 -106t100 -277q0 -170 -121 -328t-376 -350l4 -33q8 -70 58 -112t133 -42t167 52t145 127l158 -158q-100 -162 -252 -236t-319 -73q-348 0 -443 291
q-2 6 -2 16l-106 -66l-103 179q37 25 201 127v407z" />
    <glyph glyph-name="trademark" unicode="&#x2122;" horiz-adv-x="1941" 
d="M915 1391h355l112 -447h4l117 447h352v-816h-225v576h-4l-149 -576h-185l-147 576h-4v-576h-226v816zM23 1391h800v-195h-282v-621h-236v621h-282v195z" />
    <glyph glyph-name="Omega" unicode="&#x2126;" horiz-adv-x="1808" 
d="M420 270v6q-125 76 -214 206t-89 304q0 264 218 442t572 179q355 0 569 -180t214 -443q0 -311 -312 -508v-6h338v-270h-727v209q158 94 228 199q92 129 92 308t-111 302t-287 123t-293 -118q-116 -118 -116 -299t87 -314t232 -201v-209h-731v270h330z" />
    <glyph glyph-name="estimated" unicode="&#x212e;" horiz-adv-x="1732" 
d="M1370 731v393q0 29 -18 47q-210 205 -486 205t-487 -211q-18 -18 -19 -49v-385q0 -12 11 -12h991q8 0 8 12zM1665 680h-1294q-10 0 -11 -8v-391q0 -25 17 -45q209 -213 503 -213t502 239h115q-111 -129 -277 -204t-356 -74q-330 0 -563 210t-233 506t233 508
q233 211 564 211t565 -211t235 -508v-20z" />
    <glyph glyph-name="partialdiff" unicode="&#x2202;" horiz-adv-x="1421" 
d="M645 256h2q106 0 184 92t97 209q-14 59 -82 117t-168 57q-100 0 -172 -74q-70 -74 -70 -176q0 -101 60 -163t149 -62zM622 1567q300 0 506 -214q205 -214 205 -569q0 -356 -205 -576t-514 -220t-468 230q-81 119 -83 255q1 221 147 371t386 149q135 0 228 -58t139 -124h2
q2 10 2 41q0 184 -108 312t-289 128t-341 -86l-108 232q201 129 501 129z" />
    <glyph glyph-name="Delta" unicode="&#x2206;" horiz-adv-x="1622" 
d="M784 1137q0 -2 -94 -271l-233 -594h678l-232 574q-98 260 -108 291h-11zM49 0v176l537 1239h456l529 -1239v-176h-1522z" />
    <glyph glyph-name="product" unicode="&#x220f;" horiz-adv-x="1738" 
d="M1698 1087h-246v-1277h-360v1277h-447v-1277h-360v1277h-246v295h1659v-295z" />
    <glyph glyph-name="summation" unicode="&#x2211;" horiz-adv-x="1376" 
d="M1346 -190h-1303v190l547 586l-516 569v227h1218v-292h-704v-9l424 -460l-467 -506v-11h801v-294z" />
    <glyph glyph-name="minus" unicode="&#x2212;" horiz-adv-x="1368" 
d="M109 856h1148v-324h-1148v324z" />
    <glyph glyph-name="uni2215" unicode="&#x2215;" horiz-adv-x="319" 
d="M-199 0h-219l938 1391h219z" />
    <glyph glyph-name="uni2219" unicode="&#x2219;" horiz-adv-x="811" 
d="M156 569v365h497v-365h-497z" />
    <glyph glyph-name="radical" unicode="&#x221a;" horiz-adv-x="1449" 
d="M1509 1651l-565 -1950h-285l-372 854l-170 -70l-62 170l443 181l250 -637q12 -33 31 -91t26 -77h4q20 94 41 176l397 1444h262z" />
    <glyph glyph-name="infinity" unicode="&#x221e;" horiz-adv-x="1679" 
d="M1214 766h-2q-43 0 -67 -13q-25 -13 -39 -21t-32 -23q-18 -17 -30 -25q-10 -8 -28 -30t-29 -33t-43 -54q90 -117 150 -159t136 -41q75 0 121 60t46 141t-49 140q-50 58 -134 58zM467 367h4q123 0 268 186q-53 78 -81 112q-28 33 -80 67t-124 34q-71 0 -123 -56t-52 -142
t54 -144q54 -57 134 -57zM1583 575v-2q1 -174 -107 -279t-253 -106q-217 0 -385 234q-92 -115 -182 -174q-90 -60 -222 -60q-131 0 -235 104q-105 104 -105 270q0 168 106 274t267 106q215 0 387 -227q16 23 38 45t42 44t32 31t34 27q96 80 239 79t244 -101
q100 -101 100 -265z" />
    <glyph glyph-name="integral" unicode="&#x222b;" horiz-adv-x="886" 
d="M754 1497q-82 -1 -128 -65t-46 -265t18 -489t18 -509q0 -222 -77 -351q-100 -174 -326 -174q-129 0 -199 32l41 224q49 -20 112 -20t101 44q62 78 62 276t-20 496q-19 297 -19 467t36 278t113 183q96 98 289 98q82 1 145 -24l-32 -215q-43 14 -88 14z" />
    <glyph glyph-name="approxequal" unicode="&#x2248;" horiz-adv-x="1284" 
d="M422 338q-70 0 -122 -38t-112 -110l-125 132q57 88 159 151q221 137 487 -33q87 -53 151 -53q63 0 112 35q48 35 109 115l127 -131q-150 -215 -338 -216q-109 0 -244 74q-134 74 -204 74zM874 606q-70 0 -124 20t-158 74q-105 56 -170 56q-113 0 -234 -148l-125 131
q57 87 159 151t212 64q112 0 210 -59t134 -75t84 -15q110 0 219 147l127 -129q-150 -217 -334 -217z" />
    <glyph glyph-name="notequal" unicode="&#x2260;" horiz-adv-x="1284" 
d="M1178 885v-193h-381l-121 -260h502v-192h-588l-113 -246l-158 72l80 174h-293v192h379l119 260h-498v193h584l111 241l157 -73l-77 -168h297z" />
    <glyph glyph-name="lessequal" unicode="&#x2264;" horiz-adv-x="1284" 
d="M1178 -14h-1072v198h1072v-198zM1176 256l-1065 457v205l1063 456v-213l-852 -344v-4l854 -346v-211z" />
    <glyph glyph-name="greaterequal" unicode="&#x2265;" horiz-adv-x="1284" 
d="M1165 -14h-1056v198h1056v-198zM111 1374l1065 -456v-207l-1063 -455v211l850 346v4l-852 344v213z" />
    <glyph glyph-name="lozenge" unicode="&#x25ca;" horiz-adv-x="1449" 
d="M1032 682l-270 463q-29 51 -39 82h-6q-10 -31 -39 -82l-264 -451l272 -465q25 -47 37 -77h8q25 55 37 75zM1348 688l-488 -784h-276l-484 784l486 787h276z" />
    </font>
</defs>
</svg>
